<?xml version="1.0" encoding="utf-8"?>
<!-- Generator: Adobe Illustrator 22.0.0, SVG Export Plug-In . SVG Version: 6.00 Build 0)  -->
<svg version="1.1" id="Layer_1" xmlns="http://www.w3.org/2000/svg" xmlns:xlink="http://www.w3.org/1999/xlink" x="0px" y="0px"
	 viewBox="0 0 268 592" style="enable-background:new 0 0 268 592;" xml:space="preserve">
<style type="text/css">
	.st0{filter:url(#Adobe_OpacityMaskFilter);}
	.st1{fill:#FFFFFF;}
	.st2{mask:url(#mask-2_1_);fill:#231F20;}
</style>
<title>Page 1</title>
<desc>Created with Sketch.</desc>
<g id="Mobile-Portrait---Splash" transform="translate(-27.000000, -187.000000)">
	<g id="Page-1" transform="translate(27.000000, 187.000000)">
		<g id="Group-3">
			<g id="Clip-2">
			</g>
			<defs>
				<filter id="Adobe_OpacityMaskFilter" filterUnits="userSpaceOnUse" x="0" y="0.1" width="267.7" height="591.9">
					<feColorMatrix  type="matrix" values="1 0 0 0 0  0 1 0 0 0  0 0 1 0 0  0 0 0 1 0"/>
				</filter>
			</defs>
			<mask maskUnits="userSpaceOnUse" x="0" y="0.1" width="267.7" height="591.9" id="mask-2_1_">
				<g class="st0">
					<polygon id="path-1_1_" class="st1" points="0,0.1 267.7,0.1 267.7,592 0,592 					"/>
				</g>
			</mask>
			<path id="Fill-1" class="st2" d="M242.7,213.3c0.5-1.4,1.1-2.7,2.2-3.8c0.7-0.7-0.4-1.7-1-1c-1.2,1.3-2,2.8-2.6,4.5
				C241,213.9,242.4,214.2,242.7,213.3z M203,70.5c2.1,0,3.6-1,4.8-2.7c0.5-0.8-0.7-1.5-1.3-0.7c-0.9,1.3-1.9,2-3.5,2
				C202.1,69,202.1,70.5,203,70.5L203,70.5z M249.2,219.6c0-0.3,0.1-0.7,0.2-1c0.2,1.2,0.4,2.4,0.8,3.5c0.3,0.9,1.7,0.5,1.4-0.4
				c-0.5-1.7-0.6-3.6-1.2-5.3c-0.1-0.2-0.2-0.4-0.4-0.5c-0.3-0.1-0.6-0.1-0.8,0.1c0,0,0,0,0,0c0,0-0.1,0.1-0.1,0.1
				c-0.8,0.9-1.2,2.1-1.3,3.3C247.7,220.6,249.2,220.6,249.2,219.6z M97.5,76.3V65.6c0-0.9-1.5-0.9-1.5,0v10.6
				C96.1,77.2,97.5,77.2,97.5,76.3z M26.7,328.2c-0.6-13.2-2.9-26.3-2.4-39.5c0-1-1.4-0.9-1.5,0c-0.6,13.2,1.7,26.3,2.4,39.5
				C25.3,329.2,26.8,329.2,26.7,328.2z M223,147.7c-0.9,1.9-2,3.6-3.3,5.3c2.5-2,4.5-4.4,6.5-6.8c-0.6,0.7-1.3,1.4-2,2
				C223.7,148.7,223.1,148.2,223,147.7z M226.2,148.4c-0.6,0.8-1.3,1.5-2,2.3c0.2,0.3,0.3,0.7,0,1c-1.1,1.1-2.1,2.1-3.1,3.2
				c-1.4,1.9-2.6,4-3.9,5.9c0.9-1,1.9-2,2.8-3c0.6-0.9,1.3-1.9,1.9-2.9c0.2-0.3,0.6-0.4,0.9-0.3
				C224.1,152.8,225.3,150.7,226.2,148.4z M211.8,160.8c0.3-0.4,0.5-0.9,0.9-1.3c-0.2,0.1-0.4,0.3-0.6,0.4c0,0.1,0,0.1,0,0.2
				c0,0.3-0.1,0.5-0.3,0.6C211.8,160.7,211.8,160.7,211.8,160.8z M192.9,133.9c-0.3-0.8-0.6-1.6-0.9-2.4c-0.1,0.1-0.1,0.2-0.2,0.3
				C192.1,132.5,192.5,133.2,192.9,133.9C192.9,133.9,192.9,133.9,192.9,133.9z M191,130.3c0.1-0.2,0.2-0.3,0.3-0.5
				c-0.3-0.9-0.7-1.9-1-2.8c-0.2,0.4-0.3,0.7-0.4,1.1C190.2,128.9,190.6,129.6,191,130.3z M189.7,125.1c-0.5-1.4-1-2.9-1.5-4.3
				c-0.2,0.8-0.4,1.6-0.6,2.4c0,0.1,0.1,0.2,0.1,0.3c0.4,0.9,0.8,1.9,1.3,2.8c0.1-0.3,0.3-0.6,0.4-0.9
				C189.5,125.3,189.6,125.2,189.7,125.1z M187.5,119.2c-0.1-0.3-0.2-0.6-0.4-1c-0.3,0.6-0.6,1.3-0.8,2c0.1,0.3,0.2,0.6,0.3,0.8
				c0.1-0.4,0.2-0.9,0.3-1.3C187,119.4,187.2,119.3,187.5,119.2L187.5,119.2z M186.5,116.3c-0.1-0.5-0.3-1-0.4-1.4
				c-0.2,0.6-0.6,1.3-0.9,1.9c0.1,0.4,0.3,0.9,0.4,1.3C185.8,117.5,186.1,116.9,186.5,116.3z M184.9,113.6
				C184.9,113.6,184.9,113.6,184.9,113.6c-0.2-1.4-0.5-2.8-0.8-4.2c-0.1,0.4-0.2,0.8-0.4,1.2c0.2,1.4,0.5,2.7,0.8,4
				C184.7,114.3,184.8,114,184.9,113.6z M180,84.3c0,0.2-0.1,0.5-0.1,0.7c0,0,0.1,0,0.1,0C180,84.7,180.1,84.5,180,84.3
				C180.1,84.3,180,84.3,180,84.3z M180.5,80.4C180.5,80.4,180.6,80.5,180.5,80.4c0.6-0.9,1.2-1.8,2-2.6c-0.2-0.1-0.3-0.2-0.4-0.4
				C181.4,78.4,180.9,79.4,180.5,80.4z M181.5,81.8C181.6,81.8,181.6,81.8,181.5,81.8c0.6-1,1.2-1.8,1.9-2.6c0-0.1,0-0.1,0-0.2
				c0,0,0-0.1,0-0.1C182.7,79.8,182,80.8,181.5,81.8z M192.4,71.4c0.2,0.1,0.3,0.2,0.4,0.4c1.5-1.7,3.3-2.9,5.1-4.3
				C196.1,68.8,194,69.9,192.4,71.4z M201.5,71.9c0.6,0,1.1,0.1,1.7,0.2c0,0-0.1-0.1-0.1-0.1C202.5,72,202,71.9,201.5,71.9z
				 M224.5,116.5C224.5,116.5,224.4,116.5,224.5,116.5c0.1,1.1,0.2,2.2,0.4,3.2c0,0,0,0,0,0c0,0,0-0.1,0.1-0.1
				C224.8,118.6,224.7,117.5,224.5,116.5z M212.4,76.5C212.4,76.5,212.4,76.5,212.4,76.5c0.7,0.8,1.3,1.7,1.9,2.6
				c0,0,0.1-0.1,0.1-0.1C213.8,78.1,213.1,77.2,212.4,76.5z M217.6,85.1c-0.1,0.1-0.2,0.1-0.2,0.2c0.5,1.2,1.1,2.4,1.5,3.6
				c-0.3-1.1-0.7-2.2-1.1-3.3C217.8,85.4,217.7,85.2,217.6,85.1z M224.6,132.8c0-0.3,0-0.5,0-0.8c0,0.4-0.1,0.8-0.1,1.2
				C224.6,133.1,224.6,133,224.6,132.8z M215.2,80.2c-0.1,0-0.1,0.1-0.2,0.1c0.4,0.8,0.8,1.6,1.2,2.4c0.2,0.4,0.4,0.8,0.6,1.2
				c0.1-0.1,0.2-0.1,0.3-0.2c-0.2-0.5-0.4-1-0.7-1.4c0,0-0.1,0-0.1,0c-0.4-0.2-0.4-0.5-0.3-0.8C215.7,81,215.5,80.6,215.2,80.2z
				 M190.9,73.3c0,0-0.1,0.1-0.1,0.1c0.2-0.1,0.3-0.2,0.5-0.3C191.2,73.2,191,73.2,190.9,73.3z M186.8,76.1c0.5-0.4,1.1-0.7,1.6-1.1
				c0.1-0.1,0.2-0.2,0.4-0.3c0-0.1,0-0.2,0-0.3c-0.5,0.3-0.9,0.6-1.4,1C187.1,75.6,187,75.8,186.8,76.1z M180.3,92.2
				C180.3,92.2,180.3,92.1,180.3,92.2c0-0.3-0.1-0.6-0.1-1c-0.1-0.2-0.1-0.3-0.2-0.5C180.1,91.2,180.2,91.7,180.3,92.2z M182.5,92.7
				c-0.4-2.1-0.7-4.1-1.1-6.2C181.5,88.5,181.9,90.6,182.5,92.7C182.4,92.7,182.5,92.7,182.5,92.7z M191.7,125.7
				c0.1,0,0.3-0.1,0.4,0c-0.2-0.4-0.4-0.8-0.7-1.3c-0.2-0.3-0.4-0.7-0.5-1C191.1,124.1,191.4,124.9,191.7,125.7z M196.3,136.4
				c0.1-0.1,0.1-0.2,0.2-0.3c0.1-0.2,0.3-0.3,0.5-0.3c-1-2.3-2.1-4.6-3.3-6.9c0,0,0,0.1,0,0.1C194.6,131.4,195.4,133.9,196.3,136.4
				C196.3,136.4,196.3,136.4,196.3,136.4z M200.1,143.4c-0.3-0.8-0.6-1.7-1-2.5c-0.5-1.3-1-2.5-1.6-3.8c-0.2,0.2-0.3,0.5-0.5,0.8
				c0.2,0.5,0.5,0.9,0.7,1.4c0.5,0.1,0.9,0.5,0.6,1C198.9,141.3,199.5,142.4,200.1,143.4z M208.8,156.8c2.8-3,5.8-6,8.4-9.2
				c0.6-1.1,1.1-2.2,1.7-3.2c0.2-0.4,0.6-0.4,0.9-0.3c0.3-0.4,0.5-0.8,0.8-1.2c0.7-1.1,1.3-2.3,1.9-3.5c0.3-1.9,0.4-3.9,0.6-5.8
				c0.8-9.1-0.6-18.1-1.8-27.1c-0.6-4.4-1-8.9-2.3-13.2c-0.8-2.5-1.7-4.9-2.8-7.3c-0.4,0.2-0.7,0.3-1.1,0.4
				c-0.9,0.3-1.3-1.1-0.4-1.4c0.3-0.1,0.6-0.2,0.9-0.4c-0.4-0.9-0.8-1.7-1.3-2.6c-0.2-0.4-0.4-0.7-0.6-1.1c-0.1,0.1-0.3,0.1-0.4,0.2
				c-0.9,0.3-1.3-1.1-0.4-1.4c0,0,0,0,0,0c-0.6-1-1.3-1.9-2.2-2.7c-0.4,0.1-0.7-0.3-0.7-0.6c-0.4-0.3-0.8-0.6-1.3-0.9
				c-1.8-1-3.8-1.6-5.8-1.9c-0.5,0-1.1,0-1.6,0.1c-5.9,0.6-13.4,2.6-17.1,7.7c-0.1,0.2-0.3,0.3-0.5,0.3c-0.5,0.6-0.9,1.1-1.3,1.7
				c0.7,3.9,1.3,7.8,2,11.7c0.6-0.4,1.5,0.6,0.9,1.2c-0.2,0.2-0.4,0.4-0.6,0.6c0.5,2.6,0.9,5.3,1.4,7.9c0.2,0.4,0.5,0.8,0.7,1.2
				c0.2,0.4,0,0.8-0.3,1c0.6,2.9,1.2,5.8,2,8.6c1.5,3.2,3.2,6.3,4.7,9.3c2.7,5.1,5.1,10.3,7.2,15.6c1,2.7,2.1,5.4,3.1,8
				c0.1,0.1,0.1,0.2,0.1,0.3c0.2,0.6,0.5,1.2,0.7,1.8c0.3,0.4,0.5,0.8,0.8,1.2c0.6,0.6,1.2,1.3,1.8,1.9c0.3,0.3,0.3,0.6,0.1,0.9
				C207.7,155.3,208.3,156,208.8,156.8L208.8,156.8z M220,148.6c0.7-1.5,1.2-3,1.6-4.7c-1,1.5-2,2.9-3.1,4.3c-1,1.9-1.9,3.9-3,5.7
				c-0.5,0.8-1.8,0.1-1.3-0.7c0,0,0,0,0-0.1c-1.5,1.6-3.1,3.3-4.6,4.9c0.1,0.1,0.1,0.2,0.2,0.2c0.3-0.1,0.7,0,0.9,0.2
				c0.1,0,0.1,0,0.2,0c0-0.1,0.1-0.3,0.1-0.4c0-0.2,0-0.4,0.1-0.6c0-0.1,0-0.2,0-0.3c0-0.8,1.1-0.9,1.4-0.4c1.5-0.8,2.8-2.2,3.8-3.4
				C217.7,151.9,219.1,150.4,220,148.6z M219.4,153.3c-0.3,0.3-0.6,0.7-0.9,1c0.3-0.2,0.6-0.3,0.9-0.5
				C219.4,153.7,219.4,153.5,219.4,153.3z M224.1,139.3c-0.1,0.3-0.2,0.5-0.3,0.8c-0.1,0.9-0.3,1.8-0.5,2.7c0,0,0-0.1,0.1-0.1
				C223.6,141.6,223.9,140.5,224.1,139.3z M206,157.9c-0.2-0.2-0.4-0.4-0.6-0.5c-0.9,1.6-1.5,3.4-1.6,5.2
				C204.4,160.9,205,159.3,206,157.9C206,157.9,206,157.9,206,157.9z M219.4,80c0.1-0.1,0.3-0.1,0.4-0.2c0.1,0,0.1-0.1,0.2-0.1
				c0.4-0.2,0.8-0.4,1.2-0.7C220.5,79.2,219.9,79.5,219.4,80z M230.4,116.9c0.8-0.4,1.6,0.8,0.7,1.3c-2,1-2.9,2.9-3.5,4.9
				c0.4-0.7,0.9-1.3,1.4-1.9c0.7-0.7,1.7,0.4,1,1c-1.7,1.8-2.6,4.4-3.3,6.7c0.5-0.9,1-1.7,1.7-2.4c0.7-0.7,1.7,0.4,1,1
				c-1.8,1.9-2.4,4.4-3.4,6.8c0,0.1,0,0.1-0.1,0.1c0,0.5,0,1.1-0.1,1.6c0.6-1,1.1-2,1.8-2.9c0.5-0.8,1.8,0,1.3,0.7
				c-0.2,0.3-0.4,0.6-0.6,0.9c0.6-0.5,1.7,0.2,1.2,0.9c-1.8,2.4-3.3,5-4.9,7.6c-0.2,0.6-0.3,1.1-0.5,1.7c-0.3,0.7-0.6,1.4-0.9,2.1
				c2.4-2.4,4.9-4.9,5.6-8.4c0.2-0.9,1.6-0.5,1.4,0.4c-0.3,1.5-0.8,2.7-1.6,3.9c0.2,0.1,0.3,0.3,0.2,0.6c-0.5,4.2-2.3,8.4-4.8,11.8
				c-0.8,1.1-1.8,2.2-2.8,3.2c-1.1,1.7-2.3,3.3-3.5,4.9c-0.3,0.4-0.7,0.4-1,0.2c-0.3,0.4-0.5,0.8-0.8,1.2c-0.5,0.8-1.8,0.1-1.3-0.7
				c0.5-0.8,1-1.5,1.5-2.2c-0.3,0.1-0.7,0-0.9-0.2c-0.2,0.3-0.3,0.6-0.4,1c-0.4,0.9-1.8,0.5-1.4-0.4c0.5-1.2,1.2-2.4,1.9-3.4
				c-0.1-0.1-0.2-0.3-0.2-0.5c0-0.1,0-0.2,0-0.3c0,0,0,0,0,0c-0.1,0.1-0.2,0.1-0.3,0.2c0,0.1,0,0.2,0,0.3c-0.7,2.6-2.1,5-3.6,7.3
				c-0.5,0.8-1.8,0-1.3-0.7c0.2-0.2,0.3-0.5,0.4-0.7c-0.5-0.2-0.8-0.8-0.3-1.2c0.4-0.4,0.7-0.9,1-1.3c-0.2,0-0.4,0-0.6-0.2
				c-0.3-0.2-0.6-0.5-0.8-0.7c-0.8,1.3-1.5,2.7-1.9,4.2c-0.2,0.9-1.7,0.5-1.4-0.4c0.5-1.7,1.3-3.3,2.2-4.8c-0.1-0.1-0.2-0.2-0.3-0.3
				c0,0-0.1,0-0.1-0.1c-0.3,0.3-0.8,0.3-1.1-0.2c0-0.1-0.1-0.2-0.1-0.2c-0.9,1.5-1.5,3.1-2.1,4.8c-0.3,0.8-1.5,0.6-1.5-0.2
				c-0.4,0.3-1.2,0.1-1.2-0.6c0.1-2.4,0.9-4.8,2.1-6.8c-0.5-0.6-1-1.3-1.4-1.8c-0.3,1-0.7,2-1,3c-0.3,0.9-1.7,0.5-1.4-0.4
				c0.5-1.4,0.9-2.7,1.4-4.1c-0.2-0.4-0.4-0.7-0.7-1.1c-1.1,1.4-2,3-2.9,4.6c-0.5,0.8-1.8,0.1-1.3-0.7c1.1-1.8,2.1-3.6,3.4-5.2
				c-0.4-0.7-0.7-1.3-1-2c-0.6,1.3-1.4,2.6-2.3,3.8c-0.6,0.8-1.8,0-1.3-0.7c1.1-1.5,2-3.2,2.7-4.9c-0.2-0.5-0.4-1-0.6-1.5
				c-0.1-0.1-0.1-0.3-0.2-0.4c-0.4-0.5-0.7-1-1.1-1.5c-0.3,0.7-0.6,1.4-0.6,2.2c0,0.9-1.5,1-1.5,0c0.1-1.3,0.5-2.5,1.1-3.6
				c-0.1-0.2-0.3-0.4-0.4-0.7c-0.6,1.3-1.1,2.6-1.6,3.9c-0.3,0.9-1.8,0.5-1.4-0.4c0.7-1.7,1.3-3.3,2.1-4.9c-0.5-0.8-1-1.6-1.4-2.4
				c-0.4,0.8-0.8,1.6-1.1,2.4c-0.3,0.9-1.7,0.5-1.4-0.4c0.4-1.2,1.1-2.4,1.6-3.5c-0.4-0.8-0.9-1.5-1.3-2.3c-1,1.8-1.8,3.7-2.5,5.6
				c-0.3,0.9-1.7,0.5-1.4-0.4c0.8-2.4,1.8-4.6,3.1-6.8c-0.3-0.6-0.6-1.2-0.9-1.7c-0.3,0.8-0.5,1.6-0.8,2.4c-0.3,0.9-1.7,0.5-1.4-0.4
				c0.4-1.3,0.8-2.6,1.3-3.9c-0.4-0.9-0.9-1.9-1.3-2.8c-0.3,1.2-0.7,2.4-0.9,3.6c-0.2,0.9-1.6,0.5-1.4-0.4c0.4-1.8,0.9-3.5,1.4-5.2
				c-0.1-0.3-0.2-0.5-0.3-0.8c-0.1,0.4-0.2,0.7-0.2,1.1c-0.2,0.9-1.6,0.5-1.4-0.4c0.2-1,0.4-2,0.7-3c-0.3-0.7-0.5-1.4-0.7-2.1
				c-0.3,0.4-0.7,0.7-1.1,1.1c-0.7,0.6-1.8-0.4-1-1c0.6-0.5,1.2-1.1,1.6-1.7c0-0.1-0.1-0.2-0.1-0.3c-0.2-0.9-0.4-1.8-0.6-2.7
				c-0.5,0.3-1.3-0.1-1.1-0.8c0.1-0.2,0.1-0.4,0.2-0.6c-0.4,0.7-1.7,0.3-1.3-0.5c0.5-1.2,0.9-2.5,1.3-3.8c-0.1-0.6-0.1-1.1-0.2-1.7
				c-0.1-0.6-0.1-1.2-0.2-1.8c0,0.2-0.1,0.4-0.1,0.6c-0.2,0.9-1.6,0.5-1.4-0.4c0.3-1.5,0.6-2.9,1.2-4.2c0-0.4-0.1-0.8-0.1-1.1
				c0-0.1-0.1-0.2-0.1-0.3c-0.3,0.9-0.8,1.8-1.4,2.7c-0.5,0.8-1.8,0-1.3-0.7c0.9-1.3,1.5-2.7,1.7-4.2c-0.5-1.2-1.1-2.4-1.7-3.6
				c-0.5,1.1-1.2,2.1-1.8,2.8c-0.7,0.7-1.7-0.3-1-1c1.2-1.3,2.9-4.5,2.2-6.4c-0.2-0.6,0.3-0.9,0.7-0.9c0-0.5,0-1,0.1-1.5
				c0,0,0,0-0.1,0c-0.8,0-0.9-1.1-0.3-1.4c0.9-5.7,4.2-11.1,9.4-13.9c0.5-0.3,0.9,0.1,1.1,0.4c0.7-0.4,1.5-0.8,2.2-1.1
				c1.3-1.2,2.5-2.4,3.6-3.7c0.6-0.7,1.7,0.3,1,1c-0.1,0.1-0.2,0.3-0.4,0.4c0.8-0.5,1.6-1,2.4-1.6c0.7-0.5,1.4,0.6,0.9,1.1
				c0.7-0.5,1.3-1,1.9-1.6c0.7-0.7,1.7,0.4,1,1c-1.8,1.8-4.1,3.1-6,4.7c0.8-0.2,1.5-0.4,2.3-0.6c1.8-1.5,3.6-3,5.7-4.1
				c0.8-0.4,1.6,0.8,0.7,1.3c-1.3,0.7-2.5,1.6-3.7,2.5c1.3-0.1,2.7,0,4,0.2c1.3-0.3,2.6-1.2,3.5-2c0.7-0.7,1.7,0.4,1,1
				c-0.6,0.6-1.3,1.1-2.1,1.6c0.2,0.1,0.5,0.1,0.7,0.2c0.3-0.1,0.6-0.1,0.9,0.1c0.1,0,0.2-0.1,0.4-0.1c0.1,0,0.2-0.1,0.2-0.2
				c0.5-0.4,0.9-0.9,1.2-1.4c0.5-0.8,1.8-0.1,1.3,0.7c0.5-0.1,1-0.3,1.5-0.5c0.9-0.3,1.3,1.1,0.4,1.4c-1.1,0.4-2.3,0.7-3.4,1
				c0.7,0.4,1.3,0.8,1.9,1.3c0.5-0.4,0.9-0.8,1.4-1.2c0.7-0.7,1.7,0.4,1,1c-0.3,0.3-0.6,0.5-0.9,0.8c0.1,0,0.3-0.1,0.4-0.1
				c1-1,2.6-1.2,3.9-0.6c0.9,0.4,0.1,1.7-0.7,1.3c-0.1,0-0.2-0.1-0.3-0.1c-0.1,0.1-0.2,0.1-0.3,0.2l-1.7,0.6
				c-0.1,0.1-0.1,0.3-0.1,0.5c0.6,0.5,1.1,1.1,1.6,1.8c0.7-0.5,1.3-1.1,1.9-1.6c0.7-0.7,1.7,0.4,1,1c-0.7,0.6-1.3,1.2-2.1,1.8
				c0,0,0,0,0,0c0.2,0.3,0.4,0.6,0.6,0.9c1-1.8,3.1-2.8,5.1-2.8c0.4,0,0.6,0.3,0.7,0.6c0.6,0.1,0.9,1,0.3,1.4
				c-1,0.6-1.9,1.2-2.9,1.8c-0.3,0.3-0.6,0.5-0.9,0.8c0.1,0.2,0.1,0.3,0.1,0.6c-0.2,0.4-0.4,0.9-0.6,1.2c0.6,1.4,1,2.9,1.4,4.4
				c0.5-1,1-2,1.4-3.1c0.3-0.9,1.7-0.5,1.4,0.4c-0.2,0.6-0.4,1.1-0.6,1.7c0.6-0.6,1.6,0.1,1.2,0.9c-1,1.4-1.7,2.9-2.3,4.5
				c0,0,0,0.1,0,0.1c0.1,0.6,0.2,1.1,0.3,1.7c0,0.1,0,0.2,0.1,0.3c0.7-1.7,1.8-3.2,3.2-4.6c0.7-0.7,1.7,0.4,1,1
				c-1.6,1.6-2.8,3.4-3.4,5.6c-0.1,0.3-0.2,0.4-0.4,0.5c0.1,0.4,0.1,0.7,0.2,1.1c1.2-1.8,2.2-3.7,3.7-5.3c0.7-0.7,1.7,0.4,1,1
				c-1.6,1.7-2.7,3.8-4,5.7c-0.1,0.2-0.3,0.3-0.4,0.3c0.1,0.4,0.2,0.9,0.3,1.3c0.5-1.4,1-2.9,1.8-4.2c0.5-0.8,1.8-0.1,1.3,0.7
				c-1.1,1.8-1.6,3.8-2.3,5.7c-0.1,0.2-0.1,0.3-0.3,0.4c0,0.1,0.1,0.3,0.1,0.4c0.5-1.1,1.1-2.1,1.8-3.1c0.5-0.8,1.8-0.1,1.3,0.7
				c-1,1.5-1.9,3.1-2.5,4.8l0,0.1c0.4-0.7,0.8-1.4,1.2-2.1c0.5-0.8,1.8-0.1,1.3,0.7c-0.8,1.2-1.5,2.4-2,3.8c0.1,0.2,0.1,0.5,0.2,0.7
				c0.6-1.1,1.4-2.2,2.5-3c0.7-0.6,1.8,0.5,1,1c-1.6,1.3-2.5,2.9-3,4.7c0.3,1.5,0.5,3.1,0.8,4.6c0.7-1.5,1.2-3.1,1.5-4.8
				c0.2-0.9,1.6-0.5,1.4,0.4c-0.5,2.4-1.4,4.8-2.6,6.9c0.1,0.5,0.1,1,0.1,1.5C227.4,119.6,228.5,117.9,230.4,116.9L230.4,116.9z
				 M265.3,342.4c0,0.4-0.1,0.8-0.1,1.2c-0.1,0.4-0.4,0.7-0.7,0.7v43c0.1,7.1,0.2,14.3,0.2,21.4c0,1,0,2.1,0,3.1
				C265.7,388.7,265.4,365.5,265.3,342.4z M263,525.3v-1.4c0,0.9-0.1,1.7-0.1,2.6c0.1-0.3,0.1-0.7,0.2-1
				C263,525.4,263,525.3,263,525.3z M259.7,537.8c-2.2,3.4-4.2,7-6.5,10.4c-3.4,4.9-7.7,9.3-12.4,13.2c5.3-3.9,10.1-8.5,13.9-14
				C256.7,544.3,258.4,541.1,259.7,537.8z M196,582.4c1.2-0.4,2.4-0.9,3.5-1.3c-0.5,0.1-1,0.3-1.6,0.4c-4.2,1.5-8.5,2.8-12.8,3.8
				C188.8,584.5,192.4,583.5,196,582.4z M170.9,588.6c-0.3,0-0.6,0-0.9,0c-0.5,0-0.7-0.3-0.7-0.7c-4.6,0.5-9.3,0.6-14,0.6
				c-3.2,0.8-6.5,1.5-9.8,2.1C154,590.5,162.5,589.9,170.9,588.6z M118,589.9c-1.9-0.3-3.9-0.6-5.8-1c-4.7-0.8-9.4-1.7-14-2.4
				c-1.7-0.3-3.5-0.6-5.2-0.8c2.2,0.6,4.3,1.1,6.5,1.6C105.6,588.6,111.8,589.5,118,589.9z M83.3,583.9c-0.1,0-0.2-0.1-0.3-0.1
				c-2.7-0.3-5.3-0.7-7.9-1.1c-0.1,0-0.2,0-0.3,0c0,0-0.1,0-0.1,0c-1.1-0.2-2.3-0.4-3.4-0.6c-1.3-0.3-2.7-0.6-4-0.9
				c0.2,0.1,0.4,0.2,0.6,0.4C72.9,582.8,78.1,583.6,83.3,583.9z M64.8,580.7c0-0.1,0-0.1,0.1-0.2c-3.4-0.9-6.7-2-10-3.3c0,0,0,0,0,0
				C58.1,578.5,61.4,579.7,64.8,580.7z M28.1,563.8c1.1,0.8,2.2,1.6,3.3,2.4c-1.3-1-2.6-2-3.8-3.2c-0.1,0.1-0.2,0.2-0.3,0.2
				C27.6,563.4,27.9,563.6,28.1,563.8z M6.9,532.3v-6.6c-0.6-4.2-0.8-8.5-0.6-12.8c0-0.4,0.3-0.6,0.6-0.7v-2.7
				c-0.3-0.3-0.3-0.8,0-1.1v-0.1c-0.4,0-0.7-0.3-0.7-0.7c0-2.1,0-4.3,0.2-6.4c-0.6-4.6-0.7-9.3-0.7-13.9c0-0.7,0.7-0.9,1.1-0.6
				c-0.1-32.9-0.4-65.8-0.5-98.7c-2.4-16.4-2.4-33-1.9-49.5c0.4-12.3,0.9-24.6,1.1-36.9c-0.9-9.2-1.7-18.4-2.2-27.7
				c-1.5,8.1-1.9,16.4-1.8,24.6c0,11,0.8,21.9,1.5,32.8c1.2,18.3,1.2,36.6,1.2,54.9c0,9.7,0,19.4,0.1,29.1
				c0.1,8.1,0.6,16.2,0.5,24.3c-0.1,10.3-0.9,20.5-1.4,30.7c-0.6,11.9-1,23.9-0.3,35.8C3.7,514.5,4.6,523.7,6.9,532.3z M9.2,238.9
				c0.1-0.3,0.1-0.6,0.2-0.9c0.3-1.2,0.7-2.4,1.1-3.6v-0.8C10,235.4,9.5,237.2,9.2,238.9z M11.8,229.5c0.1,0.1,0.2,0.3,0.2,0.5v0.3
				c3-7.6,7-14.8,11.5-21.6c2-3,4.1-6,6.3-9c1.5-2.7,3.1-5.5,4.8-8.1c2.5-3.7,5.2-7.3,8-10.8c2.6-3.3,5.2-6.5,7.8-9.8
				c-3,3.3-6,6.7-8.8,10.3c-10.3,13.2-18.6,27.8-27.4,42C13.2,225.4,12.5,227.4,11.8,229.5z M96.7,36.6c0-0.2,0-0.3,0-0.5
				c0-0.2,0-0.3,0.1-0.4c-1.3-0.9-2.6-2-4.1-2.7c0,0,0,0,0,0.1C93.4,35,94.9,36.1,96.7,36.6z M93.6,31.5c3.8-0.1,7.6-0.5,11.4-0.9
				c-4.1-0.1-8.3-0.2-12.4-0.3C92.8,30.8,93.2,31.2,93.6,31.5z M94.5,29c4.9,0.1,9.8,0.2,14.7,0.3c-2.1-0.2-4.1-0.5-6.2-0.6
				C100.5,28.5,97.1,28.1,94.5,29z M97.1,19.5c0.2,0,0.5,0.1,0.6,0.3c0.7,0,1.5,0,2.2,0.1c-0.1,0-0.2-0.1-0.3-0.1
				c-1.1-0.4-2.2-0.9-3.1-1.6c-0.3-0.1-0.6-0.1-0.9-0.2C96,18.6,96.5,19.1,97.1,19.5z M95.7,15.3c0.2,0.3,0.5,0.6,0.8,0.9
				c0.1,0,0.2,0,0.4,0c1,0,2.2-0.4,3.2-0.6c2-0.3,4-0.6,6-0.9c4.5-0.5,9.1-0.9,13.6-1.1c7.4-0.3,14.8-0.6,22.2-0.5
				c5.6,0.1,11.3,0.3,16.9-0.1c2.7-0.2,5.5-0.4,8.1-1.1c1.2-0.3,2.4-0.7,3.5-1.3c-0.1,0-0.1,0-0.2,0c-1.7,0.2-3.4,0.3-5.1,0.4
				c-3.4,0.2-6.8,0.2-10.2,0.1c-3.7-0.1-7.3-0.3-11-0.4c-0.3,0.4-1.1,0.5-1.3,0c-3-0.1-5.9-0.1-8.9-0.1c-7.1,0.2-14.1,0.7-21.2,0.7
				c-3.1,0-6.1-0.2-9.1-0.4c-0.8-0.1-1.7-0.1-2.5-0.2c-0.1,0-0.2,0-0.3,0c-1.9-0.1-3.9,0-5.8,0.5c0,0.3-0.1,0.6-0.1,0.8
				C94.7,13.3,95,14.4,95.7,15.3z M94.9,9.8c0.5-0.1,1-0.2,1.4-0.3c-0.2-0.1-0.3-0.3-0.3-0.6c0-1.2,0.2-2.3,0.3-3.5c0,0-0.1,0-0.1,0
				c-0.3,0.1-0.6,0.2-0.9,0.5c0,0,0,0,0,0C95.2,7.2,95.1,8.5,94.9,9.8z M97.4,9.4c0.8-0.1,1.7-0.1,2.5-0.1c0-1.5,0-3.1-0.2-4.6
				c0,0-0.1,0-0.1,0C99,4.9,98.4,5,97.9,5.1c0.1,0.3,0.2,0.6,0.3,1c0,0.4-0.2,0.6-0.4,0.7c-0.1,0.8-0.2,1.5-0.2,2.3
				C97.5,9.2,97.5,9.3,97.4,9.4L97.4,9.4z M101.1,4.6c0.2,1.6,0.2,3.2,0.3,4.8c0.9,0,1.8,0.1,2.7,0.2c0-0.1,0-0.2,0-0.2
				c0-1.2-0.1-2.5-0.1-3.7c0-0.4-0.1-1,0.2-1.3C103.1,4.3,102.1,4.4,101.1,4.6z M105.2,4.2c0.1,0.1,0.2,0.3,0.3,0.5
				c0.1,0.2,0,0.4-0.1,0.6c0,0.1,0,0.2,0,0.3c0,0.5,0,1,0,1.4c0,0.8,0.1,1.5,0.1,2.3c0,0.1,0,0.3-0.1,0.4c2.1,0.2,4.3,0.4,6.4,0.4
				c0.1,0,0.1,0,0.2,0c0-2.1,0-4.1-0.3-6.2c-0.3,0-0.6,0-0.9,0c-0.6,0-1.2,0-1.7,0.1v4.7c0,1-1.5,1-1.5,0V4
				C106.8,4.1,106,4.1,105.2,4.2L105.2,4.2z M113.2,3.8c0.3,2.1,0.3,4.1,0.3,6.2c1.4,0,2.7-0.1,4.1-0.1c-0.1-0.1-0.2-0.2-0.2-0.4
				c-0.2-1.1-0.3-2.3-0.2-3.4c0-0.7,0-1.6,0.2-2.4C115.9,3.7,114.6,3.7,113.2,3.8z M118.4,9.9c1.1,0,2.3-0.1,3.4-0.1
				c-0.1-0.1-0.1-0.3-0.1-0.4V3.6c-1,0-2,0-2.9,0c0,0.1,0,0.2,0,0.2c-0.3,0.6-0.2,1.5-0.2,2.2c0,1,0,2,0.2,3
				C118.8,9.4,118.7,9.7,118.4,9.9z M123.1,9.7c1.3-0.1,2.6-0.1,4-0.2c0,0,0,0,0,0c-0.5-1.6-0.6-3.3-0.9-5c-0.1-0.5,0.3-0.8,0.6-0.9
				c-1.2,0-2.4,0-3.6,0v5.7C123.2,9.4,123.2,9.6,123.1,9.7z M132.1,9.3V3.7c0,0,0-0.1,0-0.1c-1.6,0-3.3,0-4.9,0
				c0.2,0.1,0.4,0.2,0.4,0.5c0.3,1.7,0.4,3.4,0.9,5c0,0.1,0,0.2,0,0.3C129.7,9.4,130.9,9.3,132.1,9.3C132.1,9.3,132.1,9.3,132.1,9.3
				z M133.5,3.7v5.6c1.5,0,3,0,4.5,0c-0.6-1.8-0.6-3.7-0.6-5.6c-1.3,0-2.6,0-3.8,0C133.5,3.6,133.5,3.6,133.5,3.7z M141.8,3.7
				L141.8,3.7c-0.2,0-0.5,0-0.7,0c-0.7,0-1.5,0-2.2,0c0,1.9,0.1,3.8,0.7,5.6c0.9,0,1.8,0,2.6,0.1C142,7.5,142,5.6,141.8,3.7
				L141.8,3.7z M126.2,2.1c8.4,0,16.9,0.2,25.3,0.3c-2.6-0.3-5.2-0.5-7.8-0.7C137.9,1.5,132.1,1.7,126.2,2.1z M152.1,3.9
				c-1.1,0-2.3,0-3.4-0.1c0.2,1.6,0.2,3.3,0.2,4.9c0,1-1.5,1-1.5,0c0-1.6,0-3.3-0.2-4.9c-1.3,0-2.6,0-3.9-0.1
				c0.2,1.9,0.1,3.8,0.4,5.7c3.1,0.1,6.1,0.2,9.2,0.3c-0.2-0.1-0.4-0.2-0.4-0.5C152.2,7.4,152.1,5.7,152.1,3.9z M153.2,9.7
				c0.3,0,0.7,0,1,0c2.7,0.1,5.3,0.1,8,0c-1-1.8-0.9-3.8-0.9-5.8c-1,0-2,0-2.9,0v5c0,1-1.5,1-1.5,0V4c-1.1,0-2.2,0-3.2-0.1
				c0,1.6,0,3.3,0.3,4.9C154,9.3,153.6,9.7,153.2,9.7L153.2,9.7z M163.5,9.2c0.1,0.2,0.1,0.4,0.1,0.5c0.3,0,0.5,0,0.8,0
				c0.6,0,1.1-0.1,1.6-0.1c0-0.1-0.1-0.2-0.1-0.3c0-1.7,0-3.5-0.2-5.2c-1,0-2,0-3,0C162.7,5.8,162.6,7.6,163.5,9.2z M167.3,4.1
				c0.2,1.7,0.2,3.4,0.2,5.2c0,0.1,0,0.2,0,0.2c0.7-0.1,1.4-0.1,2.1-0.2c0,0,0.1,0,0.1,0c0,0,0-0.1,0-0.1c-0.3-1.7-0.3-3.4-0.3-5.1
				C168.6,4.1,167.9,4.1,167.3,4.1z M170.7,4.1c0,1.6,0,3.1,0.3,4.7c0,0.2,0,0.3,0,0.4c0.4,0,0.8-0.1,1.3-0.2
				c-0.2-1.6-0.6-3.1-1-4.6c-0.1-0.1-0.2-0.2-0.2-0.3h-0.1c0,0,0,0,0,0C170.8,4.1,170.8,4.1,170.7,4.1z M171.6,11.6
				c-3.8,2.7-9.5,2.9-14,3.1c-5.5,0.3-11.1,0.1-16.6,0c-7.7-0.1-15.4,0.2-23,0.6c-4.6,0.2-9.3,0.6-13.9,1.2
				c-1.5,0.2-3.1,0.5-4.6,0.7c5.1,0.8,10.2,1,15.4,0.8c6.1-0.2,12.2-1,18.3-1.4c12.7-0.8,25.3,0.4,38,0.5c0.7-0.7,1.2-1.6,1.5-2.7
				c0-0.1,0.1-0.3,0.1-0.4c0-0.8,0-1.5-0.1-2.1c0-0.3-0.1-0.7-0.1-1C172.2,11.1,171.9,11.4,171.6,11.6z M98,21.3
				c0.1,0.7,0.1,1.4,0,2.1c0.1,0,0.2-0.1,0.3-0.1c0.1,0,0.2,0,0.3,0c-0.3-0.5-0.1-1.2,0.5-1.1c4.5,0.6,9.1,0.3,13.6-0.3
				c0.2,0,0.4,0,0.5,0.2c1.2-0.1,2.3,0,3.5,0.2c0.2,0,0.4,0.1,0.4,0.3c0.8,0,1.7,0,2.5,0c0.7-0.2,1.4-0.4,2.2-0.5
				C113.9,21.8,106,21.5,98,21.3z M168.7,18.6c-12.3-0.2-24.5-1.3-36.8-0.4c-9.4,0.7-18.7,1.9-28,1.1c2.9,0.5,5.9,0.6,8.8,0.7
				c4.5,0.2,9,0.2,13.4,0.2c6.5-0.1,13-0.4,19.5-0.7c6.9-0.5,13.8-0.9,20.7-0.5C167.2,19,167.9,18.8,168.7,18.6z M153.2,21.2
				c2.8,0.1,5.6,0.1,8.4,0.1c2-0.2,4-0.3,6.1-0.4c0.3,0,0.5,0.1,0.6,0.3c0.2,0,0.4,0,0.6,0c0.1-0.2,0.3-0.3,0.6-0.3
				c0.1,0,0.1,0,0.2,0c0-0.1,0-0.1,0-0.2c-1-0.1-2-0.2-3-0.3c-1.7,0.1-3.4,0-5-0.1c-4.3-0.2-8.7,0.2-13,0.4c-0.7,0-1.5,0.1-2.2,0.1
				c-3.8,0.3-7.6,0.6-11.4,0.7c1.7,0.1,3.3,0.3,4.9,0.3c0.6,0,1.1,0.1,1.7,0.1c-0.1-0.6,0.7-1.2,1.3-0.7c0.3,0.3,0.6,0.5,0.9,0.7
				c2.3,0,4.6,0,6.8,0.1c0.6,0,1.3-0.1,1.9-0.1C152.4,21.7,152.6,21.2,153.2,21.2z M98.1,26c1.1-0.1,2.2-0.2,3.4-0.2
				c3.9-0.2,7.7-0.4,11.6-0.5c9.5-0.3,19.1,0.1,28.6,0.4c4.8,0.1,9.6,0.3,14.4,0.3c3,0,5.9,0,8.8-0.3c1.1-0.1,2.7-0.4,4.4-0.5
				c0-0.1,0-0.2,0-0.4c0.1-0.5,0.2-0.9,0.3-1.4c0,0-0.1,0-0.1,0c-0.3,0-0.6-0.3-0.7-0.6c-1.2,0-2.4,0-3.6,0c0,0.4-0.2,0.8-0.7,0.8
				c-2.7,0.2-5.3,0.3-8,0.2c-1.4,0.2-2.8,0.5-4.2,0.6c-2.9,0.3-6.2,0.5-8.8-0.8c-1,0-2.1,0-3.1-0.1c-5.1-0.3-10.4-1-15.6-0.5
				c0.1,0.4-0.2,0.9-0.7,0.9c-1.3,0-2.7,0-4,0c-0.3,0.1-0.5,0.2-0.8,0.3c-0.3,0.1-0.6,0-0.8-0.3c-0.3,0-0.5,0-0.8,0
				c0.1,0.4-0.2,0.9-0.7,0.9H99.5c-0.1,0-0.2,0-0.3-0.1c-0.3,0-0.6,0.1-0.8,0.1c-0.2,0-0.3,0-0.4-0.1c0,0.1,0,0.3-0.1,0.4l0,0
				c0,0,0.1,0.1,0.1,0.1C98.1,25.5,98.1,25.8,98.1,26z M170.9,26.7c-2.3-0.2-4.6,0.2-6.8,0.5c-3.2,0.4-6.5,0.3-9.8,0.2
				c-9.6-0.1-19.3-0.5-28.9-0.8c-7.6-0.2-15.2,0.2-22.8,0.6c3.5,0.2,7,0.8,10.5,0.8c0.8,0,0.9,0.9,0.5,1.3
				c6.6,0.1,13.3,0.2,19.9,0.2c5.1,0,10.3-0.5,15.4-0.9c0,0,0,0,0,0c7.1-1.5,14.5,0.1,21.5-1.5c0.9-0.2,1.3,1.2,0.4,1.4
				c0.2,0,0.4,0,0.5,0.1c0.9,0.1,0.5,1.6-0.4,1.4c-7.1-1-14.2-0.6-21.4-0.1c-0.1,0-0.2,0-0.3,0.1c-0.1,0-0.3,0-0.4,0
				c-5.6,0.4-11.1,0.9-16.6,0.9c-5.2,0-10.4-0.1-15.6-0.1c0.2,0.4,0,1.1-0.6,1c-6.9-0.5-13.8,0.7-20.6,1.1c0.5,0.3,1,0.7,1.4,1
				c0.1-0.2,0.3-0.3,0.6-0.3c6.4,0.6,12.8,0,19.2,0c1,0,1,1.5,0,1.5c-0.7,0-1.5,0-2.2,0c0.1,0.4-0.2,0.9-0.7,0.9
				c-4.2,0-8.3,0-12.5,0.3c0.9,0.3,1.9,0.6,2.8,0.8c0.3,0.1,0.6,0.1,0.8,0.2c2,0,4.1,0,6.1,0.1c8,0.4,16,1.1,24,1.4
				c3.7,0,7.5-0.1,11.2-0.2c4.4-0.2,8.8-0.2,13.2-0.6c2.8-0.2,5.7-0.7,8.3-1.7c0.4-0.2,0.9-0.3,1.3-0.6c-5.1,0-10.3,0.3-15.4,0.6
				c-0.4,0-0.6-0.2-0.7-0.6c-1.8,0-3.7,0-5.5,0c-1,0-1-1.5,0-1.5c4.4,0,8.9,0.2,13.3-0.2c2.3-0.2,4.5-0.6,6.7-1.2
				c1.9-0.5,3.8-0.9,5.8-0.8c0.3-0.5,0.5-1,0.6-1.5c0.1-0.5,0.2-1,0.2-1.4c-0.4-0.7-0.8-1.4-1.5-2c-0.1-0.1-0.1-0.2-0.2-0.3
				C171.9,26.8,171.4,26.7,170.9,26.7z M170.1,35c0.7-0.4,1.3-0.9,1.9-1.4c-1.3,0-2.6,0.3-3.9,0.6c0.4,0,0.9,0,1.3,0
				C169.9,34.2,170.1,34.6,170.1,35z M166,38.3c-1,0.3-1.9,0.5-2.9,0.7c0.3,0,0.5,0,0.8,0c3.2-0.2,7.8-0.3,9.7-3.4
				c0.5-0.9,0.9-1.8,1-2.7C172.8,35.6,169.1,37.5,166,38.3z M176.7,45.6c0.4,0.8,1,1.7,1.7,2.4c2.8,2.8,6.9,3,10.6,3.2
				c-1.5-0.4-2.9-0.8-4.4-1.4c-0.1,0-0.2-0.1-0.4-0.1C181.3,49.1,178.7,47.8,176.7,45.6z M171,49.7c0.3,1.1,0.6,2.2,1.1,3.2
				c0.1,0.2,0.2,0.3,0.2,0.5c0.3,0.5,0.6,0.9,1,1.4c0.1-0.1,0.2-0.2,0.3-0.3c-0.8-1.5-1.7-2.9-2.5-4.4
				C171.1,49.9,171.1,49.8,171,49.7z M174.9,45.3c0.1,0.7,0.2,1.4,0.3,2c0.5,1.2,1.8,2,3.1,2.5c-1.2-0.9-2.3-2.1-3-3.6
				C175.1,46,175,45.6,174.9,45.3z M148.5,43.1c-0.3-0.4-0.6-0.8-0.8-1.3c-0.1,0.9,0.2,1.7,0.8,2.5
				C148.6,43.9,148.5,43.5,148.5,43.1z M135.3,40.3c-0.2,0-0.4,0-0.5,0h-0.1c0,0.1,0,0.2-0.1,0.4c-0.2,0.4-0.4,0.8-0.5,1.1
				c0.2,0.2,0.4,0.6,0.2,0.9c-0.1,0.3-0.2,0.6-0.3,1c0.2,0.9,0.6,1.8,1.2,2.7c0,0.1,0.1,0.1,0.1,0.2c0-1.3,0-2.6,0.3-3.9
				c0-0.1,0.1-0.2,0.2-0.3c-0.1-0.4-0.3-0.8-0.6-1C134.9,41,135,40.5,135.3,40.3L135.3,40.3z M114.5,42.8
				C114.5,42.8,114.5,42.8,114.5,42.8c0.1,0.8,0.5,1.6,1,2.2v-2.3c-0.3-0.1-0.6,0-0.8,0.1C114.6,42.8,114.6,42.8,114.5,42.8z
				 M103.2,39.4c0.1-0.3,0.3-0.5,0.6-0.5c0,0,0,0,0,0c0,0,0,0,0.1,0c0,0,0,0,0,0c0,0,0,0,0.1,0c0.1,0,0.2,0.1,0.3,0.1
				c0.1-0.1,0.1-0.2,0.2-0.3c-0.7,0-1.4,0-2.1,0c0.7,1.4,1.3,2.9,1.9,4.3c0-0.1,0-0.1,0.1-0.2c0.4-0.9-0.1-2-0.9-2.5
				c-0.1,0-0.1-0.1-0.1-0.1C103.1,40,103.1,39.7,103.2,39.4z M104.9,44.2c0-0.1,0-0.2,0-0.3c-0.1,0-0.1-0.1-0.2-0.1
				C104.8,44,104.9,44.1,104.9,44.2z M93.9,73.8c0,0.2-0.1,0.4-0.1,0.6c0.1,0,0.1,0,0.2,0C93.9,74.2,93.9,74,93.9,73.8z M97.4,49.3
				c0.2-1.1,0.4-2.2,0.5-3.3c-0.1,0.8-0.2,1.6-0.3,2.3C97.5,48.6,97.4,48.9,97.4,49.3z M98.3,39.6c0.1,0,0.1,0.1,0.2,0.1
				c0,0,0.1,0.1,0.1,0.1c0-0.4-0.1-0.8-0.1-1.1c0-0.1,0-0.2,0-0.2c-0.1,0-0.1,0-0.2,0C98.3,38.8,98.3,39.2,98.3,39.6L98.3,39.6z
				 M99.1,37.1c-0.3-0.1-0.7-0.3-1-0.5c0,0.1,0,0.2,0,0.4c0.1,0,0.2,0,0.3,0C98.7,37,98.9,37,99.1,37.1z M100.4,39.6
				c0-0.2,0-0.3,0-0.5c0-0.2,0.1-0.3,0.2-0.4c-0.3,0-0.5,0-0.8-0.1c0,0.3,0.1,0.7,0.1,1C100.2,39.6,100.3,39.5,100.4,39.6z
				 M80.3,128.1c-0.5,1.4-1.1,2.7-1.7,4.1v0.2c0.6-1,1.2-2,1.7-3C80.3,129,80.3,128.6,80.3,128.1z M85.5,112.4
				c0.4-1.3,0.6-2.6,0.8-3.9c-0.2,0-0.3-0.1-0.4-0.2c-0.2,1.1-0.5,2.2-0.7,3.4C85.3,111.9,85.4,112.2,85.5,112.4z M81.6,124.6
				c0.3,0.1,0.6,0.4,0.5,0.9c-0.1,0.3-0.1,0.7-0.2,1c1.3-2.4,2.4-4.9,3.4-7.5c-0.1-1.6-0.3-3.1-0.7-4.6
				C83.8,117.8,82.8,121.2,81.6,124.6z M59.4,163.6c-0.2,0.6-0.4,1.1-0.6,1.7c0.2,0.1,0.4,0.3,0.4,0.6v1.2l1.5-5.3
				C60.3,162.4,59.8,163,59.4,163.6L59.4,163.6z M50.1,573.6c1.6,0.8,3.3,1.5,4.9,2.1c1.3,0.4,2.6,0.7,3.9,1
				C56,575.8,53,574.7,50.1,573.6z M27.7,561c0.2,0.2,0.4,0.4,0.6,0.6c4.7,4.4,10.4,7.9,16.2,10.9c0.3,0.1,0.5,0.2,0.8,0.3
				c-4.1-2.2-8-4.8-11.7-7.6c0,0,0,0-0.1,0C31.5,563.8,29.5,562.5,27.7,561z M26.5,557.4c0.5,0.4,1,0.8,1.4,1.3
				c1.4,0.2,2.8,0.4,4.2,0.7C30.2,558.8,28.3,558.2,26.5,557.4z M32.5,557.9c-2.3-0.9-4.5-1.9-6.9-2.6c0.9,0.4,1.8,0.8,2.7,1.2
				C29.8,557,31.1,557.5,32.5,557.9z M7.8,535.4c0.5,1.5,1,3,1.6,4.4c-0.2-0.8-0.4-1.5-0.6-2.3c-0.2-0.9-0.3-1.8-0.5-2.6
				C8.3,535.2,8.1,535.4,7.8,535.4z M6.4,373.9c0-16.5,0.3-33.1,0.4-49.6c0-1.1,0-2.2-0.1-3.3c-0.2,4.1-0.3,8.2-0.5,12.3
				C5.7,346.8,5.4,360.4,6.4,373.9z M9.8,430.6c0-0.3,0-0.6,0-0.9c0.4-19.3-0.3-38.7-0.6-58c0-2.6-0.1-5.2-0.1-7.7
				c0,16.9-0.8,33.8-0.2,50.7c0.2,4.7,0.4,9.5,0.8,14.2C9.7,429.4,9.7,430,9.8,430.6z M9.3,445.8c0-1,0-1.9-0.1-2.9
				c-0.1-3.8-0.5-7.5-0.8-11.2v32.7c0.1,0,0.1,0,0.2,0C8.8,458.2,9.1,452,9.3,445.8z M9.1,520.6c-0.2-1.3-0.4-2.6-0.6-3.9
				c0,0.7,0,1.4,0,2.1c0,0.6,0,1.2,0.1,1.8c0,0,0.1,0,0.1,0C8.9,520.6,9,520.6,9.1,520.6z M13.1,544.3c-0.5-0.9-1-1.9-1.5-2.9
				c-0.1-0.1-0.1-0.2-0.2-0.3c0.3,0.9,0.7,1.9,1.2,2.8c0.3,0.5,0.5,1.1,0.8,1.6c0.3,0.2,0.5,0.5,0.8,0.7
				C13.9,545.6,13.5,545,13.1,544.3z M13,535.6c-0.5-0.1-1.1-0.1-1.6-0.1c0.6,1,1.2,2,1.7,3c3.9,1,8.1,1.6,12.1,0.9
				c-4.2,0.2-8.2-1.2-12-2.8C12.8,536.4,12.8,535.9,13,535.6z M11,523.2h10.5c-3.4-1.3-7-1.2-10.6-0.9C11,522.7,11,523,11,523.2z
				 M9.5,527.5c0.1-0.2,0.3-0.3,0.6-0.3c0,0,0.1,0,0.1,0c-0.3-1.6-0.5-3.1-0.8-4.7c-0.3,0-0.4-0.2-0.5-0.5c-0.1,0-0.1,0-0.2,0
				c0,0,0,0-0.1,0c0.1,2.5,0.3,4.9,0.5,7.4c0,0.2,0,0.5,0.1,0.7c0.1,0.4,0.2,0.8,0.3,1.2c1.4-0.5,2.8-0.9,4.2-1.1
				c-0.7-0.2-1.5-0.4-2.2-0.7c-0.4,0.2-1,0.2-1-0.4l0,0c-0.2-0.1-0.4-0.2-0.6-0.3c-0.2,0-0.3-0.1-0.4-0.3
				C9.2,528.2,9.3,527.8,9.5,527.5z M16.8,223c-0.7,1.4-1.3,2.8-1.9,4.2c0.2,0.1,0.4,0.2,0.5,0.4c0-0.2,0.1-0.3,0.1-0.5
				c0.3-1.1,0.7-2.1,1.1-3.2C16.7,223.6,16.7,223.3,16.8,223z M17.7,221.3c0,0,0.1,0,0.1,0c0.3-0.7,0.7-1.5,1.1-2.2c0,0,0,0,0-0.1
				C18.4,219.8,18,220.5,17.7,221.3z M7.9,260.9c0.3,0.1,0.5,0.3,0.5,0.7v1.5c0.6-2.9,1.4-5.8,2-8.5c1-4.5,1.3-9,2-13.6
				c0.4-2.6,0.9-5.2,1.4-7.7c-0.2-0.9-0.3-2-0.3-3c-0.1,0.1-0.1,0.3-0.2,0.4c-0.5,1.3-1,2.7-1.4,4.1v2c0,0.5-0.4,0.7-0.8,0.7
				C9,245.1,8,252.9,7.9,260.9z M25.2,560.4c-1.8-1.9-3.4-4-4.9-6.2c-0.7-0.7-1.3-1.4-1.9-2.2c-0.9-0.8-1.7-1.6-2.6-2.4
				c1.9,3.1,4.1,6.1,6.6,8.8C23.2,559.1,24.2,559.8,25.2,560.4L25.2,560.4z M135.7,587c4.7-0.2,9.4-0.6,14.1-1.1c0,0,0-0.1-0.1-0.1
				c-7.1,0-14.1-0.1-21.2-0.2c-1.7,0-3.4-0.1-5.1-0.2c-1.1,0.2-2.2,0.3-3.3,0.4C125.3,586.3,130.5,586.8,135.7,587z M116.1,585.3
				c-0.1-0.1-0.1-0.3-0.1-0.5c-2.7-0.2-5.4-0.4-8.2-0.7c-2.5-0.2-4.9-0.5-7.4-0.6c0,0,0,0,0,0c0.4,0.1,0.8,0.1,1.2,0.2
				C106.5,584.4,111.3,584.9,116.1,585.3z M72.2,580.3c1,0.3,1.9,0.6,2.8,0.9c1.7,0.3,3.5,0.5,5.3,0.8
				C77.6,581.4,74.9,580.9,72.2,580.3z M90.2,582.2c2.6-0.2,5.2-0.3,7.9-0.2c-11.4-2.1-22.6-5.1-34.3-5.5c1.8,0.5,3.7,1,5.5,1.5
				C76.3,579.7,83.2,581.1,90.2,582.2z M149.9,588.2c-2.6,0.1-5.1,0.3-7.6,0.5c-7.3,0.5-14.7,0.6-22,0c-0.7-0.1-1.5-0.1-2.2-0.2
				c5.3,0.8,10.6,1.5,16,1.8c2.1-0.1,4.2-0.2,6.2-0.5C143.5,589.4,146.7,588.8,149.9,588.2z M183.3,584.2c1.6-0.3,3.1-0.7,4.6-1.1
				c-1.5,0.1-3.1,0.3-4.6,0.4C183.5,583.7,183.5,584,183.3,584.2z M180.8,584.7c-2.3,0.3-4.5,0.5-6.8,0.7c-0.4,0.1-0.7,0.2-1.1,0.3
				c-0.1,0.1-0.2,0.1-0.4,0.1h-0.1c-1.3,0.3-2.5,0.5-3.8,0.7C172.7,586.1,176.8,585.5,180.8,584.7z M207.8,54.4
				c-0.1,0-0.3,0-0.4-0.1c4.3,1.8,8.4,4.2,11.8,7.4c2.1,2,3.9,4.2,5.6,6.5c1.3,1.7,2.5,3.5,3.5,5.5c0.7,1.3,1.4,2.6,2.1,3.9
				c0.2,0.4,0,0.8-0.3,1c0.1,0.5,0.2,0.9,0.3,1.4c0.2,0.9-1.2,1.3-1.4,0.4c-0.4-2-1.1-4-2-5.8c-1.1-1.9-2.3-3.9-3.6-5.7
				c-0.7-0.9-1.5-1.7-2.3-2.4c-2.1-2-4.5-3.8-7.2-4.8c-2.9-1.1-5.8-1.5-8.9-1.7c-6.3-0.3-12.6-0.2-18.9-0.2c-1.4,0-2.8,0-4.2-0.2
				c0,0.1,0,0.2,0,0.3c0.1,0,0.2,0.1,0.3,0.1c0.8,0.5,0.1,1.7-0.7,1.3c-0.6-0.3-1.3-0.7-1.9-1c-1.6-0.3-3.1-0.8-4.4-1.6
				c0.2,0.2,0.3,0.5,0.5,0.7c0.6,0.8-0.7,1.5-1.3,0.7c-0.8-1.1-1.7-2.3-2.4-3.5c-0.4,0.1-0.8,0-0.9-0.5c-0.2-0.9-0.4-1.8-0.6-2.7
				c0-0.1,0-0.1-0.1-0.2c-0.4-1.1-0.7-2.2-0.9-3.3c0-0.1-0.1-0.3-0.1-0.4c-0.2-0.8-0.4-1.5-0.5-2.3c-0.2-1.1-0.3-2.2-0.3-3.4
				c0-0.6,0.2-1.8,0-2.3c-0.5-0.8,0.8-1.5,1.2-0.8c0,0,0.1,0,0.1,0c0.1,0,0.2,0,0.3,0c0.1-0.2,0.2-0.5,0.3-0.7
				c0-0.1,0.1-0.2,0.2-0.3c0.1-0.2,0.3-0.3,0.5-0.3c0.3,0,0.5,0.1,0.7,0.4c0,0,0,0,0,0c0,0,0,0.1,0.1,0.1c0.6,1.4,0.6,2.9,0.6,4.4v0
				v0v0.4c0,0,0,0,0,0c0.9,0.3,0.5,1.7-0.4,1.4c-0.4-0.1-0.7-0.2-0.9-0.4c1,3.4,3.1,6.3,4.7,9.5c1.5,1.1,3.2,2.1,5.1,2.4
				c2.9,0.6,6,0.3,9,0.3c3.3,0,6.5,0,9.8,0.1c3,0.1,6,0.1,9,0.5c2.6,0.4,5.1,1.2,7.3,2.3c-0.2-0.2-0.4-0.3-0.6-0.5
				c-4.7-3.5-10.2-5.9-15.9-7.2c-1.9-0.2-3.8-0.3-5.8-0.4c-1-0.1-2-0.1-3-0.1c-3.7,0-7.5-0.1-11.1-1c-0.8-0.2-1.7-0.5-2.5-0.9
				c-0.6-0.5-1.2-0.9-1.7-1.4v0c0,0,0,0-0.1,0c-0.1-0.1-0.2-0.2-0.3-0.3c0,0-0.1-0.1-0.1-0.1c-0.1-0.1-0.2-0.2-0.3-0.3
				c0,0-0.1-0.1-0.2-0.2c-0.1-0.1-0.2-0.2-0.3-0.3c0-0.1-0.1-0.1-0.1-0.2c-0.1-0.1-0.2-0.2-0.3-0.3c0,0-0.1-0.1-0.1-0.1c0,0,0,0,0,0
				c0-0.1-0.1-0.1-0.1-0.2c-0.2-0.6-0.3-1.2-0.2-2c0-0.1,0-0.2,0.1-0.2c-0.3-2.4-0.5-4.9-0.3-7.3c-2.5,1.8-5.8,2.1-8.8,2.3
				c-0.5,0-0.9,0.1-1.4,0.1c0,0,0,0,0,0c0.4,0.7,0.8,1.5,1.3,2.1c0.4-0.2,1.1,0,1.1,0.6c0,0.2,0,0.4,0,0.5c0.5,0.5,1.2,0.9,1.8,1.1
				c0.9,0.3,0.5,1.7-0.4,1.4c-0.6-0.2-1.1-0.5-1.6-0.8c-0.1,0.5-0.1,1.1-0.1,1.6c0,0.9-1.5,0.9-1.5,0c0-0.9,0.1-1.8,0.2-2.7
				c-0.2-0.2-0.4-0.4-0.6-0.6c0,0.5-0.1,1-0.3,1.5c0,0.1-0.1,0.2-0.2,0.3c0,0.6,0.1,1.1,0.2,1.7c0.1,0.9-1.3,1.3-1.4,0.4
				c-0.3-1.9-0.3-3.7,0-5.6c-0.1-0.2-0.2-0.4-0.4-0.6c-0.3-0.3-0.2-0.6-0.1-0.9c-0.1,0-0.3,0-0.4,0c-0.3,0.4-0.6,0.9-0.7,1.4
				c0.1,0.1,0.1,0.2,0.1,0.4v4.1c0,0.9-1.5,0.9-1.5,0v-2c-0.3-1.4-0.2-2.8,0.3-3.9c-1.8,0-3.6,0-5.5-0.1c0.1,0.1,0.1,0.2,0.1,0.4
				v3.5c0,1-1.5,1-1.5,0v-3.5c0-0.2,0-0.3,0.1-0.4c-0.8,0-1.7,0-2.5,0c0,0,0,0.1,0,0.2c0.1,0.7,0.2,1.4,0.2,2.1
				c0.3,0.4,0.7,0.9,1.1,1.3c0.6,0.7-0.3,1.7-1,1.1c0,0.6,0,1.2,0,1.8c0,1-1.5,1-1.5,0c0-0.4,0-0.8,0-1.2c-0.3,0.2-0.7,0.3-1,0
				c-1.4-1.5-1.8-3.3-1-5.1c-0.6,0-1.3,0-1.9,0c0,0.1,0,0.1,0,0.2v6.8c0,1-1.5,1-1.5,0v-6.8c0-0.1,0-0.1,0-0.2c-0.9,0-1.8,0-2.7,0
				c1,1.6,1.9,3.2,2.4,5c0.2,0.9-1.2,1.3-1.4,0.4c-0.2-0.8-0.5-1.6-0.9-2.4c0,0.1,0,0.3,0,0.4c0,0.2-0.1,0.4-0.2,0.5
				c-0.1,1.1-0.2,2.2-0.4,3.2c-0.2,0.9-1.6,0.5-1.4-0.4c0.3-1.4,0.3-2.8,0.6-4.3c0-0.9-0.1-1.8-0.4-2.6c-0.8,0-1.7,0-2.5,0
				c0,0,0,0,0,0c1.1,1.3,1.4,3.6,1.4,5.2c0,0.5-0.5,0.8-0.9,0.7v0.5c0,0.9-1.3,0.9-1.5,0.2c-0.1,0.5-1,0.8-1.4,0.2
				c0-0.1-0.1-0.1-0.1-0.2c0,0,0,0,0,0.1c0,0.9-1.5,0.9-1.5,0c0-1.1,0-2.2,0.2-3.3c-0.2-1.2,0-2.3,0.6-3.5c-1.3,0-2.6,0-3.8,0
				c-0.8,0-1.5,0-2.3-0.1c0,0,0,0,0,0.1c0,1.9,0,3.8,0.6,5.7c0.3,0.9-1.1,1.3-1.4,0.4c-0.1-0.4-0.2-0.9-0.3-1.3v1.7
				c0,0.9-1.3,0.9-1.5,0.1c0,0,0,0,0,0c0,0.6,0,1.1,0,1.7c0,0.9-1.5,0.9-1.5,0c0-1,0-1.9,0-2.9c-0.1,0.6-1,1-1.3,0.3
				c-0.7-1.6-0.7-3.4-0.7-5.1c0-1,1.5-0.9,1.5,0c0,1.4-0.1,3,0.5,4.3c0,0.1,0,0.1,0,0.2c0-1-0.1-2-0.2-3c-0.1-0.7,0.7-0.9,1.2-0.5
				v-1.5c0-0.1,0-0.1,0-0.2c-2.9-0.1-5.7-0.3-8.6-0.4c-0.3,0-0.6,0-0.9,0c0.3,0.1,0.4,0.4,0.3,0.8c-0.1,0.2-0.1,0.3-0.1,0.5
				c0.1,0.1,0.1,0.2,0.1,0.3c0.8-0.2,1.7-0.1,2.2,0.5c0.5,0.6,0.7,1.3,0.7,2.1c0,0.4-0.3,0.6-0.6,0.7v5.8c0,1-1.5,1-1.5,0v-4.2
				c-0.3,0.2-0.7,0.3-1,0c-0.1-0.1-0.1-0.1-0.2-0.2c0,1,0,2,0,2.9c0,1-1.5,1-1.5,0c0-2,0-4,0.2-5.9c-0.2-0.9-0.1-1.9,0.2-2.8
				c0.1-0.2,0.2-0.3,0.3-0.4c-0.6,0-1.2,0-1.8-0.1c0.4,0.2,0.7,0.6,0.4,1.1c-1,2.3-0.5,5.4-0.5,7.9c0,1-1.5,0.9-1.5,0
				c0-0.5,0-1.1,0-1.7c-0.3-0.1-0.5-0.3-0.5-0.7v-5.3c0-0.7,0.7-0.9,1.1-0.6c0-0.1,0.1-0.2,0.1-0.4c0.1-0.2,0.2-0.3,0.3-0.3
				c-1.9-0.1-3.8-0.3-5.7-0.6c0,0,0,0,0,0c0.4,0,0.8,0.2,0.8,0.7c0,0,0,0,0,0c0.3-0.2,0.8-0.2,1,0.1c0.4-0.7,1.6,0,1.2,0.8
				c-0.7,1.5-0.5,3.4-0.5,4.9c0,0.6-0.6,0.8-1,0.7c0,0,0,0,0,0c-0.1,0.8-0.1,1.5-0.1,2.3c0,0.9-1.5,1-1.5,0c0-0.6,0-1.1,0.1-1.7
				c-0.3,0-0.7-0.3-0.7-0.7v-0.6c-0.3,0.3-0.8,0.3-1.1-0.2c-0.7-1.5-1.4-3-2-4.5c-0.2,2.3-0.1,4.6,0.7,6.9c0.3,0.9-1.1,1.3-1.4,0.4
				c-0.2-0.5-0.3-0.9-0.4-1.4c-0.1,0.1-0.1,0.2-0.2,0.2c0,1.1,0,2.2,0,3.3c0,1-1.5,1-1.5,0c0-0.6,0-1.3,0-1.9c-0.3,2-0.7,4-1.1,6
				c-1,4.8-2.3,9.6-3.2,14.4c0,0.3-0.1,0.6-0.1,0.8c0.3,0.1,0.6,0.3,0.6,0.7c0,3.5,0.6,7,1.2,10.4c0.1,0.6-0.5,1-1,0.9
				c0.1,0.9,0.2,1.8,0.4,2.6c0.2,0.9-1.2,1.3-1.4,0.4c-0.5-2.7-0.6-5.4-1-8c-0.6,3.4-1.3,6.8-2.1,10.2c0.2,0.2,0.4,0.4,0.3,0.8
				c-0.5,3.3,0,6.6,1.2,9.6c0.3,0.9-1.1,1.3-1.4,0.4c-0.2-0.4-0.3-0.9-0.5-1.3c0,0.4,0,0.7,0,1.1c0,2,0,4.1-0.5,6.1
				c-0.2,0.9-1.6,0.5-1.4-0.4c0.4-1.7,0.4-3.6,0.4-5.4c0-1.1,0.1-2.5-0.1-3.7c0,0.3,0,0.7,0,1c-0.1,2.4-0.8,4.8-1.4,7.1
				c0.5,3.6,0,7.2-1,10.8c-0.1,0.5-0.6,0.6-1,0.5c0.2,0.8,0.4,1.6,0.6,2.4c1.2-3.5,2-7.1,2.5-10.7c0.1-0.9,1.6-0.9,1.5,0
				c-0.6,4.8-1.9,9.5-3.6,14c0.1,1.2,0.1,2.5,0.1,3.7c0,1-1.5,1-1.5,0v-0.4c-1.1,2.5-2.3,4.9-3.6,7.2c0.1,0.6,0.2,1.2,0.3,1.8
				c0.2,0.9-1.2,1.3-1.4,0.4c0-0.1,0-0.1,0-0.2c-0.7,1.2-1.4,2.3-2.1,3.4v3.6c0,1-1.5,1-1.5,0v-1.3c-0.3,0.4-0.6,0.9-0.9,1.3v6.4
				c0,1-1.5,1-1.5,0V141c-0.7,1-1.4,2-2.1,2.9v7.2c0,1-1.5,1-1.5,0v-5c-0.6,0.9-1.1,1.9-1.7,2.8c0.2,1.9,0.3,3.8,0.3,5.7
				c0,1-1.5,1-1.5,0c0-1.2,0-2.5-0.1-3.7c-0.5,0.7-0.9,1.4-1.4,2.1v1.6c0.5-0.4,1.4,0,1.2,0.8c-0.4,1.3-0.6,2.6-0.6,3.9
				c0,0.4-0.3,0.6-0.6,0.7v1.1c0,0.9-1.4,0.9-1.5,0c-0.2,1.2-0.3,2.3-0.3,3.5c0,1-1.5,1-1.5,0c0-1.7,0.1-3.3,0.6-4.9
				c0.2-0.6,0.8-0.6,1.2-0.4v-4.2c-0.1,0.1-0.1,0.2-0.2,0.2c-0.6,0.9-1.3,1.9-2,2.8l-2.9,10.1c-0.2,0.6-0.8,0.6-1.2,0.4v3.6
				c0,1-1.5,1-1.5,0v-1.8c-0.4,0.3-1.2,0.1-1.2-0.6c0-1.1,0.1-2.1,0.4-3.2c-0.2,0.3-0.4,0.6-0.7,0.9c0,0,0,0.1,0,0.1
				c-0.6,3-0.6,6.2-0.6,9.2c0,1-1.5,1-1.5,0c0-2.4,0-4.7,0.2-7.1c-1.4,1.7-2.7,3.5-4.1,5.2c0,0,0,0.1,0,0.1v3.5c0,1-1.5,1-1.5,0
				v-1.8c-0.4,0.5-0.8,1-1.2,1.5c-0.3,1.9-0.5,3.9-0.9,5.8c-0.2,0.9-1.6,0.5-1.4-0.4c0.1-0.3,0.1-0.7,0.2-1c-0.8,2.4-1,5.1-0.6,7.5
				c0.2,0.9-1.3,1.3-1.4,0.4c-0.4-2.4-0.3-5.1,0.3-7.5c-0.6,0.8-1.2,1.6-1.9,2.4c0,0.1,0,0.1,0,0.2v7.1c0,1-1.5,1-1.5,0v-5.4
				c-0.4,0.5-0.8,1-1.1,1.5c-0.6,1.9-0.3,4.4-0.3,6.3c0,1-1.5,1-1.5,0c0-1.2-0.1-2.6,0-3.9c-0.5,0.6-0.9,1.2-1.4,1.8
				c0,0.1-0.1,0.1-0.1,0.2c-0.2,2.2-0.5,4.4-0.5,6.6c0,0.7-0.7,0.9-1.1,0.6c0,1.2,0,2.3,0,3.5c0,0.9-1.5,1-1.5,0
				c0-2.3,0-4.6,0.3-6.8c-0.6,0.8-1.2,1.6-1.8,2.5c0,0.1,0.1,0.2,0,0.4c-0.5,2.9-0.6,5.8-0.6,8.7c0,1-1.5,1-1.5,0c0-2,0-4,0.2-6
				c-0.7,1.2-1.3,2.4-2,3.6c0.2,0.1,0.3,0.3,0.3,0.6v6.5c0,1-1.5,1-1.5,0v-5c-0.8,1.5-1.7,3-2.6,4.5c0,2.5,0.2,4.9,0.5,7.4
				c0.2,0.9-1.3,1.3-1.4,0.4c-0.3-1.8-0.4-3.6-0.5-5.4c-0.7,1.2-1.4,2.4-2,3.7c0.2,1.8,0.7,3.6,1.5,5.3c0.4,0.9-0.9,1.6-1.3,0.7
				c-0.6-1.2-1-2.5-1.3-3.8c-0.4,0.9-0.8,1.8-1.2,2.7c-0.1,1.5,0,3.1,0.3,4.6c0.2,0.9-1.2,1.3-1.4,0.4c-0.1-0.4-0.2-0.8-0.2-1.3
				c-0.5,1.4-0.9,2.9-1.2,4.3c-0.1,0.3-0.1,0.6-0.2,0.8c0,0.1,0.1,0.3,0.1,0.4c0.1,0.4-0.1,0.7-0.4,0.8c-1.5,7.2-2,14.6-3.6,21.8
				c-1.7,7.5-4.3,15.8-1.9,23.4c0.2,0.7-0.7,1.1-1.2,0.8v35.7c1.2,14.2,1.7,28.4,2.1,42.6c0.6,7,1.4,13.9,1.7,20.9
				c0,0.8-0.9,0.9-1.3,0.5c0.3,14.2,0.7,28.4,0.6,42.6c0.9,0,0.9,1.5,0,1.5h0c0,2-0.1,4-0.1,6c-0.1,5.2-0.3,10.3-0.5,15.5
				c0.1,8-0.4,16-0.9,24c-0.2,6.1-0.3,12.3-0.3,18.4c0,0.1,0,0.1,0,0.2c1.1,0,2.2-0.2,3.2-0.8c0.3-0.2,0.6-0.1,0.8,0
				c0.3-0.1,0.6-0.1,0.9-0.1c1,0,1,1.5,0,1.5c-0.6,0-1.1,0.4-1.8,0.4c-0.1,0-0.2,0-0.3,0c-1.2,0.4-2.4,0.5-3.7,0.5
				c0,0.3,0,0.6,0,0.9c0.1-0.1,0.3-0.2,0.4-0.2c0.9,0,1.7-0.4,2.7-0.4c1,0,0.9,1.4,0,1.5c-0.9,0-1.7,0.4-2.7,0.4
				c-0.2,0-0.4-0.1-0.5-0.2c0,1.7-0.1,3.3-0.1,5c0.5-0.2,1-0.4,1.6-0.4c-0.5-0.2-0.6-1.2,0.1-1.4c1.2-0.4,2.5-0.5,3.7-0.5
				c1,0,1,1.5,0,1.5c-1,0-2,0.1-3,0.3c0.6,0,1.1,0,1.7,0c1,0,1,1.5,0,1.5c-1.2,0-2.9-0.2-3.9,0.7c-0.1,0.1-0.1,0.1-0.2,0.1
				c0,0.5,0,1.1,0,1.6c0,0.3,0,0.6,0,0.9c2-0.5,4-0.8,6.1-1.2c0.9-0.2,1.3,1.2,0.4,1.4c-2.1,0.4-4.3,0.8-6.4,1.3c0,0.4,0,0.8,0,1.1
				c2.6-0.4,5.2-0.8,7.6-2c0.9-0.4,1.6,0.9,0.7,1.3c-2.6,1.2-5.4,1.8-8.2,2.2c0,0.7,0.1,1.4,0.2,2.1c3-1.5,6.5-1.3,9.9-1.2
				c1,0,1,1.5,0,1.5c-2.8,0-5.8-0.3-8.4,0.7h9.8c1,0,1,1.5,0,1.5h-11c0.3,3,0.7,6,1.1,9c0.1-0.2,0.3-0.3,0.6-0.3
				c3.6,0,7.2-0.3,10.8-0.9c-3.3-0.8-6.8-1.1-10.1-0.3c-0.9,0.2-1.3-1.2-0.4-1.4c3.8-0.9,7.7-0.5,11.5,0.4c0.5,0.1,0.6,0.7,0.4,1.1
				c0.3-0.1,0.6-0.1,1-0.2c0.9-0.2,1.3,1.2,0.4,1.4c-4.4,0.9-8.9,1.3-13.5,1.4c-0.2,0-0.3-0.1-0.5-0.2c0,0.2,0.1,0.5,0.1,0.7
				c4.1-0.4,8.2-0.8,12.3-1.2c0.9-0.1,0.9,1.4,0,1.5c-1.2,0.1-2.4,0.2-3.5,0.3c1,0.2,1.9,0.5,2.8,0.9c0.6,0.2,0.6,1,0.3,1.3h1.7
				c1,0,1,1.5,0,1.5H11.3c0.1,0.8,0.3,1.6,0.4,2.5c5.5-0.1,10.9,1.2,16.3,0.1c0.9-0.2,1.3,1.2,0.4,1.4c-4.9,1-9.7,0.2-14.5,0
				c1.4,0.4,2.8,0.7,4.3,0.9c2-0.1,4.1-0.2,6.1-0.2c1,0,1,1.5,0,1.5h0c0.6,0.4,0.2,1.5-0.6,1.3c-1.8-0.5-3.6-0.8-5.5-1.2
				c-2.8,0.2-5.5,0.6-8.2,1.6c0,0.2,0.1,0.3,0.1,0.5c0,0,0,0,0,0c0.1,0.2,0.3,0.5,0.4,0.7c4.5,0.2,8.8,1.3,13.3,1.7
				c0.9,0.1,0.9,1.6,0,1.5c-2.8-0.3-5.6-0.8-8.4-1.2c3.4,1.3,6.9,2.3,10.6,1.9c0.6-0.1,0.8,0.5,0.7,0.9c0.2-0.1,0.4,0,0.6,0.1
				c0.1,0,0.2-0.1,0.3-0.1c0.9-0.3,1.3,1.1,0.4,1.4c-0.7,0.2-1.4,0.4-2.1,0.6c-3.4,1.4-7.2,1.6-10.9,1.1c0,0,0,0.1,0,0.1
				c4.2,2.3,9.2,2.9,13.9,2.1c0.9-0.1,1.3,1.3,0.4,1.4c-4.4,0.7-9,0.3-13.1-1.4c0.1,0.2,0.2,0.3,0.3,0.5c0.1,0.3,0.3,0.5,0.4,0.8
				c0.2-0.5,1.2-0.6,1.4,0.1c1,2.5,4,3.5,6.5,3.9c2.4,0.4,4.9,0.4,7.4,0.5c1,0,1,1.5,0,1.5c-3.6,0-8.7,0.1-12.2-1.9c0,0,0,0,0,0.1
				c4.2,2.1,9.1,2.8,13.7,2.1c0.9-0.1,1.3,1.3,0.4,1.4c-4.8,0.7-9.7,0.1-14.1-1.9c0.1,0.2,0.3,0.5,0.4,0.7c0.8,0.8,1.6,1.5,2.6,2.1
				c0.1-0.3,0.4-0.6,0.9-0.5c6.2,1.3,11.5,5.2,18,5.3c1,0,1,1.5,0,1.5c-1.2,0-2.4-0.2-3.5-0.4c0.3,0.3,0.3,0.8,0,1c4,1,8,2,12.1,2.8
				c0.9,0.2,0.5,1.6-0.4,1.4c-0.9-0.2-1.8-0.3-2.7-0.5c-0.1,0.3-0.3,0.6-0.7,0.6c-5.4-0.1-10.3-1.9-15.4-3.4
				c0.9,0.8,1.9,1.5,2.8,2.3c1.5,1,3.1,1.9,4.7,2.8c0.1-0.1,0.3-0.1,0.6,0c2.3,0.8,4.7,1,7.1,1c-0.2-0.6,0.4-1.4,1-0.9
				c0.4,0.3,0.9,0.6,1.3,0.9c1.5,0,3-0.1,4.5-0.1c1,0,1,1.5,0,1.5c-0.6,0-1.3,0-2,0c5.3,2.5,11.5,3.1,17.2,4.3
				c0.9,0.2,0.5,1.6-0.4,1.4c-6.6-1.3-13.9-2-19.8-5.6c-1.7,0-3.4,0-5.1-0.1c5.7,2.7,11.7,5,17.8,6.8c0-0.4,0.2-0.7,0.7-0.7
				c14.7,0.1,28.7,4.5,43.1,6.7c0.5,0.1,0.6,0.4,0.5,0.8c0.6,0.1,1.2,0.1,1.8,0.2c5.3,0.5,10.6,1,16,1.2c2.9-0.5,5.8-1.2,8.8-1.5
				c5.3-0.6,10.7-0.3,16-0.5c10.8-0.4,21.6-1.3,32.4-1.9c1-0.1,0.9,1.4,0,1.5c-11,0.6-22,1.5-33,2c-2.8,0.1-5.6,0.2-8.3,0.2
				c-2.7,0-5.3,0-8,0.4c-0.3,0-0.5,0.1-0.8,0.1c11.6,0.2,23.1,0.2,34.7,0.2c1.4-0.2,2.8-0.3,4.2-0.5c2.8-0.5,5.7-0.9,8.6-1.3
				c0.4,0,0.7-0.1,1.1-0.1c1.1-0.4,2.1-0.8,3.2-1.2c0.5-0.2,0.9,0.2,0.9,0.6c6.4-1,12.7-2.3,18.9-3.9c1.1-0.3,2.1-0.5,3.2-0.8
				c0.5-0.2,1-0.4,1.4-0.6c0.6-0.3,1.2-0.5,1.8-0.8c-7.8,0.5-15.5,1.3-23.3,1.5c1.7,0.1,3.4,0.2,5.1,0.3c0.9,0.1,1,1.5,0,1.5
				c-2.8-0.2-5.6-0.4-8.3-0.6c-7.9,1.9-16.3,1.1-24.4,1.9c-0.9,0.1-0.9-1.4,0-1.5c5.6-0.6,11.3-0.4,16.9-0.8c-2.1,0-4.2,0-6.3,0.1
				c-0.9,0-0.9-1.2-0.2-1.4c-2.4-0.2-4.8-0.4-7.3-0.6c-2.2,0.1-4.3,0.3-6.5,0.7c-0.7,0.1-1.1-0.7-0.8-1.2c-4.2-0.2-8.4-0.1-12.6,0.4
				c-4,0.4-8,0.9-12,0.4c-0.9-0.1-0.9-1.6,0-1.5c4.2,0.5,8.4,0,12.5-0.4c4.1-0.4,8.2-0.5,12.3-0.3c2.3,0.1,4.5,0.3,6.8,0.5
				c2.7-0.1,5.3,0,8,0.2c4.9,0.3,9.8,1.1,14.7,1c9.8-0.2,19.5-1.3,29.3-1.8c1.3-0.6,2.7-1.2,4-1.9c0.1,0,0.1-0.1,0.2-0.1
				c2.7-1.6,5.4-3.3,8-5c0-0.2,0.1-0.3,0.3-0.4c1.3-0.9,2.7-1.8,4-2.7c-1.9,0-3.8,0.1-5.5,0.9c-0.9,0.4-1.6-0.9-0.7-1.3
				c0.7-0.3,1.5-0.5,2.2-0.7c-1.2,0.2-2.4,0.3-3.6,0.3c-1,0-1-1.5,0-1.5c0.4,0,0.8,0,1.2,0c-0.4-0.4,0-1.4,0.7-1.3
				c2.3,0.4,4.5,0.4,6.6-0.1c1.1-0.3,2.1-0.6,3.2-1c0.2-0.1,0.3-0.1,0.5-0.2c-0.2-0.3-0.1-0.7,0.3-0.9c1.4-0.6,2.8-1.3,4.2-2
				c0.4-0.5,0.9-1,1.3-1.5c-3.8,1.3-7.6,2.7-11.6,3.5c-0.9,0.2-1.3-1.2-0.4-1.4c4.8-1,9.3-2.7,13.9-4.3c0.2-0.3,0.5-0.6,0.7-0.8
				c-3.8,1.6-7.6,2.8-11.8,2.6c-1,0-1-1.5,0-1.5c4.3,0.2,8.2-1.1,12.1-2.8c-0.1-0.1-0.2-0.2-0.3-0.3c-0.4,0.1-0.8,0.2-1.3,0.3
				c-3.2,1.3-6.6,2.2-10.1,2.1c-0.9,0-1-1.5,0-1.5c2.7,0.1,5.2-0.4,7.7-1.2c0-0.3,0.2-0.5,0.5-0.5c0.5-0.1,1-0.2,1.5-0.3
				c1-0.4,1.9-0.9,2.9-1.3c0.6-0.9,1.3-1.9,1.9-2.9c-3.1,0.3-6.3,0.6-8.7,2.6c-0.7,0.6-1.8-0.4-1-1c3-2.5,6.9-2.6,10.7-3.1
				c0.2-0.3,0.4-0.6,0.6-1c-2.2,0.5-4.5,0.9-6.8,0.9c-0.1,0-0.2,0-0.3-0.1c-0.2,0-0.4,0-0.6,0.1c-1,0.1-0.9-1.4,0-1.5
				c3.1-0.3,6.2-1,9.1-1.9c0.2-0.4,0.4-0.8,0.7-1.2c-1.4,0.3-2.8,0.3-4.2,0.1c-0.9-0.1-0.5-1.6,0.4-1.4c1.6,0.2,3.2,0.1,4.8-0.4
				c0.2-0.4,0.4-0.8,0.6-1.1c-2.8,0.9-5.7,1.4-8.7,1.2c-0.9-0.1-1-1.5,0-1.5c2,0.1,3.9-0.1,5.7-0.5c-1.7-0.3-3.4-0.7-5-1.2
				c-0.6-0.2-0.6-0.9-0.3-1.3c-1.9-0.3-3.8-0.6-5.7-0.8c0.3-0.3,0.6-0.7,0.8-1c-3.5-0.4-7-0.9-10.5-1.1c0,0.1-0.1,0.3-0.1,0.4
				c-0.3,0.2-0.5,0.4-0.8,0.6c0.3-0.3,0.5-0.7,0.8-1c-1.5-0.1-3-0.2-4.4-0.2c-1,0-1-1.5,0-1.5c5.2,0,10.2,0.7,15.3,1.3
				c-5.6-1.3-11.3-2.2-17.1-1.6c-1,0.1-0.9-1.4,0-1.5c7.6-0.7,14.9,1,22.2,2.8c0.1-0.1,0.2-0.2,0.4-0.2c2.3-0.2,4.7-0.1,6.9,0.3
				c1.4-0.3,2.7-0.7,4.1-1.1c0.2-0.5,0.4-0.9,0.6-1.4c-1.7,0.2-3.4,0-5.1-0.4c-0.9-0.2-0.5-1.6,0.4-1.4c1.8,0.4,3.6,0.5,5.4,0.2
				c0.2-0.5,0.4-1,0.6-1.5c-1.4,0.3-2.9,0.5-4.4,0.5c-1,0-1-1.5,0-1.5c1.7,0,3.3-0.3,5-0.7c0.3-0.7,0.5-1.4,0.7-2.1
				c-1.3,0.3-2.7,0.4-4.1,0.2c-0.9-0.1-0.5-1.5,0.4-1.4c1.5,0.2,2.9,0,4.3-0.5c0.3-1.1,0.7-2.1,1-3.2c-1.8,0.5-3.6,0.9-5.5,0.7
				c-0.9-0.1-0.9-1.6,0-1.5c1.2,0.1,2.4,0,3.6-0.3c-1.4,0.2-3,0.3-4.2-0.1c-0.4-0.1-0.5-0.4-0.5-0.8c-1.1,0.2-2.2,0.3-3.3,0.3
				c-1,0-1-1.5,0-1.5c2.4,0,4.7-0.6,6.9-1.3c-0.7,0.1-1.3,0.1-2,0.1c-1,0-1-1.5,0-1.5c2.1,0,4.1-0.4,6.1-1.2c0-0.3,0-0.6,0-0.9
				c-0.7-0.1-0.7-1.2,0-1.4c0-0.6,0-1.1,0-1.7c-1.1,0.2-2.3,0.5-3.4,0.9c0.6,0.3,0.5,1.4-0.3,1.4h0c0,0,0,0,0,0
				c-0.1,0-0.1,0-0.2,0.1c-0.1,0.1-0.3,0.1-0.4,0.2c-0.4,0.1-0.7,0.2-1.1,0.2c-0.6,0-0.8-0.6-0.6-1.1c-0.2,0-0.3,0.1-0.5,0.1
				c-0.9,0.3-1.3-1.2-0.4-1.4c2.3-0.7,4.6-1.4,7-1.9c0-0.6,0-1.2,0-1.8c-1.7,0.4-3.5,0.5-5.2,0.2c-0.6-0.1-0.6-0.7-0.4-1.1
				c-0.2-0.3-0.2-0.9,0.2-1.1c-0.6,0.1-1.1-0.5-0.7-1.1c1-1.4,2.4-1.9,3.9-1.8c0-0.2,0-0.4,0.1-0.7c-0.9,0-1.8-0.2-2.6-0.4
				c-0.4-0.1-0.5-0.5-0.5-0.8c-0.1,0-0.3-0.1-0.4-0.1c-0.9-0.2-0.5-1.6,0.4-1.4c1.1,0.2,2.2,0.5,3.3,0.7c0,0,0-0.1,0-0.1
				c-0.1-2-0.2-4-0.2-6.1c0,0,0,0,0,0.1c-0.3,0.3-0.8,0.3-1,0c-0.2-0.2-0.4-0.4-0.6-0.6c-0.3-0.3-0.3-0.8,0-1c0.3-0.3,0.8-0.3,1,0
				c0.2,0.2,0.4,0.4,0.6,0.6c0,0,0,0,0,0.1c0-0.9,0-1.8,0-2.7c-0.4-0.1-0.8-0.2-1.2-0.2c-0.5,0-0.7-0.4-0.7-0.8
				c0-0.4,0.2-0.7,0.7-0.7c0.4,0,0.8,0.1,1.2,0.2c0-2,0-3.9-0.1-5.9c0-1,1.4-0.9,1.5,0c0.1,0.9,0.1,1.9,0.1,2.9
				c0.1-1.1,0.2-2.2,0.3-3.3c-0.2-0.5-0.4-1.1-0.6-1.6c0,0,0,0,0,0c-0.2-0.1-0.4-0.3-0.4-0.6c0-1.4,0-2.8,0-4.1c-0.1,0-0.1,0-0.2,0
				c-1,0-1-1.5,0-1.5c0.1,0,0.1,0,0.2,0c0-2.3,0-4.7,0-7.1c-0.3-3.9-0.5-7.8-0.5-11.7c0-0.4,0.3-0.7,0.7-0.7
				c0.2-13.5,0.6-26.9,0.9-40.4c0.3-9.8,0.5-19.6,0.7-29.5c0.2-9.7,0.1-19.3,0.5-29c0.2-4.7,0.5-9.4,0.6-14.2
				c0.1-4.6,0.2-9.2,0.7-13.8c0.4-3.3,0.8-6.7,0.7-10c-0.3-0.1-0.6-0.4-0.6-0.9c0.1-0.8,0.3-1.6,0.4-2.4c0-0.1,0-0.1,0-0.2
				c-0.5-4.4-1.3-8.7-0.6-13.2c0.1-0.7,0.9-0.7,1.3-0.2v-25.7c-0.3-1.9-0.6-3.8-1-5.7c-0.1-0.7,0.5-1,1-0.9v-0.5
				c0-0.4,0.2-0.6,0.5-0.7c0,0,0-0.1,0-0.1c-0.1-1-0.2-2.1-0.4-3.1c-0.2,0.5-0.2,1-0.3,1.5c0,1-1.5,1-1.5,0c0-1.5,0.5-2.8,1.4-4
				c-0.2-1.7-0.4-3.4-0.7-5.1c0-0.3-0.1-0.5-0.1-0.8c-1,2-1.9,3.9-2.7,6c-0.4,0.9-1.8,0.5-1.4-0.4c1.1-2.7,2.3-5.3,3.6-7.8
				c0-0.1,0.1-0.2,0.2-0.2c0-0.2-0.1-0.5-0.1-0.7l-2.3,4.7c-0.4,0.9-1.7,0.1-1.3-0.7l3.2-6.4c-0.2-1.3-0.5-2.7-0.7-4
				c-1,2.2-1.8,4.5-2.3,6.9c-0.2,0.9-1.6,0.5-1.4-0.4c0.6-2.9,1.7-5.7,3-8.4c0-0.1,0.1-0.2,0.2-0.2c-0.2-0.8-0.4-1.5-0.6-2.2
				c-0.7,2.4-1.8,4.6-3,6.8c-0.5,0.8-1.8,0.1-1.3-0.7c1.6-2.7,2.8-5.4,3.4-8.5c-0.3-0.6-0.6-1.2-0.9-1.9c-1,1.4-1.7,3-1.7,4.8
				c0,0.9-1.5,1-1.5,0c0.1-2.4,1-4.5,2.5-6.3c-0.3-0.7-0.6-1.3-1-2c-0.7,1.2-1.4,2.4-1.9,3.7c-0.3,0.9-1.7,0.5-1.4-0.4
				c0.6-1.7,1.6-3.3,2.4-4.9c0,0,0,0,0-0.1c-0.2-0.5-0.5-0.9-0.7-1.4c-0.9,1.4-1.7,2.8-2.1,4.4c-0.3,0.9-1.7,0.5-1.4-0.4
				c0.6-2,1.7-3.8,2.8-5.5c-1.7-3.4-3.4-6.8-4.9-10.2c0,0.2-0.1,0.3-0.2,0.5c-1.8,1.9-2.7,4.5-2.7,7.2c0,0.9-1.5,1-1.5,0
				c0-1.2,0.2-2.3,0.5-3.5c-0.3-0.1-0.6-0.4-0.5-0.9c0.6-2.2,1.1-4.5,2.4-6.5c-0.2-0.3-0.4-0.5-0.5-0.8c-0.3,0-0.6-0.2-0.6-0.5
				c0-0.2-0.1-0.4-0.1-0.6c0,0,0,0,0,0c0-0.3-0.1-0.6-0.1-0.9c0-0.1,0-0.2,0-0.2c0-0.2-0.1-0.4-0.1-0.6c0-0.1,0-0.2-0.1-0.3
				c0-0.2-0.1-0.4-0.1-0.6c0-0.1,0-0.2-0.1-0.2c-0.1-0.3-0.2-0.6-0.3-0.9c0,0.1,0.1,0.1,0.1,0.2c0-0.2-0.1-0.4-0.1-0.6
				c-0.4-1.6-0.8-3.1-1-4.7c-0.4-1.5-0.7-3.1-1-4.6c-0.1-0.4,0.2-0.7,0.5-0.9c-0.1-1.9-0.1-3.8,0-5.8c0.2-3.3,0.7-6.5,1.4-9.7
				c0-0.3-0.1-0.5-0.1-0.8c-0.1-0.4,0.2-0.7,0.5-0.9c0.1-0.4,0.2-0.8,0.2-1.1c0-0.2,0.1-0.3,0.1-0.5c0.5-3.9,0.9-7.7,1.3-11.6
				c0.1-1.1,0.2-2.3,0.3-3.4c0-4.2,0-8.4-0.1-12.5c-0.2-9.6-0.7-19.2-2.2-28.7c-0.8-4.8-1.9-9.5-2.9-14.3c-2.2-4.8-4.4-9.6-6.1-14.6
				c-2.6-7.7-4.9-15.6-10.3-21.9c-0.6-0.7,0.4-1.8,1-1c5.3,6.3,7.8,14,10.3,21.6c1.1,3.3,2.4,6.5,3.8,9.6c-0.2-1.5-0.4-3.1-0.6-4.7
				c-0.4-1.6-0.8-3.2-1.2-4.8c-2-7.3-4.8-14.7-9.8-20.5c-2.7-3.1-5.9-5.7-9.3-8.1C215.7,57.1,212,55.1,207.8,54.4z M236.5,74.9
				c3.7,7.1,5.1,15,6.3,22.9c0.4,2.8,0.8,5.6,1.3,8.4c0.6,1.3,1.1,2.6,1.7,3.9c0.5,1.2,1,2.4,1.4,3.6
				C246.2,100.6,245,85.6,236.5,74.9z M247.7,121.4c-0.6-2.9-1.4-5.7-2.5-8.5c0.7,3.9,1.4,7.9,1.8,11.9c0.7,6.6,1.2,13.2,1.3,19.9
				c0.2-2.7,0.3-5.3,0.3-8c0-0.1,0-0.2,0-0.3c0-0.3,0-0.5,0-0.8C248.5,130.9,248.1,126.1,247.7,121.4z M266,308.6
				c0-5.5,0-11.1-0.2-16.6c0,0,0,0.1,0,0.1c0,1.7-0.1,3.4-0.1,5.1c-0.2,7-0.7,14-1.2,20.9v15.7c0.3-2.8,0.6-5.6,0.9-8.4
				c0-5.4,0.1-10.8,0.2-16.1C265.5,308.9,265.7,308.7,266,308.6z M263,480.6v-22.9c-0.2,2.6-0.4,5.3-0.6,7.9
				c-0.2,2.8-0.4,5.6-0.6,8.4c0.4,3,0.8,6.1,1.1,9.1C262.9,482.3,262.9,481.5,263,480.6z M262.1,512c0.1-2.3,0.2-4.7,0.3-7
				c-0.2,1.4-0.5,2.8-0.8,4.2c0,1-0.1,2-0.2,3C261.6,512.2,261.8,512.1,262.1,512z M262,513.6c-0.2,0.1-0.4,0.1-0.7,0.2
				c0.1,1.8,0.2,3.6,0.4,5.3C261.8,517.3,261.9,515.4,262,513.6z M255.8,541.3c-1.9,1.8-4,3.5-6.2,5c-0.1,0.2-0.3,0.3-0.4,0.5
				c0.8-0.4,1.7-0.8,2.5-1.1c0.1-0.1,0.2-0.2,0.3-0.4c0.4-0.5,1.1-0.4,1.3,0C254.2,544,255,542.6,255.8,541.3z M245.8,548.3
				c-0.7,0.3-1.4,0.6-2.2,0.9c0,0.1-0.1,0.1-0.1,0.2C244.3,549.1,245.1,548.7,245.8,548.3z M245.5,551.2c0.5-0.1,1-0.3,1.4-0.4
				c1-0.8,2-1.7,2.9-2.7c-0.9,0.4-1.8,0.8-2.7,1.3C246.6,550,246,550.6,245.5,551.2z M246.9,544.3c-0.4,0.6-0.7,1.1-1.1,1.7
				c1.2-0.6,2.4-1.3,3.6-1.9c0.1-0.1,0.1-0.2,0.2-0.3C248.8,544,247.9,544.1,246.9,544.3z M248.6,541.4c-0.2,0.4-0.5,0.8-0.7,1.2
				c0.5-0.1,1-0.2,1.4-0.3c0.5-0.1,0.8,0.2,0.9,0.6c0.4-0.6,0.8-1.2,1.2-1.8c0.2-0.3,0.4-0.6,0.6-0.9
				C250.9,540.7,249.8,541.1,248.6,541.4z M250.7,537.8c-0.2,0.3-0.3,0.6-0.5,1c1-0.4,2-0.8,3-1.2c0.1-0.1,0.3-0.1,0.4-0.1
				c0.2-0.4,0.4-0.7,0.5-1.1C252.9,536.9,251.8,537.4,250.7,537.8z M254.5,529.9c0,0.1,0,0.1-0.1,0.2c0.6,0.3,1.2,0.5,1.9,0.8
				c0.2-0.6,0.4-1.1,0.6-1.7C256.1,529.5,255.3,529.7,254.5,529.9L254.5,529.9z M256.1,526.1c-0.1,0.4-0.3,0.7-0.4,1.1
				c0.4-0.1,0.8-0.3,1.2-0.4c0.3-0.1,0.5,0,0.7,0.1c0.1-0.4,0.2-0.9,0.3-1.3C257.3,525.8,256.7,526,256.1,526.1z M257.4,523
				c-0.2,0.5-0.4,1-0.5,1.4c0.5-0.1,1-0.3,1.5-0.5c0.1-0.4,0.2-0.8,0.2-1.2C258.1,522.8,257.7,522.9,257.4,523L257.4,523z
				 M258.7,519.1c-0.2,0.7-0.5,1.5-0.8,2.2c0.3-0.1,0.6-0.2,0.9-0.2c0.1-0.7,0.2-1.4,0.3-2.2C259,518.9,258.9,519,258.7,519.1z
				 M260.5,461.6c0.1-0.9,0.2-1.9,0.3-2.8c-0.1,0.2-0.2,0.3-0.4,0.3C260.5,460,260.5,460.8,260.5,461.6z M261.9,352.4
				c0,1-0.1,2-0.1,3c-0.4,33.3-1.7,66.5-2.1,99.8c0.3,0,0.6,0.2,0.7,0.5c0.4,0.8,0.4,1.6,0.5,2.5c0.5-5.3,1.1-10.5,1.6-15.8
				c0.2-4.3,0.4-8.6,0.5-12.9c-0.2-20.2-0.5-40.5-0.5-60.7C262.2,363.3,262,357.8,261.9,352.4z M262,494.1L262,494.1
				c0.1-1.8,0-3.6-0.1-5.4c0,0,0-0.1,0-0.1c-0.1-1.8-0.3-3.6-0.6-5.3c-0.2,3.9-0.3,7.7-0.3,11.5C261.3,494.6,261.7,494.4,262,494.1z
				 M260.9,500.2c0,0.6,0,1.3,0,1.9c0.1,0,0.2,0,0.4-0.1h0c0.1-0.7,0.2-1.4,0.3-2.1C261.4,500,261.1,500.1,260.9,500.2z
				 M261.7,498.4c0.1-0.8,0.1-1.7,0.2-2.5c-0.3,0.2-0.6,0.3-0.9,0.4c0.3,0.3,0.4,1-0.1,1.3c0,0.3,0,0.7,0,1c0.1,0,0.3-0.1,0.4-0.1
				C261.5,498.4,261.6,498.4,261.7,498.4z M247.5,210.7c-0.4,0.7-0.7,1.5-0.9,2.2c0.2-0.3,0.5-0.7,0.8-1c0.3-0.3,0.6-0.3,0.9-0.1
				C248,211.5,247.8,211.1,247.5,210.7z M245.4,199.8c0.2,0.8,0.5,1.7,0.8,2.5c-1.3-5.3-1.1-10.7-1.2-16c-0.3,2.8-0.5,5.5-0.3,8.3
				C244.9,196.4,245.1,198.1,245.4,199.8z M263,299.8v-3.5C262.9,297.5,262.9,298.7,263,299.8z M259.5,493.4c0-2.2,0.1-4.5,0.2-6.7
				c0-1,0.1-2,0.1-3c0,0,0,0,0,0c-0.3,3.1-0.6,6.2-0.8,9.3c0,0.1,0,0.2,0,0.4C259.1,493.3,259.3,493.4,259.5,493.4z M259.4,495.4
				c0-0.2,0-0.3,0-0.5c0,0-0.1,0-0.1,0c-0.1,0-0.1,0.1-0.2,0.1c0,0.2,0,0.3,0.1,0.5C259.3,495.5,259.4,495.4,259.4,495.4z
				 M256.4,497.7C256.4,497.7,256.4,497.7,256.4,497.7c-0.4,0.1-0.6-0.1-0.8-0.3c-0.4,0.2-0.7,0.5-1,0.9c0,0.1-0.1,0.1-0.1,0.1
				C255.1,498.1,255.8,497.9,256.4,497.7L256.4,497.7z M255.7,499.5c1.2,0.1,2.5-0.1,3.7-0.4v-0.4c-0.3,0.4-1.1,0.5-1.3-0.1
				C257.4,498.9,256.5,499.2,255.7,499.5z M258.9,510c0.3-0.1,0.6-0.1,0.8,0.1c0-0.2,0-0.5,0-0.7c-0.7,0.2-1.4,0.5-2.2,0.6
				c0.1,0.1,0.2,0.2,0.2,0.3C258.1,510.3,258.7,510.2,258.9,510z M257.7,511.8c-0.3,0-0.7-0.1-1-0.2c-0.9,0.3-1.7,0.5-2.6,0.8
				c0.9,0,1.8-0.1,2.6-0.2c0.3,0,0.7-0.1,1-0.1C257.7,511.9,257.7,511.8,257.7,511.8z M253.7,532.6c-0.1,0-0.3,0-0.4-0.1
				c0,0.1-0.1,0.2-0.1,0.3C253.3,532.8,253.5,532.7,253.7,532.6z M252.2,534.8c-0.2,0.4-0.4,0.7-0.5,1.1c1.1-0.5,2.3-1,3.4-1.6
				c0.1-0.2,0.2-0.4,0.3-0.6C254.3,534,253.2,534.4,252.2,534.8z M248.2,533.1c-1.3-0.1-2.5-0.3-3.8-0.5c2.1,0.5,4.2,0.9,6.3,1.2
				c0.2-0.1,0.3-0.1,0.5-0.2c0.2-0.4,0.4-0.9,0.6-1.3c-1.7-0.3-3.3-0.7-4.9-1.1c-0.1,0.1-0.2,0.1-0.4,0.1c-0.3,0-0.7,0-1-0.1
				c0.9,0.1,1.9,0.3,2.8,0.4C249.2,531.7,249.2,533.2,248.2,533.1z M232.7,561c-0.9,0.3-1.8,0.6-2.7,0.8c-1.4,0.4-2.8,0.7-4.2,1
				c1.7-0.2,3.4-0.1,5-0.2C231.4,562,232,561.5,232.7,561z M228.1,568.5c7.2-4.1,13.6-9.4,19.3-15.4c1.1-1.1,2-2.3,3-3.5
				c-0.8,0.8-1.6,1.5-2.4,2.2c-0.1,0.1-0.2,0.3-0.4,0.3c-1.2,1-2.5,1.8-3.8,2.6c0.4,0.3,0.5,1.1-0.2,1.4c-1.5,0.5-2.9,1.2-4.3,1.9
				c-1.6,1.7-3.2,3.3-4.9,4.8c0.1,0.3-0.1,0.7-0.5,0.8c-0.1,0-0.3,0.1-0.4,0.1c-2.3,2.1-4.8,4.1-7.3,5.9
				C226.8,569.2,227.4,568.9,228.1,568.5z M262.8,526.6c-0.2,0.8-1.5,0.7-1.4-0.2c0-0.6,0.1-1.1,0.1-1.7c-0.3,0-0.6-0.3-0.7-0.7
				c-0.1-0.7-0.1-1.3-0.2-2c-0.1,0-0.3,0.1-0.4,0.1c-0.1,0.3-0.1,0.7-0.2,1c0.6,0.2,0.8,1,0.2,1.3c-0.2,0.1-0.4,0.2-0.6,0.3
				c-0.2,0.8-0.4,1.6-0.6,2.3c0.7,0.1,0.9,1.2,0.1,1.4c-0.2,0-0.3,0.1-0.5,0.1c-0.3,1-0.6,1.9-0.9,2.9c0.3,0.2,0.5,0.3,0.7,0.5
				c0,0,0.1,0.1,0.1,0.1c0.3-0.2,0.6-0.4,0.9-0.5c0.8-0.5,1.6,0.8,0.7,1.3c-1.3,0.7-2.6,1.5-3.9,2.2c-0.3,0.8-0.7,1.5-1,2.2
				c0.5,0.2,0.7,1,0.1,1.3c-0.3,0.2-0.7,0.3-1,0.5c-0.6,1.1-1.2,2.1-1.8,3.1c1.3-1.1,2.5-2.2,3.7-3.4c0.4-0.4,0.8-0.2,1.1,0.1
				c1-1.6,2-3.2,3.1-4.7c0.2-0.3,0.5-0.4,0.8-0.3C261.8,531.6,262.4,529.1,262.8,526.6z M266.9,379.8c-0.1,18.9-0.7,37.8-2.4,56.7
				c0.1,14.6,0.1,29.2-0.1,43.8v31.9c0.3,0.1,0.6,0.3,0.6,0.7c0.5,10.9-1.4,21.8-6.7,31.4c-4.8,8.6-12.1,15.5-20.3,20.8
				c-4.8,3.1-9.9,5.7-15.2,7.9c-2.1,1.1-4.3,2.1-6.5,3c-8.2,3.7-16.8,7.2-25.7,9.6c-9.4,2.8-19.1,4.6-28.8,5.5
				c-7.8,0.8-15.6,1-23.5,0.8c-1.4,0-2.7-0.1-4.1-0.2c-4.5,0.2-8.9,0.1-13.4-0.2c-7.1-0.4-14.3-1.3-21.3-2.8
				c-4.1-0.9-8.1-1.9-12-3.3c-0.7,0-1.3,0-2,0c-6.1,0.1-12.6,0.3-18-2.6c-8-2-15.7-5-22.9-8.8c-3-1.1-5.9-2.3-8.7-3.7
				c-5.3-2.8-10-6.3-14.1-10.6c-5.1-4.1-8.9-9.4-11.8-15.3c-0.1-0.1-0.3-0.3-0.4-0.4c-0.3-0.3-0.3-0.6-0.1-0.8
				c-2.4-5.3-4-10.9-5.2-16.5c-4.6-22.9-2.7-46.6-1.5-69.7c0.3-4.9,0.5-9.8,0.6-14.8c0.2-7-0.3-14.1-0.4-21.1
				c-0.3-19.4-0.1-38.9-0.3-58.3c-0.1-9-0.2-18.1-0.8-27.1c-0.5-7.7-1.1-15.4-1.4-23.1c-0.7-14.6-1.1-29.9,2.6-44.2
				c-0.2-4.3-0.3-8.5-0.3-12.8c0-0.9,1.5-0.9,1.5,0v0.6c0,3.5,0.1,7.1,0.2,10.6c0.3,0.1,0.4,0.4,0.3,0.8c-0.1,0.3-0.2,0.6-0.3,0.9
				c0.2,4.8,0.5,9.5,0.9,14.3c-0.5-16-1.2-32.4,2.7-48.1c0.1-0.4,0.3-0.5,0.6-0.5c0.4-1.7,0.9-3.3,1.5-5c0.4-1.1,0.7-2.1,1.1-3.2
				c-0.3-0.2-0.4-0.6-0.2-0.9c0.5-0.8,1-1.6,1.5-2.4c5.1-12.5,12.6-23.9,21.1-34.3c0.2-0.3,0.5-0.3,0.8-0.2c1.6-2.2,3.2-4.4,4.8-6.6
				c4.7-6.2,10.1-11.8,15.2-17.6c2.3-2.6,4.6-5.2,6.8-7.9c4-5.7,7.8-11.5,11.2-17.6c4.6-8.4,8-17.2,10.6-26.3
				c-3.3,8.1-7.1,16-11.6,23.4c-0.5,0.8-1.8,0.1-1.3-0.7c4.5-7.4,8.3-15.2,11.5-23.2c1.5-3.9,3-7.8,4.3-11.7
				c0.1-0.4,0.2-0.8,0.2-1.2c-0.4,0.6-1.6,0.2-1.3-0.6c0.9-3.3,1.9-6.6,2.9-9.9c0.1-0.6,0.2-1.2,0.2-1.8c0-0.2,0-0.4,0.1-0.5
				c0.1-2.1,0.3-4.2,0.6-6.3c0-0.1,0.1-0.3,0.2-0.3c0.2-1.7,0.5-3.3,0.9-5c0.9-4,2.1-7.9,3.2-11.8c0.1-0.5,0.3-1.1,0.4-1.6
				c0.3-2.6,0.7-5.3,1.1-7.9c0.4-2.4,0.6-4.7,0.7-7.1c0.1-2,0.2-4.1,0.9-6c-0.1-0.5-0.1-1-0.2-1.5c0-0.2,0-0.3,0.1-0.5
				c-1.2-0.4-2.4-1-3.2-2c-1.4-1.7-1.9-3.9-1.9-6.1c0-0.2,0-0.4,0-0.6c0-0.2,0-0.3,0-0.5c0-0.4,0.2-0.6,0.5-0.7
				c0.7-0.9,1.9-1.3,3-1.5c0.4-0.1,0.8-0.2,1.2-0.2c-0.2-0.2-0.3-0.4-0.2-0.7c0.2-1.2,0.3-2.4,0.4-3.6c-0.5-0.3-0.6-1.2,0.1-1.3
				c0-0.1,0-0.2,0-0.4c-0.9-0.7-1.4-1.4-1.8-2.2c-0.7-0.4-0.8-1-0.5-1.4c-0.2-0.9-0.2-1.8-0.2-2.7c-0.8-2.5-1.5-5.6-0.2-8
				c0.1-0.3,0.3-0.5,0.5-0.8c0-0.2,0-0.4,0-0.6c0-0.6,0.5-0.8,0.9-0.7c0.2-0.1,0.3-0.1,0.5,0C96,3,97.4,2.6,98.9,2.3
				c5.9-1.1,11.9-0.1,17.8-0.8c9-1.1,18-1.7,27-1.3c7.6,0.4,15.1,1.8,22.7,2.2c-0.2-0.4-0.1-0.9,0.4-1c1.9-0.3,3.4,0.2,4.6,1.2h0
				c0.1,0,0.1,0,0.2,0c0.3,0,0.7,0.1,0.8,0.5c0.1,0.3,0.1,0.6,0.2,0.9c0.9,1.3,1.4,2.9,1.6,4.6c0.2,1.8,0.2,3.8-0.2,5.7
				c-0.1,2.1-0.6,4.7-2.4,5.8c0.3,0.1,0.5,0.3,0.5,0.7v4.4c0,0,0,0.1,0,0.1c1.6,0.4,2.8,1.2,3.1,2.9c0.1,0.3,0.1,0.6,0.1,0.9
				c1,2.4,0.8,5.2-0.7,7.4c0,0.1,0,0.1,0,0.2c0.2,0.1,0.3,0.2,0.4,0.5c0.2,1,0.3,2,0.4,3c0.4,1.6,1.1,2.9,1.9,4
				c-0.3-0.8-0.5-1.7-0.5-2.7c0-0.9,1.5-1,1.5,0c0,0.2,0,0.5,0,0.7c0.2,3.1,3.1,4.9,6.1,6.1c2.1,0.4,4.4,0.5,6.6,0.1
				c0.9-0.1,1.3,1.3,0.4,1.4c-0.4,0.1-0.9,0.1-1.3,0.2c2.1,0.5,4.2,0.9,6.3,1.3c2.8-0.1,5.7-0.3,8.5,0.1c6.5,0.8,13,3.8,18.2,7.7
				c5,3.8,9.3,8.6,12.5,14c0.2-0.4,0.8-0.7,1.2-0.3c3.8,4.4,6.3,9.6,8,15.1c3.2,10.5,3.7,21.5,4.4,32.4c0.1,0.4,0.2,0.9,0.3,1.4
				c0.7,4.2,0.9,8.6,0.9,12.9c0,1.3,0,2.6,0,3.9c0,6-0.4,11.9-1,17.9c-0.4,3.9-0.9,7.8-1.3,11.7c-0.3,3.4-0.6,6.8-0.8,10.3
				c0.5,0.3,0.5,1.1-0.1,1.4c0,1-0.1,1.9-0.1,2.9c0,0.4,0,0.7,0,1.1c0,0,0,0.1,0,0.1c0,0.9,0,1.8,0,2.7c0,0.1,0,0.2,0,0.3
				c0,0,0,0.1,0,0.1c0,0.9,0,1.8,0,2.7c0,0.3-0.1,0.5-0.3,0.6c-0.3,12.7,7,24.4,11.9,35.6c2.4,5.5,4.4,11.2,5.6,17.1
				c0.6,1.6,1.1,3.3,1.6,5c0.1,0.5-0.2,0.8-0.5,0.9c0.9,6.3,1.4,12.7,1.5,19.1c0,1.8,0,3.6,0,5.3c1,15.8,1.4,31.6,0.4,47.3
				c-0.1,2.1-0.2,4.3-0.4,6.4C266.7,344.5,267,362.1,266.9,379.8z M137.5,189.4c0.1-0.1,0.2-0.3,0.2-0.5c0-6.3-0.6-12.6-0.6-18.9
				c0-0.6-0.6-0.8-1-0.7c0,0-0.1,0-0.2,0c-0.3-3-0.7-6-1.2-8.9c-0.2-0.9-1.6-0.5-1.4,0.4c0.8,4.9,1.3,9.8,1.7,14.8V199
				c0,1,1.5,1,1.5,0v-3.4c0.2,2.9,0.5,5.8,0.9,8.7c0.1,0.9,1.6,0.9,1.5,0C138.2,199.3,137.8,194.4,137.5,189.4z M20.2,352
				c2.9-19.2-1.2-38.7,1.8-57.8c0.1-0.9-1.3-1.3-1.4-0.4c-2.9,19.2,1.2,38.7-1.8,57.8C18.6,352.5,20,352.9,20.2,352z M79.1,523.2
				c-3.1,0-6.1,0.5-9.1,1.4c-0.9,0.3-0.5,1.7,0.4,1.4c2.8-0.8,5.7-1.3,8.7-1.3C80.1,524.7,80.1,523.2,79.1,523.2L79.1,523.2z
				 M88.7,158c-0.2,1.3-0.5,2.6-0.8,3.9c-0.4-0.4-1.3-0.3-1.3,0.5c0.1,1.2,0.1,2.4-0.1,3.6c-4.4,11.6-13.3,21.1-20.4,31.1
				c-4.4,6.2-8.3,12.9-11.6,19.7c-3.3,7-5.9,14.7-5.4,22.5c0.1,0.9,1.5,0.9,1.5,0c-0.5-8.1,2.4-15.9,5.9-23.1
				c3.2-6.6,7-12.9,11.3-18.8c-6.5,11.3-10.3,24-11.3,36.9c-0.1,0.9,1.4,0.9,1.5,0c1.1-14.4,5.8-28.2,13.6-40.4
				c3.3-5.2,7.2-10,10.7-15.1c2.6-3.7,5-8,5.7-12.5c1-2.5,1.7-5.2,2.1-7.9C90.3,157.5,88.9,157.1,88.7,158L88.7,158z M108.3,524.5
				c-1,0-1,1.5,0,1.5C109.3,526,109.3,524.5,108.3,524.5z M97.3,110.1c0.7-5.4,1.2-10.8,1.7-16.2c-1.9,16-4.3,32-9.1,47.3
				C93.4,131.1,95.9,120.8,97.3,110.1z M104.3,54c-2.6,17.7-3.1,35.5-5.2,53.2c-0.9,8-2.2,15.9-4.4,23.6c-2.1,7.5-4.8,14.9-7.9,22
				c-6.7,15.3-15.5,29.2-24.8,43c-0.5,0.8-0.9,1.7-1.4,2.5c-7,13.2-12.2,27.3-12.7,42.4c0,0.9-1.5,1-1.5,0
				c0.4-12.1,3.8-23.6,8.7-34.5c-3.1,4.9-5.8,9.9-7.7,15.3c-2.9,8.1-3.3,16.6-3.3,25.2c0,1-1.5,1-1.5,0c0-7.8,0.3-15.7,2.6-23.1
				c2.4-7.9,6.7-15.2,11.3-22c1.4-2.2,2.9-4.3,4.3-6.4c6.2-11.3,13.3-22,19.1-33.5c15.9-31.2,16.8-66.4,21.5-100.4
				c0-0.3,0.3-0.5,0.5-0.5c0.3-2.4,0.6-4.8,0.9-7.1C103,52.7,104.4,53.1,104.3,54z M18,386.3c0.1-5.4,0.1-10.8,0.2-16.2
				c0.2-6.1,0.3-12.2,0.1-18.4c0-7.4,0-14.8,0-22.2v-10.5c0-1-1.5-1-1.5,0c0,3.6,0,7.3,0,10.9c-0.6-9-1-18.1-0.2-27.1
				c0.1-0.9-1.4-0.9-1.5,0c-1.5,15.9,0.8,31.7,1.6,47.6c0,0.9,0.1,1.8,0.1,2.7c0,5.2,0,10.3-0.1,15.5c-0.3,9.9-1,19.8-1,29.8
				c0,0.4,0.3,0.6,0.6,0.7c-0.1,11.2,0.1,22.4,0.9,33.5c0.2,3.3,0.6,6.6,0.9,9.9c0.1,0.9,1.6,0.9,1.5,0
				C17.5,423.9,17.7,405.1,18,386.3L18,386.3z M20.9,513.9c-3.3-0.4-6.6-0.5-9.9-0.5c-1,0-1,1.5,0,1.5c3.2,0,6.4,0,9.5,0.4
				C21.4,515.5,21.8,514.1,20.9,513.9z M120.3,41.7c0-0.5-0.5-0.7-0.9-0.7v-0.2c0-1-1.5-1-1.5,0c0,2.2,0,4.5,0.6,6.6
				c-0.1,0.8-0.2,1.5-0.3,2.3c-0.1,0.9,1.4,0.9,1.5,0c0.1-0.7,0.2-1.5,0.3-2.2c0,0,0-0.1,0-0.1C120.2,45.5,120.4,43.6,120.3,41.7z
				 M53.9,526.3c-1.7,0-3.4,0.4-5.1,0.9c-0.9,0.3-0.5,1.7,0.4,1.4c1.5-0.5,3.1-0.8,4.7-0.9C54.8,527.8,54.8,526.3,53.9,526.3z
				 M46.2,529c-3,0.4-6.1,0.9-8.6,2.7c-0.7,0.6,0,1.8,0.7,1.3c2.4-1.8,5.4-2.2,8.2-2.6C47.5,530.3,47.1,528.8,46.2,529z M26,525
				c-4.6,0-9.2,0-13.7,0.4c-0.9,0.1-1,1.6,0,1.5c4.6-0.4,9.1-0.4,13.7-0.4C27,526.4,27,525,26,525z M22.5,403.9
				c0.4-9.5,0-19-0.5-28.5c0-0.4-0.3-0.6-0.6-0.7c0-0.4,0-0.8,0-1.2c0-1-1.5-1-1.5,0c0,10.1,0.3,20.3,1,30.4
				c-0.1,2.3-0.3,4.6-0.5,6.9c-0.1,0.7,0.6,0.9,1.1,0.6c0.4,4.3,0.9,8.7,1.4,13c0.1,0.9,1.6,0.9,1.5,0
				C23.6,417.5,23,410.7,22.5,403.9z M11.6,513.1c2.3-0.4,4.6-0.4,6.9-0.4c1,0,1-1.5,0-1.5c-2.4,0-4.9,0-7.3,0.5
				C10.3,511.9,10.7,513.3,11.6,513.1z M241.5,173.5c-0.9,3.4-1.9,6.7-2,10.3c0,1,1.4,0.9,1.5,0c0.2-3.7,1.4-7.3,2.3-10.9
				c0.9-3.6,1.2-7.4,1.4-11.1c0.4-7.2,0.8-14.5-0.2-21.6c-0.1-0.9-1.6-0.5-1.4,0.4c1,7.2,0.5,14.6,0.1,21.8
				C242.9,166.1,242.5,169.8,241.5,173.5z M241,226.7c4.3,2.4,6.6,7.3,8.2,11.7c1.6,4.5,2.6,9.4,2.6,14.2c0,0.9,1.5,0.9,1.5,0
				c0-5.1-1.1-10.2-2.8-15c-1.7-4.7-4.3-9.7-8.8-12.2C241,225,240.2,226.3,241,226.7z M220.8,160.9c-1.4,1.8-2.7,3.7-4.3,5.3
				c-0.7,0.7,0.4,1.7,1,1c1-1,1.8-2.1,2.7-3.2c0.3,0.3,0.9,0.3,1.2-0.1c1.3-1.9,2.3-4,3.5-5.9c0.2-0.2,0.2-0.5,0.1-0.6
				c0.4-0.6,0.7-1.1,1.1-1.7c0.5-0.8-0.8-1.5-1.3-0.7c-0.8,1.2-1.5,2.5-2.4,3.6c-0.2,0.3-0.2,0.7,0,0.9c-0.2,0.4-0.5,0.9-0.7,1.3
				C221.4,160.5,221.1,160.5,220.8,160.9z M244.8,240.4c2.4,6.8,3.3,14,3.6,21.1c0,0.9,1.5,1,1.5,0c-0.3-7.3-1.2-14.6-3.6-21.5
				c-2.4-6.9-6.5-13.1-11.3-18.5c-0.6-0.7-1.7,0.3-1,1C238.5,227.8,242.4,233.7,244.8,240.4z M230.5,186.4c-3.1-2.5-7.2-3.4-10.3-6
				c-1.6-1.3-3.1-2.8-4.6-4.2c-1.6-1.5-3.4-2.7-5.2-4.1c-3.2-2.5-6.3-5.1-9-8.2c-2.9-3.3-5.4-7.1-7.7-10.8
				c-4.6-7.2-8.3-15-11.5-22.9c-3.4-8.4-6.2-17.1-7.5-26.2c-0.6-4.3-0.5-8.6-1.8-12.8c-0.3-0.9-1.7-0.5-1.4,0.4
				c1.2,4,1.1,8.2,1.7,12.3c0.6,4.5,1.6,8.9,2.9,13.3c2.4,8.4,5.7,16.5,9.5,24.3c3.7,7.7,8.2,14.9,13.4,21.7
				c5,6.6,12.3,10.9,18.3,16.4c1.8,1.6,3.6,3.2,5.8,4.3c2.2,1.1,4.5,1.8,6.5,3.4C230.2,188.1,231.3,187,230.5,186.4z M237.8,126.2
				c0.2-2.4,0-4.7,0-7.1c0-0.9-1.5-1-1.5,0c0,2.4,0.2,4.7,0,7.1C236.3,127.1,237.8,127.1,237.8,126.2z M239.1,129.1
				c-0.1,0.9,1.4,0.9,1.5,0c0.6-5.4,1-11.2-1.2-16.3c-0.4-0.9-1.8-0.5-1.4,0.4C240.1,118.2,239.7,123.8,239.1,129.1z M211.5,526.9
				c-0.2,0.2-0.3,0.4-0.5,0.6c0.9-0.1,1.8-0.3,2.7-0.6C213,526.9,212.3,526.9,211.5,526.9z M155.1,41.6c0.3,1.8,0,3.6,0,5.4
				c0,1,1.5,1,1.5,0c0-1.9,0.3-3.9,0-5.8C156.4,40.3,155,40.7,155.1,41.6L155.1,41.6z M133.2,246.7c-3.7,2.6-3.1,9.2-2.8,13.1
				c0.1,0.7,0.1,1.5,0.2,2.2c0,1.7,0.1,3.3,0.3,5c-0.1-0.1-0.3-0.1-0.4-0.1c-0.4,0-0.8,0.3-0.7,0.7c0,0.3,0.1,0.6,0.3,0.9
				c0,0.1,0.1,0.2,0.1,0.3c0,0.1,0,0.1,0,0c0,0,0,0.2,0,0.1c0,0.4,0.3,0.7,0.7,0.7c0.1,0,0.3,0,0.4-0.1c0.2,0.9,0.4,1.8,0.7,2.7
				c0,0,0,0,0,0.1c0.2,1.2,0.3,2.5,0.4,3.7c0.1,0.9,1.5,0.9,1.5,0c-0.4-4.7-1.3-9.4-1.8-14.1c0-2.2,0-4.5,0-6.7
				c0-0.3-0.1-0.5-0.3-0.6c0-0.4,0-0.8,0.1-1.1c0.1-1.8,0.5-4.4,2.1-5.6C134.7,247.5,134,246.2,133.2,246.7z M255.3,491.9h1.3
				c0.4,0,0.7-0.3,0.7-0.7c0-0.4-0.3-0.7-0.7-0.7h-1.3c-0.4,0-0.7,0.3-0.7,0.7C254.6,491.6,254.9,491.9,255.3,491.9z M212.6,569.7
				c-12.3,1.8-24.6,3.5-37,4c-0.9,0-1,1.5,0,1.5c8.2-0.3,16.4-1.2,24.5-2.2c-0.1,0.6,0.7,1.2,1.3,0.7c0.8-0.8,1.9-1.1,3-1.1
				c0.2,0,0.4-0.1,0.5-0.2c2.7-0.4,5.4-0.8,8.1-1.1C213.9,571,213.5,569.6,212.6,569.7z M178.1,175.3c1.8,4.5,3.8,9,6,13.4
				c1.8,3.5,3.7,6.9,5.8,10.2c-0.4-1.3-0.9-2.7-1.4-4c-2.4-3.5-4.7-7.1-6.3-11.1c-0.3-0.7,0.5-1.1,1.1-0.8c-0.7-1.4-1.5-2.7-2.5-4
				C180,177.8,179,176.6,178.1,175.3z M184.2,184.7c0,0,0-0.1-0.1-0.1c0.4,1,0.9,2,1.5,3C185.2,186.6,184.8,185.7,184.2,184.7z
				 M182.6,189c-4.5-9-8-18.4-11.3-27.9c-0.3-0.9,1.1-1.3,1.4-0.4c0.4,1.1,0.8,2.2,1.2,3.3c0-0.2,0-0.3,0-0.5c0.1-0.9,1.6-0.9,1.5,0
				c-0.6,4.2,1.6,7.8,4,11.1c1.5,2,2.9,4,4.2,6c-0.2-0.4-0.3-0.9-0.5-1.3c-0.3-0.9,1.1-1.3,1.4-0.4c3,8.2,6.9,16.4,13.4,22.4
				c0.7,0.6-0.3,1.7-1,1c-3-2.8-5.5-6.1-7.6-9.6c0.1,0.4,0.3,0.8,0.4,1.2c0.5,0.7,1.1,1.5,1.6,2.2c0.3,0.5,0,0.9-0.4,1
				c0.7,2,1.4,4.1,2.1,6.1c2.4,3.4,5.1,6.7,8,9.8c0.6,0.7-0.4,1.7-1,1c-1.7-1.9-3.4-3.8-5-5.8c0.7,1.7,1.5,3.3,2.3,4.9
				c0.4,0.8-0.8,1.6-1.3,0.7c-1.7-3.2-3-6.5-4.2-9.9C188.3,199.4,185.3,194.3,182.6,189z M131.2,47.6c0-1.8,0.1-3.7-0.3-5.5
				c-0.1-0.4-0.3-0.5-0.6-0.5c-0.1-0.2-0.3-0.5-0.5-0.7c-0.6-0.7-1.7,0.3-1,1c0.8,1,0.7,2.9,0.4,4c-0.1,0.5,0.2,0.8,0.6,0.9
				c0,0.3,0,0.5,0,0.8C129.7,48.5,131.2,48.5,131.2,47.6z M226.6,187.7c-8.1-4.5-17.9-7.3-23-15.7c-0.5-0.8-1.8-0.1-1.3,0.7
				c5.2,8.7,15.1,11.5,23.5,16.2C226.7,189.4,227.5,188.1,226.6,187.7L226.6,187.7z M40.9,528.1c-2.2,0.9-4.2,2.2-6.3,3.4
				c-0.4,0.2-0.7,0.4-1.1,0.6c0.4-0.3,0.9-0.6,1.3-0.9c0.8-0.5,0.1-1.8-0.7-1.3c-1,0.6-1.9,1.3-2.8,2c-1.1,0.4-2.2,0.8-3.3,1.1
				c-1,0.3-2.2,0.7-3.2,0.7c-1,0-1,1.5,0,1.5c0.5,0,1.1-0.1,1.7-0.2c0.1,0.1,0.2,0.1,0.4,0.2c5.4,0.9,9.9-3.8,14.6-5.8
				C42.1,529.2,41.7,527.7,40.9,528.1L40.9,528.1z M13.6,499.5c-1.3,0-2.6,0.4-4,0.4c-1,0-1-1.5,0-1.5c1.3,0,2.6-0.4,4-0.4
				C14.6,498,14.6,499.4,13.6,499.5z"/>
		</g>
	</g>
</g>
</svg>
