<?xml version="1.0" encoding="UTF-8"?>
<svg width="46px" height="32px" viewBox="0 0 46 32" version="1.1" xmlns="http://www.w3.org/2000/svg" xmlns:xlink="http://www.w3.org/1999/xlink">
    <!-- Generator: Sketch 48.1 (47250) - http://www.bohemiancoding.com/sketch -->
    <title>Page 1 Copy</title>
    <desc>Created with Sketch.</desc>
    <defs>
        <polygon id="path-1" points="0 0 46 0 46 32 0 32"></polygon>
    </defs>
    <g id="Mobile-Portrait---Splash" stroke="none" stroke-width="1" fill="none" fill-rule="evenodd" transform="translate(-138.000000, -67.000000)">
        <g id="Page-1-Copy" transform="translate(138.000000, 67.000000)">
            <mask id="mask-2" fill="white">
                <use xlink:href="#path-1"></use>
            </mask>
            <g id="Clip-2"></g>
            <path d="M11.86335,9.14120768 C11.899085,9.14120768 11.93482,9.14935795 11.970555,9.16294174 C12.0145365,9.17992147 12.061267,9.21863525 12.0990636,9.26821607 L12.1622871,9.35243553 L12.2633072,9.37213202 C13.0295484,9.52291202 13.8157187,9.58947257 14.4122185,9.63361987 C14.7551372,9.65807068 15.091871,9.66961689 15.4148606,9.66961689 C15.6718778,9.66961689 15.9282078,9.66214581 16.1769785,9.64652446 L16.2505101,9.64177014 L16.3137336,9.60033959 C16.3693978,9.56094662 16.4422422,9.53989175 16.513025,9.53989175 C16.5494473,9.53989175 16.5838078,9.54668365 16.6126707,9.55755067 L16.6999466,9.59898122 L16.7824121,9.59083095 C17.0229362,9.56298419 17.259337,9.52766635 17.4854297,9.48487743 C17.6606687,9.45227635 17.8338461,9.42103364 18.0097723,9.39047013 C18.7011074,9.2661785 19.4151205,9.13849093 20.1030195,8.92386713 C20.4328812,8.82063037 20.7407521,8.68139658 21.0383148,8.54691712 C21.1627001,8.49054441 21.2877727,8.43417171 21.4142196,8.37983657 C21.5008083,8.34316035 21.5942691,8.30716332 21.6904788,8.27252467 L22.1639677,8.0945771 L21.7537023,7.80048817 C21.0534334,7.29992571 20.3263633,6.84486894 19.5910467,6.45026 C19.4852161,6.39320811 19.3793855,6.33547702 19.2742421,6.27706675 C18.991798,6.12356999 18.7004202,5.96396052 18.4035447,5.82268916 C18.1300344,5.69228483 17.8475904,5.60127348 17.5754545,5.51297888 C17.4297656,5.46679401 17.278579,5.41789239 17.1363261,5.36491563 C17.0291211,5.32620185 16.9851395,5.23179455 16.9686465,5.17949698 C16.9377219,5.07761859 16.954215,4.9635148 17.0119408,4.8820121 C17.3287454,4.44325586 17.9479233,4.40590046 18.547172,4.37126181 C18.7423401,4.35835721 18.9423188,4.34613181 19.1278659,4.3210018 C20.0796543,4.18516396 20.9984565,3.8992253 21.8877086,3.62143691 C22.7742118,3.34704447 23.6923268,3.06042662 24.6200627,2.9354558 C25.0131478,2.88247904 25.3766829,2.84512363 25.7285353,2.81999363 L26.5834268,2.75954579 L25.8515463,2.32011037 C25.7402179,2.25422901 25.6158326,2.1985355 25.4962577,2.14420036 C25.4543378,2.12586225 25.4131051,2.10820333 25.3711852,2.08918603 L25.3107106,2.0599809 C24.9884082,1.9085217 24.6551105,1.75298737 24.3025708,1.63820439 C23.903988,1.50983763 23.5033435,1.48063249 23.1308747,1.46704871 C22.9040948,1.46025682 22.6608218,1.45414412 22.4168616,1.45414412 C21.9131354,1.45414412 21.4987467,1.48606601 21.1139081,1.55398493 C20.5229059,1.66197602 19.9655771,1.86777035 19.4261159,2.06677279 L19.2859247,2.11907036 C17.8901975,2.62982065 16.7047571,3.22750716 15.6608824,3.94541017 C14.8444748,4.50642046 14.0644894,5.13670805 13.3113052,5.74526159 C13.0481031,5.95784782 12.7835266,6.17111323 12.5182628,6.38234108 C11.9540619,6.82924759 11.4139134,7.20959355 10.864144,7.54443383 C10.5865104,7.71355195 10.2944454,7.84667303 9.98726172,7.98998196 L9.43199459,8.24467792 L9.83332628,8.51092009 C9.95427556,8.59174361 10.0518596,8.63996604 10.1968613,8.70788496 C10.5913209,8.89669956 11.0187666,9.05562984 11.5005021,9.1907885 C11.5053126,9.19282606 11.6310724,9.22610634 11.6310724,9.22610634 L11.7382774,9.17584633 C11.7815717,9.1527539 11.8228045,9.14120768 11.86335,9.14120768 Z M33.5297638,10.000382 C33.6438409,10.0234745 33.7373017,10.0818848 33.7874682,10.1599915 L34.2911944,10.9573597 L34.2911944,10.0166826 C34.2911944,10.003778 34.2911944,9.98951502 34.2932561,9.97525204 C34.3688494,9.14324525 34.28982,8.27592062 34.0437982,7.2442322 C33.9606456,6.88969543 33.8376346,6.42241324 33.6383432,5.96192295 C33.556565,5.77514592 33.4665403,5.59719834 33.3806388,5.43215536 L33.3744539,5.41992996 C33.3572736,5.38732888 33.3394061,5.35540698 33.322913,5.32212671 C33.3201642,5.3166932 33.2686233,5.23315292 33.2686233,5.23315292 L33.2102103,5.15436697 L33.1820346,5.18085535 L33.2108975,5.12584103 C33.1394274,5.08780643 32.9153964,4.94381832 33.0116061,4.69998939 C33.0542132,4.5919983 33.1971532,4.49215749 33.309856,4.49215749 C33.3366572,4.49215749 33.3600224,4.49894938 33.381326,4.50913722 C33.7166854,4.68980155 33.8919244,5.05316778 34.0795332,5.43826807 L34.1022112,5.48513212 C34.3413609,5.97890268 34.4884242,6.49848244 34.6018142,6.941993 C34.8643291,7.97164385 34.9680981,8.89805794 34.9234293,9.77285366 L34.8993769,10.2122891 L35.3062063,10.0323039 L35.4525824,9.96302664 C35.6834855,9.85571474 35.9253841,9.74364852 36.1480407,9.58879338 C36.2772365,9.50049878 36.4091812,9.39997878 36.5638039,9.27161201 L36.5926668,9.24784039 L36.6139703,9.21659769 C36.6222169,9.20505147 36.6284018,9.19486363 36.6400844,9.18467579 L36.7033079,9.11539849 L36.7108672,9.02302876 C36.723237,8.88379497 36.7094928,8.7432028 36.6991846,8.61823199 C36.6929997,8.56865117 36.687502,8.51907036 36.6854404,8.4722063 C36.6682601,8.15502494 36.6414588,7.86433195 36.6036622,7.57907248 C36.5356282,7.07035976 36.4373569,6.62820758 36.1720931,6.12221161 C35.9734889,5.74390322 35.7027275,5.38121617 35.464265,5.06063886 C35.3976054,4.97098589 35.3323203,4.88065372 35.2670352,4.78896318 C35.0759903,4.52340019 34.8787605,4.25036613 34.6492318,4.00382044 C34.1489416,3.46522339 33.4294308,3.00744986 32.5106286,2.64408363 C31.9532999,2.42266794 31.4179619,2.29090523 30.8998042,2.16525523 C30.5926205,2.08918603 30.2737542,2.01040008 29.9459542,1.91395522 L29.1494757,1.67623899 L29.6483915,2.33437334 C30.110885,2.94021012 30.4400595,3.45231879 30.6874557,3.94812692 C31.0454931,4.66399236 31.2915149,5.46407726 31.5114227,6.22205242 C31.564338,6.40067919 31.6083195,6.58813541 31.6529883,6.77083731 C31.7031548,6.97866921 31.7546957,7.19329301 31.8199808,7.40452085 C31.9361196,7.79505465 32.1230412,8.14959143 32.2900337,8.45115144 C32.463211,8.76697442 32.6604408,9.070572 32.8927184,9.38231986 L32.9449465,9.45363472 C33.0349713,9.57520959 33.1277448,9.70221798 33.2452581,9.81564258 L33.2830547,9.77896636 L33.2878652,9.84348933 L33.2768698,9.84077258 L33.2878652,9.84960204 L33.2913013,9.90122042 L33.485095,9.97457285 C33.4418006,9.95555556 33.4012551,9.91887934 33.3723922,9.87133609 L33.3641457,9.86861934 L33.3009222,9.76130744 L33.3345956,9.72802717 C33.3345956,9.71240582 33.3373444,9.69542609 33.3407805,9.67980473 L33.5682476,9.49574446 L33.6307839,9.43325905 L33.6383432,9.46721851 C33.6404049,9.46721851 33.6431537,9.4678977 33.6465898,9.4678977 L33.6417793,9.48759418 L33.6878225,9.72463122 L33.5758069,9.79934204 L33.5297638,9.99970285 L33.5297638,10.000382 Z M26.5964838,3.41768014 C25.9656234,3.41768014 25.2729139,3.47473204 24.4791843,3.59291096 C23.7541758,3.70090205 23.0621535,3.91960098 22.3941837,4.13150801 C22.2285656,4.18448477 22.0650092,4.23610315 21.8973295,4.28772153 C21.006703,4.56007641 20.1325696,4.81477237 19.2357582,4.94381832 L18.3190177,5.05792211 L19.0660169,5.45932293 C19.3381528,5.60195267 19.6281561,5.75952457 20.0074971,5.96939404 C20.8397106,6.42988433 21.5674679,6.88901624 22.2320017,7.37056139 C22.4099895,7.49960734 22.586603,7.63816194 22.7535954,7.76856627 L22.8023875,7.80660087 L22.8662982,7.82086384 C22.9123414,7.83105168 22.9583845,7.85686087 23.0023661,7.89829141 C23.0222952,7.91662952 23.0415372,7.94243871 23.0566558,7.97300223 L23.0848315,8.0252998 L23.2277716,8.13736602 C23.3390999,8.22158548 23.4518026,8.30444657 23.5651926,8.38730765 C23.7603607,8.52993739 23.962401,8.67732145 24.1500098,8.83081821 C24.4867436,9.10656903 24.7526946,9.38164067 24.9629814,9.66622095 C25.2358045,10.0377375 25.5113764,10.3372599 25.8048158,10.5810888 C26.1065018,10.8323888 26.4294914,11.0612756 26.7675996,11.2589197 C27.14213,11.4803353 27.4644324,11.5862889 27.7846731,11.5917224 C27.8485838,11.5917224 27.9001246,11.6338321 27.9324236,11.6677916 L28.0801741,11.8280802 L28.2705318,11.7187308 C28.7632627,11.4382256 29.3240275,11.2215643 29.9383949,11.0762178 C30.5403924,10.9329088 31.1183375,10.8595564 31.6543627,10.8588772 L31.7629422,10.8588772 L31.8948869,10.3522021 C31.8055493,10.3046588 31.7155246,10.2577948 31.6248126,10.2116099 C31.5629636,10.1790088 31.5004273,10.1477661 31.4385782,10.1158442 C31.308008,10.0458877 31.1746889,9.98000637 31.0406826,9.91344582 C30.6503463,9.71919771 30.2813135,9.53513743 29.9535135,9.28587499 L29.7363546,9.11879444 C29.3501416,8.82063037 28.9488099,8.51227847 28.5110559,8.24943224 C28.3310064,8.14279953 28.1516442,8.0375252 27.9709075,7.93428844 C27.65479,7.75090735 27.3263028,7.56209275 27.0170575,7.35833599 C26.9462747,7.31283031 26.9229095,7.2313276 26.9153501,7.18650111 C26.8995443,7.09073543 26.9194734,6.99089462 26.9682654,6.92161732 C27.0411099,6.82245569 27.1380067,6.80275921 27.2067279,6.80275921 C27.2768235,6.80275921 27.3476064,6.82381407 27.4087682,6.86388624 C27.7296961,7.07579327 28.0643683,7.26868301 28.3894194,7.45681842 C28.5784027,7.5654887 28.7680732,7.67415897 28.9549948,7.78690438 C29.3467055,8.02394142 29.701994,8.29901305 30.0772116,8.58766847 C30.1541794,8.64743712 30.2338959,8.70720577 30.3136125,8.7683328 C30.6682138,9.0393293 31.0640478,9.2349358 31.4495736,9.42239202 L32.4171678,9.89986204 L31.963608,9.12354876 C31.9182521,9.04408363 31.8048621,8.84779794 31.8048621,8.84779794 C31.61313,8.51363685 31.4186491,8.15366656 31.2956382,7.77467898 C31.2104239,7.51454951 31.1437644,7.23947787 31.0784792,6.97459408 C31.0393082,6.81973894 31.0021987,6.66556298 30.9602788,6.51138703 C30.723878,5.6379497 30.4647991,4.91529237 30.1727341,4.30538045 L30.1005768,4.15663801 L29.9335844,4.15052531 C29.926025,4.15052531 29.9177785,4.15052531 29.909532,4.14916693 C29.6222774,4.10841558 29.3336485,3.99567017 29.0285264,3.87477449 C28.8766526,3.81432665 28.7179067,3.75184124 28.5605352,3.69954367 C28.0781125,3.54061339 27.677468,3.46250663 27.174429,3.4333015 C26.9868202,3.42379285 26.7923392,3.41768014 26.5957966,3.41768014 L26.5964838,3.41768014 Z M33.2335755,12.4352754 C33.3421549,12.6125438 33.5902384,12.7966041 33.8424451,12.9718349 L33.9056686,13.0146238 C33.9936317,13.0750716 34.0767843,13.1321235 34.1530649,13.1939297 L34.3138724,13.3270508 L34.4925475,13.2109095 C34.649919,13.0995224 34.8148498,12.9996816 34.9887144,12.8930489 C35.0821752,12.8373554 35.1742616,12.7803035 35.2656608,12.7218932 C35.5068721,12.5690757 35.7219694,12.3904489 35.9301946,12.2165765 L36.048395,12.118094 C36.3040378,11.9082246 36.5747993,11.7309562 36.8290676,11.5679508 C37.0482882,11.4300753 37.2049725,11.2629948 37.3568463,11.102027 C37.4283163,11.0259578 37.4963503,10.9539637 37.5712564,10.8840072 C37.6825847,10.7800913 37.8076572,10.6863632 37.9396019,10.5878807 C38.0605512,10.4982277 38.1863109,10.4044996 38.3045114,10.2999045 C38.3917873,10.2231561 38.4776888,10.1450493 38.5642774,10.0642258 C38.7237106,9.91616258 38.877646,9.77557041 39.039828,9.6438077 C39.250802,9.47197283 39.4734587,9.30625066 39.688556,9.14528282 C40.0349107,8.88787011 40.3936353,8.62094874 40.7221225,8.31803035 C40.8492567,8.201889 40.9633339,8.07759737 41.0732877,7.95738088 C41.1736207,7.84735222 41.2684559,7.74411546 41.3708505,7.64834978 C41.4560647,7.56684708 41.5598337,7.49756978 41.6697876,7.42489653 C41.7735566,7.35426085 41.8814488,7.28294598 41.9817817,7.19465138 C42.125409,7.07171814 42.2449839,6.92501327 42.3604355,6.78238353 C42.4154124,6.71378542 42.472451,6.64382893 42.5315512,6.57726839 C42.638069,6.45841027 42.7500845,6.34702324 42.8703466,6.22816513 C42.9672435,6.13307864 43.0634531,6.03799215 43.1555395,5.93883052 C43.5328188,5.53539213 43.8860457,5.06946832 44.2317132,4.51592911 L44.2557656,4.47721532 C44.5773807,3.96035233 44.9106785,3.4265096 45.1120315,2.82067282 L45.1518898,2.70385228 C45.2288575,2.47700308 45.314759,2.21823199 45.3566789,2.02602144 C45.3972244,1.84060278 45.4075326,1.70136899 45.3876035,1.59066115 L45.2068667,1.61986628 L45.0433103,1.70612332 L44.9580961,1.66129683 L44.8495166,1.67827656 L44.8673841,1.61307439 L44.8192793,1.58862358 L44.8873133,1.54651385 L44.9120529,1.46093601 L45.1195908,1.36584952 L45.1470793,1.385546 L45.28246,1.30268492 C45.2412273,1.23272843 45.1924353,1.16413032 45.1436433,1.10164491 L45.165634,1.05885599 L45.0625523,0.987541123 L45.0625523,0.782425979 L44.7862931,0.780388411 L44.7629279,0.780388411 L44.6316705,0.68598111 L44.5079723,0.927772472 L44.2110968,1.2218614 L44.3093681,1.24902897 C44.3004344,1.26804627 44.2915006,1.28978032 44.279818,1.31219357 C44.1190105,1.67420142 43.9087236,2.00360819 43.6867542,2.35271145 C43.5733643,2.53269659 43.4544766,2.71743606 43.3445228,2.90760904 L43.2888586,3.00201634 C43.1431697,3.25263716 43.0064145,3.48831582 42.8421709,3.71176908 C42.7507718,3.8360607 42.6559365,3.95831476 42.5597269,4.08124801 C42.459394,4.20893558 42.359061,4.33662316 42.2635386,4.46838586 C42.1047927,4.68436804 41.9096245,4.93906399 41.6670387,5.17610103 C41.4725578,5.36423644 41.3083142,5.53131699 41.1385729,5.72964024 C41.0478609,5.83355619 40.9461536,5.93815133 40.8458206,6.03731296 C40.7344923,6.15141675 40.6169791,6.26891648 40.5118357,6.39320811 L40.48366,6.42920514 C40.2919279,6.65877109 40.110504,6.87679083 39.8954067,7.06356787 C39.6260197,7.29720896 39.3793106,7.55394248 39.1415354,7.79980898 C38.955301,7.99473628 38.7621944,8.1950971 38.5642774,8.377799 C38.2557193,8.66237928 37.9265449,8.93677173 37.6069914,9.2030139 C37.4901654,9.30149634 37.371965,9.40065796 37.2544517,9.4991404 L37.2207784,9.52834554 L37.1987876,9.56705932 C37.1616781,9.62818635 37.0991419,9.6818423 37.0400417,9.70221798 L36.9974345,9.71716014 L36.9610123,9.74568609 C36.5665527,10.0621883 36.1446047,10.3263929 35.6711157,10.5518837 C35.5618491,10.6041813 35.4518952,10.6544413 35.3412541,10.7067388 C34.9117467,10.9077788 34.4671207,11.1149316 34.0479215,11.3730235 C33.7489843,11.5577629 33.5242661,11.7262018 33.3394061,11.9007535 C33.2899268,11.9476175 33.2713721,11.9666348 33.251443,11.9931232 C33.2480069,11.9965192 33.2411348,12.0046694 33.2273906,12.017574 L33.6122292,12.3999576 C33.6053571,12.4074286 33.5407591,12.4665181 33.4363029,12.4665181 L33.1978404,12.3293219 C33.1449251,12.2369521 33.1586694,12.1303194 33.1950916,12.07123 L33.1140006,12.2036719 L33.1854706,12.344264 L33.2150207,12.3972408 C33.2218929,12.4094662 33.2294522,12.4223708 33.2363243,12.4345962 L33.2335755,12.4345962 L33.2335755,12.4352754 Z M22.5488063,8.58970604 C22.3900604,8.66102091 22.2292528,8.72622307 22.0601987,8.79278361 C21.8870213,8.86341929 21.7069719,8.93473416 21.5269224,9.01623687 C21.0795475,9.21931444 20.5407734,9.45023878 19.9470224,9.61731933 C19.0880077,9.85775231 18.1094181,10.0526796 17.0408037,10.1987053 C16.9617743,10.2088931 16.8841194,10.2184018 16.80509,10.2279104 L16.671771,10.2421734 L16.6023626,10.3576356 C16.5652531,10.4180834 16.5274565,10.4778521 16.490347,10.5369415 C16.4422422,10.6123315 16.392763,10.6884007 16.3487814,10.7658283 C16.2298938,10.9675475 16.1165038,11.1733418 16.0024267,11.378457 C15.9371415,11.4986735 15.8711692,11.6175316 15.8051969,11.7357105 C15.5756681,12.1459408 15.3303335,12.5568503 15.0925582,12.9548551 C14.9647368,13.1708373 14.8362282,13.3868195 14.7097813,13.6034808 L14.6706102,13.6673246 C14.3270043,14.2541441 13.9717158,14.8613393 13.5944365,15.4366125 C13.3889602,15.7483604 13.1821094,16.0288655 12.9615144,16.2957869 C12.9134096,16.3555556 12.8639303,16.4153242 12.8158255,16.4744137 L12.5168884,16.845251 L13.0845253,16.9444126 C13.4714256,17.0082564 13.8672596,17.1237186 14.2500366,17.2344264 C14.3400613,17.261594 14.6548043,17.3519261 14.6548043,17.3519261 C15.0458278,17.4639924 15.45197,17.5794545 15.8546761,17.6772578 L15.8862879,17.6860872 L15.9185868,17.6860872 C15.955009,17.6860872 15.9900568,17.6935583 16.0264791,17.7071421 L16.0670246,17.728197 L16.1027596,17.735668 C16.5240204,17.8321129 16.9081718,17.8966359 17.2737685,17.9360289 C17.4957379,17.9591213 17.7163329,17.9869681 17.9362407,18.015494 C18.4647066,18.0834129 19.0110399,18.1526902 19.5656199,18.1526902 C19.725053,18.1526902 19.8837989,18.1465775 20.0342983,18.1350313 C20.5510816,18.0956383 21.0726754,18.0290778 21.5764016,17.9659132 C21.9804822,17.9142948 22.3976197,17.8619972 22.8065107,17.8226043 C23.2050936,17.7845697 23.6270416,17.735668 24.0187524,17.5869256 C24.0806014,17.563154 24.1410761,17.5387032 24.2036123,17.5149316 C24.3637327,17.4497294 24.5169809,17.3886024 24.672978,17.347851 C24.7004665,17.3403799 24.7272677,17.3342672 24.7547562,17.3295129 C24.799425,17.3200042 24.8454682,17.3098164 24.8901369,17.2962326 L24.9093789,17.2914783 L24.9444267,17.2744986 L24.9808489,17.2568396 C24.9808489,17.2568396 25.0310154,17.211334 25.0399491,17.2031837 L25.1148552,17.1400191 L25.16296,16.8697018 C25.2467999,16.4064947 25.334763,15.9283455 25.4570867,15.4732888 C25.7319714,14.4633344 26.2879257,13.4920938 27.0658495,12.6668789 C27.1057078,12.6247692 27.1441917,12.5860554 27.1847372,12.5466624 L27.4857359,12.24714 L27.0844042,12.1024727 C26.8981698,12.0359121 26.6954423,11.9381089 26.4452973,11.7948 C26.0790134,11.5835721 25.7374691,11.3465351 25.4357831,11.0904807 C25.0853051,10.7963918 24.786368,10.4798896 24.5444694,10.1498037 C24.299822,9.81700096 24.053113,9.55958824 23.7479909,9.31372174 C23.5672542,9.16837525 23.3796454,9.03117903 23.1995959,8.89941632 C23.0745233,8.80840497 22.9515124,8.71739361 22.8298759,8.62434469 L22.6993057,8.52586225 L22.5488063,8.58970604 Z M36.6545158,14.4565425 C36.7988303,14.6820333 36.9245901,14.928579 37.0283591,15.1425236 C37.3912069,15.8882734 37.8901227,17.0136899 38.0296267,18.1941208 C38.0488686,18.353051 38.0653617,18.5221692 38.0749826,18.6967208 L38.1169026,19.3480632 L38.5525948,18.8570094 C38.6151311,18.7863738 38.6687336,18.719134 38.7140896,18.6491775 C38.958737,18.2858113 39.1408481,17.9849305 39.2851626,17.703067 C39.4961366,17.2935159 39.6548826,16.9111323 39.7703342,16.5335031 C39.8012587,16.4316247 39.8280599,16.3290672 39.8527996,16.2265096 C39.8720415,16.1511196 39.889909,16.0750504 39.9118998,15.9996604 C39.9228952,15.9657009 39.9311417,15.9324207 39.9421371,15.901178 C39.9792465,15.7850366 40.0170432,15.6641409 40.0142943,15.5126817 C40.0129199,15.3992571 39.993678,15.2871909 39.9716872,15.1778415 C39.9620662,15.1214687 39.9517581,15.0657752 39.9441987,15.0127985 C39.922208,14.817192 39.8974683,14.6263398 39.8603589,14.4314125 C39.7964482,14.1135519 39.701613,13.6992465 39.5146914,13.3148254 C39.3538838,12.9813435 39.111298,12.7062719 38.9202532,12.5072694 C38.8852054,12.469914 38.8508448,12.4332378 38.8171714,12.3952032 C38.7484502,12.3211716 38.6790418,12.243744 38.6000125,12.1710708 L38.2137994,12.5507376 C38.1608841,12.4923273 38.1265235,12.3809403 38.1760028,12.2709116 L38.4247734,12.1106229 L38.5958892,12.17175 C38.5903915,12.1656373 38.5484716,12.1282819 38.5484716,12.1282819 C38.514111,12.0990767 38.4776888,12.07123 38.4398921,12.0461 L38.410342,12.0257243 L38.374607,12.0134989 L38.2976393,11.9788602 L38.2467856,11.9876897 C38.2426623,11.9863313 38.2227332,11.9849729 38.2227332,11.9849729 L38.2096761,11.9836146 C38.1169026,11.981577 38.0419965,11.9014327 38.0035126,11.8287594 L37.8330841,11.5115781 L37.5726308,11.7588029 C37.4228186,11.9014327 37.2833146,12.0101029 37.1341897,12.1031519 C36.8799213,12.2600446 36.6249657,12.4475008 36.3267158,12.6933673 C36.3019762,12.7164597 35.7398369,13.1708373 35.7398369,13.1708373 L36.3548915,13.2564152 C36.8221955,13.3222965 37.3080543,13.4336835 37.6970161,13.8079168 C37.9347914,14.0354452 38.167069,14.2935371 38.3718581,14.5577417 C38.43302,14.6358485 38.4831864,14.7282182 38.5354145,14.8239839 C38.5711496,14.8905444 38.6061974,14.9550674 38.6453684,15.0175528 L39.1106108,14.7363685 C39.1380993,14.7825533 39.169711,14.889186 39.1085492,14.9964979 L38.8714611,15.133015 C38.7580712,15.133015 38.6900372,15.065096 38.6824779,15.057625 C38.6934733,15.068492 38.7113408,15.0895469 38.7257722,15.1065266 C38.7457014,15.1302982 38.7642561,15.1506739 38.7697538,15.1567866 L38.8109865,15.1988963 C38.8480959,15.2355725 38.8838309,15.2736071 38.9202532,15.3130001 C38.9800406,15.3822774 38.9821022,15.4698928 38.9786662,15.5181152 C38.9704196,15.610485 38.9257508,15.7014963 38.8625274,15.7524355 C38.8096121,15.7952245 38.7491374,15.8176377 38.6824779,15.8176377 C38.5903915,15.8176377 38.4941818,15.7728112 38.4268351,15.6953836 C38.3890384,15.6539531 38.3498674,15.6132017 38.3079474,15.5717712 C38.2598426,15.5228696 38.2137994,15.4760055 38.1780644,15.4298207 C38.1402678,15.3802398 38.0962862,15.2933036 38.059864,15.2233471 C38.027565,15.1615409 37.9980149,15.104489 37.9725881,15.0671336 C37.8440795,14.8694895 37.6825847,14.6976547 37.5293365,14.5319325 C37.4702362,14.4694471 37.4131977,14.4083201 37.3589079,14.3478722 C37.2757553,14.2548233 37.190541,14.1841876 37.0689045,14.1047225 L36.7651569,14.5523082 L36.7115544,14.3960947 L36.6545158,14.4565425 Z M7.96823344,19.4689589 C7.98541373,19.4689589 8.00190682,19.4703173 8.02046154,19.4730341 C8.03626741,19.4743924 8.05207328,19.4777884 8.06787915,19.4832219 L8.1056758,19.4940889 L8.16546323,19.4940889 C8.29878232,19.4920514 8.43485026,19.4900138 8.5716054,19.4893346 C8.84236686,19.4866178 9.12000043,19.4845803 9.39625957,19.4730341 C10.2772651,19.4336411 11.1005448,19.2699565 11.9169525,18.9711132 C12.0784472,18.9113446 12.2378804,18.844784 12.3931903,18.7816194 C12.645397,18.6756659 12.8866083,18.5758251 13.1381279,18.5045102 C13.1848583,18.4909265 13.2329631,18.4787011 13.2810679,18.4664756 C13.4171358,18.4297994 13.5580143,18.3931232 13.6982055,18.3333546 C13.7511208,18.3102621 13.8019745,18.2844529 13.8514537,18.2593229 L14.4376454,17.9387456 C14.4376454,17.9387456 13.6439157,17.7207259 13.6006214,17.710538 C13.4157614,17.6609572 13.2226549,17.627677 13.0336717,17.5964343 C12.6859425,17.5373448 12.3581425,17.4830097 12.0976892,17.3329088 C11.8489185,17.1909583 11.7685147,16.8873607 11.912142,16.6258729 C12.019347,16.4350207 12.1829034,16.2489228 12.3409622,16.0675793 C12.4172427,15.9826807 12.4921488,15.897782 12.5622444,15.811525 C13.0611601,15.194142 13.4700512,14.5034066 13.8645107,13.8350844 L13.9078051,13.7651279 C14.0315032,13.5545792 14.1558885,13.3447098 14.2816483,13.1355195 C14.5647796,12.6594078 14.8575318,12.1663165 15.1406631,11.6779794 C15.2925369,11.4117372 15.4409746,11.1441367 15.5900996,10.8751778 L15.9124019,10.3019421 L15.4492212,10.3019421 C14.9042622,10.3019421 14.3462462,10.2720577 13.7394382,10.2095723 C13.0515392,10.1389366 12.4942104,10.0581131 11.9829248,9.9528388 L11.853729,9.92567123 L11.7527089,10.0085323 C11.6695562,10.0784888 11.5809059,10.1443702 11.4915684,10.2095723 C11.389861,10.2856415 11.2819688,10.3651067 11.1775126,10.4527221 C10.9335524,10.657158 10.692341,10.8711026 10.4607507,11.0775761 C10.3446119,11.1808129 10.2284731,11.2833705 10.1116471,11.3852489 C8.92345785,12.4278043 7.91806698,13.7345644 7.12433734,15.2708904 C7.02812769,15.4549507 6.93466688,15.6410485 6.83914444,15.8251088 C6.50515951,16.4805264 6.15880476,17.1583572 5.78152547,17.800191 C5.69974727,17.9380664 5.62209234,18.0773002 5.54512461,18.2185716 C5.41799043,18.4447416 5.28948182,18.6797411 5.1486034,18.8936857 C5.1252382,18.9303619 5.10118579,18.9643213 5.07713337,18.9982808 L4.76651364,19.429566 L5.3870659,19.4234533 C5.42486255,19.4234533 5.45991035,19.4241324 5.49701979,19.4248116 C5.75541143,19.4309243 6.01311585,19.4363578 6.27150749,19.440433 C6.4467465,19.4431497 6.6212983,19.4458665 6.79722452,19.4499416 C6.96971469,19.454696 7.14151764,19.4628462 7.31263338,19.4709965 C7.47206652,19.4777884 7.63081244,19.4845803 7.79024558,19.4886554 L7.8321655,19.490693 L7.87202379,19.479826 C7.90432274,19.4737133 7.93593448,19.4689589 7.96823344,19.4689589 Z M35.1543325,14.6711663 C35.3749274,14.9761223 35.5494792,15.334055 35.7192206,15.6797623 L35.7398369,15.721872 C36.048395,16.3528388 36.2435632,17.0510453 36.4304848,17.728197 C36.6098471,18.367314 36.78165,19.0641622 36.8304421,19.8200998 C36.8428119,19.9960098 36.8489968,20.172599 36.8565561,20.348509 L37.4001406,20.3743182 C37.5217771,19.4526584 37.501848,18.5785419 37.3376044,17.7770986 C37.2510157,17.347851 37.1128861,16.9056988 36.9019121,16.3834023 C36.7204882,15.937175 36.5150118,15.4291415 36.2401271,14.9768014 C36.116429,14.7730447 35.9796738,14.5645336 35.8174919,14.411716 L35.8030604,14.425979 C35.8552885,14.4952563 35.8573501,14.5842301 35.8573501,14.5855885 L35.5865887,14.8545474 C35.5742189,14.8545474 35.5625363,14.8525098 35.5515409,14.8518306 L35.7377753,14.4877852 L35.4244067,14.7859493 L35.4161602,14.7180304 L35.3804251,14.7879868 L35.4147857,14.7159928 L35.4140985,14.7058049 L35.5446688,14.451109 L35.5783421,14.3811525 L35.5824654,14.3797941 L35.6209493,14.3030457 L35.6285086,14.3057625 L35.5934608,14.372323 L35.6333191,14.347193 C35.7020403,14.347193 35.7480835,14.3696063 35.7817568,14.4015282 L35.7893162,14.386586 L35.8058093,14.4001698 L35.7721359,14.3682479 L35.7315904,14.3492306 C35.675239,14.3213838 35.6319447,14.3050833 35.6003329,14.2935371 L35.5577258,14.275199 L35.5288629,14.2663695 C35.4876302,14.2561817 35.4470847,14.250069 35.4065392,14.2459938 L34.7962951,14.1767165 L35.1543325,14.6711663 Z M31.6543627,11.4816937 C31.5698357,11.4816937 31.4887447,11.4844105 31.4145258,11.4884856 C30.8056562,11.5217659 30.178919,11.6338321 29.6002866,11.8124589 C28.5577863,12.1343946 27.7214496,12.7361562 27.0431715,13.65442 C26.6727644,14.1543033 26.4171216,14.598493 26.2391337,15.0521914 C26.0288469,15.585355 25.9106465,16.1334607 25.815124,16.6455694 L25.7883228,16.791595 C25.5904058,17.8531678 25.4027969,18.8570094 24.9677919,19.8119495 C24.7018409,20.3960522 24.3912212,20.901369 24.0476153,21.3129577 L23.7019477,21.7272631 L24.244845,21.7537515 C24.2833289,21.7564682 24.3211256,21.759185 24.3609838,21.7619017 C24.546531,21.7768439 24.7389503,21.7992571 24.9238103,21.8209912 C25.1560879,21.8488379 25.3972992,21.8780431 25.6378234,21.8909477 C25.7161655,21.8963812 25.7945077,21.8984188 25.8721626,21.8984188 C26.4885916,21.8984188 27.1496894,21.7632601 27.8348395,21.4963387 C28.5619096,21.2131168 29.3006623,20.8517882 30.0284196,20.4225406 C30.3885186,20.2106336 30.7128826,19.982426 30.9939522,19.7433514 C31.158883,19.6014008 31.3169417,19.4506208 31.4688155,19.3066327 C31.5334135,19.2448265 31.5959497,19.1843786 31.6591732,19.1252892 L31.7333921,19.0560119 L31.7608806,18.7707524 C31.7808097,18.5765043 31.7973028,18.3808978 31.8144831,18.1852913 C31.8502181,17.7804945 31.8859531,17.3627932 31.9443661,16.960034 C32.0178978,16.4560756 32.2096299,15.9949061 32.5642312,15.4671761 L32.5910324,15.4291415 C32.8714148,15.0114401 33.1627926,14.5787966 33.5325126,14.2568609 C33.5895512,14.2059217 33.6555235,14.1549825 33.7324912,14.099289 L34.0231818,13.8894195 L33.7400506,13.6693622 L33.6431537,13.5980473 L33.5785558,13.5518625 C33.5022753,13.4995649 33.4253076,13.4459089 33.3483398,13.3888571 L33.1552333,13.2455481 L32.9882408,13.4180622 C32.9504442,13.4574552 32.8995905,13.4846227 32.836367,13.4968481 L32.7580249,13.5145071 L32.7167922,13.5545792 C32.6741851,13.5844635 32.6336396,13.6170646 32.5930941,13.6489865 C32.482453,13.7393187 32.3793712,13.8344052 32.2927825,13.9186246 C32.1086097,14.0952138 31.9045078,14.2419187 31.6852873,14.3954155 L31.6090068,14.4497506 C31.0125069,14.8776398 30.4895387,15.456309 30.0586569,15.9663801 C29.5473713,16.5708585 29.1233617,17.2480102 28.7405847,17.8891648 C28.663617,18.0175316 28.5873364,18.1506527 28.5138048,18.2824154 C28.4120974,18.4603629 28.3062668,18.6457816 28.1976874,18.8203332 C28.1578291,18.8828186 28.1131603,18.945304 28.0657427,19.009827 C28.0183251,19.07435 27.9715947,19.1375146 27.9276131,19.2047543 C27.8430861,19.3351587 27.8052894,19.4275284 27.8052894,19.6251725 C27.8046022,19.7603311 27.6266143,19.8798684 27.4877976,19.8798684 L27.4671812,19.8798684 C27.268577,19.8581344 27.197107,19.6638862 27.1984814,19.5029184 C27.1984814,19.1850578 27.3764692,18.9133822 27.609434,18.5873713 C27.7757393,18.3537302 27.9166177,18.1037886 28.0526857,17.8619972 C28.1138475,17.7540062 28.1750094,17.6453359 28.2389201,17.538024 C28.6966031,16.766465 29.1041197,16.1341399 29.6002866,15.5547915 C30.110885,14.9605009 30.6695882,14.3492306 31.2970126,13.9097952 C31.5464705,13.7352436 31.7808097,13.5450706 32.0563816,13.2910538 C32.1738949,13.1837419 32.3285175,13.0485833 32.4975716,12.9609678 L32.7236643,12.8434681 L32.6212697,12.6125438 C32.5738521,12.5099862 32.5484253,12.4074286 32.5374299,12.2987584 C32.5257473,12.1744667 32.540866,12.0576462 32.580037,11.9415048 L32.6563175,11.7166932 L32.4384714,11.6148148 C32.3986131,11.5951183 32.3587548,11.5774594 32.3216454,11.5645548 C32.1670227,11.5095405 31.9402428,11.4816937 31.6543627,11.4816937 Z M6.10795108,14.8205879 C5.91278293,14.9516714 5.71349151,15.0949804 5.51694893,15.2457604 C4.90258158,15.7177969 4.44352409,16.2360183 4.11434964,16.8337048 C4.05937269,16.9335456 4.00645738,17.032028 3.95216765,17.1311896 C3.83121837,17.3573597 3.70614582,17.5896424 3.5707651,17.8076621 C3.47386823,17.9598005 3.37490973,18.1119389 3.2738896,18.2640773 C3.16805898,18.4223283 3.06222836,18.582617 2.96120823,18.7456224 C2.78322037,19.0308819 2.62172559,19.3263292 2.4650413,19.6136262 C2.24719516,20.0136687 2.02178969,20.4259365 1.75927478,20.7960947 C1.67680936,20.9108776 1.5915951,21.0249814 1.50569362,21.1390852 C1.3936781,21.2898652 1.27547767,21.4440412 1.1668982,21.6063674 L0.889264633,22.0084474 L1.3819955,22.0274647 C1.42528984,22.0288231 1.46720976,22.0308607 1.50775526,22.0328982 C1.6671884,22.0417277 1.82730875,22.0559907 1.98468025,22.0695744 C2.22795323,22.0906293 2.48084717,22.1123634 2.73374112,22.1171177 C2.785282,22.1184761 2.83819731,22.1191553 2.89042541,22.1191553 C3.66903639,22.1191553 4.37342849,21.9833174 5.04414721,21.7048498 C5.69974727,21.4338533 6.32648444,21.1404436 6.78279308,20.5644911 L7.18275035,20.0863419 L6.53264798,20.082946 C6.46942449,20.082946 6.21584334,20.0843044 6.15330706,20.0843044 C6.08183703,20.0843044 6.00967979,20.0836252 5.93889698,20.0815876 C5.84612338,20.07955 5.75472421,20.0754749 5.66607389,20.0707206 C5.52175941,20.0632495 5.37607051,20.0557784 5.22625834,20.0557784 C5.1486034,20.0557784 5.06819962,20.0571368 4.98710863,20.0632495 C4.90464321,20.0693622 4.82149058,20.0734373 4.73902517,20.0734373 C4.4730742,20.0734373 4.29714798,20.0265733 4.15214628,19.917903 C4.01401671,19.8160246 4.0250121,19.6428314 4.0600599,19.5171814 C4.13015551,19.2556935 4.29714798,19.0261276 4.47444862,18.7822986 C4.55004192,18.6783827 4.62975849,18.5703916 4.70122852,18.4576462 C4.88746292,18.1676324 5.05720423,17.8633556 5.22076064,17.5685875 C5.29223067,17.4408999 5.36438791,17.3125332 5.43585794,17.186204 C5.72242526,16.6863207 5.98768902,16.1694577 6.24470623,15.6709328 C6.33129492,15.5031731 6.41788361,15.3360925 6.50378508,15.1683328 L6.10795108,14.8205879 Z M19.0021062,19.0003184 C18.8811569,19.6210973 18.6804911,20.2405179 18.4062936,20.8429587 C18.2434244,21.1961371 18.051005,21.5601825 17.8338461,21.920832 L17.8029216,21.9751671 C17.6331803,22.258389 17.4565668,22.552478 17.24628,22.7813647 C17.1906159,22.843171 17.1315157,22.9015812 17.0737899,22.9620291 L17.0284339,23.0054972 L16.814711,23.2112915 L17.022249,23.4374615 L17.0366804,23.4517245 L17.0566096,23.468025 C17.1280796,23.5298313 17.2132939,23.6011461 17.3081291,23.6704234 C17.6689153,23.9305529 18.0791807,24.1017086 18.4757019,24.2674308 C18.6949225,24.3598005 18.9038349,24.4467367 19.1010647,24.5479359 C19.8253859,24.9140189 20.4926686,25.1877321 21.1448326,25.3867346 C21.8018071,25.5884538 22.5041375,25.6964449 23.2930567,25.7181789 C23.4621108,25.7236124 23.6318521,25.7310835 23.8022806,25.739913 C24.0153163,25.7501008 24.2345369,25.7602887 24.4510086,25.7657222 L24.4860564,25.7657222 C24.7169596,25.7657222 24.9375545,25.7270084 25.1533391,25.6910114 C25.2591697,25.6726732 25.3663747,25.6543351 25.474267,25.6421097 C25.5745999,25.6298843 25.6783689,25.6244508 25.7814506,25.6169797 C26.0164771,25.6006792 26.2576884,25.5836995 26.5002742,25.5117054 C26.665205,25.4621246 26.8266998,25.39896 26.9840713,25.3371538 C27.1593103,25.2685557 27.3235539,25.2053911 27.4898592,25.1578478 C28.1399616,24.9744667 28.7268404,24.6206091 29.2937902,24.2782978 L29.4126778,24.2069829 C29.6044099,24.0915207 29.7487244,23.9468534 29.8882284,23.8076197 C29.9569496,23.7397007 30.0194858,23.6765361 30.0875198,23.6174467 C30.1459328,23.5665075 30.2098435,23.5189642 30.2799391,23.4673459 C30.3259823,23.4333864 30.3740871,23.3967102 30.4201303,23.3613923 L30.5410796,23.2629099 L30.5507006,23.1515229 C30.5527622,23.1216385 30.5603215,23.0951502 30.5685681,23.0740953 C30.6352276,22.9029396 30.795348,22.8846015 30.8620075,22.8846015 L31.0949723,22.8947893 L31.155447,22.6917118 C31.3299988,22.1048923 31.4598818,21.4671336 31.5622764,20.6833493 L31.6440546,20.0415154 L31.1252096,20.434766 C30.9568428,20.5617744 30.7678595,20.6908203 30.5458901,20.8293749 C30.0373534,21.1472355 29.4745269,21.4453996 28.7206555,21.7985779 C28.0581834,22.1069299 27.4644324,22.3127242 26.9016059,22.4261488 C26.5868629,22.4886342 26.256314,22.5198769 25.8948406,22.5198769 C25.6048372,22.5198769 25.2887198,22.5001804 24.929308,22.4580707 C24.6984048,22.4309031 24.4640656,22.4173193 24.2379729,22.4050939 C23.7335595,22.3758888 23.2593833,22.3487212 22.8209422,22.1918285 C22.729543,22.1585482 22.6553241,22.0471612 22.6395183,21.9221904 C22.6326462,21.8692136 22.6285229,21.7388093 22.7350407,21.6661361 C23.858632,20.9142736 24.3891595,19.7039584 24.6894711,18.8597262 C24.7389503,18.7157381 24.7870552,18.5676748 24.8337856,18.4039902 L24.9801617,17.8837313 L24.4702505,18.080017 C24.1548203,18.2036294 23.8112144,18.3238459 23.4456177,18.381577 C23.1982215,18.42097 22.9508252,18.4420248 22.6889975,18.4657965 C22.5343749,18.4787011 22.3811266,18.492964 22.2258168,18.5092646 C21.9584914,18.5391489 21.6952893,18.5751459 21.4279639,18.6097846 C21.2444783,18.6342354 21.06168,18.6593654 20.87682,18.6804202 C20.3201784,18.7490184 19.8343197,18.7809403 19.3924425,18.7809403 C19.3512098,18.7809403 19.3120387,18.7809403 19.2714932,18.7802611 L19.0419645,18.7775443 L19.0021062,19.0003184 Z M15.8945344,18.4325162 C15.7302908,18.5418656 15.5337482,18.618614 15.312466,18.7014751 C15.1990761,18.744264 15.0863733,18.783657 14.9736706,18.8257667 C14.6754207,18.9330786 14.3675498,19.0437865 14.0644894,19.1830203 C13.3807136,19.4988433 12.7649718,19.917903 12.168472,20.323379 L11.9485642,20.4728006 C11.227679,20.962496 10.5129788,21.4780006 9.90823237,21.9194736 C9.15298659,22.4709753 8.50838192,22.915165 7.81842127,23.2873607 L7.6692963,23.367505 C7.36142542,23.5352648 7.04324635,23.708458 6.72506728,23.8415791 L6.17735947,24.0595989 L6.65291004,24.3373872 C6.80203501,24.4236443 6.91611217,24.4895256 7.02744048,24.5479359 C7.24047614,24.6606813 7.45145016,24.7761435 7.66242419,24.8922848 C7.90844601,25.0267643 8.16340159,25.1659981 8.41629554,25.29844 C9.31997906,25.7684389 10.3075024,25.8968057 11.2641013,26.0217765 C12.0317168,26.1202589 12.8536222,26.2126287 13.6665937,26.2126287 C13.8390839,26.2126287 14.0101996,26.2078743 14.1744433,26.1990449 C14.4926223,26.1847819 14.809427,26.1406346 15.1159234,26.0998833 C15.3062811,26.0754325 15.5048853,26.0496233 15.698679,26.0292476 C16.2072158,25.9796668 16.6518418,25.8934097 17.0593584,25.7657222 C17.24628,25.7073119 17.4345761,25.6434681 17.6208105,25.5830203 C17.8420927,25.5110262 18.0647493,25.4376738 18.2880931,25.3697549 L18.8151846,25.2067494 L18.3375724,24.8739467 L18.303899,24.8603629 L18.1678311,24.8012735 C17.5919476,24.5547278 17.048363,24.3217659 16.6195429,23.9061021 C16.337786,23.6323888 16.2147751,23.4001061 16.2333298,23.1732569 C16.2560078,22.9090523 16.4669818,22.6985037 16.6917001,22.4757296 L16.7157525,22.4526372 C16.7212502,22.4451661 16.7645445,22.3996604 16.7645445,22.3996604 L16.765919,22.4003396 C16.7913458,22.3711345 16.8078389,22.3521172 16.8222703,22.3310623 L16.8360146,22.3134034 C16.8841194,22.247522 16.9322242,22.1809615 16.9782674,22.1144009 C17.0923446,21.9479996 17.1954264,21.7924652 17.2895744,21.6403269 C17.4758088,21.342842 17.6489861,21.0175103 17.8091065,20.6738406 C18.0716214,20.1067176 18.2571686,19.5640454 18.3746818,19.0145813 L18.4365309,18.7252467 L17.9389895,18.6661573 C17.3308071,18.5948424 16.7026955,18.5201316 16.104134,18.3944816 L15.9907441,18.3700308 L15.8945344,18.431837 L15.8945344,18.4325162 Z M33.7970891,14.8654144 C33.5847407,15.0807174 33.4191227,15.3204712 33.2425092,15.5738088 L33.1937172,15.6437653 C32.9373872,16.0132442 32.6460094,16.4316247 32.5662928,16.9641091 C32.472832,17.588284 32.4137318,18.2301178 32.3615037,18.8345962 L32.356006,18.9113446 L32.3924282,18.9819803 C32.4219783,19.0376738 32.4797041,19.1836995 32.369063,19.3174997 L32.3154605,19.3827019 L32.3085884,19.4648838 C32.2817871,19.7630479 32.252237,20.0836252 32.2151276,20.4062401 C32.0735619,21.6511939 31.8179191,22.7548764 31.434455,23.7811313 C31.2640264,24.2402632 31.0626734,24.7238459 30.785727,25.3466624 C30.6984511,25.5436273 30.6118624,25.7208957 30.5225249,25.8879762 L30.2806263,26.3382787 L30.8097794,26.2805476 L30.8297086,26.2764725 C30.9231694,26.256776 31.0070092,26.2323252 31.0881002,26.2099119 C31.2214193,26.1705189 31.3375581,26.138597 31.4914935,26.1290884 C31.5148587,26.12773 31.5437216,26.1263716 31.5712101,26.1256925 C31.6523011,26.1229757 31.7354537,26.1216173 31.8096726,26.1053168 C31.9134416,26.0801868 32.0103384,26.0387562 32.0955527,26.0027592 C32.1436575,25.9817043 32.193824,25.9592911 32.2419288,25.9436697 C32.3312664,25.9144646 32.4219783,25.8866178 32.5106286,25.8587711 C32.6879293,25.804436 32.8714148,25.7473841 33.0521515,25.6815027 C33.6390304,25.4641622 34.1269508,25.2081078 34.5488989,24.8956808 C34.6774075,24.7999151 34.8134754,24.7082246 34.9426712,24.6185716 C35.2745945,24.3910432 35.6195749,24.1540062 35.9150759,23.8347872 C36.2050793,23.5210018 36.4607221,23.158994 36.6765066,22.7575931 L36.8338781,22.4635042 L36.5095141,22.3718136 C36.4387313,22.351438 36.2738005,22.2787647 36.2930424,22.0471612 C36.3136588,21.7917861 36.3019762,21.5445612 36.2875447,21.3061658 C36.2827342,21.2267006 36.2792982,21.1451979 36.2758621,21.063016 L36.2662412,20.8069617 C36.2573074,20.535286 36.2476864,20.2534225 36.2291317,19.9742757 C36.1885862,19.3501008 36.0724474,18.7177757 35.8532269,17.9231243 C35.7405241,17.5183275 35.6278214,17.1223602 35.4876302,16.7263929 L34.9577899,16.8289504 C34.9921505,17.5699459 34.9653492,18.331317 34.938548,18.9867346 C34.9213677,19.4112278 34.8169115,19.8241749 34.7076448,20.2595352 C34.6554167,20.470763 34.6018142,20.6867452 34.5578326,20.9047649 C34.4499404,21.4460787 34.3372376,22.0064098 33.9455269,22.4023772 C33.9042942,22.4444869 33.8465684,22.4533164 33.8046485,22.4533164 C33.7050028,22.4533164 33.5950489,22.4044147 33.5407591,22.337175 C33.4115633,22.175528 33.498152,21.9833174 33.6129164,21.8678552 L33.5977977,21.8542715 C33.569622,21.8766847 33.5125835,21.9126817 33.4294308,21.9126817 L33.2129591,21.806049 L33.1682903,21.5730871 L33.3998807,21.6613817 L33.2246417,21.493622 C33.2500685,21.4752839 33.3016094,21.4481163 33.3744539,21.4481163 L33.6142908,21.590746 C33.6445281,21.6477979 33.6500258,21.7062082 33.6438409,21.7544306 L33.6761399,21.7673352 C33.6967562,21.7238671 33.7180598,21.6797198 33.7352401,21.6362517 C33.7860938,21.5119601 33.8238904,21.3856309 33.8561894,21.2742439 L33.8706208,21.2267006 C33.8706208,21.2267006 33.9132279,21.0290566 33.9249105,20.9706463 L33.9537734,20.8246206 C33.965456,20.7628144 33.9778258,20.7016874 33.9901957,20.6412395 C34.0266179,20.4748382 34.0685378,20.30572 34.1111449,20.1420354 C34.1523776,19.9837844 34.1908615,19.8255333 34.2259093,19.6652446 C34.3131852,19.2631646 34.3317399,18.8665181 34.3420481,18.5262443 C34.3661005,17.7662316 34.3592284,17.0510453 34.322119,16.3419718 C34.3131852,16.1782872 34.3104364,16.0159609 34.3070003,15.8522763 C34.3042515,15.6654993 34.3008154,15.470572 34.2884456,15.2776823 C34.2829479,15.1914252 34.2740141,15.1058474 34.2643932,15.0223071 L34.1970464,14.4606176 L33.7970891,14.8654144 Z M10.6689758,19.9742757 C10.5741406,19.9919346 10.477931,20.0068768 10.3824085,20.0197814 C9.77491328,20.1012841 9.14130399,20.1073968 8.5303727,20.1128303 L8.22112738,20.1155471 L8.15515505,20.158336 C8.12972821,20.1732781 8.10017811,20.1861827 8.06856636,20.1929746 L7.95929969,20.2187838 L7.88920408,20.3267749 C7.8204829,20.4252573 7.73183258,20.510156 7.61775542,20.6059217 C7.45419901,20.7431179 7.32500319,20.8945771 7.20130506,21.0385652 C7.09616166,21.1594609 6.99720316,21.2742439 6.87900273,21.3815558 C6.31961232,21.895702 5.49908142,22.2189961 4.9328189,22.4173193 C4.66343187,22.5117266 4.39267042,22.5823623 4.10610309,22.6366974 L4.02707374,22.6516396 L3.96934794,22.7052956 C3.92330475,22.7474053 3.86489175,22.7759312 3.80166826,22.7888358 L3.73157266,22.8024196 L3.63536301,22.8825639 L3.60306405,22.9083731 L3.56458019,22.9531996 C3.54533826,22.9803672 3.52884518,23.0000637 3.51303931,23.0197602 C3.48898689,23.0482861 3.4663089,23.0774912 3.4429437,23.1066964 C3.33986193,23.2398175 3.24777555,23.3776929 3.15843801,23.5128515 L3.07665981,23.6391807 C2.96670592,23.8008278 2.84163337,23.9550037 2.71037592,24.1166507 C2.65058849,24.1879656 2.59148827,24.2619972 2.53307527,24.3346705 C2.50283795,24.3740635 2.47260063,24.4120981 2.44305052,24.4521702 C2.39082243,24.5214475 2.33721991,24.5907248 2.28224296,24.6579646 L2.06096076,24.9146981 L2.36195953,25.0702324 C2.38257589,25.0817786 2.40594109,25.0926457 2.43136792,25.108267 C2.77840989,25.2964024 3.07322375,25.434957 3.36322713,25.5443065 C4.08205068,25.815303 4.8338604,26.0115887 5.40836946,26.1535392 C6.00143325,26.2995649 6.49828739,26.3661254 6.97108911,26.3661254 C7.11402917,26.3661254 7.25765643,26.3600127 7.39784764,26.3477873 L7.42533611,26.3450706 L7.44938853,26.3362411 C7.58133319,26.2988857 7.71259065,26.2615303 7.84522253,26.2248541 L8.47470854,26.0496233 L7.70571853,25.6190173 C7.49955499,25.5021968 7.28858096,25.3901305 7.08379185,25.2828186 C6.85769916,25.1626021 6.62542157,25.0403481 6.40276495,24.9126605 C6.28868779,24.8461 6.14712216,24.7625597 6.01998797,24.6885281 C5.9224039,24.630797 5.835128,24.5784994 5.77327893,24.5431816 L5.76090912,24.5357105 C5.54924788,24.4134564 5.38362984,24.3190491 5.24412584,24.1512894 C5.18708726,24.0833705 5.16784533,23.9780961 5.19327217,23.8762178 C5.21869901,23.7790937 5.27848643,23.7016661 5.35545416,23.6711026 C5.52588268,23.5997878 5.69906006,23.5420567 5.88323282,23.4809296 C6.12719301,23.3980686 6.37939975,23.3138491 6.62404715,23.1997453 C6.97452517,23.0367399 7.34424512,22.8445293 7.78887116,22.5925501 C8.45271776,22.2149209 9.07327002,21.7605434 9.67251872,21.3211079 L9.73711663,21.2735647 C10.0992772,21.0080017 10.4724333,20.7417595 10.8758266,20.4605752 L10.6689758,19.9742757 Z M22.4065535,26.5006049 C22.2512436,26.9312109 21.9983497,27.3468747 21.7550767,27.7496339 C21.6691752,27.8915844 21.5818993,28.0328558 21.5014955,28.1748063 C21.3372519,28.4593866 21.1413965,28.7283455 20.9173655,28.9769288 C20.8747584,29.0237928 20.8245919,29.0740528 20.7620556,29.1345007 L20.4012694,29.4754537 L20.8878154,29.5895575 C21.168885,29.6567972 21.4045987,29.706378 21.6306913,29.7484877 C22.3103438,29.8754961 22.9996173,29.9427359 23.6098613,30.0025045 C23.787162,30.0194842 23.9630882,30.0378223 24.1383272,30.0520853 C24.5444694,30.0901199 24.9636686,30.1288337 25.3753085,30.1784145 C25.4495273,30.1865648 25.5258079,30.1960734 25.6000267,30.2062613 C25.824745,30.2354664 26.0563354,30.2660299 26.2941107,30.2748594 C26.3181631,30.2755386 26.3401538,30.2755386 26.3648935,30.2755386 C26.5930478,30.2755386 26.8074579,30.2361456 27.0149958,30.1967526 L27.3654739,30.1315505 C27.8011661,30.0507269 28.2540387,29.9658283 28.6979775,29.9026637 L28.7570778,29.8945134 C29.2319411,29.8259153 29.6813776,29.7634299 30.1177571,29.5148467 C30.2414553,29.4455694 30.3610301,29.3695002 30.4757945,29.2961477 C30.5891844,29.2227953 30.6957023,29.153518 30.8063434,29.0903534 C30.9279799,29.0217553 31.0503036,28.9558739 31.1746889,28.8899926 C31.2777707,28.8342991 31.3822269,28.7792847 31.4846214,28.7215536 C31.9182521,28.4811207 32.3319536,28.1571474 32.7896366,27.7054866 C33.1194983,27.3815133 33.4899055,27.0133928 33.8101462,26.6201422 L33.8238904,26.6011249 L33.5167067,26.1725565 C33.4562321,26.1976865 33.3936958,26.2214581 33.3318468,26.2445506 C33.1689776,26.3049984 33.0047339,26.3552584 32.8315566,26.407556 C32.7099201,26.4455906 32.5875964,26.4815876 32.4687087,26.5236973 C32.3944898,26.5481481 32.3195838,26.5773533 32.2446777,26.6079168 C32.0983016,26.6649687 31.9608592,26.7193038 31.8254785,26.7356044 C31.7766864,26.7430755 31.7251456,26.7444338 31.6763535,26.7471506 C31.600073,26.7498673 31.5114227,26.7546217 31.4200235,26.7695638 C31.3636721,26.7804309 31.294951,26.8014857 31.2159216,26.8245782 C31.1595702,26.8422371 31.1011572,26.8612544 31.0537396,26.8714422 C31.0042604,26.8829884 30.9534067,26.8931763 30.9032402,26.9033641 C30.8427656,26.9155895 30.7843526,26.9271357 30.7252524,26.9420779 C30.7218163,26.9420779 30.6297299,26.9699247 30.6297299,26.9699247 L30.6029287,26.9773957 L30.5775018,26.988942 C30.5623832,26.9970922 30.5238993,27.0147511 30.5060318,27.0229014 C30.5129039,27.0208638 30.5465773,27.0093176 30.5946821,27.0093176 L30.853761,27.1967739 C30.8922448,27.3197071 30.8338318,27.4385652 30.759613,27.4901836 L30.4565526,27.0412395 C30.3809593,27.0914995 30.2984938,27.1186671 30.224275,27.1186671 C30.1356246,27.1186671 30.0662163,27.0826701 30.0084905,27.0113552 C30.00368,27.0052425 29.9988695,26.9977714 29.9947462,26.988942 L29.9115936,26.8531041 C29.9115936,26.8531041 29.750786,26.8578584 29.7494116,26.8578584 C29.7033684,26.8578584 29.6690078,26.8531041 29.6415194,26.8422371 C29.455285,26.7668471 29.4367302,26.5590152 29.4807118,26.4034808 C29.517134,26.2669638 29.6160925,26.138597 29.7212359,26.0041176 C29.792706,25.9103895 29.8662376,25.8173405 29.9287739,25.7093495 C30.0696523,25.470954 30.1768574,25.2189748 30.2820008,24.9751459 L30.6372893,24.1465351 L29.8792946,24.6457391 C29.8071374,24.691924 29.734293,24.7360713 29.6614485,24.7788602 L29.6023483,24.8155365 C29.1563478,25.0838162 28.783879,25.287573 28.4320266,25.4607662 C28.2244886,25.5626446 28.0066425,25.6319219 27.7764265,25.7059535 C27.6149317,25.7575719 27.4472521,25.8105487 27.2802596,25.8771092 L27.1792395,25.9171814 C26.8741174,26.0407938 26.5834268,26.1576143 26.2783048,26.2078743 C26.0927576,26.2391171 25.9051488,26.2540592 25.7065446,26.2710389 C25.5196229,26.2866603 25.3278909,26.30364 25.1347843,26.3328452 C24.9231231,26.3647671 24.7025281,26.3803884 24.4379516,26.3803884 C24.2592765,26.3803884 24.0812886,26.3729173 23.9149834,26.3654462 C23.7486781,26.3579752 23.5830601,26.3552584 23.4153804,26.3511833 C23.1734818,26.346429 22.9253984,26.3389579 22.684187,26.3233365 L22.4773363,26.3077152 L22.4065535,26.5006049 Z M8.95850565,26.7478298 C8.85817273,26.7627719 8.76471192,26.7858644 8.67331275,26.8055609 C8.58466243,26.8252573 8.5015098,26.845633 8.42110602,26.8551417 C8.33039406,26.8680463 8.24036931,26.8782341 8.14965736,26.8904595 C8.04520116,26.9033641 7.94005776,26.9149103 7.83628877,26.9284941 C7.73114537,26.9427571 7.62668917,26.9563409 7.52223298,26.9692455 L7.49749335,26.9719622 L7.47618979,26.9801125 C7.35524051,27.014072 7.23566566,27.0507482 7.11746522,27.089462 C6.85220147,27.175719 6.5807528,27.2219039 6.29487269,27.272843 C6.08321146,27.3088401 5.86330368,27.3475539 5.64202148,27.4039266 C5.52450826,27.4331317 5.41661601,27.4732039 5.31215981,27.5112385 C5.27436316,27.5255014 5.23725373,27.5390852 5.20014429,27.5519898 L4.7582671,27.7075241 L5.1719686,28.0607025 C5.30116442,28.170052 5.4337963,28.2760055 5.56505376,28.3833174 C5.74372883,28.5273055 5.92790159,28.6787647 6.10382781,28.8281864 C6.64947399,29.2988645 7.24047614,29.7858431 7.9366217,30.1220418 C8.49669932,30.3910007 9.20933796,30.6456967 9.89105207,30.8209275 C10.0814097,30.86915 10.2951326,30.9044678 10.5074811,30.9228059 L10.6511083,30.4106972 C10.2724546,30.2286745 9.91991497,30.0120132 9.54607174,29.7838056 C9.3570885,29.666985 9.15848429,29.5454102 8.95919286,29.4306272 C8.88359956,29.3878383 8.80525742,29.3470869 8.72622806,29.3056564 C8.55717396,29.2193993 8.39636639,29.1378966 8.28091481,29.0210761 C8.07887454,28.8193569 8.06925357,28.5245888 8.25548797,28.2855142 C8.44859449,28.0362517 8.76058865,27.8603417 9.01073375,27.7340125 C9.08701426,27.6952987 9.16329477,27.6599809 9.24301134,27.6233047 C9.30348598,27.5940995 9.36396062,27.5642152 9.42512247,27.5350101 C9.52476818,27.4874668 9.66358496,27.4147936 9.76391789,27.3475539 C9.93503363,27.2307333 10.1088982,27.1186671 10.2841372,27.0052425 L10.8881964,26.6147087 L10.1961741,26.5026425 C10.1247041,26.4910963 10.0518596,26.4788708 9.98107682,26.4659663 L9.83607513,26.4408363 L9.7357422,26.544073 C9.62784995,26.6581768 9.51033673,26.723379 9.37701764,26.745113 C9.34678032,26.7491882 9.31310694,26.7519049 9.27187423,26.7519049 C9.22995431,26.7519049 9.18872161,26.7498673 9.1474889,26.748509 L9.10144571,26.7471506 C9.09113753,26.7471506 9.01073375,26.748509 9.01073375,26.748509 L9.26843818,26.9841876 L9.06708512,27.2775974 L8.95850565,26.748509 L8.95850565,26.7478298 Z M11.8035625,26.7654887 C11.5795315,26.8340868 11.3754296,26.988942 11.1775126,27.1404011 C11.0902367,27.2076409 11.0063968,27.2701263 10.9287419,27.3224239 C10.8022949,27.4025682 10.6779096,27.4854293 10.5535243,27.5696487 C10.3562945,27.7000531 10.1542542,27.8365701 9.95152671,27.9574658 C9.80789944,28.044402 9.65465121,28.1170752 9.49384365,28.1945028 C9.38457697,28.2468004 9.27324866,28.2984188 9.16466919,28.3561498 L8.72416643,28.5897909 L9.23751364,28.873692 C9.37083273,28.9484028 9.50483904,29.027868 9.64915352,29.1161626 C9.7295573,29.1664226 9.81064829,29.2173618 9.89105207,29.2689802 C10.0662911,29.3783296 10.2463406,29.4931126 10.4339494,29.5977077 C10.9438606,29.8850048 11.5273034,30.1206834 12.2688049,30.3359864 C12.9099735,30.5227635 13.566948,30.6450175 14.1813154,30.7482543 C14.5675284,30.8141356 14.9585519,30.8990343 15.3392673,30.9812162 C15.6375172,31.0457391 15.9447009,31.1122997 16.253259,31.17071 C17.0023198,31.3126605 17.7177073,31.3418656 18.3203921,31.3520535 C18.4489007,31.3534119 18.5753477,31.3561286 18.7045435,31.3595246 C18.9505653,31.3663165 19.1972743,31.37175 19.4439834,31.37175 C19.8033952,31.37175 20.1023323,31.3588454 20.3827147,31.332357 C20.9895227,31.2759843 21.555098,31.1177332 22.0292742,30.96967 L21.9901031,30.4453359 C21.610075,30.3862464 21.2609714,30.3196859 20.9194271,30.2388624 C20.8493315,30.223241 20.782672,30.208978 20.7153252,30.1953942 C20.5366501,30.1580388 20.3696577,30.1234002 20.1744895,30.0432559 C19.945648,29.9508861 19.7882765,29.8123315 19.6968773,29.6221585 C19.653583,29.5318264 19.6700761,29.4007429 19.7367356,29.3076939 C19.8473767,29.1575931 19.9875679,29.0271888 20.1380673,28.8899926 C20.2212199,28.8132442 20.3071214,28.7337791 20.3888996,28.6488804 C20.6033097,28.4274647 20.8046628,28.1544306 21.0053286,27.8161944 C21.0596183,27.7238247 21.1173441,27.6307758 21.1743827,27.5350101 C21.3722997,27.2103576 21.577776,26.8755174 21.736522,26.518943 L21.8691538,26.2207789 L21.5489131,26.1474265 C21.1881269,26.0638862 20.808786,25.9504616 20.4198241,25.8132654 C20.2363386,25.7453465 20.0418576,25.6672397 19.8253859,25.5707949 L19.7532287,25.5381938 L19.6583935,25.5517776 C19.4213054,25.5653613 19.2584362,25.6482224 19.0687657,25.739913 L18.9849259,25.7813435 C18.82618,25.8580919 18.6536898,25.9069935 18.469517,25.9565743 C18.4090424,25.9728749 18.349255,25.991213 18.2880931,26.0068343 C18.0633749,26.0733949 17.8427799,26.1494641 17.6304314,26.2228165 C17.314314,26.3328452 17.0146896,26.4354027 16.7026955,26.5073968 C16.3487814,26.5902579 15.9941801,26.6316884 15.6148392,26.6744773 C15.4718991,26.6914571 15.3303335,26.7077576 15.1867062,26.7281333 C14.650681,26.7974106 14.1648223,26.8320492 13.7057648,26.8320492 L13.6549111,26.8320492 C13.1209476,26.8286533 12.5649932,26.798769 11.9561235,26.7376419 L11.8819047,26.7301709 L11.8035625,26.7654887 Z M18.7966299,32 C18.2145615,32 17.7479446,31.9870954 17.3259966,31.9578903 C16.6642116,31.9096678 15.996929,31.7656797 15.3509499,31.6250876 L15.1152362,31.57279 C14.8066781,31.5069086 14.4988072,31.4464608 14.2376667,31.39688 L14.1455804,31.3778627 L14.0624277,31.4206516 C13.8088466,31.54766 13.5209048,31.6033535 13.1278197,31.6040327 L13.1264453,31.6040327 C12.9869413,31.6040327 12.8611815,31.5965616 12.7271752,31.5904489 L12.6055387,31.5816194 C12.5223861,31.5782235 12.4392334,31.5748275 12.3560808,31.5734692 C12.3560808,31.5734692 12.2619328,31.5755067 12.249563,31.5761859 C12.1732825,31.5795819 12.097002,31.5816194 12.0200342,31.5829778 L11.9994179,31.5829778 C11.8695349,31.5829778 11.7389646,31.5748275 11.5994606,31.5653189 C11.5169952,31.5598854 11.4345298,31.5537727 11.3527516,31.5503767 C11.3149549,31.5483392 11.2771583,31.54766 11.2400488,31.54766 C11.1507113,31.54766 11.0627482,31.5517351 10.9740979,31.5558103 C10.8943813,31.5612438 10.8160392,31.5646397 10.7356354,31.5646397 C10.3982144,31.5646397 10.040177,31.5089462 9.57768349,31.3812586 C8.6877442,31.1381089 8.03420577,30.8902048 7.45900949,30.5791362 C6.78554192,30.2150907 6.21790497,29.7369415 5.61728185,29.2316247 L5.41249274,29.0584315 C5.30185163,28.9674201 5.18777448,28.8777672 5.07026126,28.7860766 C4.63319455,28.4444444 4.18169639,28.0912661 3.99202593,27.6192295 C3.94598274,27.5058049 3.9549165,27.3713255 4.01126786,27.3047649 C4.12534502,27.1716439 4.24079661,27.0935371 4.38717272,27.0534649 L5.33896107,26.7940146 L4.38717272,26.5338852 C3.83053116,26.3810676 3.3845307,26.2364003 2.98457343,26.0761116 C2.80521115,26.0041176 2.64921407,25.9328027 2.50627401,25.8587711 C2.44579937,25.8275284 2.38669916,25.7949273 2.32622452,25.7596095 C2.28842787,25.7392338 2.19977755,25.6910114 2.19977755,25.6910114 C2.1853461,25.6821819 2.08226433,25.6278468 2.06783288,25.6210549 C1.76477247,25.4566911 1.50088314,25.2970816 1.36000472,25.0097846 C1.30708941,24.9017935 1.35175818,24.7686724 1.40604791,24.6871697 C1.45896322,24.6083837 1.54349027,24.5289186 1.62595569,24.4521702 C1.67749657,24.4053062 1.72628861,24.3584421 1.76820853,24.3136156 C1.86647982,24.2090205 1.95031966,24.0955959 2.03072344,23.9842089 C2.07607942,23.9244402 2.12006098,23.8633132 2.16541696,23.8062613 C2.32553731,23.6045421 2.49665305,23.3912767 2.65402455,23.1576356 L2.92753485,22.7569139 L2.43892725,22.7378966 C2.24513352,22.7297464 2.04652931,22.7114083 1.8534228,22.6951077 C1.65894185,22.6794864 1.45965043,22.6611483 1.2596718,22.652998 C0.897511174,22.6373766 0.522293529,22.6210761 0.179374838,22.4920301 C0.10034548,22.462825 0.0453685357,22.4064523 0.0178800635,22.3269872 C-0.0171677386,22.2230712 1.25565285e-05,22.0947044 0.0632360426,21.996222 C0.0969094211,21.9432453 0.179374838,21.8692136 0.244659959,21.8114825 C0.31338114,21.7510347 0.373168567,21.6987371 0.417837334,21.641006 C0.484496879,21.5486363 0.541535459,21.454229 0.596512404,21.3625385 C0.641181171,21.289186 0.683101091,21.2178712 0.729144282,21.1533482 C0.820543452,21.023623 0.915378681,20.8959355 1.01090112,20.7696063 C1.17102147,20.5563409 1.33870115,20.334246 1.48507727,20.1006049 C1.68849196,19.7786692 1.87335194,19.4445081 2.05202701,19.1205349 C2.25406728,18.7544519 2.46297967,18.3775019 2.69250841,18.026361 L2.81758096,17.839584 C2.97563967,17.5984718 3.14125772,17.3512469 3.28763383,17.0904383 C3.35017011,16.9763345 3.41339359,16.8608723 3.47386823,16.7440518 C3.59825357,16.5117691 3.71439236,16.292391 3.85252194,16.0825215 C4.19063015,15.5656585 4.67442726,15.0841133 5.33071453,14.6100393 C5.64270869,14.3838693 5.96020054,14.174679 6.27356913,13.9899395 C6.40894985,13.909116 6.5628853,13.8181046 6.71407189,13.7481481 C6.75461739,13.7318476 6.80959434,13.7094344 6.8659457,13.6877003 C6.99033104,13.6421946 7.0576778,13.6157063 7.10853147,13.5810676 C7.17587823,13.5369203 7.24803547,13.5104319 7.31813107,13.5063568 L7.4535118,13.4961689 L7.52704346,13.3834235 C7.69953362,13.1232941 7.86927494,12.889653 8.04520116,12.6668789 C8.55511232,12.0223283 9.13924236,11.4117372 9.77972376,10.8541229 C9.910294,10.7400191 10.040177,10.6252361 10.1700601,10.509774 C10.3507968,10.3488061 10.5315335,10.1898758 10.715019,10.0323039 L11.0634354,9.73413987 L10.6311792,9.57656797 C9.89448813,9.30692985 9.09182474,8.93813011 8.73035133,8.24331954 C8.64170101,8.07080548 8.80182136,7.89353709 8.92208343,7.8235806 C9.13786793,7.69589303 9.3687711,7.59605221 9.61204408,7.49077788 C9.71375143,7.4459514 9.81614598,7.4018041 9.91647891,7.35494004 C10.2078567,7.22181895 10.5074811,7.05202165 10.8627696,6.82109732 C11.5025638,6.40475432 12.1011252,5.92660512 12.7093077,5.43079699 C13.6686554,4.65244614 14.7565117,3.76814178 15.9110275,3.04344689 C16.5927416,2.61623687 17.1803077,2.29973469 17.7603145,2.04775549 C18.2853443,1.81954791 18.8337393,1.61986628 19.3670157,1.42697655 L19.6590807,1.31898546 C20.5758212,0.985503555 21.5695295,0.815706251 22.6161531,0.815706251 C22.9611334,0.815706251 23.319858,0.83336517 23.683393,0.870041388 C24.3850363,0.941356256 25.046134,1.24563303 25.6282024,1.51595033 L25.7051701,1.55126817 C25.941571,1.65925926 26.1855312,1.77132548 26.37314,1.92685981 C26.4851555,2.02126711 26.5703698,2.11159928 26.6349677,2.20736496 L26.6665795,2.2549082 C26.6830725,2.2800382 26.7030017,2.30652658 26.7167459,2.33233577 L26.7243052,2.34591956 L26.7298029,2.35406983 L26.7682868,2.42063037 L26.8555627,2.45594821 C26.9462747,2.49398281 27.0129342,2.55714741 27.0438587,2.63865011 L27.106395,2.80029715 L27.2809468,2.81184336 C27.3427959,2.81523931 27.4067066,2.82067282 27.4678684,2.82542715 C27.8671385,2.8600658 28.2835888,2.95311472 28.7776941,3.11340337 L29.6875625,3.41088825 L29.1542862,2.71743606 C29.0189055,2.54152605 28.8807759,2.36765361 28.7426463,2.19513955 C28.6581193,2.08986522 28.5756538,1.98255333 28.4925012,1.87456224 C28.3186366,1.64907142 28.1385871,1.41407195 27.9441062,1.19537302 L27.9234898,1.17228059 L27.875385,1.12473734 C27.8554559,1.10639924 27.8334651,1.08738194 27.8128487,1.06700626 L27.7743649,1.03372599 C27.7015204,0.965807068 27.6273016,0.897208957 27.5585804,0.8252149 C27.4486265,0.71246949 27.3613506,0.587498673 27.291255,0.443510559 C27.2300931,0.315822986 27.2891933,0.19968163 27.317369,0.155534331 C27.3785309,0.0597686512 27.4768022,0 27.5757607,0 C27.5867561,0 27.596377,0 27.605998,0.00271675687 C27.7771137,0.0230924334 27.8870676,0.11274541 28.0671171,0.271675687 C28.0987289,0.298164067 28.1296534,0.326010825 28.1619523,0.353857583 C28.3227599,0.490374615 28.5055582,0.586140295 28.6821717,0.678510029 C28.7275277,0.701602462 28.7715092,0.725374085 28.8148036,0.749824897 C29.3597625,1.04798896 29.9315227,1.27347978 30.5623832,1.44123952 C30.714257,1.48063249 30.8640692,1.5179879 31.015943,1.5560225 C31.811047,1.75842089 32.563544,1.94859387 33.2830547,2.30041388 C34.2210988,2.75750822 34.9447329,3.32055609 35.4305916,3.9746153 C35.5206164,4.09483179 35.6127027,4.21504829 35.7041019,4.33798153 C36.1872118,4.97438183 36.6881892,5.63251618 36.9555146,6.36536135 C37.1328152,6.84826488 37.200162,7.36309031 37.248954,7.84803141 C37.2572006,7.93428844 37.3314195,8.62162793 37.3314195,8.62162793 L37.725879,8.28678765 C37.9382275,8.1068025 38.2179227,7.86433195 38.4838737,7.60488167 C38.61788,7.47515653 38.7443269,7.3386395 38.8666506,7.20687679 C38.9862255,7.07783084 39.1009899,6.95489759 39.2212519,6.83671867 C39.2947836,6.76608299 39.3696897,6.69884326 39.445283,6.63228271 C39.5902847,6.50527433 39.7380352,6.37419081 39.8692927,6.21254378 C39.9964268,6.05497188 40.1338692,5.91166295 40.2809325,5.75884538 C40.3585875,5.67734267 40.4369296,5.59516078 40.5138973,5.5116205 C40.5819313,5.43690969 40.6492781,5.36219888 40.7159376,5.28680887 C40.8733091,5.1088613 41.0238085,4.93974318 41.1887393,4.78352966 C41.427889,4.55396371 41.5983176,4.33051045 41.7969218,4.0629099 C41.8835105,3.94541017 41.972848,3.83062719 42.0621855,3.71720259 C42.1831348,3.56166826 42.3068329,3.40205879 42.4243461,3.23701581 C42.5734711,3.02646715 42.6999181,2.80708904 42.8222418,2.59450281 C42.8696594,2.51164173 42.9177642,2.42742226 42.9672435,2.34524037 C43.0517705,2.20396901 43.1424825,2.06813117 43.2373177,1.92414305 C43.3417739,1.76860872 43.4510406,1.60560331 43.546563,1.43716439 C43.6084121,1.33189006 43.6613274,1.21506951 43.7163043,1.09145707 C43.7809023,0.94678977 43.8475618,0.797368142 43.9238423,0.681905975 C44.1080151,0.40819272 44.3787765,0.220057307 44.6344193,0.192210549 C44.6632822,0.189493792 44.6921451,0.186097846 44.7196336,0.186097846 C45.2398529,0.186097846 45.7229628,0.704998408 45.9105716,1.19129789 C46.1174224,1.71902791 45.9250031,2.30109307 45.7415175,2.86482012 L45.6803557,3.04820121 C45.4790026,3.67509286 45.1134059,4.25987477 44.7581174,4.82631858 L44.7375011,4.86095723 C44.373966,5.44370158 44.0035589,5.93203863 43.6063505,6.35041919 C43.523885,6.4380346 43.4400452,6.52157487 43.358267,6.60375677 C43.2125781,6.74910326 43.0634531,6.89852489 42.926698,7.06085111 L42.8318627,7.17631328 C42.6593726,7.38686193 42.495129,7.58586437 42.3013352,7.73936114 C42.2257419,7.7984506 42.1473998,7.85414412 42.0697449,7.90780006 C41.9109989,8.02122466 41.7440065,8.13668683 41.5941943,8.29697549 L41.5508999,8.34248116 C41.3158735,8.59038523 41.0952785,8.82606389 40.8451334,9.03661254 C40.6011732,9.23901093 40.3400327,9.43529661 40.0864516,9.62479041 C39.8129413,9.82990555 39.5284356,10.0411334 39.2597358,10.269341 C39.133976,10.3759737 39.0130267,10.4887191 38.8962007,10.5973894 C38.7821236,10.7026637 38.6742313,10.8031837 38.5622158,10.8996286 C38.5450355,10.9132124 38.4989923,10.9498886 38.4989923,10.9498886 L38.1368317,11.2419399 L38.5711496,11.4103789 C38.7986167,11.4993526 38.9999697,11.6895256 39.166275,11.8633981 L39.2301857,11.9306378 C39.4370364,12.1452616 39.6322046,12.3490184 39.7930121,12.5779051 C40.1304331,13.0635254 40.3606491,13.6917754 40.496717,14.4959355 C40.5558172,14.8504722 40.6183535,15.2179136 40.6197279,15.5643001 C40.6217896,15.7775655 40.5503196,16.0071315 40.4843472,16.2312639 C40.4568587,16.3256712 40.4293703,16.4166826 40.4066923,16.5049772 C40.2527568,17.1169267 39.9792465,17.7478935 39.5717299,18.4338746 L39.4899517,18.57175 C39.3497605,18.812183 39.2040716,19.060087 39.030207,19.2577311 C38.8474087,19.4682797 38.6295626,19.6407938 38.3986594,19.8241749 L38.3038242,19.9002441 C38.2763357,19.9233365 38.2474728,19.9416746 38.2165483,19.9525417 L38.0639872,20.0150271 L38.0488686,20.1766741 C37.8688191,21.9575082 37.1616781,23.5162475 36.0538927,24.5642364 C35.8346721,24.7734267 35.5838398,24.9547702 35.2732201,25.1639605 L35.1460859,25.2488592 L35.1550197,25.4016767 C35.1570813,25.460087 35.1522708,25.5191765 35.1371522,25.5728324 C35.1110381,25.6679189 35.0533123,25.7487424 34.9804679,25.8499416 C34.9509178,25.8886554 34.9234293,25.9294068 34.8959408,25.9708373 C34.8375278,26.0591319 34.7962951,26.1501433 34.7626217,26.2302876 C34.7488775,26.2656054 34.7330716,26.2995649 34.7172658,26.3328452 C34.5825722,26.6119919 34.4100821,26.8714422 34.2039185,27.1050833 C33.7249319,27.6504722 33.2803059,28.1082458 32.8439264,28.5042131 C32.3814328,28.9232728 31.8529669,29.2316247 31.3492407,29.5012629 C31.1740017,29.5970285 31.0015115,29.7029821 30.8352063,29.8055396 C30.5321459,29.9957126 30.2455785,30.1743394 29.9342716,30.2809721 C29.5514946,30.410018 29.1584095,30.4684283 28.7426463,30.5302345 C28.6134505,30.5492518 28.4842547,30.5696275 28.3543716,30.5906824 C28.1461465,30.6260002 27.9372341,30.6681099 27.735881,30.7108989 C27.3221795,30.7951183 26.8974826,30.8827337 26.489966,30.8956383 C26.4425484,30.8976759 26.395818,30.8990343 26.3497748,30.8990343 C25.9690595,30.8990343 25.571851,30.8494535 25.1890741,30.7998727 C24.9994036,30.7754218 24.8083587,30.750971 24.6193755,30.7326329 L24.1335167,30.6864481 L24.0572362,30.7312745 C24.0345582,30.7441791 24.0153163,30.7489335 23.9940127,30.7496126 L23.9067368,30.7523294 L23.8194609,30.804627 L23.7686073,30.84402 L23.7596735,30.8609997 C23.7150047,30.9037886 23.6675871,30.9472567 23.6215439,30.9886873 C23.508154,31.0892073 23.3597162,31.1788602 23.1906621,31.2467792 C22.9288344,31.3500159 22.6443288,31.4349146 22.3687568,31.5184548 C22.2725472,31.5463016 22.1790864,31.5755067 22.0842511,31.6047119 C21.7014742,31.72357 21.2939576,31.8444657 20.8720095,31.9069511 C20.412952,31.97487 19.9415247,31.989133 19.540193,31.9932081 C19.2941712,31.9966041 19.0447133,32 18.7966299,32 Z" id="Fill-1" fill="#231F20" mask="url(#mask-2)"></path>
        </g>
    </g>
</svg>