<?xml version="1.0" encoding="UTF-8"?>
<svg width="140px" height="38px" viewBox="0 0 140 38" version="1.1" xmlns="http://www.w3.org/2000/svg" xmlns:xlink="http://www.w3.org/1999/xlink">
    <!-- Generator: Sketch 52.2 (67145) - http://www.bohemiancoding.com/sketch -->
    <title>Group</title>
    <desc>Created with Sketch.</desc>
    <g id="Welcome" stroke="none" stroke-width="1" fill="none" fill-rule="evenodd">
        <g id="Mobile-Portrait---Splash-Copy" transform="translate(-91.000000, -72.000000)" fill="#FFFFFF">
            <g id="Group" transform="translate(161.812132, 90.710125) rotate(-1.000000) translate(-161.812132, -90.710125) translate(91.312132, 72.210125)">
                <g id="Page-1">
                    <path d="M3.44548675,32.1307345 C1.57216081,27.709056 0.896242946,22.6589892 0.343867191,17.8989478 C0.183500036,16.5116598 0.0896555531,15.2464241 0.0278845009,14.158829 C-0.0469535046,12.8440473 0.03501193,11.3709601 0.200130704,9.84470155 C0.278532424,9.07613432 0.380692241,8.36315528 0.548186825,7.76739483 C0.713305599,7.17284282 0.963953522,6.53720388 1.28825155,5.8665202 C1.86676121,4.66049803 2.76006565,3.72516621 3.95509793,3.16203361 C4.59181493,2.86354917 5.29267879,2.68349175 6.02324028,2.61219385 C6.9355512,2.52518623 7.41427686,2.72820399 7.45704143,3.21399649 C7.48792696,3.55598474 7.2776678,3.75054343 6.82032443,3.7928388 C6.69797023,3.80613163 6.48177155,3.78317128 6.17054048,3.72516621 C5.91276513,3.71429026 5.7844714,3.7094565 5.52550814,3.70099743 C4.52172855,3.79646411 3.6771282,4.27379754 3.04397491,5.11728799 C2.58425574,5.73117503 2.14354304,6.8103111 1.84894264,8.2338523 C1.61373748,9.37945252 1.56740919,10.7329043 1.57216081,12.1238176 C1.57572452,12.8935933 1.60542214,14.1745387 1.69926662,15.9267753 C1.80142644,17.0590827 1.85131845,17.627049 1.95347826,18.7605649 C2.05207436,19.7043558 2.10196637,20.175647 2.20056247,21.1194379 C2.53436373,23.6692443 2.88004404,26.2093832 3.60229019,28.6455963 C4.01449318,30.0304674 4.49797045,31.1929858 4.9755082,32.0981066 C5.45660966,32.9996022 6.0541258,33.7162065 6.7644929,34.2539619 C7.53663106,34.8364295 8.33015149,35.0926186 9.15455746,35.0152785 C10.6536934,34.8714743 12.3417062,33.7331247 12.5840388,32.53677 C12.693326,31.991764 12.3999135,30.7168608 12.156393,29.5011711 C12.0328509,28.8909094 11.8653563,28.2709802 11.6622246,27.769478 C11.4769114,27.3102711 11.2250756,27.0710002 10.9946221,27.0927521 C10.671512,27.1567994 10.5052053,27.1882188 10.1797193,27.2522661 C9.81978418,27.3211471 9.64041054,27.3525665 9.27928747,27.422656 C8.61643656,27.4842864 8.26362882,27.2728095 8.21967634,26.7882255 C8.19473034,26.5598305 8.58079942,26.3036414 9.37194405,26.0293257 C10.1619008,25.7525932 10.833067,25.5930792 11.3818791,25.5447417 C11.8451619,25.5036547 12.2003455,25.6389999 12.443866,25.9495688 C12.6873865,26.261346 12.8323109,26.687925 12.8774513,27.2317226 C12.9273433,27.8625278 13.1577968,29.1591829 13.6198918,31.0213874 C14.0095246,32.5838991 14.2779911,33.8648445 14.3563928,34.8110523 C14.3920299,35.2678423 14.2257233,35.5131554 13.8598486,35.5421579 C13.180367,35.600163 12.8156802,35.3161798 12.7622245,34.6853746 C12.7752914,34.6309949 12.781231,34.6068261 12.79311,34.5524463 C12.7907342,34.5186101 12.7871705,34.5029003 12.7859826,34.4678556 C11.2488337,35.5530339 9.86611247,36.1620872 8.62712771,36.2793057 C6.11114524,36.5161598 4.33641539,34.2334184 3.44548675,32.1307345 Z" id="Fill-6"></path>
                    <path d="M19.8182566,13.9640791 C20.2926475,13.4383828 20.6537829,12.9912137 20.8225977,12.6509289 C20.9946178,12.3008282 21.114284,11.7216897 21.2040336,10.987678 C21.2948517,10.2558476 21.3236998,9.60363506 21.2905779,9.03322179 C21.226471,7.97201317 20.9401269,6.88135683 20.5234322,5.80596968 C20.2862368,5.18974884 19.9753185,4.66514314 19.5682398,4.28777605 C19.1611611,3.91368092 18.7252344,3.73917591 18.2593911,3.7718956 C18.2262692,3.77407691 18.2102425,3.77516757 18.178189,3.77734888 C18.1514778,3.80461529 18.1119453,3.82097513 18.0574544,3.82642841 C18.3010605,7.47576454 18.5446667,11.1229193 18.7872044,14.7744368 C18.9998255,14.7613489 19.3438657,14.4886848 19.8182566,13.9640791 M24.6198616,31.4080367 C24.3997614,30.7351017 24.2875743,30.3991796 24.0653372,29.7240633 C23.3462717,27.7488846 22.6945185,25.7246265 22.1271726,23.7200001 C21.8760873,22.8343872 21.5277733,21.5866763 21.1132155,20.0030433 C20.6324139,18.163106 20.1932818,16.6678162 19.7990245,15.525899 C19.645168,15.630602 19.5693082,15.6829535 19.4154517,15.7865659 C19.2145835,15.8956315 19.1152179,15.9458017 18.9143497,16.0537767 C19.2722797,21.0348042 19.6270044,26.0169224 19.983866,30.9979499 C19.9998928,31.2313503 20.0073719,31.3480506 20.0233986,31.5792697 C20.0565205,32.0984221 19.8449678,32.3732675 19.3866036,32.4048966 C19.1825301,32.4201658 19.0126469,32.3656329 18.876954,32.2456607 C18.7412611,32.1256885 18.6664697,31.9762686 18.6536484,31.794129 C18.6365532,31.5618192 18.6280056,31.4462096 18.6130473,31.2128092 C18.4559855,28.5974153 18.2989236,25.9798401 18.1439987,23.3644461 C18.0702758,21.8560684 18.0328801,21.1024249 17.9602256,19.5940472 C17.7753842,15.7320331 17.5819951,11.8711096 17.3180884,8.01236746 C17.1791902,6.00883176 17.111878,5.00869989 16.9729798,3.00298287 C16.956953,2.76958242 17.1952169,2.63652234 17.6888399,2.602712 C18.4025631,2.5525418 19.0788906,2.68887385 19.7167541,3.01279878 C20.3556859,3.33345175 20.8696094,3.80025266 21.2617298,4.39684168 C22.0641342,5.61837678 22.5171561,6.9871505 22.600495,8.48789362 C22.6667388,9.68107166 22.4818973,11.016035 22.016054,12.4208004 C21.8878403,12.815618 21.7040672,13.2780563 21.4946514,13.7982994 C21.2863041,14.3185424 20.9411954,14.7493517 20.9176895,14.8671426 C20.6131819,16.3744296 22.9103449,20.8962908 23.8623321,23.9304968 C24.5963558,26.2252377 25.3261057,28.5243413 26.049445,30.8234449 C26.0782931,30.9008815 26.0985936,31.0426668 26.1082096,31.2509822 C26.1220994,31.4822013 26.0857722,31.6872447 26.0067071,31.8606591 C25.925505,32.0318921 25.7962228,32.1235072 25.617792,32.1355045 C25.1081423,32.1605895 24.7769235,31.9195545 24.6198616,31.4080367" id="Fill-8"></path>
                    <path d="M34.180106,31.6745163 C34.4754736,31.137657 34.6920764,30.388216 34.8446829,29.4478116 C35.1686026,27.4481011 35.4058812,25.4519936 35.4492017,23.5567725 C35.4836613,22.0326688 35.4679084,20.5133692 35.4413253,19.0565231 C35.4403407,18.9880645 35.4393562,18.9532347 35.4383716,18.8847761 C35.3940665,17.1709101 35.3714216,16.3133766 35.326132,14.6007116 C35.2493364,13.0597936 35.0809769,11.0396656 34.7728102,8.61599241 C34.5552228,6.89011612 34.0993723,5.0921782 33.428888,3.29664233 C33.166011,2.59163928 32.8164927,2.04276979 32.3911635,1.65844104 C31.9648498,1.27531332 31.5119529,1.09035511 31.032473,1.10957155 C30.6012365,1.12638593 30.2310425,1.37139551 29.9169684,1.8409972 C29.6028943,2.31300094 29.3547856,2.96876187 29.1834725,3.80347587 C28.7857109,5.72992372 28.618336,7.54467602 28.602583,9.1516506 C28.5887992,10.532832 28.5819073,11.9968844 28.6311352,13.4813542 C28.6596874,14.3208723 28.6724867,14.7400308 28.7000543,15.5783479 C28.796541,18.0224385 29.090924,20.4377045 29.4059827,22.8373571 C29.6491686,24.6749289 29.9494589,26.2843056 30.2743631,27.6450695 C30.6002519,29.0010294 31.0305039,30.1456085 31.5119529,31.0643944 C32.0150623,32.0228142 32.5624767,32.5224416 33.1738874,32.5008231 C33.5499887,32.4900138 33.8857231,32.2137775 34.180106,31.6745163 Z M27.5146461,13.3240196 C27.4920012,12.638233 27.4801865,12.2959402 27.454588,11.6101536 C27.3709006,9.21170197 27.4270204,7.11711029 27.6101482,5.33718778 C27.724357,4.22143338 27.8966547,3.29303925 28.1378715,2.56761874 C28.3790883,1.83979617 28.7561742,1.25369483 29.1618122,0.802108552 C29.5743421,0.340914054 30.1256948,0.0286469463 30.8089783,0.00342537222 C31.4154662,-0.0217962019 31.977649,0.0923013952 32.4886348,0.344517136 C32.9996206,0.599134932 33.4416873,0.937824641 33.7616688,1.35578215 C34.0462061,1.72810063 34.3100677,2.26856293 34.5493154,2.92072077 C34.786594,3.56927554 34.9726755,4.19260872 35.1095291,4.78951931 C35.2453982,5.59180557 35.310379,5.9929487 35.444279,6.79643599 C36.001539,11.0973149 36.4682196,15.3981938 36.5410769,19.756722 C36.5410769,19.8083662 36.5420615,19.8359898 36.5430461,19.8864329 C36.5647063,21.3132534 36.5568299,22.6331825 36.5302468,23.8294057 C36.5007101,25.2550251 36.3855167,26.7707216 36.2073117,28.3392633 C36.1206705,29.1055188 36.0005544,29.7877023 35.8331795,30.3641954 C35.6658046,30.9406886 35.4413253,31.5171817 35.1754945,32.0960769 C34.6979837,33.1265583 34.0087929,33.686237 33.1285977,33.7030514 C27.5107078,33.8231542 27.6967894,17.3222396 27.5146461,13.3240196 Z" id="Fill-10"></path>
                    <path d="M47.4147556,33.0797321 C47.5734371,32.8215274 47.6527778,32.8134686 47.6527778,33.0555556 C47.6527778,33.6994265 47.5757652,32.5455243 47.6527778,32.4074074 C47.6807768,32.357193 47.6807768,32.2667392 47.6527778,32.136046 C47.4147556,31.7592593 47.2725608,28.8133596 46.9486037,26.7449243 C46.7371661,25.6597453 46.6036266,24.8731404 46.5405663,24.3935032 C46.2512306,22.1775795 45.9470572,19.9388731 45.658958,17.7193522 C45.2459746,14.528566 44.7810592,11.3305853 44.3124344,8.14099822 C44.2530835,7.74889484 44.223408,7.55104452 44.1628206,7.15894114 C43.6731757,3.93577946 43.085849,2.01962903 43.083376,1.86014968 C43.0796666,1.78460683 43.3183067,1.58435831 43.5074877,1.47044449 C43.6966687,1.35653067 43.8870862,1.29777511 44.0762672,1.29657602 C44.5535474,1.29417784 44.8799774,1.36372522 45.0543207,1.50521818 C45.2299004,1.64671114 44.9405648,2.27383672 44.9405648,2.27383672 L44.9418013,2.65874554 L46.177042,3.08562261 L46.177042,3.5580652 C46.2821425,12.2910587 48.3359311,29.3433586 48.3359311,29.3433586 C48.535004,27.0782722 48.426194,24.8095884 48.5856995,22.5409047 C48.6203209,22.0444802 48.638868,21.7974671 48.6734894,21.3022417 C48.882454,17.6797821 49.0085747,15.7636317 49.0308313,15.5681796 C49.1730262,14.4290413 49.4141392,12.4613299 49.8963653,9.83171919 C49.9618986,9.32210471 50.0286684,8.80409658 50.0942017,8.29448211 C50.1486067,7.54025268 50.1758092,7.14695021 50.2351601,6.37473439 C50.2635991,6.03419202 50.2883286,5.74281244 50.3044028,5.49939659 C50.3192405,5.25957801 50.3427336,5.08091317 50.3724091,4.96580025 C50.3921927,4.74276898 50.4020845,4.63365152 50.4193952,4.40942115 C50.4193952,4.38184202 50.4441247,4.33867467 50.4849285,4.28231731 C50.5306781,4.22595994 50.6098127,4.13602798 50.6815284,4.11324521 C50.9609722,4.0305078 51.3356248,4.26193273 51.4567995,4.4190139 C51.5198599,4.50534858 51.5989944,4.60007692 51.6249604,4.70080073 C51.6533994,4.80152453 51.6645277,4.92023472 51.6645277,5.06412587 C51.6966761,5.21760976 51.7139868,5.2955508 51.7448987,5.45023378 C52.406414,9.37606389 52.9108967,13.3426632 53.4240347,17.2852806 C53.9668482,21.4761102 54.5331548,25.694519 54.8682401,29.9213214 C54.9486111,29.9213214 54.9127533,29.9213214 54.9931243,29.9225205 C55.6027075,24.1764674 56.230838,18.4328125 56.8738061,12.6915557 C56.9566501,11.6087748 57.1952902,9.88807655 57.5452132,7.5714291 C57.8988457,5.23439706 58.0781349,3.29186658 58.1139927,1.80738959 C58.1003915,1.6371184 58.0942091,1.55198281 58.0830808,1.38051252 C58.0867902,1.22463045 58.0880267,1.1478885 58.0917361,0.995603706 C58.1003915,0.622685819 58.1956002,0.363681755 58.37118,0.211396959 C58.5504692,0.0591121621 58.8398048,-0.0116343183 59.2466058,0.0015557035 C59.4209491,0.00515298216 59.6002383,0.0818949269 59.7869463,0.229383352 C59.969945,0.379269963 60.0614443,0.53994841 60.0552619,0.710219599 C60.0490795,0.994404613 59.560671,1.43926807 59.5557251,1.50881546 C59.5520157,1.5184082 59.5965289,1.62272929 59.5915829,1.76662043 C59.586637,1.93809072 59.560671,2.11435737 59.5124484,2.29901767 C59.4654623,2.4800807 59.4135302,2.62277275 59.3937466,2.70071379 C58.560361,5.98742739 58.3897271,10.229818 57.9470683,14.0045624 C57.5946723,16.9483355 57.2459857,19.8909094 56.9010086,22.8358815 C56.7390301,24.1836619 56.6561861,24.8575521 56.497917,26.2065316 C56.2605134,27.9308272 56.145521,28.7917759 55.9142998,30.5160715 C55.8141451,31.3866129 55.7646861,31.8230827 55.6657679,32.6924251 C55.6595855,33.0353656 55.606417,33.2919715 55.5074988,33.4598445 C55.4110536,33.6301157 55.2144537,33.7104549 54.9189357,33.7032604 C54.4886416,33.6948667 54.2438191,33.4994146 54.1609751,33.1768586 C54.1189349,33.0077865 54.0632935,32.601294 54.0187803,31.9753675 C54.0064155,31.7175625 54.0002331,31.5892596 53.9891048,31.3326537 C52.9690111,23.5205636 52.1739563,15.6725006 51.2935846,7.841225 C51.242889,7.8064513 51.216923,7.789664 51.1662274,7.75369121 C51.154687,7.76488275 51.1402614,7.79366098 51.1229507,7.8400259 C50.3501525,15.5322068 49.6107391,23.2267858 48.9047106,30.9273603 C48.8960553,31.1899617 48.882454,31.6180378 48.8750352,31.8794401 C48.8812176,33.0437593 48.6499963,33.6253193 48.1838444,33.6241202 C47.6682335,33.6193239 47.4135192,33.6193239 47.4135192,33.6193239 L47.4147556,33.0797321 Z" id="Fill-12"></path>
                    <path d="M64.0954472,33.274318 C64.0047369,33.0960138 63.9659869,32.8764692 63.9730324,32.6156841 C63.9818392,32.3391306 63.9871233,32.2008539 63.9950494,31.9255133 C64.0082597,31.5094701 64.0135438,31.3008421 64.026754,30.8860119 C64.0839983,29.0714329 64.0813563,27.0021336 64.0584586,24.7375487 C64.0337995,22.3310482 64.0690267,20.259323 64.1165836,18.5890855 C64.2037711,15.5809599 64.2178621,12.5425104 64.2275496,9.54287551 C64.2372371,6.54081468 64.2108166,3.50236522 64.2971235,0.491813712 C64.3015269,0.347472201 64.3552485,0.227389767 64.4600497,0.132779365 C64.5657316,0.0369560093 64.6872657,-0.00549737624 64.8220101,0.000567393121 C65.229766,0.0260394245 65.4252775,0.255287706 65.4111866,0.687099285 C65.285249,4.67407867 65.1610728,8.67561349 65.1249648,12.6710835 C65.0976637,15.2558883 65.0668398,17.8370541 65.0368966,20.4218588 C64.9972659,21.6323868 64.9972659,23.6119275 65.0333739,26.358055 C65.0395387,28.5061964 65.0421807,29.5832994 65.0457034,31.7326537 C65.0421807,31.8199863 65.1011864,31.8454584 65.1372944,31.8660786 C65.154908,31.8794211 65.2940559,31.9218745 65.5468117,31.9376429 C66.3314996,31.9897999 66.7225226,32.0164849 67.5072105,32.0759196 C67.7811027,32.0965398 67.9070403,32.3646026 67.8867846,32.8849598 C67.8779778,33.1154211 67.8383471,33.3070678 67.7696538,33.4611129 C67.6991993,33.6151581 67.6014435,33.6879353 67.4755059,33.6770187 C67.3856764,33.6879353 67.3434036,33.6927871 67.253574,33.7037037 C67.1531762,33.6976389 67.1029773,33.6927871 67.0016989,33.6842964 C66.560477,33.6818705 65.7088572,33.6333524 64.4486008,33.5569363 C64.3015269,33.5448067 64.1843961,33.4514093 64.0954472,33.274318" id="Fill-14"></path>
                    <path d="M74.7542196,31.973482 C74.5074564,31.8388955 74.398032,31.6047368 74.419247,31.2666293 C74.4415785,30.9701013 74.4493945,30.8212902 74.4694929,30.5258564 C74.4549774,30.3168644 74.4572105,30.0816116 74.4784255,29.820098 C74.4806586,29.7894604 74.4806586,29.7741416 74.4828918,29.743504 C74.6526112,27.4697581 74.7363544,26.3339794 74.908307,24.0591393 C75.2566785,18.6942807 75.6061666,13.3283279 75.9523049,7.96565768 C76.0661956,6.30138072 76.1063923,4.83077702 76.1588714,3.63481731 C76.1733869,3.32953574 76.2694123,3.06802214 76.427966,2.86997209 C76.5842866,2.67082783 76.7774541,2.5789151 77.0052355,2.59423389 C78.0704484,2.66426264 78.6030548,2.70146541 79.6671512,2.77805935 C80.0702349,2.80760273 80.3672439,2.8568417 80.5648777,2.92139945 C80.8417884,3.01987737 80.9668449,3.254036 80.9411636,3.61731013 C80.9232984,3.82411377 80.8250398,3.98824365 80.6419214,4.10313457 C80.4621528,4.22021388 80.2701019,4.28586583 80.0702349,4.29571362 C79.7776921,4.27492384 79.6325373,4.26398185 79.3422277,4.24319206 C79.0708999,4.20817769 78.9335611,4.1906705 78.6633499,4.15456193 C78.3886724,4.12064175 78.2535668,4.10204037 77.9800058,4.06921439 C77.7801388,4.0549898 77.6428,4.07796798 77.5691061,4.13924314 C77.4920624,4.19832989 77.4462828,4.319786 77.4328839,4.50142307 C77.3469076,5.72145516 77.2854959,6.82769053 77.243066,7.81465819 C77.1503903,9.13973341 77.1023776,9.80062971 77.0097018,11.1257049 C76.8712465,13.0733795 76.8031354,14.0472167 76.6657966,15.9937971 C76.6613303,16.0474129 76.6870115,16.0747678 76.7406071,16.0791446 C76.7595889,16.0802388 76.7674049,16.081333 76.783037,16.081333 C76.8020188,16.0824272 76.8076017,16.0835214 76.8254669,16.0846156 C77.5199767,16.0802388 78.2703154,16.1054054 79.0753662,16.1644922 C79.5186466,16.1962239 79.7274462,16.3964624 79.6984153,16.7608307 C79.6760838,17.0179675 79.6169053,17.190851 79.5119472,17.2729159 C79.4081057,17.3593577 79.2450857,17.3899952 79.0240037,17.3757707 C78.079381,17.3057419 77.6081862,17.2707275 76.6635634,17.2083582 C76.5530225,17.2006988 76.493844,17.2641623 76.4849114,17.3921836 C76.3565052,19.6998497 76.2906273,20.8542299 76.1599879,23.1629901 C76.0762448,25.2310266 75.9500718,27.2968747 75.8026838,29.3616285 C75.7613705,29.9382715 75.7423888,30.2249517 75.7021921,30.8015946 C76.3900025,30.8486452 76.7339077,30.8716234 77.4228347,30.9219565 C78.0961296,30.9711955 78.4322188,30.9963621 79.1043972,31.0477895 C79.2473188,31.0587314 79.3198962,31.0642024 79.465051,31.0751444 C79.9440618,31.111253 80.1718432,31.2983611 80.1416957,31.6364686 C80.1081984,32.0522643 79.9697431,32.2897055 79.7229799,32.3466039 C79.3958233,32.4253862 78.7381605,32.4264804 77.7555741,32.3564517 C77.0856289,32.3072127 76.7517729,32.2831403 76.0795945,32.237184 C75.4397968,32.1956044 74.9987496,32.1058801 74.7542196,31.973482" id="Fill-16"></path>
                    <path d="M90.6775405,14.1032931 C91.3218602,13.6630974 91.8198004,13.2798424 92.0775283,12.9677634 C92.3440139,12.6502093 92.5867285,12.0961321 92.8306942,11.3854679 C93.0684044,10.6737087 93.2235416,10.0320304 93.2898502,9.46043295 C93.4137097,8.3993642 93.2810925,7.26930956 92.9995936,6.13706489 C92.8382009,5.48772148 92.5779708,4.91721908 92.1751146,4.47483335 C91.7747606,4.03682768 91.3005914,3.7915445 90.7576113,3.74664892 C90.718827,3.74226886 90.7013115,3.74117385 90.6612761,3.73898382 C90.6262451,3.76307413 90.577452,3.77183424 90.5136456,3.76635917 C90.1233004,7.42261155 89.729202,11.0799589 89.3363546,14.7373063 C89.5840736,14.7603016 90.0294675,14.5467739 90.6762894,14.1032931 L90.6775405,14.1032931 Z M92.2950975,31.8481782 C92.1795656,31.1575493 92.1201171,30.8127718 92.0000986,30.1232169 C91.581716,28.0867744 91.2384853,26.0138134 90.981623,23.9720006 C90.8672128,23.0697792 90.7146658,21.8012989 90.5464154,20.1934116 C90.3523667,18.3288207 90.1403712,16.8057852 89.9205241,15.6296752 C89.7466654,15.7048603 89.6591752,15.7435269 89.4808298,15.8208602 C89.2542527,15.891749 89.1432074,15.9293416 88.9166303,16.0013044 C88.463476,20.9012257 88.0069567,25.7989988 87.554924,30.6999941 C87.5302473,30.9287717 87.5201523,31.0426234 87.4977189,31.271401 C87.4461221,31.7805116 87.1825299,32.0125114 86.7024555,31.9695485 C86.4870951,31.9512892 86.3199664,31.8718078 86.2010695,31.7332524 C86.0788075,31.594697 86.0260891,31.4368083 86.0429141,31.2585121 C86.0653475,31.0286605 86.0743209,30.9169569 86.0978759,30.6860312 C86.3659548,28.1179225 86.6340337,25.551962 86.907721,22.9827793 C87.0815797,21.5037807 87.1690699,20.7658925 87.3418069,19.287968 C87.7915962,15.5050827 88.2301688,11.7200493 88.5924679,7.9285714 C88.7809083,5.95657328 88.8751285,4.97272237 89.0624473,3.00287239 C89.0860023,2.77409483 89.3540812,2.68172455 89.8711707,2.72790969 C90.6193239,2.79450222 91.2990554,3.03724273 91.9081217,3.45398307 C92.517188,3.87072342 92.9703423,4.40668587 93.279923,5.04898155 C93.9125443,6.36686919 94.1525815,7.76853452 93.9910611,9.24108867 C93.8643125,10.4107542 93.4515383,11.6792345 92.7347918,12.9713444 C92.534013,13.3322329 92.2692991,13.7532696 91.9653268,14.2258617 C91.6613545,14.6952316 91.2351202,15.0593424 91.1902535,15.171046 C90.6271756,16.5845261 92.2592041,21.3555586 92.7448868,24.4553334 C93.1284976,26.8054053 93.5042568,29.1586993 93.8732859,31.5119934 C93.8912326,31.5914748 93.8889893,31.7321783 93.8643125,31.9362522 C93.8385142,32.1661039 93.7689707,32.3572889 93.6568038,32.5098072 C93.5446369,32.6655478 93.3943332,32.7332144 93.2070145,32.712807 C92.6753433,32.6601775 92.371371,32.3712518 92.2950975,31.8481782 Z" id="Fill-18"></path>
                    <path d="M108.854018,26.5704537 C108.637785,24.1311935 108.279721,21.6806171 107.896081,19.2815922 C107.465939,16.5870898 106.903267,13.812117 106.41151,11.1767101 C106.230153,10.2072928 106.005782,9.08573608 105.679107,7.90131181 C105.529138,7.23743069 105.453573,6.90423278 105.302442,6.24286635 C105.307092,6.26927072 105.254777,6.11587394 105.148986,5.78141868 C105.086208,5.58024258 105.055982,5.47839718 104.99088,5.27596374 C104.772321,5.94110221 104.592127,6.8526814 104.454946,8.00692926 C104.316603,9.16117712 104.207324,10.5279172 104.107345,12.0732011 C103.894599,15.3624303 103.664415,18.6931521 103.33309,21.9936975 C103.244736,22.6035125 103.201722,22.9090487 103.118019,23.5188637 C102.859934,25.0239124 102.798319,26.1467265 102.906436,26.8898207 C102.919224,26.9916661 102.928524,27.0419602 102.941312,27.1463203 C104.284052,27.3311508 105.775598,27.3148052 107.440363,27.1199159 C107.544992,27.1073424 107.598469,27.1010556 107.703098,27.0897395 C107.793777,27.1098571 107.897243,27.1123718 108.01466,27.0972836 C108.598258,27.030644 108.879594,26.8571296 108.854018,26.5704537 Z M109.622846,34.9949956 C109.464684,34.865152 109.37758,34.7015989 109.360388,34.500591 C109.168988,32.2532974 109.072715,31.1296506 108.883608,28.8811086 C108.853809,28.537772 108.104255,28.2855758 106.62234,28.1844476 C105.14157,28.0833193 103.920967,28.1282652 102.981159,28.2855758 C102.923854,28.2955637 102.861964,28.5252871 102.79549,28.9734973 C102.731308,29.4192105 102.680879,29.7525591 102.659103,29.956064 C102.491772,31.4667447 102.398937,33.1334874 102.317564,34.867649 C102.29808,35.2571799 102.287765,35.4519453 102.269427,35.8402277 C102.252236,36.0761935 102.139917,36.2160251 101.929034,36.255977 C101.71815,36.2984259 101.516435,36.2647165 101.322743,36.1598428 C101.127905,36.0537206 101.012148,35.901404 100.977765,35.7041416 C100.986934,35.6679352 100.992665,35.6504562 101.001833,35.6117528 C100.997249,35.5942739 100.996103,35.5867829 100.992665,35.569304 C101.020171,34.6878655 101.035071,34.2434008 101.068308,33.3632108 C101.169165,31.9686402 101.249392,30.6077791 101.295237,29.2893669 C101.349104,27.7961652 101.445377,26.794871 101.50039,26.3653883 C101.776601,24.0993672 101.773163,21.5187251 101.907258,19.0953935 C101.939349,18.5135942 101.95654,18.2251915 101.990923,17.6421437 C102.152524,14.7930748 102.304956,11.8828296 102.680879,9.09244008 C102.77486,8.39702757 102.975429,7.31333267 103.247056,5.92999862 C103.361667,5.34944777 103.52556,4.70272662 103.79031,4.12342428 C104.027555,3.60654675 104.29689,3.32064107 104.510065,3.29691964 C105.076242,3.22450684 105.527808,3.32313806 105.773075,3.58282532 C105.973643,3.79257272 106.380511,5.20462219 106.959295,7.74156694 C107.543809,10.2997361 108.060703,12.8753843 108.518,15.4660144 C108.91226,17.8194302 109.292768,20.1765914 109.659522,22.5387467 C109.746626,23.7710127 109.974701,25.6237814 110.319679,28.1007983 C110.666949,30.6065306 110.870956,32.4792753 110.955768,33.7090443 C110.961499,33.7789601 110.962645,33.811421 110.967229,33.8825853 C110.989005,34.1984549 110.980982,34.510579 110.905339,34.7490418 C110.836573,34.9787652 110.570676,35.1235907 110.172977,35.1585486 C109.964386,35.1797731 109.778717,35.1235907 109.622846,34.9949956 Z" id="Fill-20" transform="translate(105.977765, 19.773832) rotate(4.000000) translate(-105.977765, -19.773832) "></path>
                    <path d="M120.074546,18.7189385 C120.074546,18.7189385 120.241232,18.5887969 120.539513,18.4530459 C120.598417,18.4249981 120.728758,18.3251482 120.904217,18.1478865 C121.052104,18.0413051 121.124795,17.9885753 121.272682,17.8842377 C123.433337,16.3707817 124.850797,14.1516445 124.977379,11.6834435 C125.053829,10.2440335 124.735495,8.85735322 123.945929,7.61203359 C123.52984,6.95459457 122.865601,6.4194437 121.989558,6.02677535 C121.113515,5.6352289 119.059389,5.2605111 118.863877,5.43777281 C118.362565,5.8921462 119.061895,9.85473084 119.208529,12.0581613 C119.353909,14.2593479 119.498037,16.4683878 119.509316,18.6785497 C119.549421,18.7088413 119.569474,18.7256699 119.612085,18.7582053 C119.920392,18.7324014 120.074546,18.7189385 120.074546,18.7189385 Z M118.392643,32.7697341 C118.382617,31.4817819 118.357552,30.3340684 118.317447,29.3277155 C118.267315,27.9343038 118.243503,27.236476 118.192119,25.8430643 C118.178332,24.5898913 118.172066,23.9616219 118.160786,22.7084489 C118.118175,21.777264 118.095616,20.7294004 118.080577,19.5715897 C118.039218,16.3752693 117.943969,13.1688517 117.703339,9.97253135 C117.674514,9.41382038 117.659474,9.13670871 117.628142,8.57911965 C117.494041,7.05781025 117.417591,5.81922207 117.402552,4.86447702 C117.471482,4.79940626 117.506574,4.77023661 117.576758,4.70628777 C117.61185,4.65355802 117.740938,4.58736535 117.809868,4.5110755 C117.851226,4.46058957 117.959008,4.38878735 118.099376,4.35288625 C118.173319,4.33381379 118.313687,4.3124975 118.510452,4.31137559 C119.879034,4.30688796 121.122288,4.52566032 122.220162,4.96544888 C123.316782,5.40187171 124.196585,6.00209333 124.845784,6.75152894 C126.115357,8.21898667 126.648001,9.87604712 126.523927,11.6789558 C126.44121,12.8378884 126.092798,14.0080401 125.50501,15.1961424 C124.917221,16.3808789 124.075017,17.4410834 123.062366,18.3902189 C121.992065,19.3954499 120.850326,20.0113783 119.603312,20.18864 C119.635898,21.9074055 119.649684,22.7667882 119.677256,24.4844318 C119.711094,25.3224983 119.72864,25.7409705 119.759972,26.5779151 C119.853968,28.6927146 119.907859,30.8120018 119.890313,32.9268014 C119.886554,33.3396641 119.817623,33.6437016 119.686029,33.8355482 C119.554434,34.0285166 119.298765,34.1250008 118.922781,34.1261228 C118.576876,34.1250008 118.400163,33.6751151 118.392643,32.770856 L118.392643,32.7697341 Z" id="Fill-22" transform="translate(121.971996, 19.218715) rotate(6.000000) translate(-121.971996, -19.218715) "></path>
                    <path d="M132.50975,20.8387642 C132.50975,20.8387642 132.648995,20.7294147 132.888382,20.6320937 C132.937976,20.6113173 133.045748,20.5303987 133.199299,20.3762159 C133.321377,20.2898298 133.382416,20.248277 133.505448,20.1618909 C135.301327,18.9415508 136.616525,16.9492033 136.97799,14.5763196 C137.189719,13.1930487 137.095299,11.8196192 136.631785,10.5260149 C136.386675,9.84367411 135.941282,9.25428042 135.318494,8.77861019 C134.698568,8.30075297 133.185947,7.71354627 133.019997,7.86226156 C132.591771,8.24717172 132.692867,12.1553221 132.568882,14.3007589 C132.442989,16.4461956 132.315189,18.5949129 132.085339,20.7359757 C132.113951,20.7709675 132.127303,20.78737 132.154961,20.8234553 C132.390534,20.8300163 132.50975,20.8376707 132.50975,20.8376707 L132.50975,20.8387642 Z M129.691718,34.4694657 C129.828891,33.1707146 129.940031,32.0172784 130.021133,30.9989395 C130.139282,29.5991492 130.198356,28.8952806 130.315503,27.4886787 C130.44767,26.2285269 130.509748,25.598451 130.643917,24.3394345 C130.713004,23.4016999 130.81313,22.3447617 130.931278,21.1822433 C131.255686,17.9716943 131.543048,14.7384399 131.713262,11.502915 C131.75131,10.9409554 131.770334,10.6582727 131.810385,10.0951778 C131.875466,8.55574911 131.954566,7.30240893 132.048684,6.34083362 C132.111764,6.28747584 132.142803,6.25909404 132.20388,6.20460099 C132.240926,6.15691957 132.349062,6.10242652 132.411141,6.03544548 C132.45019,5.98889933 132.544308,5.92872992 132.659453,5.91170084 C132.72053,5.90034812 132.834674,5.89353649 132.989869,5.91624193 C134.078239,6.06723309 135.04045,6.43279064 135.864487,6.99815605 C136.687522,7.56238619 137.319317,8.2651195 137.751862,9.09273273 C138.595924,10.7093599 138.832221,12.4361085 138.529841,14.2332439 C138.336598,15.3844096 137.927082,16.5185463 137.325325,17.6436007 C136.723568,18.7652494 135.935576,19.7325011 135.024429,20.5691965 C134.058213,21.4547085 133.082986,21.9440107 132.070712,21.9757983 C131.902501,23.7048175 131.817393,24.5698947 131.647179,26.3000491 C131.578092,27.1424208 131.544049,27.5636067 131.475964,28.408249 C131.311757,30.5425602 131.116511,32.6768714 130.866196,34.796424 C130.815132,35.2107983 130.72602,35.5082395 130.599861,35.6853419 C130.473702,35.8624443 130.261435,35.9305607 129.962058,35.8896909 C129.687713,35.8499564 129.5976,35.3788185 129.691718,34.4683304 L129.691718,34.4694657 Z" id="Fill-24" transform="translate(134.155657, 20.901185) rotate(6.000000) translate(-134.155657, -20.901185) "></path>
                </g>
            </g>
        </g>
    </g>
</svg>