<?xml version="1.0" standalone="no"?>
<!DOCTYPE svg PUBLIC "-//W3C//DTD SVG 20010904//EN"
 "http://www.w3.org/TR/2001/REC-SVG-20010904/DTD/svg10.dtd">
<svg version="1.0" xmlns="http://www.w3.org/2000/svg"
 width="512.000000pt" height="512.000000pt" viewBox="0 0 512.000000 512.000000"
 preserveAspectRatio="xMidYMid meet">
<metadata>
Created by potrace 1.11, written by Peter Selinger 2001-2013
</metadata>
<g transform="translate(0.000000,512.000000) scale(0.100000,-0.100000)"
fill="#000000" stroke="none">
<path d="M1178 5115 c-1 -2 -43 -6 -93 -10 -49 -3 -97 -8 -105 -10 -8 -3 -31
-6 -50 -9 -95 -11 -273 -74 -352 -123 -21 -13 -40 -23 -43 -23 -17 0 -130 -93
-201 -164 -88 -89 -146 -168 -198 -273 -36 -71 -81 -195 -90 -248 -3 -17 -10
-54 -15 -82 -6 -29 -14 -88 -18 -130 -10 -99 -10 -2874 0 -2967 9 -87 16 -134
23 -166 3 -14 8 -36 10 -50 26 -147 143 -368 262 -493 165 -175 400 -303 607
-332 22 -3 49 -7 60 -10 11 -2 52 -8 90 -12 88 -10 2908 -11 2990 -1 130 16
153 21 245 45 52 13 116 35 143 48 26 14 47 21 47 17 0 -4 4 -2 8 3 4 6 21 17
37 25 110 55 263 186 348 299 85 114 172 299 192 409 2 15 9 52 15 82 23 122
25 227 25 1605 0 1264 -4 1559 -20 1607 -2 7 -6 30 -9 50 -13 89 -65 242 -110
323 -30 53 -102 162 -120 181 -6 6 -27 29 -47 50 -84 92 -184 166 -308 229
-70 35 -181 77 -181 68 0 -3 -6 -1 -12 4 -7 6 -29 13 -48 17 -19 3 -46 8 -60
11 -14 3 -45 8 -70 11 -25 3 -56 8 -70 11 -27 6 -2876 14 -2882 8z"/>
</g>
</svg>
