<?xml version="1.0" standalone="no"?>
<!DOCTYPE svg PUBLIC "-//W3C//DTD SVG 20010904//EN"
 "http://www.w3.org/TR/2001/REC-SVG-20010904/DTD/svg10.dtd">
<svg version="1.0" xmlns="http://www.w3.org/2000/svg"
 width="1024.000000pt" height="1024.000000pt" viewBox="0 0 1024.000000 1024.000000"
 preserveAspectRatio="xMidYMid meet">
<metadata>
Created by potrace 1.11, written by Peter Selinger 2001-2013
</metadata>
<g transform="translate(0.000000,1024.000000) scale(0.100000,-0.100000)"
fill="#000000" stroke="none">
<path d="M767 10230 c-190 -32 -355 -119 -503 -265 -129 -128 -213 -275 -248
-437 -15 -67 -16 -452 -14 -4378 l3 -4305 22 -82 c106 -393 404 -670 803 -748
65 -12 644 -14 4290 -14 4104 -1 4217 0 4307 18 408 84 702 376 793 787 19 88
19 149 20 4327 0 4233 0 4238 -20 4318 -53 207 -153 387 -290 519 -116 113
-262 191 -452 242 l-83 23 -4290 1 c-2360 1 -4312 -2 -4338 -6z"/>
</g>
</svg>
