<?xml version="1.0" encoding="UTF-8"?>
<svg width="94px" height="71px" viewBox="0 0 94 71" version="1.1" xmlns="http://www.w3.org/2000/svg" xmlns:xlink="http://www.w3.org/1999/xlink">
    <!-- Generator: Sketch 52.2 (67145) - http://www.bohemiancoding.com/sketch -->
    <title>Group</title>
    <desc>Created with Sketch.</desc>
    <g id="Welcome" stroke="none" stroke-width="1" fill="none" fill-rule="evenodd">
        <g id="Mobile-Portrait---Onboarding-Copy" transform="translate(-125.000000, -59.000000)" fill="#FFFFFF">
            <g id="Group" transform="translate(125.000000, 59.000000)">
                <g id="Page-1" transform="translate(0.000000, 0.803090)">
                    <path d="M3.44548675,32.1307345 C1.57216081,27.709056 0.896242946,22.6589892 0.343867191,17.8989478 C0.183500036,16.5116598 0.0896555531,15.2464241 0.0278845009,14.158829 C-0.0469535046,12.8440473 0.03501193,11.3709601 0.200130704,9.84470155 C0.278532424,9.07613432 0.380692241,8.36315528 0.548186825,7.76739483 C0.713305599,7.17284282 0.963953522,6.53720388 1.28825155,5.8665202 C1.86676121,4.66049803 2.76006565,3.72516621 3.95509793,3.16203361 C4.59181493,2.86354917 5.29267879,2.68349175 6.02324028,2.61219385 C6.9355512,2.52518623 7.41427686,2.72820399 7.45704143,3.21399649 C7.48792696,3.55598474 7.2776678,3.75054343 6.82032443,3.7928388 C6.69797023,3.80613163 6.48177155,3.78317128 6.17054048,3.72516621 C5.91276513,3.71429026 5.7844714,3.7094565 5.52550814,3.70099743 C4.52172855,3.79646411 3.6771282,4.27379754 3.04397491,5.11728799 C2.58425574,5.73117503 2.14354304,6.8103111 1.84894264,8.2338523 C1.61373748,9.37945252 1.56740919,10.7329043 1.57216081,12.1238176 C1.57572452,12.8935933 1.60542214,14.1745387 1.69926662,15.9267753 C1.80142644,17.0590827 1.85131845,17.627049 1.95347826,18.7605649 C2.05207436,19.7043558 2.10196637,20.175647 2.20056247,21.1194379 C2.53436373,23.6692443 2.88004404,26.2093832 3.60229019,28.6455963 C4.01449318,30.0304674 4.49797045,31.1929858 4.9755082,32.0981066 C5.45660966,32.9996022 6.0541258,33.7162065 6.7644929,34.2539619 C7.53663106,34.8364295 8.33015149,35.0926186 9.15455746,35.0152785 C10.6536934,34.8714743 12.3417062,33.7331247 12.5840388,32.53677 C12.693326,31.991764 12.3999135,30.7168608 12.156393,29.5011711 C12.0328509,28.8909094 11.8653563,28.2709802 11.6622246,27.769478 C11.4769114,27.3102711 11.2250756,27.0710002 10.9946221,27.0927521 C10.671512,27.1567994 10.5052053,27.1882188 10.1797193,27.2522661 C9.81978418,27.3211471 9.64041054,27.3525665 9.27928747,27.422656 C8.61643656,27.4842864 8.26362882,27.2728095 8.21967634,26.7882255 C8.19473034,26.5598305 8.58079942,26.3036414 9.37194405,26.0293257 C10.1619008,25.7525932 10.833067,25.5930792 11.3818791,25.5447417 C11.8451619,25.5036547 12.2003455,25.6389999 12.443866,25.9495688 C12.6873865,26.261346 12.8323109,26.687925 12.8774513,27.2317226 C12.9273433,27.8625278 13.1577968,29.1591829 13.6198918,31.0213874 C14.0095246,32.5838991 14.2779911,33.8648445 14.3563928,34.8110523 C14.3920299,35.2678423 14.2257233,35.5131554 13.8598486,35.5421579 C13.180367,35.600163 12.8156802,35.3161798 12.7622245,34.6853746 C12.7752914,34.6309949 12.781231,34.6068261 12.79311,34.5524463 C12.7907342,34.5186101 12.7871705,34.5029003 12.7859826,34.4678556 C11.2488337,35.5530339 9.86611247,36.1620872 8.62712771,36.2793057 C6.11114524,36.5161598 4.33641539,34.2334184 3.44548675,32.1307345 Z" id="Fill-6"></path>
                    <path d="M19.8182566,13.9640791 C20.2926475,13.4383828 20.6537829,12.9912137 20.8225977,12.6509289 C20.9946178,12.3008282 21.114284,11.7216897 21.2040336,10.987678 C21.2948517,10.2558476 21.3236998,9.60363506 21.2905779,9.03322179 C21.226471,7.97201317 20.9401269,6.88135683 20.5234322,5.80596968 C20.2862368,5.18974884 19.9753185,4.66514314 19.5682398,4.28777605 C19.1611611,3.91368092 18.7252344,3.73917591 18.2593911,3.7718956 C18.2262692,3.77407691 18.2102425,3.77516757 18.178189,3.77734888 C18.1514778,3.80461529 18.1119453,3.82097513 18.0574544,3.82642841 C18.3010605,7.47576454 18.5446667,11.1229193 18.7872044,14.7744368 C18.9998255,14.7613489 19.3438657,14.4886848 19.8182566,13.9640791 M24.6198616,31.4080367 C24.3997614,30.7351017 24.2875743,30.3991796 24.0653372,29.7240633 C23.3462717,27.7488846 22.6945185,25.7246265 22.1271726,23.7200001 C21.8760873,22.8343872 21.5277733,21.5866763 21.1132155,20.0030433 C20.6324139,18.163106 20.1932818,16.6678162 19.7990245,15.525899 C19.645168,15.630602 19.5693082,15.6829535 19.4154517,15.7865659 C19.2145835,15.8956315 19.1152179,15.9458017 18.9143497,16.0537767 C19.2722797,21.0348042 19.6270044,26.0169224 19.983866,30.9979499 C19.9998928,31.2313503 20.0073719,31.3480506 20.0233986,31.5792697 C20.0565205,32.0984221 19.8449678,32.3732675 19.3866036,32.4048966 C19.1825301,32.4201658 19.0126469,32.3656329 18.876954,32.2456607 C18.7412611,32.1256885 18.6664697,31.9762686 18.6536484,31.794129 C18.6365532,31.5618192 18.6280056,31.4462096 18.6130473,31.2128092 C18.4559855,28.5974153 18.2989236,25.9798401 18.1439987,23.3644461 C18.0702758,21.8560684 18.0328801,21.1024249 17.9602256,19.5940472 C17.7753842,15.7320331 17.5819951,11.8711096 17.3180884,8.01236746 C17.1791902,6.00883176 17.111878,5.00869989 16.9729798,3.00298287 C16.956953,2.76958242 17.1952169,2.63652234 17.6888399,2.602712 C18.4025631,2.5525418 19.0788906,2.68887385 19.7167541,3.01279878 C20.3556859,3.33345175 20.8696094,3.80025266 21.2617298,4.39684168 C22.0641342,5.61837678 22.5171561,6.9871505 22.600495,8.48789362 C22.6667388,9.68107166 22.4818973,11.016035 22.016054,12.4208004 C21.8878403,12.815618 21.7040672,13.2780563 21.4946514,13.7982994 C21.2863041,14.3185424 20.9411954,14.7493517 20.9176895,14.8671426 C20.6131819,16.3744296 22.9103449,20.8962908 23.8623321,23.9304968 C24.5963558,26.2252377 25.3261057,28.5243413 26.049445,30.8234449 C26.0782931,30.9008815 26.0985936,31.0426668 26.1082096,31.2509822 C26.1220994,31.4822013 26.0857722,31.6872447 26.0067071,31.8606591 C25.925505,32.0318921 25.7962228,32.1235072 25.617792,32.1355045 C25.1081423,32.1605895 24.7769235,31.9195545 24.6198616,31.4080367" id="Fill-8"></path>
                    <path d="M34.180106,31.6745163 C34.4754736,31.137657 34.6920764,30.388216 34.8446829,29.4478116 C35.1686026,27.4481011 35.4058812,25.4519936 35.4492017,23.5567725 C35.4836613,22.0326688 35.4679084,20.5133692 35.4413253,19.0565231 C35.4403407,18.9880645 35.4393562,18.9532347 35.4383716,18.8847761 C35.3940665,17.1709101 35.3714216,16.3133766 35.326132,14.6007116 C35.2493364,13.0597936 35.0809769,11.0396656 34.7728102,8.61599241 C34.5552228,6.89011612 34.0993723,5.0921782 33.428888,3.29664233 C33.166011,2.59163928 32.8164927,2.04276979 32.3911635,1.65844104 C31.9648498,1.27531332 31.5119529,1.09035511 31.032473,1.10957155 C30.6012365,1.12638593 30.2310425,1.37139551 29.9169684,1.8409972 C29.6028943,2.31300094 29.3547856,2.96876187 29.1834725,3.80347587 C28.7857109,5.72992372 28.618336,7.54467602 28.602583,9.1516506 C28.5887992,10.532832 28.5819073,11.9968844 28.6311352,13.4813542 C28.6596874,14.3208723 28.6724867,14.7400308 28.7000543,15.5783479 C28.796541,18.0224385 29.090924,20.4377045 29.4059827,22.8373571 C29.6491686,24.6749289 29.9494589,26.2843056 30.2743631,27.6450695 C30.6002519,29.0010294 31.0305039,30.1456085 31.5119529,31.0643944 C32.0150623,32.0228142 32.5624767,32.5224416 33.1738874,32.5008231 C33.5499887,32.4900138 33.8857231,32.2137775 34.180106,31.6745163 Z M27.5146461,13.3240196 C27.4920012,12.638233 27.4801865,12.2959402 27.454588,11.6101536 C27.3709006,9.21170197 27.4270204,7.11711029 27.6101482,5.33718778 C27.724357,4.22143338 27.8966547,3.29303925 28.1378715,2.56761874 C28.3790883,1.83979617 28.7561742,1.25369483 29.1618122,0.802108552 C29.5743421,0.340914054 30.1256948,0.0286469463 30.8089783,0.00342537222 C31.4154662,-0.0217962019 31.977649,0.0923013952 32.4886348,0.344517136 C32.9996206,0.599134932 33.4416873,0.937824641 33.7616688,1.35578215 C34.0462061,1.72810063 34.3100677,2.26856293 34.5493154,2.92072077 C34.786594,3.56927554 34.9726755,4.19260872 35.1095291,4.78951931 C35.2453982,5.59180557 35.310379,5.9929487 35.444279,6.79643599 C36.001539,11.0973149 36.4682196,15.3981938 36.5410769,19.756722 C36.5410769,19.8083662 36.5420615,19.8359898 36.5430461,19.8864329 C36.5647063,21.3132534 36.5568299,22.6331825 36.5302468,23.8294057 C36.5007101,25.2550251 36.3855167,26.7707216 36.2073117,28.3392633 C36.1206705,29.1055188 36.0005544,29.7877023 35.8331795,30.3641954 C35.6658046,30.9406886 35.4413253,31.5171817 35.1754945,32.0960769 C34.6979837,33.1265583 34.0087929,33.686237 33.1285977,33.7030514 C27.5107078,33.8231542 27.6967894,17.3222396 27.5146461,13.3240196 Z" id="Fill-10"></path>
                    <path d="M47.4147556,33.0797321 C47.5734371,32.8215274 47.6527778,32.8134686 47.6527778,33.0555556 C47.6527778,33.6994265 47.5757652,32.5455243 47.6527778,32.4074074 C47.6807768,32.357193 47.6807768,32.2667392 47.6527778,32.136046 C47.4147556,31.7592593 47.2725608,28.8133596 46.9486037,26.7449243 C46.7371661,25.6597453 46.6036266,24.8731404 46.5405663,24.3935032 C46.2512306,22.1775795 45.9470572,19.9388731 45.658958,17.7193522 C45.2459746,14.528566 44.7810592,11.3305853 44.3124344,8.14099822 C44.2530835,7.74889484 44.223408,7.55104452 44.1628206,7.15894114 C43.6731757,3.93577946 43.085849,2.01962903 43.083376,1.86014968 C43.0796666,1.78460683 43.3183067,1.58435831 43.5074877,1.47044449 C43.6966687,1.35653067 43.8870862,1.29777511 44.0762672,1.29657602 C44.5535474,1.29417784 44.8799774,1.36372522 45.0543207,1.50521818 C45.2299004,1.64671114 44.9405648,2.27383672 44.9405648,2.27383672 L44.9418013,2.65874554 L46.177042,3.08562261 L46.177042,3.5580652 C46.2821425,12.2910587 48.3359311,29.3433586 48.3359311,29.3433586 C48.535004,27.0782722 48.426194,24.8095884 48.5856995,22.5409047 C48.6203209,22.0444802 48.638868,21.7974671 48.6734894,21.3022417 C48.882454,17.6797821 49.0085747,15.7636317 49.0308313,15.5681796 C49.1730262,14.4290413 49.4141392,12.4613299 49.8963653,9.83171919 C49.9618986,9.32210471 50.0286684,8.80409658 50.0942017,8.29448211 C50.1486067,7.54025268 50.1758092,7.14695021 50.2351601,6.37473439 C50.2635991,6.03419202 50.2883286,5.74281244 50.3044028,5.49939659 C50.3192405,5.25957801 50.3427336,5.08091317 50.3724091,4.96580025 C50.3921927,4.74276898 50.4020845,4.63365152 50.4193952,4.40942115 C50.4193952,4.38184202 50.4441247,4.33867467 50.4849285,4.28231731 C50.5306781,4.22595994 50.6098127,4.13602798 50.6815284,4.11324521 C50.9609722,4.0305078 51.3356248,4.26193273 51.4567995,4.4190139 C51.5198599,4.50534858 51.5989944,4.60007692 51.6249604,4.70080073 C51.6533994,4.80152453 51.6645277,4.92023472 51.6645277,5.06412587 C51.6966761,5.21760976 51.7139868,5.2955508 51.7448987,5.45023378 C52.406414,9.37606389 52.9108967,13.3426632 53.4240347,17.2852806 C53.9668482,21.4761102 54.5331548,25.694519 54.8682401,29.9213214 C54.9486111,29.9213214 54.9127533,29.9213214 54.9931243,29.9225205 C55.6027075,24.1764674 56.230838,18.4328125 56.8738061,12.6915557 C56.9566501,11.6087748 57.1952902,9.88807655 57.5452132,7.5714291 C57.8988457,5.23439706 58.0781349,3.29186658 58.1139927,1.80738959 C58.1003915,1.6371184 58.0942091,1.55198281 58.0830808,1.38051252 C58.0867902,1.22463045 58.0880267,1.1478885 58.0917361,0.995603706 C58.1003915,0.622685819 58.1956002,0.363681755 58.37118,0.211396959 C58.5504692,0.0591121621 58.8398048,-0.0116343183 59.2466058,0.0015557035 C59.4209491,0.00515298216 59.6002383,0.0818949269 59.7869463,0.229383352 C59.969945,0.379269963 60.0614443,0.53994841 60.0552619,0.710219599 C60.0490795,0.994404613 59.560671,1.43926807 59.5557251,1.50881546 C59.5520157,1.5184082 59.5965289,1.62272929 59.5915829,1.76662043 C59.586637,1.93809072 59.560671,2.11435737 59.5124484,2.29901767 C59.4654623,2.4800807 59.4135302,2.62277275 59.3937466,2.70071379 C58.560361,5.98742739 58.3897271,10.229818 57.9470683,14.0045624 C57.5946723,16.9483355 57.2459857,19.8909094 56.9010086,22.8358815 C56.7390301,24.1836619 56.6561861,24.8575521 56.497917,26.2065316 C56.2605134,27.9308272 56.145521,28.7917759 55.9142998,30.5160715 C55.8141451,31.3866129 55.7646861,31.8230827 55.6657679,32.6924251 C55.6595855,33.0353656 55.606417,33.2919715 55.5074988,33.4598445 C55.4110536,33.6301157 55.2144537,33.7104549 54.9189357,33.7032604 C54.4886416,33.6948667 54.2438191,33.4994146 54.1609751,33.1768586 C54.1189349,33.0077865 54.0632935,32.601294 54.0187803,31.9753675 C54.0064155,31.7175625 54.0002331,31.5892596 53.9891048,31.3326537 C52.9690111,23.5205636 52.1739563,15.6725006 51.2935846,7.841225 C51.242889,7.8064513 51.216923,7.789664 51.1662274,7.75369121 C51.154687,7.76488275 51.1402614,7.79366098 51.1229507,7.8400259 C50.3501525,15.5322068 49.6107391,23.2267858 48.9047106,30.9273603 C48.8960553,31.1899617 48.882454,31.6180378 48.8750352,31.8794401 C48.8812176,33.0437593 48.6499963,33.6253193 48.1838444,33.6241202 C47.6682335,33.6193239 47.4135192,33.6193239 47.4135192,33.6193239 L47.4147556,33.0797321 Z" id="Fill-12"></path>
                    <path d="M64.0954472,33.274318 C64.0047369,33.0960138 63.9659869,32.8764692 63.9730324,32.6156841 C63.9818392,32.3391306 63.9871233,32.2008539 63.9950494,31.9255133 C64.0082597,31.5094701 64.0135438,31.3008421 64.026754,30.8860119 C64.0839983,29.0714329 64.0813563,27.0021336 64.0584586,24.7375487 C64.0337995,22.3310482 64.0690267,20.259323 64.1165836,18.5890855 C64.2037711,15.5809599 64.2178621,12.5425104 64.2275496,9.54287551 C64.2372371,6.54081468 64.2108166,3.50236522 64.2971235,0.491813712 C64.3015269,0.347472201 64.3552485,0.227389767 64.4600497,0.132779365 C64.5657316,0.0369560093 64.6872657,-0.00549737624 64.8220101,0.000567393121 C65.229766,0.0260394245 65.4252775,0.255287706 65.4111866,0.687099285 C65.285249,4.67407867 65.1610728,8.67561349 65.1249648,12.6710835 C65.0976637,15.2558883 65.0668398,17.8370541 65.0368966,20.4218588 C64.9972659,21.6323868 64.9972659,23.6119275 65.0333739,26.358055 C65.0395387,28.5061964 65.0421807,29.5832994 65.0457034,31.7326537 C65.0421807,31.8199863 65.1011864,31.8454584 65.1372944,31.8660786 C65.154908,31.8794211 65.2940559,31.9218745 65.5468117,31.9376429 C66.3314996,31.9897999 66.7225226,32.0164849 67.5072105,32.0759196 C67.7811027,32.0965398 67.9070403,32.3646026 67.8867846,32.8849598 C67.8779778,33.1154211 67.8383471,33.3070678 67.7696538,33.4611129 C67.6991993,33.6151581 67.6014435,33.6879353 67.4755059,33.6770187 C67.3856764,33.6879353 67.3434036,33.6927871 67.253574,33.7037037 C67.1531762,33.6976389 67.1029773,33.6927871 67.0016989,33.6842964 C66.560477,33.6818705 65.7088572,33.6333524 64.4486008,33.5569363 C64.3015269,33.5448067 64.1843961,33.4514093 64.0954472,33.274318" id="Fill-14"></path>
                    <path d="M74.7542196,31.973482 C74.5074564,31.8388955 74.398032,31.6047368 74.419247,31.2666293 C74.4415785,30.9701013 74.4493945,30.8212902 74.4694929,30.5258564 C74.4549774,30.3168644 74.4572105,30.0816116 74.4784255,29.820098 C74.4806586,29.7894604 74.4806586,29.7741416 74.4828918,29.743504 C74.6526112,27.4697581 74.7363544,26.3339794 74.908307,24.0591393 C75.2566785,18.6942807 75.6061666,13.3283279 75.9523049,7.96565768 C76.0661956,6.30138072 76.1063923,4.83077702 76.1588714,3.63481731 C76.1733869,3.32953574 76.2694123,3.06802214 76.427966,2.86997209 C76.5842866,2.67082783 76.7774541,2.5789151 77.0052355,2.59423389 C78.0704484,2.66426264 78.6030548,2.70146541 79.6671512,2.77805935 C80.0702349,2.80760273 80.3672439,2.8568417 80.5648777,2.92139945 C80.8417884,3.01987737 80.9668449,3.254036 80.9411636,3.61731013 C80.9232984,3.82411377 80.8250398,3.98824365 80.6419214,4.10313457 C80.4621528,4.22021388 80.2701019,4.28586583 80.0702349,4.29571362 C79.7776921,4.27492384 79.6325373,4.26398185 79.3422277,4.24319206 C79.0708999,4.20817769 78.9335611,4.1906705 78.6633499,4.15456193 C78.3886724,4.12064175 78.2535668,4.10204037 77.9800058,4.06921439 C77.7801388,4.0549898 77.6428,4.07796798 77.5691061,4.13924314 C77.4920624,4.19832989 77.4462828,4.319786 77.4328839,4.50142307 C77.3469076,5.72145516 77.2854959,6.82769053 77.243066,7.81465819 C77.1503903,9.13973341 77.1023776,9.80062971 77.0097018,11.1257049 C76.8712465,13.0733795 76.8031354,14.0472167 76.6657966,15.9937971 C76.6613303,16.0474129 76.6870115,16.0747678 76.7406071,16.0791446 C76.7595889,16.0802388 76.7674049,16.081333 76.783037,16.081333 C76.8020188,16.0824272 76.8076017,16.0835214 76.8254669,16.0846156 C77.5199767,16.0802388 78.2703154,16.1054054 79.0753662,16.1644922 C79.5186466,16.1962239 79.7274462,16.3964624 79.6984153,16.7608307 C79.6760838,17.0179675 79.6169053,17.190851 79.5119472,17.2729159 C79.4081057,17.3593577 79.2450857,17.3899952 79.0240037,17.3757707 C78.079381,17.3057419 77.6081862,17.2707275 76.6635634,17.2083582 C76.5530225,17.2006988 76.493844,17.2641623 76.4849114,17.3921836 C76.3565052,19.6998497 76.2906273,20.8542299 76.1599879,23.1629901 C76.0762448,25.2310266 75.9500718,27.2968747 75.8026838,29.3616285 C75.7613705,29.9382715 75.7423888,30.2249517 75.7021921,30.8015946 C76.3900025,30.8486452 76.7339077,30.8716234 77.4228347,30.9219565 C78.0961296,30.9711955 78.4322188,30.9963621 79.1043972,31.0477895 C79.2473188,31.0587314 79.3198962,31.0642024 79.465051,31.0751444 C79.9440618,31.111253 80.1718432,31.2983611 80.1416957,31.6364686 C80.1081984,32.0522643 79.9697431,32.2897055 79.7229799,32.3466039 C79.3958233,32.4253862 78.7381605,32.4264804 77.7555741,32.3564517 C77.0856289,32.3072127 76.7517729,32.2831403 76.0795945,32.237184 C75.4397968,32.1956044 74.9987496,32.1058801 74.7542196,31.973482" id="Fill-16"></path>
                    <path d="M89.61713,15.3987403 C90.2770258,14.9136571 90.7870036,14.491321 91.0509619,14.1474187 C91.3238897,13.797483 91.5724718,13.1869056 91.8223353,12.4037738 C92.065792,11.6194353 92.2246795,10.9123239 92.2925911,10.2824397 C92.4194449,9.11317199 92.2836217,7.86788374 91.9953177,6.62018214 C91.8300234,5.90462406 91.5635023,5.27594657 91.1509073,4.78845 C90.7408749,4.30578014 90.2552428,4.03548501 89.6991364,3.98601135 C89.6594146,3.98118465 89.6414756,3.97997798 89.6004724,3.97756463 C89.5645946,4.00411147 89.5146219,4.01376487 89.449273,4.0077315 C89.0494914,8.03681819 88.6458658,12.0671116 88.2435216,16.0974049 C88.4972291,16.1227451 88.9533901,15.8874435 89.6158486,15.3987403 L89.61713,15.3987403 Z M92.0068498,35.320939 C91.8748707,34.5450472 91.806959,34.1577046 91.6698545,33.3830195 C91.1919105,31.0951643 90.7998171,28.7662822 90.5063877,26.4723937 C90.3756898,25.458787 90.2014261,24.0337042 90.0092234,22.2273122 C89.7875497,20.132525 89.5453743,18.4214603 89.2942295,17.1001516 C89.0956201,17.1846188 88.9956747,17.2280591 88.7919399,17.3149397 C88.5331069,17.3945802 88.4062532,17.4368138 88.1474202,17.517661 C87.6297544,23.0225108 87.1082445,28.5249473 86.59186,34.0310037 C86.5636702,34.2880254 86.5521381,34.415933 86.5265111,34.6729547 C86.4675689,35.2449185 86.1664514,35.5055602 85.6180331,35.4572932 C85.3720137,35.4367797 85.1810924,35.3474858 85.0452692,35.1918248 C84.9056019,35.0361637 84.8453784,34.8587826 84.8645987,34.6584746 C84.8902257,34.4002462 84.9004765,34.274752 84.9273849,34.015317 C85.2336278,31.1301579 85.5398707,28.2474121 85.8525204,25.3610463 C86.0511298,23.6994553 86.1510752,22.8704698 86.3484033,21.2100855 C86.8622251,16.9601773 87.3632333,12.7078558 87.7771098,8.44829425 C87.9923768,6.23283957 88.1000102,5.12752558 88.3139959,2.91448425 C88.3409043,2.65746255 88.6471472,2.55368853 89.23785,2.60557554 C90.0925112,2.68038937 90.86901,2.95309784 91.5647837,3.42128761 C92.2605573,3.88947738 92.7782232,4.49160804 93.1318761,5.21319948 C93.8545581,6.69378929 94.1287673,8.26849973 93.9442527,9.92285069 C93.79946,11.2369194 93.3279228,12.6620022 92.5091395,14.1136318 C92.2797776,14.5190745 91.9773787,14.9920909 91.6301326,15.5230278 C91.2828864,16.0503446 90.795973,16.4594073 90.744719,16.5849015 C90.1014807,18.1728853 91.9658466,23.5329342 92.5206716,27.0153973 C92.9588937,29.6556014 93.3881463,32.2994256 93.8097109,34.9432498 C93.8302125,35.0325437 93.8276498,35.1906181 93.79946,35.4198863 C93.769989,35.6781147 93.6905452,35.8929027 93.5624101,36.0642506 C93.434275,36.2392184 93.2625739,36.3152389 93.0485883,36.2923121 C92.4412279,36.233185 92.0939817,35.9085895 92.0068498,35.320939 Z" id="Fill-18"></path>
                    <path d="M37.0307876,61.1923099 C36.8359686,59.0040082 36.5133651,56.8055545 36.1677185,54.6533484 C35.7801753,52.2360645 35.2732269,49.7465893 34.8301708,47.382321 C34.6667743,46.5126402 34.4646234,45.5064726 34.1703,44.4439054 C34.0351836,43.8483264 33.9671017,43.5494089 33.8309379,42.9560858 C33.8351276,42.9797736 33.7879939,42.8421588 33.6926793,42.5421133 C33.6361189,42.3616348 33.6088861,42.2702675 33.550231,42.088661 C33.3533171,42.6853681 33.190968,43.5031613 33.0673731,44.5386566 C32.9427309,45.574152 32.8442739,46.8002778 32.7541963,48.1865783 C32.5625196,51.1374017 32.3551316,54.1254488 32.0566186,57.0864241 C31.9770152,57.6334996 31.9382609,57.9076013 31.8628471,58.4546767 C31.6303212,59.8048815 31.5748082,60.8121771 31.6722177,61.4788195 C31.6837393,61.5701868 31.6921186,61.6153064 31.7036401,61.7089296 C32.9134033,61.8747443 34.2572354,61.8600804 35.7571322,61.6852418 C35.8513995,61.6739619 35.8995805,61.668322 35.9938478,61.6581701 C36.075546,61.6762179 36.1687659,61.6784739 36.2745547,61.664938 C36.8003565,61.6051545 37.0538307,61.4494918 37.0307876,61.1923099 Z M37.9284214,68.8445982 C37.7838782,68.7272872 37.7042748,68.5795204 37.6885636,68.3979139 C37.5136454,66.3675308 37.4256626,65.3523393 37.2528393,63.3208282 C37.2256066,63.0106308 36.5405978,62.7827767 35.1862916,62.6914095 C33.8330327,62.6000422 32.7175369,62.6406499 31.8586574,62.7827767 C31.8062867,62.7918006 31.7497263,62.9993509 31.6889763,63.4042995 C31.6303212,63.8069922 31.5842349,64.1081657 31.5643341,64.2920281 C31.4114116,65.6568968 31.3265711,67.1627642 31.2522047,68.7295432 C31.2343987,69.0814762 31.2249719,69.2574428 31.2082133,69.6082478 C31.1925021,69.8214381 31.0898555,69.947773 30.8971314,69.9838687 C30.7044072,70.0222204 30.5200623,69.9917646 30.3430494,69.8970134 C30.164989,69.8011342 30.0592002,69.6635194 30.0277778,69.4852969 C30.0361571,69.4525851 30.0413942,69.4367933 30.0497735,69.4018256 C30.0455838,69.3860337 30.0445364,69.3792658 30.0413942,69.3634739 C30.0665321,68.5671125 30.0801485,68.1655479 30.1105235,67.3703145 C30.2026959,66.110349 30.2760149,64.8808392 30.3179114,63.6896811 C30.3671399,62.3406044 30.4551227,61.4359559 30.5053985,61.0479271 C30.7578253,59.0006242 30.7546831,56.6690676 30.8772305,54.4796378 C30.9065581,53.9539942 30.9222693,53.6934284 30.9536917,53.1666568 C31.1013771,50.5925822 31.2406832,47.9632361 31.5842349,45.4421771 C31.6701229,44.8138863 31.8534203,43.8347905 32.1016574,42.5849769 C32.2063988,42.0604613 32.356179,41.4761621 32.5981317,40.9527745 C32.8149464,40.4857864 33.0610886,40.2274765 33.2559076,40.2060447 C33.7733301,40.1406213 34.1860112,40.2297325 34.4101578,40.4643546 C34.5934553,40.653857 34.9652872,41.9296144 35.4942313,44.2216913 C36.0284124,46.532944 36.5007961,48.8599886 36.9187143,51.2005692 C37.2790247,53.3268314 37.6267661,55.4564777 37.9619386,57.5906359 C38.0415421,58.7039627 38.2499774,60.3779007 38.565249,62.6158341 C38.8826155,64.8797112 39.0690552,66.5716971 39.1465638,67.6827679 C39.1518009,67.7459354 39.1528483,67.7752631 39.1570379,67.8395586 C39.1769388,68.1249402 39.1696069,68.4069378 39.1004776,68.6223841 C39.0376327,68.8299343 38.7946327,68.9607812 38.4311801,68.992365 C38.2405507,69.0115408 38.0708697,68.9607812 37.9284214,68.8445982 Z" id="Fill-20"></path>
                    <path d="M47.0608827,54.5928157 C47.0608827,54.5928157 47.227569,54.4626742 47.5258497,54.3269231 C47.5847539,54.2988754 47.7150951,54.1990254 47.8905543,54.0217637 C48.0384414,53.9151823 48.1111317,53.8624526 48.2590188,53.758115 C50.4196742,52.2446589 51.8371343,50.0255218 51.9637156,47.5573207 C52.0401657,46.1179107 51.7218325,44.7312305 50.9322658,43.4859108 C50.5161767,42.8284718 49.8519381,42.2933209 48.9758951,41.9006526 C48.0998521,41.5091061 46.0457256,41.1343883 45.8502138,41.3116501 C45.3489017,41.7660234 46.0482321,45.7286081 46.1948659,47.9320385 C46.3402465,50.1332251 46.4843737,52.3422651 46.4956532,54.552427 C46.5357582,54.5827185 46.5558107,54.5995472 46.5984222,54.6320825 C46.9067292,54.6062786 47.0608827,54.5928157 47.0608827,54.5928157 Z M45.3789804,68.6436113 C45.3689542,67.3556591 45.3438886,66.2079456 45.3037836,65.2015927 C45.2536524,63.808181 45.22984,63.1103533 45.1784555,61.7169416 C45.1646695,60.4637685 45.1584031,59.8354992 45.1471235,58.5823262 C45.104512,57.6511412 45.0819529,56.6032777 45.0669136,55.445467 C45.0255553,52.2491466 44.930306,49.042729 44.6896762,45.8464086 C44.6608507,45.2876976 44.6458114,45.010586 44.6144794,44.4529969 C44.4803784,42.9316875 44.4039283,41.6930993 44.3888889,40.7383543 C44.4578193,40.6732835 44.4929112,40.6441139 44.5630949,40.580165 C44.5981867,40.5274353 44.7272746,40.4612426 44.796205,40.3849527 C44.8375633,40.3344668 44.9453454,40.2626646 45.0857128,40.2267635 C45.1596563,40.207691 45.3000237,40.1863747 45.4967888,40.1852528 C46.865371,40.1807652 48.1086251,40.3995376 49.2064987,40.8393261 C50.3031191,41.275749 51.1829219,41.8759706 51.8321212,42.6254062 C53.1016942,44.0928639 53.6343384,45.7499244 53.5102636,47.5528331 C53.4275471,48.7117657 53.0791352,49.8819174 52.4913466,51.0700196 C51.9035581,52.2547561 51.0613537,53.3149607 50.0487032,54.2640962 C48.9784017,55.2693272 47.8366633,55.8852555 46.5896493,56.0625173 C46.6222346,57.7812827 46.6360206,58.6406655 46.6635928,60.358309 C46.6974314,61.1963755 46.7149773,61.6148478 46.7463093,62.4517923 C46.8403053,64.5665919 46.8941964,66.6858791 46.8766505,68.8006787 C46.8728906,69.2135414 46.8039602,69.5175789 46.6723658,69.7094254 C46.5407713,69.9023939 46.2851021,69.9988781 45.909118,70 C45.5632126,69.9988781 45.3865001,69.5489923 45.3789804,68.6447332 L45.3789804,68.6436113 Z" id="Fill-22"></path>
                    <path d="M59.1402382,54.7491137 C59.1402382,54.7491137 59.2886781,54.6362873 59.5438727,54.5358718 C59.5967417,54.5144348 59.7116301,54.4309432 59.8753207,54.271858 C60.0054597,54.1827251 60.0705293,54.1398511 60.2016851,54.0507182 C62.1161531,52.7915756 63.5181984,50.7358784 63.9035321,48.2875454 C64.1292421,46.8602914 64.0285876,45.4431918 63.5344658,44.1084554 C63.2731709,43.4044186 62.7983666,42.7962843 62.1344539,42.3054894 C61.4735913,41.812438 59.8610867,41.2065602 59.6841789,41.3600041 C59.2276754,41.7571531 59.3354468,45.7895688 59.2032743,48.0032229 C59.0690683,50.216877 58.932829,52.4339159 58.6878015,54.6430569 C58.7183028,54.6791613 58.7325368,54.6960853 58.7620214,54.733318 C59.0131492,54.7400876 59.1402382,54.7479854 59.1402382,54.7479854 L59.1402382,54.7491137 Z M56.1755071,68.577118 C56.3147966,67.2863839 56.4276516,66.1400676 56.5100052,65.1280148 C56.6299772,63.7368652 56.6899632,63.0373415 56.8089184,61.6394223 C56.9431244,60.3870492 57.0061605,59.7608626 57.1423998,58.5096178 C57.2125529,57.5776717 57.3142241,56.5272579 57.4341961,55.3719155 C57.7636106,52.1811847 58.0554069,48.9678887 58.2282478,45.7523361 C58.2668829,45.1938454 58.2862004,44.9129076 58.3268689,44.3532887 C58.3929551,42.8233626 58.4732753,41.5777591 58.5688462,40.6221194 C58.6328991,40.569091 58.6644171,40.5408844 58.7264365,40.4867277 C58.7640549,40.4393407 58.8738597,40.385184 58.9368958,40.3186164 C58.9765476,40.2723576 59.0721185,40.2125596 59.1890403,40.1956356 C59.2510597,40.184353 59.3669649,40.1775834 59.5245552,40.2001487 C60.6297207,40.3502078 61.6067805,40.7135088 62.4435342,41.2753843 C63.2792712,41.8361316 63.9208162,42.534527 64.3600356,43.3570315 C65.2171235,44.9636795 65.4570674,46.6797692 65.1500205,48.4658112 C64.9537952,49.6098709 64.5379601,50.7370067 63.9269165,51.8551164 C63.3158728,52.9698413 62.5157207,53.9311223 61.5905132,54.7626529 C60.6093864,55.6426988 59.6191093,56.1289806 58.5912139,56.160572 C58.4204063,57.8789182 58.3339858,58.7386554 58.1611449,60.4581298 C58.0909918,61.2953018 58.0564236,61.7138877 57.9872872,62.5533162 C57.8205465,64.6744526 57.6222877,66.795589 57.3681098,68.902058 C57.3162575,69.3138744 57.2257702,69.6094796 57.0976645,69.7854888 C56.9695589,69.961498 56.754016,70.0291938 56.4500192,69.9885763 C56.1714402,69.9490871 56.0799362,69.4808575 56.1755071,68.5759897 L56.1755071,68.577118 Z" id="Fill-24"></path>
                </g>
            </g>
        </g>
    </g>
</svg>