<?xml version="1.0" encoding="UTF-8"?>
<svg width="47px" height="33px" viewBox="0 0 47 33" version="1.1" xmlns="http://www.w3.org/2000/svg" xmlns:xlink="http://www.w3.org/1999/xlink">
    <!-- Generator: Sketch 52.2 (67145) - http://www.bohemiancoding.com/sketch -->
    <title>img-hop</title>
    <desc>Created with Sketch.</desc>
    <g id="Page-1" stroke="none" stroke-width="1" fill="none" fill-rule="evenodd">
        <g id="img-hop" fill="#FFFFFF" fill-rule="nonzero">
            <path d="M12.9,9.1 C12.9,9.1 13,9.1 13,9.1 C13,9.1 13.1,9.2 13.1,9.2 L13.2,9.3 L13.3,9.3 C14.1,9.5 14.9,9.5 15.4,9.6 C15.7,9.6 16.1,9.6 16.4,9.6 C16.7,9.6 16.9,9.6 17.2,9.6 L17.3,9.6 L17.4,9.6 C17.5,9.6 17.5,9.5 17.6,9.5 C17.6,9.5 17.7,9.5 17.7,9.5 L17.8,9.5 L17.9,9.5 C18.1,9.5 18.4,9.4 18.6,9.4 C18.8,9.4 18.9,9.3 19.1,9.3 C19.8,9.2 20.5,9 21.2,8.8 C21.5,8.7 21.8,8.6 22.1,8.4 C22.2,8.3 22.3,8.3 22.5,8.2 C22.6,8.2 22.7,8.1 22.8,8.1 L23.3,7.9 L22.9,7.6 C22.2,7.1 21.5,6.6 20.7,6.2 C20.6,6.1 20.5,6.1 20.4,6 C20,6.1 19.7,6 19.4,5.8 C19.1,5.7 18.8,5.6 18.6,5.5 C18.5,5.5 18.3,5.4 18.2,5.4 C18,5.3 18,5.2 18,5.2 C18,5.1 18,5 18,4.9 C18.3,4.5 18.9,4.4 19.5,4.4 C19.7,4.4 19.9,4.4 20.1,4.3 C21.1,4.2 22,3.9 22.9,3.6 C23.8,3.3 24.7,3 25.6,2.9 C26,2.8 26.4,2.8 26.7,2.8 L27.6,2.7 L26.9,2.3 C26.8,2.2 26.7,2.2 26.5,2.1 C26.5,2.1 26.4,2.1 26.4,2 L26.3,2 C26,1.8 25.6,1.7 25.3,1.6 C24.9,1.5 24.5,1.4 24.1,1.4 C23.9,1.4 23.6,1.4 23.4,1.4 C22.9,1.4 22.5,1.4 22.1,1.5 C21.5,1.6 21,1.8 20.4,2 L20.3,2.1 C18.9,2.6 17.7,3.2 16.7,3.9 C15.9,4.5 15.1,5.1 14.4,5.7 C14,6 13.8,6.2 13.5,6.4 C12.9,6.8 12.4,7.2 11.8,7.6 C11.6,7.7 11.3,7.8 11,8 L10.4,8.2 L10.8,8.5 C10.9,8.6 11,8.6 11.2,8.7 C11.6,8.9 12,9 12.5,9.2 C12.5,9.2 12.6,9.2 12.6,9.2 L12.7,9.1 C12.8,9.2 12.8,9.1 12.9,9.1 Z M34.5,10 C34.6,10 34.7,10.1 34.8,10.2 L35.3,11 L35.3,10 C35.3,10 35.3,10 35.3,10 C35.4,9.2 35.3,8.3 35.1,7.3 C35,6.9 34.8,6.4 34.6,6 C34.5,5.8 34.4,5.6 34.3,5.5 C34.3,5.5 34.3,5.4 34.2,5.4 C34.2,5.4 34.1,5.3 34.1,5.3 L34,5.2 L34,5.1 C33.9,5.1 33.7,4.9 33.8,4.7 C33.8,4.6 34,4.5 34.1,4.5 C34.1,4.5 34.2,4.5 34.2,4.5 C34.5,4.7 34.7,5 34.9,5.4 C35.1,5.9 35.3,6.4 35.4,6.9 C35.7,7.9 35.8,8.9 35.7,9.7 L35.7,10.1 L36.1,9.9 L36.2,9.8 C36.4,9.7 36.7,9.6 36.9,9.4 C37,9.3 37.2,9.2 37.3,9.1 C37.3,9.1 37.3,9.1 37.3,9.1 L37.4,9 L37.4,8.9 C37.4,8.8 37.4,8.6 37.4,8.5 C37.4,8.5 37.4,8.4 37.4,8.4 C37.4,8.1 37.4,7.8 37.3,7.5 C37.2,7 37.1,6.5 36.9,6 C36.7,5.6 36.4,5.3 36.2,4.9 C36.1,4.8 36.1,4.7 36,4.6 C35.8,4.3 35.6,4.1 35.4,3.8 C34.9,3.3 34.2,2.8 33.3,2.4 C32.7,2.2 32.2,2 31.7,1.9 C31.4,1.8 31.1,1.7 30.7,1.6 L29.9,1.4 L30.4,2.1 C30.9,2.7 31.2,3.2 31.4,3.7 C31.8,4.4 32,5.2 32.2,6 C32.3,6.2 32.3,6.4 32.3,6.5 C32.4,6.7 32.4,6.9 32.5,7.1 C32.6,7.5 32.8,7.8 33,8.1 C33.2,8.4 33.4,8.7 33.6,9 L33.7,9.1 C33.8,9.2 33.9,9.3 34,9.5 L34,9.6 L34,9.7 L34.5,10 C34.4,10 34.4,9.9 34.3,9.9 L34.2,9.8 C34.2,9.8 34.2,9.8 34.2,9.8 L34.4,9.6 L34.5,9.5 C34.5,9.5 34.5,9.5 34.5,9.5 L34.5,9.7 L34.4,9.8 L34.5,10 Z M27.6,3.4 C27,3.4 26.3,3.5 25.5,3.6 C24.8,3.7 24.1,3.9 23.4,4.1 C23.2,4.2 23.1,4.2 22.9,4.3 C22,4.6 21.1,4.8 20.2,5 L19.3,5.1 L20,5.5 C20.3,5.6 20.6,5.8 21,6 C21.8,6.5 22.6,6.9 23.2,7.4 C23.4,7.5 23.6,7.7 23.7,7.8 L23.8,7.8 C23.8,7.8 23.9,7.8 23.9,7.9 C23.9,7.9 23.9,7.9 24,8 L24,8.1 L24.1,8.2 C24.2,8.3 24.3,8.4 24.4,8.4 C24.6,8.5 24.8,8.7 25,8.8 C25.3,9.1 25.6,9.4 25.8,9.6 C26.1,10 26.3,10.3 26.6,10.5 C26.9,10.8 27.2,11 27.6,11.2 C28,11.4 28.3,11.5 28.6,11.5 C28.7,11.5 28.7,11.5 28.7,11.6 L28.8,11.8 L29,11.7 C29.5,11.4 30.1,11.2 30.7,11.1 C31.3,11 31.9,10.9 32.4,10.9 L32.5,10.9 L32.6,10.4 C32.5,10.4 32.4,10.3 32.3,10.3 C32.2,10.3 32.2,10.2 32.1,10.2 C32.3,10 32.2,10 32,9.9 C31.6,9.7 31.2,9.5 30.9,9.3 L30.7,9.1 C30.3,8.8 29.9,8.5 29.5,8.2 C29.3,8.1 29.2,8 29,7.9 C28.7,7.7 28.4,7.5 28,7.3 C27.9,7.3 27.9,7.2 27.9,7.1 C27.9,7 27.9,6.9 28,6.8 C28.1,6.7 28.2,6.7 28.2,6.7 C28.3,6.7 28.3,6.7 28.4,6.8 C28.7,7 29.1,7.2 29.4,7.4 C29.6,7.5 29.8,7.6 30,7.7 C30.4,7.9 30.7,8.2 31.1,8.5 C31.2,8.6 31.3,8.6 31.3,8.7 C31.7,9 32.1,9.2 32.4,9.4 L33.4,9.9 L33,9.1 C33,9 32.8,8.8 32.8,8.8 C32.6,8.5 32.4,8.1 32.3,7.7 C32.2,7.4 32.1,7.2 32.1,6.9 C32,6.8 32,6.7 32,6.5 C31.8,5.6 31.5,4.9 31.2,4.3 L31.1,4.2 L30.9,4.2 C30.9,4.2 30.9,4.2 30.9,4.2 C30.6,4.2 30.3,4 30,3.9 C29.8,3.8 29.7,3.8 29.5,3.7 C29,3.5 28.6,3.5 28.1,3.4 C28,3.4 27.8,3.4 27.6,3.4 Z M34.2,12.4 C34.3,12.6 34.6,12.8 34.8,12.9 L34.9,12.9 C35,13 35.1,13 35.1,13.1 L35.3,13.2 L35.5,13.1 C35.7,13 35.8,12.9 36,12.8 C36.1,12.7 36.2,12.7 36.3,12.6 C36.5,12.4 36.8,12.3 37,12.1 L37.1,12 C37.4,11.8 37.6,11.6 37.9,11.4 C38.1,11.3 38.3,11.1 38.4,10.9 C38.5,10.8 38.5,10.8 38.6,10.7 C38.7,10.6 38.8,10.5 39,10.4 C39.1,10.3 39.2,10.2 39.4,10.1 C39.5,10 39.6,9.9 39.7,9.9 C39.9,9.8 40,9.6 40.2,9.5 C40.4,9.3 40.6,9.2 40.8,9 C41.1,8.7 41.5,8.5 41.8,8.2 C41.8,8.2 42,8.1 42.1,8 C42.2,7.9 42.3,7.8 42.4,7.7 C42.5,7.6 42.6,7.5 42.7,7.5 C42.8,7.4 42.9,7.4 43,7.3 C43.1,7.2 43.3,7 43.4,6.9 C43.5,6.8 43.5,6.8 43.6,6.7 C43.7,6.6 43.8,6.5 43.9,6.4 C44,6.1 44.1,6 44.2,5.9 C44.6,5.5 44.9,5 45.3,4.5 C45.6,4 46,3.4 46.2,2.8 L46.2,2.7 C46.3,2.5 46.4,2.2 46.4,2 C46.4,1.8 46.5,1.7 46.4,1.6 L46.2,1.6 L46,1.7 L45.9,1.7 L45.8,1.7 L45.8,1.6 L45.9,1.6 L45.9,1.5 L46.1,1.4 L46.2,1.3 C46.2,1.2 46.1,1.2 46.1,1.1 L46.1,1 L46.1,0.8 L45.8,0.8 L45.7,0.7 L45.6,0.9 L45.3,1.2 L45.4,1.2 C45.4,1.2 45.4,1.2 45.4,1.3 C45.2,1.7 45,2 44.8,2.3 C44.7,2.5 44.6,2.7 44.5,2.9 L44.3,3 C44.2,3.3 44,3.5 43.9,3.7 C43.8,3.8 43.7,3.9 43.6,4.1 C43.5,4.2 43.4,4.4 43.3,4.5 C43.1,4.7 42.9,5 42.7,5.2 C42.5,5.4 42.3,5.6 42.2,5.8 C42,5.8 41.9,5.9 41.8,6 C41.7,6.1 41.6,6.2 41.5,6.4 C41.3,6.6 41.1,6.8 40.9,7 C40.6,7.2 40.4,7.5 40.1,7.7 C40,8 39.8,8.2 39.6,8.4 C39.3,8.7 39,9 38.6,9.2 C38.5,9.3 38.4,9.4 38.2,9.5 C38.2,9.6 38.1,9.6 38,9.6 C37.6,9.9 37.2,10.2 36.7,10.4 C36.6,10.5 36.5,10.5 36.4,10.6 C36,10.8 35.5,11 35.1,11.3 C34.8,11.5 34.6,11.7 34.4,11.8 C34.4,11.8 34.3,11.9 34.3,11.9 C34.3,11.9 34.3,11.9 34.3,11.9 L34.7,12.3 C34.7,12.3 34.6,12.4 34.5,12.4 L34.3,12.3 C34.2,12.2 34.3,12.1 34.3,12 L34.2,12.1 L34.2,12.4 C34.2,12.4 34.2,12.4 34.2,12.4 Z M23.5,8.6 C23.3,8.7 23.2,8.7 23,8.8 C22.8,8.9 22.6,8.9 22.5,9 C22.1,9.2 21.5,9.4 20.9,9.6 C20,9.8 19.1,10 18,10.2 C17.9,10.2 17.8,10.2 17.8,10.2 L17.7,10.2 L17.6,10.3 C17.6,10.4 17.5,10.4 17.5,10.5 C17.5,10.6 17.4,10.7 17.4,10.7 C17.3,10.9 17.2,11.1 17.1,11.3 C17,11.4 17,11.5 16.9,11.7 C16.7,12.1 16.4,12.5 16.2,12.9 C16.1,13.1 15.9,13.3 15.8,13.5 L15.8,13.6 C15.5,14.2 15.1,14.8 14.7,15.4 C14.5,15.7 14.3,16 14.1,16.3 C14.1,16.4 14,16.4 14,16.5 L13.7,16.9 L14.3,17 C14.7,17.1 15.1,17.2 15.5,17.3 C15.6,17.3 15.9,17.4 15.9,17.4 C16.3,17.5 16.7,17.6 17.1,17.7 C17.1,17.7 17.2,17.7 17.2,17.7 C17.6,17.8 18,17.9 18.4,17.9 C18.6,17.9 18.8,18 19.1,18 C19.6,18.1 20.2,18.1 20.7,18.1 C20.9,18.1 21,18.1 21.2,18.1 C21.7,18.1 22.2,18 22.7,17.9 C23.1,17.8 23.5,17.8 23.9,17.8 C24.3,17.8 24.7,17.7 25.1,17.6 C25.2,17.6 25.2,17.6 25.3,17.5 C25.5,17.4 25.6,17.4 25.8,17.3 C25.8,17.3 25.9,17.3 25.9,17.3 C25.9,17.3 26,17.3 26,17.3 C26,17.3 26.1,17.3 26.1,17.2 L26.2,17.1 L26.2,16.8 C26.3,16.3 26.4,15.9 26.5,15.4 C26.8,14.4 27.3,13.4 28.1,12.6 C28.1,12.6 28.2,12.5 28.2,12.5 L28.5,12.2 L28.1,12.1 C27.9,12 27.7,11.9 27.5,11.8 C27.1,11.6 26.8,11.4 26.5,11.1 C26.1,10.8 25.9,10.5 25.6,10.2 C25.4,9.9 25.1,9.6 24.8,9.4 C24.6,9.3 24.4,9.1 24.3,9 C24.2,8.9 24.1,8.8 23.9,8.7 L23.8,8.6 L23.5,8.6 Z M37.7,14.5 C37.8,14.7 38,15 38.1,15.2 C38.5,15.9 39,17.1 39.1,18.3 C39.1,18.5 39.1,18.6 39.1,18.8 L39.1,19.5 L39.5,19 C39.6,18.9 39.6,18.9 39.7,18.8 C39.9,18.4 40.1,18.1 40.3,17.9 C40.5,17.5 40.7,17.1 40.8,16.7 C40.8,16.6 40.9,16.5 40.9,16.4 C40.9,16.3 40.9,16.2 41,16.2 C41,16.2 41,16.1 41,16.1 C41,16 41.1,15.9 41.1,15.7 C41.1,15.6 41.1,15.5 41.1,15.4 C41.1,15.3 41.1,15.3 41.1,15.2 C41.1,15 41.1,14.8 41,14.6 C40.9,14.3 40.8,13.9 40.7,13.5 C40.5,13.2 40.3,12.9 40.1,12.7 C40.1,12.7 40,12.6 40,12.6 C39.9,12.5 39.9,12.4 39.8,12.4 L39.4,12.8 C39.3,12.7 39.3,12.6 39.4,12.5 L39.6,12.3 L39.8,12.4 C39.8,12.4 39.8,12.4 39.8,12.4 C39.8,12.4 39.7,12.3 39.7,12.3 L39.6,12.3 L39.5,12.3 C39.5,12.3 39.5,12.3 39.5,12.3 C39.4,12.3 39.3,12.2 39.3,12.1 L39.1,11.8 L38.8,12 C38.7,12.1 38.5,12.3 38.4,12.3 C38.1,12.5 37.9,12.6 37.6,12.9 C37.6,12.9 37,13.4 37,13.4 L37.6,13.5 C38.1,13.6 38.6,13.7 38.9,14.1 C39.1,14.3 39.4,14.6 39.6,14.8 C39.7,14.9 39.7,15 39.8,15.1 C39.8,15.2 39.9,15.2 39.9,15.3 L40.4,15 C40.4,15 40.5,15.2 40.4,15.3 L40.2,15.4 C40.1,15.4 40,15.3 40,15.3 C40,15.3 40,15.3 40,15.3 C40,15.3 40,15.3 40,15.4 C40,15.4 40.1,15.5 40.1,15.5 C40.2,15.6 40.2,15.7 40.2,15.7 C40.2,15.8 40.1,15.9 40.1,15.9 C40,15.9 40,16 39.9,16 C39.8,16 39.7,16 39.6,15.9 C39.6,15.9 39.5,15.8 39.5,15.8 C39.5,15.8 39.4,15.7 39.4,15.7 C39.4,15.7 39.3,15.6 39.3,15.5 C39.3,15.4 39.2,15.4 39.2,15.3 C39.1,15.1 38.9,14.9 38.8,14.8 C38.7,14.7 38.7,14.7 38.6,14.6 C38.5,14.5 38.4,14.4 38.3,14.4 L38,14.8 L37.7,14.5 Z M9,19.5 C9,19.5 9,19.5 9,19.5 C9,19.5 9.1,19.5 9,19.5 L9.1,19.5 L9.2,19.5 C9.3,19.5 9.5,19.5 9.6,19.5 C9.9,19.5 10.1,19.5 10.4,19.5 C11.3,19.5 12.1,19.3 12.9,19 C13.1,18.9 13.2,18.9 13.4,18.8 C13.7,18.7 13.9,18.6 14.1,18.5 C14.1,18.5 14.2,18.5 14.2,18.5 C14.3,18.5 14.5,18.4 14.6,18.4 C14.7,18.4 14.7,18.4 14.8,18.3 L15.4,18 C15.4,18 14.6,17.8 14.6,17.8 C14.4,17.8 14.2,17.7 14,17.7 C13.7,17.6 13.3,17.6 13.1,17.4 C12.9,17.3 12.8,17 12.9,16.7 C13,16.5 13.2,16.3 13.3,16.1 C13.4,16 13.5,15.9 13.5,15.8 C14,15.2 14.4,14.5 14.8,13.8 L14.8,13.7 C14.9,13.5 15,13.3 15.2,13.1 C15.5,12.6 15.8,12.1 16.1,11.6 C16.3,11.3 16.4,11.1 16.5,10.8 L16.8,10.2 L16.3,10.2 C15.8,10.2 15.2,10.2 14.6,10.1 C13.9,10 13.4,9.9 12.8,9.8 L12.7,9.8 L12.8,10 C12.7,10.1 12.6,10.1 12.5,10.2 C12.4,10.3 12.3,10.4 12.2,10.4 C12,10.6 11.7,10.8 11.5,11 C11.4,11.1 11.3,11.2 11.2,11.3 C10,12.3 9,13.6 8.2,15.2 C8.1,15.4 8,15.6 7.9,15.8 C7.6,16.5 7.2,17.1 6.8,17.8 C6.7,17.9 6.6,18.1 6.6,18.2 C6.5,18.4 6.3,18.7 6.2,18.9 C6.2,18.9 6.2,19 6.1,19 L5.8,19.4 L6.4,19.4 C6.4,19.4 6.5,19.4 6.5,19.4 C6.8,19.4 7,19.4 7.3,19.4 C7.5,19.4 7.6,19.4 7.8,19.4 C8,19.4 8.1,19.4 8.3,19.4 C8.5,19.4 8.6,19.4 8.8,19.4 L9,19.5 C8.9,19.5 8.9,19.5 9,19.5 Z M36.2,14.7 C36.4,15 36.6,15.4 36.8,15.7 C37.1,16.3 37.3,17 37.5,17.7 C37.7,18.3 37.9,19 37.9,19.8 C37.9,20 37.9,20.2 37.9,20.3 L38.4,20.3 C38.5,19.4 38.5,18.5 38.3,17.7 C38.2,17.3 38.1,16.8 37.9,16.3 C37.7,15.9 37.5,15.3 37.2,14.9 C37.1,14.7 36.9,14.5 36.8,14.3 C36.9,14.4 36.9,14.5 36.9,14.5 L36.6,14.8 C36.6,14.8 36.6,14.8 36.6,14.8 L36.8,14.4 L36.5,14.7 L36.5,14.6 L36.5,14.7 L36.5,14.6 L36.6,14.3 L36.6,14.2 L36.6,14.1 L36.6,14.2 C36.7,14.2 36.7,14.2 36.7,14.3 C36.6,14.3 36.6,14.3 36.6,14.2 C36.6,14.2 36.5,14.2 36.5,14.2 L35.9,14.1 L36.2,14.7 Z M32.7,11.5 C32.6,11.5 32.5,11.5 32.5,11.5 C31.9,11.5 31.3,11.6 30.7,11.8 C29.7,12.1 28.8,12.7 28.1,13.6 C27.7,14.1 27.5,14.5 27.3,15 C27.1,15.5 27,16.1 26.9,16.6 L26.9,16.7 C26.7,17.8 26.5,18.8 26.1,19.7 C25.8,20.3 25.5,20.8 25.2,21.2 L24.9,21.6 L25.4,21.6 C25.4,21.6 25.5,21.6 25.5,21.6 C25.7,21.6 25.9,21.6 26.1,21.7 C26.3,21.7 26.6,21.8 26.8,21.8 C26.9,21.8 27,21.8 27,21.8 C27.6,21.8 28.3,21.7 29,21.4 C29.7,21.1 30.5,20.8 31.2,20.3 C31.6,20.1 31.9,19.9 32.2,19.6 C32.4,19.5 32.5,19.3 32.7,19.2 C32.8,19.1 32.8,19.1 32.9,19 L33,18.9 L33,18.6 C33,18.4 33,18.2 33.1,18 C33.1,17.6 33.2,17.2 33.2,16.8 C33.3,16.3 33.5,15.8 33.8,15.3 C34.1,14.9 34.4,14.4 34.7,14.1 C34.8,14 34.8,14 34.9,13.9 L35.2,13.7 L34.9,13.5 L34.8,13.4 L34.7,13.4 C34.6,13.3 34.5,13.3 34.5,13.2 L34.3,13.1 L34,13.4 C34,13.4 33.9,13.5 33.8,13.5 L33.7,13.5 C33.7,13.5 33.6,13.6 33.6,13.6 C33.5,13.7 33.4,13.8 33.3,13.9 C33.1,14.1 32.9,14.2 32.7,14.4 L32.6,14.5 C32,14.9 31.5,15.5 31,16 C30.5,16.6 30.1,17.3 29.7,17.9 C29.6,18 29.5,18.2 29.5,18.3 C29.4,18.5 29.3,18.7 29.2,18.8 C29.2,18.9 29.1,18.9 29.1,19 C29.1,19.1 29,19.1 29,19.2 C28.9,19.3 28.9,19.4 28.9,19.6 C28.9,19.7 28.7,19.9 28.6,19.9 C28.4,19.9 28.3,19.7 28.3,19.5 C28.3,19.2 28.5,18.9 28.7,18.6 C28.9,18.4 29,18.1 29.1,17.9 C29.2,17.8 29.2,17.7 29.3,17.6 C29.8,16.8 30.2,16.2 30.7,15.6 C31.2,15 31.8,14.4 32.4,14 C32.6,13.8 32.9,13.6 33.2,13.4 C33.3,13.3 33.5,13.2 33.6,13.1 L33.8,13 L33.7,12.8 C33.7,12.7 33.6,12.6 33.6,12.5 C33.6,12.4 33.6,12.3 33.6,12.1 L33.7,11.9 L33.5,11.8 C33.5,11.8 33.4,11.8 33.4,11.7 C33.2,11.5 32.9,11.5 32.7,11.5 Z M7.1,14.8 C6.9,14.9 6.7,15.1 6.5,15.2 C5.9,15.7 5.4,16.2 5.1,16.8 C5.1,16.9 5,17 5,17.1 C4.9,17.3 4.8,17.6 4.6,17.8 C4.5,18 4.4,18.1 4.3,18.3 C4.2,18.5 4.1,18.6 4,18.8 C3.8,19.1 3.7,19.4 3.5,19.7 C3.2,20 3,20.4 2.8,20.8 C2.7,20.9 2.6,21 2.5,21.1 C2.4,21.3 2.3,21.4 2.2,21.6 L1.9,22 L2.4,22 C2.4,22 2.5,22 2.5,22 C2.7,22 2.8,22 3,22 C3.2,22 3.5,22 3.7,22 C3.8,22 3.8,22 3.9,22 C4.7,22 5.4,21.9 6.1,21.6 C6.8,21.3 7.4,21 7.8,20.5 L8.2,20 L7.5,20 C7.4,20 7.2,20 7.1,20 C7,20 7,20 6.9,20 C6.8,20 6.7,20 6.6,20 C6.5,20 6.3,20 6.2,20 C6.1,20 6,20 6,20 C5.9,20 5.8,20 5.8,20 C5.5,20 5.4,20 5.2,19.8 C5,19.8 5,19.6 5.1,19.5 C5.2,19.2 5.3,19 5.5,18.8 C5.6,18.7 5.7,18.6 5.7,18.5 C5.9,18.2 6.1,17.9 6.2,17.6 C6.3,17.5 6.3,17.3 6.4,17.2 C6.7,16.7 7,16.2 7.2,15.7 C7.3,15.5 7.4,15.4 7.5,15.2 L7.1,14.8 Z M20,19 C19.9,19.6 19.7,20.2 19.4,20.8 C19.2,21.2 19,21.5 18.8,21.9 L18.8,22 C18.6,22.3 18.5,22.6 18.2,22.8 C18.1,22.9 18.1,22.9 18,23 L17.8,23.2 L18,23.4 C18.1,23.5 18.2,23.5 18.3,23.6 C18.7,23.9 19.1,24 19.5,24.2 C19.7,24.3 19.9,24.4 20.1,24.5 C20.8,24.9 21.5,25.1 22.1,25.3 C22.8,25.5 23.5,25.6 24.2,25.6 C24.4,25.6 24.5,25.6 24.7,25.6 C24.9,25.6 25.1,25.6 25.3,25.6 C25.5,25.6 25.8,25.6 26,25.5 C26.1,25.5 26.2,25.5 26.3,25.5 C26.4,25.5 26.5,25.5 26.6,25.5 C26.8,25.5 27.1,25.5 27.3,25.4 C27.5,25.4 27.6,25.3 27.8,25.2 C28,25.1 28.1,25.1 28.3,25 C29,24.8 29.5,24.5 30.1,24.1 L30.2,24 C30.4,23.9 30.5,23.7 30.7,23.6 C30.8,23.5 30.8,23.5 30.9,23.4 C31,23.3 31,23.3 31.1,23.2 C31.1,23.2 31.2,23.1 31.2,23.1 L31.3,23 L31.3,22.9 C31.3,22.9 31.3,22.8 31.3,22.8 C31.4,22.6 31.5,22.6 31.6,22.6 L31.8,22.6 L31.9,22.4 C32.1,21.8 32.2,21.2 32.3,20.4 L32.4,19.8 L31.9,20.2 C31.7,20.3 31.5,20.5 31.3,20.6 C30.8,20.9 30.2,21.2 29.5,21.6 C28.8,21.9 28.2,22.1 27.7,22.2 C27.4,22.3 27.1,22.3 26.7,22.3 C26.4,22.3 26.1,22.3 25.7,22.2 C25.5,22.2 25.2,22.2 25,22.1 C24.5,22.1 24,22 23.6,21.9 C23.5,21.9 23.4,21.8 23.4,21.6 C23.4,21.5 23.4,21.4 23.5,21.3 C24.6,20.5 25.2,19.3 25.5,18.5 C25.5,18.4 25.6,18.2 25.6,18 L25.7,17.5 L25.2,17.7 C24.9,17.8 24.5,17.9 24.2,18 C24,18 23.7,18.1 23.4,18.1 C23.2,18.1 23.1,18.1 22.9,18.1 C22.6,18.1 22.4,18.2 22.1,18.2 C21.9,18.2 21.7,18.2 21.5,18.3 C20.9,18.4 20.5,18.4 20,18.4 C20,18.4 19.9,18.4 19.9,18.4 L19.7,18.4 L20,19 Z M16.9,18.4 C16.7,18.5 16.5,18.6 16.3,18.7 C16.2,18.7 16.1,18.8 16,18.8 C15.7,18.9 15.4,19 15.1,19.2 C14.4,19.5 13.8,19.9 13.2,20.3 L13,20.4 C12.3,20.9 11.6,21.4 11,21.8 C10.2,22.4 9.6,22.8 8.9,23.2 L8.8,23.3 C8.5,23.5 8.2,23.6 7.9,23.8 L7.4,24 L7.9,24.3 C8,24.4 8.2,24.5 8.3,24.5 C8.5,24.6 8.7,24.7 8.9,24.8 C9.1,24.9 9.4,25.1 9.7,25.2 C10.6,25.7 11.6,25.8 12.5,25.9 C13.3,26 14.1,26.1 14.9,26.1 C15.1,26.1 15.2,26.1 15.4,26.1 C15.7,26.1 16,26 16.3,26 C16.5,26 16.7,25.9 16.9,25.9 C17.4,25.9 17.9,25.8 18.3,25.6 C18.5,25.5 18.7,25.5 18.9,25.4 C19.1,25.3 19.3,25.3 19.6,25.2 L20.1,25 L19.6,24.7 L19.5,24.6 C18.9,24.4 18.4,24.1 18,23.7 C17.7,23.4 17.6,23.2 17.6,23 C17.6,22.7 17.8,22.5 18.1,22.3 C18.1,22.3 18.1,22.2 18.1,22.2 C18.1,22.2 18.1,22.2 18.2,22.1 C18.2,22 18.3,22 18.3,21.9 C18.4,21.7 18.5,21.6 18.6,21.4 C18.8,21.1 19,20.8 19.1,20.4 C19.4,19.8 19.5,19.3 19.7,18.7 L19.8,18.4 L19.3,18.3 C18.7,18.2 18.1,18.2 17.5,18 L16.9,18.4 Z M34.8,14.9 C34.6,15.1 34.4,15.4 34.2,15.6 L34.2,15.7 C33.9,16.1 33.7,16.5 33.6,17 C33.5,17.6 33.4,18.3 33.4,18.9 L33.4,19 L33.4,19.1 C33.4,19.2 33.5,19.3 33.4,19.4 L33.3,19.5 L33.3,19.6 C33.3,19.9 33.2,20.2 33.2,20.5 C33.1,21.7 32.8,22.8 32.4,23.9 C32.2,24.4 32,24.8 31.8,25.5 C31.7,25.7 31.6,25.9 31.5,26 L31.3,26.5 L31.8,26.4 C31.9,26.4 32,26.4 32.1,26.3 C32.2,26.3 32.3,26.2 32.5,26.2 C32.5,26.2 32.6,26.2 32.6,26.2 C32.7,26.2 32.8,26.2 32.8,26.2 C32.9,26.2 33,26.1 33.1,26.1 C33.1,26.1 33.2,26.1 33.2,26 C33.3,26 33.4,25.9 33.5,25.9 C33.7,25.8 33.9,25.8 34,25.7 C34.6,25.5 35.1,25.2 35.5,24.9 C35.6,24.8 35.8,24.7 35.9,24.6 C36.2,24.4 36.6,24.1 36.9,23.8 C37.2,23.5 37.4,23.1 37.7,22.7 L37.9,22.4 L37.6,22.3 C37.5,22.3 37.4,22.2 37.4,22 C37.4,21.7 37.4,21.5 37.4,21.3 C37.4,21.2 37.4,21.1 37.4,21.1 L37.4,20.8 C37.4,20.5 37.4,20.2 37.4,20 C37.4,19.4 37.2,18.7 37,17.9 C36.9,17.5 36.8,17.1 36.6,16.7 L36,16.8 C36,17.5 36,18.3 36,19 C36,19.4 35.9,19.8 35.8,20.3 C35.7,20.5 35.7,20.7 35.7,20.9 C35.6,21.4 35.5,22 35.1,22.4 C35.1,22.4 35,22.5 35,22.5 C34.9,22.5 34.8,22.5 34.7,22.4 C34.6,22.2 34.7,22 34.8,21.9 C34.8,21.9 34.7,22 34.6,22 L34.4,21.9 L34.4,21.7 L34.6,21.8 L34.4,21.6 C34.4,21.6 34.5,21.6 34.5,21.6 L34.7,21.7 C34.7,21.8 34.7,21.8 34.7,21.9 C34.7,21.9 34.7,21.8 34.8,21.8 C34.9,21.7 34.9,21.5 34.9,21.4 C34.9,21.4 34.9,21.2 35,21.1 L35,21 C35,20.9 35,20.9 35,20.8 C35,20.6 35.1,20.5 35.1,20.3 C35.1,20.1 35.2,20 35.2,19.8 C35.3,19.4 35.3,19 35.3,18.7 C35.3,17.9 35.3,17.2 35.3,16.5 C35.3,16.3 35.3,16.2 35.3,16 C35.3,15.8 35.3,15.6 35.3,15.4 C35.3,15.3 35.3,15.2 35.3,15.1 L35.2,14.5 L34.8,14.9 Z M11.7,20 C11.6,20 11.5,20 11.4,20 C10.8,20.1 10.2,20.1 9.5,20.1 L9.2,20.1 L9.1,20.1 C9.1,20.1 9,20.1 9,20.1 L8.9,20.1 L8.8,20.2 C8.7,20.3 8.6,20.4 8.5,20.5 C8.3,20.6 8.2,20.8 8.1,20.9 C8,21 7.9,21.1 7.8,21.2 C7.2,21.7 6.4,22 5.9,22.2 C5.6,22.3 5.4,22.4 5.1,22.4 L5,22.4 L5,22.7 C5,22.7 4.9,22.8 4.8,22.8 L4.7,22.8 L4.6,22.9 C4.6,22.9 4.6,22.9 4.5,23 C4.5,23 4.5,23.1 4.4,23.1 C4.3,23.2 4.2,23.4 4.1,23.5 L4,23.6 C4,23.8 3.8,24 3.7,24.1 C3.6,24.2 3.6,24.2 3.5,24.3 C3.5,24.3 3.4,24.4 3.4,24.4 C3.3,24.5 3.3,24.5 3.2,24.6 L3,24.9 L3.3,25.1 C3.3,25.1 3.3,25.1 3.4,25.1 C3.7,25.3 4,25.4 4.3,25.5 C5,25.8 5.8,26 6.3,26.1 C7,26.3 7.5,26.4 8,26.4 C8.1,26.4 8.3,26.4 8.4,26.4 C8.5,26.4 8.7,26.3 8.8,26.3 L9.5,26 L8.7,25.6 C8.5,25.5 8.3,25.4 8.1,25.3 C7.9,25.2 7.6,25.1 7.4,24.9 C7.3,24.8 7.1,24.7 7,24.7 C6.9,24.6 6.8,24.6 6.8,24.6 C6.6,24.5 6.4,24.4 6.3,24.2 C6.2,24.1 6.2,24 6.2,23.9 C6.2,23.8 6.3,23.7 6.4,23.7 C6.6,23.6 6.7,23.6 6.9,23.5 C7.1,23.4 7.4,23.3 7.6,23.2 C8,23 8.3,22.8 8.8,22.6 C9.5,22.2 10.1,21.8 10.7,21.3 L10.8,21.3 C11.2,21 11.5,20.8 11.9,20.5 L11.7,20 Z M23.4,26.5 C23.2,26.9 23,27.3 22.7,27.7 C22.6,27.8 22.5,28 22.4,28.1 C22.2,28.4 22,28.7 21.8,28.9 C21.8,28.9 21.7,29 21.6,29.1 L21.2,29.4 L21.7,29.5 C22,29.6 22.2,29.6 22.4,29.7 C23.1,29.8 23.8,29.9 24.4,30 C24.6,30 24.8,30 24.9,30 C25.3,30 25.7,30.1 26.1,30.1 C26.2,30.1 26.3,30.1 26.3,30.1 C26.5,30.1 26.8,30.2 27,30.2 C27,30.2 27,30.2 27.1,30.2 C27.3,30.2 27.5,30.2 27.8,30.1 L28.2,30 C28.6,29.9 29.1,29.8 29.5,29.8 L29.6,29.8 C30.1,29.7 30.5,29.7 31,29.4 C31.1,29.3 31.2,29.3 31.4,29.2 C31.5,29.1 31.6,29.1 31.7,29 C31.8,28.9 31.9,28.9 32.1,28.8 C32.2,28.7 32.3,28.7 32.4,28.6 C32.8,28.4 33.2,28 33.7,27.6 C34,27.3 34.4,26.9 34.7,26.5 L34.4,26.1 C34.3,26.1 34.3,26.1 34.2,26.2 C34,26.3 33.9,26.3 33.7,26.4 C33.6,26.4 33.5,26.5 33.3,26.5 C33.2,26.5 33.2,26.6 33.1,26.6 C33,26.7 32.8,26.7 32.7,26.7 C32.7,26.7 32.6,26.7 32.6,26.7 C32.5,26.7 32.4,26.7 32.3,26.7 C32.2,26.7 32.2,26.7 32.1,26.8 C32,26.8 32,26.8 31.9,26.8 C31.9,26.8 31.8,26.8 31.7,26.8 C31.6,26.8 31.6,26.8 31.5,26.8 C31.5,26.8 31.4,26.8 31.4,26.8 C31.4,26.8 31.3,26.8 31.3,26.8 C31.3,26.8 31.3,26.8 31.4,26.8 L31.7,27 C31.7,27.1 31.7,27.2 31.6,27.3 L31.5,27 C31.4,27.1 31.3,27.1 31.3,27.1 C31.2,27.1 31.1,27.1 31.1,27 C31.1,27 31.1,27 31.1,27 L31,26.9 C31,26.9 30.8,26.9 30.8,26.9 C30.8,26.9 30.7,26.9 30.7,26.9 C30.5,26.8 30.5,26.6 30.5,26.5 C30.5,26.4 30.6,26.2 30.7,26.1 C30.8,26 30.8,25.9 30.9,25.8 C31,25.6 31.1,25.3 31.3,25.1 L31.7,24.3 L30.9,24.8 C30.8,24.8 30.8,24.9 30.7,24.9 L30.6,24.9 C30.2,25.2 29.8,25.4 29.4,25.5 C29.2,25.6 29,25.7 28.7,25.7 C28.5,25.8 28.4,25.8 28.2,25.9 L28.1,25.9 C27.8,26 27.5,26.1 27.2,26.2 C27,26.2 26.8,26.2 26.6,26.3 C26.4,26.3 26.2,26.3 26,26.4 C25.8,26.4 25.6,26.4 25.3,26.4 C25.1,26.4 24.9,26.4 24.8,26.4 C24.7,26.4 24.5,26.4 24.3,26.4 C24.1,26.4 23.8,26.4 23.6,26.4 L23.4,26.4 L23.4,26.5 Z M10,26.7 C9.9,26.7 9.8,26.7 9.7,26.8 C9.6,26.8 9.5,26.8 9.4,26.8 C9.3,26.8 9.2,26.8 9.1,26.8 C9,26.8 8.9,26.8 8.8,26.8 C8.7,26.8 8.6,26.8 8.5,26.8 C8.4,26.8 8.3,26.9 8.1,26.9 C7.8,27 7.6,27 7.3,27.1 C7.1,27.1 6.9,27.2 6.6,27.2 C6.5,27.2 6.4,27.3 6.3,27.3 C6.3,27.3 6.2,27.3 6.2,27.3 L5.8,27.5 L6.2,27.9 C6.3,28 6.5,28.1 6.6,28.2 C6.8,28.3 7,28.5 7.1,28.6 C7.6,29.1 8.2,29.6 8.9,29.9 C9.5,30.2 10.2,30.4 10.9,30.6 C11.1,30.6 11.3,30.7 11.5,30.7 L11.6,30.2 C11.2,30 10.9,29.8 10.5,29.6 C10.3,29.5 10.1,29.4 9.9,29.2 C9.8,29.2 9.7,29.1 9.7,29.1 C9.5,29 9.4,28.9 9.3,28.8 C9.1,28.6 9.1,28.3 9.3,28.1 C9.4,28 9.8,27.9 10,27.7 C10.1,27.7 10.2,27.6 10.2,27.6 C10.3,27.6 10.3,27.5 10.4,27.5 C10.5,27.5 10.6,27.4 10.7,27.3 C10.9,27.2 11,27.1 11.2,27 L11.8,26.6 L11.1,26.5 C11,26.5 11,26.5 10.9,26.5 L10.8,26.5 L10.7,26.6 C10.6,26.7 10.5,26.8 10.3,26.8 C10.3,26.8 10.2,26.8 10.2,26.8 C10.2,26.8 10.1,26.8 10.1,26.8 C10.1,26.7 10,26.7 10,26.7 L10.3,27 L10.1,27.3 L10,26.7 Z M12.8,26.8 C12.6,26.9 12.4,27 12.2,27.2 C12.1,27.3 12,27.3 12,27.4 C11.9,27.5 11.7,27.6 11.6,27.6 C11.4,27.7 11.2,27.9 11,28 C10.9,28.1 10.7,28.2 10.5,28.2 C10.4,28.3 10.3,28.3 10.2,28.4 L9.8,28.6 L10.3,28.9 C10.4,29 10.6,29.1 10.7,29.1 C10.8,29.2 10.9,29.2 10.9,29.3 C11.1,29.4 11.3,29.5 11.4,29.6 C11.9,29.9 12.5,30.1 13.2,30.3 C13.8,30.5 14.5,30.6 15.1,30.7 C15.5,30.8 15.9,30.9 16.3,30.9 C16.6,31 16.9,31 17.2,31.1 C17.9,31.2 18.7,31.3 19.3,31.3 C19.4,31.3 19.6,31.3 19.7,31.3 C19.9,31.3 20.2,31.3 20.4,31.3 C20.8,31.3 21.1,31.3 21.3,31.3 C21.9,31.2 22.5,31.1 22.9,30.9 L22.9,30.4 C22.5,30.3 22.2,30.3 21.8,30.2 C21.7,30.2 21.7,30.2 21.6,30.2 C21.4,30.2 21.3,30.1 21.1,30 C20.9,29.9 20.7,29.8 20.6,29.6 C20.6,29.5 20.6,29.4 20.6,29.3 C20.7,29.1 20.9,29 21,28.9 C21.1,28.8 21.2,28.7 21.3,28.7 C21.5,28.5 21.7,28.2 21.9,27.9 C22,27.8 22,27.7 22.1,27.6 C22.3,27.3 22.5,26.9 22.7,26.6 L22.8,26.3 L22.5,26.2 C22.1,26.1 21.8,26 21.4,25.9 C21.2,25.8 21,25.8 20.8,25.7 L20.7,25.7 L20.6,25.7 C20.4,25.7 20.2,25.8 20,25.9 L19.9,25.9 C19.7,26 19.6,26 19.4,26.1 C19.3,26.1 19.3,26.1 19.2,26.2 C19,26.3 18.8,26.3 18.5,26.4 C18.2,26.5 17.9,26.6 17.6,26.7 C17.2,26.8 16.9,26.8 16.5,26.9 C16.4,26.9 16.2,26.9 16.1,27 C15.6,27.1 15.1,27.1 14.6,27.1 L14.5,27.1 C14,27.1 13.4,27.1 12.8,27 L12.8,26.8 Z M19.8,32 C19.2,32 18.8,32 18.3,32 C17.6,32 17,31.8 16.3,31.7 L16.1,31.6 C15.8,31.5 15.5,31.5 15.2,31.4 L15.1,31.4 L15,31.4 C14.7,31.5 14.5,31.6 14.1,31.6 C14,31.6 13.8,31.6 13.7,31.6 L13.6,31.6 C13.5,31.6 13.4,31.6 13.4,31.6 C13.4,31.6 13.3,31.6 13.3,31.6 C13.2,31.6 13.1,31.6 13.1,31.6 C13,31.6 12.8,31.6 12.7,31.6 C12.6,31.6 12.5,31.6 12.5,31.6 C12.5,31.6 12.4,31.6 12.4,31.6 C12.3,31.6 12.2,31.6 12.1,31.6 C12,31.6 11.9,31.6 11.9,31.6 C11.6,31.6 11.2,31.5 10.7,31.4 C9.8,31.2 9.2,30.9 8.6,30.6 C7.9,30.2 7.4,29.8 6.8,29.3 L6.6,29.1 C6.5,29 6.4,28.9 6.3,28.8 C5.9,28.5 5.4,28.1 5.2,27.6 C5.2,27.5 5.2,27.4 5.2,27.3 C5.3,27.2 5.4,27.1 5.6,27 L6.6,26.7 L5.6,26.4 C5,26.2 4.6,26.1 4.2,25.9 C4,25.8 3.9,25.8 3.7,25.7 C3.6,25.7 3.6,25.6 3.5,25.6 C3.5,25.6 3.4,25.5 3.4,25.5 C3.4,25.5 3.3,25.4 3.3,25.4 C3,25.2 2.7,25.1 2.6,24.8 C2.5,24.7 2.6,24.6 2.6,24.5 C2.7,24.4 2.7,24.3 2.8,24.3 C2.9,24.3 2.9,24.2 2.9,24.2 C2.9,24.2 3,24.1 3,24 C3,23.9 3.1,23.9 3.1,23.8 C3.3,23.6 3.4,23.4 3.6,23.2 L3.9,22.8 L3.4,22.8 C3.2,22.8 3,22.8 2.8,22.8 C2.6,22.8 2.4,22.8 2.2,22.8 C1.8,22.8 1.5,22.8 1.1,22.6 C1,22.6 1,22.5 0.9,22.4 C0.9,22.3 0.9,22.2 0.9,22.1 C0.9,22 1,22 1.1,21.9 C1.2,21.8 1.2,21.8 1.3,21.7 C1.4,21.6 1.4,21.5 1.5,21.4 C1.5,21.3 1.6,21.3 1.6,21.2 C1.8,21 1.9,20.9 2,20.8 C2.2,20.6 2.3,20.4 2.5,20.1 C2.7,19.8 2.9,19.4 3.1,19.1 C3.3,18.7 3.5,18.4 3.7,18 L3.8,17.8 C4,17.6 4.1,17.3 4.3,17.1 C4.4,17 4.4,16.9 4.5,16.8 C4.6,16.6 4.7,16.3 4.9,16.1 C5.2,15.6 5.7,15.1 6.4,14.6 C6.6,14.4 7,14.2 7.3,14 C7.4,13.9 7.6,13.8 7.7,13.8 C7.7,13.8 7.8,13.8 7.9,13.7 C8,13.7 8.1,13.6 8.1,13.6 C8.2,13.6 8.2,13.5 8.3,13.5 L8.4,13.5 L8.5,13.4 C8.7,13.1 8.8,12.9 9,12.7 C9.5,12.1 10.1,11.4 10.7,10.9 C10.8,10.8 11,10.7 11.1,10.6 C11.3,10.4 11.5,10.3 11.6,10.1 L11.9,9.8 L11.5,9.6 C10.9,9.3 10.1,8.9 9.7,8.2 C9.6,8.1 9.8,7.9 9.9,7.8 C10.1,7.7 10.3,7.6 10.6,7.5 C10.7,7.5 10.8,7.4 10.9,7.4 C11.2,7.3 11.5,7.1 11.8,6.9 C12.4,6.5 13,6 13.6,5.5 C14.6,4.7 15.6,3.8 16.8,3.1 C17.5,2.7 18.1,2.4 18.6,2.1 C19.1,1.9 19.7,1.7 20.2,1.5 L20.5,1.4 C21.4,1.1 22.4,0.9 23.5,0.9 C23.8,0.9 24.2,0.9 24.6,1 C25.3,1.1 26,1.4 26.5,1.6 L26.6,1.6 C26.8,1.7 27.1,1.8 27.3,2 C27.4,2.1 27.5,2.2 27.6,2.3 C27.6,2.3 27.6,2.4 27.7,2.4 L27.7,2.5 L27.8,2.5 C27.9,2.5 28,2.6 28,2.7 L28.1,2.9 L28.3,2.9 C28.4,2.9 28.4,2.9 28.5,2.9 C28.9,2.9 29.3,3 29.8,3.2 L30.7,3.5 L30.2,2.8 C30.1,2.6 29.9,2.5 29.8,2.3 C29.7,2.2 29.6,2.1 29.5,2 C29.3,1.8 29.1,1.5 29,1.3 C29,1.3 29,1.3 28.9,1.2 C28.8,1.1 28.8,1.1 28.7,1 C28.6,0.9 28.5,0.8 28.4,0.6 C28.3,0.5 28.4,0.4 28.4,0.3 C28.4,0.1 28.5,0 28.6,0 C28.6,0 28.6,0 28.6,0 C28.8,0 28.9,0.1 29.1,0.3 C29.1,0.3 29.2,0.4 29.2,0.4 C29.4,0.5 29.5,0.6 29.7,0.7 C29.7,0.7 29.8,0.7 29.8,0.8 C30.3,1.1 30.9,1.3 31.5,1.5 C31.7,1.5 31.8,1.6 32,1.6 C32.8,1.8 33.5,2 34.3,2.3 C35.2,2.8 36,3.3 36.4,4 C36.5,4.1 36.6,4.2 36.7,4.4 C37.2,5 37.7,5.7 38,6.4 C38.2,6.9 38.2,7.4 38.3,7.9 C38.3,8 38.4,8.7 38.4,8.7 L38.8,8.4 C39,8.2 39.3,8 39.6,7.7 C39.7,7.6 39.9,7.4 40,7.3 C40,7.1 40.1,7 40.2,6.8 C40.3,6.7 40.3,6.7 40.4,6.6 C40.5,6.5 40.7,6.3 40.8,6.2 C40.9,6 41.1,5.9 41.2,5.7 C41.3,5.6 41.4,5.5 41.4,5.5 C41.5,5.4 41.5,5.4 41.6,5.3 C41.8,5.1 41.9,5 42.1,4.8 C42.3,4.6 42.5,4.3 42.7,4.1 C42.8,4 42.9,3.9 43,3.8 C43.1,3.6 43.2,3.5 43.4,3.3 C43.5,3.1 43.7,2.9 43.8,2.7 C43.8,2.6 43.9,2.5 43.9,2.5 C44,2.4 44.1,2.2 44.2,2.1 C44.3,1.9 44.4,1.8 44.5,1.6 C44.6,1.5 44.6,1.4 44.7,1.3 C44.8,1.2 44.8,1 44.9,0.9 C45.1,0.6 45.4,0.4 45.6,0.4 C45.6,0.4 45.7,0.4 45.7,0.4 C46.2,0.4 46.7,0.9 46.9,1.4 C47.1,1.9 46.9,2.5 46.7,3.1 L46.7,3 C46.5,3.6 46.1,4.2 45.8,4.8 C45.4,5.4 45.1,5.9 44.7,6.3 C44.6,6.4 44.5,6.5 44.5,6.6 C44.4,6.7 44.2,6.9 44.1,7.1 L44,7.2 C43.8,7.4 43.7,7.6 43.5,7.8 C43.4,7.9 43.3,7.9 43.3,8 C43.1,8.1 43,8.2 42.8,8.4 C42.6,8.6 42.3,8.9 42.1,9.1 C41.9,9.3 41.6,9.5 41.3,9.7 C41,9.9 40.7,10.1 40.5,10.3 C40.4,10.4 40.3,10.5 40.1,10.6 C40,10.7 39.9,10.8 39.8,10.9 C39.8,10.9 39.7,11 39.7,11 L39.3,11.3 L39.7,11.5 C39.9,11.6 40.1,11.8 40.3,12 L40.4,12.1 C40.6,12.3 40.8,12.5 41,12.7 C41.3,13.2 41.6,13.8 41.7,14.6 C41.8,15 41.8,15.3 41.8,15.7 C41.8,15.9 41.7,16.1 41.7,16.4 C41.7,16.5 41.6,16.6 41.6,16.7 C41.4,17.3 41.2,17.9 40.8,18.6 L40.7,18.7 C40.6,18.9 40.4,19.2 40.2,19.4 C40,19.6 39.8,19.8 39.6,20 L39.5,20.1 C39.5,20.1 39.4,20.1 39.4,20.2 L39.1,20 L39.1,20.2 C38.9,22 38.2,23.5 37.1,24.6 C36.9,24.8 36.6,25 36.3,25.2 L36.2,25.3 L36.2,25.5 C36.2,25.6 36.2,25.6 36.2,25.7 C36.2,25.8 36.1,25.9 36,26 C36,26 35.9,26.1 35.9,26.1 C35.8,26.2 35.8,26.3 35.8,26.4 C35.8,26.4 35.8,26.5 35.8,26.5 C35.7,26.8 35.5,27 35.3,27.3 C34.8,27.8 34.4,28.3 33.9,28.7 C33.4,29.1 32.9,29.4 32.4,29.7 C32.2,29.8 32.1,29.9 31.9,30 C31.6,30.2 31.3,30.4 31,30.5 C30.6,30.6 30.2,30.7 29.8,30.7 C29.7,30.7 29.5,30.7 29.4,30.8 C29.2,30.8 29,30.9 28.8,30.9 C28.4,31 28,31.1 27.6,31.1 C27.6,31.1 27.5,31.1 27.5,31.1 C27.1,31.1 26.7,31.1 26.3,31 C26.1,31 25.9,31 25.7,30.9 L25.2,30.9 L25.1,30.9 C25.1,30.9 25.1,30.9 25,30.9 L24.9,30.9 L24.8,31 L24.7,31 C24.7,31 24.6,31.1 24.6,31.1 C24.5,31.2 24.3,31.3 24.2,31.4 C23.9,31.5 23.7,31.6 23.4,31.7 C23.3,31.7 23.2,31.8 23.1,31.8 C22.7,31.9 22.3,32 21.9,32.1 C21.4,32 20.9,32 20.5,32 C20.3,32 20,32 19.8,32 Z" id="Fill-1"></path>
        </g>
    </g>
</svg>