<svg viewBox="0 0 47 33" xmlns="http://www.w3.org/2000/svg">
  <path d="M12.9 9.1h.1l.1.1.1.1h.1c.8.2 1.6.2 2.1.3h2c.1 0 .1-.1.2-.1H17.9c.2 0 .5-.1.7-.1.2 0 .3-.1.5-.1.7-.1 1.4-.3 2.1-.5.3-.1.6-.2.9-.4.1-.1.2-.1.4-.2.1 0 .2-.1.3-.1l.5-.2-.4-.3c-.7-.5-1.4-1-2.2-1.4-.1-.1-.2-.1-.3-.2-.4.1-.7 0-1-.2-.3-.1-.6-.2-.8-.3-.1 0-.3-.1-.4-.1-.2-.1-.2-.2-.2-.2v-.3c.3-.4.9-.5 1.5-.5.2 0 .4 0 .6-.1 1-.1 1.9-.4 2.8-.7.9-.3 1.8-.6 2.7-.7.4-.1.8-.1 1.1-.1l.9-.1-.7-.4c-.1-.1-.2-.1-.4-.2 0 0-.1 0-.1-.1h-.1c-.3-.2-.7-.3-1-.4-.4-.1-.8-.2-1.2-.2h-.7c-.5 0-.9 0-1.3.1-.6.1-1.1.3-1.7.5l-.1.1c-1.4.5-2.6 1.1-3.6 1.8-.8.6-1.6 1.2-2.3 1.8-.4.3-.6.5-.9.7-.6.4-1.1.8-1.7 1.2-.2.1-.5.2-.8.4l-.6.2.4.3c.1.1.2.1.4.2.4.2.8.3 1.3.5h.1l.1-.1c.1.1.1 0 .2 0zm21.6.9c.1 0 .2.1.3.2l.5.8v-1c.1-.8 0-1.7-.2-2.7-.1-.4-.3-.9-.5-1.3-.1-.2-.2-.4-.3-.5 0 0 0-.1-.1-.1l-.1-.1-.1-.1v-.1c-.1 0-.3-.2-.2-.4 0-.1.2-.2.3-.2h.1c.3.2.5.5.7.9.2.5.4 1 .5 1.5.3 1 .4 2 .3 2.8v.4l.4-.2.1-.1c.2-.1.5-.2.7-.4.1-.1.3-.2.4-.3l.1-.1v-.1-.4-.1c0-.3 0-.6-.1-.9-.1-.5-.2-1-.4-1.5-.2-.4-.5-.7-.7-1.1-.1-.1-.1-.2-.2-.3-.2-.3-.4-.5-.6-.8-.5-.5-1.2-1-2.1-1.4-.6-.2-1.1-.4-1.6-.5-.3-.1-.6-.2-1-.3l-.8-.2.5.7c.5.6.8 1.1 1 1.6.4.7.6 1.5.8 2.3.1.2.1.4.1.5.1.2.1.4.2.6.1.4.3.7.5 1l.6.9.1.1c.1.1.2.2.3.4v.2l.5.3c-.1 0-.1-.1-.2-.1l-.1-.1.2-.2.1-.1v.2l-.1.1.1.2zm-6.9-6.6c-.6 0-1.3.1-2.1.2-.7.1-1.4.3-2.1.5-.2.1-.3.1-.5.2-.9.3-1.8.5-2.7.7l-.9.1.7.4c.3.1.6.3 1 .5.8.5 1.6.9 2.2 1.4.2.1.4.3.5.4h.1s.1 0 .1.1l.1.1v.1l.1.1c.1.1.2.2.3.2.2.1.4.3.6.4l.8.8c.3.4.5.7.8.9.3.3.6.5 1 .7.4.2.7.3 1 .3.1 0 .1 0 .1.1l.1.2.2-.1c.5-.3 1.1-.5 1.7-.6.6-.1 1.2-.2 1.7-.2h.1l.1-.5c-.1 0-.2-.1-.3-.1-.1 0-.1-.1-.2-.1.2-.2.1-.2-.1-.3-.4-.2-.8-.4-1.1-.6l-.2-.2-1.2-.9c-.2-.1-.3-.2-.5-.3-.3-.2-.6-.4-1-.6-.1 0-.1-.1-.1-.2s0-.2.1-.3c.1-.1.2-.1.2-.1.1 0 .1 0 .2.1.3.2.7.4 1 .6l.6.3c.4.2.7.5 1.1.8.1.1.2.1.2.2.4.3.8.5 1.1.7l1 .5-.4-.8c0-.1-.2-.3-.2-.3-.2-.3-.4-.7-.5-1.1-.1-.3-.2-.5-.2-.8-.1-.1-.1-.2-.1-.4-.2-.9-.5-1.6-.8-2.2l-.1-.1h-.2c-.3 0-.6-.2-.9-.3-.2-.1-.3-.1-.5-.2-.5-.2-.9-.2-1.4-.3h-.5zm6.6 9c.1.2.4.4.6.5h.1c.1.1.2.1.2.2l.2.1.2-.1c.2-.1.3-.2.5-.3.1-.1.2-.1.3-.2.2-.2.5-.3.7-.5l.1-.1c.3-.2.5-.4.8-.6.2-.1.4-.3.5-.5l.2-.2c.1-.1.2-.2.4-.3.1-.1.2-.2.4-.3.1-.1.2-.2.3-.2.2-.1.3-.3.5-.4.2-.2.4-.3.6-.5.3-.3.7-.5 1-.8 0 0 .2-.1.3-.2l.3-.3c.1-.1.2-.2.3-.2.1-.1.2-.1.3-.2l.4-.4.2-.2.3-.3c.1-.3.2-.4.3-.5.4-.4.7-.9 1.1-1.4.3-.5.7-1.1.9-1.7v-.1c.1-.2.2-.5.2-.7 0-.2.1-.3 0-.4h-.2l-.2.1h-.2v-.1h.1v-.1l.2-.1.1-.1c0-.1-.1-.1-.1-.2V.8h-.3l-.1-.1-.1.2-.3.3h.1v.1c-.2.4-.4.7-.6 1l-.3.6-.2.1c-.1.3-.3.5-.4.7-.1.1-.2.2-.3.4-.1.1-.2.3-.3.4-.2.2-.4.5-.6.7-.2.2-.4.4-.5.6-.2 0-.3.1-.4.2-.1.1-.2.2-.3.4l-.6.6c-.3.2-.5.5-.8.7-.1.3-.3.5-.5.7-.3.3-.6.6-1 .8-.1.1-.2.2-.4.3 0 .1-.1.1-.2.1-.4.3-.8.6-1.3.8-.1.1-.2.1-.3.2-.4.2-.9.4-1.3.7-.3.2-.5.4-.7.5l-.1.1.4.4s-.1.1-.2.1l-.2-.1c-.1-.1 0-.2 0-.3l-.1.1v.3zM23.5 8.6c-.2.1-.3.1-.5.2s-.4.1-.5.2c-.4.2-1 .4-1.6.6-.9.2-1.8.4-2.9.6H17.7l-.1.1c0 .1-.1.1-.1.2s-.1.2-.1.2l-.3.6c-.1.1-.1.2-.2.4-.2.4-.5.8-.7 1.2-.1.2-.3.4-.4.6v.1c-.3.6-.7 1.2-1.1 1.8l-.6.9c0 .1-.1.1-.1.2l-.3.4.6.1 1.2.3c.1 0 .4.1.4.1l1.2.3h.1c.4.1.8.2 1.2.2.2 0 .4.1.7.1.5.1 1.1.1 1.6.1h.5c.5 0 1-.1 1.5-.2.4-.1.8-.1 1.2-.1.4 0 .8-.1 1.2-.2.1 0 .1 0 .2-.1.2-.1.3-.1.5-.2h.2s.1 0 .1-.1l.1-.1v-.3c.1-.5.2-.9.3-1.4.3-1 .8-2 1.6-2.8l.1-.1.3-.3-.4-.1-.6-.3c-.4-.2-.7-.4-1-.7-.4-.3-.6-.6-.9-.9-.2-.3-.5-.6-.8-.8-.2-.1-.4-.3-.5-.4-.1-.1-.2-.2-.4-.3l-.1-.1h-.3zm14.2 5.9c.1.2.3.5.4.7.4.7.9 1.9 1 3.1v1.2l.4-.5.2-.2c.2-.4.4-.7.6-.9.2-.4.4-.8.5-1.2 0-.1.1-.2.1-.3 0-.1 0-.2.1-.2v-.1c0-.1.1-.2.1-.4v-.3-.2c0-.2 0-.4-.1-.6-.1-.3-.2-.7-.3-1.1-.2-.3-.4-.6-.6-.8l-.1-.1c-.1-.1-.1-.2-.2-.2l-.4.4c-.1-.1-.1-.2 0-.3l.2-.2.2.1-.1-.1h-.2c-.1 0-.2-.1-.2-.2l-.2-.3-.3.2c-.1.1-.3.3-.4.3-.3.2-.5.3-.8.6l-.6.5.6.1c.5.1 1 .2 1.3.6l.7.7c.1.1.1.2.2.3 0 .1.1.1.1.2l.5-.3s.1.2 0 .3l-.2.1c-.1 0-.2-.1-.2-.1v.1l.1.1c.1.1.1.2.1.2 0 .1-.1.2-.1.2-.1 0-.1.1-.2.1s-.2 0-.3-.1l-.1-.1-.1-.1s-.1-.1-.1-.2-.1-.1-.1-.2c-.1-.2-.3-.4-.4-.5l-.2-.2c-.1-.1-.2-.2-.3-.2l-.3.4-.3-.3zM9 19.5s.1 0 0 0H10.4c.9 0 1.7-.2 2.5-.5.2-.1.3-.1.5-.2.3-.1.5-.2.7-.3h.1c.1 0 .3-.1.4-.1.1 0 .1 0 .2-.1l.6-.3-.8-.2c-.2 0-.4-.1-.6-.1-.3-.1-.7-.1-.9-.3-.2-.1-.3-.4-.2-.7.1-.2.3-.4.4-.6.1-.1.2-.2.2-.3.5-.6.9-1.3 1.3-2v-.1c.1-.2.2-.4.4-.6l.9-1.5c.2-.3.3-.5.4-.8l.3-.6h-.5c-.5 0-1.1 0-1.7-.1-.7-.1-1.2-.2-1.8-.3h-.1l.1.2c-.1.1-.2.1-.3.2-.1.1-.2.2-.3.2-.2.2-.5.4-.7.6l-.3.3c-1.2 1-2.2 2.3-3 3.9l-.3.6c-.3.7-.7 1.3-1.1 2-.1.1-.2.3-.2.4-.1.2-.3.5-.4.7 0 0 0 .1-.1.1l-.3.4h3l.2.1c-.1 0-.1 0 0 0zm27.2-4.8c.2.3.4.7.6 1 .3.6.5 1.3.7 2 .2.6.4 1.3.4 2.1v.5h.5c.1-.9.1-1.8-.1-2.6-.1-.4-.2-.9-.4-1.4-.2-.4-.4-1-.7-1.4-.1-.2-.3-.4-.4-.6.1.1.1.2.1.2l-.3.3.2-.4-.3.3v-.1.1-.1l.1-.3v-.2.1c.1 0 .1 0 .1.1-.1 0-.1 0-.1-.1h-.1l-.6-.1.3.6zm-3.5-3.2h-.2c-.6 0-1.2.1-1.8.3-1 .3-1.9.9-2.6 1.8-.4.5-.6.9-.8 1.4-.2.5-.3 1.1-.4 1.6v.1c-.2 1.1-.4 2.1-.8 3-.3.6-.6 1.1-.9 1.5l-.3.4h.6c.2 0 .4 0 .6.1.2 0 .5.1.7.1h.2c.6 0 1.3-.1 2-.4.7-.3 1.5-.6 2.2-1.1.4-.2.7-.4 1-.7.2-.1.3-.3.5-.4l.2-.2.1-.1v-.3c0-.2 0-.4.1-.6 0-.4.1-.8.1-1.2.1-.5.3-1 .6-1.5.3-.4.6-.9.9-1.2l.2-.2.3-.2-.3-.2-.1-.1h-.1c-.1-.1-.2-.1-.2-.2l-.2-.1-.3.3s-.1.1-.2.1h-.1l-.1.1-.3.3c-.2.2-.4.3-.6.5l-.1.1c-.6.4-1.1 1-1.6 1.5-.5.6-.9 1.3-1.3 1.9-.1.1-.2.3-.2.4-.1.2-.2.4-.3.5 0 .1-.1.1-.1.2s-.1.1-.1.2c-.1.1-.1.2-.1.4 0 .1-.2.3-.3.3-.2 0-.3-.2-.3-.4 0-.3.2-.6.4-.9.2-.2.3-.5.4-.7.1-.1.1-.2.2-.3.5-.8.9-1.4 1.4-2 .5-.6 1.1-1.2 1.7-1.6.2-.2.5-.4.8-.6.1-.1.3-.2.4-.3l.2-.1-.1-.2c0-.1-.1-.2-.1-.3v-.4l.1-.2-.2-.1s-.1 0-.1-.1c-.2-.2-.5-.2-.7-.2zM7.1 14.8c-.2.1-.4.3-.6.4-.6.5-1.1 1-1.4 1.6 0 .1-.1.2-.1.3-.1.2-.2.5-.4.7-.1.2-.2.3-.3.5-.1.2-.2.3-.3.5-.2.3-.3.6-.5.9-.3.3-.5.7-.7 1.1l-.3.3c-.1.2-.2.3-.3.5l-.3.4h2c.8 0 1.5-.1 2.2-.4.7-.3 1.3-.6 1.7-1.1l.4-.5H5.8c-.3 0-.4 0-.6-.2-.2 0-.2-.2-.1-.3.1-.3.2-.5.4-.7.1-.1.2-.2.2-.3.2-.3.4-.6.5-.9.1-.1.1-.3.2-.4.3-.5.6-1 .8-1.5.1-.2.2-.3.3-.5l-.4-.4zM20 19c-.1.6-.3 1.2-.6 1.8-.2.4-.4.7-.6 1.1v.1c-.2.3-.3.6-.6.8l-.2.2-.2.2.2.2c.1.1.2.1.3.2.4.3.8.4 1.2.6l.6.3c.7.4 1.4.6 2 .8.7.2 1.4.3 2.1.3h1.1c.2 0 .5 0 .7-.1h.6c.2 0 .5 0 .7-.1.2 0 .3-.1.5-.2s.3-.1.5-.2c.7-.2 1.2-.5 1.8-.9l.1-.1c.2-.1.3-.3.5-.4l.2-.2.2-.2.1-.1.1-.1v-.1-.1c.1-.2.2-.2.3-.2h.2l.1-.2c.2-.6.3-1.2.4-2l.1-.6-.5.4c-.2.1-.4.3-.6.4-.5.3-1.1.6-1.8 1-.7.3-1.3.5-1.8.6-.3.1-.6.1-1 .1-.3 0-.6 0-1-.1-.2 0-.5 0-.7-.1-.5 0-1-.1-1.4-.2-.1 0-.2-.1-.2-.3 0-.1 0-.2.1-.3 1.1-.8 1.7-2 2-2.8 0-.1.1-.3.1-.5l.1-.5-.5.2c-.3.1-.7.2-1 .3-.2 0-.5.1-.8.1h-.5c-.3 0-.5.1-.8.1-.2 0-.4 0-.6.1-.6.1-1 .1-1.5.1H19.7l.3.6zm-3.1-.6l-.6.3c-.1 0-.2.1-.3.1-.3.1-.6.2-.9.4-.7.3-1.3.7-1.9 1.1l-.2.1c-.7.5-1.4 1-2 1.4-.8.6-1.4 1-2.1 1.4l-.1.1c-.3.2-.6.3-.9.5l-.5.2.5.3c.1.1.3.2.4.2l.6.3c.2.1.5.3.8.4.9.5 1.9.6 2.8.7.8.1 1.6.2 2.4.2h.5c.3 0 .6-.1.9-.1.2 0 .4-.1.6-.1.5 0 1-.1 1.4-.3.2-.1.4-.1.6-.2.2-.1.4-.1.7-.2l.5-.2-.5-.3-.1-.1c-.6-.2-1.1-.5-1.5-.9-.3-.3-.4-.5-.4-.7 0-.3.2-.5.5-.7v-.1l.1-.1c0-.1.1-.1.1-.2.1-.2.2-.3.3-.5.2-.3.4-.6.5-1 .3-.6.4-1.1.6-1.7l.1-.3-.5-.1c-.6-.1-1.2-.1-1.8-.3l-.6.4zm17.9-3.5c-.2.2-.4.5-.6.7v.1c-.3.4-.5.8-.6 1.3-.1.6-.2 1.3-.2 1.9v.2c0 .1.1.2 0 .3l-.1.1v.1c0 .3-.1.6-.1.9-.1 1.2-.4 2.3-.8 3.4-.2.5-.4.9-.6 1.6-.1.2-.2.4-.3.5l-.2.5.5-.1c.1 0 .2 0 .3-.1.1 0 .2-.1.4-.1H32.8c.1 0 .2-.1.3-.1 0 0 .1 0 .1-.1.1 0 .2-.1.3-.1.2-.1.4-.1.5-.2.6-.2 1.1-.5 1.5-.8.1-.1.3-.2.4-.3.3-.2.7-.5 1-.8.3-.3.5-.7.8-1.1l.2-.3-.3-.1c-.1 0-.2-.1-.2-.3v-.7-.5-.8c0-.6-.2-1.3-.4-2.1-.1-.4-.2-.8-.4-1.2l-.6.1V19c0 .4-.1.8-.2 1.3-.1.2-.1.4-.1.6-.1.5-.2 1.1-.6 1.5l-.1.1c-.1 0-.2 0-.3-.1-.1-.2 0-.4.1-.5 0 0-.1.1-.2.1l-.2-.1v-.2l.2.1-.2-.2h.1l.2.1v.2s0-.1.1-.1c.1-.1.1-.3.1-.4 0 0 0-.2.1-.3V21v-.2c0-.2.1-.3.1-.5s.1-.3.1-.5c.1-.4.1-.8.1-1.1v-2.2-.5-.6-.3l-.1-.6-.4.4zM11.7 20h-.3c-.6.1-1.2.1-1.9.1h-.4-.2l-.1.1-.3.3c-.2.1-.3.3-.4.4l-.3.3c-.6.5-1.4.8-1.9 1-.3.1-.5.2-.8.2H5v.3s-.1.1-.2.1h-.1l-.1.1-.1.1s0 .1-.1.1c-.1.1-.2.3-.3.4l-.1.1c0 .2-.2.4-.3.5l-.2.2-.1.1-.2.2-.2.3.3.2h.1c.3.2.6.3.9.4.7.3 1.5.5 2 .6.7.2 1.2.3 1.7.3h.4c.1 0 .3-.1.4-.1l.7-.3-.8-.4-.6-.3c-.2-.1-.5-.2-.7-.4-.1-.1-.3-.2-.4-.2-.1-.1-.2-.1-.2-.1-.2-.1-.4-.2-.5-.4-.1-.1-.1-.2-.1-.3 0-.1.1-.2.2-.2.2-.1.3-.1.5-.2s.5-.2.7-.3c.4-.2.7-.4 1.2-.6.7-.4 1.3-.8 1.9-1.3h.1c.4-.3.7-.5 1.1-.8l-.2-.5zm11.7 6.5c-.2.4-.4.8-.7 1.2-.1.1-.2.3-.3.4-.2.3-.4.6-.6.8l-.2.2-.4.3.5.1c.3.1.5.1.7.2.7.1 1.4.2 2 .3h.5c.4 0 .8.1 1.2.1h.2c.2 0 .5.1.7.1h.1c.2 0 .4 0 .7-.1l.4-.1c.4-.1.9-.2 1.3-.2h.1c.5-.1.9-.1 1.4-.4.1-.1.2-.1.4-.2.1-.1.2-.1.3-.2.1-.1.2-.1.4-.2.1-.1.2-.1.3-.2.4-.2.8-.6 1.3-1 .3-.3.7-.7 1-1.1l-.3-.4c-.1 0-.1 0-.2.1-.2.1-.3.1-.5.2-.1 0-.2.1-.4.1-.1 0-.1.1-.2.1-.1.1-.3.1-.4.1h-.4c-.1 0-.1 0-.2.1h-.2-.4-.1-.1.1l.3.2c0 .1 0 .2-.1.3l-.1-.3c-.1.1-.2.1-.2.1-.1 0-.2 0-.2-.1l-.1-.1h-.2-.1c-.2-.1-.2-.3-.2-.4 0-.1.1-.3.2-.4.1-.1.1-.2.2-.3.1-.2.2-.5.4-.7l.4-.8-.8.5c-.1 0-.1.1-.2.1h-.1c-.4.3-.8.5-1.2.6-.2.1-.4.2-.7.2-.2.1-.3.1-.5.2h-.1l-.9.3c-.2 0-.4 0-.6.1-.2 0-.4 0-.6.1h-2.6v.1zm-13.4.2c-.1 0-.2 0-.3.1H8.5c-.1 0-.2.1-.4.1-.3.1-.5.1-.8.2-.2 0-.4.1-.7.1-.1 0-.2.1-.3.1h-.1l-.4.2.4.4c.1.1.3.2.4.3.2.1.4.3.5.4.5.5 1.1 1 1.8 1.3.6.3 1.3.5 2 .7.2 0 .4.1.6.1l.1-.5c-.4-.2-.7-.4-1.1-.6-.2-.1-.4-.2-.6-.4-.1 0-.2-.1-.2-.1-.2-.1-.3-.2-.4-.3-.2-.2-.2-.5 0-.7.1-.1.5-.2.7-.4.1 0 .2-.1.2-.1.1 0 .1-.1.2-.1s.2-.1.3-.2c.2-.1.3-.2.5-.3l.6-.4-.7-.1H10.8l-.1.1c-.1.1-.2.2-.4.2h-.1-.1c0-.1-.1-.1-.1-.1l.3.3-.2.3-.1-.6zm2.8.1c-.2.1-.4.2-.6.4-.1.1-.2.1-.2.2-.1.1-.3.2-.4.2-.2.1-.4.3-.6.4-.1.1-.3.2-.5.2-.1.1-.2.1-.3.2l-.4.2.5.3c.1.1.3.2.4.2.1.1.2.1.2.2.2.1.4.2.5.3.5.3 1.1.5 1.8.7.6.2 1.3.3 1.9.4.4.1.8.2 1.2.2.3.1.6.1.9.2.7.1 1.5.2 2.1.2h2c.6-.1 1.2-.2 1.6-.4v-.5c-.4-.1-.7-.1-1.1-.2h-.2c-.2 0-.3-.1-.5-.2s-.4-.2-.5-.4v-.3c.1-.2.3-.3.4-.4.1-.1.2-.2.3-.2.2-.2.4-.5.6-.8.1-.1.1-.2.2-.3.2-.3.4-.7.6-1l.1-.3-.3-.1c-.4-.1-.7-.2-1.1-.3-.2-.1-.4-.1-.6-.2h-.2c-.2 0-.4.1-.6.2h-.1c-.2.1-.3.1-.5.2-.1 0-.1 0-.2.1-.2.1-.4.1-.7.2l-.9.3c-.4.1-.7.1-1.1.2-.1 0-.3 0-.4.1-.5.1-1 .1-1.5.1h-.1c-.5 0-1.1 0-1.7-.1v-.2zm7 5.2h-1.5c-.7 0-1.3-.2-2-.3l-.2-.1c-.3-.1-.6-.1-.9-.2H15c-.3.1-.5.2-.9.2h-.7H12.5 11.9c-.3 0-.7-.1-1.2-.2-.9-.2-1.5-.5-2.1-.8-.7-.4-1.2-.8-1.8-1.3l-.2-.2-.3-.3c-.4-.3-.9-.7-1.1-1.2v-.3c.1-.1.2-.2.4-.3l1-.3-1-.3c-.6-.2-1-.3-1.4-.5-.2-.1-.3-.1-.5-.2-.1 0-.1-.1-.2-.1l-.1-.1-.1-.1c-.3-.2-.6-.3-.7-.6-.1-.1 0-.2 0-.3.1-.1.1-.2.2-.2s.1-.1.1-.1.1-.1.1-.2.1-.1.1-.2c.2-.2.3-.4.5-.6l.3-.4H2.2c-.4 0-.7 0-1.1-.2-.1 0-.1-.1-.2-.2v-.3c0-.1.1-.1.2-.2l.2-.2c.1-.1.1-.2.2-.3 0-.1.1-.1.1-.2l.4-.4c.2-.2.3-.4.5-.7.2-.3.4-.7.6-1 .2-.4.4-.7.6-1.1l.1-.2c.2-.2.3-.5.5-.7.1-.1.1-.2.2-.3.1-.2.2-.5.4-.7.3-.5.8-1 1.5-1.5.2-.2.6-.4.9-.6.1-.1.3-.2.4-.2 0 0 .1 0 .2-.1.1 0 .2-.1.2-.1.1 0 .1-.1.2-.1h.1l.1-.1c.2-.3.3-.5.5-.7.5-.6 1.1-1.3 1.7-1.8.1-.1.3-.2.4-.3.2-.2.4-.3.5-.5l.3-.3-.4-.2c-.6-.3-1.4-.7-1.8-1.4-.1-.1.1-.3.2-.4.2-.1.4-.2.7-.3.1 0 .2-.1.3-.1.3-.1.6-.3.9-.5.6-.4 1.2-.9 1.8-1.4 1-.8 2-1.7 3.2-2.4.7-.4 1.3-.7 1.8-1 .5-.2 1.1-.4 1.6-.6l.3-.1c.9-.3 1.9-.5 3-.5.3 0 .7 0 1.1.1.7.1 1.4.4 1.9.6h.1c.2.1.5.2.7.4l.3.3s0 .1.1.1v.1h.1c.1 0 .2.1.2.2l.1.2h.4c.4 0 .8.1 1.3.3l.9.3-.5-.7c-.1-.2-.3-.3-.4-.5l-.3-.3c-.2-.2-.4-.5-.5-.7l-.1-.1-.2-.2c-.1-.1-.2-.2-.3-.4-.1-.1 0-.2 0-.3 0-.2.1-.3.2-.3.2 0 .3.1.5.3l.1.1c.2.1.3.2.5.3 0 0 .1 0 .1.1.5.3 1.1.5 1.7.7.2 0 .3.1.5.1.8.2 1.5.4 2.3.7.9.5 1.7 1 2.1 1.7.1.1.2.2.3.4.5.6 1 1.3 1.3 2 .2.5.2 1 .3 1.5 0 .1.1.8.1.8l.4-.3c.2-.2.5-.4.8-.7l.4-.4c0-.2.1-.3.2-.5l.2-.2.4-.4c.1-.2.3-.3.4-.5l.2-.2.2-.2.5-.5c.2-.2.4-.5.6-.7l.3-.3c.1-.2.2-.3.4-.5.1-.2.3-.4.4-.6 0-.1.1-.2.1-.2.1-.1.2-.3.3-.4.1-.2.2-.3.3-.5.1-.1.1-.2.2-.3.1-.1.1-.3.2-.4.2-.3.5-.5.7-.5h.1c.5 0 1 .5 1.2 1 .2.5 0 1.1-.2 1.7V3c-.2.6-.6 1.2-.9 1.8-.4.6-.7 1.1-1.1 1.5-.1.1-.2.2-.2.3-.1.1-.3.3-.4.5l-.1.1c-.2.2-.3.4-.5.6-.1.1-.2.1-.2.2-.2.1-.3.2-.5.4l-.7.7c-.2.2-.5.4-.8.6-.3.2-.6.4-.8.6-.1.1-.2.2-.4.3l-.3.3-.1.1-.4.3.4.2c.2.1.4.3.6.5l.1.1.6.6c.3.5.6 1.1.7 1.9.1.4.1.7.1 1.1 0 .2-.1.4-.1.7 0 .1-.1.2-.1.3-.2.6-.4 1.2-.8 1.9l-.1.1c-.1.2-.3.5-.5.7l-.6.6-.1.1s-.1 0-.1.1l-.3-.2v.2c-.2 1.8-.9 3.3-2 4.4-.2.2-.5.4-.8.6l-.1.1v.4c0 .1-.1.2-.2.3l-.1.1c-.1.1-.1.2-.1.3v.1c-.1.3-.3.5-.5.8-.5.5-.9 1-1.4 1.4-.5.4-1 .7-1.5 1-.2.1-.3.2-.5.3-.3.2-.6.4-.9.5-.4.1-.8.2-1.2.2-.1 0-.3 0-.4.1-.2 0-.4.1-.6.1-.4.1-.8.2-1.2.2h-.1c-.4 0-.8 0-1.2-.1-.2 0-.4 0-.6-.1h-.6-.2l-.1.1h-.1l-.1.1c-.1.1-.3.2-.4.3-.3.1-.5.2-.8.3-.1 0-.2.1-.3.1l-1.2.3c-.5-.1-1-.1-1.4-.1h-.7z" fill="#FFF" fill-rule="nonzero"/>
</svg>
