<?xml version="1.0" encoding="utf-8"?>
<!-- Generator: Adobe Illustrator 22.0.0, SVG Export Plug-In . SVG Version: 6.00 Build 0)  -->
<svg version="1.1" id="Layer_1" xmlns="http://www.w3.org/2000/svg" xmlns:xlink="http://www.w3.org/1999/xlink" x="0px" y="0px"
	 viewBox="0 0 46 32" style="enable-background:new 0 0 46 32;" xml:space="preserve">
<style type="text/css">
	.st0{filter:url(#Adobe_OpacityMaskFilter);}
	.st1{fill:#FFFFFF;}
	.st2{mask:url(#mask-2_1_);fill:#231F20;}
</style>
<title>Page 1 Copy</title>
<desc>Created with Sketch.</desc>
<g id="Mobile-Portrait---Splash" transform="translate(-138.000000, -67.000000)">
	<g id="Page-1-Copy" transform="translate(138.000000, 67.000000)">
		<g id="Clip-2">
		</g>
		<defs>
			<filter id="Adobe_OpacityMaskFilter" filterUnits="userSpaceOnUse" x="0" y="0" width="46" height="32">
				<feColorMatrix  type="matrix" values="1 0 0 0 0  0 1 0 0 0  0 0 1 0 0  0 0 0 1 0"/>
			</filter>
		</defs>
		<mask maskUnits="userSpaceOnUse" x="0" y="0" width="46" height="32" id="mask-2_1_">
			<g class="st0">
				<polygon id="path-1_1_" class="st1" points="0,0 46,0 46,32 0,32 				"/>
			</g>
		</mask>
		<path id="Fill-1" class="st2" d="M11.9,9.1c0,0,0.1,0,0.1,0c0,0,0.1,0.1,0.1,0.1l0.1,0.1l0.1,0c0.8,0.2,1.6,0.2,2.1,0.3
			c0.3,0,0.7,0,1,0c0.3,0,0.5,0,0.8,0l0.1,0l0.1,0c0.1,0,0.1-0.1,0.2-0.1c0,0,0.1,0,0.1,0l0.1,0l0.1,0c0.2,0,0.5-0.1,0.7-0.1
			c0.2,0,0.3-0.1,0.5-0.1c0.7-0.1,1.4-0.3,2.1-0.5c0.3-0.1,0.6-0.2,0.9-0.4c0.1-0.1,0.2-0.1,0.4-0.2c0.1,0,0.2-0.1,0.3-0.1l0.5-0.2
			l-0.4-0.3c-0.7-0.5-1.4-1-2.2-1.4c-0.1-0.1-0.2-0.1-0.3-0.2C19,6.1,18.7,6,18.4,5.8c-0.3-0.1-0.6-0.2-0.8-0.3
			c-0.1,0-0.3-0.1-0.4-0.1C17,5.3,17,5.2,17,5.2c0-0.1,0-0.2,0-0.3c0.3-0.4,0.9-0.5,1.5-0.5c0.2,0,0.4,0,0.6-0.1
			c1-0.1,1.9-0.4,2.8-0.7c0.9-0.3,1.8-0.6,2.7-0.7c0.4-0.1,0.8-0.1,1.1-0.1l0.9-0.1l-0.7-0.4c-0.1-0.1-0.2-0.1-0.4-0.2
			c0,0-0.1,0-0.1-0.1l-0.1,0c-0.3-0.2-0.7-0.3-1-0.4c-0.4-0.1-0.8-0.2-1.2-0.2c-0.2,0-0.5,0-0.7,0c-0.5,0-0.9,0-1.3,0.1
			c-0.6,0.1-1.1,0.3-1.7,0.5l-0.1,0.1c-1.4,0.5-2.6,1.1-3.6,1.8c-0.8,0.6-1.6,1.2-2.3,1.8C13,6,12.8,6.2,12.5,6.4
			c-0.6,0.4-1.1,0.8-1.7,1.2C10.6,7.7,10.3,7.8,10,8L9.4,8.2l0.4,0.3c0.1,0.1,0.2,0.1,0.4,0.2c0.4,0.2,0.8,0.3,1.3,0.5
			c0,0,0.1,0,0.1,0l0.1-0.1C11.8,9.2,11.8,9.1,11.9,9.1z M33.5,10c0.1,0,0.2,0.1,0.3,0.2l0.5,0.8V10c0,0,0,0,0,0
			c0.1-0.8,0-1.7-0.2-2.7C34,6.9,33.8,6.4,33.6,6c-0.1-0.2-0.2-0.4-0.3-0.5l0,0c0,0,0-0.1-0.1-0.1c0,0-0.1-0.1-0.1-0.1l-0.1-0.1l0,0
			l0-0.1c-0.1,0-0.3-0.2-0.2-0.4c0-0.1,0.2-0.2,0.3-0.2c0,0,0.1,0,0.1,0c0.3,0.2,0.5,0.5,0.7,0.9l0,0c0.2,0.5,0.4,1,0.5,1.5
			c0.3,1,0.4,2,0.3,2.8l0,0.4l0.4-0.2l0.1-0.1c0.2-0.1,0.5-0.2,0.7-0.4c0.1-0.1,0.3-0.2,0.4-0.3l0,0l0,0c0,0,0,0,0,0l0.1-0.1l0-0.1
			c0-0.1,0-0.3,0-0.4c0,0,0-0.1,0-0.1c0-0.3,0-0.6-0.1-0.9c-0.1-0.5-0.2-1-0.4-1.5c-0.2-0.4-0.5-0.7-0.7-1.1
			c-0.1-0.1-0.1-0.2-0.2-0.3c-0.2-0.3-0.4-0.5-0.6-0.8c-0.5-0.5-1.2-1-2.1-1.4c-0.6-0.2-1.1-0.4-1.6-0.5c-0.3-0.1-0.6-0.2-1-0.3
			l-0.8-0.2l0.5,0.7c0.5,0.6,0.8,1.1,1,1.6c0.4,0.7,0.6,1.5,0.8,2.3c0.1,0.2,0.1,0.4,0.1,0.5c0.1,0.2,0.1,0.4,0.2,0.6
			c0.1,0.4,0.3,0.7,0.5,1c0.2,0.3,0.4,0.6,0.6,0.9l0.1,0.1c0.1,0.1,0.2,0.2,0.3,0.4l0,0l0,0.1l0,0l0,0l0,0.1L33.5,10
			c-0.1,0-0.1-0.1-0.2-0.1l0,0l-0.1-0.1l0,0c0,0,0,0,0,0l0.2-0.2l0.1-0.1l0,0c0,0,0,0,0,0l0,0l0,0.2l-0.1,0.1L33.5,10L33.5,10z
			 M26.6,3.4c-0.6,0-1.3,0.1-2.1,0.2c-0.7,0.1-1.4,0.3-2.1,0.5c-0.2,0.1-0.3,0.1-0.5,0.2c-0.9,0.3-1.8,0.5-2.7,0.7l-0.9,0.1l0.7,0.4
			C19.3,5.6,19.6,5.8,20,6c0.8,0.5,1.6,0.9,2.2,1.4c0.2,0.1,0.4,0.3,0.5,0.4l0,0l0.1,0c0,0,0.1,0,0.1,0.1c0,0,0,0,0.1,0.1l0,0.1
			l0.1,0.1c0.1,0.1,0.2,0.2,0.3,0.2c0.2,0.1,0.4,0.3,0.6,0.4c0.3,0.3,0.6,0.6,0.8,0.8c0.3,0.4,0.5,0.7,0.8,0.9
			c0.3,0.3,0.6,0.5,1,0.7c0.4,0.2,0.7,0.3,1,0.3c0.1,0,0.1,0,0.1,0.1l0.1,0.2l0.2-0.1c0.5-0.3,1.1-0.5,1.7-0.6
			c0.6-0.1,1.2-0.2,1.7-0.2h0.1l0.1-0.5c-0.1,0-0.2-0.1-0.3-0.1c-0.1,0-0.1-0.1-0.2-0.1C31.3,10,31.2,10,31,9.9
			c-0.4-0.2-0.8-0.4-1.1-0.6l-0.2-0.2c-0.4-0.3-0.8-0.6-1.2-0.9C28.3,8.1,28.2,8,28,7.9c-0.3-0.2-0.6-0.4-1-0.6
			c-0.1,0-0.1-0.1-0.1-0.2c0-0.1,0-0.2,0.1-0.3c0.1-0.1,0.2-0.1,0.2-0.1c0.1,0,0.1,0,0.2,0.1c0.3,0.2,0.7,0.4,1,0.6
			c0.2,0.1,0.4,0.2,0.6,0.3c0.4,0.2,0.7,0.5,1.1,0.8c0.1,0.1,0.2,0.1,0.2,0.2c0.4,0.3,0.8,0.5,1.1,0.7l1,0.5L32,9.1
			c0-0.1-0.2-0.3-0.2-0.3c-0.2-0.3-0.4-0.7-0.5-1.1c-0.1-0.3-0.2-0.5-0.2-0.8C31,6.8,31,6.7,31,6.5c-0.2-0.9-0.5-1.6-0.8-2.2
			l-0.1-0.1l-0.2,0c0,0,0,0,0,0c-0.3,0-0.6-0.2-0.9-0.3c-0.2-0.1-0.3-0.1-0.5-0.2c-0.5-0.2-0.9-0.2-1.4-0.3
			C27,3.4,26.8,3.4,26.6,3.4L26.6,3.4z M33.2,12.4c0.1,0.2,0.4,0.4,0.6,0.5l0.1,0c0.1,0.1,0.2,0.1,0.2,0.2l0.2,0.1l0.2-0.1
			c0.2-0.1,0.3-0.2,0.5-0.3c0.1-0.1,0.2-0.1,0.3-0.2c0.2-0.2,0.5-0.3,0.7-0.5l0.1-0.1c0.3-0.2,0.5-0.4,0.8-0.6
			c0.2-0.1,0.4-0.3,0.5-0.5c0.1-0.1,0.1-0.1,0.2-0.2c0.1-0.1,0.2-0.2,0.4-0.3c0.1-0.1,0.2-0.2,0.4-0.3c0.1-0.1,0.2-0.2,0.3-0.2
			c0.2-0.1,0.3-0.3,0.5-0.4c0.2-0.2,0.4-0.3,0.6-0.5c0.3-0.3,0.7-0.5,1-0.8C40.8,8.2,41,8.1,41.1,8c0.1-0.1,0.2-0.2,0.3-0.3
			c0.1-0.1,0.2-0.2,0.3-0.2c0.1-0.1,0.2-0.1,0.3-0.2c0.1-0.1,0.3-0.3,0.4-0.4c0.1-0.1,0.1-0.1,0.2-0.2c0.1-0.1,0.2-0.2,0.3-0.3
			C43,6.1,43.1,6,43.2,5.9c0.4-0.4,0.7-0.9,1.1-1.4l0,0c0.3-0.5,0.7-1.1,0.9-1.7l0-0.1c0.1-0.2,0.2-0.5,0.2-0.7c0-0.2,0.1-0.3,0-0.4
			l-0.2,0L45,1.7l-0.1,0l-0.1,0l0-0.1l0,0l0.1,0l0-0.1l0.2-0.1l0,0l0.1-0.1c0-0.1-0.1-0.1-0.1-0.2l0,0L45.1,1V0.8l-0.3,0h0l-0.1-0.1
			l-0.1,0.2l-0.3,0.3l0.1,0c0,0,0,0,0,0.1c-0.2,0.4-0.4,0.7-0.6,1c-0.1,0.2-0.2,0.4-0.3,0.6L43.3,3c-0.1,0.3-0.3,0.5-0.4,0.7
			c-0.1,0.1-0.2,0.2-0.3,0.4c-0.1,0.1-0.2,0.3-0.3,0.4c-0.2,0.2-0.4,0.5-0.6,0.7c-0.2,0.2-0.4,0.4-0.5,0.6C41,5.8,40.9,5.9,40.8,6
			c-0.1,0.1-0.2,0.2-0.3,0.4l0,0c-0.2,0.2-0.4,0.4-0.6,0.6c-0.3,0.2-0.5,0.5-0.8,0.7C39,8,38.8,8.2,38.6,8.4c-0.3,0.3-0.6,0.6-1,0.8
			c-0.1,0.1-0.2,0.2-0.4,0.3l0,0l0,0c0,0.1-0.1,0.1-0.2,0.1l0,0l0,0c-0.4,0.3-0.8,0.6-1.3,0.8c-0.1,0.1-0.2,0.1-0.3,0.2
			c-0.4,0.2-0.9,0.4-1.3,0.7c-0.3,0.2-0.5,0.4-0.7,0.5c0,0-0.1,0.1-0.1,0.1c0,0,0,0,0,0l0.4,0.4c0,0-0.1,0.1-0.2,0.1l-0.2-0.1
			c-0.1-0.1,0-0.2,0-0.3l-0.1,0.1L33.2,12.4L33.2,12.4C33.2,12.4,33.2,12.4,33.2,12.4L33.2,12.4L33.2,12.4z M22.5,8.6
			c-0.2,0.1-0.3,0.1-0.5,0.2c-0.2,0.1-0.4,0.1-0.5,0.2c-0.4,0.2-1,0.4-1.6,0.6c-0.9,0.2-1.8,0.4-2.9,0.6c-0.1,0-0.2,0-0.2,0l-0.1,0
			l-0.1,0.1c0,0.1-0.1,0.1-0.1,0.2c0,0.1-0.1,0.2-0.1,0.2c-0.1,0.2-0.2,0.4-0.3,0.6c-0.1,0.1-0.1,0.2-0.2,0.4
			c-0.2,0.4-0.5,0.8-0.7,1.2c-0.1,0.2-0.3,0.4-0.4,0.6l0,0.1c-0.3,0.6-0.7,1.2-1.1,1.8c-0.2,0.3-0.4,0.6-0.6,0.9
			c0,0.1-0.1,0.1-0.1,0.2l-0.3,0.4l0.6,0.1c0.4,0.1,0.8,0.2,1.2,0.3c0.1,0,0.4,0.1,0.4,0.1c0.4,0.1,0.8,0.2,1.2,0.3l0,0h0
			c0,0,0.1,0,0.1,0l0,0l0,0c0.4,0.1,0.8,0.2,1.2,0.2c0.2,0,0.4,0.1,0.7,0.1c0.5,0.1,1.1,0.1,1.6,0.1c0.2,0,0.3,0,0.5,0
			c0.5,0,1-0.1,1.5-0.2c0.4-0.1,0.8-0.1,1.2-0.1c0.4,0,0.8-0.1,1.2-0.2c0.1,0,0.1,0,0.2-0.1c0.2-0.1,0.3-0.1,0.5-0.2
			c0,0,0.1,0,0.1,0c0,0,0.1,0,0.1,0l0,0l0,0l0,0c0,0,0.1,0,0.1-0.1l0.1-0.1l0-0.3c0.1-0.5,0.2-0.9,0.3-1.4c0.3-1,0.8-2,1.6-2.8
			c0,0,0.1-0.1,0.1-0.1l0.3-0.3l-0.4-0.1c-0.2-0.1-0.4-0.2-0.6-0.3c-0.4-0.2-0.7-0.4-1-0.7c-0.4-0.3-0.6-0.6-0.9-0.9
			c-0.2-0.3-0.5-0.6-0.8-0.8c-0.2-0.1-0.4-0.3-0.5-0.4c-0.1-0.1-0.2-0.2-0.4-0.3l-0.1-0.1L22.5,8.6z M36.7,14.5
			c0.1,0.2,0.3,0.5,0.4,0.7c0.4,0.7,0.9,1.9,1,3.1c0,0.2,0,0.3,0,0.5l0,0.7l0.4-0.5c0.1-0.1,0.1-0.1,0.2-0.2
			c0.2-0.4,0.4-0.7,0.6-0.9c0.2-0.4,0.4-0.8,0.5-1.2c0-0.1,0.1-0.2,0.1-0.3c0-0.1,0-0.2,0.1-0.2c0,0,0-0.1,0-0.1
			c0-0.1,0.1-0.2,0.1-0.4c0-0.1,0-0.2,0-0.3c0-0.1,0-0.1,0-0.2c0-0.2,0-0.4-0.1-0.6c-0.1-0.3-0.2-0.7-0.3-1.1
			c-0.2-0.3-0.4-0.6-0.6-0.8c0,0-0.1-0.1-0.1-0.1c-0.1-0.1-0.1-0.2-0.2-0.2l-0.4,0.4c-0.1-0.1-0.1-0.2,0-0.3l0.2-0.2l0.2,0.1
			c0,0,0,0,0,0c0,0-0.1-0.1-0.1-0.1l0,0l0,0l-0.1,0l-0.1,0c0,0,0,0,0,0l0,0c-0.1,0-0.2-0.1-0.2-0.2l-0.2-0.3l-0.3,0.2
			c-0.1,0.1-0.3,0.3-0.4,0.3c-0.3,0.2-0.5,0.3-0.8,0.6c0,0-0.6,0.5-0.6,0.5l0.6,0.1c0.5,0.1,1,0.2,1.3,0.6c0.2,0.2,0.5,0.5,0.7,0.7
			c0.1,0.1,0.1,0.2,0.2,0.3c0,0.1,0.1,0.1,0.1,0.2l0.5-0.3c0,0,0.1,0.2,0,0.3l-0.2,0.1c-0.1,0-0.2-0.1-0.2-0.1c0,0,0,0,0,0
			c0,0,0,0,0,0.1l0,0c0,0,0.1,0.1,0.1,0.1c0.1,0.1,0.1,0.2,0.1,0.2c0,0.1-0.1,0.2-0.1,0.2c-0.1,0-0.1,0.1-0.2,0.1
			c-0.1,0-0.2,0-0.3-0.1c0,0-0.1-0.1-0.1-0.1c0,0-0.1-0.1-0.1-0.1c0,0-0.1-0.1-0.1-0.2c0-0.1-0.1-0.1-0.1-0.2
			c-0.1-0.2-0.3-0.4-0.4-0.5c-0.1-0.1-0.1-0.1-0.2-0.2c-0.1-0.1-0.2-0.2-0.3-0.2l-0.3,0.4L36.7,14.5L36.7,14.5z M8,19.5
			C8,19.5,8,19.5,8,19.5C8,19.5,8.1,19.5,8,19.5l0.1,0h0.1c0.1,0,0.3,0,0.4,0c0.3,0,0.5,0,0.8,0c0.9,0,1.7-0.2,2.5-0.5
			c0.2-0.1,0.3-0.1,0.5-0.2c0.3-0.1,0.5-0.2,0.7-0.3c0,0,0.1,0,0.1,0c0.1,0,0.3-0.1,0.4-0.1c0.1,0,0.1,0,0.2-0.1l0.6-0.3
			c0,0-0.8-0.2-0.8-0.2c-0.2,0-0.4-0.1-0.6-0.1c-0.3-0.1-0.7-0.1-0.9-0.3c-0.2-0.1-0.3-0.4-0.2-0.7c0.1-0.2,0.3-0.4,0.4-0.6
			c0.1-0.1,0.2-0.2,0.2-0.3c0.5-0.6,0.9-1.3,1.3-2l0-0.1c0.1-0.2,0.2-0.4,0.4-0.6c0.3-0.5,0.6-1,0.9-1.5c0.2-0.3,0.3-0.5,0.4-0.8
			l0.3-0.6h-0.5c-0.5,0-1.1,0-1.7-0.1c-0.7-0.1-1.2-0.2-1.8-0.3l-0.1,0L11.8,10c-0.1,0.1-0.2,0.1-0.3,0.2c-0.1,0.1-0.2,0.2-0.3,0.2
			c-0.2,0.2-0.5,0.4-0.7,0.6c-0.1,0.1-0.2,0.2-0.3,0.3c-1.2,1-2.2,2.3-3,3.9c-0.1,0.2-0.2,0.4-0.3,0.6c-0.3,0.7-0.7,1.3-1.1,2
			c-0.1,0.1-0.2,0.3-0.2,0.4c-0.1,0.2-0.3,0.5-0.4,0.7c0,0,0,0.1-0.1,0.1l-0.3,0.4l0.6,0c0,0,0.1,0,0.1,0c0.3,0,0.5,0,0.8,0
			c0.2,0,0.3,0,0.5,0c0.2,0,0.3,0,0.5,0c0.2,0,0.3,0,0.5,0l0,0L8,19.5C7.9,19.5,7.9,19.5,8,19.5z M35.2,14.7c0.2,0.3,0.4,0.7,0.6,1
			l0,0c0.3,0.6,0.5,1.3,0.7,2c0.2,0.6,0.4,1.3,0.4,2.1c0,0.2,0,0.4,0,0.5l0.5,0c0.1-0.9,0.1-1.8-0.1-2.6c-0.1-0.4-0.2-0.9-0.4-1.4
			c-0.2-0.4-0.4-1-0.7-1.4c-0.1-0.2-0.3-0.4-0.4-0.6l0,0c0.1,0.1,0.1,0.2,0.1,0.2l-0.3,0.3c0,0,0,0,0,0l0.2-0.4l-0.3,0.3l0-0.1
			l0,0.1l0-0.1l0,0l0.1-0.3l0-0.1l0,0l0-0.1l0,0l0,0.1l0,0c0.1,0,0.1,0,0.1,0.1l0,0l0,0l0,0l0,0c-0.1,0-0.1,0-0.1-0.1l0,0l0,0
			c0,0-0.1,0-0.1,0l-0.6-0.1L35.2,14.7z M31.7,11.5c-0.1,0-0.2,0-0.2,0c-0.6,0-1.2,0.1-1.8,0.3c-1,0.3-1.9,0.9-2.6,1.8
			c-0.4,0.5-0.6,0.9-0.8,1.4c-0.2,0.5-0.3,1.1-0.4,1.6l0,0.1c-0.2,1.1-0.4,2.1-0.8,3c-0.3,0.6-0.6,1.1-0.9,1.5l-0.3,0.4l0.5,0
			c0,0,0.1,0,0.1,0c0.2,0,0.4,0,0.6,0.1c0.2,0,0.5,0.1,0.7,0.1c0.1,0,0.2,0,0.2,0c0.6,0,1.3-0.1,2-0.4c0.7-0.3,1.5-0.6,2.2-1.1
			c0.4-0.2,0.7-0.4,1-0.7c0.2-0.1,0.3-0.3,0.5-0.4c0.1-0.1,0.1-0.1,0.2-0.2l0.1-0.1l0-0.3c0-0.2,0-0.4,0.1-0.6
			c0-0.4,0.1-0.8,0.1-1.2c0.1-0.5,0.3-1,0.6-1.5l0,0c0.3-0.4,0.6-0.9,0.9-1.2c0.1-0.1,0.1-0.1,0.2-0.2l0.3-0.2l-0.3-0.2l-0.1-0.1
			l-0.1,0c-0.1-0.1-0.2-0.1-0.2-0.2l-0.2-0.1L33,13.4c0,0-0.1,0.1-0.2,0.1l-0.1,0l0,0c0,0-0.1,0.1-0.1,0.1c-0.1,0.1-0.2,0.2-0.3,0.3
			c-0.2,0.2-0.4,0.3-0.6,0.5l-0.1,0.1c-0.6,0.4-1.1,1-1.6,1.5c-0.5,0.6-0.9,1.3-1.3,1.9c-0.1,0.1-0.2,0.3-0.2,0.4
			c-0.1,0.2-0.2,0.4-0.3,0.5c0,0.1-0.1,0.1-0.1,0.2c0,0.1-0.1,0.1-0.1,0.2c-0.1,0.1-0.1,0.2-0.1,0.4c0,0.1-0.2,0.3-0.3,0.3h0
			c-0.2,0-0.3-0.2-0.3-0.4c0-0.3,0.2-0.6,0.4-0.9c0.2-0.2,0.3-0.5,0.4-0.7c0.1-0.1,0.1-0.2,0.2-0.3c0.5-0.8,0.9-1.4,1.4-2
			c0.5-0.6,1.1-1.2,1.7-1.6c0.2-0.2,0.5-0.4,0.8-0.6c0.1-0.1,0.3-0.2,0.4-0.3l0.2-0.1l-0.1-0.2c0-0.1-0.1-0.2-0.1-0.3
			c0-0.1,0-0.2,0-0.4l0.1-0.2l-0.2-0.1c0,0-0.1,0-0.1-0.1C32.2,11.5,31.9,11.5,31.7,11.5z M6.1,14.8c-0.2,0.1-0.4,0.3-0.6,0.4
			c-0.6,0.5-1.1,1-1.4,1.6C4.1,16.9,4,17,4,17.1c-0.1,0.2-0.2,0.5-0.4,0.7c-0.1,0.2-0.2,0.3-0.3,0.5c-0.1,0.2-0.2,0.3-0.3,0.5
			c-0.2,0.3-0.3,0.6-0.5,0.9C2.2,20,2,20.4,1.8,20.8c-0.1,0.1-0.2,0.2-0.3,0.3c-0.1,0.2-0.2,0.3-0.3,0.5L0.9,22l0.5,0
			c0,0,0.1,0,0.1,0c0.2,0,0.3,0,0.5,0c0.2,0,0.5,0,0.7,0c0.1,0,0.1,0,0.2,0c0.8,0,1.5-0.1,2.2-0.4c0.7-0.3,1.3-0.6,1.7-1.1l0.4-0.5
			l-0.7,0c-0.1,0-0.3,0-0.4,0c-0.1,0-0.1,0-0.2,0c-0.1,0-0.2,0-0.3,0c-0.1,0-0.3,0-0.4,0c-0.1,0-0.2,0-0.2,0c-0.1,0-0.2,0-0.2,0
			c-0.3,0-0.4,0-0.6-0.2C4,19.8,4,19.6,4.1,19.5c0.1-0.3,0.2-0.5,0.4-0.7c0.1-0.1,0.2-0.2,0.2-0.3c0.2-0.3,0.4-0.6,0.5-0.9
			c0.1-0.1,0.1-0.3,0.2-0.4c0.3-0.5,0.6-1,0.8-1.5c0.1-0.2,0.2-0.3,0.3-0.5L6.1,14.8z M19,19c-0.1,0.6-0.3,1.2-0.6,1.8
			c-0.2,0.4-0.4,0.7-0.6,1.1l0,0.1c-0.2,0.3-0.3,0.6-0.6,0.8c-0.1,0.1-0.1,0.1-0.2,0.2l0,0l-0.2,0.2l0.2,0.2l0,0l0,0
			c0.1,0.1,0.2,0.1,0.3,0.2c0.4,0.3,0.8,0.4,1.2,0.6c0.2,0.1,0.4,0.2,0.6,0.3c0.7,0.4,1.4,0.6,2,0.8c0.7,0.2,1.4,0.3,2.1,0.3
			c0.2,0,0.3,0,0.5,0c0.2,0,0.4,0,0.6,0h0c0.2,0,0.5,0,0.7-0.1c0.1,0,0.2,0,0.3,0c0.1,0,0.2,0,0.3,0c0.2,0,0.5,0,0.7-0.1
			c0.2,0,0.3-0.1,0.5-0.2c0.2-0.1,0.3-0.1,0.5-0.2c0.7-0.2,1.2-0.5,1.8-0.9l0.1-0.1c0.2-0.1,0.3-0.3,0.5-0.4
			c0.1-0.1,0.1-0.1,0.2-0.2c0.1-0.1,0.1-0.1,0.2-0.2c0,0,0.1-0.1,0.1-0.1l0.1-0.1l0-0.1c0,0,0-0.1,0-0.1c0.1-0.2,0.2-0.2,0.3-0.2
			l0.2,0l0.1-0.2c0.2-0.6,0.3-1.2,0.4-2l0.1-0.6l-0.5,0.4c-0.2,0.1-0.4,0.3-0.6,0.4c-0.5,0.3-1.1,0.6-1.8,1
			c-0.7,0.3-1.3,0.5-1.8,0.6c-0.3,0.1-0.6,0.1-1,0.1c-0.3,0-0.6,0-1-0.1c-0.2,0-0.5,0-0.7-0.1c-0.5,0-1-0.1-1.4-0.2
			c-0.1,0-0.2-0.1-0.2-0.3c0-0.1,0-0.2,0.1-0.3c1.1-0.8,1.7-2,2-2.8c0-0.1,0.1-0.3,0.1-0.5l0.1-0.5l-0.5,0.2c-0.3,0.1-0.7,0.2-1,0.3
			c-0.2,0-0.5,0.1-0.8,0.1c-0.2,0-0.3,0-0.5,0c-0.3,0-0.5,0.1-0.8,0.1c-0.2,0-0.4,0-0.6,0.1c-0.6,0.1-1,0.1-1.5,0.1c0,0-0.1,0-0.1,0
			l-0.2,0L19,19z M15.9,18.4c-0.2,0.1-0.4,0.2-0.6,0.3c-0.1,0-0.2,0.1-0.3,0.1c-0.3,0.1-0.6,0.2-0.9,0.4c-0.7,0.3-1.3,0.7-1.9,1.1
			l-0.2,0.1c-0.7,0.5-1.4,1-2,1.4c-0.8,0.6-1.4,1-2.1,1.4l-0.1,0.1c-0.3,0.2-0.6,0.3-0.9,0.5l-0.5,0.2l0.5,0.3
			c0.1,0.1,0.3,0.2,0.4,0.2c0.2,0.1,0.4,0.2,0.6,0.3c0.2,0.1,0.5,0.3,0.8,0.4c0.9,0.5,1.9,0.6,2.8,0.7c0.8,0.1,1.6,0.2,2.4,0.2
			c0.2,0,0.3,0,0.5,0c0.3,0,0.6-0.1,0.9-0.1c0.2,0,0.4-0.1,0.6-0.1c0.5,0,1-0.1,1.4-0.3c0.2-0.1,0.4-0.1,0.6-0.2
			c0.2-0.1,0.4-0.1,0.7-0.2l0.5-0.2l-0.5-0.3l0,0l-0.1-0.1c-0.6-0.2-1.1-0.5-1.5-0.9c-0.3-0.3-0.4-0.5-0.4-0.7
			c0-0.3,0.2-0.5,0.5-0.7l0,0c0,0,0-0.1,0-0.1l0,0c0,0,0,0,0.1-0.1l0,0c0-0.1,0.1-0.1,0.1-0.2c0.1-0.2,0.2-0.3,0.3-0.5
			c0.2-0.3,0.4-0.6,0.5-1c0.3-0.6,0.4-1.1,0.6-1.7l0.1-0.3l-0.5-0.1c-0.6-0.1-1.2-0.1-1.8-0.3L15.9,18.4L15.9,18.4L15.9,18.4z
			 M33.8,14.9c-0.2,0.2-0.4,0.5-0.6,0.7l0,0.1c-0.3,0.4-0.5,0.8-0.6,1.3c-0.1,0.6-0.2,1.3-0.2,1.9l0,0.1l0,0.1c0,0.1,0.1,0.2,0,0.3
			l-0.1,0.1l0,0.1c0,0.3-0.1,0.6-0.1,0.9c-0.1,1.2-0.4,2.3-0.8,3.4c-0.2,0.5-0.4,0.9-0.6,1.6c-0.1,0.2-0.2,0.4-0.3,0.5l-0.2,0.5
			l0.5-0.1l0,0c0.1,0,0.2,0,0.3-0.1c0.1,0,0.2-0.1,0.4-0.1c0,0,0.1,0,0.1,0c0.1,0,0.2,0,0.2,0c0.1,0,0.2-0.1,0.3-0.1
			c0,0,0.1,0,0.1-0.1c0.1,0,0.2-0.1,0.3-0.1c0.2-0.1,0.4-0.1,0.5-0.2c0.6-0.2,1.1-0.5,1.5-0.8c0.1-0.1,0.3-0.2,0.4-0.3
			c0.3-0.2,0.7-0.5,1-0.8c0.3-0.3,0.5-0.7,0.8-1.1l0.2-0.3l-0.3-0.1c-0.1,0-0.2-0.1-0.2-0.3c0-0.3,0-0.5,0-0.7c0-0.1,0-0.2,0-0.2
			l0-0.3c0-0.3,0-0.6,0-0.8c0-0.6-0.2-1.3-0.4-2.1c-0.1-0.4-0.2-0.8-0.4-1.2L35,16.8c0,0.7,0,1.5,0,2.2c0,0.4-0.1,0.8-0.2,1.3
			c-0.1,0.2-0.1,0.4-0.1,0.6c-0.1,0.5-0.2,1.1-0.6,1.5c0,0-0.1,0.1-0.1,0.1c-0.1,0-0.2,0-0.3-0.1c-0.1-0.2,0-0.4,0.1-0.5l0,0
			c0,0-0.1,0.1-0.2,0.1l-0.2-0.1l0-0.2l0.2,0.1l-0.2-0.2c0,0,0.1,0,0.1,0l0.2,0.1c0,0.1,0,0.1,0,0.2l0,0c0,0,0-0.1,0.1-0.1
			c0.1-0.1,0.1-0.3,0.1-0.4l0,0c0,0,0-0.2,0.1-0.3l0-0.1c0-0.1,0-0.1,0-0.2c0-0.2,0.1-0.3,0.1-0.5c0-0.2,0.1-0.3,0.1-0.5
			c0.1-0.4,0.1-0.8,0.1-1.1c0-0.8,0-1.5,0-2.2c0-0.2,0-0.3,0-0.5c0-0.2,0-0.4,0-0.6c0-0.1,0-0.2,0-0.3l-0.1-0.6L33.8,14.9z M10.7,20
			c-0.1,0-0.2,0-0.3,0c-0.6,0.1-1.2,0.1-1.9,0.1l-0.3,0l-0.1,0c0,0-0.1,0-0.1,0l-0.1,0l-0.1,0.1c-0.1,0.1-0.2,0.2-0.3,0.3
			c-0.2,0.1-0.3,0.3-0.4,0.4c-0.1,0.1-0.2,0.2-0.3,0.3c-0.6,0.5-1.4,0.8-1.9,1c-0.3,0.1-0.5,0.2-0.8,0.2l-0.1,0L4,22.7
			c0,0-0.1,0.1-0.2,0.1l-0.1,0l-0.1,0.1l0,0l0,0c0,0,0,0-0.1,0.1c0,0,0,0.1-0.1,0.1c-0.1,0.1-0.2,0.3-0.3,0.4l-0.1,0.1
			C3,23.8,2.8,24,2.7,24.1c-0.1,0.1-0.1,0.1-0.2,0.2c0,0-0.1,0.1-0.1,0.1c-0.1,0.1-0.1,0.1-0.2,0.2l-0.2,0.3l0.3,0.2c0,0,0,0,0.1,0
			c0.3,0.2,0.6,0.3,0.9,0.4c0.7,0.3,1.5,0.5,2,0.6C6,26.3,6.5,26.4,7,26.4c0.1,0,0.3,0,0.4,0l0,0l0,0c0.1,0,0.3-0.1,0.4-0.1L8.5,26
			l-0.8-0.4c-0.2-0.1-0.4-0.2-0.6-0.3c-0.2-0.1-0.5-0.2-0.7-0.4c-0.1-0.1-0.3-0.2-0.4-0.2c-0.1-0.1-0.2-0.1-0.2-0.1l0,0
			c-0.2-0.1-0.4-0.2-0.5-0.4c-0.1-0.1-0.1-0.2-0.1-0.3c0-0.1,0.1-0.2,0.2-0.2c0.2-0.1,0.3-0.1,0.5-0.2c0.2-0.1,0.5-0.2,0.7-0.3
			C7,23,7.3,22.8,7.8,22.6c0.7-0.4,1.3-0.8,1.9-1.3l0.1,0c0.4-0.3,0.7-0.5,1.1-0.8L10.7,20z M22.4,26.5c-0.2,0.4-0.4,0.8-0.7,1.2
			c-0.1,0.1-0.2,0.3-0.3,0.4c-0.2,0.3-0.4,0.6-0.6,0.8c0,0-0.1,0.1-0.2,0.2l-0.4,0.3l0.5,0.1c0.3,0.1,0.5,0.1,0.7,0.2
			c0.7,0.1,1.4,0.2,2,0.3c0.2,0,0.4,0,0.5,0c0.4,0,0.8,0.1,1.2,0.1c0.1,0,0.2,0,0.2,0c0.2,0,0.5,0.1,0.7,0.1c0,0,0,0,0.1,0
			c0.2,0,0.4,0,0.7-0.1l0.4-0.1c0.4-0.1,0.9-0.2,1.3-0.2l0.1,0c0.5-0.1,0.9-0.1,1.4-0.4c0.1-0.1,0.2-0.1,0.4-0.2
			c0.1-0.1,0.2-0.1,0.3-0.2c0.1-0.1,0.2-0.1,0.4-0.2c0.1-0.1,0.2-0.1,0.3-0.2c0.4-0.2,0.8-0.6,1.3-1c0.3-0.3,0.7-0.7,1-1.1l0,0
			l-0.3-0.4c-0.1,0-0.1,0-0.2,0.1c-0.2,0.1-0.3,0.1-0.5,0.2c-0.1,0-0.2,0.1-0.4,0.1c-0.1,0-0.1,0.1-0.2,0.1
			c-0.1,0.1-0.3,0.1-0.4,0.1c0,0-0.1,0-0.1,0c-0.1,0-0.2,0-0.3,0c-0.1,0-0.1,0-0.2,0.1c-0.1,0-0.1,0-0.2,0c0,0-0.1,0-0.2,0
			c-0.1,0-0.1,0-0.2,0c0,0-0.1,0-0.1,0l0,0l0,0c0,0-0.1,0-0.1,0c0,0,0,0,0.1,0l0.3,0.2c0,0.1,0,0.2-0.1,0.3L30.5,27
			c-0.1,0.1-0.2,0.1-0.2,0.1c-0.1,0-0.2,0-0.2-0.1c0,0,0,0,0,0l-0.1-0.1c0,0-0.2,0-0.2,0c0,0-0.1,0-0.1,0c-0.2-0.1-0.2-0.3-0.2-0.4
			c0-0.1,0.1-0.3,0.2-0.4c0.1-0.1,0.1-0.2,0.2-0.3c0.1-0.2,0.2-0.5,0.4-0.7l0.4-0.8l-0.8,0.5c-0.1,0-0.1,0.1-0.2,0.1l-0.1,0
			c-0.4,0.3-0.8,0.5-1.2,0.6c-0.2,0.1-0.4,0.2-0.7,0.2c-0.2,0.1-0.3,0.1-0.5,0.2l-0.1,0c-0.3,0.1-0.6,0.2-0.9,0.3
			c-0.2,0-0.4,0-0.6,0.1c-0.2,0-0.4,0-0.6,0.1c-0.2,0-0.4,0-0.7,0c-0.2,0-0.4,0-0.5,0s-0.3,0-0.5,0c-0.2,0-0.5,0-0.7,0l-0.2,0
			L22.4,26.5z M9,26.7c-0.1,0-0.2,0-0.3,0.1c-0.1,0-0.2,0-0.3,0c-0.1,0-0.2,0-0.3,0c-0.1,0-0.2,0-0.3,0c-0.1,0-0.2,0-0.3,0l0,0l0,0
			c-0.1,0-0.2,0.1-0.4,0.1c-0.3,0.1-0.5,0.1-0.8,0.2c-0.2,0-0.4,0.1-0.7,0.1c-0.1,0-0.2,0.1-0.3,0.1c0,0-0.1,0-0.1,0l-0.4,0.2
			l0.4,0.4c0.1,0.1,0.3,0.2,0.4,0.3c0.2,0.1,0.4,0.3,0.5,0.4c0.5,0.5,1.1,1,1.8,1.3c0.6,0.3,1.3,0.5,2,0.7c0.2,0,0.4,0.1,0.6,0.1
			l0.1-0.5c-0.4-0.2-0.7-0.4-1.1-0.6c-0.2-0.1-0.4-0.2-0.6-0.4c-0.1,0-0.2-0.1-0.2-0.1c-0.2-0.1-0.3-0.2-0.4-0.3
			c-0.2-0.2-0.2-0.5,0-0.7C8.4,28,8.8,27.9,9,27.7c0.1,0,0.2-0.1,0.2-0.1c0.1,0,0.1-0.1,0.2-0.1c0.1,0,0.2-0.1,0.3-0.2
			c0.2-0.1,0.3-0.2,0.5-0.3l0.6-0.4l-0.7-0.1c-0.1,0-0.1,0-0.2,0l-0.1,0l-0.1,0.1c-0.1,0.1-0.2,0.2-0.4,0.2c0,0-0.1,0-0.1,0
			c0,0-0.1,0-0.1,0l0,0C9.1,26.7,9,26.7,9,26.7L9.3,27l-0.2,0.3L9,26.7L9,26.7z M11.8,26.8c-0.2,0.1-0.4,0.2-0.6,0.4
			c-0.1,0.1-0.2,0.1-0.2,0.2c-0.1,0.1-0.3,0.2-0.4,0.2c-0.2,0.1-0.4,0.3-0.6,0.4c-0.1,0.1-0.3,0.2-0.5,0.2c-0.1,0.1-0.2,0.1-0.3,0.2
			l-0.4,0.2l0.5,0.3c0.1,0.1,0.3,0.2,0.4,0.2c0.1,0.1,0.2,0.1,0.2,0.2c0.2,0.1,0.4,0.2,0.5,0.3c0.5,0.3,1.1,0.5,1.8,0.7
			c0.6,0.2,1.3,0.3,1.9,0.4c0.4,0.1,0.8,0.2,1.2,0.2c0.3,0.1,0.6,0.1,0.9,0.2c0.7,0.1,1.5,0.2,2.1,0.2c0.1,0,0.3,0,0.4,0
			c0.2,0,0.5,0,0.7,0c0.4,0,0.7,0,0.9,0c0.6-0.1,1.2-0.2,1.6-0.4l0-0.5c-0.4-0.1-0.7-0.1-1.1-0.2c-0.1,0-0.1,0-0.2,0
			c-0.2,0-0.3-0.1-0.5-0.2c-0.2-0.1-0.4-0.2-0.5-0.4c0-0.1,0-0.2,0-0.3c0.1-0.2,0.3-0.3,0.4-0.4c0.1-0.1,0.2-0.2,0.3-0.2
			c0.2-0.2,0.4-0.5,0.6-0.8c0.1-0.1,0.1-0.2,0.2-0.3c0.2-0.3,0.4-0.7,0.6-1l0.1-0.3l-0.3-0.1c-0.4-0.1-0.7-0.2-1.1-0.3
			c-0.2-0.1-0.4-0.1-0.6-0.2l-0.1,0l-0.1,0c-0.2,0-0.4,0.1-0.6,0.2l-0.1,0c-0.2,0.1-0.3,0.1-0.5,0.2c-0.1,0-0.1,0-0.2,0.1
			c-0.2,0.1-0.4,0.1-0.7,0.2c-0.3,0.1-0.6,0.2-0.9,0.3c-0.4,0.1-0.7,0.1-1.1,0.2c-0.1,0-0.3,0-0.4,0.1c-0.5,0.1-1,0.1-1.5,0.1h-0.1
			c-0.5,0-1.1,0-1.7-0.1L11.8,26.8L11.8,26.8z M18.8,32c-0.6,0-1,0-1.5,0c-0.7,0-1.3-0.2-2-0.3l-0.2-0.1c-0.3-0.1-0.6-0.1-0.9-0.2
			l-0.1,0l-0.1,0c-0.3,0.1-0.5,0.2-0.9,0.2h0c-0.1,0-0.3,0-0.4,0l-0.1,0c-0.1,0-0.2,0-0.2,0c0,0-0.1,0-0.1,0c-0.1,0-0.2,0-0.2,0h0
			c-0.1,0-0.3,0-0.4,0c-0.1,0-0.2,0-0.2,0c0,0-0.1,0-0.1,0c-0.1,0-0.2,0-0.3,0c-0.1,0-0.2,0-0.2,0c-0.3,0-0.7-0.1-1.2-0.2
			c-0.9-0.2-1.5-0.5-2.1-0.8c-0.7-0.4-1.2-0.8-1.8-1.3l-0.2-0.2c-0.1-0.1-0.2-0.2-0.3-0.3c-0.4-0.3-0.9-0.7-1.1-1.2
			c0-0.1,0-0.2,0-0.3c0.1-0.1,0.2-0.2,0.4-0.3l1-0.3l-1-0.3c-0.6-0.2-1-0.3-1.4-0.5c-0.2-0.1-0.3-0.1-0.5-0.2
			c-0.1,0-0.1-0.1-0.2-0.1c0,0-0.1-0.1-0.1-0.1c0,0-0.1-0.1-0.1-0.1c-0.3-0.2-0.6-0.3-0.7-0.6c-0.1-0.1,0-0.2,0-0.3
			c0.1-0.1,0.1-0.2,0.2-0.2c0.1,0,0.1-0.1,0.1-0.1C1.9,24.2,2,24.1,2,24c0-0.1,0.1-0.1,0.1-0.2c0.2-0.2,0.3-0.4,0.5-0.6l0.3-0.4
			l-0.5,0c-0.2,0-0.4,0-0.6,0c-0.2,0-0.4,0-0.6,0c-0.4,0-0.7,0-1.1-0.2c-0.1,0-0.1-0.1-0.2-0.2c0-0.1,0-0.2,0-0.3
			c0-0.1,0.1-0.1,0.2-0.2c0.1-0.1,0.1-0.1,0.2-0.2c0.1-0.1,0.1-0.2,0.2-0.3c0-0.1,0.1-0.1,0.1-0.2C0.8,21,0.9,20.9,1,20.8
			c0.2-0.2,0.3-0.4,0.5-0.7c0.2-0.3,0.4-0.7,0.6-1c0.2-0.4,0.4-0.7,0.6-1.1l0.1-0.2c0.2-0.2,0.3-0.5,0.5-0.7
			c0.1-0.1,0.1-0.2,0.2-0.3c0.1-0.2,0.2-0.5,0.4-0.7c0.3-0.5,0.8-1,1.5-1.5C5.6,14.4,6,14.2,6.3,14c0.1-0.1,0.3-0.2,0.4-0.2
			c0,0,0.1,0,0.2-0.1c0.1,0,0.2-0.1,0.2-0.1c0.1,0,0.1-0.1,0.2-0.1l0.1,0l0.1-0.1c0.2-0.3,0.3-0.5,0.5-0.7c0.5-0.6,1.1-1.3,1.7-1.8
			c0.1-0.1,0.3-0.2,0.4-0.3c0.2-0.2,0.4-0.3,0.5-0.5l0.3-0.3l-0.4-0.2C9.9,9.3,9.1,8.9,8.7,8.2C8.6,8.1,8.8,7.9,8.9,7.8
			c0.2-0.1,0.4-0.2,0.7-0.3c0.1,0,0.2-0.1,0.3-0.1c0.3-0.1,0.6-0.3,0.9-0.5c0.6-0.4,1.2-0.9,1.8-1.4c1-0.8,2-1.7,3.2-2.4
			c0.7-0.4,1.3-0.7,1.8-1c0.5-0.2,1.1-0.4,1.6-0.6l0.3-0.1c0.9-0.3,1.9-0.5,3-0.5c0.3,0,0.7,0,1.1,0.1c0.7,0.1,1.4,0.4,1.9,0.6
			l0.1,0c0.2,0.1,0.5,0.2,0.7,0.4c0.1,0.1,0.2,0.2,0.3,0.3l0,0c0,0,0,0.1,0.1,0.1l0,0l0,0l0,0.1l0.1,0c0.1,0,0.2,0.1,0.2,0.2
			l0.1,0.2l0.2,0c0.1,0,0.1,0,0.2,0c0.4,0,0.8,0.1,1.3,0.3l0.9,0.3l-0.5-0.7c-0.1-0.2-0.3-0.3-0.4-0.5c-0.1-0.1-0.2-0.2-0.3-0.3
			c-0.2-0.2-0.4-0.5-0.5-0.7l0,0l0,0c0,0,0,0-0.1-0.1l0,0c-0.1-0.1-0.1-0.1-0.2-0.2c-0.1-0.1-0.2-0.2-0.3-0.4c-0.1-0.1,0-0.2,0-0.3
			C27.4,0.1,27.5,0,27.6,0c0,0,0,0,0,0c0.2,0,0.3,0.1,0.5,0.3c0,0,0.1,0.1,0.1,0.1c0.2,0.1,0.3,0.2,0.5,0.3c0,0,0.1,0,0.1,0.1
			c0.5,0.3,1.1,0.5,1.7,0.7c0.2,0,0.3,0.1,0.5,0.1c0.8,0.2,1.5,0.4,2.3,0.7c0.9,0.5,1.7,1,2.1,1.7c0.1,0.1,0.2,0.2,0.3,0.4
			c0.5,0.6,1,1.3,1.3,2c0.2,0.5,0.2,1,0.3,1.5c0,0.1,0.1,0.8,0.1,0.8l0.4-0.3c0.2-0.2,0.5-0.4,0.8-0.7c0.1-0.1,0.3-0.3,0.4-0.4
			C39,7.1,39.1,7,39.2,6.8c0.1-0.1,0.1-0.1,0.2-0.2c0.1-0.1,0.3-0.3,0.4-0.4c0.1-0.2,0.3-0.3,0.4-0.5c0.1-0.1,0.2-0.2,0.2-0.2
			c0.1-0.1,0.1-0.1,0.2-0.2c0.2-0.2,0.3-0.3,0.5-0.5c0.2-0.2,0.4-0.5,0.6-0.7c0.1-0.1,0.2-0.2,0.3-0.3c0.1-0.2,0.2-0.3,0.4-0.5
			c0.1-0.2,0.3-0.4,0.4-0.6c0-0.1,0.1-0.2,0.1-0.2c0.1-0.1,0.2-0.3,0.3-0.4c0.1-0.2,0.2-0.3,0.3-0.5c0.1-0.1,0.1-0.2,0.2-0.3
			c0.1-0.1,0.1-0.3,0.2-0.4c0.2-0.3,0.5-0.5,0.7-0.5c0,0,0.1,0,0.1,0c0.5,0,1,0.5,1.2,1c0.2,0.5,0,1.1-0.2,1.7L45.7,3
			c-0.2,0.6-0.6,1.2-0.9,1.8l0,0c-0.4,0.6-0.7,1.1-1.1,1.5c-0.1,0.1-0.2,0.2-0.2,0.3c-0.1,0.1-0.3,0.3-0.4,0.5l-0.1,0.1
			c-0.2,0.2-0.3,0.4-0.5,0.6c-0.1,0.1-0.2,0.1-0.2,0.2c-0.2,0.1-0.3,0.2-0.5,0.4l0,0c-0.2,0.2-0.5,0.5-0.7,0.7
			c-0.2,0.2-0.5,0.4-0.8,0.6c-0.3,0.2-0.6,0.4-0.8,0.6c-0.1,0.1-0.2,0.2-0.4,0.3c-0.1,0.1-0.2,0.2-0.3,0.3c0,0-0.1,0.1-0.1,0.1
			l-0.4,0.3l0.4,0.2c0.2,0.1,0.4,0.3,0.6,0.5l0.1,0.1c0.2,0.2,0.4,0.4,0.6,0.6c0.3,0.5,0.6,1.1,0.7,1.9c0.1,0.4,0.1,0.7,0.1,1.1
			c0,0.2-0.1,0.4-0.1,0.7c0,0.1-0.1,0.2-0.1,0.3c-0.2,0.6-0.4,1.2-0.8,1.9l-0.1,0.1c-0.1,0.2-0.3,0.5-0.5,0.7
			c-0.2,0.2-0.4,0.4-0.6,0.6l-0.1,0.1c0,0-0.1,0-0.1,0.1L38.1,20l0,0.2c-0.2,1.8-0.9,3.3-2,4.4c-0.2,0.2-0.5,0.4-0.8,0.6l-0.1,0.1
			l0,0.2c0,0.1,0,0.1,0,0.2c0,0.1-0.1,0.2-0.2,0.3c0,0-0.1,0.1-0.1,0.1c-0.1,0.1-0.1,0.2-0.1,0.3c0,0,0,0.1,0,0.1
			c-0.1,0.3-0.3,0.5-0.5,0.8c-0.5,0.5-0.9,1-1.4,1.4c-0.5,0.4-1,0.7-1.5,1c-0.2,0.1-0.3,0.2-0.5,0.3c-0.3,0.2-0.6,0.4-0.9,0.5
			c-0.4,0.1-0.8,0.2-1.2,0.2c-0.1,0-0.3,0-0.4,0.1c-0.2,0-0.4,0.1-0.6,0.1c-0.4,0.1-0.8,0.2-1.2,0.2c0,0-0.1,0-0.1,0
			c-0.4,0-0.8,0-1.2-0.1c-0.2,0-0.4,0-0.6-0.1l-0.5,0l-0.1,0c0,0,0,0-0.1,0l-0.1,0l-0.1,0.1l-0.1,0l0,0c0,0-0.1,0.1-0.1,0.1
			c-0.1,0.1-0.3,0.2-0.4,0.3c-0.3,0.1-0.5,0.2-0.8,0.3c-0.1,0-0.2,0.1-0.3,0.1c-0.4,0.1-0.8,0.2-1.2,0.3C20.4,32,19.9,32,19.5,32
			C19.3,32,19,32,18.8,32z"/>
	</g>
</g>
</svg>
