<svg viewBox="0 0 252 231" xmlns="http://www.w3.org/2000/svg" xmlns:xlink="http://www.w3.org/1999/xlink">
  <defs>
    <path id="a" d="M0 .112h267.701V592H0z"/>
  </defs>
  <g transform="translate(-9)" fill="none" fill-rule="evenodd">
    <mask id="b" fill="#fff">
      <use xlink:href="#a"/>
    </mask>
    <path d="M242.713 213.345c.488-1.435 1.102-2.712 2.173-3.806.666-.68-.379-1.725-1.043-1.043-1.246 1.276-1.982 2.78-2.552 4.457-.305.902 1.119 1.287 1.422.392zM203.044 70.499c2.119-.033 3.588-1.006 4.771-2.725.541-.787-.74-1.523-1.272-.746-.886 1.286-1.918 1.971-3.497 1.994-.953.016-.953 1.49 0 1.477h-.002zm46.188 149.141c.008-.335.06-.669.155-.99.231 1.187.395 2.386.756 3.546.283.903 1.704.52 1.425-.393-.54-1.74-.638-3.57-1.18-5.31a.702.702 0 0 0-.399-.453c-.25-.146-.57-.15-.834.127l-.02.022a.484.484 0 0 0-.11.132c-.798.916-1.236 2.106-1.267 3.319-.028.951 1.446.948 1.474 0zM97.54 76.25V65.63c0-.95-1.473-.95-1.473 0V76.25c0 .953 1.473.953 1.473 0zM26.71 328.213c-.623-13.188-2.918-26.302-2.36-39.533.04-.954-1.437-.95-1.476 0-.558 13.233 1.738 26.345 2.363 39.533.046.946 1.521.95 1.473 0zm196.267-180.488a30.697 30.697 0 0 1-3.296 5.267c2.455-2.012 4.526-4.391 6.519-6.846-.64.692-1.311 1.36-1.976 2.025-.488.486-1.162.072-1.247-.446zm3.232.714a62.06 62.06 0 0 1-1.986 2.259c.248.263.333.682.001 1.01a123.665 123.665 0 0 0-3.134 3.222c-1.374 1.937-2.555 3.998-3.91 5.944.917-1.04 1.894-2.034 2.848-3.046a68.889 68.889 0 0 0 1.858-2.882c.21-.348.57-.41.867-.301a26.747 26.747 0 0 0 3.456-6.206zm-14.387 12.313c.27-.435.543-.866.853-1.267-.204.133-.41.26-.617.388-.003.056-.01.11-.01.167a.697.697 0 0 1-.31.576.759.759 0 0 1 .084.136zm-18.941-26.848c-.316-.794-.623-1.592-.921-2.386-.068.104-.137.21-.2.316.364.698.74 1.391 1.113 2.08l.008-.01zm-1.892-3.565c.114-.169.231-.34.35-.509-.347-.948-.682-1.893-1.01-2.836-.157.372-.308.74-.449 1.115.363.744.732 1.489 1.109 2.23zm-1.295-5.195a354.102 354.102 0 0 1-1.45-4.288 56.86 56.86 0 0 1-.635 2.376c.04.094.082.187.122.282.42.932.85 1.87 1.29 2.803.129-.294.259-.586.4-.876a.678.678 0 0 1 .273-.297zm-2.23-5.938c-.118-.322-.233-.643-.35-.969a16.85 16.85 0 0 0-.78 1.958c.109.282.23.561.343.842.109-.436.218-.878.31-1.317.062-.302.256-.464.476-.514h.002zm-.98-2.916a68.794 68.794 0 0 1-.423-1.43 10.346 10.346 0 0 1-.93 1.863c.135.45.281.898.43 1.34.264-.609.572-1.197.923-1.773zm-1.558-2.655c0-.005-.003-.009-.006-.015a77.157 77.157 0 0 0-.825-4.187c-.124.383-.24.77-.353 1.161.23 1.356.499 2.707.825 4.043.14-.329.258-.664.36-1.002zm-4.93-29.345c-.037.234-.072.466-.1.702a.775.775 0 0 1 .13-.025c.017-.219.034-.435.063-.652l-.093-.025zm.517-3.867c.027.02.05.037.074.061.508-.951 1.168-1.84 1.885-2.657a.841.841 0 0 1-.425-.36 18.18 18.18 0 0 0-1.534 2.956zm1.022 1.418c.021-.025.044-.05.064-.075a17.88 17.88 0 0 1 1.795-2.543.883.883 0 0 1 .05-.221l.043-.1c-.79.894-1.5 1.879-1.952 2.94zm10.857-10.4c.18.078.314.229.39.405 1.45-1.692 3.338-2.934 5.128-4.275-1.826 1.189-3.91 2.333-5.518 3.87zm9.09.503c.564.036 1.124.095 1.68.172a.485.485 0 0 1-.08-.092 17.77 17.77 0 0 0-1.6-.08zm23.021 44.52c-.028.009-.057.012-.086.017.16 1.076.322 2.151.484 3.228 0 .01.004.022.007.032.017-.03.035-.055.051-.085a77.87 77.87 0 0 0-.456-3.191zM212.386 76.47a.414.414 0 0 0-.042.013 16.214 16.214 0 0 1 1.953 2.557c.047-.024.093-.051.14-.078a19.528 19.528 0 0 0-2.051-2.492zm5.238 8.593c-.079.06-.16.115-.241.172a85.968 85.968 0 0 1 1.539 3.614 47.564 47.564 0 0 0-1.104-3.297c-.066-.163-.132-.325-.194-.49zm6.998 47.767c.003-.268.005-.537.003-.807-.027.413-.064.823-.097 1.237.028-.142.064-.287.094-.43zm-9.378-52.638c-.07.037-.14.08-.209.117.42.77.803 1.561 1.17 2.355l.567 1.22c.094-.07.183-.145.272-.218a33.734 33.734 0 0 0-.674-1.424c-.04-.017-.08-.028-.122-.044-.385-.172-.449-.519-.327-.819-.217-.4-.441-.8-.677-1.187zm-24.388-6.89c-.026.043-.06.085-.084.131.174-.103.35-.204.528-.3-.149.053-.298.11-.444.169zm-4.083 2.772c.522-.38 1.06-.741 1.613-1.073.119-.09.24-.172.363-.26a.641.641 0 0 1-.018-.349c-.478.299-.937.617-1.383.953-.2.238-.39.482-.575.729zm-6.482 16.085c.005-.005.008-.008.017-.01-.036-.317-.082-.633-.122-.95-.063-.173-.124-.35-.187-.52.077.493.179.986.292 1.48zm2.218.497c-.358-2.06-.714-4.121-1.069-6.183.034 2.076.49 4.162.978 6.182a.855.855 0 0 1 .091.001zm9.167 33.038a.632.632 0 0 1 .379-.033c-.219-.426-.435-.846-.657-1.268-.178-.348-.36-.7-.542-1.047.265.784.537 1.567.82 2.348zm4.625 10.67c.07-.097.131-.2.204-.3a.753.753 0 0 1 .463-.302 174.603 174.603 0 0 0-3.272-6.872.824.824 0 0 1-.032.146c.925 2.41 1.769 4.863 2.624 7.311.006.007.01.011.013.018zm3.792 6.999c-.318-.826-.637-1.651-.963-2.476-.499-1.27-1.024-2.522-1.565-3.768-.17.247-.333.499-.497.754.245.472.496.94.745 1.407.471.062.884.542.568 1.05.56 1.018 1.13 2.027 1.712 3.033zm8.703 13.398c2.835-3.012 5.785-5.984 8.391-9.219a59.915 59.915 0 0 1 1.746-3.217.682.682 0 0 1 .856-.308c.258-.388.513-.78.757-1.177a33.364 33.364 0 0 0 1.88-3.5c.26-1.94.433-3.887.595-5.759.804-9.125-.602-18.12-1.827-27.139-.605-4.439-.975-8.875-2.286-13.18-.758-2.49-1.705-4.926-2.77-7.312-.355.17-.72.321-1.096.45-.9.312-1.283-1.112-.39-1.424.295-.1.589-.223.876-.36a96.344 96.344 0 0 0-1.262-2.589 26.554 26.554 0 0 0-.58-1.097c-.134.053-.272.108-.413.157-.899.318-1.285-1.108-.39-1.421.013-.005.029-.013.043-.016-.624-.972-1.336-1.876-2.17-2.659-.41.053-.686-.267-.734-.628a9.643 9.643 0 0 0-1.31-.859c-1.783-.972-3.782-1.607-5.823-1.923-.532.017-1.061.048-1.59.098-5.87.55-13.45 2.63-17.095 7.66a.749.749 0 0 1-.451.3 45.77 45.77 0 0 0-1.32 1.712c.684 3.887 1.32 7.799 1.976 11.709.649-.363 1.464.558.862 1.18-.194.2-.379.408-.558.618.454 2.642.922 5.281 1.434 7.91.238.402.479.802.711 1.203.246.412.045.802-.276.986.59 2.893 1.244 5.766 1.984 8.616 1.528 3.199 3.19 6.311 4.744 9.295 2.663 5.115 5.144 10.25 7.244 15.625 1.043 2.668 2.058 5.35 3.14 8.004a.654.654 0 0 1 .119.282c.242.595.49 1.189.743 1.78.263.4.528.795.793 1.191a62.285 62.285 0 0 0 1.759 1.866c.274.278.26.616.099.873.525.765 1.054 1.522 1.587 2.272h.002zm11.195-8.158c.683-1.476 1.197-3.045 1.592-4.66a52.123 52.123 0 0 1-3.077 4.263c-.985 1.918-1.925 3.854-3.02 5.715-.485.82-1.759.079-1.274-.744.014-.021.024-.044.037-.066-1.512 1.64-3.059 3.252-4.58 4.874.053.077.107.15.162.224a.815.815 0 0 1 .908.243c.052-.004.104 0 .157-.005.04-.137.08-.275.113-.41a.745.745 0 0 1 .123-.63c.015-.104.024-.212.028-.319.025-.804 1.084-.924 1.391-.366 1.475-.804 2.755-2.24 3.837-3.393 1.353-1.442 2.755-2.913 3.603-4.726zm-.565 4.71c-.278.346-.562.688-.855 1.022.31-.159.624-.315.94-.457a.628.628 0 0 1-.085-.565zm4.66-13.974c-.109.25-.223.5-.34.751a56.385 56.385 0 0 1-.465 2.699c.017-.031.033-.06.053-.09.314-1.112.563-2.234.752-3.36zm-18.1 18.513a24.772 24.772 0 0 1-.557-.531c-.872 1.6-1.478 3.374-1.616 5.186.565-1.609 1.202-3.168 2.137-4.612.012-.014.021-.027.036-.043zm13.384-77.896c.125-.06.25-.122.375-.186a.867.867 0 0 1 .186-.091c.41-.215.81-.446 1.209-.687a4.83 4.83 0 0 0-1.77.964zm11.044 36.96c.838-.447 1.584.827.745 1.275-1.963 1.047-2.94 2.87-3.513 4.895.415-.689.885-1.335 1.44-1.922.65-.695 1.692.351 1.037 1.042-1.718 1.831-2.553 4.363-3.334 6.702.46-.875 1.003-1.7 1.704-2.436.655-.691 1.698.353 1.041 1.043-1.766 1.861-2.434 4.425-3.354 6.756a.52.52 0 0 1-.078.148 39.903 39.903 0 0 1-.084 1.64c.568-.994 1.138-1.988 1.769-2.948.517-.79 1.794-.05 1.272.748-.194.295-.378.593-.564.895.601-.53 1.685.159 1.153.873-1.784 2.414-3.342 4.981-4.886 7.555a27.679 27.679 0 0 1-.546 1.654 31.299 31.299 0 0 1-.884 2.135c2.425-2.424 4.896-4.872 5.559-8.371.176-.934 1.6-.538 1.423.391-.276 1.457-.849 2.75-1.588 3.939.167.112.272.305.239.582-.528 4.163-2.342 8.388-4.845 11.753-.844 1.138-1.794 2.19-2.77 3.222-1.122 1.657-2.304 3.268-3.508 4.872-.262.352-.679.377-.993.227-.273.375-.533.758-.777 1.151-.5.807-1.775.068-1.273-.744a20.84 20.84 0 0 1 1.549-2.151c-.326.144-.714.032-.932-.204-.16.31-.31.63-.448.954-.365.865-1.79.487-1.427-.388.522-1.246 1.19-2.368 1.93-3.441a.658.658 0 0 1-.182-.497c.003-.089.006-.172.013-.259-.016.013-.036.021-.05.034-.085.054-.175.109-.26.165a.76.76 0 0 1-.024.257c-.711 2.615-2.131 5.013-3.616 7.256-.521.79-1.8.05-1.274-.746.15-.228.302-.459.448-.693-.451-.154-.769-.768-.336-1.229.393-.409.72-.864 1.024-1.335a.721.721 0 0 1-.629-.176 45.207 45.207 0 0 1-.826-.75c-.792 1.305-1.47 2.651-1.876 4.16-.246.918-1.67.53-1.425-.392.47-1.746 1.275-3.297 2.211-4.804-.1-.097-.194-.199-.295-.296-.048-.021-.098-.04-.148-.065-.32.268-.838.3-1.102-.166l-.127-.233c-.905 1.5-1.51 3.11-2.067 4.776-.278.836-1.53.562-1.46-.212-.437.297-1.188.108-1.17-.576.069-2.389.874-4.752 2.078-6.818-.52-.62-.992-1.252-1.414-1.844-.327.986-.653 1.972-.985 2.96-.299.897-1.722.514-1.422-.391.459-1.373.916-2.748 1.373-4.123a45.796 45.796 0 0 1-.658-1.075c-1.097 1.425-1.975 3.02-2.907 4.585-.488.817-1.764.074-1.275-.746 1.068-1.79 2.079-3.63 3.393-5.224-.356-.657-.7-1.315-1.027-1.983a21.584 21.584 0 0 1-2.274 3.822c-.557.757-1.84.022-1.274-.744 1.136-1.545 2.041-3.158 2.7-4.9a69.484 69.484 0 0 1-.633-1.465 51.123 51.123 0 0 1-.22-.41 90.866 90.866 0 0 1-1.064-1.544c-.326.696-.557 1.426-.588 2.2-.036.95-1.513.951-1.476 0 .053-1.306.526-2.485 1.146-3.596-.141-.218-.286-.433-.424-.653-.592 1.265-1.115 2.56-1.635 3.857-.35.871-1.777.491-1.424-.393.668-1.667 1.339-3.337 2.135-4.944-.485-.788-.96-1.58-1.427-2.38-.385.786-.765 1.576-1.056 2.405-.314.89-1.744.506-1.425-.394.435-1.226 1.053-2.367 1.611-3.538-.428-.765-.85-1.53-1.261-2.302a35.967 35.967 0 0 0-2.465 5.644c-.305.893-1.733.51-1.422-.392.809-2.376 1.822-4.649 3.077-6.79-.294-.578-.588-1.154-.877-1.737-.263.807-.515 1.62-.778 2.43-.297.9-1.722.516-1.422-.392.427-1.308.827-2.615 1.29-3.902-.444-.932-.884-1.867-1.303-2.8-.343 1.175-.672 2.354-.926 3.55-.199.933-1.619.54-1.423-.389.375-1.776.913-3.509 1.422-5.248-.114-.266-.234-.528-.347-.795-.088.372-.167.747-.24 1.124-.19.932-1.612.538-1.426-.391.21-1.022.44-2.03.732-3.005a40.692 40.692 0 0 1-.748-2.068c-.34.374-.707.735-1.11 1.068-.726.608-1.773-.431-1.043-1.04a10.14 10.14 0 0 0 1.646-1.743c-.032-.117-.067-.233-.098-.35a61.088 61.088 0 0 1-.613-2.668c-.483.298-1.304-.096-1.126-.815.051-.212.107-.422.163-.634-.44.67-1.667.283-1.343-.548.491-1.25.933-2.52 1.326-3.806a85.234 85.234 0 0 1-.204-1.69c-.064-.588-.125-1.175-.18-1.767-.038.192-.077.382-.109.573-.165.936-1.589.54-1.422-.392.259-1.465.633-2.881 1.167-4.223-.03-.377-.064-.754-.098-1.129a9.57 9.57 0 0 0-.104-.274c-.332.92-.787 1.811-1.387 2.655-.547.768-1.828.034-1.276-.745a9.843 9.843 0 0 0 1.74-4.163 60.12 60.12 0 0 0-1.691-3.61c-.533 1.104-1.214 2.094-1.838 2.765-.653.696-1.696-.35-1.045-1.043 1.242-1.325 2.92-4.483 2.172-6.363-.22-.553.258-.908.73-.884 0-.51.02-1.02.056-1.529-.027.002-.047.005-.075.005-.816 0-.93-1.075-.35-1.388.889-5.729 4.191-11.135 9.423-13.852.478-.25.928.057 1.064.445.706-.433 1.45-.807 2.244-1.094 1.256-1.192 2.505-2.384 3.622-3.661.625-.72 1.667.327 1.043 1.04-.116.134-.236.262-.358.397.809-.526 1.625-1.035 2.417-1.555.73-.484 1.41.557.901 1.133a21.087 21.087 0 0 0 1.899-1.61c.682-.66 1.727.384 1.041 1.045-1.815 1.757-4.07 3.055-5.966 4.722.76-.24 1.536-.436 2.319-.594 1.84-1.46 3.607-3.016 5.705-4.108.842-.437 1.587.832.744 1.272-1.312.687-2.503 1.56-3.66 2.472a18.367 18.367 0 0 1 3.996.183c1.288-.303 2.61-1.197 3.493-2.04.687-.657 1.732.383 1.044 1.044a10.899 10.899 0 0 1-2.12 1.57c.226.073.452.15.674.235a.72.72 0 0 1 .85.097c.116-.033.234-.07.353-.105.082-.044.16-.095.24-.151.484-.364.866-.865 1.205-1.362.524-.77 1.78-.06 1.287.718.504-.149 1.012-.301 1.513-.466.907-.299 1.293 1.127.388 1.423-1.121.365-2.256.686-3.39 1.014.667.386 1.3.816 1.898 1.28.476-.368.943-.751 1.369-1.17.682-.664 1.726.38 1.044 1.043a13.82 13.82 0 0 1-.905.799c.14-.046.28-.095.42-.138.95-.953 2.59-1.224 3.88-.637.865.395.109 1.665-.748 1.272a1.56 1.56 0 0 0-.318-.1.748.748 0 0 1-.294.174l-1.67.558c-.08.137-.129.286-.143.451.57.547 1.094 1.133 1.574 1.759a19.803 19.803 0 0 0 1.883-1.638c.678-.67 1.725.373 1.043 1.04a20.024 20.024 0 0 1-2.077 1.788l.02.029c.195.306.373.62.551.935 1.011-1.763 3.1-2.774 5.116-2.83.416-.011.647.263.703.578.552.098.883.972.262 1.386-.961.637-1.921 1.243-2.924 1.768a7.365 7.365 0 0 1-.924.75c.104.152.14.347.053.583a5.53 5.53 0 0 1-.636 1.234 37.951 37.951 0 0 1 1.406 4.445c.518-1.009.977-2.048 1.351-3.118.308-.894 1.735-.509 1.424.393-.196.56-.41 1.107-.642 1.652.57-.552 1.648.14 1.158.884-.951 1.44-1.73 2.907-2.286 4.544-.013.037-.033.069-.047.102.104.568.205 1.135.3 1.703.023.107.039.215.06.322.728-1.731 1.82-3.238 3.177-4.619.666-.675 1.707.368 1.041 1.045-1.582 1.613-2.765 3.373-3.352 5.575-.074.268-.242.425-.446.487.066.368.132.735.2 1.103 1.151-1.826 2.225-3.694 3.735-5.255.661-.685 1.706.358 1.043 1.043-1.645 1.704-2.728 3.788-4.017 5.75a.715.715 0 0 1-.41.31c.083.446.173.898.269 1.344.472-1.447.997-2.873 1.82-4.171.509-.8 1.784-.058 1.272.747-1.117 1.76-1.643 3.761-2.285 5.725a.743.743 0 0 1-.255.364c.032.133.06.263.087.393a29.054 29.054 0 0 1 1.773-3.095c.517-.794 1.796-.056 1.273.741-.987 1.512-1.857 3.113-2.525 4.79l.02.107c.375-.717.786-1.42 1.234-2.1.515-.794 1.794-.056 1.272.741a23.325 23.325 0 0 0-2 3.75l.153.744a9.081 9.081 0 0 1 2.459-3.024c.74-.584 1.79.452 1.044 1.042-1.592 1.258-2.506 2.912-2.96 4.748.29 1.53.547 3.066.77 4.609a23.103 23.103 0 0 0 1.545-4.765c.198-.93 1.62-.536 1.424.393-.515 2.447-1.374 4.799-2.643 6.94.056.498.102.997.142 1.496.732-1.877 1.89-3.528 3.781-4.539l.002-.002zm34.898 225.457c-.048.394-.097.787-.143 1.182-.056.425-.397.656-.74.695v42.996c.138 7.147.22 14.296.23 21.444.001 1.047-.004 2.092-.007 3.134 1.027-23.128.756-46.294.66-69.451zm-2.361 182.926v-1.418c-.045.853-.091 1.707-.144 2.557.057-.333.11-.67.162-1.007a.566.566 0 0 1-.018-.132zm-3.232 12.512c-2.208 3.44-4.19 7.016-6.488 10.398-3.357 4.945-7.747 9.324-12.413 13.178 5.323-3.89 10.054-8.51 13.85-14.043a48.205 48.205 0 0 0 5.051-9.533zm-63.725 44.58c1.181-.415 2.353-.85 3.516-1.303a54.08 54.08 0 0 1-1.558.411c-4.196 1.48-8.45 2.779-12.8 3.81a119.659 119.659 0 0 0 10.842-2.918zm-25.075 6.182c-.31.006-.617.012-.927.014-.456.002-.69-.335-.71-.687-4.64.451-9.302.645-13.967.58-3.242.768-6.487 1.5-9.76 2.064 8.423-.062 16.949-.675 25.364-1.971zm-52.916 1.355a292.503 292.503 0 0 1-5.816-.953c-4.68-.81-9.354-1.671-14.045-2.429-1.715-.274-3.453-.606-5.194-.808 2.15.595 4.321 1.108 6.493 1.567a142.2 142.2 0 0 0 18.562 2.623zm-34.73-6.026a11.187 11.187 0 0 1-.254-.11 188.077 188.077 0 0 1-7.933-1.096.767.767 0 0 1-.318-.035c-.033-.01-.064-.023-.096-.033a110.453 110.453 0 0 1-3.392-.614 99.366 99.366 0 0 1-3.993-.871c.193.125.39.245.587.362 5.055 1.266 10.212 2.096 15.4 2.397zm-18.51-3.232a.768.768 0 0 1 .056-.151 90.67 90.67 0 0 1-9.977-3.283l-.011-.003a101.563 101.563 0 0 0 9.932 3.437zm-36.615-16.9a47.884 47.884 0 0 0 3.323 2.364 46.27 46.27 0 0 1-3.798-3.175.798.798 0 0 1-.286.204c.25.202.504.408.76.606zM6.938 532.31v-6.63c-.609-4.208-.787-8.493-.59-12.775.018-.394.287-.624.59-.69v-2.714c-.312-.284-.312-.84 0-1.126v-.052c-.36-.016-.705-.25-.705-.712.001-2.142.003-4.301.213-6.432-.594-4.616-.653-9.265-.653-13.924 0-.653.698-.857 1.131-.613-.064-32.913-.407-65.82-.528-98.735-2.384-16.377-2.413-32.963-1.855-49.483.416-12.305.933-24.572 1.07-36.861-.858-9.215-1.692-18.434-2.225-27.672-1.536 8.096-1.852 16.446-1.828 24.644.034 10.968.791 21.91 1.523 32.848 1.221 18.275 1.2 36.595 1.202 54.906 0 9.702-.015 19.405.101 29.106.098 8.081.573 16.175.5 24.255-.09 10.256-.892 20.5-1.399 30.739-.589 11.93-.972 23.9-.293 35.826.473 8.266 1.418 17.438 3.745 26.095zm2.215-293.385c.077-.29.148-.581.23-.87a75.857 75.857 0 0 1 1.098-3.605v-.77a91.491 91.491 0 0 0-1.328 5.245zm2.618-9.426c.11.117.183.278.183.488v.343c2.956-7.607 6.961-14.78 11.472-21.6 2.02-3.049 4.11-6.047 6.251-9.007 1.513-2.745 3.075-5.476 4.826-8.06 2.505-3.705 5.202-7.276 7.97-10.79 2.575-3.268 5.176-6.542 7.755-9.842-3.028 3.343-6.018 6.719-8.793 10.288-10.275 13.219-18.596 27.786-27.38 42.007a101.048 101.048 0 0 0-2.284 6.173zM96.7 36.643c-.018-.167-.028-.335-.045-.502a.642.642 0 0 1 .085-.42c-1.313-.909-2.603-2.007-4.068-2.685.01.026.016.047.024.073.683 1.931 2.197 3.003 4.004 3.534zm-3.12-5.113c3.813-.125 7.615-.549 11.42-.87-4.133-.077-8.262-.163-12.396-.251.236.383.594.763.976 1.121zm.907-2.556c4.893.106 9.786.21 14.677.3-2.053-.192-4.105-.465-6.16-.598-2.479-.159-5.927-.611-8.517.298zm2.652-9.49c.231.013.456.115.58.307.747.02 1.497.042 2.243.07-.096-.035-.19-.065-.286-.1-1.102-.392-2.176-.894-3.126-1.552-.311-.062-.626-.13-.939-.2a5.674 5.674 0 0 0 1.528 1.476zm-1.444-4.164c.226.324.48.62.751.893l.36.007c1.031.013 2.158-.384 3.175-.56 1.987-.337 3.985-.632 5.99-.866 4.53-.535 9.087-.854 13.645-1.053 7.374-.314 14.796-.597 22.17-.481 5.627.088 11.269.293 16.892-.07 2.71-.176 5.456-.43 8.095-1.13 1.168-.31 2.397-.688 3.452-1.324-.055.01-.114.013-.169.018a84.691 84.691 0 0 1-5.058.41c-3.41.161-6.819.161-10.23.073-3.67-.098-7.34-.275-11.014-.4-.29.443-1.053.523-1.286-.038-2.97-.092-5.94-.135-8.91-.053-7.064.184-14.115.685-21.184.747-3.06.03-6.062-.205-9.112-.446a72.992 72.992 0 0 0-2.53-.163.836.836 0 0 1-.26-.011c-1.948-.07-3.894.017-5.79.513-.032.284-.057.565-.082.842.118 1.093.43 2.14 1.095 3.092zm-.814-5.505c.479-.107.957-.19 1.438-.261a.655.655 0 0 1-.255-.558c.014-1.176.2-2.336.27-3.51-.05.015-.098.033-.148.047-.321.117-.644.244-.921.453-.008.003-.013.013-.023.019-.012 1.218-.189 2.51-.36 3.81zm2.515-.388c.83-.074 1.664-.101 2.505-.1-.002-1.524-.026-3.05-.233-4.56-.028.004-.056.01-.085.016a31.08 31.08 0 0 0-1.706.296c.076.32.207.636.25.971.049.37-.152.589-.418.669-.077.757-.162 1.516-.17 2.28a.706.706 0 0 1-.141.428h-.002zm3.725-4.861c.207 1.587.245 3.188.252 4.792.9.037 1.8.101 2.702.173a.795.795 0 0 1-.043-.242c-.011-1.237-.119-2.475-.13-3.717-.003-.406-.063-.96.196-1.312-.997.081-1.99.178-2.977.306zm4.063-.393c.136.131.244.305.297.497a.675.675 0 0 1-.101.602c0 .1-.002.202 0 .301.008.479.022.957.038 1.43.032.764.084 1.527.089 2.29a.746.746 0 0 1-.084.357c2.149.194 4.29.392 6.38.375.065-.003.132-.004.198-.004 0-2.065-.016-4.125-.277-6.175-.315.01-.633.017-.947.032-.575.024-1.154.048-1.725.075V8.7c0 .952-1.475.952-1.475 0V4.028c-.8.04-1.595.089-2.391.145h-.002zm8.008-.385c.266 2.061.282 4.134.284 6.207 1.356-.026 2.712-.064 4.067-.11a.654.654 0 0 1-.206-.397 21.893 21.893 0 0 1-.245-3.443c.004-.744-.045-1.636.184-2.373-1.362.032-2.722.07-4.084.116zm5.246 6.066c1.141-.039 2.288-.088 3.433-.138a.708.708 0 0 1-.134-.427V3.597c-.975.01-1.95.027-2.925.043a.753.753 0 0 1-.048.238c-.257.65-.2 1.48-.196 2.166.008 1.017.039 2.04.196 3.046a.777.777 0 0 1-.326.764zm4.68-.191c1.317-.056 2.641-.116 3.96-.17l-.001-.005c-.512-1.638-.62-3.329-.883-5.017-.075-.483.268-.821.639-.903-1.206.003-2.414.006-3.62.016v5.708a.721.721 0 0 1-.095.37zm8.953-.372V3.685c0-.038.005-.072.01-.107a713.427 713.427 0 0 0-4.903-.012c.216.053.39.217.436.514.265 1.686.37 3.377.888 5.013.037.126.04.238.027.34 1.18-.044 2.359-.09 3.542-.123v-.02zm1.473-5.606v5.586A142.34 142.34 0 0 1 138 9.254c-.558-1.823-.617-3.714-.62-5.628-1.284-.013-2.563-.032-3.846-.042.003.034.01.064.01.101zm8.263 0v-.008l-.746-.01c-.735-.012-1.469-.017-2.207-.024.01 1.926.068 3.804.708 5.632.88.016 1.756.041 2.633.067-.242-1.875-.183-3.77-.39-5.657h.002zm-15.566-1.577c8.44-.014 16.877.157 25.312.31-2.593-.289-5.196-.535-7.814-.652-5.84-.256-11.678-.094-17.498.342zm25.898 1.762L148.7 3.8c.204 1.623.188 3.269.188 4.9 0 .952-1.473.952-1.473 0-.005-1.633.038-3.305-.194-4.928-1.313-.026-2.626-.05-3.939-.07.206 1.894.111 3.805.4 5.683 3.07.098 6.135.23 9.205.321-.21-.054-.387-.215-.43-.513-.274-1.771-.318-3.54-.32-5.323zm1.046 5.843c.335.01.676.024 1.013.032 2.657.07 5.318.109 7.98.046-1.016-1.79-.924-3.755-.895-5.754l-2.948-.049v5.008c0 .952-1.478.952-1.478 0V3.96c-1.082-.021-2.164-.04-3.244-.065 0 1.64.018 3.28.268 4.905.076.504-.31.85-.698.913h.002zm10.359-.498a.683.683 0 0 1 .091.533l.798-.034c.55-.025 1.1-.056 1.648-.091a.762.762 0 0 1-.075-.332c0-1.733.017-3.477-.201-5.198-1.017-.01-2.033-.023-3.05-.034-.034 1.776-.177 3.571.789 5.156zm3.734-5.108c.191 1.72.202 3.45.202 5.182 0 .09-.014.167-.036.238a62.901 62.901 0 0 0 2.052-.188c.035-.003.077-.005.112-.01a.868.868 0 0 1-.033-.138c-.259-1.686-.313-3.375-.318-5.076-.663-.001-1.32-.001-1.979-.008zm3.45.02c.004 1.562.031 3.123.27 4.673a.796.796 0 0 1-.048.414c.425-.039.849-.092 1.257-.177a47.04 47.04 0 0 0-.95-4.638 3.49 3.49 0 0 0-.235-.273h-.125l-.022.002-.146-.002zm.875 7.466c-3.839 2.705-9.473 2.91-13.984 3.132-5.548.268-11.094.056-16.643.001-7.657-.08-15.374.177-23.021.568-4.65.24-9.31.571-13.92 1.221-1.533.215-3.06.462-4.583.74 5.066.824 10.229.985 15.358.807 6.11-.212 12.156-1.04 18.256-1.427 12.66-.8 25.318.442 37.99.472.667-.685 1.181-1.567 1.47-2.705.032-.125.062-.257.088-.393a25.292 25.292 0 0 0-.085-2.14 28.229 28.229 0 0 0-.091-.982 5.795 5.795 0 0 1-.835.706zm-73.626 9.68c.06.705.064 1.406.018 2.113a.804.804 0 0 1 .282-.083c.112-.011.228-.02.34-.034-.32-.462-.146-1.233.546-1.147 4.529.568 9.059.26 13.575-.293.23-.032.404.036.521.158 1.17-.053 2.345-.022 3.512.16.224.036.367.15.449.293.836-.008 1.675-.01 2.513-.016a24.021 24.021 0 0 1 2.178-.523c-7.978-.06-15.958-.395-23.934-.628zm70.693-2.712c-12.253-.167-24.525-1.332-36.768-.366-9.357.735-18.707 1.851-28.018 1.07 2.923.476 5.877.603 8.833.747 4.472.217 8.955.244 13.434.18 6.504-.093 13.005-.38 19.503-.691 6.899-.494 13.798-.926 20.695-.469a9.56 9.56 0 0 0 2.32-.471zm-15.503 2.677c2.793.145 5.588.14 8.385.103 2.024-.169 4.048-.313 6.08-.398.29-.011.49.116.601.302.194 0 .387-.004.583-.005a.744.744 0 0 1 .582-.297c.063 0 .12.011.173.022l-.004-.174a75.105 75.105 0 0 0-3.043-.268c-1.66.12-3.356-.026-4.994-.101-4.307-.207-8.666.215-12.972.423-.743.035-1.484.07-2.226.108-3.816.27-7.63.566-11.446.742 1.65.124 3.288.257 4.897.339.576.034 1.15.054 1.722.074-.094-.592.703-1.181 1.265-.653.284.27.594.502.92.702 2.275.034 4.554.033 6.834.08.649-.036 1.3-.081 1.95-.128-.082-.42.146-.9.693-.87zm-55.086 4.74a73.968 73.968 0 0 1 3.372-.212c3.858-.18 7.72-.376 11.578-.506 9.544-.325 19.062.089 28.596.361 4.792.137 9.586.26 14.382.311 2.985.03 5.87.047 8.832-.35 1.073-.147 2.739-.42 4.429-.476a.695.695 0 0 1 .011-.374c.13-.46.21-.945.254-1.439a.747.747 0 0 1-.855-.573c-1.2.005-2.397.021-3.594.04.02.38-.213.798-.703.841-2.662.238-5.33.281-8.003.247-1.403.243-2.802.485-4.201.633-2.85.301-6.206.515-8.833-.841a95.922 95.922 0 0 1-3.109-.104c-5.055-.265-10.437-1.04-15.585-.531.078.412-.156.895-.698.895-1.335 0-2.667 0-4.001.003-.276.085-.549.168-.82.265-.35.118-.621-.023-.769-.257-.265.003-.53.003-.793.005.065.404-.166.868-.7.868H99.456a.745.745 0 0 1-.345-.08c-.28.027-.559.05-.837.08a.636.636 0 0 1-.406-.082c-.02.141-.038.282-.062.425l-.005.024c.035.048.07.098.11.143a.717.717 0 0 1 .17.683zm72.786.69c-2.28-.172-4.566.197-6.826.497-3.233.426-6.494.27-9.752.221-9.637-.144-19.269-.518-28.907-.764-7.602-.194-15.226.151-22.823.557 3.487.233 6.979.818 10.47.847.762.007.912.95.457 1.325 6.635.105 13.271.169 19.907.151 5.139-.018 10.276-.454 15.414-.852.01-.001.02-.006.03-.008 7.105-1.468 14.479.12 21.546-1.476.906-.204 1.297 1.154.44 1.406.18.025.361.046.541.07.94.135.54 1.555-.392 1.423-7.104-1-14.248-.613-21.395-.067-.115.024-.232.042-.345.067a.722.722 0 0 1-.367-.011c-5.553.43-11.104.929-16.637.923-5.2-.009-10.402-.057-15.602-.124.18.448-.03 1.05-.647 1.01-6.905-.465-13.754.689-20.639 1.064.48.336.954.689 1.425 1.026.106-.207.31-.35.625-.321 6.387.574 12.79.019 19.18 0 .957-.002.955 1.474 0 1.476-.746.001-1.496.014-2.245.027.06.406-.173.858-.703.858-4.155.002-8.31.024-12.452.315.92.332 1.862.601 2.815.816.281.063.567.124.85.178 2.039.02 4.075.005 6.094.106 8.007.398 15.974 1.119 23.984 1.388 3.723-.02 7.45-.106 11.174-.236 4.383-.15 8.807-.196 13.177-.579 2.816-.244 5.684-.71 8.33-1.726.434-.167.864-.35 1.29-.554-5.146.03-10.283.302-15.421.586-.413.024-.646-.24-.7-.552-1.834-.008-3.665-.035-5.501-.037-.95-.002-.95-1.478 0-1.476 4.432.007 8.892.205 13.316-.154 2.311-.188 4.487-.605 6.73-1.165 1.909-.478 3.814-.87 5.786-.75.263-.469.47-.97.608-1.521.129-.52.182-.989.164-1.415a7.252 7.252 0 0 0-1.45-2 .725.725 0 0 1-.18-.266 4.846 4.846 0 0 0-1.37-.284zm-.76 8.379a9.78 9.78 0 0 0 1.865-1.435c-1.31.05-2.585.31-3.863.618.432-.005.864-.01 1.29-.01.517 0 .747.429.708.827zm-4.132 3.273c-.952.255-1.92.474-2.895.65.252-.01.507-.023.764-.04 3.242-.21 7.753-.34 9.686-3.449a6.51 6.51 0 0 0 .962-2.724c-1.68 2.89-5.365 4.72-8.517 5.563zm10.727 7.33c.404.845.95 1.65 1.712 2.397 2.81 2.758 6.85 3.045 10.585 3.213a39.613 39.613 0 0 1-4.357-1.388l-.358-.142c-2.943-.59-5.63-1.916-7.582-4.08zm-5.654 4.068a16.502 16.502 0 0 0 1.1 3.236c.076.164.161.321.241.478.297.475.634.934 1.018 1.37a.856.856 0 0 1 .31-.333c-.838-1.481-1.74-2.923-2.518-4.446-.056-.102-.101-.204-.151-.305zm3.829-4.404c.079.684.175 1.367.278 2.048.547 1.2 1.755 1.976 3.09 2.496-1.235-.939-2.278-2.13-2.973-3.584a9.587 9.587 0 0 1-.395-.96zm-26.352-2.188c-.286-.41-.554-.83-.79-1.266-.14.881.162 1.723.836 2.489-.011-.41-.027-.817-.046-1.223zM135.34 40.28l-.533-.011h-.075a.72.72 0 0 1-.11.37c-.233.38-.4.76-.508 1.141.24.21.38.558.214.924-.142.315-.241.65-.313.992.155.927.593 1.835 1.2 2.692a.9.9 0 0 1 .101.205c.002-1.3.03-2.597.32-3.866a.74.74 0 0 1 .154-.31c-.135-.4-.312-.762-.556-1.036-.332-.379-.192-.85.105-1.1h.001zm-20.81 2.503c-.002.017-.004.03-.004.045.15.786.49 1.535 1.016 2.138v-2.328c-.27-.056-.581.034-.838.111a.647.647 0 0 1-.175.034zm-11.327-3.336a.672.672 0 0 1 .6-.499l.008-.001c.024-.002.047-.007.07-.007.017 0 .033.005.046.005.017 0 .033.002.05.003a.76.76 0 0 1 .319.116.758.758 0 0 1 .23-.262 88.257 88.257 0 0 1-2.068-.044c.668 1.415 1.27 2.857 1.91 4.28a.853.853 0 0 1 .058-.19c.393-.88-.065-2.02-.862-2.496a.74.74 0 0 1-.15-.1c-.279-.213-.319-.532-.211-.805zm1.718 4.772c0-.095.004-.19.005-.286a1.055 1.055 0 0 1-.187-.09c.059.127.123.25.182.376zM93.878 73.767c-.033.203-.069.406-.102.607a.766.766 0 0 1 .16-.015c-.024-.199-.037-.394-.058-.592zm3.51-24.514c.19-1.1.355-2.203.464-3.31a75.194 75.194 0 0 1-.345 2.338c-.036.324-.074.646-.119.972zm.923-9.63c.066.035.13.07.194.124.029.03.053.06.085.089-.042-.379-.085-.76-.14-1.141a.792.792 0 0 1 .004-.231c-.055-.008-.11-.014-.164-.023.011.394.02.79.02 1.183zm.833-2.56a16.06 16.06 0 0 1-.973-.478c.011.122.024.249.034.37.085.015.168.027.253.036.23.027.458.053.686.072zm1.301 2.502c.013-.158.03-.317.045-.475.02-.17.082-.31.172-.422-.25-.016-.5-.037-.751-.055.043.334.09.67.125 1.006a.845.845 0 0 1 .41-.054zm-20.113 88.577a95.32 95.32 0 0 1-1.68 4.073v.178c.584-.977 1.152-1.965 1.708-2.96-.03-.43-.034-.862-.028-1.291zm5.193-15.713c.355-1.3.649-2.598.844-3.9a.811.811 0 0 1-.43-.214 264.187 264.187 0 0 1-.722 3.374c.111.244.214.491.308.74zm-3.88 12.125c.345.105.63.43.522.881-.08.334-.14.661-.196.987a80.738 80.738 0 0 0 3.375-7.456c-.1-1.572-.307-3.135-.732-4.644a112.81 112.81 0 0 1-2.969 10.232zm-22.265 39.05a22.875 22.875 0 0 0-.594 1.718c.22.103.386.313.386.632v1.226l1.529-5.349c-.437.594-.878 1.186-1.32 1.774v-.001zm-9.276 409.973a91.71 91.71 0 0 0 4.913 2.121c1.312.358 2.633.701 3.95 1.043a129.706 129.706 0 0 1-8.863-3.164zm-22.423-12.573c.19.185.377.372.571.557 4.675 4.404 10.373 7.892 16.167 10.864.258.097.52.19.78.284a94.586 94.586 0 0 1-11.706-7.578 74.216 74.216 0 0 1-5.813-4.126zm-1.228-3.585c.477.42.952.835 1.428 1.253 1.429.186 2.84.425 4.247.699-1.91-.56-3.837-1.18-5.675-1.952zm6.097.468c-2.286-.894-4.548-1.87-6.917-2.572.91.433 1.837.814 2.741 1.157 1.377.521 2.773.979 4.176 1.415zm-24.705-22.45a65.16 65.16 0 0 0 1.556 4.424 25.307 25.307 0 0 1-.554-2.291 80.455 80.455 0 0 1-.457-2.644.667.667 0 0 1-.545.512zm-1.48-161.524c.01-16.525.277-33.065.388-49.604-.023-1.106-.044-2.213-.071-3.318-.156 4.09-.326 8.182-.483 12.268-.514 13.546-.814 27.142.165 40.654zm3.429 56.686c.008-.311.019-.626.025-.935.447-19.339-.31-38.694-.598-58.028-.037-2.576-.079-5.154-.127-7.726-.027 16.9-.783 33.805-.247 50.705.15 4.731.387 9.464.79 14.187.05.6.102 1.197.157 1.797zm-.485 15.161c-.014-.958-.035-1.912-.064-2.872-.129-3.756-.494-7.48-.831-11.214v32.725a.723.723 0 0 1 .187.039c.217-6.227.475-12.45.708-18.678zm-.186 74.797a287.916 287.916 0 0 1-.584-3.892c-.007.701.006 1.407.017 2.108.016.615.036 1.23.06 1.84.04-.008.08-.019.123-.024.129-.008.257-.02.384-.032zm3.972 23.769a47.312 47.312 0 0 1-1.469-2.867c-.057-.1-.107-.2-.165-.302.34.948.725 1.887 1.18 2.816.263.54.537 1.08.82 1.615.263.234.528.462.79.698a49.843 49.843 0 0 1-1.156-1.96zm-.093-8.738c-.53-.059-1.056-.104-1.587-.142.58 1.009 1.153 2.024 1.715 3.045 3.943 1.01 8.088 1.644 12.087.888-4.16.191-8.207-1.156-11.981-2.809-.462-.2-.462-.656-.234-.982zm-1.953-12.34h10.464c-3.418-1.343-7.014-1.23-10.607-.871.045.292.095.579.143.87zm-1.536 4.283a.71.71 0 0 1 .555-.3l.133-.004c-.26-1.573-.518-3.147-.772-4.719-.266-.038-.425-.23-.483-.459a8.214 8.214 0 0 1-.207.021c-.024.003-.045 0-.069 0a141.348 141.348 0 0 0 .602 8.052c.092.387.186.774.283 1.16a26.11 26.11 0 0 1 4.175-1.14 21.843 21.843 0 0 1-2.174-.698c-.395.232-.957.162-1.048-.406l-.01-.035c-.208-.097-.414-.203-.62-.308a.594.594 0 0 1-.396-.256c-.236-.274-.18-.65.03-.908zm7.255-304.533a97.04 97.04 0 0 0-1.95 4.157c.215.051.42.2.54.406.048-.151.091-.304.144-.453a53.289 53.289 0 0 1 1.146-3.15c.027-.318.072-.638.12-.96zm.883-1.73a.98.98 0 0 1 .14.015c.341-.737.696-1.463 1.067-2.182l-.005-.061c-.41.738-.81 1.482-1.202 2.228zm-9.714 39.589a.673.673 0 0 1 .477.67v1.496c.62-2.9 1.364-5.763 1.962-8.526.97-4.485 1.334-9.032 2.024-13.563.393-2.587.854-5.177 1.435-7.733a11.434 11.434 0 0 1-.292-2.955c-.055.133-.108.265-.16.395a74.12 74.12 0 0 0-1.428 4.065v2.04c0 .513-.431.747-.828.704-2.145 7.64-3.105 15.486-3.19 23.407zm17.22 299.546a50.11 50.11 0 0 1-4.889-6.246 56.934 56.934 0 0 1-1.92-2.195c-.863-.794-1.73-1.583-2.599-2.374 1.918 3.109 4.12 6.075 6.586 8.767a33.926 33.926 0 0 0 2.82 2.048h.001zm110.53 26.595c4.701-.193 9.395-.645 14.081-1.114-.024-.045-.04-.094-.057-.143-7.068-.035-14.142-.104-21.208-.247-1.696-.032-3.376-.09-5.058-.166-1.112.18-2.227.322-3.346.409 5.187.518 10.378 1.049 15.587 1.26zm-19.578-1.656c-.062-.148-.081-.31-.062-.462-2.72-.204-5.442-.444-8.175-.71-2.465-.24-4.943-.461-7.427-.606a.2.2 0 0 1 .011.05l1.202.154c4.811.592 9.63 1.104 14.451 1.574zm-43.94-5.065c.953.29 1.903.587 2.845.899 1.746.288 3.5.547 5.254.782a221.158 221.158 0 0 1-8.1-1.68zm18.058 1.89c2.62-.226 5.246-.263 7.872-.18-11.386-2.145-22.618-5.116-34.251-5.462 1.847.523 3.696 1.012 5.525 1.472 6.883 1.717 13.848 3.068 20.854 4.17zm59.723 5.99c-2.566.137-5.123.273-7.647.455-7.315.518-14.68.558-21.999.037-.735-.053-1.47-.13-2.205-.217 5.291.83 10.598 1.511 15.955 1.832a92.632 92.632 0 0 0 6.217-.467c3.256-.354 6.477-.948 9.679-1.64zm33.37-3.967a116.24 116.24 0 0 0 4.634-1.14c-1.532.149-3.065.282-4.597.418.11.242.11.526-.037.722zm-2.547.54c-2.261.302-4.524.522-6.788.687-.357.089-.713.172-1.07.252a.698.698 0 0 1-.39.111h-.128c-1.251.268-2.51.499-3.777.703 4.078-.373 8.136-.95 12.153-1.752zm26.99-530.296c-.137-.025-.275-.04-.413-.063 4.314 1.78 8.356 4.174 11.785 7.4 2.096 1.979 3.942 4.174 5.598 6.505a29.76 29.76 0 0 1 3.455 5.496 93.52 93.52 0 0 1 2.054 3.863c.198.395.024.767-.258.965.123.454.234.912.332 1.375.194.927-1.228 1.32-1.423.391a26.37 26.37 0 0 0-1.958-5.825c-1.101-1.948-2.287-3.857-3.589-5.676a26.784 26.784 0 0 0-2.27-2.44c-2.08-1.964-4.515-3.832-7.224-4.84-2.856-1.065-5.828-1.546-8.863-1.71-6.307-.34-12.605-.242-18.914-.213-1.383.005-2.805.008-4.193-.165.029.106.042.216.029.325.088.049.173.092.256.138.835.46.092 1.735-.743 1.276a32.81 32.81 0 0 0-1.914-.963c-1.587-.264-3.065-.808-4.368-1.622.167.231.333.46.505.687.567.765-.714 1.5-1.277.748-.848-1.143-1.67-2.31-2.398-3.538-.372.144-.826.026-.92-.475a37.986 37.986 0 0 0-.633-2.671l-.068-.167a20.344 20.344 0 0 1-.905-3.302 9.58 9.58 0 0 1-.112-.434 36.03 36.03 0 0 1-.54-2.33c-.216-1.117-.274-2.228-.275-3.366-.002-.553.23-1.81-.048-2.307-.461-.813.752-1.54 1.242-.79.05 0 .096.006.146.012a.867.867 0 0 1 .314.01c.085-.231.178-.454.278-.677a.67.67 0 0 1 .15-.297.592.592 0 0 1 .542-.26c.256-.045.523.053.666.372l.01.026c.023.04.038.08.052.123.581 1.372.624 2.872.63 4.351v.454l.047.018c.912.266.524 1.69-.391 1.421a3.877 3.877 0 0 1-.93-.396c.959 3.39 3.08 6.324 4.663 9.546 1.543 1.11 3.198 2.062 5.09 2.44 2.935.586 6.023.327 8.996.287 3.274-.043 6.532-.006 9.804.082 2.987.084 5.999.098 8.961.547a24.51 24.51 0 0 1 7.342 2.31c-.212-.165-.419-.332-.634-.495-4.655-3.482-10.177-5.94-15.865-7.159a221.601 221.601 0 0 0-5.753-.438 102.75 102.75 0 0 0-2.958-.138c-3.732.023-7.521-.118-11.114-1.02a15.057 15.057 0 0 1-2.54-.866 28.257 28.257 0 0 1-1.702-1.438v.002a.509.509 0 0 1-.051-.05l-.308-.289c-.05-.05-.098-.1-.15-.15-.099-.092-.194-.19-.29-.288-.048-.05-.101-.106-.154-.155l-.278-.299c-.048-.058-.098-.109-.147-.167-.093-.1-.18-.202-.268-.303l-.1-.115c0-.002 0-.004-.003-.005-.043-.055-.093-.106-.14-.167a4.831 4.831 0 0 1-.248-1.99.93.93 0 0 1 .054-.227c-.3-2.43-.457-4.871-.348-7.289-2.49 1.821-5.772 2.115-8.775 2.312-.462.029-.923.051-1.383.07a.122.122 0 0 0 .024.038c.372.725.818 1.455 1.341 2.117.437-.24 1.128-.038 1.119.618-.002.18-.011.362-.023.54a5.801 5.801 0 0 0 1.841 1.106c.89.32.504 1.745-.39 1.425a7.538 7.538 0 0 1-1.613-.828 18.072 18.072 0 0 0-.11 1.59c-.013.948-1.488.95-1.474 0 .01-.916.143-1.82.227-2.726a10.24 10.24 0 0 1-.59-.648 6.5 6.5 0 0 1-.253 1.506.841.841 0 0 1-.168.297c.027.56.08 1.115.168 1.67.143.93-1.279 1.33-1.425.392a18.55 18.55 0 0 1-.022-5.551 2.063 2.063 0 0 0-.38-.613.732.732 0 0 1-.089-.875l-.443.007a3.408 3.408 0 0 0-.67 1.44c.062.1.102.23.102.378v4.134c0 .95-1.475.95-1.475 0v-2.006c-.308-1.437-.23-2.777.33-3.937-1.824-.001-3.644-.04-5.465-.069.072.108.117.241.117.403v3.542c0 .952-1.475.952-1.475 0V40.82c0-.173.047-.313.13-.423-.844-.013-1.688-.021-2.527-.028.016.047.03.1.033.158.093.686.154 1.37.198 2.061.326.436.68.857 1.062 1.251.644.66-.313 1.653-.977 1.1.011.593.016 1.188.016 1.78 0 .953-1.477.953-1.477 0 0-.4-.003-.802-.008-1.205-.258.225-.651.284-.958-.041-1.391-1.478-1.807-3.34-.964-5.126-.644-.005-1.29-.008-1.932-.011.014.059.024.122.024.19v6.785c0 .952-1.475.952-1.475 0v-6.784c0-.073.008-.137.026-.2-.902-.004-1.8-.01-2.701-.02.996 1.58 1.86 3.204 2.352 5.039.248.92-1.176 1.31-1.421.391a13.558 13.558 0 0 0-.915-2.408l.001.441a.67.67 0 0 1-.205.51c-.135 1.074-.213 2.157-.41 3.225-.174.936-1.596.54-1.424-.393.261-1.405.317-2.841.561-4.251-.01-.871-.073-1.762-.373-2.569-.85-.01-1.698-.025-2.542-.038.016.016.032.027.046.043 1.15 1.319 1.37 3.575 1.398 5.243.008.546-.472.777-.888.698v.483c0 .9-1.31.948-1.46.152-.127.517-.97.81-1.388.223-.034-.051-.07-.1-.101-.15l.001.073c-.001.95-1.478.95-1.478 0 0-1.09-.008-2.217.169-3.303a5.674 5.674 0 0 1 .608-3.481c-1.282 0-2.563-.004-3.842-.026a174.26 174.26 0 0 1-2.251-.056c.001.025.005.05.005.078.001 1.927-.018 3.846.566 5.707.286.91-1.141 1.296-1.422.393a10.46 10.46 0 0 1-.322-1.324v1.714c0 .911-1.35.948-1.466.11-.008 0-.012-.001-.019-.003.007.555.008 1.109.008 1.664 0 .95-1.476.95-1.476 0 0-.963-.007-1.92-.036-2.877-.104.634-1.017 1.008-1.336.3-.726-1.597-.694-3.373-.694-5.095 0-.951 1.475-.948 1.475 0 .002 1.422-.107 3.026.493 4.348a.76.76 0 0 1 .05.155 33.634 33.634 0 0 0-.244-3.028c-.097-.708.717-.876 1.178-.517V40.23c0-.073.01-.14.029-.202-2.859-.122-5.715-.28-8.573-.364-.313-.01-.626-.02-.94-.032.251.148.418.428.312.792a3.58 3.58 0 0 0-.115.491c.066.077.115.17.131.288.779-.169 1.653-.118 2.226.499.53.567.722 1.307.735 2.07.003.416-.276.649-.592.703v5.787c0 .953-1.476.953-1.476 0V46.1c-.264.234-.657.295-.967-.035-.067-.072-.128-.148-.19-.225-.02.982-.025 1.965-.025 2.949 0 .953-1.474.953-1.474 0 0-1.977.01-3.952.159-5.92a6.351 6.351 0 0 1 .163-2.832.706.706 0 0 1 .33-.428c-.598-.021-1.192-.043-1.79-.072.369.157.658.593.446 1.067-1.03 2.315-.5 5.424-.49 7.89.005.951-1.47.95-1.474 0-.004-.544-.024-1.106-.045-1.672a.677.677 0 0 1-.546-.69V40.82c0-.656.703-.857 1.14-.608.044-.119.09-.236.14-.354a.62.62 0 0 1 .347-.347c-1.916-.101-3.838-.27-5.724-.597.008.01.016.016.023.024.369.002.768.238.83.703 0 .005 0 .01.002.013.312-.212.79-.17 1.03.125.434-.73 1.6-.005 1.228.826-.656 1.468-.49 3.368-.49 4.938 0 .612-.607.828-1.044.652a.04.04 0 0 1-.014.006c-.063.764-.11 1.526-.12 2.293-.012.95-1.488.951-1.477 0a28.26 28.26 0 0 1 .074-1.653c-.342-.032-.663-.265-.663-.707v-.634c-.323.278-.84.313-1.08-.173-.727-1.478-1.36-2.996-2.028-4.499-.164 2.331-.12 4.617.719 6.88.332.895-1.095 1.275-1.424.393a13.05 13.05 0 0 1-.419-1.38.789.789 0 0 1-.223.242c.018 1.1.027 2.2.027 3.303 0 .952-1.478.952-1.478 0 0-.635-.001-1.27-.004-1.905-.302 2.027-.703 4.044-1.122 6.045-1.008 4.801-2.332 9.557-3.157 14.394-.048.277-.098.552-.143.828.312.057.586.293.591.7.03 3.513.576 6.97 1.154 10.427.104.63-.51 1.013-.97.905.1.882.217 1.762.38 2.634.174.93-1.246 1.327-1.423.393-.5-2.655-.582-5.366-.956-8.032-.621 3.415-1.29 6.818-2.1 10.208a.768.768 0 0 1 .344.773c-.49 3.29-.008 6.55 1.181 9.64.344.89-1.086 1.27-1.423.39-.169-.439-.324-.883-.462-1.33-.002.378-.007.75-.007 1.104 0 2.027-.01 4.14-.468 6.127-.215.926-1.637.533-1.424-.393.4-1.737.418-3.6.418-5.377 0-1.082.13-2.508-.071-3.71-.018.348-.032.697-.05 1.043-.123 2.421-.845 4.767-1.41 7.125.53 3.603-.018 7.203-1.007 10.75-.136.5-.624.607-.995.458.24.79.427 1.591.569 2.403 1.171-3.494 2.044-7.072 2.52-10.73.12-.929 1.6-.94 1.475 0-.624 4.796-1.898 9.46-3.631 13.974.074 1.242.091 2.488.091 3.729 0 .951-1.473.951-1.474 0v-.365a91.894 91.894 0 0 1-3.578 7.217c.061.592.158 1.189.302 1.803.22.924-1.203 1.316-1.423.391-.012-.05-.02-.1-.034-.152a105.796 105.796 0 0 1-2.059 3.427v3.61c0 .951-1.473.951-1.473 0v-1.297c-.294.45-.59.899-.886 1.345v6.443c0 .951-1.476.951-1.476 0v-4.27c-.684.986-1.37 1.963-2.067 2.929v7.243c0 .952-1.474.952-1.474 0v-4.988c-.57.939-1.142 1.87-1.731 2.795.234 1.9.255 3.82.255 5.734 0 .951-1.478.951-1.478 0-.002-1.237-.003-2.477-.07-3.714-.463.714-.93 1.425-1.405 2.127v1.6c.5-.355 1.39.037 1.152.771-.417 1.305-.561 2.574-.563 3.936 0 .41-.274.642-.587.7v1.071c0 .939-1.438.948-1.473.03-.243 1.152-.3 2.301-.3 3.51-.002.952-1.477.952-1.477 0 .003-1.692.1-3.294.62-4.915.174-.555.776-.622 1.152-.382v-4.158c-.056.083-.11.167-.167.249-.65.938-1.313 1.869-1.976 2.794l-2.9 10.148c-.162.57-.776.635-1.155.378v3.557c0 .952-1.473.952-1.473 0v-1.789c-.435.302-1.194.116-1.18-.57.023-1.07.146-2.131.358-3.176-.224.289-.443.578-.667.868a.754.754 0 0 1-.013.145c-.576 3.05-.563 6.152-.565 9.245 0 .952-1.473.952-1.473 0 0-2.364.008-4.721.247-7.064a1040.01 1040.01 0 0 1-4.094 5.207c.002.03.008.054.008.088v3.54c0 .952-1.478.952-1.478 0v-1.774c-.387.49-.772.977-1.162 1.466-.337 1.934-.484 3.899-.927 5.815-.219.927-1.639.534-1.425-.392.077-.33.144-.662.205-.995-.8 2.375-.982 5.077-.554 7.486.167.93-1.255 1.327-1.423.392a17.312 17.312 0 0 1 .34-7.517c-.626.798-1.248 1.594-1.871 2.39.02.063.03.132.03.21v7.08c0 .954-1.476.954-1.476 0v-5.425c-.379.493-.76.985-1.14 1.48-.633 1.89-.333 4.394-.335 6.308 0 .95-1.476.95-1.476 0 0-1.23-.072-2.58-.011-3.909-.456.608-.917 1.218-1.37 1.83l-.149.198c-.154 2.2-.513 4.388-.536 6.597-.008.653-.7.857-1.133.62-.04 1.17-.046 2.34-.048 3.515 0 .95-1.475.951-1.475 0 0-2.285.033-4.555.285-6.812-.607.823-1.212 1.647-1.817 2.475a.75.75 0 0 1 .03.401c-.536 2.862-.563 5.753-.563 8.656 0 .951-1.475.951-1.475 0 0-2.015.03-4.02.209-6.018a903.515 903.515 0 0 0-2.014 3.643.672.672 0 0 1 .329.605v6.491c0 .952-1.478.952-1.478 0v-5.02a187.725 187.725 0 0 1-2.64 4.549c.037 2.462.159 4.912.549 7.355.15.93-1.273 1.33-1.422.392-.287-1.786-.438-3.575-.523-5.368a92.26 92.26 0 0 0-2.016 3.656c.227 1.826.73 3.608 1.525 5.272.409.855-.862 1.603-1.273.746a18.954 18.954 0 0 1-1.345-3.807c-.418.905-.81 1.822-1.174 2.748a14.55 14.55 0 0 0 .325 4.622c.212.924-1.208 1.319-1.421.392-.1-.42-.174-.84-.236-1.258a64.702 64.702 0 0 0-1.214 4.341c-.067.282-.128.568-.194.849.039.136.076.268.114.396.122.403-.086.703-.382.834-1.508 7.226-1.954 14.606-3.59 21.811-1.696 7.468-4.27 15.785-1.929 23.382.228.736-.658 1.13-1.155.776v35.74c1.196 14.207 1.743 28.41 2.052 42.645.647 6.97 1.414 13.929 1.67 20.925.028.753-.885.904-1.29.469.282 14.201.697 28.408.56 42.606.943.013.941 1.475-.009 1.475h-.008c-.025 1.989-.058 3.978-.106 5.97-.13 5.173-.308 10.346-.504 15.52.1 8-.354 15.995-.876 23.973-.18 6.13-.303 12.259-.308 18.392a.782.782 0 0 1-.016.154c1.125-.033 2.234-.165 3.218-.773a.658.658 0 0 1 .784.034c.299-.084.604-.125.917-.137.951-.024.95 1.454 0 1.478-.63.013-1.148.414-1.772.44a.737.737 0 0 1-.254-.032c-1.174.418-2.442.473-3.705.474-.011.302-.024.604-.032.904a.702.702 0 0 1 .45-.167c.901-.032 1.748-.414 2.655-.443.952-.034.949 1.442 0 1.476-.902.032-1.749.41-2.656.441a.657.657 0 0 1-.478-.16 197.822 197.822 0 0 0-.072 4.976c.49-.234 1.024-.365 1.57-.44-.511-.245-.6-1.172.11-1.397 1.23-.393 2.454-.47 3.738-.47.951-.001.951 1.475 0 1.475-1.037.003-2.006.053-2.997.314.567-.027 1.13-.02 1.668-.02.953 0 .951 1.477 0 1.477-1.199 0-2.935-.193-3.905.667a.718.718 0 0 1-.181.12c.003.533.01 1.066.022 1.602.004.298.015.598.023.898 2.008-.459 4.04-.797 6.061-1.197.93-.18 1.324 1.239.39 1.423-2.13.422-4.285.774-6.398 1.273.014.375.03.75.048 1.126 2.587-.38 5.179-.844 7.554-1.977.852-.407 1.601.865.744 1.274-2.6 1.242-5.387 1.754-8.208 2.17a117 117 0 0 0 .15 2.123c3.047-1.506 6.534-1.257 9.9-1.24.95.005.95 1.48 0 1.475-2.838-.013-5.785-.254-8.43.738h9.758c.95 0 .95 1.474 0 1.474H9.226c.297 3.021.682 6.028 1.118 9.03a.669.669 0 0 1 .6-.326 69.285 69.285 0 0 0 10.767-.892c-3.333-.76-6.764-1.091-10.128-.315-.928.217-1.32-1.208-.395-1.423 3.812-.88 7.698-.468 11.462.443.545.133.632.678.423 1.062.316-.06.636-.114.957-.175.929-.183 1.325 1.239.391 1.421a71.855 71.855 0 0 1-13.475 1.355.706.706 0 0 1-.454-.151c.037.236.069.475.107.71 4.099-.378 8.196-.776 12.3-1.15.948-.086.94 1.39 0 1.473-1.177.107-2.355.223-3.528.332.958.197 1.907.486 2.837.876.58.242.599.961.288 1.301h1.731c.952 0 .952 1.474 0 1.474H11.28c.135.819.261 1.635.396 2.454 5.46-.068 10.906 1.166 16.34.083.93-.186 1.324 1.237.39 1.421-4.851.97-9.683.167-14.543-.006 1.397.398 2.833.669 4.274.922 2.017-.136 4.05-.152 6.09-.152.95 0 .95 1.476 0 1.476h-.003c.576.425.183 1.537-.636 1.3-1.79-.515-3.638-.833-5.478-1.16-2.79.184-5.546.619-8.181 1.638.048.162.097.322.144.487 0 .002.003.002.003.004.146.242.289.484.433.726 4.47.222 8.82 1.292 13.275 1.725.94.093.947 1.569 0 1.474-2.807-.272-5.58-.802-8.36-1.204 3.363 1.342 6.927 2.283 10.575 1.944.58-.056.797.48.666.92a.688.688 0 0 1 .587.092c.105-.032.215-.065.321-.1.902-.309 1.284 1.114.39 1.42-.698.241-1.404.432-2.115.58-3.434 1.404-7.234 1.556-10.91 1.07.018.032.034.06.049.091 4.195 2.296 9.206 2.887 13.913 2.149.93-.145 1.33 1.273.39 1.423-4.382.686-9.017.35-13.119-1.36.087.161.17.32.254.479.146.266.29.534.433.797.186-.53 1.16-.638 1.438.06 1.016 2.547 4.02 3.463 6.488 3.877 2.449.413 4.932.45 7.408.451.951 0 .951 1.473 0 1.473-3.579 0-8.717.11-12.179-1.879l.02.052c4.213 2.079 9.066 2.817 13.735 2.148.93-.132 1.332 1.29.391 1.424-4.763.682-9.706.06-14.072-1.92.138.231.274.452.417.682.76.813 1.639 1.516 2.587 2.13.104-.348.432-.64.89-.545 6.171 1.304 11.493 5.198 17.952 5.283.95.016.95 1.489 0 1.478-1.2-.02-2.36-.16-3.49-.387.293.28.269.759.028 1.043 4.012.978 8.005 2.03 12.068 2.76.936.17.54 1.59-.391 1.425a87.05 87.05 0 0 1-2.653-.524.671.671 0 0 1-.693.55c-5.39-.058-10.324-1.93-15.417-3.36.94.77 1.887 1.536 2.848 2.276a81.75 81.75 0 0 0 4.69 2.77.632.632 0 0 1 .55-.035c2.254.794 4.69 1.001 7.141 1.012-.24-.608.37-1.411 1.003-.938.43.322.87.62 1.314.905 1.53-.042 3.048-.116 4.511-.12.954-.002.952 1.472 0 1.475-.645.002-1.303.018-1.967.034 5.326 2.506 11.51 3.143 17.213 4.268.936.186.538 1.607-.39 1.423-6.64-1.308-13.907-1.998-19.786-5.6-1.715.039-3.443.036-5.133-.13 5.718 2.75 11.736 4.96 17.76 6.776.006-.365.244-.727.713-.722 14.693.051 28.714 4.513 43.135 6.662.459.07.597.445.507.795.613.056 1.221.109 1.83.17 5.334.521 10.628.972 15.959 1.213 2.922-.477 5.824-1.172 8.77-1.515 5.267-.613 10.686-.294 15.987-.51 10.826-.445 21.63-1.325 32.446-1.948.951-.058.945 1.42 0 1.475-11 .633-21.99 1.546-32.998 1.97-2.778.107-5.557.189-8.337.223-2.66.032-5.31-.021-7.95.385-.255.035-.512.078-.769.122 11.572.203 23.143.242 34.712.248 1.41-.158 2.818-.325 4.222-.497 2.849-.517 5.711-.948 8.587-1.274.357-.04.713-.077 1.07-.115a45.76 45.76 0 0 0 3.164-1.197c.516-.217.858.192.878.638 6.353-1.044 12.674-2.303 18.923-3.863 1.053-.263 2.11-.537 3.171-.823.482-.196.966-.391 1.446-.592.608-.252 1.221-.508 1.83-.767-7.758.482-15.504 1.297-23.271 1.505 1.686.124 3.376.249 5.066.348.944.06.95 1.534 0 1.476-2.783-.165-5.564-.393-8.343-.582-7.946 1.853-16.344 1.096-24.414 1.91-.948.095-.939-1.378 0-1.477 5.572-.563 11.31-.358 16.94-.813a81.4 81.4 0 0 0-6.318.078c-.881.047-.94-1.22-.19-1.444-2.42-.184-4.847-.394-7.27-.587-2.167.061-4.335.258-6.508.679-.727.14-1.123-.7-.82-1.16-4.242-.191-8.392-.103-12.617.364-3.986.436-7.99.9-11.99.377-.932-.12-.945-1.596 0-1.478 4.184.55 8.366.012 12.539-.433 4.107-.444 8.16-.507 12.29-.297 2.273.12 4.546.284 6.815.464 2.654-.109 5.321-.026 7.984.159 4.891.337 9.805 1.064 14.71.982 9.79-.153 19.523-1.335 29.298-1.757 1.346-.6 2.682-1.218 4.005-1.861.06-.032.12-.066.177-.098a117.102 117.102 0 0 0 7.992-5.036.729.729 0 0 1 .314-.43 338.33 338.33 0 0 0 4.014-2.71c-1.911.036-3.803.122-5.485.886-.859.387-1.61-.88-.745-1.272a9.647 9.647 0 0 1 2.218-.68 28.504 28.504 0 0 1-3.614.282c-.952.013-.95-1.465 0-1.474.41-.005.823-.026 1.232-.047-.449-.425-.048-1.409.73-1.255 2.263.446 4.452.389 6.587-.073a66.4 66.4 0 0 0 3.156-.989c.154-.06.304-.131.46-.197-.152-.308-.105-.69.3-.88 1.392-.649 2.819-1.32 4.24-2.027.436-.481.874-.969 1.304-1.457-3.824 1.338-7.64 2.684-11.614 3.506-.927.194-1.322-1.23-.391-1.423 4.779-.987 9.333-2.73 13.94-4.314l.72-.843c-3.758 1.595-7.62 2.797-11.809 2.627-.95-.039-.953-1.515 0-1.478 4.282.175 8.24-1.144 12.096-2.836a.783.783 0 0 1-.259-.265c-.42.112-.844.215-1.279.303-3.233 1.332-6.588 2.225-10.115 2.058-.948-.041-.951-1.516 0-1.474 2.651.124 5.208-.383 7.686-1.229.025-.25.189-.467.53-.513a24.068 24.068 0 0 0 1.538-.271c.98-.408 1.948-.859 2.906-1.33.64-.944 1.263-1.898 1.873-2.862-3.118.316-6.292.606-8.703 2.595-.727.604-1.776-.433-1.038-1.04 3.05-2.523 6.938-2.59 10.698-3.084l.592-.97c-2.23.54-4.5.86-6.787.885a.757.757 0 0 1-.32-.06c-.187.021-.375.043-.564.06-.952.094-.942-1.382 0-1.476 3.118-.302 6.172-.963 9.136-1.918.225-.391.443-.786.661-1.18-1.39.274-2.807.348-4.241.126-.938-.149-.54-1.569.388-1.424 1.597.247 3.195.06 4.766-.382.202-.376.398-.759.596-1.134-2.796.868-5.657 1.42-8.655 1.196-.945-.072-.95-1.548 0-1.479 1.967.15 3.868-.053 5.73-.46-1.705-.297-3.392-.655-5.042-1.184-.627-.202-.633-.95-.272-1.292-1.883-.287-3.768-.568-5.657-.786.29-.332.568-.677.84-1.033-3.49-.424-6.975-.871-10.474-1.112-.046.135-.091.27-.133.404-.268.2-.538.397-.812.59.258-.336.518-.668.78-1.003a69.423 69.423 0 0 0-4.44-.167c-.95-.007-.95-1.48 0-1.476 5.15.024 10.243.7 15.341 1.325-5.607-1.26-11.257-2.166-17.11-1.622-.95.09-.939-1.386 0-1.475 7.63-.707 14.881 1.03 22.152 2.82a.748.748 0 0 1 .423-.166c2.33-.175 4.658-.098 6.916.289a46.9 46.9 0 0 0 4.055-1.06c.203-.47.397-.94.591-1.41a15.701 15.701 0 0 1-5.116-.352c-.926-.214-.533-1.637.392-1.423 1.811.42 3.609.499 5.356.213.196-.49.387-.978.573-1.473-1.43.283-2.882.47-4.355.498-.952.017-.952-1.46 0-1.476 1.686-.028 3.336-.287 4.963-.652.254-.696.5-1.395.737-2.096a11.17 11.17 0 0 1-4.124.214c-.942-.126-.541-1.548.39-1.424 1.49.204 2.917-.003 4.286-.464.348-1.067.676-2.142.985-3.221-1.77.524-3.569.893-5.467.71-.937-.091-.947-1.569 0-1.476 1.234.118 2.428-.01 3.596-.266-1.431.197-2.967.31-4.236-.056-.397-.116-.544-.444-.514-.764-1.078.2-2.17.326-3.272.348-.953.018-.952-1.456 0-1.474 2.365-.045 4.659-.62 6.907-1.322-.672.083-1.35.132-2.04.143-.95.013-.95-1.462 0-1.476 2.104-.029 4.1-.445 6.063-1.163-.011-.307-.022-.612-.03-.918-.716-.146-.732-1.245-.04-1.431-.015-.568-.03-1.138-.04-1.704a57.819 57.819 0 0 0-3.388.86c.577.284.46 1.37-.35 1.405h-.018a3.761 3.761 0 0 0-.246.09c-.126.052-.251.108-.38.154a3.67 3.67 0 0 1-1.126.202c-.626.013-.838-.614-.64-1.054-.164.045-.328.095-.49.142-.92.264-1.308-1.162-.395-1.423 2.329-.67 4.638-1.379 7.005-1.873-.006-.59-.006-1.177-.013-1.768-1.707.395-3.458.498-5.222.194-.601-.102-.646-.725-.366-1.113-.211-.327-.183-.858.217-1.117-.554.055-1.14-.495-.735-1.065.985-1.397 2.353-1.935 3.917-1.805.016-.22.032-.44.052-.66-.893-.049-1.777-.166-2.643-.434-.406-.127-.55-.48-.507-.805-.126-.03-.25-.055-.376-.082-.93-.188-.536-1.61.392-1.42 1.102.221 2.2.464 3.297.704.005-.043.012-.088.015-.128-.125-2.015-.154-4.036-.156-6.058-.016.02-.032.039-.048.056a.745.745 0 0 1-1.043 0c-.197-.194-.392-.391-.587-.589a.739.739 0 0 1 0-1.042.74.74 0 0 1 1.038 0l.592.592c.018.017.032.038.05.059.001-.905.006-1.81.013-2.713a3.94 3.94 0 0 0-1.175-.22c-.483 0-.717-.377-.71-.75-.004-.371.232-.739.71-.724.398.01.794.066 1.178.163.005-1.971-.016-3.935-.125-5.899-.05-.951 1.426-.946 1.474 0 .055.95.084 1.901.103 2.851.104-1.087.212-2.174.323-3.261-.2-.536-.414-1.069-.639-1.597-.003-.004-.005-.016-.008-.025a.67.67 0 0 1-.366-.626c0-1.38.01-2.763.013-4.144a.871.871 0 0 1-.164.016c-.951 0-.951-1.476 0-1.476.06 0 .116.006.169.016.008-2.349.025-4.7.045-7.053-.312-3.889-.501-7.787-.506-11.695-.003-.446.318-.68.663-.71.217-13.456.565-26.909.918-40.363.258-9.822.517-19.643.727-29.467.202-9.658.144-19.343.536-28.998.192-4.717.468-9.434.602-14.155.131-4.638.157-9.21.666-13.826.37-3.347.754-6.686.722-10.039-.339-.11-.626-.434-.554-.882.133-.793.262-1.588.382-2.384-.006-.067-.01-.135-.02-.202-.47-4.407-1.256-8.734-.633-13.172.096-.709.932-.653 1.277-.181V268.63a99.185 99.185 0 0 0-1.006-5.74c-.133-.655.536-1.042 1.006-.886v-.492c0-.36.214-.583.479-.671l-.002-.093a407.933 407.933 0 0 0-.367-3.138c-.16.475-.244.98-.252 1.543-.018.952-1.496.953-1.477 0 .026-1.548.509-2.847 1.422-4.003a329.073 329.073 0 0 0-.693-5.119c-.037-.258-.076-.52-.111-.78-.964 1.962-1.89 3.94-2.71 5.97-.354.87-1.779.49-1.426-.393 1.085-2.673 2.329-5.266 3.618-7.845a.725.725 0 0 1 .17-.223 63.493 63.493 0 0 1-.111-.74l-2.325 4.654c-.427.852-1.7.105-1.276-.744l3.216-6.435a78.127 78.127 0 0 0-.742-4.005c-1 2.211-1.803 4.494-2.304 6.877-.199.93-1.62.536-1.425-.392.624-2.942 1.698-5.745 3.028-8.437a.69.69 0 0 1 .19-.244 56.523 56.523 0 0 0-.617-2.244c-.723 2.372-1.759 4.623-3.025 6.773-.483.82-1.755.077-1.272-.743 1.564-2.655 2.75-5.448 3.416-8.46-.292-.625-.585-1.247-.887-1.87-1.029 1.4-1.695 3.01-1.745 4.802-.028.948-1.503.953-1.474 0 .064-2.373 1.02-4.492 2.506-6.278-.324-.664-.646-1.322-.975-1.985-.673 1.223-1.387 2.415-1.856 3.739-.313.892-1.74.507-1.42-.393.61-1.736 1.599-3.267 2.435-4.897.01-.026.029-.04.041-.062-.227-.454-.455-.909-.68-1.364-.896 1.364-1.708 2.774-2.144 4.354-.255.916-1.68.526-1.427-.391.562-2.01 1.66-3.761 2.812-5.474-1.693-3.382-3.373-6.77-4.914-10.207a.71.71 0 0 1-.204.467c-1.832 1.933-2.678 4.517-2.733 7.15-.022.95-1.499.952-1.478 0 .024-1.176.196-2.34.512-3.457-.33-.112-.598-.432-.488-.87.567-2.247 1.133-4.534 2.355-6.526a47.593 47.593 0 0 0-.541-.814c-.292-.008-.565-.17-.631-.529l-.104-.552c0-.003-.003-.008-.003-.013-.039-.29-.087-.577-.135-.868a81.19 81.19 0 0 1-.039-.244c-.038-.211-.075-.425-.117-.635-.02-.096-.04-.19-.058-.285-.046-.215-.098-.43-.146-.642l-.058-.233c-.075-.29-.157-.582-.251-.87.036.054.073.105.109.158a43.275 43.275 0 0 0-.116-.597 38.862 38.862 0 0 1-1-4.74 61.47 61.47 0 0 1-1.03-4.639c-.082-.433.188-.75.509-.868a55.165 55.165 0 0 1 .043-5.76c.2-3.26.746-6.463 1.361-9.66a21.078 21.078 0 0 0-.148-.824c-.077-.418.167-.726.477-.856.075-.382.152-.767.226-1.15.03-.15.058-.3.09-.45.48-3.86.939-7.726 1.284-11.604.101-1.14.186-2.281.258-3.419-.001-4.18-.011-8.363-.11-12.543-.23-9.571-.708-19.234-2.21-28.701-.76-4.8-1.924-9.527-2.923-14.276-2.182-4.793-4.395-9.573-6.104-14.57-2.618-7.672-4.908-15.567-10.27-21.856-.617-.719.421-1.771 1.042-1.043 5.335 6.255 7.758 13.963 10.348 21.617 1.115 3.287 2.438 6.48 3.826 9.64-.24-1.54-.44-3.091-.576-4.652-.39-1.598-.796-3.193-1.236-4.78-2.019-7.325-4.758-14.665-9.794-20.49-2.71-3.135-5.944-5.728-9.343-8.09-3.502-2.44-7.198-4.38-11.449-5.086zm28.715 20.468c3.66 7.147 5.145 15.016 6.333 22.898.424 2.813.81 5.635 1.261 8.446a217.85 217.85 0 0 1 1.668 3.87c.499 1.2.97 2.414 1.413 3.64-.924-13.132-2.198-28.15-10.675-38.854zm11.264 46.519c-.558-2.902-1.407-5.73-2.457-8.493.748 3.932 1.382 7.875 1.81 11.862.71 6.562 1.198 13.233 1.326 19.883.153-2.65.259-5.303.281-7.958l.002-.348c-.008-.266-.013-.53-.024-.794-.187-4.712-.564-9.435-.938-14.152zM266 308.631c.05-5.545-.034-11.09-.236-16.624-.001.03-.006.06-.011.094-.022 1.714-.06 3.43-.12 5.14-.238 6.976-.73 13.95-1.202 20.925v15.692c.337-2.8.632-5.604.866-8.414.02-5.379.066-10.757.169-16.133a.683.683 0 0 1 .534-.68zM262.951 480.6v-22.856c-.177 2.631-.367 5.261-.57 7.89-.22 2.813-.42 5.632-.598 8.447.391 3.03.802 6.055 1.128 9.09.014-.858.029-1.713.04-2.571zm-.88 31.437c.102-2.341.198-4.679.278-7.02a87.524 87.524 0 0 1-.849 4.219 111.889 111.889 0 0 1-.167 3.033c.246-.08.493-.159.739-.232zm-.068 1.564c-.219.067-.434.136-.652.205.11 1.78.236 3.559.387 5.338.093-1.848.184-3.696.265-5.543zm-6.176 27.652c-1.941 1.828-4.008 3.544-6.231 4.988l-.385.509c.842-.384 1.69-.753 2.535-1.094.09-.126.175-.25.262-.377.355-.538 1.053-.37 1.303.044.86-1.338 1.687-2.701 2.516-4.07zm-9.986 7.08c-.718.335-1.448.639-2.197.903-.042.068-.092.134-.138.203.781-.361 1.56-.732 2.335-1.106zm-.377 2.843c.483-.144.964-.282 1.446-.417a26.843 26.843 0 0 0 2.896-2.684c-.905.409-1.808.833-2.71 1.256a77.446 77.446 0 0 1-1.632 1.845zm1.454-6.926c-.352.568-.7 1.133-1.061 1.691 1.213-.646 2.415-1.303 3.606-1.927.064-.096.128-.189.196-.284-.882.241-1.803.398-2.741.52zm1.717-2.846c-.236.412-.485.815-.732 1.224.49-.1.97-.207 1.446-.343.494-.14.834.21.898.601a55.15 55.15 0 0 0 1.172-1.766c.188-.3.372-.6.555-.9a41.013 41.013 0 0 1-3.34 1.184zm2.041-3.643c-.172.322-.347.643-.52.964a47.155 47.155 0 0 0 3.001-1.234.809.809 0 0 1 .367-.067c.185-.352.358-.708.53-1.066-1.104.541-2.232 1.029-3.378 1.403zm3.824-7.814l-.075.167c.629.254 1.247.536 1.853.849.2-.561.393-1.126.575-1.694-.79.216-1.571.443-2.351.678h-.002zm1.637-3.852c-.148.363-.287.729-.44 1.093.394-.13.787-.263 1.178-.391.276-.092.506-.021.66.126.12-.442.233-.884.342-1.328-.573.204-1.154.372-1.74.5zm1.225-3.142c-.179.484-.362.964-.55 1.445.495-.15.983-.329 1.466-.54.085-.398.164-.803.244-1.202a35.14 35.14 0 0 1-1.16.295v.002zm1.37-3.897c-.244.746-.5 1.485-.764 2.223.286-.077.568-.152.85-.23.13-.721.243-1.443.349-2.168-.141.06-.287.119-.435.175zm1.805-57.436c.1-.935.2-1.873.297-2.81a.698.698 0 0 1-.382.33c.015.826.048 1.657.085 2.48zm1.336-109.236a140.09 140.09 0 0 0-.065 2.96c-.41 33.261-1.717 66.508-2.11 99.77.294.006.6.174.74.506.351.833.444 1.645.465 2.519.55-5.272 1.092-10.54 1.584-15.812.2-4.298.355-8.596.46-12.894-.189-20.233-.492-40.471-.513-60.705-.19-5.445-.433-10.898-.561-16.344zm.138 141.735h.003a57.69 57.69 0 0 0-.092-5.425c0-.047-.006-.095-.01-.14a49.14 49.14 0 0 0-.636-5.336c-.17 3.85-.28 7.7-.326 11.548.363-.186.719-.4 1.06-.647zm-1.088 6.055c.003.632.006 1.268.012 1.903.126-.02.248-.042.368-.063h.026a89.56 89.56 0 0 0 .263-2.077l-.67.237zm.823-1.724c.08-.843.141-1.69.19-2.535-.29.163-.585.31-.882.443.336.3.361.98-.13 1.269-.003.328-.008.659-.008.991.129-.047.257-.098.384-.146a.667.667 0 0 1 .446-.022zm-14.238-287.706a14.963 14.963 0 0 0-.93 2.23c.248-.334.513-.653.802-.961a.66.66 0 0 1 .886-.098l-.758-1.171zm-2.105-10.914c.245.848.502 1.695.778 2.538-1.294-5.27-1.095-10.653-1.16-16.02-.29 2.753-.46 5.516-.26 8.277.126 1.746.36 3.478.642 5.205zm17.548 100.016v-3.491a27.543 27.543 0 0 0 0 3.49zm-3.482 193.564c.033-2.246.093-4.495.176-6.736.037-1 .085-2.004.133-3.005-.003.005-.006.006-.006.014a808.903 808.903 0 0 0-.825 9.257l.024.364c.165.036.334.07.498.106zm-.023 1.985l.005-.486a1.189 1.189 0 0 1-.14-.03.623.623 0 0 1-.189.112c.016.165.032.324.051.489.09-.029.182-.053.273-.085zm-3.033 2.275c-.01 0-.02.003-.03.006a.735.735 0 0 1-.777-.316c-.372.175-.711.456-.995.863a.925.925 0 0 1-.138.146c.643-.247 1.293-.473 1.94-.7zm-.692 1.805c1.249.069 2.496-.095 3.707-.41v-.39c-.31.436-1.054.506-1.258-.05-.817.28-1.637.556-2.449.85zm3.194 10.572a.738.738 0 0 1 .767.07c-.011-.229-.018-.45-.026-.678a21.9 21.9 0 0 1-2.17.621c.087.066.152.156.198.255.44.011.97-.149 1.231-.268zm-1.196 1.712a2.9 2.9 0 0 1-1-.183c-.858.276-1.72.54-2.591.769.88.008 1.813-.132 2.593-.209.328-.035.66-.067.986-.112a.697.697 0 0 1 .012-.265zm-4.002 20.885c-.14-.027-.284-.048-.427-.073l-.141.298c.193-.075.379-.15.568-.225zm-1.507 2.139c-.183.364-.36.727-.545 1.09 1.142-.472 2.265-1.045 3.355-1.648.092-.204.169-.411.254-.615a94.087 94.087 0 0 1-3.064 1.173zm-3.991-1.68c-1.27-.147-2.536-.32-3.802-.505 2.064.523 4.174.852 6.286 1.155.16-.055.315-.104.474-.16.213-.432.422-.859.629-1.294a113.993 113.993 0 0 1-4.946-1.063.692.692 0 0 1-.413.1c-.348-.022-.7-.047-1.05-.071.938.133 1.878.256 2.824.364.932.109.942 1.583-.002 1.474zm-15.555 27.93c-.896.329-1.794.587-2.696.78-1.395.388-2.8.719-4.222.958 1.65-.198 3.362-.148 5.039-.241.63-.494 1.26-.99 1.879-1.497zm-4.572 7.446c7.156-4.119 13.59-9.402 19.294-15.36a40.713 40.713 0 0 0 2.977-3.52 29.61 29.61 0 0 1-2.386 2.166.68.68 0 0 1-.424.335 39.789 39.789 0 0 1-3.807 2.633c.418.298.451 1.125-.2 1.36-1.478.536-2.894 1.196-4.301 1.89a103.944 103.944 0 0 1-4.922 4.849c.058.33-.087.688-.513.784-.145.032-.292.056-.44.082a91.34 91.34 0 0 1-7.281 5.9c.67-.37 1.34-.74 2.003-1.12zm34.68-41.844c-.222.758-1.496.7-1.44-.182.032-.556.066-1.112.094-1.667-.327-.048-.638-.28-.685-.694-.072-.665-.141-1.33-.207-1.998-.144.042-.29.084-.435.122-.066.347-.131.693-.204 1.035.554.16.848.991.204 1.344-.183.101-.369.193-.555.29a69.044 69.044 0 0 1-.573 2.324c.67.11.865 1.22.066 1.444-.17.046-.342.1-.514.144a57.888 57.888 0 0 1-.942 2.893c.25.155.501.314.75.486a.56.56 0 0 1 .1.083c.31-.183.624-.357.924-.527.834-.464 1.577.808.744 1.273-1.263.706-2.569 1.483-3.915 2.232-.331.752-.678 1.502-1.044 2.241.488.234.711.977.092 1.279-.337.168-.674.329-1.016.484a47.29 47.29 0 0 1-1.849 3.11 55.92 55.92 0 0 0 3.743-3.422c.366-.363.834-.225 1.086.088.978-1.588 1.98-3.156 3.057-4.674a.74.74 0 0 1 .785-.306 56.707 56.707 0 0 0 1.735-7.402zm4.087-146.86c-.146 18.925-.737 37.838-2.372 56.697.119 14.611.146 29.225-.06 43.834v31.883c.304.066.575.297.593.692.495 10.896-1.408 21.823-6.749 31.419-4.79 8.607-12.114 15.483-20.348 20.765-4.824 3.096-9.934 5.69-15.23 7.893a200.537 200.537 0 0 1-6.451 3.048c-8.196 3.726-16.844 7.25-25.723 9.61-9.412 2.793-19.15 4.563-28.833 5.513a180.682 180.682 0 0 1-23.464.778c-1.358-.04-2.71-.108-4.063-.193-4.467.198-8.947.12-13.404-.152-7.149-.432-14.292-1.303-21.302-2.777-4.057-.855-8.109-1.887-12.024-3.275-.673.007-1.344.015-2.013.028-6.079.12-12.576.325-17.96-2.633-7.959-1.993-15.657-5.031-22.943-8.832-2.965-1.056-5.873-2.268-8.691-3.733a52.552 52.552 0 0 1-14.098-10.622c-5.112-4.066-8.93-9.378-11.771-15.256-.148-.125-.294-.254-.439-.377-.303-.257-.296-.586-.134-.84-2.39-5.252-4.044-10.909-5.171-16.498-4.604-22.876-2.738-46.613-1.478-69.725.268-4.922.533-9.847.636-14.772.154-7.034-.256-14.06-.374-21.086-.334-19.435-.065-38.872-.284-58.303-.105-9.046-.238-18.094-.82-27.12-.495-7.714-1.07-15.424-1.429-23.147-.682-14.611-1.133-29.94 2.643-44.217a305.002 305.002 0 0 1-.301-12.77c-.002-.95 1.474-.95 1.476 0v.58c.013 3.54.098 7.08.234 10.616.26.147.435.43.33.802-.09.316-.168.632-.254.948a450.8 450.8 0 0 0 .873 14.27c-.453-15.967-1.173-32.44 2.68-48.064a.65.65 0 0 1 .624-.524c.448-1.675.94-3.34 1.484-4.99.355-1.065.724-2.12 1.111-3.172-.278-.199-.428-.558-.194-.933.499-.796.993-1.595 1.487-2.394 5.102-12.488 12.56-23.855 21.057-34.336.233-.286.523-.305.767-.178a196.396 196.396 0 0 1 4.838-6.597c4.741-6.174 10.054-11.784 15.223-17.584a329.057 329.057 0 0 0 6.826-7.885c4.037-5.699 7.84-11.545 11.185-17.646 4.595-8.38 8.026-17.223 10.561-26.334-3.251 8.114-7.104 15.984-11.647 23.42-.493.812-1.769.071-1.273-.744 4.501-7.369 8.295-15.17 11.502-23.18a196.154 196.154 0 0 0 4.273-11.708c.077-.404.157-.808.234-1.211-.402.627-1.56.234-1.325-.602.924-3.311 1.95-6.61 2.95-9.916a250.561 250.561 0 0 0 .282-2.373c.1-2.105.273-4.208.605-6.3a.658.658 0 0 1 .157-.342c.218-1.659.486-3.31.854-4.956.894-3.985 2.052-7.904 3.157-11.838.146-.523.293-1.054.438-1.582.327-2.634.688-5.262 1.11-7.88.385-2.384.583-4.685.674-7.098.08-2.031.226-4.062.934-5.981a28.953 28.953 0 0 0-.24-1.532.746.746 0 0 1 .057-.473c-1.237-.387-2.388-.997-3.222-2-1.448-1.737-1.852-3.91-1.887-6.104a2.102 2.102 0 0 1-.002-.568 25 25 0 0 1 .008-.492.705.705 0 0 1 .491-.671c.7-.862 1.95-1.288 2.983-1.532.406-.096.814-.175 1.223-.247a.762.762 0 0 1-.244-.696c.185-1.19.262-2.39.366-3.588-.484-.292-.555-1.16.14-1.349.014-.117.03-.237.043-.36-.857-.662-1.446-1.416-1.845-2.233-.68-.442-.822-1.036-.501-1.44-.197-.859-.246-1.768-.22-2.704-.777-2.47-1.476-5.612-.228-8.044.141-.27.299-.523.477-.757a22.058 22.058 0 0 0-.03-.573c-.036-.56.458-.786.885-.686a.752.752 0 0 1 .478-.007c1.19-.826 2.668-1.274 4.105-1.53 5.91-1.066 11.908-.066 17.831-.77 8.96-1.074 18.008-1.73 27.036-1.287 7.604.374 15.1 1.771 22.682 2.22-.216-.393-.136-.925.424-1.012 1.92-.302 3.445.184 4.61 1.153h.012c.075 0 .143.015.207.03.332-.049.687.096.799.511.075.286.15.573.223.862.855 1.286 1.374 2.912 1.58 4.598.219 1.774.213 3.794-.229 5.65-.091 2.15-.574 4.686-2.372 5.793a.677.677 0 0 1 .528.684v4.44c0 .038-.006.07-.01.1 1.58.355 2.833 1.176 3.116 2.877.05.31.081.617.093.914.951 2.421.808 5.238-.726 7.372a1.778 1.778 0 0 1-.013.157c.175.076.317.228.365.483.196 1.02.306 2.04.42 3.05.403 1.56 1.069 2.885 1.937 3.988a6.268 6.268 0 0 1-.46-2.712c.043-.949 1.518-.952 1.478 0-.012.242-.026.486-.005.728.239 3.093 3.099 4.938 6.09 6.119 2.104.436 4.363.455 6.554.109.932-.146 1.332 1.275.392 1.425-.432.067-.862.118-1.297.163 2.065.49 4.163.852 6.254 1.252 2.827-.14 5.692-.294 8.452.053 6.514.81 12.954 3.797 18.157 7.724 5.023 3.79 9.31 8.563 12.451 14.017.191-.442.764-.713 1.165-.25 3.773 4.366 6.315 9.617 7.984 15.11 3.202 10.52 3.731 21.49 4.43 32.404.09.45.176.899.251 1.351.702 4.239.88 8.606.9 12.899.006 1.295-.012 2.591-.038 3.887.03 5.956-.395 11.89-1.045 17.855-.428 3.908-.892 7.815-1.287 11.726-.31 3.416-.579 6.83-.759 10.252.53.26.51 1.14-.064 1.35-.04.971-.082 1.942-.104 2.914-.007.37-.013.744-.013 1.12a.64.64 0 0 1-.018.147c-.017.905-.024 1.815-.024 2.72.02.088.026.178.013.279-.005.032-.006.06-.01.096.004.884.015 1.771.039 2.657a.648.648 0 0 1-.289.584c-.313 12.66 7 24.365 11.95 35.61 2.42 5.506 4.356 11.187 5.626 17.052a77.143 77.143 0 0 1 1.573 4.975c.125.46-.167.785-.517.884.942 6.318 1.372 12.71 1.478 19.094.027 1.779.032 3.561.019 5.342.997 15.751 1.417 31.58.42 47.304a320.008 320.008 0 0 1-.354 6.441c-.04 17.66.22 35.317.082 52.972zM137.492 189.42a.665.665 0 0 0 .183-.484c-.018-6.302-.573-12.582-.59-18.883-.003-.605-.598-.823-1.033-.658a.743.743 0 0 0-.163-.045 161.063 161.063 0 0 0-1.194-8.935c-.155-.937-1.575-.537-1.42.392.802 4.891 1.328 9.815 1.744 14.75v23.409c0 .953 1.475.953 1.475 0v-3.41c.243 2.911.526 5.818.884 8.724.114.927 1.593.941 1.476 0-.61-4.94-1.008-9.9-1.362-14.86zM20.19 351.987c2.928-19.179-1.156-38.652 1.771-57.826.143-.93-1.277-1.33-1.422-.393-2.93 19.183 1.157 38.655-1.771 57.829-.145.929 1.279 1.33 1.422.39zm58.934 171.232c-3.091.027-6.077.52-9.051 1.354-.913.255-.525 1.68.391 1.423 2.847-.797 5.696-1.277 8.66-1.301.95-.011.95-1.487 0-1.478v.002zm9.585-365.18a40.455 40.455 0 0 1-.836 3.86c-.435-.429-1.33-.277-1.253.466a15.178 15.178 0 0 1-.072 3.636c-4.372 11.572-13.277 21.143-20.376 31.141a132.206 132.206 0 0 0-11.59 19.714c-3.314 6.984-5.91 14.69-5.444 22.516.057.943 1.533.948 1.475 0-.483-8.093 2.395-15.949 5.89-23.114 3.195-6.552 7.045-12.886 11.275-18.828-6.46 11.278-10.296 23.962-11.262 36.927-.071.95 1.405.945 1.478 0 1.07-14.4 5.817-28.248 13.616-40.386 3.34-5.195 7.169-10.03 10.687-15.099 2.596-3.743 5.03-7.975 5.697-12.52.951-2.535 1.688-5.166 2.139-7.92.154-.931-1.268-1.329-1.424-.394v.002zm19.632 366.494c-.954 0-.954 1.476 0 1.476.95 0 .948-1.476 0-1.476zM97.272 110.054c.684-5.397 1.212-10.805 1.685-16.221-1.93 16.038-4.315 32.013-9.128 47.318 3.545-10.045 6.083-20.4 7.443-31.097zm7.028-56.073c-2.574 17.664-3.096 35.531-5.203 53.245-.948 7.981-2.223 15.881-4.371 23.635-2.083 7.521-4.757 14.869-7.902 22.011-6.724 15.26-15.55 29.22-24.793 43.029-.459.837-.906 1.675-1.354 2.518-6.997 13.235-12.203 27.317-12.718 42.42-.034.949-1.507.95-1.477 0 .413-12.093 3.757-23.618 8.671-34.539-3.05 4.855-5.837 9.896-7.724 15.27-2.853 8.12-3.3 16.64-3.309 25.169-.001.953-1.475.953-1.475 0 .005-7.759.288-15.668 2.57-23.147 2.415-7.913 6.741-15.161 11.264-22.028a567.333 567.333 0 0 1 4.304-6.427c6.178-11.272 13.265-22.037 19.106-33.499 15.883-31.173 16.78-66.42 21.513-100.376.048-.35.277-.512.536-.533.285-2.38.592-4.76.938-7.136.14-.942 1.559-.542 1.424.388zM18 386.337c.087-5.407.15-10.81.198-16.215.215-6.114.323-12.238.103-18.358.025-7.4.032-14.8.032-22.203v-10.503c0-.953-1.473-.953-1.473 0 0 3.627.004 7.253.01 10.877-.636-9.036-1.044-18.078-.195-27.131.092-.947-1.385-.939-1.475 0-1.489 15.878.844 31.742 1.578 47.596.043.901.077 1.798.1 2.702-.009 5.17-.036 10.344-.089 15.52-.324 9.923-.987 19.847-1 29.776-.001.408.268.639.58.7-.073 11.177.077 22.35.885 33.506.24 3.312.554 6.62.928 9.923.106.936 1.582.945 1.476 0-2.116-18.652-1.96-37.46-1.659-56.19h.002zm2.888 127.607c-3.295-.444-6.614-.468-9.934-.47-.953 0-.953 1.478 0 1.478 3.18 0 6.382-.008 9.542.414.928.125 1.332-1.295.392-1.422zM120.263 41.69c-.045-.507-.495-.74-.885-.7v-.184c0-.951-1.476-.951-1.476 0 .002 2.197-.038 4.456.587 6.584-.1.755-.205 1.507-.293 2.266-.111.945 1.365.934 1.473 0 .088-.727.186-1.455.284-2.179a.68.68 0 0 0 .02-.123c.248-1.88.458-3.756.29-5.664zM53.892 526.298c-1.733.027-3.42.373-5.063.908-.904.298-.519 1.718.388 1.423 1.523-.496 3.068-.835 4.673-.859.953-.014.955-1.492.002-1.472zm-7.723 2.68c-2.99.427-6.107.862-8.587 2.73-.75.564-.014 1.844.745 1.272 2.381-1.79 5.365-2.171 8.234-2.578.939-.137.54-1.557-.392-1.424zm-20.164-4.009c-4.581 0-9.161.003-13.722.441-.94.09-.95 1.57 0 1.475 4.56-.437 9.139-.44 13.722-.441.954-.002.954-1.475 0-1.475zm-3.529-121.116c.437-9.486-.014-18.998-.487-28.486a.715.715 0 0 0-.554-.678c0-.405-.005-.81-.005-1.214-.002-.955-1.476-.955-1.476 0 .006 10.13.327 20.27 1.046 30.378a137.015 137.015 0 0 1-.49 6.92c-.065.662.64.853 1.101.59.398 4.34.878 8.675 1.438 13.003.124.929 1.602.942 1.478 0a352.963 352.963 0 0 1-2.05-20.513zM11.591 513.14c2.276-.425 4.58-.416 6.886-.416.952-.003.952-1.476 0-1.476-2.44.004-4.87.021-7.277.47-.934.172-.538 1.597.391 1.422zm229.952-339.606c-.868 3.398-1.857 6.743-2.046 10.265-.047.95 1.427.946 1.478 0 .2-3.748 1.362-7.316 2.256-10.932.904-3.634 1.191-7.376 1.424-11.1.448-7.169.844-14.496-.167-21.63-.133-.939-1.554-.538-1.42.39 1.015 7.176.528 14.59.077 21.793-.24 3.799-.661 7.52-1.602 11.214zm-.499 53.19c4.274 2.389 6.63 7.265 8.21 11.691 1.613 4.516 2.611 9.42 2.638 14.227.008.948 1.482.95 1.478 0-.03-5.078-1.12-10.218-2.822-14.986-1.668-4.665-4.27-9.703-8.761-12.206-.833-.463-1.576.812-.743 1.274zm-20.219-65.867c-1.398 1.808-2.725 3.673-4.328 5.308-.666.684.376 1.725 1.043 1.045.974-.992 1.843-2.071 2.693-3.172.313.276.862.332 1.162-.125 1.255-1.92 2.285-3.977 3.542-5.903.152-.229.15-.45.06-.64.373-.57.744-1.145 1.118-1.718.526-.797-.751-1.532-1.273-.744-.798 1.206-1.528 2.462-2.44 3.589-.248.301-.211.653-.047.917l-.739 1.28c-.247-.149-.552-.145-.79.163zm23.937 79.514c2.443 6.765 3.311 13.972 3.59 21.12.034.949 1.51.954 1.473 0-.284-7.299-1.205-14.592-3.642-21.51-2.435-6.921-6.457-13.095-11.332-18.546-.635-.71-1.674.337-1.041 1.042 4.72 5.279 8.54 11.221 10.952 17.894zm-14.236-53.946c-3.134-2.527-7.159-3.427-10.312-5.978-1.616-1.309-3.09-2.793-4.646-4.171-1.64-1.457-3.442-2.739-5.174-4.082-3.22-2.496-6.345-5.095-9.04-8.16-2.91-3.304-5.379-7.1-7.732-10.81-4.596-7.236-8.32-14.979-11.507-22.927-3.382-8.432-6.18-17.142-7.472-26.159-.61-4.256-.524-8.636-1.77-12.788-.275-.905-1.7-.52-1.422.398 1.195 3.987 1.144 8.202 1.702 12.302.613 4.499 1.62 8.925 2.87 13.287 2.392 8.354 5.706 16.51 9.492 24.327a125.699 125.699 0 0 0 13.389 21.694c5.032 6.565 12.276 10.874 18.302 16.41 1.79 1.64 3.65 3.187 5.815 4.302 2.176 1.116 4.532 1.838 6.46 3.396.737.594 1.787-.444 1.045-1.041zm7.299-60.254c.168-2.363.016-4.722 0-7.082-.008-.95-1.481-.954-1.477 0 .016 2.362.169 4.719 0 7.082-.067.948 1.41.942 1.477 0zm1.279 2.949c-.106.941 1.37.933 1.476 0 .618-5.43.963-11.178-1.207-16.326-.365-.862-1.792-.485-1.425.391 2.125 5.038 1.76 10.624 1.156 15.935zm-27.577 397.779c-.157.189-.314.38-.475.568a28.188 28.188 0 0 0 2.707-.55 34.56 34.56 0 0 0-2.232-.018zM155.12 41.602c.253 1.789-.005 3.611-.028 5.408-.008.952 1.466.952 1.477 0 .024-1.946.25-3.865-.026-5.8-.13-.94-1.555-.54-1.422.392h-.001zm-21.915 205.13c-3.741 2.646-3.083 9.205-2.812 13.137.051.749.119 1.5.2 2.244.023 1.675.099 3.342.294 4.998a.69.69 0 0 0-.407-.125c-.385 0-.76.335-.737.734.018.33.11.594.25.89.045.1.097.197.147.298.038.083.043.097.016.044.006.018.035.236.03.1.023.401.321.738.737.738a.734.734 0 0 0 .372-.11c.183.896.404 1.785.687 2.666.008.019.018.033.027.053.157 1.241.297 2.486.392 3.733.072.942 1.548.948 1.476 0-.361-4.71-1.327-9.365-1.812-14.064-.033-2.244.032-4.498.04-6.738a.666.666 0 0 0-.348-.611c.016-.382.037-.764.068-1.144.144-1.84.484-4.407 2.128-5.57.768-.546.032-1.826-.748-1.273zM255.309 491.94h1.327a.742.742 0 0 0 .737-.738.743.743 0 0 0-.737-.738h-1.327a.747.747 0 0 0-.738.738c0 .403.337.738.738.738zm-42.692 77.764c-12.277 1.75-24.578 3.491-36.99 3.955-.947.037-.95 1.513 0 1.476 8.21-.305 16.367-1.17 24.503-2.227-.133.601.682 1.224 1.252.68.83-.776 1.903-1.088 3.018-1.109a.7.7 0 0 0 .506-.213c2.702-.369 5.405-.756 8.102-1.14.938-.135.536-1.555-.391-1.422zm-34.5-394.394c1.804 4.54 3.763 9.013 5.98 13.369a117.266 117.266 0 0 0 5.812 10.16c-.448-1.327-.904-2.65-1.369-3.969-2.44-3.49-4.728-7.069-6.27-11.071-.265-.689.53-1.069 1.06-.8-.749-1.371-1.528-2.71-2.456-3.988-.899-1.242-1.85-2.458-2.757-3.701zm6.132 9.414c-.018-.04-.04-.075-.061-.115a37.67 37.67 0 0 0 1.478 3.013 51.386 51.386 0 0 0-1.417-2.898zm-1.64 4.277c-4.495-8.99-7.994-18.424-11.258-27.918-.31-.9 1.116-1.287 1.42-.392a373.19 373.19 0 0 0 1.164 3.334c.011-.16.024-.32.046-.483.126-.929 1.604-.942 1.478 0-.572 4.25 1.58 7.831 4.016 11.128 1.474 1.999 2.882 3.963 4.166 6.021a144.08 144.08 0 0 1-.482-1.312c-.326-.9 1.103-1.282 1.42-.395 2.955 8.217 6.877 16.387 13.386 22.393.705.645-.345 1.686-1.041 1.045-3.046-2.814-5.537-6.09-7.638-9.618.142.393.286.786.427 1.179.525.746 1.053 1.49 1.58 2.232.338.473-.004.925-.444 1.04.695 2.033 1.38 4.068 2.106 6.094a101.74 101.74 0 0 0 7.961 9.828c.644.7-.396 1.744-1.038 1.041a102.945 102.945 0 0 1-4.981-5.828 63.108 63.108 0 0 0 2.3 4.936c.437.841-.834 1.587-1.272.745-1.659-3.175-2.973-6.495-4.17-9.857A112.943 112.943 0 0 1 182.608 189zm-51.42-141.407c0-1.826.08-3.72-.322-5.51-.08-.354-.335-.515-.613-.53a3.726 3.726 0 0 0-.46-.68c-.626-.72-1.666.33-1.045 1.042.834.956.728 2.896.4 4.004-.142.483.189.815.57.89-.004.262-.006.52-.006.782 0 .953 1.475.953 1.475.002zm95.449 140.092c-8.098-4.497-17.88-7.289-22.95-15.668-.495-.812-1.772-.07-1.273.744 5.237 8.656 15.114 11.55 23.48 16.2.834.46 1.577-.816.743-1.275v-.001zM40.868 528.093c-2.203.918-4.212 2.2-6.274 3.393-.353.207-.725.42-1.1.63a50.7 50.7 0 0 1 1.302-.904c.79-.525.052-1.804-.741-1.274-.968.646-1.916 1.306-2.808 2.034-1.076.45-2.21.777-3.327 1.102-1.026.299-2.157.697-3.23.748-.952.05-.957 1.522 0 1.476a12.894 12.894 0 0 0 1.654-.197.67.67 0 0 0 .36.171c5.398.884 9.917-3.823 14.555-5.753.868-.364.488-1.792-.392-1.426h.002zM13.622 499.45c-1.343.03-2.643.412-3.983.442-.956.021-.955-1.455 0-1.477 1.34-.032 2.64-.414 3.983-.44.95-.024.95 1.454 0 1.475z" fill="#FFF" mask="url(#b)"/>
  </g>
</svg>
