<svg xmlns="http://www.w3.org/2000/svg" viewBox="0 0 268 592" enable-background="new 0 0 268 592">
  <g>
    <defs>
      <filter id="a" filterUnits="userSpaceOnUse" x="0" y=".1" width="267.7" height="591.9">
        <feColorMatrix values="1 0 0 0 0 0 1 0 0 0 0 0 1 0 0 0 0 0 1 0"/>
      </filter>
    </defs>
    <mask maskUnits="userSpaceOnUse" x="0" y=".1" width="267.7" height="591.9" id="b">
      <path fill="#fff" d="M0 .1h267.7V592H0z" filter="url(#a)"/>
    </mask>
    <path d="M242.7 213.3c.5-1.4 1.1-2.7 2.2-3.8.7-.7-.4-1.7-1-1-1.2 1.3-2 2.8-2.6 4.5-.3.9 1.1 1.2 1.4.3zM203 70.5c2.1 0 3.6-1 4.8-2.7.5-.8-.7-1.5-1.3-.7-.9 1.3-1.9 2-3.5 2-.9-.1-.9 1.4 0 1.4zm46.2 149.1c0-.3.1-.7.2-1 .2 1.2.4 2.4.8 3.5.3.9 1.7.5 1.4-.4-.5-1.7-.6-3.6-1.2-5.3-.1-.2-.2-.4-.4-.5-.3-.1-.6-.1-.8.1l-.1.1c-.8.9-1.2 2.1-1.3 3.3-.1 1.2 1.4 1.2 1.4.2zM97.5 76.3V65.6c0-.9-1.5-.9-1.5 0v10.6c.1 1 1.5 1 1.5.1zM26.7 328.2c-.6-13.2-2.9-26.3-2.4-39.5 0-1-1.4-.9-1.5 0-.6 13.2 1.7 26.3 2.4 39.5.1 1 1.6 1 1.5 0zM223 147.7c-.9 1.9-2 3.6-3.3 5.3 2.5-2 4.5-4.4 6.5-6.8-.6.7-1.3 1.4-2 2-.5.5-1.1 0-1.2-.5zm3.2.7c-.6.8-1.3 1.5-2 2.3.2.3.3.7 0 1-1.1 1.1-2.1 2.1-3.1 3.2-1.4 1.9-2.6 4-3.9 5.9.9-1 1.9-2 2.8-3 .6-.9 1.3-1.9 1.9-2.9.2-.3.6-.4.9-.3 1.3-1.8 2.5-3.9 3.4-6.2zm-14.4 12.4c.3-.4.5-.9.9-1.3-.2.1-.4.3-.6.4v.2c0 .3-.1.5-.3.6v.1zm-18.9-26.9l-.9-2.4c-.1.1-.1.2-.2.3.3.7.7 1.4 1.1 2.1zm-1.9-3.6c.1-.2.2-.3.3-.5-.3-.9-.7-1.9-1-2.8-.2.4-.3.7-.4 1.1.3.8.7 1.5 1.1 2.2zm-1.3-5.2c-.5-1.4-1-2.9-1.5-4.3l-.6 2.4c0 .1.1.2.1.3.4.9.8 1.9 1.3 2.8.1-.3.3-.6.4-.9l.3-.3zm-2.2-5.9c-.1-.3-.2-.6-.4-1-.3.6-.6 1.3-.8 2 .1.3.2.6.3.8.1-.4.2-.9.3-1.3.1-.3.3-.4.6-.5zm-1-2.9c-.1-.5-.3-1-.4-1.4-.2.6-.6 1.3-.9 1.9.1.4.3.9.4 1.3.2-.6.5-1.2.9-1.8zm-1.6-2.7c-.2-1.4-.5-2.8-.8-4.2-.1.4-.2.8-.4 1.2.2 1.4.5 2.7.8 4 .2-.3.3-.6.4-1zM180 84.3c0 .2-.1.5-.1.7h.1c0-.3.1-.5 0-.7.1 0 0 0 0 0zm.5-3.9s.1.1 0 0c.6-.9 1.2-1.8 2-2.6-.2-.1-.3-.2-.4-.4-.7 1-1.2 2-1.6 3zm1 1.4c.1 0 .1 0 0 0 .6-1 1.2-1.8 1.9-2.6V79v-.1c-.7.9-1.4 1.9-1.9 2.9zm10.9-10.4c.2.1.3.2.4.4 1.5-1.7 3.3-2.9 5.1-4.3-1.8 1.3-3.9 2.4-5.5 3.9zm9.1.5c.6 0 1.1.1 1.7.2l-.1-.1c-.6 0-1.1-.1-1.6-.1zm23 44.6s-.1 0 0 0c.1 1.1.2 2.2.4 3.2 0 0 0-.1.1-.1-.2-1-.3-2.1-.5-3.1zm-12.1-40c.7.8 1.3 1.7 1.9 2.6l.1-.1c-.6-.9-1.3-1.8-2-2.5zm5.2 8.6c-.1.1-.2.1-.2.2.5 1.2 1.1 2.4 1.5 3.6-.3-1.1-.7-2.2-1.1-3.3 0-.2-.1-.4-.2-.5zm7 47.7v-.8c0 .4-.1.8-.1 1.2.1-.1.1-.2.1-.4zm-9.4-52.6c-.1 0-.1.1-.2.1l1.2 2.4.6 1.2c.1-.1.2-.1.3-.2-.2-.5-.4-1-.7-1.4h-.1c-.4-.2-.4-.5-.3-.8-.3-.5-.5-.9-.8-1.3zm-24.3-6.9l-.1.1c.2-.1.3-.2.5-.3-.1.1-.3.1-.4.2zm-4.1 2.8c.5-.4 1.1-.7 1.6-1.1.1-.1.2-.2.4-.3v-.3c-.5.3-.9.6-1.4 1-.3.2-.4.4-.6.7zm-6.5 16.1s0-.1 0 0c0-.3-.1-.6-.1-1-.1-.2-.1-.3-.2-.5l.3 1.5zm2.2.5c-.4-2.1-.7-4.1-1.1-6.2.1 2 .5 4.1 1.1 6.2-.1 0 0 0 0 0zm9.2 33c.1 0 .3-.1.4 0-.2-.4-.4-.8-.7-1.3-.2-.3-.4-.7-.5-1 .2.7.5 1.5.8 2.3zm4.6 10.7c.1-.1.1-.2.2-.3.1-.2.3-.3.5-.3-1-2.3-2.1-4.6-3.3-6.9v.1c.9 2.4 1.7 4.9 2.6 7.4zm3.8 7c-.3-.8-.6-1.7-1-2.5-.5-1.3-1-2.5-1.6-3.8-.2.2-.3.5-.5.8.2.5.5.9.7 1.4.5.1.9.5.6 1 .6 1 1.2 2.1 1.8 3.1zm8.7 13.4c2.8-3 5.8-6 8.4-9.2.6-1.1 1.1-2.2 1.7-3.2.2-.4.6-.4.9-.3.3-.4.5-.8.8-1.2.7-1.1 1.3-2.3 1.9-3.5.3-1.9.4-3.9.6-5.8.8-9.1-.6-18.1-1.8-27.1-.6-4.4-1-8.9-2.3-13.2-.8-2.5-1.7-4.9-2.8-7.3-.4.2-.7.3-1.1.4-.9.3-1.3-1.1-.4-1.4.3-.1.6-.2.9-.4-.4-.9-.8-1.7-1.3-2.6-.2-.4-.4-.7-.6-1.1-.1.1-.3.1-.4.2-.9.3-1.3-1.1-.4-1.4-.6-1-1.3-1.9-2.2-2.7-.4.1-.7-.3-.7-.6-.4-.3-.8-.6-1.3-.9-1.8-1-3.8-1.6-5.8-1.9-.5 0-1.1 0-1.6.1-5.9.6-13.4 2.6-17.1 7.7-.1.2-.3.3-.5.3-.5.6-.9 1.1-1.3 1.7.7 3.9 1.3 7.8 2 11.7.6-.4 1.5.6.9 1.2l-.6.6c.5 2.6.9 5.3 1.4 7.9.2.4.5.8.7 1.2.2.4 0 .8-.3 1 .6 2.9 1.2 5.8 2 8.6 1.5 3.2 3.2 6.3 4.7 9.3 2.7 5.1 5.1 10.3 7.2 15.6 1 2.7 2.1 5.4 3.1 8 .1.1.1.2.1.3.2.6.5 1.2.7 1.8.3.4.5.8.8 1.2.6.6 1.2 1.3 1.8 1.9.3.3.3.6.1.9.7.7 1.3 1.4 1.8 2.2zm11.2-8.2c.7-1.5 1.2-3 1.6-4.7-1 1.5-2 2.9-3.1 4.3-1 1.9-1.9 3.9-3 5.7-.5.8-1.8.1-1.3-.7v-.1c-1.5 1.6-3.1 3.3-4.6 4.9.1.1.1.2.2.2.3-.1.7 0 .9.2h.2c0-.1.1-.3.1-.4 0-.2 0-.4.1-.6v-.3c0-.8 1.1-.9 1.4-.4 1.5-.8 2.8-2.2 3.8-3.4 1.4-1.4 2.8-2.9 3.7-4.7zm-.6 4.7c-.3.3-.6.7-.9 1 .3-.2.6-.3.9-.5v-.5zm4.7-14c-.1.3-.2.5-.3.8-.1.9-.3 1.8-.5 2.7 0 0 0-.1.1-.1.2-1.1.5-2.2.7-3.4zM206 157.9c-.2-.2-.4-.4-.6-.5-.9 1.6-1.5 3.4-1.6 5.2.6-1.7 1.2-3.3 2.2-4.7zM219.4 80c.1-.1.3-.1.4-.2.1 0 .1-.1.2-.1.4-.2.8-.4 1.2-.7-.7.2-1.3.5-1.8 1zm11 36.9c.8-.4 1.6.8.7 1.3-2 1-2.9 2.9-3.5 4.9.4-.7.9-1.3 1.4-1.9.7-.7 1.7.4 1 1-1.7 1.8-2.6 4.4-3.3 6.7.5-.9 1-1.7 1.7-2.4s1.7.4 1 1c-1.8 1.9-2.4 4.4-3.4 6.8 0 .1 0 .1-.1.1 0 .5 0 1.1-.1 1.6.6-1 1.1-2 1.8-2.9.5-.8 1.8 0 1.3.7l-.6.9c.6-.5 1.7.2 1.2.9-1.8 2.4-3.3 5-4.9 7.6-.2.6-.3 1.1-.5 1.7l-.9 2.1c2.4-2.4 4.9-4.9 5.6-8.4.2-.9 1.6-.5 1.4.4-.3 1.5-.8 2.7-1.6 3.9.2.1.3.3.2.6-.5 4.2-2.3 8.4-4.8 11.8-.8 1.1-1.8 2.2-2.8 3.2-1.1 1.7-2.3 3.3-3.5 4.9-.3.4-.7.4-1 .2-.3.4-.5.8-.8 1.2-.5.8-1.8.1-1.3-.7.5-.8 1-1.5 1.5-2.2-.3.1-.7 0-.9-.2-.2.3-.3.6-.4 1-.4.9-1.8.5-1.4-.4.5-1.2 1.2-2.4 1.9-3.4-.1-.1-.2-.3-.2-.5v-.3c-.1.1-.2.1-.3.2v.3c-.7 2.6-2.1 5-3.6 7.3-.5.8-1.8 0-1.3-.7.2-.2.3-.5.4-.7-.5-.2-.8-.8-.3-1.2.4-.4.7-.9 1-1.3-.2 0-.4 0-.6-.2-.3-.2-.6-.5-.8-.7-.8 1.3-1.5 2.7-1.9 4.2-.2.9-1.7.5-1.4-.4.5-1.7 1.3-3.3 2.2-4.8l-.3-.3s-.1 0-.1-.1c-.3.3-.8.3-1.1-.2 0-.1-.1-.2-.1-.2-.9 1.5-1.5 3.1-2.1 4.8-.3.8-1.5.6-1.5-.2-.4.3-1.2.1-1.2-.6.1-2.4.9-4.8 2.1-6.8-.5-.6-1-1.3-1.4-1.8-.3 1-.7 2-1 3-.3.9-1.7.5-1.4-.4.5-1.4.9-2.7 1.4-4.1-.2-.4-.4-.7-.7-1.1-1.1 1.4-2 3-2.9 4.6-.5.8-1.8.1-1.3-.7 1.1-1.8 2.1-3.6 3.4-5.2-.4-.7-.7-1.3-1-2-.6 1.3-1.4 2.6-2.3 3.8-.6.8-1.8 0-1.3-.7 1.1-1.5 2-3.2 2.7-4.9l-.6-1.5c-.1-.1-.1-.3-.2-.4-.4-.5-.7-1-1.1-1.5-.3.7-.6 1.4-.6 2.2 0 .9-1.5 1-1.5 0 .1-1.3.5-2.5 1.1-3.6-.1-.2-.3-.4-.4-.7-.6 1.3-1.1 2.6-1.6 3.9-.3.9-1.8.5-1.4-.4.7-1.7 1.3-3.3 2.1-4.9-.5-.8-1-1.6-1.4-2.4-.4.8-.8 1.6-1.1 2.4-.3.9-1.7.5-1.4-.4.4-1.2 1.1-2.4 1.6-3.5-.4-.8-.9-1.5-1.3-2.3-1 1.8-1.8 3.7-2.5 5.6-.3.9-1.7.5-1.4-.4.8-2.4 1.8-4.6 3.1-6.8-.3-.6-.6-1.2-.9-1.7-.3.8-.5 1.6-.8 2.4-.3.9-1.7.5-1.4-.4.4-1.3.8-2.6 1.3-3.9-.4-.9-.9-1.9-1.3-2.8-.3 1.2-.7 2.4-.9 3.6-.2.9-1.6.5-1.4-.4.4-1.8.9-3.5 1.4-5.2-.1-.3-.2-.5-.3-.8-.1.4-.2.7-.2 1.1-.2.9-1.6.5-1.4-.4.2-1 .4-2 .7-3-.3-.7-.5-1.4-.7-2.1-.3.4-.7.7-1.1 1.1-.7.6-1.8-.4-1-1 .6-.5 1.2-1.1 1.6-1.7 0-.1-.1-.2-.1-.3l-.6-2.7c-.5.3-1.3-.1-1.1-.8.1-.2.1-.4.2-.6-.4.7-1.7.3-1.3-.5.5-1.2.9-2.5 1.3-3.8-.1-.6-.1-1.1-.2-1.7-.1-.6-.1-1.2-.2-1.8 0 .2-.1.4-.1.6-.2.9-1.6.5-1.4-.4.3-1.5.6-2.9 1.2-4.2 0-.4-.1-.8-.1-1.1 0-.1-.1-.2-.1-.3-.3.9-.8 1.8-1.4 2.7-.5.8-1.8 0-1.3-.7.9-1.3 1.5-2.7 1.7-4.2-.5-1.2-1.1-2.4-1.7-3.6-.5 1.1-1.2 2.1-1.8 2.8-.7.7-1.7-.3-1-1 1.2-1.3 2.9-4.5 2.2-6.4-.2-.6.3-.9.7-.9 0-.5 0-1 .1-1.5h-.1c-.8 0-.9-1.1-.3-1.4.9-5.7 4.2-11.1 9.4-13.9.5-.3.9.1 1.1.4.7-.4 1.5-.8 2.2-1.1 1.3-1.2 2.5-2.4 3.6-3.7.6-.7 1.7.3 1 1-.1.1-.2.3-.4.4.8-.5 1.6-1 2.4-1.6.7-.5 1.4.6.9 1.1.7-.5 1.3-1 1.9-1.6.7-.7 1.7.4 1 1-1.8 1.8-4.1 3.1-6 4.7.8-.2 1.5-.4 2.3-.6 1.8-1.5 3.6-3 5.7-4.1.8-.4 1.6.8.7 1.3-1.3.7-2.5 1.6-3.7 2.5 1.3-.1 2.7 0 4 .2 1.3-.3 2.6-1.2 3.5-2 .7-.7 1.7.4 1 1-.6.6-1.3 1.1-2.1 1.6.2.1.5.1.7.2.3-.1.6-.1.9.1.1 0 .2-.1.4-.1.1 0 .2-.1.2-.2.5-.4.9-.9 1.2-1.4.5-.8 1.8-.1 1.3.7.5-.1 1-.3 1.5-.5.9-.3 1.3 1.1.4 1.4-1.1.4-2.3.7-3.4 1 .7.4 1.3.8 1.9 1.3.5-.4.9-.8 1.4-1.2.7-.7 1.7.4 1 1-.3.3-.6.5-.9.8.1 0 .3-.1.4-.1 1-1 2.6-1.2 3.9-.6.9.4.1 1.7-.7 1.3-.1 0-.2-.1-.3-.1-.1.1-.2.1-.3.2l-1.7.6c-.1.1-.1.3-.1.5.6.5 1.1 1.1 1.6 1.8.7-.5 1.3-1.1 1.9-1.6.7-.7 1.7.4 1 1s-1.3 1.2-2.1 1.8l.6.9c1-1.8 3.1-2.8 5.1-2.8.4 0 .6.3.7.6.6.1.9 1 .3 1.4-1 .6-1.9 1.2-2.9 1.8-.3.3-.6.5-.9.8.1.2.1.3.1.6-.2.4-.4.9-.6 1.2.6 1.4 1 2.9 1.4 4.4.5-1 1-2 1.4-3.1.3-.9 1.7-.5 1.4.4-.2.6-.4 1.1-.6 1.7.6-.6 1.6.1 1.2.9-1 1.4-1.7 2.9-2.3 4.5v.1c.1.6.2 1.1.3 1.7 0 .1 0 .2.1.3.7-1.7 1.8-3.2 3.2-4.6.7-.7 1.7.4 1 1-1.6 1.6-2.8 3.4-3.4 5.6-.1.3-.2.4-.4.5.1.4.1.7.2 1.1 1.2-1.8 2.2-3.7 3.7-5.3.7-.7 1.7.4 1 1-1.6 1.7-2.7 3.8-4 5.7-.1.2-.3.3-.4.3.1.4.2.9.3 1.3.5-1.4 1-2.9 1.8-4.2.5-.8 1.8-.1 1.3.7-1.1 1.8-1.6 3.8-2.3 5.7-.1.2-.1.3-.3.4 0 .1.1.3.1.4.5-1.1 1.1-2.1 1.8-3.1.5-.8 1.8-.1 1.3.7-1 1.5-1.9 3.1-2.5 4.8v.1l1.2-2.1c.5-.8 1.8-.1 1.3.7-.8 1.2-1.5 2.4-2 3.8.1.2.1.5.2.7.6-1.1 1.4-2.2 2.5-3 .7-.6 1.8.5 1 1-1.6 1.3-2.5 2.9-3 4.7.3 1.5.5 3.1.8 4.6.7-1.5 1.2-3.1 1.5-4.8.2-.9 1.6-.5 1.4.4-.5 2.4-1.4 4.8-2.6 6.9.1.5.1 1 .1 1.5.6-2.1 1.7-3.8 3.6-4.8zm34.9 225.5c0 .4-.1.8-.1 1.2-.1.4-.4.7-.7.7v43c.1 7.1.2 14.3.2 21.4v3.1c1-23.1.7-46.3.6-69.4zM263 525.3v-1.4c0 .9-.1 1.7-.1 2.6.1-.3.1-.7.2-1-.1-.1-.1-.2-.1-.2zm-3.3 12.5c-2.2 3.4-4.2 7-6.5 10.4-3.4 4.9-7.7 9.3-12.4 13.2 5.3-3.9 10.1-8.5 13.9-14 2-3.1 3.7-6.3 5-9.6zM196 582.4c1.2-.4 2.4-.9 3.5-1.3-.5.1-1 .3-1.6.4-4.2 1.5-8.5 2.8-12.8 3.8 3.7-.8 7.3-1.8 10.9-2.9zm-25.1 6.2h-.9c-.5 0-.7-.3-.7-.7-4.6.5-9.3.6-14 .6-3.2.8-6.5 1.5-9.8 2.1 8.5-.1 17-.7 25.4-2zm-52.9 1.3c-1.9-.3-3.9-.6-5.8-1-4.7-.8-9.4-1.7-14-2.4-1.7-.3-3.5-.6-5.2-.8 2.2.6 4.3 1.1 6.5 1.6 6.1 1.3 12.3 2.2 18.5 2.6zm-34.7-6c-.1 0-.2-.1-.3-.1-2.7-.3-5.3-.7-7.9-1.1h-.3-.1c-1.1-.2-2.3-.4-3.4-.6-1.3-.3-2.7-.6-4-.9.2.1.4.2.6.4 5 1.2 10.2 2 15.4 2.3zm-18.5-3.2c0-.1 0-.1.1-.2-3.4-.9-6.7-2-10-3.3 3.2 1.3 6.5 2.5 9.9 3.5zm-36.7-16.9l3.3 2.4c-1.3-1-2.6-2-3.8-3.2-.1.1-.2.2-.3.2.3.2.6.4.8.6zM6.9 532.3v-6.6c-.6-4.2-.8-8.5-.6-12.8 0-.4.3-.6.6-.7v-2.7c-.3-.3-.3-.8 0-1.1v-.1c-.4 0-.7-.3-.7-.7 0-2.1 0-4.3.2-6.4-.6-4.6-.7-9.3-.7-13.9 0-.7.7-.9 1.1-.6-.1-32.9-.4-65.8-.5-98.7-2.4-16.4-2.4-33-1.9-49.5.4-12.3.9-24.6 1.1-36.9-.9-9.2-1.7-18.4-2.2-27.7-1.5 8.1-1.9 16.4-1.8 24.6 0 11 .8 21.9 1.5 32.8 1.2 18.3 1.2 36.6 1.2 54.9 0 9.7 0 19.4.1 29.1.1 8.1.6 16.2.5 24.3-.1 10.3-.9 20.5-1.4 30.7-.6 11.9-1 23.9-.3 35.8.6 8.4 1.5 17.6 3.8 26.2zm2.3-293.4c.1-.3.1-.6.2-.9.3-1.2.7-2.4 1.1-3.6v-.8c-.5 1.8-1 3.6-1.3 5.3zm2.6-9.4c.1.1.2.3.2.5v.3c3-7.6 7-14.8 11.5-21.6 2-3 4.1-6 6.3-9 1.5-2.7 3.1-5.5 4.8-8.1 2.5-3.7 5.2-7.3 8-10.8 2.6-3.3 5.2-6.5 7.8-9.8-3 3.3-6 6.7-8.8 10.3-10.3 13.2-18.6 27.8-27.4 42-1 2.1-1.7 4.1-2.4 6.2zM96.7 36.6v-.5c0-.2 0-.3.1-.4-1.3-.9-2.6-2-4.1-2.7v.1c.7 1.9 2.2 3 4 3.5zm-3.1-5.1c3.8-.1 7.6-.5 11.4-.9l-12.4-.3c.2.5.6.9 1 1.2zm.9-2.5l14.7.3c-2.1-.2-4.1-.5-6.2-.6-2.5-.2-5.9-.6-8.5.3zm2.6-9.5c.2 0 .5.1.6.3.7 0 1.5 0 2.2.1-.1 0-.2-.1-.3-.1-1.1-.4-2.2-.9-3.1-1.6-.3-.1-.6-.1-.9-.2.4.6.9 1.1 1.5 1.5zm-1.4-4.2c.2.3.5.6.8.9h.4c1 0 2.2-.4 3.2-.6l6-.9c4.5-.5 9.1-.9 13.6-1.1 7.4-.3 14.8-.6 22.2-.5 5.6.1 11.3.3 16.9-.1 2.7-.2 5.5-.4 8.1-1.1 1.2-.3 2.4-.7 3.5-1.3h-.2c-1.7.2-3.4.3-5.1.4-3.4.2-6.8.2-10.2.1-3.7-.1-7.3-.3-11-.4-.3.4-1.1.5-1.3 0-3-.1-5.9-.1-8.9-.1-7.1.2-14.1.7-21.2.7-3.1 0-6.1-.2-9.1-.4-.8-.1-1.7-.1-2.5-.2h-.3c-1.9-.1-3.9 0-5.8.5 0 .3-.1.6-.1.8 0 1.3.3 2.4 1 3.3zm-.8-5.5c.5-.1 1-.2 1.4-.3-.2-.1-.3-.3-.3-.6 0-1.2.2-2.3.3-3.5h-.1c-.3.1-.6.2-.9.5-.1 1.3-.2 2.6-.4 3.9zm2.5-.4c.8-.1 1.7-.1 2.5-.1 0-1.5 0-3.1-.2-4.6h-.1c-.6.2-1.2.3-1.7.4.1.3.2.6.3 1 0 .4-.2.6-.4.7-.1.8-.2 1.5-.2 2.3-.1.1-.1.2-.2.3zm3.7-4.8c.2 1.6.2 3.2.3 4.8.9 0 1.8.1 2.7.2v-.2c0-1.2-.1-2.5-.1-3.7 0-.4-.1-1 .2-1.3-1.1-.1-2.1 0-3.1.2zm4.1-.4c.1.1.2.3.3.5.1.2 0 .4-.1.6V7c0 .8.1 1.5.1 2.3 0 .1 0 .3-.1.4 2.1.2 4.3.4 6.4.4h.2c0-2.1 0-4.1-.3-6.2h-.9c-.6 0-1.2 0-1.7.1v4.7c0 1-1.5 1-1.5 0V4c-.8.1-1.6.1-2.4.2zm8-.4c.3 2.1.3 4.1.3 6.2 1.4 0 2.7-.1 4.1-.1-.1-.1-.2-.2-.2-.4-.2-1.1-.3-2.3-.2-3.4 0-.7 0-1.6.2-2.4-1.5 0-2.8 0-4.2.1zm5.2 6.1c1.1 0 2.3-.1 3.4-.1-.1-.1-.1-.3-.1-.4V3.6h-2.9v.2c-.3.6-.2 1.5-.2 2.2 0 1 0 2 .2 3 0 .4-.1.7-.4.9zm4.7-.2c1.3-.1 2.6-.1 4-.2-.5-1.6-.6-3.3-.9-5-.1-.5.3-.8.6-.9h-3.6v5.7c0 .1 0 .3-.1.4zm9-.4V3.7v-.1h-4.9c.2.1.4.2.4.5.3 1.7.4 3.4.9 5v.3c1.2 0 2.4-.1 3.6-.1zm1.4-5.6v5.6h4.5c-.6-1.8-.6-3.7-.6-5.6h-3.8c-.1-.1-.1-.1-.1 0zm8.3 0H138.9c0 1.9.1 3.8.7 5.6.9 0 1.8 0 2.6.1-.2-1.9-.2-3.8-.4-5.7zm-15.6-1.6c8.4 0 16.9.2 25.3.3-2.6-.3-5.2-.5-7.8-.7-5.8-.2-11.6 0-17.5.4zm25.9 1.8c-1.1 0-2.3 0-3.4-.1.2 1.6.2 3.3.2 4.9 0 1-1.5 1-1.5 0 0-1.6 0-3.3-.2-4.9-1.3 0-2.6 0-3.9-.1.2 1.9.1 3.8.4 5.7 3.1.1 6.1.2 9.2.3-.2-.1-.4-.2-.4-.5-.3-1.8-.4-3.5-.4-5.3zm1.1 5.8h1c2.7.1 5.3.1 8 0-1-1.8-.9-3.8-.9-5.8h-2.9v5c0 1-1.5 1-1.5 0V4c-1.1 0-2.2 0-3.2-.1 0 1.6 0 3.3.3 4.9 0 .5-.4.9-.8.9zm10.3-.5c.1.2.1.4.1.5h.8c.6 0 1.1-.1 1.6-.1 0-.1-.1-.2-.1-.3 0-1.7 0-3.5-.2-5.2h-3c0 1.7-.1 3.5.8 5.1zm3.8-5.1c.2 1.7.2 3.4.2 5.2v.2c.7-.1 1.4-.1 2.1-.2h.1v-.1c-.3-1.7-.3-3.4-.3-5.1h-2.1zm3.4 0c0 1.6 0 3.1.3 4.7v.4c.4 0 .8-.1 1.3-.2-.2-1.6-.6-3.1-1-4.6-.1-.1-.2-.2-.2-.3h-.4zm.9 7.5c-3.8 2.7-9.5 2.9-14 3.1-5.5.3-11.1.1-16.6 0-7.7-.1-15.4.2-23 .6-4.6.2-9.3.6-13.9 1.2-1.5.2-3.1.5-4.6.7 5.1.8 10.2 1 15.4.8 6.1-.2 12.2-1 18.3-1.4 12.7-.8 25.3.4 38 .5.7-.7 1.2-1.6 1.5-2.7 0-.1.1-.3.1-.4 0-.8 0-1.5-.1-2.1 0-.3-.1-.7-.1-1-.4.2-.7.5-1 .7zM98 21.3c.1.7.1 1.4 0 2.1.1 0 .2-.1.3-.1h.3c-.3-.5-.1-1.2.5-1.1 4.5.6 9.1.3 13.6-.3.2 0 .4 0 .5.2 1.2-.1 2.3 0 3.5.2.2 0 .4.1.4.3h2.5c.7-.2 1.4-.4 2.2-.5-7.9-.3-15.8-.6-23.8-.8zm70.7-2.7c-12.3-.2-24.5-1.3-36.8-.4-9.4.7-18.7 1.9-28 1.1 2.9.5 5.9.6 8.8.7 4.5.2 9 .2 13.4.2 6.5-.1 13-.4 19.5-.7 6.9-.5 13.8-.9 20.7-.5.9 0 1.6-.2 2.4-.4zm-15.5 2.6c2.8.1 5.6.1 8.4.1 2-.2 4-.3 6.1-.4.3 0 .5.1.6.3h.6c.1-.2.3-.3.6-.3h.2v-.2l-3-.3c-1.7.1-3.4 0-5-.1-4.3-.2-8.7.2-13 .4-.7 0-1.5.1-2.2.1-3.8.3-7.6.6-11.4.7 1.7.1 3.3.3 4.9.3.6 0 1.1.1 1.7.1-.1-.6.7-1.2 1.3-.7.3.3.6.5.9.7 2.3 0 4.6 0 6.8.1.6 0 1.3-.1 1.9-.1-.2-.2 0-.7.6-.7zM98.1 26c1.1-.1 2.2-.2 3.4-.2 3.9-.2 7.7-.4 11.6-.5 9.5-.3 19.1.1 28.6.4 4.8.1 9.6.3 14.4.3 3 0 5.9 0 8.8-.3 1.1-.1 2.7-.4 4.4-.5v-.4c.1-.5.2-.9.3-1.4h-.1c-.3 0-.6-.3-.7-.6h-3.6c0 .4-.2.8-.7.8-2.7.2-5.3.3-8 .2-1.4.2-2.8.5-4.2.6-2.9.3-6.2.5-8.8-.8-1 0-2.1 0-3.1-.1-5.1-.3-10.4-1-15.6-.5.1.4-.2.9-.7.9h-4c-.3.1-.5.2-.8.3-.3.1-.6 0-.8-.3h-.8c.1.4-.2.9-.7.9H99.5c-.1 0-.2 0-.3-.1-.3 0-.6.1-.8.1-.2 0-.3 0-.4-.1 0 .1 0 .3-.1.4l.1.1c.1.3.1.6.1.8zm72.8.7c-2.3-.2-4.6.2-6.8.5-3.2.4-6.5.3-9.8.2-9.6-.1-19.3-.5-28.9-.8-7.6-.2-15.2.2-22.8.6 3.5.2 7 .8 10.5.8.8 0 .9.9.5 1.3 6.6.1 13.3.2 19.9.2 5.1 0 10.3-.5 15.4-.9 7.1-1.5 14.5.1 21.5-1.5.9-.2 1.3 1.2.4 1.4.2 0 .4 0 .5.1.9.1.5 1.6-.4 1.4-7.1-1-14.2-.6-21.4-.1-.1 0-.2 0-.3.1h-.4c-5.6.4-11.1.9-16.6.9-5.2 0-10.4-.1-15.6-.1.2.4 0 1.1-.6 1-6.9-.5-13.8.7-20.6 1.1.5.3 1 .7 1.4 1 .1-.2.3-.3.6-.3 6.4.6 12.8 0 19.2 0 1 0 1 1.5 0 1.5h-2.2c.1.4-.2.9-.7.9-4.2 0-8.3 0-12.5.3.9.3 1.9.6 2.8.8.3.1.6.1.8.2 2 0 4.1 0 6.1.1 8 .4 16 1.1 24 1.4 3.7 0 7.5-.1 11.2-.2 4.4-.2 8.8-.2 13.2-.6 2.8-.2 5.7-.7 8.3-1.7.4-.2.9-.3 1.3-.6-5.1 0-10.3.3-15.4.6-.4 0-.6-.2-.7-.6h-5.5c-1 0-1-1.5 0-1.5 4.4 0 8.9.2 13.3-.2 2.3-.2 4.5-.6 6.7-1.2 1.9-.5 3.8-.9 5.8-.8.3-.5.5-1 .6-1.5.1-.5.2-1 .2-1.4-.4-.7-.8-1.4-1.5-2-.1-.1-.1-.2-.2-.3-.3 0-.8-.1-1.3-.1zm-.8 8.3c.7-.4 1.3-.9 1.9-1.4-1.3 0-2.6.3-3.9.6h1.3c.5 0 .7.4.7.8zm-4.1 3.3c-1 .3-1.9.5-2.9.7h.8c3.2-.2 7.8-.3 9.7-3.4.5-.9.9-1.8 1-2.7-1.8 2.7-5.5 4.6-8.6 5.4zm10.7 7.3c.4.8 1 1.7 1.7 2.4 2.8 2.8 6.9 3 10.6 3.2-1.5-.4-2.9-.8-4.4-1.4-.1 0-.2-.1-.4-.1-2.9-.6-5.5-1.9-7.5-4.1zm-5.7 4.1c.3 1.1.6 2.2 1.1 3.2.1.2.2.3.2.5.3.5.6.9 1 1.4l.3-.3c-.8-1.5-1.7-2.9-2.5-4.4 0-.2 0-.3-.1-.4zm3.9-4.4c.1.7.2 1.4.3 2 .5 1.2 1.8 2 3.1 2.5-1.2-.9-2.3-2.1-3-3.6-.2-.2-.3-.6-.4-.9zm-26.4-2.2c-.3-.4-.6-.8-.8-1.3-.1.9.2 1.7.8 2.5.1-.4 0-.8 0-1.2zm-13.2-2.8h-.6c0 .1 0 .2-.1.4-.2.4-.4.8-.5 1.1.2.2.4.6.2.9-.1.3-.2.6-.3 1 .2.9.6 1.8 1.2 2.7 0 .1.1.1.1.2 0-1.3 0-2.6.3-3.9 0-.1.1-.2.2-.3-.1-.4-.3-.8-.6-1-.3-.4-.2-.9.1-1.1zm-20.8 2.5c.1.8.5 1.6 1 2.2v-2.3c-.3-.1-.6 0-.8.1h-.2zm-11.3-3.4c.1-.3.3-.5.6-.5h.2c.1 0 .2.1.3.1.1-.1.1-.2.2-.3h-2.1c.7 1.4 1.3 2.9 1.9 4.3 0-.1 0-.1.1-.2.4-.9-.1-2-.9-2.5-.1 0-.1-.1-.1-.1-.3-.2-.3-.5-.2-.8zm1.7 4.8v-.3c-.1 0-.1-.1-.2-.1.1.2.2.3.2.4zm-11 29.6c0 .2-.1.4-.1.6h.2c-.1-.2-.1-.4-.1-.6zm3.5-24.5c.2-1.1.4-2.2.5-3.3-.1.8-.2 1.6-.3 2.3-.1.3-.2.6-.2 1zm.9-9.7c.1 0 .1.1.2.1l.1.1c0-.4-.1-.8-.1-1.1v-.2h-.2v1.1zm.8-2.5c-.3-.1-.7-.3-1-.5v.4h.3c.3 0 .5 0 .7.1zm1.3 2.5v-.5c0-.2.1-.3.2-.4-.3 0-.5 0-.8-.1 0 .3.1.7.1 1 .3 0 .4-.1.5 0zm-20.1 88.5c-.5 1.4-1.1 2.7-1.7 4.1v.2c.6-1 1.2-2 1.7-3v-1.3zm5.2-15.7c.4-1.3.6-2.6.8-3.9-.2 0-.3-.1-.4-.2-.2 1.1-.5 2.2-.7 3.4.1.2.2.5.3.7zm-3.9 12.2c.3.1.6.4.5.9-.1.3-.1.7-.2 1 1.3-2.4 2.4-4.9 3.4-7.5-.1-1.6-.3-3.1-.7-4.6-.8 3.4-1.8 6.8-3 10.2zm-22.2 39c-.2.6-.4 1.1-.6 1.7.2.1.4.3.4.6v1.2l1.5-5.3c-.4.6-.9 1.2-1.3 1.8zm-9.3 410c1.6.8 3.3 1.5 4.9 2.1 1.3.4 2.6.7 3.9 1-2.9-.9-5.9-2-8.8-3.1zM27.7 561l.6.6c4.7 4.4 10.4 7.9 16.2 10.9.3.1.5.2.8.3-4.1-2.2-8-4.8-11.7-7.6h-.1c-2-1.4-4-2.7-5.8-4.2zm-1.2-3.6c.5.4 1 .8 1.4 1.3 1.4.2 2.8.4 4.2.7-1.9-.6-3.8-1.2-5.6-2zm6 .5c-2.3-.9-4.5-1.9-6.9-2.6l2.7 1.2c1.5.5 2.8 1 4.2 1.4zM7.8 535.4c.5 1.5 1 3 1.6 4.4-.2-.8-.4-1.5-.6-2.3-.2-.9-.3-1.8-.5-2.6 0 .3-.2.5-.5.5zM6.4 373.9c0-16.5.3-33.1.4-49.6 0-1.1 0-2.2-.1-3.3-.2 4.1-.3 8.2-.5 12.3-.5 13.5-.8 27.1.2 40.6zm3.4 56.7v-.9c.4-19.3-.3-38.7-.6-58 0-2.6-.1-5.2-.1-7.7 0 16.9-.8 33.8-.2 50.7.2 4.7.4 9.5.8 14.2 0 .5 0 1.1.1 1.7zm-.5 15.2c0-1 0-1.9-.1-2.9-.1-3.8-.5-7.5-.8-11.2v32.7h.2c.2-6.2.5-12.4.7-18.6zm-.2 74.8l-.6-3.9v2.1c0 .6 0 1.2.1 1.8h.5zm4 23.7c-.5-.9-1-1.9-1.5-2.9-.1-.1-.1-.2-.2-.3.3.9.7 1.9 1.2 2.8.3.5.5 1.1.8 1.6.3.2.5.5.8.7-.3-.6-.7-1.2-1.1-1.9zm-.1-8.7c-.5-.1-1.1-.1-1.6-.1.6 1 1.2 2 1.7 3 3.9 1 8.1 1.6 12.1.9-4.2.2-8.2-1.2-12-2.8-.4-.2-.4-.7-.2-1zm-2-12.4h10.5c-3.4-1.3-7-1.2-10.6-.9.1.4.1.7.1.9zm-1.5 4.3c.1-.2.3-.3.6-.3h.1c-.3-1.6-.5-3.1-.8-4.7-.3 0-.4-.2-.5-.5h-.2-.1c.1 2.5.3 4.9.5 7.4 0 .2 0 .5.1.7l.3 1.2c1.4-.5 2.8-.9 4.2-1.1-.7-.2-1.5-.4-2.2-.7-.4.2-1 .2-1-.4l-.6-.3c-.2 0-.3-.1-.4-.3-.3-.3-.2-.7 0-1zM16.8 223c-.7 1.4-1.3 2.8-1.9 4.2.2.1.4.2.5.4 0-.2.1-.3.1-.5.3-1.1.7-2.1 1.1-3.2.1-.3.1-.6.2-.9zm.9-1.7h.1c.3-.7.7-1.5 1.1-2.2v-.1c-.5.8-.9 1.5-1.2 2.3zm-9.8 39.6c.3.1.5.3.5.7v1.5c.6-2.9 1.4-5.8 2-8.5 1-4.5 1.3-9 2-13.6.4-2.6.9-5.2 1.4-7.7-.2-.9-.3-2-.3-3-.1.1-.1.3-.2.4-.5 1.3-1 2.7-1.4 4.1v2c0 .5-.4.7-.8.7-2.1 7.6-3.1 15.4-3.2 23.4zm17.3 299.5c-1.8-1.9-3.4-4-4.9-6.2-.7-.7-1.3-1.4-1.9-2.2-.9-.8-1.7-1.6-2.6-2.4 1.9 3.1 4.1 6.1 6.6 8.8.8.7 1.8 1.4 2.8 2zM135.7 587c4.7-.2 9.4-.6 14.1-1.1 0 0 0-.1-.1-.1-7.1 0-14.1-.1-21.2-.2-1.7 0-3.4-.1-5.1-.2-1.1.2-2.2.3-3.3.4 5.2.5 10.4 1 15.6 1.2zm-19.6-1.7c-.1-.1-.1-.3-.1-.5-2.7-.2-5.4-.4-8.2-.7-2.5-.2-4.9-.5-7.4-.6.4.1.8.1 1.2.2 4.9.7 9.7 1.2 14.5 1.6zm-43.9-5c1 .3 1.9.6 2.8.9 1.7.3 3.5.5 5.3.8-2.7-.6-5.4-1.1-8.1-1.7zm18 1.9c2.6-.2 5.2-.3 7.9-.2-11.4-2.1-22.6-5.1-34.3-5.5 1.8.5 3.7 1 5.5 1.5 7 1.7 13.9 3.1 20.9 4.2zm59.7 6c-2.6.1-5.1.3-7.6.5-7.3.5-14.7.6-22 0-.7-.1-1.5-.1-2.2-.2 5.3.8 10.6 1.5 16 1.8 2.1-.1 4.2-.2 6.2-.5 3.2-.4 6.4-1 9.6-1.6zm33.4-4c1.6-.3 3.1-.7 4.6-1.1-1.5.1-3.1.3-4.6.4.2.2.2.5 0 .7zm-2.5.5c-2.3.3-4.5.5-6.8.7-.4.1-.7.2-1.1.3-.1.1-.2.1-.4.1h-.1c-1.3.3-2.5.5-3.8.7 4.1-.4 8.2-1 12.2-1.8zm27-530.3c-.1 0-.3 0-.4-.1 4.3 1.8 8.4 4.2 11.8 7.4 2.1 2 3.9 4.2 5.6 6.5 1.3 1.7 2.5 3.5 3.5 5.5l2.1 3.9c.2.4 0 .8-.3 1 .1.5.2.9.3 1.4.2.9-1.2 1.3-1.4.4-.4-2-1.1-4-2-5.8-1.1-1.9-2.3-3.9-3.6-5.7-.7-.9-1.5-1.7-2.3-2.4-2.1-2-4.5-3.8-7.2-4.8-2.9-1.1-5.8-1.5-8.9-1.7-6.3-.3-12.6-.2-18.9-.2-1.4 0-2.8 0-4.2-.2v.3c.1 0 .2.1.3.1.8.5.1 1.7-.7 1.3-.6-.3-1.3-.7-1.9-1-1.6-.3-3.1-.8-4.4-1.6.2.2.3.5.5.7.6.8-.7 1.5-1.3.7-.8-1.1-1.7-2.3-2.4-3.5-.4.1-.8 0-.9-.5l-.6-2.7c0-.1 0-.1-.1-.2-.4-1.1-.7-2.2-.9-3.3 0-.1-.1-.3-.1-.4-.2-.8-.4-1.5-.5-2.3-.2-1.1-.3-2.2-.3-3.4 0-.6.2-1.8 0-2.3-.5-.8.8-1.5 1.2-.8h.4c.1-.2.2-.5.3-.7 0-.1.1-.2.2-.3.1-.2.3-.3.5-.3.3 0 .5.1.7.4 0 0 0 .1.1.1.6 1.4.6 2.9.6 4.4v.4c.9.3.5 1.7-.4 1.4-.4-.1-.7-.2-.9-.4 1 3.4 3.1 6.3 4.7 9.5 1.5 1.1 3.2 2.1 5.1 2.4 2.9.6 6 .3 9 .3 3.3 0 6.5 0 9.8.1 3 .1 6 .1 9 .5 2.6.4 5.1 1.2 7.3 2.3-.2-.2-.4-.3-.6-.5-4.7-3.5-10.2-5.9-15.9-7.2-1.9-.2-3.8-.3-5.8-.4-1-.1-2-.1-3-.1-3.7 0-7.5-.1-11.1-1-.8-.2-1.7-.5-2.5-.9-.6-.5-1.2-.9-1.7-1.4h-.1l-.3-.3-.1-.1-.3-.3-.2-.2-.3-.3c0-.1-.1-.1-.1-.2l-.3-.3-.1-.1c0-.1-.1-.1-.1-.2-.2-.6-.3-1.2-.2-2 0-.1 0-.2.1-.2-.3-2.4-.5-4.9-.3-7.3-2.5 1.8-5.8 2.1-8.8 2.3-.5 0-.9.1-1.4.1.4.7.8 1.5 1.3 2.1.4-.2 1.1 0 1.1.6v.5c.5.5 1.2.9 1.8 1.1.9.3.5 1.7-.4 1.4-.6-.2-1.1-.5-1.6-.8-.1.5-.1 1.1-.1 1.6 0 .9-1.5.9-1.5 0s.1-1.8.2-2.7l-.6-.6c0 .5-.1 1-.3 1.5 0 .1-.1.2-.2.3 0 .6.1 1.1.2 1.7.1.9-1.3 1.3-1.4.4-.3-1.9-.3-3.7 0-5.6-.1-.2-.2-.4-.4-.6-.3-.3-.2-.6-.1-.9h-.4c-.3.4-.6.9-.7 1.4.1.1.1.2.1.4v4.1c0 .9-1.5.9-1.5 0v-2c-.3-1.4-.2-2.8.3-3.9-1.8 0-3.6 0-5.5-.1.1.1.1.2.1.4V44c0 1-1.5 1-1.5 0v-3.5c0-.2 0-.3.1-.4h-2.5v.2c.1.7.2 1.4.2 2.1.3.4.7.9 1.1 1.3.6.7-.3 1.7-1 1.1v1.8c0 1-1.5 1-1.5 0v-1.2c-.3.2-.7.3-1 0-1.4-1.5-1.8-3.3-1-5.1h-1.9v7c0 1-1.5 1-1.5 0v-6.8-.2h-2.7c1 1.6 1.9 3.2 2.4 5 .2.9-1.2 1.3-1.4.4-.2-.8-.5-1.6-.9-2.4v.4c0 .2-.1.4-.2.5-.1 1.1-.2 2.2-.4 3.2-.2.9-1.6.5-1.4-.4.3-1.4.3-2.8.6-4.3 0-.9-.1-1.8-.4-2.6h-2.5c1.1 1.3 1.4 3.6 1.4 5.2 0 .5-.5.8-.9.7v.5c0 .9-1.3.9-1.5.2-.1.5-1 .8-1.4.2 0-.1-.1-.1-.1-.2v.1c0 .9-1.5.9-1.5 0 0-1.1 0-2.2.2-3.3-.2-1.2 0-2.3.6-3.5h-3.8c-.8 0-1.5 0-2.3-.1v.1c0 1.9 0 3.8.6 5.7.3.9-1.1 1.3-1.4.4-.1-.4-.2-.9-.3-1.3v1.7c0 .9-1.3.9-1.5.1v1.7c0 .9-1.5.9-1.5 0v-2.9c-.1.6-1 1-1.3.3-.7-1.6-.7-3.4-.7-5.1 0-1 1.5-.9 1.5 0 0 1.4-.1 3 .5 4.3v.2c0-1-.1-2-.2-3-.1-.7.7-.9 1.2-.5v-1.5-.2c-2.9-.1-5.7-.3-8.6-.4h-.9c.3.1.4.4.3.8-.1.2-.1.3-.1.5.1.1.1.2.1.3.8-.2 1.7-.1 2.2.5.5.6.7 1.3.7 2.1 0 .4-.3.6-.6.7v5.8c0 1-1.5 1-1.5 0V46c-.3.2-.7.3-1 0l-.2-.2v2.9c0 1-1.5 1-1.5 0 0-2 0-4 .2-5.9-.2-.9-.1-1.9.2-2.8.1-.2.2-.3.3-.4-.6 0-1.2 0-1.8-.1.4.2.7.6.4 1.1-1 2.3-.5 5.4-.5 7.9 0 1-1.5.9-1.5 0v-1.7c-.3-.1-.5-.3-.5-.7v-5.3c0-.7.7-.9 1.1-.6 0-.1.1-.2.1-.4.1-.2.2-.3.3-.3-1.9-.1-3.8-.3-5.7-.6.4 0 .8.2.8.7.3-.2.8-.2 1 .1.4-.7 1.6 0 1.2.8-.7 1.5-.5 3.4-.5 4.9 0 .6-.6.8-1 .7-.1.8-.1 1.5-.1 2.3 0 .9-1.5 1-1.5 0 0-.6 0-1.1.1-1.7-.3 0-.7-.3-.7-.7v-.6c-.3.3-.8.3-1.1-.2-.7-1.5-1.4-3-2-4.5-.2 2.3-.1 4.6.7 6.9.3.9-1.1 1.3-1.4.4-.2-.5-.3-.9-.4-1.4-.1.1-.1.2-.2.2v3.3c0 1-1.5 1-1.5 0v-1.9c-.3 2-.7 4-1.1 6-1 4.8-2.3 9.6-3.2 14.4 0 .3-.1.6-.1.8.3.1.6.3.6.7 0 3.5.6 7 1.2 10.4.1.6-.5 1-1 .9.1.9.2 1.8.4 2.6.2.9-1.2 1.3-1.4.4-.5-2.7-.6-5.4-1-8-.6 3.4-1.3 6.8-2.1 10.2.2.2.4.4.3.8-.5 3.3 0 6.6 1.2 9.6.3.9-1.1 1.3-1.4.4-.2-.4-.3-.9-.5-1.3v1.1c0 2 0 4.1-.5 6.1-.2.9-1.6.5-1.4-.4.4-1.7.4-3.6.4-5.4 0-1.1.1-2.5-.1-3.7v1c-.1 2.4-.8 4.8-1.4 7.1.5 3.6 0 7.2-1 10.8-.1.5-.6.6-1 .5l.6 2.4c1.2-3.5 2-7.1 2.5-10.7.1-.9 1.6-.9 1.5 0-.6 4.8-1.9 9.5-3.6 14 .1 1.2.1 2.5.1 3.7 0 1-1.5 1-1.5 0v-.4c-1.1 2.5-2.3 4.9-3.6 7.2l.3 1.8c.2.9-1.2 1.3-1.4.4v-.2c-.7 1.2-1.4 2.3-2.1 3.4v3.6c0 1-1.5 1-1.5 0v-1.3c-.3.4-.6.9-.9 1.3v6.4c0 1-1.5 1-1.5 0V141c-.7 1-1.4 2-2.1 2.9v7.2c0 1-1.5 1-1.5 0v-5c-.6.9-1.1 1.9-1.7 2.8.2 1.9.3 3.8.3 5.7 0 1-1.5 1-1.5 0 0-1.2 0-2.5-.1-3.7-.5.7-.9 1.4-1.4 2.1v1.6c.5-.4 1.4 0 1.2.8-.4 1.3-.6 2.6-.6 3.9 0 .4-.3.6-.6.7v1.1c0 .9-1.4.9-1.5 0-.2 1.2-.3 2.3-.3 3.5 0 1-1.5 1-1.5 0 0-1.7.1-3.3.6-4.9.2-.6.8-.6 1.2-.4v-4.2c-.1.1-.1.2-.2.2-.6.9-1.3 1.9-2 2.8l-2.9 10.1c-.2.6-.8.6-1.2.4v3.6c0 1-1.5 1-1.5 0v-1.8c-.4.3-1.2.1-1.2-.6 0-1.1.1-2.1.4-3.2-.2.3-.4.6-.7.9v.1c-.6 3-.6 6.2-.6 9.2 0 1-1.5 1-1.5 0 0-2.4 0-4.7.2-7.1-1.4 1.7-2.7 3.5-4.1 5.2v3.6c0 1-1.5 1-1.5 0v-1.8l-1.2 1.5c-.3 1.9-.5 3.9-.9 5.8-.2.9-1.6.5-1.4-.4.1-.3.1-.7.2-1-.8 2.4-1 5.1-.6 7.5.2.9-1.3 1.3-1.4.4-.4-2.4-.3-5.1.3-7.5-.6.8-1.2 1.6-1.9 2.4v7.3c0 1-1.5 1-1.5 0v-5.4c-.4.5-.8 1-1.1 1.5-.6 1.9-.3 4.4-.3 6.3 0 1-1.5 1-1.5 0 0-1.2-.1-2.6 0-3.9-.5.6-.9 1.2-1.4 1.8 0 .1-.1.1-.1.2-.2 2.2-.5 4.4-.5 6.6 0 .7-.7.9-1.1.6v3.5c0 .9-1.5 1-1.5 0 0-2.3 0-4.6.3-6.8-.6.8-1.2 1.6-1.8 2.5 0 .1.1.2 0 .4-.5 2.9-.6 5.8-.6 8.7 0 1-1.5 1-1.5 0 0-2 0-4 .2-6-.7 1.2-1.3 2.4-2 3.6.2.1.3.3.3.6v6.5c0 1-1.5 1-1.5 0v-5c-.8 1.5-1.7 3-2.6 4.5 0 2.5.2 4.9.5 7.4.2.9-1.3 1.3-1.4.4-.3-1.8-.4-3.6-.5-5.4-.7 1.2-1.4 2.4-2 3.7.2 1.8.7 3.6 1.5 5.3.4.9-.9 1.6-1.3.7-.6-1.2-1-2.5-1.3-3.8l-1.2 2.7c-.1 1.5 0 3.1.3 4.6.2.9-1.2 1.3-1.4.4-.1-.4-.2-.8-.2-1.3-.5 1.4-.9 2.9-1.2 4.3-.1.3-.1.6-.2.8 0 .1.1.3.1.4.1.4-.1.7-.4.8-1.5 7.2-2 14.6-3.6 21.8-1.7 7.5-4.3 15.8-1.9 23.4.2.7-.7 1.1-1.2.8v35.7c1.2 14.2 1.7 28.4 2.1 42.6.6 7 1.4 13.9 1.7 20.9 0 .8-.9.9-1.3.5.3 14.2.7 28.4.6 42.6.9 0 .9 1.5 0 1.5 0 2-.1 4-.1 6-.1 5.2-.3 10.3-.5 15.5.1 8-.4 16-.9 24-.2 6.1-.3 12.3-.3 18.4v.2c1.1 0 2.2-.2 3.2-.8.3-.2.6-.1.8 0 .3-.1.6-.1.9-.1 1 0 1 1.5 0 1.5-.6 0-1.1.4-1.8.4h-.3c-1.2.4-2.4.5-3.7.5v.9c.1-.1.3-.2.4-.2.9 0 1.7-.4 2.7-.4 1 0 .9 1.4 0 1.5-.9 0-1.7.4-2.7.4-.2 0-.4-.1-.5-.2 0 1.7-.1 3.3-.1 5 .5-.2 1-.4 1.6-.4-.5-.2-.6-1.2.1-1.4 1.2-.4 2.5-.5 3.7-.5 1 0 1 1.5 0 1.5s-2 .1-3 .3h1.7c1 0 1 1.5 0 1.5-1.2 0-2.9-.2-3.9.7-.1.1-.1.1-.2.1v2.5c2-.5 4-.8 6.1-1.2.9-.2 1.3 1.2.4 1.4-2.1.4-4.3.8-6.4 1.3v1.1c2.6-.4 5.2-.8 7.6-2 .9-.4 1.6.9.7 1.3-2.6 1.2-5.4 1.8-8.2 2.2 0 .7.1 1.4.2 2.1 3-1.5 6.5-1.3 9.9-1.2 1 0 1 1.5 0 1.5-2.8 0-5.8-.3-8.4.7h9.8c1 0 1 1.5 0 1.5h-11c.3 3 .7 6 1.1 9 .1-.2.3-.3.6-.3 3.6 0 7.2-.3 10.8-.9-3.3-.8-6.8-1.1-10.1-.3-.9.2-1.3-1.2-.4-1.4 3.8-.9 7.7-.5 11.5.4.5.1.6.7.4 1.1.3-.1.6-.1 1-.2.9-.2 1.3 1.2.4 1.4-4.4.9-8.9 1.3-13.5 1.4-.2 0-.3-.1-.5-.2 0 .2.1.5.1.7l12.3-1.2c.9-.1.9 1.4 0 1.5-1.2.1-2.4.2-3.5.3 1 .2 1.9.5 2.8.9.6.2.6 1 .3 1.3h1.7c1 0 1 1.5 0 1.5H11.3c.1.8.3 1.6.4 2.5 5.5-.1 10.9 1.2 16.3.1.9-.2 1.3 1.2.4 1.4-4.9 1-9.7.2-14.5 0 1.4.4 2.8.7 4.3.9 2-.1 4.1-.2 6.1-.2 1 0 1 1.5 0 1.5.6.4.2 1.5-.6 1.3-1.8-.5-3.6-.8-5.5-1.2-2.8.2-5.5.6-8.2 1.6 0 .2.1.3.1.5.1.2.3.5.4.7 4.5.2 8.8 1.3 13.3 1.7.9.1.9 1.6 0 1.5-2.8-.3-5.6-.8-8.4-1.2 3.4 1.3 6.9 2.3 10.6 1.9.6-.1.8.5.7.9.2-.1.4 0 .6.1.1 0 .2-.1.3-.1.9-.3 1.3 1.1.4 1.4l-2.1.6c-3.4 1.4-7.2 1.6-10.9 1.1v.1c4.2 2.3 9.2 2.9 13.9 2.1.9-.1 1.3 1.3.4 1.4-4.4.7-9 .3-13.1-1.4.1.2.2.3.3.5.1.3.3.5.4.8.2-.5 1.2-.6 1.4.1 1 2.5 4 3.5 6.5 3.9 2.4.4 4.9.4 7.4.5 1 0 1 1.5 0 1.5-3.6 0-8.7.1-12.2-1.9v.1c4.2 2.1 9.1 2.8 13.7 2.1.9-.1 1.3 1.3.4 1.4-4.8.7-9.7.1-14.1-1.9.1.2.3.5.4.7.8.8 1.6 1.5 2.6 2.1.1-.3.4-.6.9-.5 6.2 1.3 11.5 5.2 18 5.3 1 0 1 1.5 0 1.5-1.2 0-2.4-.2-3.5-.4.3.3.3.8 0 1 4 1 8 2 12.1 2.8.9.2.5 1.6-.4 1.4-.9-.2-1.8-.3-2.7-.5-.1.3-.3.6-.7.6-5.4-.1-10.3-1.9-15.4-3.4.9.8 1.9 1.5 2.8 2.3 1.5 1 3.1 1.9 4.7 2.8.1-.1.3-.1.6 0 2.3.8 4.7 1 7.1 1-.2-.6.4-1.4 1-.9.4.3.9.6 1.3.9 1.5 0 3-.1 4.5-.1 1 0 1 1.5 0 1.5h-2c5.3 2.5 11.5 3.1 17.2 4.3.9.2.5 1.6-.4 1.4-6.6-1.3-13.9-2-19.8-5.6-1.7 0-3.4 0-5.1-.1 5.7 2.7 11.7 5 17.8 6.8 0-.4.2-.7.7-.7 14.7.1 28.7 4.5 43.1 6.7.5.1.6.4.5.8.6.1 1.2.1 1.8.2 5.3.5 10.6 1 16 1.2 2.9-.5 5.8-1.2 8.8-1.5 5.3-.6 10.7-.3 16-.5 10.8-.4 21.6-1.3 32.4-1.9 1-.1.9 1.4 0 1.5-11 .6-22 1.5-33 2-2.8.1-5.6.2-8.3.2-2.7 0-5.3 0-8 .4-.3 0-.5.1-.8.1 11.6.2 23.1.2 34.7.2 1.4-.2 2.8-.3 4.2-.5 2.8-.5 5.7-.9 8.6-1.3.4 0 .7-.1 1.1-.1 1.1-.4 2.1-.8 3.2-1.2.5-.2.9.2.9.6 6.4-1 12.7-2.3 18.9-3.9 1.1-.3 2.1-.5 3.2-.8.5-.2 1-.4 1.4-.6.6-.3 1.2-.5 1.8-.8-7.8.5-15.5 1.3-23.3 1.5l5.1.3c.9.1 1 1.5 0 1.5-2.8-.2-5.6-.4-8.3-.6-7.9 1.9-16.3 1.1-24.4 1.9-.9.1-.9-1.4 0-1.5 5.6-.6 11.3-.4 16.9-.8-2.1 0-4.2 0-6.3.1-.9 0-.9-1.2-.2-1.4-2.4-.2-4.8-.4-7.3-.6-2.2.1-4.3.3-6.5.7-.7.1-1.1-.7-.8-1.2-4.2-.2-8.4-.1-12.6.4-4 .4-8 .9-12 .4-.9-.1-.9-1.6 0-1.5 4.2.5 8.4 0 12.5-.4s8.2-.5 12.3-.3c2.3.1 4.5.3 6.8.5 2.7-.1 5.3 0 8 .2 4.9.3 9.8 1.1 14.7 1 9.8-.2 19.5-1.3 29.3-1.8 1.3-.6 2.7-1.2 4-1.9.1 0 .1-.1.2-.1 2.7-1.6 5.4-3.3 8-5 0-.2.1-.3.3-.4 1.3-.9 2.7-1.8 4-2.7-1.9 0-3.8.1-5.5.9-.9.4-1.6-.9-.7-1.3.7-.3 1.5-.5 2.2-.7-1.2.2-2.4.3-3.6.3-1 0-1-1.5 0-1.5h1.2c-.4-.4 0-1.4.7-1.3 2.3.4 4.5.4 6.6-.1 1.1-.3 2.1-.6 3.2-1 .2-.1.3-.1.5-.2-.2-.3-.1-.7.3-.9 1.4-.6 2.8-1.3 4.2-2 .4-.5.9-1 1.3-1.5-3.8 1.3-7.6 2.7-11.6 3.5-.9.2-1.3-1.2-.4-1.4 4.8-1 9.3-2.7 13.9-4.3.2-.3.5-.6.7-.8-3.8 1.6-7.6 2.8-11.8 2.6-1 0-1-1.5 0-1.5 4.3.2 8.2-1.1 12.1-2.8l-.3-.3c-.4.1-.8.2-1.3.3-3.2 1.3-6.6 2.2-10.1 2.1-.9 0-1-1.5 0-1.5 2.7.1 5.2-.4 7.7-1.2 0-.3.2-.5.5-.5l1.5-.3c1-.4 1.9-.9 2.9-1.3.6-.9 1.3-1.9 1.9-2.9-3.1.3-6.3.6-8.7 2.6-.7.6-1.8-.4-1-1 3-2.5 6.9-2.6 10.7-3.1.2-.3.4-.6.6-1-2.2.5-4.5.9-6.8.9-.1 0-.2 0-.3-.1-.2 0-.4 0-.6.1-1 .1-.9-1.4 0-1.5 3.1-.3 6.2-1 9.1-1.9.2-.4.4-.8.7-1.2-1.4.3-2.8.3-4.2.1-.9-.1-.5-1.6.4-1.4 1.6.2 3.2.1 4.8-.4.2-.4.4-.8.6-1.1-2.8.9-5.7 1.4-8.7 1.2-.9-.1-1-1.5 0-1.5 2 .1 3.9-.1 5.7-.5-1.7-.3-3.4-.7-5-1.2-.6-.2-.6-.9-.3-1.3-1.9-.3-3.8-.6-5.7-.8.3-.3.6-.7.8-1-3.5-.4-7-.9-10.5-1.1 0 .1-.1.3-.1.4-.3.2-.5.4-.8.6.3-.3.5-.7.8-1-1.5-.1-3-.2-4.4-.2-1 0-1-1.5 0-1.5 5.2 0 10.2.7 15.3 1.3-5.6-1.3-11.3-2.2-17.1-1.6-1 .1-.9-1.4 0-1.5 7.6-.7 14.9 1 22.2 2.8.1-.1.2-.2.4-.2 2.3-.2 4.7-.1 6.9.3 1.4-.3 2.7-.7 4.1-1.1.2-.5.4-.9.6-1.4-1.7.2-3.4 0-5.1-.4-.9-.2-.5-1.6.4-1.4 1.8.4 3.6.5 5.4.2l.6-1.5c-1.4.3-2.9.5-4.4.5-1 0-1-1.5 0-1.5 1.7 0 3.3-.3 5-.7.3-.7.5-1.4.7-2.1-1.3.3-2.7.4-4.1.2-.9-.1-.5-1.5.4-1.4 1.5.2 2.9 0 4.3-.5.3-1.1.7-2.1 1-3.2-1.8.5-3.6.9-5.5.7-.9-.1-.9-1.6 0-1.5 1.2.1 2.4 0 3.6-.3-1.4.2-3 .3-4.2-.1-.4-.1-.5-.4-.5-.8-1.1.2-2.2.3-3.3.3-1 0-1-1.5 0-1.5 2.4 0 4.7-.6 6.9-1.3-.7.1-1.3.1-2 .1-1 0-1-1.5 0-1.5 2.1 0 4.1-.4 6.1-1.2v-.9c-.7-.1-.7-1.2 0-1.4v-1.7c-1.1.2-2.3.5-3.4.9.6.3.5 1.4-.3 1.4-.1 0-.1 0-.2.1s-.3.1-.4.2c-.4.1-.7.2-1.1.2-.6 0-.8-.6-.6-1.1-.2 0-.3.1-.5.1-.9.3-1.3-1.2-.4-1.4 2.3-.7 4.6-1.4 7-1.9v-1.8c-1.7.4-3.5.5-5.2.2-.6-.1-.6-.7-.4-1.1-.2-.3-.2-.9.2-1.1-.6.1-1.1-.5-.7-1.1 1-1.4 2.4-1.9 3.9-1.8 0-.2 0-.4.1-.7-.9 0-1.8-.2-2.6-.4-.4-.1-.5-.5-.5-.8-.1 0-.3-.1-.4-.1-.9-.2-.5-1.6.4-1.4 1.1.2 2.2.5 3.3.7v-.1c-.1-2-.2-4-.2-6.1v.1c-.3.3-.8.3-1 0l-.6-.6c-.3-.3-.3-.8 0-1 .3-.3.8-.3 1 0l.6.6v-2.6c-.4-.1-.8-.2-1.2-.2-.5 0-.7-.4-.7-.8s.2-.7.7-.7c.4 0 .8.1 1.2.2 0-2 0-3.9-.1-5.9 0-1 1.4-.9 1.5 0 .1.9.1 1.9.1 2.9l.3-3.3c-.2-.5-.4-1.1-.6-1.6-.2-.1-.4-.3-.4-.6v-4.1h-.2c-1 0-1-1.5 0-1.5h.2v-7.1c-.3-3.9-.5-7.8-.5-11.7 0-.4.3-.7.7-.7.2-13.5.6-26.9.9-40.4.3-9.8.5-19.6.7-29.5.2-9.7.1-19.3.5-29 .2-4.7.5-9.4.6-14.2.1-4.6.2-9.2.7-13.8.4-3.3.8-6.7.7-10-.3-.1-.6-.4-.6-.9.1-.8.3-1.6.4-2.4v-.2c-.5-4.4-1.3-8.7-.6-13.2.1-.7.9-.7 1.3-.2v-25.7c-.3-1.9-.6-3.8-1-5.7-.1-.7.5-1 1-.9v-.5c0-.4.2-.6.5-.7v-.1c-.1-1-.2-2.1-.4-3.1-.2.5-.2 1-.3 1.5 0 1-1.5 1-1.5 0 0-1.5.5-2.8 1.4-4-.2-1.7-.4-3.4-.7-5.1 0-.3-.1-.5-.1-.8-1 2-1.9 3.9-2.7 6-.4.9-1.8.5-1.4-.4 1.1-2.7 2.3-5.3 3.6-7.8 0-.1.1-.2.2-.2 0-.2-.1-.5-.1-.7l-2.3 4.7c-.4.9-1.7.1-1.3-.7l3.2-6.4c-.2-1.3-.5-2.7-.7-4-1 2.2-1.8 4.5-2.3 6.9-.2.9-1.6.5-1.4-.4.6-2.9 1.7-5.7 3-8.4 0-.1.1-.2.2-.2-.2-.8-.4-1.5-.6-2.2-.7 2.4-1.8 4.6-3 6.8-.5.8-1.8.1-1.3-.7 1.6-2.7 2.8-5.4 3.4-8.5-.3-.6-.6-1.2-.9-1.9-1 1.4-1.7 3-1.7 4.8 0 .9-1.5 1-1.5 0 .1-2.4 1-4.5 2.5-6.3-.3-.7-.6-1.3-1-2-.7 1.2-1.4 2.4-1.9 3.7-.3.9-1.7.5-1.4-.4.6-1.7 1.6-3.3 2.4-4.9v-.1c-.2-.5-.5-.9-.7-1.4-.9 1.4-1.7 2.8-2.1 4.4-.3.9-1.7.5-1.4-.4.6-2 1.7-3.8 2.8-5.5-1.7-3.4-3.4-6.8-4.9-10.2 0 .2-.1.3-.2.5-1.8 1.9-2.7 4.5-2.7 7.2 0 .9-1.5 1-1.5 0 0-1.2.2-2.3.5-3.5-.3-.1-.6-.4-.5-.9.6-2.2 1.1-4.5 2.4-6.5-.2-.3-.4-.5-.5-.8-.3 0-.6-.2-.6-.5 0-.2-.1-.4-.1-.6 0-.3-.1-.6-.1-.9v-.2c0-.2-.1-.4-.1-.6 0-.1 0-.2-.1-.3 0-.2-.1-.4-.1-.6 0-.1 0-.2-.1-.2l-.3-.9c0 .1.1.1.1.2 0-.2-.1-.4-.1-.6-.4-1.6-.8-3.1-1-4.7-.4-1.5-.7-3.1-1-4.6-.1-.4.2-.7.5-.9-.1-1.9-.1-3.8 0-5.8.2-3.3.7-6.5 1.4-9.7 0-.3-.1-.5-.1-.8-.1-.4.2-.7.5-.9.1-.4.2-.8.2-1.1 0-.2.1-.3.1-.5.5-3.9.9-7.7 1.3-11.6.1-1.1.2-2.3.3-3.4 0-4.2 0-8.4-.1-12.5-.2-9.6-.7-19.2-2.2-28.7-.8-4.8-1.9-9.5-2.9-14.3-2.2-4.8-4.4-9.6-6.1-14.6-2.6-7.7-4.9-15.6-10.3-21.9-.6-.7.4-1.8 1-1 5.3 6.3 7.8 14 10.3 21.6 1.1 3.3 2.4 6.5 3.8 9.6-.2-1.5-.4-3.1-.6-4.7l-1.2-4.8c-2-7.3-4.8-14.7-9.8-20.5-2.7-3.1-5.9-5.7-9.3-8.1-3.8-1.9-7.5-3.9-11.7-4.6zm28.7 20.5c3.7 7.1 5.1 15 6.3 22.9.4 2.8.8 5.6 1.3 8.4.6 1.3 1.1 2.6 1.7 3.9.5 1.2 1 2.4 1.4 3.6-1-13.1-2.2-28.1-10.7-38.8zm11.2 46.5c-.6-2.9-1.4-5.7-2.5-8.5.7 3.9 1.4 7.9 1.8 11.9.7 6.6 1.2 13.2 1.3 19.9.2-2.7.3-5.3.3-8v-.3-.8c-.1-4.7-.5-9.5-.9-14.2zM266 308.6c0-5.5 0-11.1-.2-16.6v.1c0 1.7-.1 3.4-.1 5.1-.2 7-.7 14-1.2 20.9v15.7l.9-8.4c0-5.4.1-10.8.2-16.1-.1-.4.1-.6.4-.7zm-3 172v-22.9c-.2 2.6-.4 5.3-.6 7.9l-.6 8.4c.4 3 .8 6.1 1.1 9.1 0-.8 0-1.6.1-2.5zm-.9 31.4c.1-2.3.2-4.7.3-7-.2 1.4-.5 2.8-.8 4.2 0 1-.1 2-.2 3 .2 0 .4-.1.7-.2zm-.1 1.6c-.2.1-.4.1-.7.2.1 1.8.2 3.6.4 5.3.1-1.8.2-3.7.3-5.5zm-6.2 27.7c-1.9 1.8-4 3.5-6.2 5-.1.2-.3.3-.4.5.8-.4 1.7-.8 2.5-1.1.1-.1.2-.2.3-.4.4-.5 1.1-.4 1.3 0 .9-1.3 1.7-2.7 2.5-4zm-10 7c-.7.3-1.4.6-2.2.9 0 .1-.1.1-.1.2.8-.3 1.6-.7 2.3-1.1zm-.3 2.9c.5-.1 1-.3 1.4-.4 1-.8 2-1.7 2.9-2.7-.9.4-1.8.8-2.7 1.3-.5.6-1.1 1.2-1.6 1.8zm1.4-6.9c-.4.6-.7 1.1-1.1 1.7 1.2-.6 2.4-1.3 3.6-1.9.1-.1.1-.2.2-.3-.8.2-1.7.3-2.7.5zm1.7-2.9c-.2.4-.5.8-.7 1.2.5-.1 1-.2 1.4-.3.5-.1.8.2.9.6l1.2-1.8.6-.9c-1.1.5-2.2.9-3.4 1.2zm2.1-3.6c-.2.3-.3.6-.5 1l3-1.2c.1-.1.3-.1.4-.1.2-.4.4-.7.5-1.1-1.2.5-2.3 1-3.4 1.4zm3.8-7.9c0 .1 0 .1-.1.2.6.3 1.2.5 1.9.8.2-.6.4-1.1.6-1.7-.8.3-1.6.5-2.4.7zm1.6-3.8c-.1.4-.3.7-.4 1.1.4-.1.8-.3 1.2-.4.3-.1.5 0 .7.1.1-.4.2-.9.3-1.3-.6.2-1.2.4-1.8.5zm1.3-3.1c-.2.5-.4 1-.5 1.4.5-.1 1-.3 1.5-.5.1-.4.2-.8.2-1.2-.5.1-.9.2-1.2.3zm1.3-3.9c-.2.7-.5 1.5-.8 2.2.3-.1.6-.2.9-.2.1-.7.2-1.4.3-2.2-.1 0-.2.1-.4.2zm1.8-57.5c.1-.9.2-1.9.3-2.8-.1.2-.2.3-.4.3.1.9.1 1.7.1 2.5zm1.4-109.2c0 1-.1 2-.1 3-.4 33.3-1.7 66.5-2.1 99.8.3 0 .6.2.7.5.4.8.4 1.6.5 2.5.5-5.3 1.1-10.5 1.6-15.8.2-4.3.4-8.6.5-12.9-.2-20.2-.5-40.5-.5-60.7-.3-5.5-.5-11-.6-16.4zm.1 141.7c.1-1.8 0-3.6-.1-5.4v-.1c-.1-1.8-.3-3.6-.6-5.3-.2 3.9-.3 7.7-.3 11.5.3-.2.7-.4 1-.7zm-1.1 6.1v1.9c.1 0 .2 0 .4-.1l.3-2.1c-.2.1-.5.2-.7.3zm.8-1.8c.1-.8.1-1.7.2-2.5-.3.2-.6.3-.9.4.3.3.4 1-.1 1.3v1c.1 0 .3-.1.4-.1.2-.1.3-.1.4-.1zm-14.2-287.7c-.4.7-.7 1.5-.9 2.2.2-.3.5-.7.8-1 .3-.3.6-.3.9-.1-.3-.3-.5-.7-.8-1.1zm-2.1-10.9c.2.8.5 1.7.8 2.5-1.3-5.3-1.1-10.7-1.2-16-.3 2.8-.5 5.5-.3 8.3.2 1.8.4 3.5.7 5.2zm17.6 100v-3.5c-.1 1.2-.1 2.4 0 3.5zm-3.5 193.6c0-2.2.1-4.5.2-6.7 0-1 .1-2 .1-3-.3 3.1-.6 6.2-.8 9.3v.4c.1-.1.3 0 .5 0zm-.1 2v-.5h-.1c-.1 0-.1.1-.2.1 0 .2 0 .3.1.5.1 0 .2-.1.2-.1zm-3 2.3c-.4.1-.6-.1-.8-.3-.4.2-.7.5-1 .9 0 .1-.1.1-.1.1.6-.3 1.3-.5 1.9-.7zm-.7 1.8c1.2.1 2.5-.1 3.7-.4v-.4c-.3.4-1.1.5-1.3-.1-.7.3-1.6.6-2.4.9zm3.2 10.5c.3-.1.6-.1.8.1v-.7c-.7.2-1.4.5-2.2.6.1.1.2.2.2.3.4 0 1-.1 1.2-.3zm-1.2 1.8c-.3 0-.7-.1-1-.2-.9.3-1.7.5-2.6.8.9 0 1.8-.1 2.6-.2.3 0 .7-.1 1-.1v-.3zm-4 20.8c-.1 0-.3 0-.4-.1 0 .1-.1.2-.1.3.1 0 .3-.1.5-.2zm-1.5 2.2c-.2.4-.4.7-.5 1.1 1.1-.5 2.3-1 3.4-1.6l.3-.6c-1.1.3-2.2.7-3.2 1.1zm-4-1.7c-1.3-.1-2.5-.3-3.8-.5 2.1.5 4.2.9 6.3 1.2.2-.1.3-.1.5-.2.2-.4.4-.9.6-1.3-1.7-.3-3.3-.7-4.9-1.1-.1.1-.2.1-.4.1-.3 0-.7 0-1-.1.9.1 1.9.3 2.8.4.9.1.9 1.6-.1 1.5zM232.7 561c-.9.3-1.8.6-2.7.8-1.4.4-2.8.7-4.2 1 1.7-.2 3.4-.1 5-.2.6-.6 1.2-1.1 1.9-1.6zm-4.6 7.5c7.2-4.1 13.6-9.4 19.3-15.4 1.1-1.1 2-2.3 3-3.5-.8.8-1.6 1.5-2.4 2.2-.1.1-.2.3-.4.3-1.2 1-2.5 1.8-3.8 2.6.4.3.5 1.1-.2 1.4-1.5.5-2.9 1.2-4.3 1.9-1.6 1.7-3.2 3.3-4.9 4.8.1.3-.1.7-.5.8-.1 0-.3.1-.4.1-2.3 2.1-4.8 4.1-7.3 5.9.6-.4 1.2-.7 1.9-1.1zm34.7-41.9c-.2.8-1.5.7-1.4-.2 0-.6.1-1.1.1-1.7-.3 0-.6-.3-.7-.7-.1-.7-.1-1.3-.2-2-.1 0-.3.1-.4.1-.1.3-.1.7-.2 1 .6.2.8 1 .2 1.3l-.6.3c-.2.8-.4 1.6-.6 2.3.7.1.9 1.2.1 1.4-.2 0-.3.1-.5.1-.3 1-.6 1.9-.9 2.9.3.2.5.3.7.5l.1.1c.3-.2.6-.4.9-.5.8-.5 1.6.8.7 1.3-1.3.7-2.6 1.5-3.9 2.2-.3.8-.7 1.5-1 2.2.5.2.7 1 .1 1.3-.3.2-.7.3-1 .5-.6 1.1-1.2 2.1-1.8 3.1 1.3-1.1 2.5-2.2 3.7-3.4.4-.4.8-.2 1.1.1 1-1.6 2-3.2 3.1-4.7.2-.3.5-.4.8-.3.6-2.2 1.2-4.7 1.6-7.2zm4.1-146.8c-.1 18.9-.7 37.8-2.4 56.7.1 14.6.1 29.2-.1 43.8v31.9c.3.1.6.3.6.7.5 10.9-1.4 21.8-6.7 31.4-4.8 8.6-12.1 15.5-20.3 20.8-4.8 3.1-9.9 5.7-15.2 7.9-2.1 1.1-4.3 2.1-6.5 3-8.2 3.7-16.8 7.2-25.7 9.6-9.4 2.8-19.1 4.6-28.8 5.5-7.8.8-15.6 1-23.5.8-1.4 0-2.7-.1-4.1-.2-4.5.2-8.9.1-13.4-.2-7.1-.4-14.3-1.3-21.3-2.8-4.1-.9-8.1-1.9-12-3.3h-2c-6.1.1-12.6.3-18-2.6-8-2-15.7-5-22.9-8.8-3-1.1-5.9-2.3-8.7-3.7-5.3-2.8-10-6.3-14.1-10.6-5.1-4.1-8.9-9.4-11.8-15.3l-.4-.4c-.3-.3-.3-.6-.1-.8-2.4-5.3-4-10.9-5.2-16.5-4.6-22.9-2.7-46.6-1.5-69.7.3-4.9.5-9.8.6-14.8.2-7-.3-14.1-.4-21.1-.3-19.4-.1-38.9-.3-58.3-.1-9-.2-18.1-.8-27.1-.5-7.7-1.1-15.4-1.4-23.1-.7-14.6-1.1-29.9 2.6-44.2-.2-4.3-.3-8.5-.3-12.8 0-.9 1.5-.9 1.5 0v.6c0 3.5.1 7.1.2 10.6.3.1.4.4.3.8l-.3.9c.2 4.8.5 9.5.9 14.3-.5-16-1.2-32.4 2.7-48.1.1-.4.3-.5.6-.5.4-1.7.9-3.3 1.5-5 .4-1.1.7-2.1 1.1-3.2-.3-.2-.4-.6-.2-.9l1.5-2.4c5.1-12.5 12.6-23.9 21.1-34.3.2-.3.5-.3.8-.2l4.8-6.6c4.7-6.2 10.1-11.8 15.2-17.6 2.3-2.6 4.6-5.2 6.8-7.9 4-5.7 7.8-11.5 11.2-17.6 4.6-8.4 8-17.2 10.6-26.3-3.3 8.1-7.1 16-11.6 23.4-.5.8-1.8.1-1.3-.7 4.5-7.4 8.3-15.2 11.5-23.2 1.5-3.9 3-7.8 4.3-11.7.1-.4.2-.8.2-1.2-.4.6-1.6.2-1.3-.6.9-3.3 1.9-6.6 2.9-9.9.1-.6.2-1.2.2-1.8 0-.2 0-.4.1-.5.1-2.1.3-4.2.6-6.3 0-.1.1-.3.2-.3.2-1.7.5-3.3.9-5 .9-4 2.1-7.9 3.2-11.8.1-.5.3-1.1.4-1.6.3-2.6.7-5.3 1.1-7.9.4-2.4.6-4.7.7-7.1.1-2 .2-4.1.9-6-.1-.5-.1-1-.2-1.5 0-.2 0-.3.1-.5-1.2-.4-2.4-1-3.2-2-1.4-1.7-1.9-3.9-1.9-6.1v-.6-.5c0-.4.2-.6.5-.7.7-.9 1.9-1.3 3-1.5.4-.1.8-.2 1.2-.2-.2-.2-.3-.4-.2-.7.2-1.2.3-2.4.4-3.6-.5-.3-.6-1.2.1-1.3v-.4c-.9-.7-1.4-1.4-1.8-2.2-.7-.4-.8-1-.5-1.4-.2-.9-.2-1.8-.2-2.7-.8-2.5-1.5-5.6-.2-8 .1-.3.3-.5.5-.8v-.6c0-.6.5-.8.9-.7.2-.1.3-.1.5 0 .9-1 2.3-1.4 3.8-1.7 5.9-1.1 11.9-.1 17.8-.8 9-1.1 18-1.7 27-1.3 7.6.4 15.1 1.8 22.7 2.2-.2-.4-.1-.9.4-1 1.9-.3 3.4.2 4.6 1.2h.2c.3 0 .7.1.8.5.1.3.1.6.2.9.9 1.3 1.4 2.9 1.6 4.6.2 1.8.2 3.8-.2 5.7-.1 2.1-.6 4.7-2.4 5.8.3.1.5.3.5.7v4.5c1.6.4 2.8 1.2 3.1 2.9.1.3.1.6.1.9 1 2.4.8 5.2-.7 7.4v.2c.2.1.3.2.4.5.2 1 .3 2 .4 3 .4 1.6 1.1 2.9 1.9 4-.3-.8-.5-1.7-.5-2.7 0-.9 1.5-1 1.5 0v.7c.2 3.1 3.1 4.9 6.1 6.1 2.1.4 4.4.5 6.6.1.9-.1 1.3 1.3.4 1.4-.4.1-.9.1-1.3.2 2.1.5 4.2.9 6.3 1.3 2.8-.1 5.7-.3 8.5.1 6.5.8 13 3.8 18.2 7.7 5 3.8 9.3 8.6 12.5 14 .2-.4.8-.7 1.2-.3 3.8 4.4 6.3 9.6 8 15.1 3.2 10.5 3.7 21.5 4.4 32.4.1.4.2.9.3 1.4.7 4.2.9 8.6.9 12.9v3.9c0 6-.4 11.9-1 17.9-.4 3.9-.9 7.8-1.3 11.7-.3 3.4-.6 6.8-.8 10.3.5.3.5 1.1-.1 1.4 0 1-.1 1.9-.1 2.9v7c0 .3-.1.5-.3.6-.3 12.7 7 24.4 11.9 35.6 2.4 5.5 4.4 11.2 5.6 17.1.6 1.6 1.1 3.3 1.6 5 .1.5-.2.8-.5.9.9 6.3 1.4 12.7 1.5 19.1v5.3c1 15.8 1.4 31.6.4 47.3-.1 2.1-.2 4.3-.4 6.4-.2 17.5.1 35.1 0 52.8zM137.5 189.4c.1-.1.2-.3.2-.5 0-6.3-.6-12.6-.6-18.9 0-.6-.6-.8-1-.7h-.2c-.3-3-.7-6-1.2-8.9-.2-.9-1.6-.5-1.4.4.8 4.9 1.3 9.8 1.7 14.8V199c0 1 1.5 1 1.5 0v-3.4c.2 2.9.5 5.8.9 8.7.1.9 1.6.9 1.5 0-.7-5-1.1-9.9-1.4-14.9zM20.2 352c2.9-19.2-1.2-38.7 1.8-57.8.1-.9-1.3-1.3-1.4-.4-2.9 19.2 1.2 38.7-1.8 57.8-.2.9 1.2 1.3 1.4.4zm58.9 171.2c-3.1 0-6.1.5-9.1 1.4-.9.3-.5 1.7.4 1.4 2.8-.8 5.7-1.3 8.7-1.3 1 0 1-1.5 0-1.5zM88.7 158c-.2 1.3-.5 2.6-.8 3.9-.4-.4-1.3-.3-1.3.5.1 1.2.1 2.4-.1 3.6-4.4 11.6-13.3 21.1-20.4 31.1-4.4 6.2-8.3 12.9-11.6 19.7-3.3 7-5.9 14.7-5.4 22.5.1.9 1.5.9 1.5 0-.5-8.1 2.4-15.9 5.9-23.1 3.2-6.6 7-12.9 11.3-18.8-6.5 11.3-10.3 24-11.3 36.9-.1.9 1.4.9 1.5 0 1.1-14.4 5.8-28.2 13.6-40.4 3.3-5.2 7.2-10 10.7-15.1 2.6-3.7 5-8 5.7-12.5 1-2.5 1.7-5.2 2.1-7.9.2-.9-1.2-1.3-1.4-.4zm19.6 366.5c-1 0-1 1.5 0 1.5s1-1.5 0-1.5zm-11-414.4c.7-5.4 1.2-10.8 1.7-16.2-1.9 16-4.3 32-9.1 47.3 3.5-10.1 6-20.4 7.4-31.1zm7-56.1c-2.6 17.7-3.1 35.5-5.2 53.2-.9 8-2.2 15.9-4.4 23.6-2.1 7.5-4.8 14.9-7.9 22-6.7 15.3-15.5 29.2-24.8 43-.5.8-.9 1.7-1.4 2.5-7 13.2-12.2 27.3-12.7 42.4 0 .9-1.5 1-1.5 0 .4-12.1 3.8-23.6 8.7-34.5-3.1 4.9-5.8 9.9-7.7 15.3-2.9 8.1-3.3 16.6-3.3 25.2 0 1-1.5 1-1.5 0 0-7.8.3-15.7 2.6-23.1 2.4-7.9 6.7-15.2 11.3-22 1.4-2.2 2.9-4.3 4.3-6.4 6.2-11.3 13.3-22 19.1-33.5 15.9-31.2 16.8-66.4 21.5-100.4 0-.3.3-.5.5-.5.3-2.4.6-4.8.9-7.1.2-1 1.6-.6 1.5.3zM18 386.3c.1-5.4.1-10.8.2-16.2.2-6.1.3-12.2.1-18.4V319c0-1-1.5-1-1.5 0v10.9c-.6-9-1-18.1-.2-27.1.1-.9-1.4-.9-1.5 0-1.5 15.9.8 31.7 1.6 47.6 0 .9.1 1.8.1 2.7 0 5.2 0 10.3-.1 15.5-.3 9.9-1 19.8-1 29.8 0 .4.3.6.6.7-.1 11.2.1 22.4.9 33.5.2 3.3.6 6.6.9 9.9.1.9 1.6.9 1.5 0-2.1-18.6-1.9-37.4-1.6-56.2zm2.9 127.6c-3.3-.4-6.6-.5-9.9-.5-1 0-1 1.5 0 1.5 3.2 0 6.4 0 9.5.4.9.2 1.3-1.2.4-1.4zm99.4-472.2c0-.5-.5-.7-.9-.7v-.2c0-1-1.5-1-1.5 0 0 2.2 0 4.5.6 6.6-.1.8-.2 1.5-.3 2.3-.1.9 1.4.9 1.5 0 .1-.7.2-1.5.3-2.2v-.1c.2-1.9.4-3.8.3-5.7zM53.9 526.3c-1.7 0-3.4.4-5.1.9-.9.3-.5 1.7.4 1.4 1.5-.5 3.1-.8 4.7-.9.9.1.9-1.4 0-1.4zm-7.7 2.7c-3 .4-6.1.9-8.6 2.7-.7.6 0 1.8.7 1.3 2.4-1.8 5.4-2.2 8.2-2.6 1-.1.6-1.6-.3-1.4zM26 525c-4.6 0-9.2 0-13.7.4-.9.1-1 1.6 0 1.5 4.6-.4 9.1-.4 13.7-.4 1-.1 1-1.5 0-1.5zm-3.5-121.1c.4-9.5 0-19-.5-28.5 0-.4-.3-.6-.6-.7v-1.2c0-1-1.5-1-1.5 0 0 10.1.3 20.3 1 30.4-.1 2.3-.3 4.6-.5 6.9-.1.7.6.9 1.1.6.4 4.3.9 8.7 1.4 13 .1.9 1.6.9 1.5 0-.8-6.9-1.4-13.7-1.9-20.5zM11.6 513.1c2.3-.4 4.6-.4 6.9-.4 1 0 1-1.5 0-1.5-2.4 0-4.9 0-7.3.5-.9.2-.5 1.6.4 1.4zm229.9-339.6c-.9 3.4-1.9 6.7-2 10.3 0 1 1.4.9 1.5 0 .2-3.7 1.4-7.3 2.3-10.9.9-3.6 1.2-7.4 1.4-11.1.4-7.2.8-14.5-.2-21.6-.1-.9-1.6-.5-1.4.4 1 7.2.5 14.6.1 21.8-.3 3.7-.7 7.4-1.7 11.1zm-.5 53.2c4.3 2.4 6.6 7.3 8.2 11.7 1.6 4.5 2.6 9.4 2.6 14.2 0 .9 1.5.9 1.5 0 0-5.1-1.1-10.2-2.8-15-1.7-4.7-4.3-9.7-8.8-12.2-.7-.4-1.5.9-.7 1.3zm-20.2-65.8c-1.4 1.8-2.7 3.7-4.3 5.3-.7.7.4 1.7 1 1 1-1 1.8-2.1 2.7-3.2.3.3.9.3 1.2-.1 1.3-1.9 2.3-4 3.5-5.9.2-.2.2-.5.1-.6.4-.6.7-1.1 1.1-1.7.5-.8-.8-1.5-1.3-.7-.8 1.2-1.5 2.5-2.4 3.6-.2.3-.2.7 0 .9-.2.4-.5.9-.7 1.3-.3-.3-.6-.3-.9.1zm24 79.5c2.4 6.8 3.3 14 3.6 21.1 0 .9 1.5 1 1.5 0-.3-7.3-1.2-14.6-3.6-21.5-2.4-6.9-6.5-13.1-11.3-18.5-.6-.7-1.7.3-1 1 4.5 5.3 8.4 11.2 10.8 17.9zm-14.3-54c-3.1-2.5-7.2-3.4-10.3-6-1.6-1.3-3.1-2.8-4.6-4.2-1.6-1.5-3.4-2.7-5.2-4.1-3.2-2.5-6.3-5.1-9-8.2-2.9-3.3-5.4-7.1-7.7-10.8-4.6-7.2-8.3-15-11.5-22.9-3.4-8.4-6.2-17.1-7.5-26.2-.6-4.3-.5-8.6-1.8-12.8-.3-.9-1.7-.5-1.4.4 1.2 4 1.1 8.2 1.7 12.3.6 4.5 1.6 8.9 2.9 13.3 2.4 8.4 5.7 16.5 9.5 24.3 3.7 7.7 8.2 14.9 13.4 21.7 5 6.6 12.3 10.9 18.3 16.4 1.8 1.6 3.6 3.2 5.8 4.3 2.2 1.1 4.5 1.8 6.5 3.4.6.8 1.7-.3.9-.9zm7.3-60.2c.2-2.4 0-4.7 0-7.1 0-.9-1.5-1-1.5 0 0 2.4.2 4.7 0 7.1 0 .9 1.5.9 1.5 0zm1.3 2.9c-.1.9 1.4.9 1.5 0 .6-5.4 1-11.2-1.2-16.3-.4-.9-1.8-.5-1.4.4 2.1 5 1.7 10.6 1.1 15.9zm-27.6 397.8c-.2.2-.3.4-.5.6.9-.1 1.8-.3 2.7-.6h-2.2zM155.1 41.6c.3 1.8 0 3.6 0 5.4 0 1 1.5 1 1.5 0 0-1.9.3-3.9 0-5.8-.2-.9-1.6-.5-1.5.4zm-21.9 205.1c-3.7 2.6-3.1 9.2-2.8 13.1.1.7.1 1.5.2 2.2 0 1.7.1 3.3.3 5-.1-.1-.3-.1-.4-.1-.4 0-.8.3-.7.7 0 .3.1.6.3.9 0 .1.1.2.1.3 0 .1 0 .1 0 0v.1c0 .4.3.7.7.7.1 0 .3 0 .4-.1.2.9.4 1.8.7 2.7v.1c.2 1.2.3 2.5.4 3.7.1.9 1.5.9 1.5 0-.4-4.7-1.3-9.4-1.8-14.1v-6.7c0-.3-.1-.5-.3-.6 0-.4 0-.8.1-1.1.1-1.8.5-4.4 2.1-5.6.7-.4 0-1.7-.8-1.2zm122.1 245.2h1.3c.4 0 .7-.3.7-.7 0-.4-.3-.7-.7-.7h-1.3c-.4 0-.7.3-.7.7 0 .4.3.7.7.7zm-42.7 77.8c-12.3 1.8-24.6 3.5-37 4-.9 0-1 1.5 0 1.5 8.2-.3 16.4-1.2 24.5-2.2-.1.6.7 1.2 1.3.7.8-.8 1.9-1.1 3-1.1.2 0 .4-.1.5-.2 2.7-.4 5.4-.8 8.1-1.1.9-.3.5-1.7-.4-1.6zm-34.5-394.4c1.8 4.5 3.8 9 6 13.4 1.8 3.5 3.7 6.9 5.8 10.2-.4-1.3-.9-2.7-1.4-4-2.4-3.5-4.7-7.1-6.3-11.1-.3-.7.5-1.1 1.1-.8-.7-1.4-1.5-2.7-2.5-4-.8-1.2-1.8-2.4-2.7-3.7zm6.1 9.4s0-.1-.1-.1c.4 1 .9 2 1.5 3-.4-1-.8-1.9-1.4-2.9zm-1.6 4.3c-4.5-9-8-18.4-11.3-27.9-.3-.9 1.1-1.3 1.4-.4l1.2 3.3v-.5c.1-.9 1.6-.9 1.5 0-.6 4.2 1.6 7.8 4 11.1 1.5 2 2.9 4 4.2 6-.2-.4-.3-.9-.5-1.3-.3-.9 1.1-1.3 1.4-.4 3 8.2 6.9 16.4 13.4 22.4.7.6-.3 1.7-1 1-3-2.8-5.5-6.1-7.6-9.6.1.4.3.8.4 1.2.5.7 1.1 1.5 1.6 2.2.3.5 0 .9-.4 1 .7 2 1.4 4.1 2.1 6.1 2.4 3.4 5.1 6.7 8 9.8.6.7-.4 1.7-1 1-1.7-1.9-3.4-3.8-5-5.8.7 1.7 1.5 3.3 2.3 4.9.4.8-.8 1.6-1.3.7-1.7-3.2-3-6.5-4.2-9.9-3.5-4.5-6.5-9.6-9.2-14.9zM131.2 47.6c0-1.8.1-3.7-.3-5.5-.1-.4-.3-.5-.6-.5-.1-.2-.3-.5-.5-.7-.6-.7-1.7.3-1 1 .8 1 .7 2.9.4 4-.1.5.2.8.6.9v.8c-.1.9 1.4.9 1.4 0zm95.4 140.1c-8.1-4.5-17.9-7.3-23-15.7-.5-.8-1.8-.1-1.3.7 5.2 8.7 15.1 11.5 23.5 16.2.9.5 1.7-.8.8-1.2zM40.9 528.1c-2.2.9-4.2 2.2-6.3 3.4-.4.2-.7.4-1.1.6.4-.3.9-.6 1.3-.9.8-.5.1-1.8-.7-1.3-1 .6-1.9 1.3-2.8 2-1.1.4-2.2.8-3.3 1.1-1 .3-2.2.7-3.2.7s-1 1.5 0 1.5c.5 0 1.1-.1 1.7-.2.1.1.2.1.4.2 5.4.9 9.9-3.8 14.6-5.8.6-.2.2-1.7-.6-1.3zm-27.3-28.6c-1.3 0-2.6.4-4 .4-1 0-1-1.5 0-1.5 1.3 0 2.6-.4 4-.4 1 0 1 1.4 0 1.5z" mask="url(#b)" fill="#231f20"/>
  </g>
</svg>
