<svg viewBox="0 0 391 110" xmlns="http://www.w3.org/2000/svg">
  <g fill="#FFF" stroke="#FFF" stroke-width="5" fill-rule="evenodd">
    <path d="M13.17 95.814c-5.434-12.37-7.565-26.57-9.337-39.958a182.762 182.762 0 0 1-1.064-10.525c-.273-3.702-.117-7.857.267-12.167.18-2.17.43-4.184.867-5.871.43-1.684 1.098-3.487 1.968-5.393 1.552-3.427 3.993-6.107 7.294-7.752 1.758-.872 3.701-1.414 5.732-1.65 2.536-.29 3.88.26 4.023 1.626.103.963-.473 1.521-1.745 1.663-.34.043-.943-.011-1.813-.16-.718-.018-1.076-.025-1.797-.036-2.791.318-5.12 1.704-6.842 4.112-1.25 1.752-2.424 4.815-3.174 8.841-.599 3.24-.661 7.057-.58 10.977.048 2.169.194 5.777.541 10.711.34 3.186.507 4.784.848 7.974.32 2.655.483 3.98.804 6.636 1.055 7.17 2.143 14.312 4.274 21.142 1.216 3.883 2.62 7.136 3.994 9.664 1.384 2.517 3.083 4.507 5.088 5.988 2.179 1.604 4.401 2.288 6.693 2.03 4.168-.478 8.813-3.769 9.43-7.152.277-1.541-.603-5.12-1.341-8.534-.374-1.714-.871-3.453-1.461-4.857-.54-1.285-1.252-1.947-1.893-1.874-.897.196-1.358.293-2.262.489-.998.212-1.496.309-2.499.524-1.843.206-2.836-.373-2.982-1.737-.08-.642.982-1.383 3.172-2.194 2.186-.819 4.047-1.3 5.573-1.464 1.289-.138 2.284.226 2.978 1.09.693.866 1.118 2.062 1.27 3.592.17 1.775.876 5.418 2.254 10.644 1.162 4.385 1.973 7.982 2.238 10.644.122 1.286-.33 1.985-1.347 2.085-1.89.197-2.919-.586-3.099-2.361.034-.154.05-.223.08-.376-.009-.096-.02-.14-.024-.238-4.228 3.133-8.049 4.916-11.493 5.307-6.995.79-12.05-5.557-14.635-11.44z"/>
    <path d="M56.78 44.443c1.325-1.487 2.33-2.75 2.794-3.705.472-.983.784-2.6 1.004-4.648.223-2.042.273-3.859.151-5.445-.234-2.95-1.101-5.972-2.339-8.945-.704-1.703-1.614-3.148-2.79-4.178-1.177-1.02-2.425-1.485-3.749-1.37l-.23.018c-.075.078-.187.125-.341.143.87 10.146 1.74 20.285 2.607 30.437.604-.047 1.57-.823 2.894-2.307m14.506 48.316c-.66-1.863-.995-2.792-1.66-4.66a237.134 237.134 0 0 1-5.804-16.616 510.839 510.839 0 0 1-3.065-10.295c-1.457-5.098-2.78-9.238-3.956-12.397-.433.3-.646.449-1.078.745-.567.313-.847.458-1.413.768 1.26 13.847 2.511 27.697 3.768 41.543l.141 1.616c.12 1.444-.469 2.22-1.771 2.33-.58.053-1.066-.09-1.458-.418a1.768 1.768 0 0 1-.657-1.246c-.06-.645-.09-.967-.143-1.616-.574-7.272-1.148-14.55-1.716-21.822-.283-4.194-.426-6.29-.706-10.485-.713-10.74-1.451-21.478-2.39-32.205-.492-5.57-.732-8.35-1.224-13.926-.057-.649.614-1.031 2.017-1.15a11.04 11.04 0 0 1 5.788 1.04 11.14 11.14 0 0 1 4.462 3.777c2.342 3.36 3.697 7.147 4.007 11.32.246 3.318-.215 7.043-1.471 10.976-.346 1.106-.846 2.402-1.417 3.86-.567 1.459-1.528 2.675-1.589 3.004-.793 4.21 5.961 16.683 8.817 25.081 2.199 6.35 4.387 12.714 6.556 19.077.086.215.15.608.188 1.188.05.642-.043 1.215-.26 1.702-.222.48-.585.742-1.092.784-1.449.095-2.403-.56-2.874-1.975M102.893 92.67c.78-1.465 1.335-3.5 1.707-6.048.789-5.418 1.342-10.823 1.37-15.945.022-4.12-.092-8.224-.233-12.158l-.017-.464c-.201-4.629-.303-6.944-.508-11.57-.282-4.159-.836-9.609-1.79-16.143-.675-4.652-2.003-9.488-3.915-14.307-.75-1.892-1.729-3.359-2.906-4.377-1.18-1.015-2.424-1.493-3.73-1.418-1.175.066-2.173.745-3.007 2.029-.834 1.29-1.48 3.074-1.907 5.337a74.832 74.832 0 0 0-1.332 14.477c.028 3.733.078 7.689.282 11.697.118 2.267.172 3.399.287 5.662.378 6.599 1.295 13.11 2.267 19.579.75 4.953 1.644 9.287 2.594 12.948.952 3.648 2.18 6.72 3.535 9.18 1.417 2.565 2.933 3.889 4.599 3.801 1.025-.047 1.927-.81 2.704-2.28zM83.936 43.287c-.094-1.85-.143-2.774-.245-4.624-.342-6.47-.287-12.128.13-16.941.26-3.018.687-5.533 1.313-7.502a13.41 13.41 0 0 1 2.717-4.815c1.107-1.265 2.6-2.134 4.468-2.235 1.657-.097 3.2.184 4.61.84 1.41.663 2.635 1.557 3.53 2.67.795.991 1.542 2.438 2.227 4.187a41.694 41.694 0 0 1 1.62 5.018c.41 2.16.607 3.24 1.011 5.402 1.727 11.584 3.206 23.172 3.61 34.935.003.14.007.214.012.35.127 3.85.167 7.414.15 10.645-.013 3.85-.256 7.947-.67 12.19-.2 2.073-.497 3.92-.928 5.485-.43 1.564-1.017 3.13-1.717 4.706-1.258 2.805-3.116 4.349-5.523 4.436-15.36.593-15.629-43.962-16.315-54.747z" fill-rule="nonzero"/>
    <path d="M134.215 94.024c-.678-1.05-1.216-9.346-2.215-15.16-.639-3.048-1.047-5.258-1.246-6.607-.91-6.23-1.862-12.525-2.769-18.767-1.3-8.972-2.745-17.962-4.2-26.929-.183-1.102-.275-1.658-.462-2.76-1.514-9.06-3.235-14.432-3.25-14.881-.013-.213.638-.789 1.156-1.12.518-.33 1.042-.504 1.566-.517 1.321-.03 2.229.15 2.718.541.493.39-.277 2.172-.277 2.172l.023 1.084c7.158 41.506 10.847 60.125 11.067 55.857.071-1.4.11-2.097.182-3.495.4-10.219.655-15.625.707-16.177.338-3.217.909-8.775 2.115-16.209l.472-4.342c.113-2.128.17-3.238.296-5.417.062-.96.116-1.783.148-2.47.03-.677.086-1.181.162-1.507.044-.63.066-.938.103-1.57-.001-.078.065-.201.175-.362.124-.16.339-.418.536-.486.77-.246 1.819.388 2.162.824.179.24.403.504.48.786.083.283.12.617.127 1.023.096.43.148.65.241 1.084 2.025 11.032 3.617 22.186 5.232 33.273 1.709 11.784 3.484 23.646 4.62 35.542.223-.004.123-.003.346-.003a8518.542 8518.542 0 0 1 4.36-48.652c.176-3.056.752-7.917 1.607-14.462.864-6.604 1.265-12.087 1.291-16.273a68.61 68.61 0 0 1-.107-1.201l.005-1.085c.006-1.052.257-1.786.736-2.224.488-.438 1.286-.651 2.413-.634.483.002.983.21 1.507.616.514.414.776.862.767 1.343-.003.8-1.334 2.078-1.344 2.274-.01.028.119.32.112.725a6.788 6.788 0 0 1-.193 1.504c-.121.513-.258.918-.309 1.138-2.146 9.303-2.41 21.268-3.45 31.927-.83 8.314-1.65 16.623-2.461 24.94-.382 3.806-.579 5.71-.95 9.519-.573 4.87-.849 7.302-1.404 12.173-.235 2.458-.35 3.69-.581 6.146 0 .966-.135 1.692-.4 2.17-.26.485-.8.72-1.618.715-1.192-.003-1.88-.542-2.125-1.447-.125-.475-.299-1.618-.453-3.38-.047-.726-.07-1.087-.114-1.81-3.208-21.967-5.796-44.046-8.619-66.074-.142-.096-.214-.142-.357-.24-.031.032-.07.113-.115.245a7644.442 7644.442 0 0 0-5.006 65.173c-.011.74-.028 1.948-.036 2.685.037 1.607-.091 2.823-.384 3.648-.304.858-2.903-2.5-2.987-2.866zM182.956 96.382c-.264-.498-.383-1.115-.377-1.85.012-.78.02-1.17.028-1.946.017-1.173.022-1.762.038-2.931.072-5.117-.037-10.949-.213-17.33-.188-6.78-.19-12.621-.14-17.33.097-8.483-.012-17.046-.133-25.5-.12-8.462-.344-17.023-.25-25.512.006-.407.15-.748.44-1.02.292-.275.631-.4 1.01-.39 1.146.051 1.707.688 1.688 1.906-.157 11.242-.31 22.525-.214 33.787.05 7.286.091 14.562.134 21.848-.052 3.414.046 8.993.282 16.73.123 6.054.184 9.09.3 15.147-.006.246.16.315.263.371.05.037.443.15 1.153.182 2.206.108 3.306.164 5.512.293.77.045 1.137.794 1.106 2.262-.014.65-.115 1.192-.3 1.63-.191.437-.462.647-.816.622l-.622.086c-.282-.012-.423-.023-.708-.042-1.24.015-3.633-.08-7.176-.234-.413-.027-.747-.284-1.005-.779M211.518 91.885c-.725-.362-1.055-1.008-1.01-1.95.051-.827.067-1.241.111-2.065a12.59 12.59 0 0 1-.008-1.965c.005-.085.004-.128.009-.213.383-6.337.572-9.503.962-15.844.753-14.95 1.51-29.904 2.256-44.848.25-4.638.296-8.733.39-12.065.028-.85.295-1.583.747-2.142.445-.563 1.003-.828 1.666-.797 3.104.14 4.656.217 7.756.376 1.175.062 2.041.184 2.62.354.81.26 1.186.905 1.128 1.918-.042.576-.32 1.038-.847 1.367a3.428 3.428 0 0 1-1.654.565c-.853-.043-1.276-.066-2.121-.11-.792-.083-1.192-.125-1.98-.211-.801-.08-1.195-.126-1.993-.203-.582-.03-.981.041-1.193.216-.22.168-.348.508-.378 1.015-.191 3.4-.316 6.482-.392 9.231-.205 3.693-.313 5.535-.518 9.228-.308 5.429-.46 8.143-.764 13.568-.01.15.065.224.221.234.056.002.079.004.124.003l.124.007a86.304 86.304 0 0 1 6.551.109c1.292.065 1.91.612 1.842 1.628-.052.717-.216 1.2-.517 1.435-.298.245-.771.339-1.415.31-2.753-.146-4.126-.22-6.878-.345-.322-.016-.491.163-.51.52-.262 6.43-.398 9.647-.666 16.08-.143 5.76-.41 11.516-.739 17.271-.092 1.607-.133 2.406-.222 4.013 2.004.096 3.006.143 5.013.248 1.962.103 2.941.156 4.9.265l1.05.057c1.396.077 2.068.586 1.997 1.528-.077 1.16-.469 1.827-1.184 1.998-.948.236-2.862.273-5.725.128a833.67 833.67 0 0 0-4.883-.247c-1.864-.083-3.152-.31-3.87-.667"/>
    <path d="M253.796 41.567c1.75-1.311 3.1-2.45 3.792-3.37.717-.937 1.356-2.56 1.99-4.639.618-2.081 1.012-3.955 1.165-5.62.287-3.093-.135-6.374-.966-9.653-.477-1.881-1.222-3.528-2.352-4.796-1.123-1.255-2.439-1.945-3.934-2.05a3.55 3.55 0 0 0-.266-.017c-.095.071-.228.1-.404.086-.888 10.654-1.786 21.31-2.68 31.967.682.055 1.896-.587 3.652-1.908h.003zm7.553 52.149c-.382-2.02-.578-3.028-.973-5.044a232.474 232.474 0 0 1-3.37-17.987c-.39-2.64-.912-6.353-1.499-11.06-.677-5.458-1.391-9.914-2.11-13.352-.519.23-.779.348-1.31.584-.676.22-1.007.336-1.683.558-1.108 14.395-2.227 28.784-3.332 43.181-.062.673-.087 1.007-.142 1.68-.13 1.495-.908 2.19-2.35 2.088-.647-.042-1.152-.266-1.516-.666-.374-.4-.54-.86-.499-1.384.056-.676.077-1.004.136-1.682.672-7.546 1.345-15.086 2.035-22.635.445-4.347.67-6.516 1.112-10.86 1.156-11.118 2.278-22.242 3.17-33.38.465-5.794.697-8.685 1.158-14.472.059-.672.858-.957 2.412-.849 2.247.156 4.298.833 6.147 2.023a11.85 11.85 0 0 1 4.196 4.606c1.965 3.832 2.757 7.93 2.348 12.258-.32 3.437-1.494 7.179-3.577 11.006-.584 1.069-1.357 2.318-2.244 3.72-.888 1.392-2.148 2.482-2.277 2.812-1.616 4.175 3.523 18.083 5.139 27.149a3280.769 3280.769 0 0 1 3.746 20.637c.058.232.058.645-.006 1.245-.065.675-.264 1.24-.593 1.693-.328.463-.775.669-1.338.619-1.598-.127-2.524-.958-2.78-2.488z" fill-rule="nonzero"/>
    <g fill-rule="nonzero">
      <path d="M303.871 69.742c-.38-6.67-1.16-13.385-2.018-19.961-.962-7.387-2.291-15.006-3.433-22.238-.42-2.66-.95-5.74-1.762-9-.361-1.824-.544-2.74-.909-4.557.011.072-.122-.351-.39-1.273-.159-.555-.235-.835-.4-1.394-.682 1.792-1.279 4.259-1.777 7.391-.502 3.132-.941 6.847-1.371 11.049-.916 8.944-1.885 18-3.137 26.963-.308 1.653-.46 2.482-.754 4.135-.874 4.077-1.156 7.131-.92 9.167.026.28.048.417.074.703 3.785.636 8.01.74 12.742.373.298-.024.45-.036.747-.056.255.063.548.08.881.05 1.66-.123 2.473-.568 2.427-1.352zm1.741 22.488c-.43-.37-.658-.824-.687-1.373-.322-6.144-.484-9.216-.8-15.363-.05-.94-2.124-1.7-6.26-2.12-4.135-.42-7.555-.417-10.2-.08-.16.021-.356.641-.585 1.856-.222 1.209-.395 2.113-.475 2.665-.612 4.101-1.03 8.635-1.423 13.354-.092 1.06-.14 1.59-.227 2.646-.07.642-.398 1.012-.992 1.1a2.508 2.508 0 0 1-1.688-.321c-.535-.309-.844-.735-.922-1.276.03-.098.047-.145.076-.25-.01-.048-.013-.068-.021-.116.16-2.4.245-3.61.421-6.006.415-3.79.77-7.492 1.023-11.081.293-4.065.658-6.785.853-7.95.988-6.15 1.224-13.183 1.83-19.775.145-1.583.22-2.367.372-3.953.724-7.75 1.427-15.667 2.745-23.236.33-1.886.993-4.82 1.885-8.564.376-1.571.896-3.318 1.692-4.871.713-1.386 1.494-2.139 2.093-2.182 1.591-.142 2.846.17 3.507.902.541.592 1.546 4.48 2.924 11.451 1.392 7.03 2.593 14.1 3.626 21.207.88 6.453 1.72 12.914 2.521 19.389.127 3.367.589 8.439 1.318 15.224.734 6.864 1.126 11.988 1.246 15.348.01.191.01.28.016.474.03.863-.021 1.713-.256 2.356-.214.62-.972.988-2.088 1.044a2.058 2.058 0 0 1-1.524-.5zM333.515 53.791s.487-.35 1.348-.702c.17-.074.55-.342 1.067-.823.431-.286.643-.427 1.074-.706 6.292-4.047 10.54-10.155 11.143-17.092.359-4.045-.41-7.981-2.532-11.566-1.119-1.892-2.955-3.465-5.407-4.658-2.452-1.19-8.256-2.448-8.83-1.969-1.47 1.23.13 12.457.33 18.676.197 6.212.39 12.446.204 18.67.111.09.166.139.284.235.88-.042 1.32-.065 1.32-.065zm-6.164 39.396c.099-3.628.14-6.862.125-9.7-.005-3.928-.004-5.895-.014-9.824.084-3.53.128-5.3.22-8.829-.03-2.626.009-5.579.08-8.84.197-9.004.241-18.042-.129-27.065a706.559 706.559 0 0 0-.077-3.931c-.231-4.297-.327-7.792-.276-10.482.203-.176.305-.255.511-.428.105-.145.479-.318.682-.526.123-.139.436-.33.839-.417.212-.046.613-.093 1.173-.076 3.891.123 7.405.862 10.483 2.21 3.075 1.338 5.518 3.115 7.29 5.29 3.465 4.257 4.817 8.976 4.287 14.04-.35 3.255-1.455 6.515-3.243 9.802-1.788 3.278-4.287 6.18-7.26 8.751-3.141 2.724-6.448 4.345-10.011 4.72-.077 4.843-.122 7.264-.212 12.103.013 2.364.022 3.544.029 5.903.06 5.964.004 11.937-.254 17.89-.051 1.162-.277 2.01-.67 2.538-.393.53-1.13.777-2.199.742-.983-.037-1.441-1.321-1.374-3.868v-.003zM369.436 56.264s.433-.303 1.169-.56c.152-.056.487-.28.968-.71.379-.239.568-.353.95-.591a23.832 23.832 0 0 0 11.092-15.86c.782-3.996.635-7.996-.639-11.803-.673-2.009-1.964-3.768-3.803-5.216-1.83-1.454-6.356-3.32-6.874-2.905-1.337 1.072-1.427 12.437-2.02 18.657-.6 6.22-1.205 12.448-2.119 18.644.083.105.122.154.202.262.714.044 1.074.079 1.074.079v.003zm-9.789 38.64c.523-3.62.957-6.836 1.29-9.678.478-3.905.717-5.868 1.193-9.793.505-3.513.746-5.27 1.256-8.78.291-2.616.684-5.564 1.138-8.805 1.25-8.951 2.396-17.97 3.204-27.007.165-1.568.247-2.357.418-3.93.338-4.3.689-7.8 1.055-10.48.187-.144.28-.22.461-.366.112-.13.43-.272.615-.453.117-.126.395-.285.729-.321.177-.026.508-.033.953.046 3.128.532 5.87 1.652 8.194 3.317 2.321 1.662 4.077 3.692 5.245 6.052 2.278 4.609 2.792 9.464 1.743 14.463-.67 3.202-1.963 6.334-3.81 9.422-1.847 3.078-4.217 5.705-6.93 7.954-2.876 2.38-5.739 3.652-8.665 3.639-.654 4.82-.984 7.233-1.645 12.057-.282 2.35-.421 3.526-.7 5.883-.683 5.955-1.455 11.908-2.385 17.814-.188 1.154-.474 1.978-.856 2.46-.381.484-1 .653-1.861.508-.788-.139-1.003-1.466-.642-4.004v.003z"/>
    </g>
  </g>
</svg>
