<?xml version="1.0" encoding="UTF-8"?>
<svg width="128px" height="99px" viewBox="0 0 128 99" version="1.1" xmlns="http://www.w3.org/2000/svg" xmlns:xlink="http://www.w3.org/1999/xlink">
    <!-- Generator: Sketch 51.2 (57519) - http://www.bohemiancoding.com/sketch -->
    <title>Group 23</title>
    <desc>Created with Sketch.</desc>
    <defs>
        <polygon id="path-1" points="-5.95259698e-05 0 24.0002015 0 24.0002015 45.0001242 -5.95259698e-05 45.0001242"></polygon>
        <polygon id="path-3" points="-0.000258503124 0.000110048308 11 0.000110048308 11 45.0004497 -0.000258503124 45.0004497"></polygon>
    </defs>
    <g id="Welcome" stroke="none" stroke-width="1" fill="none" fill-rule="evenodd">
        <g id="Mobile-Portrait---Home" transform="translate(-39.000000, -20.000000)">
            <g id="Group-23" transform="translate(39.000000, 20.000000)">
                <path d="M4.5586,42.4385 C2.0796,36.5345 1.1856,29.7925 0.4546,23.4365 C0.2426,21.5845 0.1186,19.8945 0.0376,18.4425 C-0.0624,16.6875 0.0466,14.7205 0.2646,12.6825 C0.3686,11.6565 0.5036,10.7055 0.7256,9.9095 C0.9436,9.1155 1.2756,8.2665 1.7046,7.3715 C2.4696,5.7605 3.6516,4.5115 5.2326,3.7605 C6.0756,3.3615 7.0026,3.1215 7.9686,3.0265 C9.1756,2.9105 9.8086,3.1805 9.8656,3.8305 C9.9066,4.2865 9.6286,4.5455 9.0236,4.6025 C8.8616,4.6205 8.5756,4.5895 8.1636,4.5115 C7.8226,4.4985 7.6526,4.4915 7.3106,4.4795 C5.9826,4.6075 4.8646,5.2455 4.0276,6.3715 C3.4186,7.1905 2.8356,8.6305 2.4466,10.5325 C2.1346,12.0615 2.0736,13.8695 2.0796,15.7255 C2.0846,16.7535 2.1236,18.4635 2.2476,20.8035 C2.3836,22.3155 2.4496,23.0735 2.5846,24.5865 C2.7146,25.8465 2.7806,26.4765 2.9116,27.7365 C3.3526,31.1405 3.8106,34.5325 4.7666,37.7855 C5.3106,39.6335 5.9506,41.1865 6.5826,42.3945 C7.2196,43.5985 8.0096,44.5545 8.9496,45.2735 C9.9716,46.0505 11.0206,46.3925 12.1116,46.2905 C14.0956,46.0975 16.3286,44.5785 16.6486,42.9805 C16.7936,42.2525 16.4056,40.5505 16.0826,38.9275 C15.9196,38.1125 15.6986,37.2855 15.4296,36.6155 C15.1836,36.0015 14.8506,35.6825 14.5456,35.7115 C14.1186,35.7965 13.8986,35.8385 13.4676,35.9245 C12.9916,36.0165 12.7546,36.0585 12.2766,36.1525 C11.3996,36.2345 10.9336,35.9525 10.8746,35.3045 C10.8416,35.0005 11.3526,34.6585 12.3996,34.2925 C13.4446,33.9225 14.3326,33.7095 15.0586,33.6445 C15.6716,33.5895 16.1416,33.7705 16.4636,34.1855 C16.7856,34.6015 16.9776,35.1705 17.0376,35.8975 C17.1026,36.7395 17.4086,38.4705 18.0196,40.9575 C18.5346,43.0425 18.8906,44.7535 18.9936,46.0165 C19.0406,46.6265 18.8206,46.9545 18.3366,46.9935 C17.4376,47.0705 16.9556,46.6915 16.8846,45.8495 C16.9016,45.7765 16.9096,45.7445 16.9256,45.6715 C16.9226,45.6265 16.9176,45.6055 16.9156,45.5585 C14.8826,47.0075 13.0536,47.8205 11.4136,47.9775 C8.0846,48.2935 5.7376,45.2465 4.5586,42.4385" id="Fill-1" fill="#231F20"></path>
                <path d="M33.7153,44.5254 C33.3783,43.5324 33.2063,43.0364 32.8663,42.0404 C31.7643,39.1254 30.7663,36.1374 29.8973,33.1794 C29.5123,31.8724 28.9783,30.0314 28.3433,27.6944 C27.6073,24.9784 26.9343,22.7714 26.3303,21.0874 C26.0943,21.2414 25.9783,21.3184 25.7423,21.4714 C25.4353,21.6324 25.2823,21.7064 24.9753,21.8654 C25.5233,29.2164 26.0673,36.5694 26.6133,43.9204 C26.6383,44.2644 26.6493,44.4364 26.6743,44.7784 C26.7253,45.5444 26.4013,45.9494 25.6983,45.9964 C25.3863,46.0184 25.1263,45.9384 24.9183,45.7614 C24.7103,45.5844 24.5953,45.3634 24.5753,45.0944 C24.5493,44.7524 24.5363,44.5814 24.5133,44.2374 C24.2733,40.3774 24.0323,36.5144 23.7953,32.6544 C23.6823,30.4284 23.6253,29.3164 23.5133,27.0894 C23.2303,21.3904 22.9343,15.6934 22.5293,9.9984 C22.3173,7.0424 22.2143,5.5654 22.0013,2.6054 C21.9763,2.2604 22.3413,2.0644 23.0973,2.0144 C24.1913,1.9404 25.2273,2.1424 26.2043,2.6204 C27.1833,3.0934 27.9703,3.7824 28.5713,4.6634 C29.8003,6.4654 30.4943,8.4854 30.6223,10.7004 C30.7233,12.4614 30.4403,14.4304 29.7263,16.5044 C29.5303,17.0874 29.2493,17.7694 28.9273,18.5374 C28.6093,19.3044 28.0803,19.9404 28.0443,20.1144 C27.5773,22.3384 31.0963,29.0114 32.5553,33.4904 C33.6793,36.8774 34.7973,40.2694 35.9053,43.6624 C35.9493,43.7764 35.9813,43.9864 35.9953,44.2934 C36.0163,44.6344 35.9613,44.9374 35.8403,45.1934 C35.7153,45.4464 35.5173,45.5814 35.2443,45.5984 C34.4633,45.6354 33.9563,45.2804 33.7153,44.5254 M26.3603,18.7824 C27.0863,18.0054 27.6393,17.3454 27.8983,16.8434 C28.1623,16.3274 28.3453,15.4724 28.4833,14.3894 C28.6223,13.3094 28.6663,12.3464 28.6153,11.5044 C28.5173,9.9384 28.0783,8.3294 27.4403,6.7424 C27.0763,5.8334 26.6003,5.0584 25.9773,4.5024 C25.3533,3.9494 24.6853,3.6924 23.9713,3.7404 C23.9213,3.7434 23.8963,3.7454 23.8473,3.7484 C23.8063,3.7894 23.7463,3.8124 23.6623,3.8214 C24.0353,9.2064 24.4083,14.5884 24.7803,19.9774 C25.1063,19.9584 25.6333,19.5554 26.3603,18.7824" id="Fill-3" fill="#231F20"></path>
                <path d="M40.1606,18.79 C40.1236,17.874 40.1046,17.417 40.0616,16.502 C39.9246,13.299 40.0166,10.503 40.3176,8.126 C40.5046,6.637 40.7876,5.396 41.1836,4.428 C41.5796,3.456 42.1986,2.674 42.8646,2.071 C43.5416,1.455 44.4466,1.038 45.5676,1.005 C46.5636,0.971 47.4866,1.123 48.3246,1.46 C49.1636,1.8 49.8896,2.252 50.4136,2.811 C50.8816,3.308 51.3146,4.029 51.7066,4.899 C52.0966,5.766 52.4016,6.598 52.6266,7.394 C52.8496,8.466 52.9556,9.002 53.1756,10.074 C54.0906,15.816 54.8566,21.56 54.9756,27.379 C54.9756,27.447 54.9776,27.484 54.9796,27.552 C55.0146,29.457 55.0016,31.219 54.9586,32.816 C54.9106,34.72 54.7206,36.743 54.4286,38.838 C54.2856,39.86 54.0886,40.771 53.8146,41.541 C53.5396,42.311 53.1716,43.081 52.7346,43.853 C51.9516,45.229 50.8196,45.977 49.3746,45.999 C40.1546,46.159 40.4596,24.128 40.1606,18.79 M51.0966,43.291 C51.5806,42.574 51.9366,41.573 52.1866,40.317 C52.7186,37.647 53.1086,34.982 53.1796,32.452 C53.2356,30.417 53.2096,28.389 53.1666,26.443 C53.1646,26.352 53.1626,26.306 53.1616,26.214 C53.0886,23.926 53.0516,22.781 52.9766,20.494 C52.8506,18.436 52.5746,15.74 52.0686,12.504 C51.7116,10.199 50.9636,7.799 49.8636,5.401 C49.4316,4.46 48.8576,3.727 48.1606,3.214 C47.4606,2.703 46.7166,2.456 45.9296,2.481 C45.2226,2.504 44.6146,2.831 44.0986,3.458 C43.5836,4.088 43.1766,4.964 42.8946,6.078 C42.2426,8.65 41.9676,11.073 41.9416,13.219 C41.9186,15.063 41.9076,17.018 41.9886,19 C42.0356,20.121 42.0566,20.681 42.1016,21.8 C42.2596,25.062 42.7436,28.288 43.2606,31.491 C43.6596,33.945 44.1526,36.094 44.6856,37.911 C45.2206,39.721 45.9266,41.249 46.7166,42.477 C47.5426,43.756 48.4416,44.423 49.4446,44.394 C50.0616,44.38 50.6136,44.011 51.0966,43.291" id="Fill-5" fill="#231F20"></path>
                <g id="Group-9" transform="translate(60.000000, 0.000000)">
                    <mask id="mask-2" fill="white">
                        <use xlink:href="#path-1"></use>
                    </mask>
                    <g id="Clip-8"></g>
                    <path d="M6.002,44.8877 C6.002,44.8877 6.002,44.4667 6.003,43.6327 C6.005,43.3577 6.003,43.2177 6.005,42.9427 C6.04,42.7887 6.063,42.5997 6.063,42.3717 L6.063,42.0857 C5.649,39.3197 5.441,37.9357 5.021,35.1737 C4.746,33.7257 4.572,32.6747 4.49,32.0347 C4.114,29.0757 3.72,26.0867 3.346,23.1237 C2.809,18.8637 2.205,14.5937 1.597,10.3347 C1.52,9.8117 1.481,9.5467 1.402,9.0237 C0.766,4.7207 0.003,2.1617 -6.83821896e-15,1.9497 C-0.005,1.8477 0.306,1.5807 0.551,1.4287 C0.797,1.2767 1.044,1.1987 1.29,1.1967 C1.909,1.1937 2.334,1.2857 2.56,1.4747 C2.788,1.6637 2.902,2.0097 2.903,2.5007 C2.905,2.7077 2.905,2.8117 2.905,3.0157 C2.907,3.2417 2.908,3.3577 2.908,3.5847 C2.908,3.8347 2.91,3.9627 2.91,4.2157 C4.154,15.8757 5.451,27.5287 6.822,39.1787 L6.938,39.1787 C7.222,36.1547 7.443,33.1247 7.67,30.0957 C7.72,29.4337 7.746,29.1037 7.796,28.4427 C8.093,23.6057 8.273,21.0467 8.305,20.7857 C8.452,19.6747 8.676,17.9717 9.053,15.7637 C9.355,13.9107 9.508,12.9897 9.815,11.1407 C9.895,10.0897 9.933,9.5647 10.019,8.5097 C10.06,8.0547 10.094,7.6677 10.118,7.3427 C10.139,7.0227 10.172,6.7827 10.214,6.6297 C10.243,6.3317 10.256,6.1867 10.281,5.8877 C10.281,5.8507 10.315,5.7927 10.375,5.7177 C10.439,5.6407 10.553,5.5227 10.654,5.4917 C11.053,5.3817 11.586,5.6907 11.758,5.8987 C11.848,6.0157 11.96,6.1417 11.997,6.2767 C12.037,6.4107 12.055,6.5697 12.053,6.7617 C12.1,6.9667 12.124,7.0707 12.169,7.2777 C13.109,12.5187 13.827,17.8147 14.559,23.0787 C15.329,28.6627 16.134,34.2827 16.612,39.9147 C16.678,39.9597 16.715,39.9837 16.782,40.0317 C17.653,32.3317 18.551,24.6377 19.471,16.9457 C19.587,15.4997 19.927,13.2017 20.427,10.1077 C20.929,6.9897 21.187,4.3957 21.236,2.4127 C21.215,2.1857 21.207,2.0727 21.191,1.8417 C21.195,1.6347 21.197,1.5327 21.202,1.3287 C21.215,0.8307 21.35,0.4857 21.602,0.2827 C21.857,0.0787 22.269,-0.0153 22.849,0.0017 C23.096,0.0067 23.351,0.1097 23.616,0.3067 C23.878,0.5047 24.006,0.7207 24,0.9487 C23.99,1.3277 23.295,1.9217 23.288,2.0147 C23.283,2.0277 23.345,2.1667 23.338,2.3587 C23.333,2.5857 23.295,2.8237 23.226,3.0697 C23.158,3.3117 23.084,3.5017 23.059,3.6057 C21.87,7.9917 21.628,13.6587 20.997,18.6987 C20.495,22.6287 19.999,26.5577 19.51,30.4907 C19.276,32.2887 19.159,33.1897 18.933,34.9907 C18.598,37.2917 18.432,38.4427 18.105,40.7437 C17.961,41.9067 17.893,42.4897 17.749,43.6507 C17.739,44.1077 17.664,44.4507 17.524,44.6727 C17.387,44.9027 17.108,45.0077 16.688,44.9997 C16.072,44.9887 15.726,44.7277 15.607,44.2967 C15.549,44.0697 15.467,43.5287 15.404,42.6927 C15.387,42.3487 15.379,42.1767 15.364,41.8337 C13.909,31.4047 12.777,20.9237 11.524,10.4697 C11.452,10.4227 11.417,10.4007 11.343,10.3527 C11.319,10.3747 11.308,10.3877 11.283,10.4097 L11.283,10.4677 C10.171,20.8537 9.106,31.2417 8.09,41.6387 C8.09,42.0507 8.085,42.2557 8.081,42.6667 C8.076,44.1527 7.747,44.8957 7.097,44.8937 C6.364,44.8877 6.002,44.8877 6.002,44.8877" id="Fill-7" fill="#231F20" mask="url(#mask-2)"></path>
                </g>
                <path d="M90.2207,45.4268 C90.0587,45.1888 89.9897,44.8958 90.0007,44.5468 C90.0177,44.1778 90.0267,43.9928 90.0407,43.6258 C90.0647,43.0708 90.0747,42.7918 90.0977,42.2388 C90.1997,39.8158 90.1957,37.0528 90.1547,34.0288 C90.1107,30.8158 90.1727,28.0498 90.2577,25.8198 C90.4137,21.8028 90.4397,17.7458 90.4557,13.7408 C90.4737,9.7338 90.4267,5.6758 90.5807,1.6558 C90.5887,1.4638 90.6847,1.3038 90.8717,1.1778 C91.0607,1.0498 91.2787,0.9918 91.5187,1.0008 C92.2467,1.0348 92.5967,1.3408 92.5717,1.9168 C92.3467,7.2398 92.1247,12.5828 92.0607,17.9178 C92.0117,21.3688 91.9557,24.8158 91.9027,28.2668 C91.8317,29.8828 91.8317,32.5258 91.8967,36.1928 C91.9077,39.0608 91.9117,40.4988 91.9187,43.3678 C91.9117,43.4858 92.0177,43.5188 92.0817,43.5468 C92.1137,43.5648 92.3627,43.6208 92.8147,43.6418 C94.2167,43.7118 94.9147,43.7468 96.3177,43.8258 C96.8077,43.8548 97.0327,44.2118 96.9957,44.9068 C96.9807,45.2148 96.9097,45.4708 96.7867,45.6758 C96.6607,45.8818 96.4867,45.9788 96.2607,45.9648 C96.1007,45.9788 96.0257,45.9858 95.8647,45.9998 C95.6857,45.9918 95.5957,45.9858 95.4137,45.9738 C94.6257,45.9708 93.1037,45.9058 90.8517,45.8038 C90.5887,45.7878 90.3787,45.6628 90.2207,45.4268" id="Fill-10" fill="#231F20"></path>
                <path d="M104.4658,46.3594 C104.1248,46.1614 103.9748,45.8154 104.0038,45.3164 C104.0338,44.8794 104.0448,44.6594 104.0728,44.2234 C104.0528,43.9154 104.0558,43.5674 104.0848,43.1814 C104.0878,43.1364 104.0878,43.1144 104.0918,43.0684 C104.3248,39.7134 104.4408,38.0374 104.6778,34.6794 C105.1578,26.7624 105.6398,18.8434 106.1168,10.9294 C106.2748,8.4734 106.3298,6.3024 106.4028,4.5384 C106.4218,4.0884 106.5548,3.7014 106.7738,3.4094 C106.9878,3.1154 107.2548,2.9794 107.5698,3.0024 C109.0368,3.1054 109.7718,3.1614 111.2388,3.2734 C111.7948,3.3174 112.2038,3.3894 112.4768,3.4854 C112.8588,3.6304 113.0308,3.9764 112.9948,4.5124 C112.9708,4.8174 112.8348,5.0594 112.5828,5.2294 C112.3348,5.4024 112.0698,5.4994 111.7948,5.5134 C111.3918,5.4824 111.1918,5.4664 110.7908,5.4354 C110.4168,5.3834 110.2278,5.3584 109.8558,5.3044 C109.4768,5.2554 109.2898,5.2274 108.9128,5.1784 C108.6378,5.1584 108.4478,5.1924 108.3468,5.2824 C108.2398,5.3704 108.1768,5.5484 108.1578,5.8174 C108.0398,7.6174 107.9548,9.2504 107.8968,10.7074 C107.7698,12.6624 107.7028,13.6374 107.5748,15.5924 C107.3838,18.4664 107.2898,19.9044 107.1008,22.7774 C107.0948,22.8564 107.1298,22.8964 107.2038,22.9034 C107.2308,22.9044 107.2408,22.9064 107.2628,22.9064 C107.2888,22.9084 107.2968,22.9094 107.3208,22.9114 C108.2788,22.9044 109.3138,22.9414 110.4228,23.0294 C111.0338,23.0764 111.3218,23.3714 111.2818,23.9094 C111.2508,24.2894 111.1698,24.5444 111.0258,24.6654 C110.8818,24.7924 110.6568,24.8384 110.3528,24.8164 C109.0498,24.7134 108.4008,24.6624 107.0978,24.5694 C106.9448,24.5584 106.8638,24.6524 106.8518,24.8404 C106.6748,28.2464 106.5838,29.9504 106.4028,33.3574 C106.2878,36.4094 106.1138,39.4584 105.9108,42.5054 C105.8538,43.3564 105.8278,43.7794 105.7728,44.6304 C106.7208,44.6994 107.1948,44.7334 108.1448,44.8074 C109.0728,44.8804 109.5358,44.9184 110.4628,44.9934 C110.6598,45.0094 110.7598,45.0174 110.9598,45.0344 C111.6208,45.0874 111.9348,45.3634 111.8938,45.8624 C111.8468,46.4754 111.6558,46.8264 111.3168,46.9104 C110.8648,47.0264 109.9578,47.0284 108.6038,46.9244 C107.6798,46.8524 107.2198,46.8164 106.2928,46.7494 C105.4098,46.6874 104.8028,46.5544 104.4658,46.3594" id="Fill-12" fill="#231F20"></path>
                <g id="Group-16" transform="translate(117.000000, 3.000000)">
                    <mask id="mask-4" fill="white">
                        <use xlink:href="#path-3"></use>
                    </mask>
                    <g id="Clip-15"></g>
                    <path d="M8.6006,43.6973 C8.4426,42.6623 8.3606,42.1443 8.1956,41.1103 C7.6206,38.0553 7.1486,34.9463 6.7946,31.8843 C6.6376,30.5303 6.4276,28.6273 6.1966,26.2163 C5.9296,23.4193 5.6386,21.1343 5.3356,19.3703 C5.0966,19.4823 4.9766,19.5413 4.7316,19.6573 C4.4196,19.7623 4.2676,19.8193 3.9546,19.9273 C3.3316,27.2773 2.7046,34.6243 2.0826,41.9753 C2.0486,42.3183 2.0356,42.4893 2.0046,42.8333 C1.9336,43.5963 1.5716,43.9443 0.9116,43.8803 C0.6156,43.8523 0.3846,43.7333 0.2216,43.5253 C0.0536,43.3173 -0.0184,43.0813 0.0036,42.8133 C0.0356,42.4683 0.0476,42.3013 0.0796,41.9543 C0.4486,38.1023 0.8176,34.2543 1.1936,30.3993 C1.4326,28.1813 1.5526,27.0743 1.7896,24.8573 C2.4086,19.1833 3.0116,13.5063 3.5096,7.8183 C3.7686,4.8603 3.8986,3.3843 4.1566,0.4293 C4.1886,0.0873 4.5566,-0.0517 5.2676,0.0173 C6.2966,0.1173 7.2316,0.4813 8.0696,1.1063 C8.9066,1.7313 9.5296,2.5353 9.9546,3.4993 C10.8256,5.4753 11.1556,7.5783 10.9326,9.7873 C10.7586,11.5423 10.1916,13.4443 9.2046,15.3833 C8.9296,15.9243 8.5656,16.5553 8.1476,17.2643 C7.7296,17.9683 7.1436,18.5143 7.0816,18.6813 C6.3076,20.8023 8.5516,27.9593 9.2196,32.6083 C9.7466,36.1343 10.2636,39.6633 10.7706,43.1933 C10.7956,43.3123 10.7926,43.5233 10.7586,43.8303 C10.7226,44.1753 10.6276,44.4613 10.4736,44.6903 C10.3196,44.9243 10.1126,45.0253 9.8546,44.9953 C9.1236,44.9163 8.7056,44.4823 8.6006,43.6973 Z M5.7246,17.0983 C6.5186,16.4503 7.1326,15.8863 7.4506,15.4273 C7.7796,14.9603 8.0786,14.1453 8.3786,13.0993 C8.6716,12.0523 8.8636,11.1083 8.9456,10.2673 C9.0976,8.7063 8.9336,7.0433 8.5866,5.3783 C8.3876,4.4223 8.0676,3.5833 7.5706,2.9313 C7.0776,2.2873 6.4926,1.9263 5.8236,1.8603 C5.7756,1.8533 5.7536,1.8523 5.7046,1.8493 C5.6616,1.8843 5.6016,1.8973 5.5226,1.8893 C5.0406,7.2683 4.5556,12.6503 4.0716,18.0313 C4.3766,18.0653 4.9256,17.7513 5.7226,17.0983 L5.7246,17.0983 Z" id="Fill-14" fill="#231F20" mask="url(#mask-4)"></path>
                </g>
                <path d="M54.103,97.3721 C53.882,97.2071 53.76,96.9991 53.736,96.7431 C53.468,93.8831 53.333,92.4531 53.068,89.5911 C53.026,89.1541 51.977,88.8331 49.902,88.7041 C47.829,88.5761 46.121,88.6331 44.805,88.8331 C44.725,88.8461 44.638,89.1391 44.545,89.7091 C44.455,90.2761 44.384,90.7001 44.354,90.9591 C44.12,92.8821 43.99,95.0031 43.875,97.2101 C43.849,97.7061 43.834,97.9541 43.808,98.4481 C43.784,98.7481 43.627,98.9271 43.332,98.9771 C43.037,99.0311 42.754,98.9881 42.483,98.8541 C42.21,98.7201 42.048,98.5261 42,98.2751 C42.013,98.2281 42.021,98.2071 42.034,98.1571 C42.027,98.1351 42.026,98.1261 42.021,98.1031 C42.06,96.9811 42.08,96.4161 42.127,95.2961 C42.268,93.5201 42.38,91.7891 42.444,90.1101 C42.52,88.2101 42.655,86.9351 42.731,86.3901 C43.118,83.5051 43.114,80.2211 43.301,77.1371 C43.346,76.3961 43.37,76.0291 43.418,75.2871 C43.645,71.6611 43.858,67.9571 44.384,64.4051 C44.516,63.5201 44.797,62.1421 45.177,60.3811 C45.337,59.6421 45.567,58.8181 45.937,58.0811 C46.27,57.4241 46.647,57.0591 46.945,57.0291 C47.738,56.9371 48.37,57.0621 48.713,57.3931 C48.994,57.6601 49.564,59.4571 50.374,62.6861 C51.192,65.9421 51.916,69.2201 52.556,72.5181 C53.108,75.5131 53.641,78.5131 54.154,81.5181 C54.276,83.0871 54.596,85.4451 55.079,88.5981 C55.565,91.7871 55.851,94.1711 55.969,95.7351 C55.977,95.8241 55.979,95.8661 55.985,95.9571 C56.016,96.3581 56.004,96.7561 55.898,97.0601 C55.802,97.3511 55.43,97.5361 54.873,97.5801 C54.581,97.6071 54.321,97.5361 54.103,97.3721 M52.728,86.5931 C52.43,83.5101 51.936,80.4131 51.406,77.3811 C50.812,73.9761 50.036,70.4691 49.357,67.1391 C49.106,65.9131 48.797,64.4961 48.346,62.9991 C48.139,62.1601 48.035,61.7391 47.826,60.9031 C47.832,60.9361 47.76,60.7431 47.614,60.3201 C47.528,60.0661 47.486,59.9371 47.396,59.6821 C47.094,60.5221 46.846,61.6741 46.656,63.1331 C46.465,64.5921 46.314,66.3181 46.177,68.2711 C45.883,72.4291 45.565,76.6381 45.108,80.8091 C44.986,81.5791 44.927,81.9661 44.811,82.7361 C44.455,84.6391 44.37,86.0581 44.519,86.9961 C44.537,87.1251 44.55,87.1881 44.567,87.3201 C46.42,87.5541 48.479,87.5331 50.777,87.2871 C50.921,87.2711 50.995,87.2641 51.14,87.2491 C51.265,87.2741 51.407,87.2771 51.569,87.2591 C52.375,87.1741 52.763,86.9551 52.728,86.5931" id="Fill-17" fill="#231F20"></path>
                <path d="M64.2998,96.0439 C64.2868,94.1869 64.2538,92.5309 64.2008,91.0789 C64.1358,89.0699 64.1048,88.0639 64.0368,86.0539 C64.0188,84.2459 64.0108,83.3409 63.9958,81.5329 C63.9398,80.1899 63.9098,78.6789 63.8908,77.0089 C63.8358,72.3989 63.7108,67.7739 63.3948,63.1649 C63.3578,62.3589 63.3368,61.9589 63.2958,61.1549 C63.1198,58.9609 63.0198,57.1749 62.9998,55.7979 C63.0908,55.7039 63.1368,55.6619 63.2288,55.5689 C63.2748,55.4929 63.4448,55.3979 63.5348,55.2879 C63.5888,55.2149 63.7308,55.1109 63.9148,55.0599 C64.0118,55.0319 64.1958,55.0019 64.4548,54.9999 C66.2518,54.9929 67.8848,55.3099 69.3258,55.9429 C70.7658,56.5729 71.9208,57.4389 72.7738,58.5199 C74.4408,60.6359 75.1398,63.0249 74.9768,65.6259 C74.8678,67.2969 74.4108,68.9849 73.6388,70.6979 C72.8668,72.4069 71.7618,73.9369 70.4318,75.3049 C69.0268,76.7549 67.5278,77.6439 65.8898,77.8979 C65.9328,80.3779 65.9498,81.6169 65.9868,84.0949 C66.0308,85.3029 66.0548,85.9059 66.0958,87.1129 C66.2188,90.1639 66.2898,93.2209 66.2668,96.2709 C66.2618,96.8659 66.1708,97.3049 65.9978,97.5809 C65.8248,97.8589 65.4898,97.9979 64.9958,97.9999 C64.5418,97.9979 64.3098,97.3499 64.2998,96.0449 L64.2998,96.0439 Z M66.5088,75.7789 C66.5088,75.7789 66.7278,75.5919 67.1188,75.3959 C67.1958,75.3559 67.3668,75.2109 67.5978,74.9559 C67.7918,74.8019 67.8878,74.7259 68.0818,74.5749 C70.9188,72.3929 72.7798,69.1919 72.9458,65.6329 C73.0468,63.5569 72.6288,61.5569 71.5918,59.7609 C71.0458,58.8129 70.1738,58.0399 69.0238,57.4749 C67.8728,56.9089 65.1758,56.3689 64.9188,56.6249 C64.2608,57.2799 65.1788,62.9949 65.3708,66.1729 C65.5628,69.3479 65.7518,72.5329 65.7668,75.7209 C65.8198,75.7649 65.8458,75.7889 65.9018,75.8359 C66.3058,75.7989 66.5088,75.7789 66.5088,75.7789 Z" id="Fill-19" fill="#231F20"></path>
                <path d="M80.0557,95.9961 C80.2697,94.1781 80.4427,92.5621 80.5687,91.1371 C80.7517,89.1771 80.8437,88.1911 81.0267,86.2231 C81.2327,84.4581 81.3277,83.5761 81.5367,81.8131 C81.6447,80.5011 81.8007,79.0211 81.9847,77.3931 C82.4897,72.8981 82.9357,68.3721 83.2017,63.8431 C83.2597,63.0561 83.2887,62.6601 83.3517,61.8711 C83.4527,59.7171 83.5767,57.9621 83.7227,56.6151 C83.8207,56.5411 83.8687,56.5011 83.9637,56.4251 C84.0217,56.3581 84.1897,56.2811 84.2857,56.1871 C84.3467,56.1231 84.4927,56.0391 84.6727,56.0151 C84.7677,55.9991 84.9457,55.9891 85.1867,56.0211 C86.8797,56.2321 88.3757,56.7441 89.6587,57.5361 C90.9387,58.3261 91.9207,59.3091 92.5937,60.4681 C93.9077,62.7311 94.2747,65.1481 93.8047,67.6651 C93.5037,69.2761 92.8667,70.8641 91.9307,72.4391 C90.9937,74.0101 89.7687,75.3641 88.3517,76.5351 C86.8487,77.7751 85.3307,78.4601 83.7567,78.5051 C83.4947,80.9251 83.3627,82.1361 83.0977,84.5581 C82.9907,85.7371 82.9377,86.3271 82.8317,87.5101 C82.5767,90.4981 82.2727,93.4861 81.8827,96.4531 C81.8037,97.0331 81.6647,97.4501 81.4687,97.6981 C81.2727,97.9451 80.9427,98.0411 80.4767,97.9841 C80.0497,97.9291 79.9097,97.2681 80.0557,95.9941 L80.0557,95.9961 Z M84.5977,76.5171 C84.5977,76.5171 84.8257,76.3571 85.2157,76.2161 C85.2967,76.1851 85.4727,76.0681 85.7237,75.8441 C85.9227,75.7191 86.0227,75.6581 86.2237,75.5321 C89.1567,73.7591 91.3047,70.8621 91.8947,67.4141 C92.2407,65.4031 92.0857,63.4071 91.3287,61.5261 C90.9287,60.5351 90.2017,59.6791 89.1847,58.9871 C88.1717,58.2921 85.7017,57.4381 85.4307,57.6551 C84.7317,58.2151 84.8967,63.8941 84.6947,67.0141 C84.4897,70.1321 84.2807,73.2551 83.9047,76.3671 C83.9517,76.4181 83.9737,76.4411 84.0187,76.4941 C84.4037,76.5041 84.5977,76.5151 84.5977,76.5151 L84.5977,76.5171 Z" id="Fill-21" fill="#231F20"></path>
            </g>
        </g>
    </g>
</svg>