<?xml version="1.0" encoding="UTF-8"?>
<svg width="119px" height="32px" viewBox="0 0 119 32" version="1.1" xmlns="http://www.w3.org/2000/svg" xmlns:xlink="http://www.w3.org/1999/xlink">
    <!-- Generator: Sketch 52.2 (67145) - http://www.bohemiancoding.com/sketch -->
    <title>Group Copy</title>
    <desc>Created with Sketch.</desc>
    <g id="Welcome" stroke="none" stroke-width="1" fill="none" fill-rule="evenodd">
        <g id="Mobile-Portrait---Home" transform="translate(-100.000000, -23.000000)" fill="#4A4A4A">
            <g id="Group-Copy" transform="translate(160.270100, 39.044708) rotate(-1.000000) translate(-160.270100, -39.044708) translate(100.270100, 23.044708)">
                <g id="Page-1" transform="translate(0.745920, 0.575491)">
                    <path d="M2.90789308,26.4238486 C1.32685912,22.7191991 0.756403621,18.488062 0.290214154,14.4999192 C0.154868825,13.3375968 0.0756667434,12.2775345 0.0235337277,11.3663061 C-0.0396274259,10.2647323 0.0295490757,9.0305241 0.168904637,7.75176697 C0.235073464,7.10783226 0.321293452,6.51047144 0.462654129,6.01132079 C0.60200969,5.51318262 0.813549427,4.98062026 1.08724776,4.41869611 C1.5754935,3.4082451 2.32941711,2.62458871 3.33799045,2.15277491 C3.87536154,1.90269335 4.46687076,1.75183443 5.08344392,1.69209835 C5.85340846,1.61920008 6.25743933,1.78929604 6.29353142,2.19631137 C6.31959793,2.48284207 6.14214516,2.6458507 5.75616034,2.68128736 C5.65289686,2.6924246 5.47043131,2.67318755 5.20776111,2.62458871 C4.99020603,2.61547642 4.88192976,2.61142652 4.66337212,2.60433919 C3.81621062,2.68432479 3.10339188,3.08425279 2.56902847,3.79096101 C2.18103853,4.3052988 1.80908951,5.20943983 1.56045513,6.40213651 C1.36194865,7.36196372 1.32284889,8.4959368 1.32685912,9.66129663 C1.32986679,10.3062438 1.35493074,11.3794683 1.43413282,12.8475585 C1.52035281,13.7962484 1.56246025,14.2721121 1.64868024,15.2218146 C1.73189255,16.0125583 1.77399998,16.4074239 1.8572123,17.1981677 C2.13893109,19.3344919 2.43067547,21.4627164 3.04023073,23.503868 C3.38811835,24.6641654 3.79615946,25.6381673 4.19918777,26.3965118 C4.60522376,27.1518188 5.10951043,27.7522171 5.70904011,28.2027689 C6.36070281,28.6907823 7.03041155,28.9054272 7.72618679,28.8406287 C8.99141498,28.7201441 10.4160499,27.7663917 10.6205717,26.7640405 C10.7128071,26.3074139 10.4651752,25.2392517 10.2596508,24.2207009 C10.1553848,23.7094006 10.0140241,23.1900004 9.84258672,22.7698229 C9.68618767,22.385082 9.47364538,22.1846118 9.27914912,22.2028363 C9.00645335,22.2564976 8.86609523,22.2828219 8.59139434,22.3364832 C8.28761927,22.3941943 8.13623301,22.4205187 7.83145538,22.4792423 C7.27202802,22.5308786 6.9742683,22.3536953 6.93717365,21.9476924 C6.91611993,21.7563344 7.24195128,21.5416895 7.90965491,21.3118575 C8.57635597,21.0800005 9.14280124,20.9463537 9.60598303,20.9058546 C9.99698065,20.8714305 10.2967455,20.9848278 10.5022699,21.2450341 C10.7077943,21.5062529 10.8301063,21.8636569 10.8682035,22.3192711 C10.910311,22.8477835 11.1048072,23.9341702 11.4948023,25.4943957 C11.8236413,26.8035271 12.0502194,27.8767516 12.1163882,28.6695203 C12.146465,29.0522362 12.0061069,29.2577688 11.697319,29.2820683 C11.1238558,29.3306671 10.8160705,29.0927353 10.7709554,28.5642228 C10.7819836,28.5186614 10.7869963,28.4984119 10.7970219,28.4528504 C10.7950168,28.4245011 10.7920091,28.4113389 10.7910066,28.3819771 C9.49369654,29.2911805 8.32671903,29.8014684 7.28105104,29.8996786 C5.15763321,30.0981239 3.65981157,28.1855568 2.90789308,26.4238486 Z" id="Fill-6"></path>
                    <path d="M16.74949,11.2031374 C17.1498625,10.7626891 17.4546505,10.3880339 17.5971254,10.1029304 C17.7423055,9.8096028 17.8433003,9.32437864 17.9190465,8.70939585 C17.9956943,8.09624064 18.0200413,7.54979234 17.9920874,7.07187852 C17.937983,6.18275778 17.6963168,5.26896463 17.3446382,4.36796458 C17.144452,3.85167145 16.8820458,3.41213695 16.5384829,3.09596452 C16.1949201,2.78253346 15.8270103,2.63632656 15.4338517,2.66374035 C15.4058978,2.66556794 15.3923717,2.66648173 15.3653195,2.66830932 C15.342776,2.69115415 15.3094116,2.70486105 15.2634229,2.70943001 C15.4690196,5.7669819 15.6746162,8.8227062 15.8793112,11.8820857 C16.0587574,11.8711202 16.3491176,11.6426719 16.74949,11.2031374 M20.8019084,25.818345 C20.6161501,25.2545347 20.5214674,24.9730864 20.3339055,24.4074484 C19.7270347,22.752569 19.1769734,21.0565689 18.6981496,19.3770171 C18.4862408,18.6350171 18.1922736,17.5896377 17.8423986,16.26281 C17.4366157,14.721241 17.0660007,13.4684306 16.7332587,12.5116892 C16.6034082,12.5994133 16.5393847,12.6432754 16.4095341,12.7300857 C16.2400071,12.821465 16.1561453,12.8634995 15.9866182,12.953965 C16.288701,17.1272584 16.5880786,21.3014655 16.8892597,25.4747588 C16.9027858,25.6703105 16.909098,25.7680864 16.922624,25.9618106 C16.950578,26.3967761 16.7720335,26.627052 16.3851872,26.653552 C16.2129549,26.6663451 16.0695782,26.6206554 15.9550573,26.5201382 C15.8405363,26.4196209 15.7774146,26.2944313 15.7665937,26.1418278 C15.7521659,25.9471899 15.7449519,25.8503278 15.7323276,25.6547761 C15.5997718,23.4635001 15.4672161,21.2703965 15.3364638,19.0791205 C15.2742438,17.8153446 15.2426829,17.1839135 15.1813646,15.9201376 C15.0253636,12.6843961 14.8621487,9.4495683 14.639419,6.21656813 C14.5221928,4.53793011 14.4653832,3.69998179 14.3481571,2.01951618 C14.334631,1.82396445 14.5357189,1.71248168 14.9523227,1.6841541 C15.5546848,1.64211961 16.1254861,1.75634375 16.6638247,2.02774032 C17.2030651,2.29639551 17.6368019,2.68749898 17.9677404,3.18734383 C18.644947,4.21079216 19.0272846,5.35760257 19.0976203,6.61498194 C19.1535282,7.61467165 18.9975272,8.73315447 18.6043687,9.91012005 C18.4961599,10.2409132 18.3410607,10.6283615 18.1643197,11.0642408 C17.9884804,11.5001201 17.6972185,11.8610684 17.6773802,11.9597581 C17.4203844,13.2226202 19.3591248,17.0112066 20.162575,19.5533792 C20.7820702,21.476 21.3979584,23.4022759 22.0084362,25.3285519 C22.0327832,25.3934312 22.0499163,25.5122243 22.0580319,25.6867588 C22.0697545,25.880483 22.0390954,26.0522761 21.9723666,26.1975692 C21.9038344,26.3410347 21.7947239,26.4177933 21.6441334,26.4278451 C21.2140035,26.4488623 20.9344642,26.246914 20.8019084,25.818345" id="Fill-8"></path>
                    <path d="M29.3393566,26.5381082 C29.5886384,26.0883072 29.7714451,25.4603972 29.9002407,24.6724908 C30.1736197,22.9970576 30.3738761,21.3246433 30.4104374,19.7367553 C30.4395203,18.4598036 30.4262253,17.1868769 30.4037899,15.9662761 C30.402959,15.9089189 30.402128,15.8797372 30.4012971,15.82238 C30.3639048,14.3864382 30.3447932,13.6679642 30.30657,12.2330287 C30.2417567,10.9419892 30.0996661,9.24944954 29.8395821,7.21880445 C29.6559445,5.7728 29.2712196,4.26641957 28.7053499,2.76205168 C28.4834892,2.17137345 28.1885057,1.71150982 27.8295399,1.38950466 C27.4697432,1.06850576 27.0875111,0.91354077 26.6828437,0.929641028 C26.3188923,0.943728754 26.0064591,1.14900705 25.7413894,1.54245711 C25.4763198,1.93791971 25.2669231,2.48734102 25.1223397,3.186696 C24.7866402,4.8007469 24.6453805,6.32121505 24.6320855,7.66759915 C24.6204523,8.82480522 24.6146357,10.0514437 24.6561827,11.2951886 C24.6802799,11.9985687 24.6910821,12.3497555 24.7143484,13.0521293 C24.7957805,15.0998809 25.0442314,17.1234821 25.3101319,19.1340019 C25.5153739,20.6735891 25.7688104,22.0219857 26.0430204,23.1620853 C26.3180613,24.2981598 26.6811818,25.2571314 27.0875111,26.026925 C27.5121211,26.8299254 27.9741234,27.2485321 28.4901367,27.2304193 C28.8075555,27.2213629 29.0909058,26.9899217 29.3393566,26.5381082 Z M23.7138975,11.1633677 C23.6947859,10.5887898 23.6848146,10.3020039 23.6632102,9.72742596 C23.5925804,7.71791246 23.6399439,5.9629843 23.7944986,4.47169787 C23.8908876,3.53687662 24.036302,2.75903288 24.2398821,2.15124813 C24.4434622,1.54145085 24.761712,1.05039297 25.104059,0.672036895 C25.4522226,0.285630694 25.9175486,0.0240014955 26.4942204,0.00286990645 C27.0060791,-0.0182616826 27.4805454,0.0773336014 27.9118029,0.288649492 C28.3430604,0.501977916 28.7161522,0.785744969 28.9862074,1.13592559 C29.2263489,1.44786809 29.4490406,1.90068786 29.6509589,2.44709038 C29.8512153,2.9904741 30.0082628,3.51272623 30.1237633,4.0128405 C30.238433,4.68502629 30.293275,5.02111918 30.4062827,5.69431124 C30.8765944,9.29775031 31.2704596,12.9011894 31.3319491,16.5529292 C31.3319491,16.5961987 31.33278,16.6193428 31.333611,16.661606 C31.3518916,17.8570502 31.3452441,18.9629367 31.3228088,19.9651777 C31.2978806,21.1596157 31.2006607,22.4295235 31.0502607,23.7437071 C30.977138,24.3857049 30.8757634,24.9572641 30.7345037,25.4402718 C30.5932441,25.9232796 30.4037899,26.4062874 30.1794363,26.8913076 C29.7764307,27.754684 29.1947732,28.223604 28.4519135,28.2376917 C23.7105738,28.3383184 23.8676213,14.5132278 23.7138975,11.1633677 Z" id="Fill-10"></path>
                    <path d="M39.9463777,27.7154512 C40.0803003,27.4991176 40.1472616,27.4923656 40.1472616,27.6951952 C40.1472616,28.2346546 40.0822652,27.2678717 40.1472616,27.1521522 C40.170892,27.1100806 40.170892,27.034295 40.1472616,26.9247953 C39.9463777,26.6091091 39.8263692,24.1409229 39.5529587,22.4079096 C39.3745114,21.4987055 39.2618078,20.8396581 39.2085867,20.4378 C38.9643956,18.5812153 38.7076819,16.7055423 38.4645343,14.8459437 C38.1159881,12.1725823 37.7236126,9.49319308 37.3281065,6.82083634 C37.2780161,6.4923173 37.2529708,6.32655081 37.2018368,5.99803177 C36.7885903,3.29754496 36.2929033,1.69212162 36.2908162,1.55850378 C36.2876855,1.49521112 36.489091,1.32743534 36.6487544,1.23199403 C36.8084178,1.13655272 36.9691248,1.0873251 37.1287882,1.08632045 C37.5315991,1.08431116 37.8070968,1.14258059 37.9542375,1.26112875 C38.1024219,1.3796769 37.8582308,1.90510644 37.8582308,1.90510644 L37.8592743,2.22759761 L38.9017825,2.58525137 L38.9017825,2.98108166 C38.9904844,10.297914 40.7238237,24.5849762 40.7238237,24.5849762 C40.8918355,22.687201 40.8000029,20.7864119 40.9346211,18.8856228 C40.9638406,18.4696997 40.9794938,18.2627427 41.0087133,17.8478242 C41.1850735,14.8127904 41.2915158,13.2073671 41.3102997,13.0436099 C41.4303082,12.0891968 41.6338007,10.4405737 42.0407859,8.23738635 C42.0960941,7.81041205 42.1524459,7.37640525 42.2077541,6.94943095 C42.2536704,6.317509 42.2766286,5.98798531 42.326719,5.34099368 C42.3507207,5.05567439 42.3715918,4.81154556 42.3851579,4.60760255 C42.3976805,4.40667347 42.417508,4.2569813 42.4425533,4.16053535 C42.4592501,3.9736713 42.4675985,3.88224857 42.4822082,3.69437989 C42.4822082,3.67127304 42.5030793,3.63510581 42.5375165,3.58788747 C42.5761279,3.54066914 42.6429152,3.46532074 42.7034412,3.44623247 C42.9392839,3.37691194 43.25548,3.5708085 43.3577481,3.70241705 C43.4109692,3.77475152 43.4777565,3.8541185 43.4996711,3.93850872 C43.5236728,4.02289893 43.5330648,4.12235882 43.5330648,4.24291627 C43.5601971,4.37151088 43.5748068,4.43681283 43.6008956,4.56641209 C44.1591958,7.8556211 44.5849648,11.1789881 45.0180388,14.4822621 C45.476158,17.9934977 45.9541046,21.5278402 46.2369071,25.0692152 C46.304738,25.0692152 46.274475,25.0692152 46.3423058,25.0702199 C46.8567768,20.2559592 47.3869011,15.4437077 47.9295479,10.6334656 C47.9994659,9.72627082 48.2008714,8.28460468 48.4961965,6.34362978 C48.7946523,4.38557592 48.9459673,2.75805038 48.9762303,1.51429939 C48.9647512,1.37163974 48.9595334,1.30030992 48.9501415,1.15664563 C48.9532721,1.02604173 48.9543157,0.961744421 48.9574463,0.834154457 C48.9647512,0.52170974 49.0451047,0.304706335 49.193289,0.177116371 C49.344604,0.049526406 49.5887951,-0.00974767205 49.9321236,0.00130342726 C50.0792644,0.00431736343 50.2305794,0.0686146685 50.3881557,0.192186052 C50.5426013,0.317766726 50.6198241,0.452389208 50.6146064,0.595048854 C50.6093886,0.833149811 50.1971857,1.20587325 50.1930115,1.26414268 C50.1898808,1.27217985 50.2274487,1.359584 50.2232745,1.48014144 C50.2191003,1.62380573 50.1971857,1.77148861 50.1564872,1.926204 C50.1168322,2.07790545 50.0730031,2.19745825 50.0563062,2.2627602 C49.3529524,5.01649322 49.2089423,8.57092862 48.8353508,11.7335523 C48.5379386,14.1999567 48.243657,16.6653565 47.9525061,19.1327656 C47.8158008,20.261987 47.7458828,20.8265977 47.6123082,21.9568238 C47.4119463,23.4015039 47.314896,24.1228393 47.1197518,25.5675193 C47.0352242,26.2968919 46.9934821,26.6625828 46.909998,27.3909507 C46.9047802,27.6782793 46.8599075,27.8932734 46.7764233,28.0339238 C46.6950263,28.1765834 46.5291016,28.2438947 46.2796927,28.2378668 C45.9165368,28.2308343 45.7099135,28.0670771 45.6399956,27.7968275 C45.6045148,27.6551725 45.557555,27.3145977 45.5199871,26.7901728 C45.5095516,26.574174 45.5043339,26.466677 45.4949419,26.2516829 C44.6340118,19.7064181 43.963008,13.131014 43.2199993,6.569675 C43.1772136,6.54054028 43.1552991,6.52647524 43.1125134,6.49633588 C43.1027736,6.50571257 43.0905989,6.52982406 43.0759891,6.56867035 C42.4237693,13.0134705 41.7997254,19.46028 41.2038574,25.9121127 C41.1965526,26.1321301 41.1850735,26.4907885 41.1788122,26.7098012 C41.18403,27.6853118 40.9888858,28.1725648 40.5954668,28.1715602 C40.1603058,28.1675416 39.9453341,28.1675416 39.9453341,28.1675416 L39.9463777,27.7154512 Z" id="Fill-12"></path>
                    <path d="M54.1181828,27.8784827 C54.0416259,27.7290927 54.008922,27.5451498 54.0148681,27.3266542 C54.0223009,27.0949473 54.0267605,26.9790938 54.0334499,26.7484031 C54.044599,26.3998263 54.0490586,26.2250299 54.0602077,25.8774694 C54.1085203,24.3571465 54.1062905,22.6234092 54.0869654,20.7260543 C54.0661538,18.7097971 54.0958847,16.9740274 54.1360213,15.5746392 C54.2096051,13.0543177 54.2214975,10.5085898 54.2296734,7.99538218 C54.2378494,5.48014203 54.2155513,2.93441411 54.2883918,0.412060137 C54.2921082,0.291125357 54.3374477,0.190515751 54.4258969,0.111247576 C54.5150895,0.0309631429 54.6176608,-0.00460590983 54.7313813,0.000475383425 C55.0755157,0.0218168151 55.2405218,0.2138897 55.2286295,0.575677779 C55.1223418,3.91611996 55.0175406,7.26875725 54.9870665,10.6163132 C54.9640251,12.7819604 54.9380106,14.9445588 54.9127394,17.110206 C54.8792922,18.1244322 54.8792922,19.7829663 54.9097663,22.0837759 C54.9149692,23.8835699 54.917199,24.7860076 54.9201721,26.5868179 C54.917199,26.6599886 54.9669982,26.68133 54.9974723,26.6986064 C55.0123377,26.7097852 55.1297745,26.7453543 55.3430932,26.7585656 C56.0053476,26.8022648 56.3353599,26.8246225 56.9976142,26.8744191 C57.2287715,26.8916955 57.3350592,27.1162887 57.317964,27.5522636 C57.3105313,27.7453528 57.2770841,27.9059217 57.219109,28.0349865 C57.1596473,28.1640514 57.0771442,28.2250269 56.9708565,28.2158805 C56.8950428,28.2250269 56.8593658,28.2290919 56.7835522,28.2382382 C56.6988193,28.2331569 56.6564529,28.2290919 56.5709767,28.2219781 C56.198598,28.2199456 55.4798551,28.1792952 54.4162344,28.1152709 C54.2921082,28.1051084 54.1932532,28.0268564 54.1181828,27.8784827" id="Fill-14"></path>
                    <path d="M63.5827574,26.2920965 C63.3744963,26.1793348 63.2821452,25.9831479 63.30005,25.6998686 C63.3188972,25.4514262 63.3254937,25.3267467 63.3424561,25.0792211 C63.3302055,24.9041196 63.3320902,24.7070159 63.349995,24.4879099 C63.3518797,24.4622406 63.3518797,24.4494059 63.3537644,24.4237366 C63.4970028,22.5187063 63.5676797,21.5671078 63.7128028,19.6611607 C64.0068185,15.1662792 64.3017765,10.6704809 64.5939075,6.17743291 C64.690028,4.78303871 64.7239529,3.55091128 64.7682437,2.54889098 C64.7804943,2.29311453 64.8615371,2.07400854 64.9953519,1.90807471 C65.1272821,1.74122412 65.29031,1.66421616 65.482551,1.67705082 C66.3815605,1.73572355 66.8310652,1.76689344 67.7291323,1.83106675 C68.0693235,1.85581931 68.3199907,1.89707357 68.4867881,1.9511625 C68.7204928,2.03367103 68.8260369,2.22985799 68.8043627,2.5342228 C68.789285,2.70749072 68.7063575,2.84500494 68.5518108,2.9412649 C68.4000911,3.03935837 68.2380056,3.09436406 68.0693235,3.10261492 C67.8224257,3.08519645 67.6999192,3.07602883 67.4549061,3.05861037 C67.2259132,3.029274 67.1100031,3.01460581 66.8819525,2.98435269 C66.6501325,2.95593308 66.5361072,2.94034813 66.3052295,2.91284529 C66.1365474,2.90092739 66.0206374,2.92017938 65.9584418,2.97151802 C65.8934191,3.02102314 65.8547824,3.12278367 65.8434741,3.27496607 C65.7709125,4.29715512 65.7190828,5.22400098 65.6832732,6.05091983 C65.6050575,7.16111798 65.5645361,7.71484191 65.4863204,8.82504006 C65.369468,10.4568755 65.3119842,11.2727932 65.1960742,12.9037119 C65.1923048,12.9486332 65.213979,12.9715522 65.2592122,12.9752193 C65.2752323,12.976136 65.2818288,12.9770528 65.2950218,12.9770528 C65.3110419,12.9779696 65.3157536,12.9788863 65.3308314,12.9798031 C65.916978,12.976136 66.5502425,12.9972215 67.2296826,13.0467267 C67.6037987,13.0733127 67.7800196,13.2410801 67.7555183,13.5463617 C67.7366712,13.7618006 67.6867262,13.9066489 67.5981445,13.975406 C67.5105053,14.0478302 67.372921,14.0734995 67.1863341,14.0615816 C66.3890993,14.0029089 65.9914243,13.9735725 65.1941895,13.9213171 C65.100896,13.9148998 65.0509511,13.968072 65.0434122,14.075333 C64.935041,16.008783 64.8794419,16.9759664 64.769186,18.9103331 C64.6985092,20.6430123 64.5920228,22.3738579 64.4676315,24.1037869 C64.4327643,24.5869202 64.4167442,24.8271117 64.3828193,25.310245 C64.9633118,25.3496657 65.253558,25.3689177 65.8349929,25.4110887 C66.4032347,25.452343 66.6868844,25.4734285 67.2541839,25.5165163 C67.3748057,25.5256839 67.436059,25.5302677 67.5585655,25.5394353 C67.9628371,25.5696885 68.1550781,25.7264547 68.1296344,26.009734 C68.1013637,26.3581033 67.9845113,26.5570406 67.7762502,26.6047122 C67.5001393,26.670719 66.9450905,26.6716358 66.1158155,26.612963 C65.5504008,26.5717088 65.2686357,26.55154 64.7013363,26.513036 C64.1613652,26.4781991 63.7891338,26.4030246 63.5827574,26.2920965" id="Fill-16"></path>
                    <path d="M76.49563,11.2160846 C77.0394176,10.847272 77.459665,10.5261665 77.67718,10.2646948 C77.9020863,9.99863597 78.1069306,9.53440915 78.3128307,8.93898778 C78.5134514,8.34264898 78.6443827,7.8050266 78.7003453,7.32612067 C78.8048793,6.43711712 78.692954,5.49031459 78.455377,4.54167716 C78.3191661,3.99763268 78.0995393,3.51964419 77.7595401,3.14899668 C77.4216527,2.78201895 77.0214673,2.57651143 76.5632075,2.53889621 C76.5304747,2.53522643 76.5156921,2.53430899 76.4819033,2.5324741 C76.4523382,2.55265787 76.4111582,2.55999743 76.3573074,2.55541021 C76.0278671,5.61875679 75.6952592,8.68302082 75.3637072,11.7472848 C75.572775,11.7665512 75.9486748,11.5876495 76.4945741,11.2160846 L76.49563,11.2160846 Z M77.8608023,26.0834208 C77.7632966,25.5047857 77.7131238,25.2159181 77.6118315,24.6381829 C77.2587285,22.9319743 76.9690515,21.1951692 76.7522671,19.4844611 C76.6557081,18.7285459 76.5269627,17.6657651 76.3849642,16.3186163 C76.2211926,14.7563915 76.0422744,13.4803347 75.8567297,12.4949452 C75.7099979,12.5579382 75.6361586,12.5903345 75.4856402,12.6551273 C75.2944155,12.7145206 75.2006965,12.7460171 75.0094718,12.8063103 C74.6270224,16.9116497 74.2417331,21.0151894 73.8602303,25.1214287 C73.8394039,25.3131072 73.830884,25.4084965 73.8119508,25.600175 C73.7684046,26.0267271 73.5459403,26.2211053 73.1407711,26.1851094 C72.959013,26.1698111 72.8179611,26.1032185 72.7176155,25.9871316 C72.6144299,25.8710446 72.569937,25.7387594 72.5841369,25.5893762 C72.60307,25.3967978 72.6106433,25.3032083 72.6305231,25.10973 C72.856774,22.9580714 73.083025,20.8082126 73.3140093,18.6556541 C73.4607411,17.4164931 73.5345804,16.7982625 73.6803655,15.5600014 C74.0599749,12.3905569 74.4301178,9.21931272 74.7358879,6.0426691 C74.8949263,4.39045446 74.9744455,3.56614694 75.1325372,1.91573209 C75.152417,1.7240536 75.378668,1.64666228 75.8150768,1.68535794 C76.4464969,1.74115168 77.020171,1.94452886 77.5342057,2.29368969 C78.0482403,2.64285052 78.4306897,3.09190014 78.691967,3.63003977 C79.2258815,4.73421589 79.4284661,5.90858414 79.2921475,7.14234573 C79.1851752,8.12233579 78.8368055,9.18511656 78.2318918,10.2676951 C78.0624402,10.5700612 77.8390292,10.9228216 77.5824852,11.3187772 C77.3259411,11.7120331 76.9662115,12.0170988 76.9283453,12.1106883 C76.4531235,13.2949555 77.8305093,17.292307 78.2404117,19.8894157 C78.5641683,21.8583948 78.8812984,23.8300736 79.1927485,25.8017524 C79.207895,25.8683449 79.2060017,25.9862317 79.1851752,26.1572125 C79.1634021,26.3497909 79.1047094,26.5099729 79.0100437,26.6377586 C78.915378,26.7682439 78.788526,26.8249376 78.6304343,26.8078395 C78.181719,26.7637444 77.9251749,26.5216716 77.8608023,26.0834208 Z" id="Fill-18"></path>
                    <path d="M92.2955712,22.018152 C92.1130764,19.9744475 91.8108805,17.921262 91.4870992,15.9112681 C91.1240718,13.653712 90.6491926,11.3287348 90.2341638,9.12069123 C90.0811036,8.30847671 89.8917406,7.36879404 89.616036,6.37643856 C89.4894669,5.82021384 89.4256918,5.54104802 89.2981416,4.98693021 C89.3020663,5.00905278 89.2579143,4.88053116 89.1686291,4.60031189 C89.1156467,4.43175894 89.0901367,4.34642901 89.035192,4.17682261 C88.8507348,4.73410079 88.6986557,5.49785633 88.5828794,6.46492886 C88.4661219,7.43200139 88.3738933,8.57710797 88.2895139,9.87180529 C88.1099625,12.627646 87.9156937,15.4182507 87.6360645,18.1835725 C87.5614966,18.6944986 87.5251939,18.9504884 87.4545507,19.4614145 C87.2367342,20.7224012 87.184733,21.6631374 87.2759804,22.2857298 C87.2867731,22.3710597 87.2946224,22.413198 87.3054151,22.5006348 C88.4386495,22.6554928 89.6974719,22.6417979 91.1024863,22.4785123 C91.1907903,22.4679777 91.2359235,22.4627104 91.3242274,22.4532293 C91.4007576,22.4700846 91.4880804,22.4721915 91.5871771,22.45955 C92.0797171,22.4037169 92.3171567,22.25834 92.2955712,22.018152 Z M92.9444404,29.076552 C92.8109556,28.9677641 92.7374422,28.8307332 92.722933,28.6623211 C92.561397,26.7794535 92.4801454,25.8380197 92.320544,23.9541061 C92.2953946,23.6664458 91.6627926,23.4551462 90.4120979,23.3704172 C89.1623704,23.2856881 88.1322157,23.3233455 87.339045,23.4551462 C87.290681,23.4635145 87.2384478,23.6559854 87.1823454,24.0315129 C87.1281777,24.4049483 87.0856173,24.6842403 87.067239,24.8547444 C86.9260159,26.1204499 86.8476661,27.51691 86.7789891,28.9698562 C86.7625453,29.2962199 86.7538398,29.4594018 86.7383633,29.7847194 C86.7238541,29.9824205 86.6290605,30.0995767 86.4510807,30.1330499 C86.273101,30.1686152 86.1028595,30.1403722 85.9393889,30.052505 C85.7749511,29.9635919 85.6772557,29.8359753 85.6482372,29.6707013 C85.6559755,29.6403663 85.6608119,29.6257217 85.6685501,29.5932946 C85.664681,29.57865 85.6637137,29.5723738 85.6608119,29.5577293 C85.6840266,28.8192268 85.6966013,28.4468374 85.7246524,27.7093809 C85.8097732,26.540957 85.8774829,25.4007761 85.9161742,24.2961604 C85.9616364,23.0450995 86.042888,22.2061774 86.0893175,21.8463404 C86.3224323,19.9477823 86.3195305,17.7856227 86.4327024,15.7552638 C86.4597863,15.2678103 86.4742955,15.0261756 86.5033139,14.5376761 C86.6397006,12.1506184 86.768349,9.71230483 87.0856173,7.3744109 C87.1649344,6.79176798 87.3342086,5.88380739 87.5634543,4.72479778 C87.6601824,4.23839032 87.7985037,3.69654286 88.0219457,3.21118144 C88.2221729,2.77812189 88.449484,2.53857929 88.6293983,2.51870458 C89.1072353,2.4580344 89.4883442,2.54067137 89.6953424,2.75824718 C89.8646166,2.93398149 90.2080015,4.11704996 90.6964786,6.24259827 C91.1897921,8.38592921 91.626036,10.5439047 92.0119812,12.7144326 C92.344726,14.6862134 92.6658634,16.6611323 92.9753934,18.6402353 C93.0489068,19.6726744 93.2413958,21.2249941 93.5325475,23.3003326 C93.8256337,25.39973 93.9978098,26.9687863 94.0693886,27.9991333 C94.074225,28.0577114 94.0751923,28.0849084 94.0790615,28.1445326 C94.0974398,28.4091801 94.0906688,28.6706894 94.0268283,28.8704826 C93.9687914,29.0629535 93.7443821,29.1842939 93.4087355,29.2135829 C93.2326903,29.2313656 93.0759907,29.1842939 92.9444404,29.076552 Z" id="Fill-20" transform="translate(89.868095, 16.323685) rotate(4.000000) translate(-89.868095, -16.323685) "></path>
                    <path d="M101.775949,15.7281019 C101.775949,15.7281019 101.916627,15.6190644 102.168368,15.505327 C102.218081,15.4818275 102.328085,15.3981695 102.476168,15.2496529 C102.60098,15.160355 102.662329,15.116176 102.787141,15.028758 C104.610673,13.7607273 105.806969,11.9014502 105.9138,9.83349795 C105.978322,8.62750579 105.709658,7.46569261 105.043286,6.4223167 C104.692119,5.87148942 104.13152,5.42311977 103.392165,5.09412736 C102.652809,4.76607494 100.919185,4.45212218 100.754178,4.60063876 C100.331085,4.98132997 100.9213,8.30133332 101.045055,10.1474507 C101.167752,11.9916881 101.289391,13.8425054 101.298911,15.6942626 C101.332758,15.7196421 101.349682,15.7337417 101.385645,15.7610011 C101.645847,15.7393816 101.775949,15.7281019 101.775949,15.7281019 Z M100.356471,27.5003901 C100.348009,26.421295 100.326854,25.4596972 100.293007,24.6165367 C100.250697,23.4490836 100.2306,22.8644171 100.187233,21.6969641 C100.175598,20.6470083 100.17031,20.1206205 100.16079,19.0706647 C100.124827,18.2904827 100.105788,17.412543 100.093095,16.4424854 C100.05819,13.7644872 99.9778023,11.0780292 99.7747175,8.40003104 C99.7503897,7.93192185 99.7376969,7.69974721 99.7112535,7.23257799 C99.5980761,5.95796742 99.5335544,4.92023138 99.5208616,4.12030984 C99.5790369,4.0657911 99.6086534,4.04135167 99.6678865,3.9877729 C99.697503,3.94359392 99.8064495,3.8881352 99.8646248,3.82421668 C99.89953,3.78191766 99.9904951,3.72175905 100.108961,3.69167974 C100.171367,3.67570011 100.289834,3.65784052 100.455898,3.65690054 C101.610942,3.65314063 102.660213,3.8364364 103.586788,4.20490789 C104.512304,4.57055945 105.254833,5.07344784 105.802738,5.70135334 C106.874222,6.93084496 107.323759,8.31919291 107.219043,9.82973803 C107.149233,10.8007356 106.855183,11.781133 106.359106,12.77657 C105.863029,13.7691871 105.152233,14.6574666 104.297584,15.4526882 C103.39428,16.2949088 102.430685,16.8109569 101.378241,16.9594734 C101.405742,18.3995202 101.417377,19.1195436 101.440647,20.5586503 C101.469206,21.2608141 101.484014,21.611426 101.510458,22.3126498 C101.589788,24.0845089 101.63527,25.8601279 101.620462,27.631987 C101.617289,27.9778991 101.559113,28.2326332 101.448051,28.3933695 C101.336989,28.5550457 101.121212,28.6358839 100.803892,28.6368238 C100.511957,28.6358839 100.362817,28.2589526 100.356471,27.5013301 L100.356471,27.5003901 Z" id="Fill-22" transform="translate(103.377343, 16.146834) rotate(6.000000) translate(-103.377343, -16.146834) "></path>
                    <path d="M112.041113,17.1829518 C112.041113,17.1829518 112.158632,17.0913347 112.360668,17.0097954 C112.402524,16.9923882 112.493481,16.9245915 112.623073,16.7954114 C112.726104,16.7230338 112.777619,16.6882193 112.881454,16.6158418 C114.397125,15.5933946 115.507115,13.9241305 115.812181,11.9360387 C115.990874,10.777082 115.911187,9.62637085 115.519994,8.5425402 C115.313128,7.9708493 114.937229,7.47703296 114.411614,7.07849844 C113.888413,6.67813158 112.611804,6.18614759 112.471748,6.31074689 C112.110337,6.63323919 112.195659,9.90763545 112.091019,11.7051636 C111.984769,13.5026917 111.876909,15.3029683 111.682922,17.0968317 C111.70707,17.1261492 111.718339,17.1398918 111.741682,17.1701254 C111.940498,17.1756224 112.041113,17.1820356 112.041113,17.1820356 L112.041113,17.1829518 Z M109.662774,28.6032693 C109.778544,27.5151265 109.872343,26.548734 109.940791,25.6955311 C110.040505,24.5227338 110.090362,23.9330061 110.189231,22.7545018 C110.300776,21.6986989 110.353168,21.1707975 110.466403,20.1159458 C110.52471,19.3302763 110.609214,18.4447335 110.708928,17.4707316 C110.982719,14.7808122 111.225244,12.0718693 111.3689,9.36102409 C111.401012,8.89019307 111.417067,8.65335081 111.450869,8.18156862 C111.505796,6.891777 111.572554,5.84168117 111.651987,5.03603699 C111.705224,4.99133182 111.73142,4.96755248 111.782968,4.92189614 C111.814234,4.88194684 111.905498,4.8362905 111.95789,4.78017125 C111.990846,4.74117313 112.070279,4.69076092 112.167459,4.67649331 C112.219006,4.66698157 112.31534,4.66127453 112.44632,4.680298 C113.364873,4.80680412 114.176952,5.11308207 114.872416,5.5867666 C115.567035,6.05949996 116.100252,6.64827652 116.465307,7.34168219 C117.177672,8.69615363 117.3771,10.1428889 117.121899,11.648597 C116.958808,12.6130872 116.613188,13.5633098 116.105322,14.505923 C115.597456,15.4456826 114.932413,16.2560827 114.163431,16.9570977 C113.347973,17.6990133 112.524908,18.1089692 111.670578,18.135602 C111.528612,19.5842397 111.456784,20.3090341 111.313128,21.7586229 C111.254821,22.4643938 111.226089,22.8172793 111.168627,23.5249526 C111.030041,25.3131592 110.865259,27.1013659 110.654001,28.8772073 C110.610904,29.2243857 110.535696,29.4735933 110.429221,29.6219764 C110.322747,29.7703595 110.143599,29.8274299 109.890934,29.7931877 C109.659394,29.7598966 109.583341,29.3651595 109.662774,28.6023181 L109.662774,28.6032693 Z" id="Fill-24" transform="translate(113.430212, 17.235251) rotate(6.000000) translate(-113.430212, -17.235251) "></path>
                </g>
            </g>
        </g>
    </g>
</svg>