<svg viewBox="0 0 87 5" xmlns="http://www.w3.org/2000/svg" xmlns:xlink="http://www.w3.org/1999/xlink">
  <defs>
    <path id="a" d="M0 0h86.213v4.703H0z"/>
  </defs>
  <g fill="none" fill-rule="evenodd">
    <mask id="b" fill="#fff">
      <use xlink:href="#a"/>
    </mask>
    <path d="M85.774 2.94c-9.616 1.095-19.257.957-28.9.522C61.668 2.898 66.44 2.077 71.184.9c.575-.144.33-1.028-.243-.886-6.727 1.668-13.514 2.614-20.336 3.137-8.143-.438-16.285-.94-24.414-.947-.594-.001-.594.919 0 .92 5.247.004 10.498.215 15.752.482-13.803.434-27.704-.353-41.5.068-.59.02-.592.939 0 .919 16.68-.507 33.509.732 50.13-.524 11.747.629 23.493 1.12 35.202-.21.582-.065.587-.985-.001-.92" fill="#231F20" mask="url(#b)"/>
  </g>
</svg>
