<svg id="Layer_1" xmlns="http://www.w3.org/2000/svg" viewBox="0 0 310.7 398.5">
  <path class="st0" d="M70.4 319c-.8 0-1.6.3-2.5.3-.6 0-.6-.9 0-.9.8 0 1.6-.3 2.5-.3.6 0 .6.9 0 .9zm17 17.9c-1.4.6-2.6 1.4-3.9 2.1-.2.1-.5.3-.7.4.3-.2.5-.4.8-.6.5-.3 0-1.1-.5-.8-.6.4-1.2.8-1.8 1.3-.7.3-1.4.5-2.1.7-.6.2-1.3.4-2 .5-.6 0-.6.9 0 .9.3 0 .7-.1 1-.1.1.1.1.1.2.1 3.4.6 6.2-2.4 9.1-3.6.7-.3.5-1.2-.1-.9zm115.8-212.2c-5-2.8-11.1-4.5-14.3-9.8-.3-.5-1.1 0-.8.5 3.3 5.4 9.4 7.2 14.6 10.1.5.3 1-.5.5-.8zm-59.5-87.3c0-1.1 0-2.3-.2-3.4 0-.2-.2-.3-.4-.3-.1-.2-.2-.3-.3-.4-.4-.4-1 .2-.7.6.5.6.5 1.8.2 2.5-.1.3.1.5.4.6v.5c.1.4 1 .4 1-.1zm32 88.1c-2.8-5.6-5-11.5-7-17.4-.2-.6.7-.8.9-.2.2.7.5 1.4.7 2.1v-.3c.1-.6 1-.6.9 0-.4 2.7 1 4.9 2.5 6.9.9 1.2 1.8 2.5 2.6 3.8-.1-.3-.2-.5-.3-.8-.2-.6.7-.8.9-.2 1.8 5.1 4.3 10.2 8.3 14 .4.4-.2 1.1-.7.7-1.9-1.8-3.4-3.8-4.8-6 .1.2.2.5.3.7.3.5.7.9 1 1.4.2.3 0 .6-.3.6.4 1.3.9 2.5 1.3 3.8 1.5 2.1 3.2 4.2 5 6.1.4.4-.2 1.1-.6.7-1.1-1.2-2.1-2.4-3.1-3.6.4 1 .9 2.1 1.4 3.1.3.5-.5 1-.8.5-1-2-1.9-4-2.6-6.1-2-3.3-3.9-6.5-5.6-9.8zm1.1-2.7c-.1 0-.1 0 0 0 .2.6.5 1.2.9 1.8l-.9-1.8zm-3.9-5.8c1.1 2.8 2.3 5.6 3.7 8.3 1.1 2.2 2.3 4.3 3.6 6.3-.3-.8-.6-1.7-.9-2.5-1.5-2.2-2.9-4.4-3.9-6.9-.2-.4.3-.7.7-.5-.5-.9-1-1.7-1.5-2.5-.5-.7-1.1-1.5-1.7-2.2zm21.5 245.8c-7.7 1.1-15.3 2.2-23 2.5-.6 0-.6.9 0 .9 5.1-.2 10.2-.7 15.3-1.4-.1.4.4.8.8.4.5-.5 1.2-.7 1.9-.7.1 0 .2-.1.3-.1 1.7-.2 3.4-.5 5-.7.6-.1.3-1-.3-.9zm26.6-48.5h.8c.3 0 .5-.2.5-.5 0-.2-.2-.5-.5-.5h-.8c-.2 0-.5.2-.5.5.1.3.3.5.5.5zm-76-152.8c-2.3 1.7-1.9 5.7-1.8 8.2 0 .5.1.9.1 1.4 0 1 .1 2.1.2 3.1-.1 0-.2-.1-.3-.1-.2 0-.5.2-.5.5 0 .2.1.4.2.6 0 .1.1.1.1.2s0 .1 0 0v.1c0 .2.2.5.5.5.1 0 .2 0 .2-.1.1.6.3 1.1.4 1.7.1.8.2 1.6.2 2.3 0 .6 1 .6.9 0-.2-2.9-.8-5.8-1.1-8.8v-4.2c0-.2-.1-.3-.2-.4v-.7c.1-1.1.3-2.7 1.3-3.5.7-.4.2-1.2-.2-.8zm13.6-127.9c.2 1.1 0 2.3 0 3.4 0 .6.9.6.9 0 0-1.2.2-2.4 0-3.6-.1-.6-1-.4-.9.2zm35.2 302.5c-.1.1-.2.2-.3.4.6-.1 1.1-.2 1.7-.3-.5-.1-1-.1-1.4-.1zm17.1-247.9c-.1.6.9.6.9 0 .4-3.4.6-7-.8-10.2-.2-.5-1.1-.3-.9.2 1.4 3.2 1.2 6.7.8 10zm-.8-1.9c.1-1.5 0-2.9 0-4.4 0-.6-.9-.6-.9 0 0 1.5.1 2.9 0 4.4 0 .6.9.6.9 0zm-4.5 37.6c-2-1.6-4.5-2.1-6.4-3.7-1-.8-1.9-1.7-2.9-2.6-1-.9-2.1-1.7-3.2-2.5-2-1.6-4-3.2-5.6-5.1-1.8-2.1-3.4-4.4-4.8-6.7-2.9-4.5-5.2-9.3-7.2-14.3-2.1-5.3-3.9-10.7-4.7-16.3-.4-2.7-.3-5.4-1.1-8-.2-.6-1.1-.3-.9.2.7 2.5.7 5.1 1.1 7.7.4 2.8 1 5.6 1.8 8.3 1.5 5.2 3.6 10.3 5.9 15.2 2.3 4.8 5.1 9.3 8.3 13.5 3.1 4.1 7.6 6.8 11.4 10.2 1.1 1 2.3 2 3.6 2.7 1.4.7 2.8 1.1 4 2.1.5.3 1.2-.3.7-.7zm8.9 33.6c1.5 4.2 2.1 8.7 2.2 13.2 0 .6.9.6.9 0-.2-4.6-.8-9.1-2.3-13.4-1.5-4.3-4-8.2-7.1-11.6-.4-.4-1 .2-.6.7 3 3.3 5.4 7 6.9 11.1zm-14.9-49.6c-.9 1.1-1.7 2.3-2.7 3.3-.4.4.2 1.1.7.7.6-.6 1.1-1.3 1.7-2 .2.2.5.2.7-.1.8-1.2 1.4-2.5 2.2-3.7.1-.1.1-.3 0-.4.2-.4.5-.7.7-1.1.3-.5-.5-1-.8-.5-.5.8-1 1.5-1.5 2.2-.2.2-.1.4 0 .6-.2.3-.3.5-.5.8-.2.1-.4.1-.5.2zm12.6 41.1c2.7 1.5 4.1 4.5 5.1 7.3s1.6 5.9 1.6 8.9c0 .6.9.6.9 0 0-3.2-.7-6.4-1.8-9.3-1-2.9-2.7-6-5.5-7.6-.4-.4-.9.4-.3.7zm.3-33.1c-.5 2.1-1.2 4.2-1.3 6.4 0 .6.9.6.9 0 .1-2.3.8-4.6 1.4-6.8.6-2.3.7-4.6.9-6.9.3-4.5.5-9-.1-13.5-.1-.6-1-.3-.9.2.6 4.5.3 9.1 0 13.6-.1 2.3-.4 4.6-.9 7zM69.2 327.5c1.4-.3 2.9-.3 4.3-.3.6 0 .6-.9 0-.9-1.5 0-3 0-4.5.3-.7.2-.4 1 .2.9zm6.8-68.1c.3-5.9 0-11.8-.3-17.8 0-.2-.2-.4-.3-.4v-.8c0-.6-.9-.6-.9 0 0 6.3.2 12.6.7 18.9-.1 1.4-.2 2.9-.3 4.3 0 .4.4.5.7.4.2 2.7.5 5.4.9 8.1.1.6 1 .6.9 0-.7-4.1-1.1-8.4-1.4-12.7zm2.2 75.5c-2.9 0-5.7 0-8.6.3-.6.1-.6 1 0 .9 2.8-.3 5.7-.3 8.6-.3.5 0 .5-.9 0-.9zm12.5 2.5c-1.9.3-3.8.5-5.4 1.7-.5.4 0 1.2.5.8 1.5-1.1 3.3-1.4 5.1-1.6.6-.1.4-1-.2-.9zm4.8-1.7c-1.1 0-2.1.2-3.2.6-.6.2-.3 1.1.2.9.9-.3 1.9-.5 2.9-.5.7-.1.7-1 .1-1zm41.4-302c0-.3-.3-.5-.6-.4v-.1c0-.6-.9-.6-.9 0 0 1.4 0 2.8.4 4.1-.1.5-.1.9-.2 1.4-.1.6.9.6.9 0 .1-.5.1-.9.2-1.4v-.1c.2-1.2.3-2.3.2-3.5zM75 328c-2.1-.3-4.1-.3-6.2-.3-.6 0-.6.9 0 .9 2 0 4 0 5.9.3.6.1.8-.8.3-.9zm-1.8-79.5c.1-3.4.1-6.7.1-10.1.1-3.8.2-7.6.1-11.4v-20.3c0-.6-.9-.6-.9 0v6.8c-.4-5.6-.6-11.3-.1-16.9.1-.6-.9-.6-.9 0-.9 9.9.5 19.8 1 29.7 0 .6 0 1.1.1 1.7 0 3.2 0 6.4-.1 9.7-.2 6.2-.6 12.4-.6 18.6 0 .3.2.4.4.4 0 7 0 13.9.6 20.9.1 2.1.3 4.1.6 6.2.1.6 1 .6.9 0-1.5-11.9-1.4-23.6-1.2-35.3zm53.7-207.2c-1.6 11-1.9 22.1-3.2 33.2-.6 5-1.4 9.9-2.7 14.7-1.3 4.7-3 9.3-4.9 13.7-4.2 9.5-9.7 18.2-15.4 26.8-.3.5-.6 1-.8 1.6-4.4 8.2-7.6 17-7.9 26.4 0 .6-.9.6-.9 0 .3-7.5 2.3-14.7 5.4-21.5-1.9 3-3.6 6.2-4.8 9.5-1.8 5.1-2.1 10.4-2.1 15.7 0 .6-.9.6-.9 0 0-4.8.2-9.8 1.6-14.4 1.5-4.9 4.2-9.4 7-13.7.9-1.3 1.8-2.7 2.7-4 3.9-7 8.3-13.7 11.9-20.9 9.9-19.4 10.5-41.4 13.4-62.6 0-.2.2-.3.3-.3.2-1.5.4-3 .6-4.4-.1-.6.8-.3.7.2zm-4.3 35c.4-3.4.8-6.7 1.1-10.1-1.2 10-2.7 20-5.7 29.5 2.1-6.3 3.7-12.7 4.6-19.4zm6.9 258.3c-.6 0-.6.9 0 .9s.5-.9 0-.9zm-12.3-228.4c-.1.8-.3 1.6-.5 2.4-.3-.3-.8-.2-.8.3.1.8.1 1.5 0 2.3-2.7 7.2-8.3 13.2-12.7 19.4-2.7 3.9-5.2 8-7.2 12.3-2.1 4.4-3.7 9.2-3.4 14 0 .6 1 .6.9 0-.3-5 1.5-9.9 3.7-14.4 2-4.1 4.4-8 7-11.7-4 7-6.4 14.9-7 23 0 .6.9.6.9 0 .7-9 3.6-17.6 8.5-25.2 2.1-3.2 4.5-6.3 6.7-9.4 1.6-2.3 3.1-5 3.6-7.8.6-1.6 1.1-3.2 1.3-4.9 0-.6-.9-.9-1-.3zm-5.9 227.6c-1.9 0-3.8.3-5.6.8-.6.2-.3 1 .2.9 1.8-.5 3.5-.8 5.4-.8.5 0 .5-.9 0-.9zM74.5 227.1c1.8-12-.7-24.1 1.1-36 .1-.6-.8-.8-.9-.2-1.8 12 .7 24.1-1.1 36 0 .5.8.8.9.2zm73.1-101.3c.1-.1.1-.2.1-.3 0-3.9-.4-7.8-.4-11.8 0-.4-.4-.5-.6-.4h-.1c-.2-1.9-.4-3.7-.7-5.6-.1-.6-1-.3-.9.2.5 3 .8 6.1 1.1 9.2v14.6c0 .6.9.6.9 0v-2.1c.2 1.8.3 3.6.6 5.4.1.6 1 .6.9 0-.4-3.1-.7-6.2-.9-9.2zm80.6 118.6c-.1 11.8-.5 23.6-1.5 35.3.1 9.1.1 18.2 0 27.3v19.9c.2 0 .4.2.4.4.3 6.8-.9 13.6-4.2 19.6-3 5.4-7.6 9.7-12.7 12.9-3 1.9-6.2 3.5-9.5 4.9-1.3.7-2.7 1.3-4 1.9-5.1 2.3-10.5 4.5-16 6-5.9 1.7-11.9 2.8-18 3.4-4.9.5-9.7.6-14.6.5-.8 0-1.7-.1-2.5-.1-2.8.1-5.6.1-8.4-.1-4.5-.3-8.9-.8-13.3-1.7-2.5-.5-5.1-1.2-7.5-2h-1.3c-3.8.1-7.8.2-11.2-1.6-5-1.2-9.8-3.1-14.3-5.5-1.8-.7-3.7-1.4-5.4-2.3-3.3-1.7-6.3-3.9-8.8-6.6-3.2-2.5-5.6-5.8-7.3-9.5-.1-.1-.2-.2-.3-.2-.2-.2-.2-.4-.1-.5-1.5-3.3-2.5-6.8-3.2-10.3-2.9-14.3-1.7-29.1-.9-43.5.2-3.1.3-6.1.4-9.2.1-4.4-.2-8.8-.2-13.1-.2-12.1 0-24.2-.2-36.3-.1-5.6-.1-11.3-.5-16.9-.3-4.8-.7-9.6-.9-14.4-.4-9.1-.7-18.7 1.6-27.6-.1-2.7-.2-5.3-.2-8 0-.6.9-.6.9 0v.4c0 2.2.1 4.4.1 6.6.2.1.3.3.2.5-.1.2-.1.4-.2.6.1 3 .3 5.9.5 8.9-.3-10-.7-20.2 1.7-30 .1-.2.2-.3.4-.3.3-1 .6-2.1.9-3.1.2-.7.5-1.3.7-2-.2-.1-.3-.3-.1-.6l.9-1.5c3.2-7.8 7.8-14.9 13.1-21.4.1-.2.3-.2.5-.1 1-1.4 2-2.8 3-4.1 3-3.8 6.3-7.3 9.5-11 1.4-1.6 2.9-3.3 4.3-4.9 2.5-3.6 4.9-7.2 7-11 2.9-5.2 5-10.7 6.6-16.4-2 5.1-4.4 10-7.3 14.6-.3.5-1.1 0-.8-.5 2.8-4.6 5.2-9.5 7.2-14.4 1-2.4 1.9-4.8 2.7-7.3 0-.3.1-.5.1-.8-.3.4-1 .1-.8-.4.6-2.1 1.2-4.1 1.8-6.2 0-.4.1-.8.1-1.1v-.3c.1-1.3.2-2.6.4-3.9 0-.1.1-.2.1-.2.1-1 .3-2.1.5-3.1.6-2.5 1.3-4.9 2-7.4.1-.3.2-.7.3-1 .2-1.6.4-3.3.7-4.9.2-1.5.4-2.9.4-4.4.1-1.3.1-2.5.6-3.7 0-.3-.1-.6-.2-1v-.3c-.8-.2-1.5-.6-2-1.2-.9-1.1-1.2-2.4-1.2-3.8V26v-.3c0-.2.1-.4.3-.4.4-.5 1.2-.8 1.9-1 .3-.1.5-.1.8-.2-.1-.1-.2-.3-.2-.4.1-.7.2-1.5.2-2.2-.3-.2-.3-.7.1-.8v-.2c-.5-.4-.9-.9-1.2-1.4-.4-.3-.5-.6-.3-.9-.1-.5-.2-1.1-.1-1.7-.5-1.5-.9-3.5-.1-5 .1-.2.2-.3.3-.5v-.4c0-.3.3-.5.6-.4h.3c.7-.5 1.7-.8 2.6-1 3.7-.7 7.4 0 11.1-.5 5.6-.7 11.2-1.1 16.8-.8 4.7.2 9.4 1.1 14.1 1.4-.1-.2-.1-.6.3-.6 1.2-.2 2.1.1 2.9.7h.1c.2 0 .4.1.5.3 0 .2.1.4.1.5.5.8.9 1.8 1 2.9.1 1.1.1 2.4-.1 3.5-.1 1.3-.4 2.9-1.5 3.6.2 0 .3.2.3.4v2.9c1 .2 1.8.7 1.9 1.8 0 .2.1.4.1.6.6 1.5.5 3.3-.5 4.6v.1c.1 0 .2.1.2.3.1.6.2 1.3.3 1.9.3 1 .7 1.8 1.2 2.5-.2-.5-.3-1.1-.3-1.7 0-.6.9-.6.9 0v.5c.2 1.9 1.9 3.1 3.8 3.8 1.3.3 2.7.3 4.1.1.6-.1.8.8.2.9-.3 0-.5.1-.8.1 1.3.3 2.6.5 3.9.8 1.8-.1 3.5-.2 5.3 0 4.1.5 8.1 2.4 11.3 4.8 3.1 2.4 5.8 5.3 7.8 8.7.1-.3.5-.4.7-.2 2.3 2.7 3.9 6 5 9.4 2 6.6 2.3 13.4 2.8 20.2.1.3.1.6.2.8.4 2.6.5 5.4.6 8v2.4c0 3.7-.2 7.4-.7 11.1-.3 2.4-.6 4.9-.8 7.3-.2 2.1-.4 4.3-.5 6.4.3.2.3.7 0 .8 0 .6-.1 1.2-.1 1.8v4.5c0 .2-.1.3-.2.4-.2 7.9 4.4 15.2 7.4 22.2 1.5 3.4 2.7 7 3.5 10.6.4 1 .7 2.1 1 3.1.1.3-.1.5-.3.6.6 3.9.9 7.9.9 11.9v3.3c.6 9.8.9 19.7.3 29.5-.1 1.3-.1 2.7-.2 4 .2 11 .3 22 .2 33zm-2.5 91.5c-.1.5-.9.4-.9-.1 0-.3 0-.7.1-1-.2 0-.4-.2-.4-.4 0-.4-.1-.8-.1-1.2-.1 0-.2.1-.3.1 0 .2-.1.4-.1.6.3.1.5.6.1.8-.1.1-.2.1-.3.2-.1.5-.2 1-.4 1.4.4.1.5.8 0 .9-.1 0-.2.1-.3.1l-.6 1.8c.2.1.3.2.5.3l.1.1.6-.3c.5-.3 1 .5.5.8-.8.4-1.6.9-2.4 1.4-.2.5-.4.9-.6 1.4.3.1.4.6.1.8l-.6.3c-.4.7-.7 1.3-1.2 1.9.8-.7 1.6-1.4 2.3-2.1.2-.2.5-.1.7.1.6-1 1.2-2 1.9-2.9.1-.2.3-.2.5-.2.2-1.7.5-3.2.8-4.8zM204.1 362c4.5-2.6 8.5-5.9 12-9.6.7-.7 1.3-1.4 1.9-2.2-.5.5-1 .9-1.5 1.3-.1.1-.1.2-.3.2-.8.6-1.5 1.1-2.4 1.6.3.2.3.7-.1.8-.9.3-1.8.7-2.7 1.2-1 1-2 2-3.1 3 0 .2-.1.4-.3.5-.1 0-.2 0-.3.1-1.4 1.3-3 2.5-4.5 3.7.4-.1.9-.3 1.3-.6zm2.8-4.6c-.6.2-1.1.4-1.7.5-.9.2-1.7.4-2.6.6 1-.1 2.1-.1 3.1-.2.5-.3.8-.6 1.2-.9zm9.7-17.4l-2.4-.3c1.3.3 2.6.5 3.9.7.1 0 .2-.1.3-.1.1-.3.3-.5.4-.8-1-.2-2.1-.4-3.1-.7-.1 0-.2.1-.3.1h-.7c.6.1 1.2.2 1.8.2.7 0 .7.9.1.9zm2.5 1c-.1.2-.2.5-.3.7.7-.3 1.4-.7 2.1-1 .1-.1.1-.3.2-.4-.7.2-1.4.5-2 .7zm.9-1.3h-.3c0 .1-.1.1-.1.2.2-.1.3-.2.4-.2zm2.5-13c-.2 0-.4 0-.6-.1-.5.2-1.1.3-1.6.5.5 0 1.1-.1 1.6-.1.2 0 .4 0 .6-.1v-.2zm.8-1.1c.2-.1.3 0 .5 0v-.4c-.4.2-.9.3-1.4.4.1 0 .1.1.1.2.3 0 .6-.1.8-.2zm-2-6.6c.8 0 1.6-.1 2.3-.3v-.2c-.2.3-.7.3-.8 0-.5.2-1 .3-1.5.5zm.4-1.1c-.2 0-.4 0-.5-.2-.2.1-.4.3-.6.5l-.1.1c.4-.1.8-.3 1.2-.4zm1.9-1.4v-.3h-.1l-.1.1v.3c.1-.1.2-.1.2-.1zm0-1.3c0-1.4.1-2.8.1-4.2 0-.6.1-1.2.1-1.9-.2 1.9-.4 3.8-.5 5.8v.2c.1.1.2.1.3.1zm2.2-120.6v-2.2 2.2zm-10.9-62.4c.2.5.3 1.1.5 1.6-.8-3.3-.7-6.6-.7-10-.2 1.7-.3 3.4-.2 5.2 0 1.1.2 2.2.4 3.2zm1.3 6.8c-.2.4-.4.9-.6 1.4.2-.2.3-.4.5-.6.2-.2.4-.2.6-.1-.2-.2-.4-.4-.5-.7zm8.9 179.4c.1-.5.1-1.1.1-1.6l-.6.3c.2.2.2.6-.1.8v.6c.1 0 .2-.1.2-.1h.4zm-.6 1.1v1.2h.2c.1-.4.1-.9.2-1.3-.1 0-.2 0-.4.1zm.7-3.8c0-1.1 0-2.3-.1-3.4v-.1c-.1-1.1-.2-2.2-.4-3.3-.1 2.4-.2 4.8-.2 7.2.3-.1.5-.3.7-.4zm-.1-88.4v1.8c-.3 20.7-1.1 41.5-1.3 62.2.2 0 .4.1.5.3.2.5.3 1 .3 1.6.3-3.3.7-6.6 1-9.9.1-2.7.2-5.4.3-8-.1-12.6-.3-25.2-.3-37.8-.2-3.4-.4-6.8-.5-10.2zm-.8 68.1c.1-.6.1-1.2.2-1.8-.1.1-.1.2-.2.2v1.6zm-1.1 35.8c-.2.5-.3.9-.5 1.4.2 0 .4-.1.5-.1.1-.4.2-.9.2-1.4 0 0-.1.1-.2.1zm-.9 2.4l-.3.9.9-.3c.1-.2.1-.5.2-.7-.3 0-.5.1-.8.1zm-.7 2c-.1.2-.2.5-.3.7.2-.1.5-.2.7-.2.2-.1.3 0 .4.1.1-.3.1-.6.2-.8-.3 0-.7.1-1 .2zm-1.1 2.4v.1c.4.2.8.3 1.2.5.1-.3.2-.7.4-1.1-.6.2-1.1.4-1.6.5zm-2.3 4.9l-.3.6c.6-.2 1.3-.5 1.9-.8h.2c.1-.2.2-.4.3-.7l-2.1.9zm-1.3 2.3c-.1.3-.3.5-.5.8.3-.1.6-.1.9-.2.3-.1.5.1.6.4.2-.4.5-.7.7-1.1l.3-.6c-.6.2-1.3.4-2 .7zm-1.1 1.7c-.2.4-.4.7-.7 1.1.8-.4 1.5-.8 2.2-1.2 0-.1.1-.1.1-.2-.4.2-1 .2-1.6.3zm-.9 4.3l.9-.3c.6-.5 1.2-1.1 1.8-1.7-.6.3-1.1.5-1.7.8-.3.5-.7.9-1 1.2zm.2-1.7c-.4.2-.9.4-1.4.6l-.1.1c.6-.3 1.1-.5 1.5-.7zm6.3-4.4c-1.2 1.1-2.5 2.2-3.9 3.1-.1.1-.2.2-.2.3.5-.2 1.1-.5 1.6-.7.1-.1.1-.2.2-.2.2-.3.7-.2.8 0 .4-.8.9-1.7 1.5-2.5zm3.8-17.3c-.1 0-.3.1-.4.1.1 1.1.1 2.2.2 3.3.1-1.1.2-2.2.2-3.4zm.1-1c.1-1.5.1-2.9.2-4.4-.2.9-.3 1.8-.5 2.6 0 .6-.1 1.3-.1 1.9 0 0 .2 0 .4-.1zm.5-19.5V293c-.1 1.6-.2 3.3-.4 4.9-.1 1.8-.3 3.5-.4 5.3.2 1.9.5 3.8.7 5.7.1-.6.1-1.1.1-1.6zm1.9-107.2c0-3.5 0-6.9-.1-10.4v.1c0 1.1 0 2.1-.1 3.2-.1 4.3-.5 8.7-.7 13v9.8c.2-1.7.4-3.5.5-5.2 0-3.4 0-6.7.1-10.1 0-.3.1-.4.3-.4zM216.3 83.4c-.3-1.8-.9-3.6-1.5-5.3.5 2.5.9 4.9 1.1 7.4.4 4.1.7 8.2.8 12.4.1-1.7.2-3.3.2-5v-.2-.5c-.1-2.9-.3-5.9-.6-8.8zm-7-29c2.3 4.5 3.2 9.4 3.9 14.3.3 1.8.5 3.5.8 5.3.4.8.7 1.6 1 2.4.3.7.6 1.5.9 2.3-.5-8.3-1.3-17.7-6.6-24.3zm-17.9-12.8h-.3c2.7 1.1 5.2 2.6 7.3 4.6 1.3 1.2 2.5 2.6 3.5 4.1.8 1.1 1.6 2.2 2.2 3.4.4.8.9 1.6 1.3 2.4.1.2 0 .5-.2.6.1.3.1.6.2.9.1.6-.8.8-.9.2-.3-1.3-.7-2.5-1.2-3.6-.7-1.2-1.4-2.4-2.2-3.5-.4-.5-.9-1-1.4-1.5-1.3-1.2-2.8-2.4-4.5-3-1.8-.7-3.6-1-5.5-1.1-3.9-.2-7.9-.2-11.8-.1-.9 0-1.7 0-2.6-.1v.2c.1 0 .1.1.2.1.5.3.1 1.1-.5.8l-1.2-.6c-1-.2-1.9-.5-2.7-1 .1.1.2.3.3.4.4.5-.4.9-.8.5-.5-.7-1-1.4-1.5-2.2-.2.1-.5 0-.6-.3-.1-.6-.2-1.1-.4-1.7V41c-.3-.7-.4-1.4-.6-2.1 0-.1 0-.2-.1-.3l-.3-1.5c-.1-.7-.2-1.4-.2-2.1 0-.3.1-1.1 0-1.4-.3-.5.5-1 .8-.5H168c.1-.1.1-.3.2-.4 0-.1.1-.1.1-.2.1-.1.2-.2.3-.2.2 0 .3 0 .4.2v.1c.4.9.4 1.8.4 2.7v.3c.6.2.3 1.1-.2.9-.2-.1-.4-.1-.6-.2.6 2.1 1.9 3.9 2.9 5.9 1 .7 2 1.3 3.2 1.5 1.8.4 3.8.2 5.6.2 2 0 4.1 0 6.1.1 1.9.1 3.7.1 5.6.3 1.6.2 3.2.7 4.6 1.4-.1-.1-.3-.2-.4-.3-2.9-2.2-6.3-3.7-9.9-4.5l-3.6-.3c-.6 0-1.2-.1-1.8-.1-2.3 0-4.7-.1-6.9-.6-.5-.1-1.1-.3-1.6-.5-.4-.3-.7-.6-1.1-.9l-.2-.2-.1-.1-.2-.2-.1-.1-.2-.2-.1-.1-.2-.2-.1-.1-.1-.1c-.1-.4-.2-.8-.2-1.2v-.1c-.2-1.5-.3-3-.2-4.5-1.6 1.1-3.6 1.3-5.5 1.4h-.9c.2.5.5.9.8 1.3.3-.2.7 0 .7.4v.3c.3.3.7.5 1.1.7.6.2.3 1.1-.2.9-.4-.1-.7-.3-1-.5 0 .3-.1.7-.1 1 0 .6-.9.6-.9 0s.1-1.1.1-1.7l-.4-.4c0 .3-.1.6-.2.9 0 .1-.1.1-.1.2 0 .3.1.7.1 1 .1.6-.8.8-.9.2-.2-1.2-.2-2.3 0-3.5-.1-.1-.1-.3-.2-.4-.2-.2-.1-.4-.1-.5h-.3c-.2.3-.3.6-.4.9 0 .1.1.1.1.2v2.6c0 .6-.9.6-.9 0v-1.2c-.2-.9-.1-1.7.2-2.5h-3.4c0 .1.1.1.1.3v2.2c0 .6-.9.6-.9 0V33c0-.1 0-.2.1-.3h-1.6v.1c.1.4.1.9.1 1.3.2.3.4.5.7.8.4.4-.2 1-.6.7v1.1c0 .6-.9.6-.9 0v-.8c-.2.1-.4.2-.6 0-.9-.9-1.1-2.1-.6-3.2h-1.2V37c0 .6-.9.6-.9 0v-4.2-.1h-1.7c.6 1 1.2 2 1.5 3.1.2.6-.7.8-.9.2-.1-.5-.3-1-.6-1.5v.3c0 .1-.1.2-.1.3-.1.7-.1 1.3-.3 2-.1.6-1 .3-.9-.2.2-.9.2-1.8.3-2.7 0-.5 0-1.1-.2-1.6h-1.6c.7.8.9 2.2.9 3.3 0 .3-.3.5-.6.4v.3c0 .6-.8.6-.9.1-.1.3-.6.5-.9.1 0 0 0-.1-.1-.1 0 .6-.9.6-.9 0 0-.7 0-1.4.1-2.1-.1-.7 0-1.5.4-2.2h-3.8c0 1.2 0 2.4.4 3.6.2.6-.7.8-.9.2-.1-.3-.2-.5-.2-.8v1.1c0 .6-.8.6-.9.1v1c0 .6-.9.6-.9 0v-1.8c-.1.4-.6.6-.8.2-.5-1-.4-2.1-.4-3.2 0-.6.9-.6.9 0 0 .9-.1 1.9.3 2.7v.1c0-.6-.1-1.3-.2-1.9-.1-.4.4-.5.7-.3v-1-.1c-1.8-.1-3.6-.2-5.3-.2h-.6c.2.1.3.3.2.5 0 .1-.1.2-.1.3 0 0 .1.1.1.2.5-.1 1-.1 1.4.3.3.4.4.8.5 1.3 0 .3-.2.4-.4.4V39c0 .6-.9.6-.9 0v-2.6c-.2.1-.4.2-.6 0l-.1-.1v1.8c0 .6-.9.6-.9 0 0-1.2 0-2.5.1-3.7-.1-.6-.1-1.2.1-1.8 0-.1.1-.2.2-.3h-1.1c.2.1.4.4.3.7-.6 1.4-.3 3.4-.3 4.9 0 .6-.9.6-.9 0v-1c-.2 0-.3-.2-.3-.4v-3.3c0-.4.4-.5.7-.4 0-.1.1-.1.1-.2.1-.1.1-.2.2-.2-1.2-.1-2.4-.2-3.6-.4.2 0 .5.1.5.4.2-.1.5-.1.6.1.3-.5 1 0 .8.5-.4.9-.3 2.1-.3 3.1 0 .4-.4.5-.7.4 0 .5-.1 1-.1 1.4 0 .6-.9.6-.9 0v-1c-.2 0-.4-.2-.4-.4V36c-.2.2-.5.2-.7-.1-.5-.9-.8-1.9-1.3-2.8-.1 1.5-.1 2.9.4 4.3.2.6-.7.8-.9.2l-.3-.9c0 .1-.1.1-.1.2V39c0 .6-.9.6-.9 0v-1.2c-.2 1.3-.4 2.5-.7 3.8-.6 3-1.5 6-2 9 0 .2-.1.3-.1.5.2 0 .4.2.4.4 0 2.2.4 4.3.7 6.5.1.4-.3.6-.6.6.1.5.1 1.1.2 1.6.1.6-.8.8-.9.2-.3-1.7-.4-3.3-.6-5-.4 2.1-.8 4.2-1.3 6.4.1.1.2.3.2.5-.3 2.1 0 4.1.7 6 .2.6-.7.8-.9.2-.1-.3-.2-.6-.3-.8v.7c0 1.3 0 2.6-.3 3.8-.1.6-1 .3-.9-.2.2-1.1.3-2.2.3-3.4 0-.7.1-1.6 0-2.3v.7c-.1 1.5-.5 3-.9 4.4.3 2.2 0 4.5-.6 6.7-.1.3-.4.4-.6.3.1.5.3 1 .4 1.5.7-2.2 1.3-4.4 1.6-6.7.1-.6 1-.6.9 0-.4 3-1.2 5.9-2.3 8.7 0 .8.1 1.6.1 2.3 0 .6-.9.6-.9 0V84c-.7 1.5-1.4 3-2.2 4.5 0 .4.1.7.2 1.1.1.6-.8.8-.9.2v-.1c-.4.7-.8 1.4-1.3 2.1V94c0 .6-.9.6-.9 0v-.8c-.2.3-.4.6-.6.8v4c0 .6-.9.6-.9 0v-2.7c-.4.6-.9 1.2-1.3 1.8v4.5c0 .6-.9.6-.9 0v-3.1c-.4.6-.7 1.2-1.1 1.7.1 1.2.2 2.4.2 3.6 0 .6-.9.6-.9 0v-2.3c-.3.4-.6.9-.9 1.3v1c.3-.2.9 0 .7.5-.3.8-.3 1.6-.4 2.5 0 .3-.2.4-.4.4v.7c0 .6-.9.6-.9 0-.2.7-.2 1.4-.2 2.2 0 .6-.9.6-.9 0 0-1.1.1-2.1.4-3.1.1-.3.5-.4.7-.2v-2.6c0 .1-.1.1-.1.2-.4.6-.8 1.2-1.2 1.7l-1.8 6.3c-.1.4-.5.4-.7.2v2.2c0 .6-.9.6-.9 0v-.8c-.3.2-.7.1-.7-.4 0-.7.1-1.3.2-2-.1.2-.3.4-.4.5v.1c-.4 1.9-.4 3.8-.4 5.8 0 .6-.9.6-.9 0 0-1.5 0-2.9.2-4.4-.8 1.1-1.7 2.2-2.6 3.2V119.1c0 .6-.9.6-.9 0V118c-.2.3-.5.6-.7.9-.2 1.2-.3 2.4-.6 3.6-.1.6-1 .3-.9-.2 0-.2.1-.4.1-.6-.5 1.5-.6 3.2-.3 4.7.1.6-.8.8-.9.2-.3-1.5-.2-3.2.2-4.7l-1.2 1.5v4.5c0 .6-.9.6-.9 0v-3.4c-.2.3-.5.6-.7.9-.4 1.2-.2 2.7-.2 3.9 0 .6-.9.6-.9 0v-2.4c-.3.4-.6.8-.9 1.1l-.1.1c-.1 1.4-.3 2.7-.3 4.1 0 .4-.4.5-.7.4v2.2c0 .6-.9.6-.9 0 0-1.4 0-2.8.2-4.2-.4.5-.8 1-1.1 1.5v.2c-.3 1.8-.4 3.6-.4 5.4 0 .6-.9.6-.9 0 0-1.3 0-2.5.1-3.8-.4.8-.8 1.5-1.3 2.3.1.1.2.2.2.4v4c0 .6-.9.6-.9 0v-3.1c-.5 1-1.1 1.9-1.6 2.8 0 1.5.1 3.1.3 4.6.1.6-.8.8-.9.2-.2-1.1-.3-2.2-.3-3.3-.4.8-.9 1.5-1.3 2.3.1 1.1.5 2.2.9 3.3.3.5-.5 1-.8.5-.4-.8-.6-1.6-.8-2.4-.3.6-.5 1.1-.7 1.7-.1 1 0 1.9.2 2.9.1.6-.8.8-.9.2-.1-.3-.1-.5-.1-.8-.3.9-.5 1.8-.8 2.7 0 .2-.1.4-.1.5 0 .1 0 .2.1.2.1.3-.1.4-.2.5-.9 4.5-1.2 9.1-2.2 13.6-1.1 4.7-2.7 9.8-1.2 14.6.1.5-.4.7-.7.5v22.3c.7 8.9 1.1 17.7 1.3 26.6.4 4.3.9 8.7 1 13 0 .5-.6.6-.8.3.2 8.9.4 17.7.3 26.6.6 0 .6.9 0 .9 0 1.2 0 2.5-.1 3.7-.1 3.2-.2 6.4-.3 9.7.1 5-.2 10-.5 14.9-.1 3.8-.2 7.6-.2 11.5v.1c.7 0 1.4-.1 2-.5.2-.1.4-.1.5 0 .2-.1.4-.1.6-.1.6 0 .6.9 0 .9-.4 0-.7.3-1.1.3h-.2c-.7.3-1.5.3-2.3.3v.6c.1-.1.2-.1.3-.1.6 0 1.1-.3 1.7-.3.6 0 .6.9 0 .9s-1.1.3-1.7.3c-.1 0-.2 0-.3-.1v3.1c.3-.1.6-.2 1-.3-.3-.2-.4-.7.1-.9.8-.2 1.5-.3 2.3-.3.6 0 .6.9 0 .9s-1.2 0-1.9.2h1c.6 0 .6.9 0 .9-.7 0-1.8-.1-2.4.4l-.1.1v1.6c1.3-.3 2.5-.5 3.8-.7.6-.1.8.8.2.9-1.3.3-2.7.5-4 .8v.7c1.6-.2 3.2-.5 4.7-1.2.5-.3 1 .5.5.8-1.6.8-3.4 1.1-5.1 1.4 0 .4.1.9.1 1.3 1.9-.9 4.1-.8 6.2-.8.6 0 .6.9 0 .9-1.8 0-3.6-.2-5.3.5h6.1c.6 0 .6.9 0 .9h-6.9c.2 1.9.4 3.8.7 5.6.1-.1.2-.2.4-.2 2.3 0 4.5-.2 6.7-.6-2.1-.5-4.2-.7-6.3-.2-.6.1-.8-.8-.2-.9 2.4-.5 4.8-.3 7.1.3.3.1.4.4.3.7.2 0 .4-.1.6-.1.6-.1.8.8.2.9-2.8.5-5.6.8-8.4.8-.1 0-.2 0-.3-.1 0 .1 0 .3.1.4 2.6-.2 5.1-.5 7.7-.7.6-.1.6.9 0 .9-.7.1-1.5.1-2.2.2.6.1 1.2.3 1.8.5.4.2.4.6.2.8H77c.6 0 .6.9 0 .9h-8c.1.5.2 1 .2 1.5 3.4 0 6.8.7 10.2.1.6-.1.8.8.2.9-3 .6-6 .1-9.1 0l2.7.6c1.3-.1 2.5-.1 3.8-.1.6 0 .6.9 0 .9.4.3.1 1-.4.8-1.1-.3-2.3-.5-3.4-.7-1.7.1-3.5.4-5.1 1 0 .1.1.2.1.3.1.2.2.3.3.5 2.8.1 5.5.8 8.3 1.1.6.1.6 1 0 .9-1.7-.2-3.5-.5-5.2-.8 2.1.8 4.3 1.4 6.6 1.2.4 0 .5.3.4.6.1 0 .3 0 .4.1.1 0 .1 0 .2-.1.6-.2.8.7.2.9-.4.2-.9.3-1.3.4-2.1.9-4.5 1-6.8.7v.1c2.6 1.4 5.7 1.8 8.7 1.3.6-.1.8.8.2.9-2.7.4-5.6.2-8.2-.8.1.1.1.2.2.3.1.2.2.3.3.5.1-.3.7-.4.9 0 .6 1.6 2.5 2.2 4 2.4 1.5.3 3.1.3 4.6.3.6 0 .6.9 0 .9-2.2 0-5.4.1-7.6-1.2 2.6 1.3 5.7 1.8 8.6 1.3.6-.1.8.8.2.9-3 .4-6 0-8.8-1.2.1.1.2.3.3.4.5.5 1 .9 1.6 1.3.1-.2.3-.4.6-.3 3.8.8 7.2 3.2 11.2 3.3.6 0 .6.9 0 .9-.7 0-1.5-.1-2.2-.2.2.2.2.5 0 .7 2.5.6 5 1.3 7.5 1.7.6.1.3 1-.2.9-.6-.1-1.1-.2-1.7-.3 0 .2-.2.3-.4.3-3.4 0-6.4-1.2-9.6-2.1.6.5 1.2 1 1.8 1.4.9.6 1.9 1.2 2.9 1.7.1-.1.2-.1.3 0 1.4.5 2.9.6 4.4.6-.1-.4.2-.9.6-.6.3.2.5.4.8.6 1 0 1.9-.1 2.8-.1.6 0 .6.9 0 .9h-1.2c3.3 1.6 7.2 2 10.7 2.7.6.1.3 1-.2.9-4.1-.8-8.7-1.2-12.3-3.5-1.1 0-2.1 0-3.2-.1 3.6 1.7 7.3 3.1 11.1 4.2 0-.2.2-.5.4-.4 9.2 0 17.9 2.8 26.9 4.2.3 0 .4.3.3.5.4 0 .8.1 1.1.1 3.3.3 6.6.6 9.9.8 1.8-.3 3.6-.7 5.5-.9 3.3-.4 6.7-.2 10-.3 6.7-.3 13.5-.8 20.2-1.2.6 0 .6.9 0 .9-6.9.4-13.7 1-20.6 1.2-1.7.1-3.5.1-5.2.1-1.7 0-3.3 0-5 .2-.2 0-.3 0-.5.1 7.2.1 14.4.2 21.6.2.9-.1 1.8-.2 2.6-.3 1.8-.3 3.6-.6 5.3-.8.2 0 .4 0 .7-.1.7-.2 1.3-.5 2-.7.3-.1.5.1.5.4 4-.7 7.9-1.4 11.8-2.4.7-.2 1.3-.3 2-.5.3-.1.6-.2.9-.4.4-.2.8-.3 1.1-.5-4.8.3-9.7.8-14.5.9 1.1.1 2.1.2 3.2.2.6 0 .6 1 0 .9-1.7-.1-3.5-.2-5.2-.4-5 1.2-10.2.7-15.2 1.2-.6.1-.6-.9 0-.9 3.5-.4 7-.2 10.6-.5h-3.9c-.5 0-.6-.8-.1-.9-1.5-.1-3-.2-4.5-.4-1.4 0-2.7.2-4.1.4-.5.1-.7-.4-.5-.7-2.6-.1-5.2-.1-7.9.2-2.5.3-5 .6-7.5.2-.6-.1-.6-1 0-.9 2.6.3 5.2 0 7.8-.3 2.6-.3 5.1-.3 7.7-.2l4.2.3c1.7-.1 3.3 0 5 .1 3 .2 6.1.7 9.2.6 6.1-.1 12.2-.8 18.3-1.1.8-.4 1.7-.8 2.5-1.2 0 0 .1 0 .1-.1 1.7-1 3.4-2 5-3.1 0-.1.1-.2.2-.3.8-.6 1.7-1.1 2.5-1.7-1.2 0-2.4.1-3.4.6-.5.2-1-.5-.5-.8.4-.2.9-.3 1.4-.4-.7.1-1.5.2-2.3.2-.6 0-.6-.9 0-.9h.8c-.3-.3 0-.9.5-.8 1.4.3 2.8.2 4.1 0 .7-.2 1.3-.4 2-.6.1 0 .2-.1.3-.1-.1-.2-.1-.4.2-.5.9-.4 1.8-.8 2.6-1.3.3-.3.5-.6.8-.9-2.4.8-4.8 1.7-7.2 2.2-.6.1-.8-.8-.2-.9 3-.6 5.8-1.7 8.7-2.7.1-.2.3-.3.4-.5-2.3 1-4.7 1.7-7.4 1.6-.6 0-.6-.9 0-.9 2.7.1 5.1-.7 7.5-1.8-.1 0-.1-.1-.2-.2-.3.1-.5.1-.8.2-2 .8-4.1 1.4-6.3 1.3-.6 0-.6-.9 0-.9 1.7.1 3.2-.2 4.8-.8 0-.2.1-.3.3-.3.3 0 .6-.1 1-.2.6-.3 1.2-.5 1.8-.8l1.2-1.8c-1.9.2-3.9.4-5.4 1.6-.5.4-1.1-.3-.6-.7 1.9-1.6 4.3-1.6 6.7-1.9.1-.2.2-.4.4-.6-1.4.3-2.8.5-4.2.6H210.8c-.6.1-.6-.9 0-.9 1.9-.2 3.8-.6 5.7-1.2.1-.2.3-.5.4-.7-.9.2-1.7.2-2.6.1-.6-.1-.3-1 .2-.9 1 .2 2 0 3-.2.1-.2.2-.5.4-.7-1.7.5-3.5.9-5.4.7-.6 0-.6-1 0-.9 1.2.1 2.4 0 3.6-.3-1.1-.2-2.1-.4-3.1-.7-.4-.1-.4-.6-.2-.8-1.2-.2-2.3-.4-3.5-.5.2-.2.4-.4.5-.6-2.2-.3-4.3-.5-6.5-.7 0 .1-.1.2-.1.3-.2.1-.3.2-.5.4.2-.2.3-.4.5-.6-.9-.1-1.8-.1-2.8-.1-.6 0-.6-.9 0-.9 3.2 0 6.4.4 9.6.8-3.5-.8-7-1.3-10.7-1-.6.1-.6-.9 0-.9 4.8-.4 9.3.6 13.8 1.8.1-.1.2-.1.3-.1 1.5-.1 2.9-.1 4.3.2.9-.2 1.7-.4 2.5-.7.1-.3.2-.6.4-.9-1 .1-2.1 0-3.2-.2-.6-.1-.3-1 .2-.9 1.1.3 2.2.3 3.3.1.1-.3.2-.6.4-.9-.9.2-1.8.3-2.7.3-.6 0-.6-.9 0-.9 1.1 0 2.1-.2 3.1-.4.2-.4.3-.9.5-1.3-.8.2-1.7.3-2.6.1-.6-.1-.3-1 .2-.9.9.1 1.8 0 2.7-.3.2-.7.4-1.3.6-2-1.1.3-2.2.6-3.4.4-.6-.1-.6-1 0-.9.8.1 1.5 0 2.2-.2-.9.1-1.8.2-2.6 0-.2-.1-.3-.3-.3-.5-.7.1-1.4.2-2 .2-.6 0-.6-.9 0-.9 1.5 0 2.9-.4 4.3-.8-.4.1-.8.1-1.3.1-.6 0-.6-.9 0-.9 1.3 0 2.6-.3 3.8-.7v-.6c-.4-.1-.5-.8 0-.9v-1.1c-.7.2-1.4.3-2.1.5.4.2.3.9-.2.9h-.1c-.1 0-.2.1-.2.1-.2.1-.5.1-.7.1-.4 0-.5-.4-.4-.7-.1 0-.2.1-.3.1-.6.2-.8-.7-.2-.9 1.5-.4 2.9-.9 4.4-1.2v-1.1c-1.1.2-2.2.3-3.3.1-.4-.1-.4-.5-.2-.7-.1-.2-.1-.5.1-.7-.3 0-.7-.3-.5-.7.6-.9 1.5-1.2 2.4-1.1v-.4c-.6 0-1.1-.1-1.6-.3-.3-.1-.3-.3-.3-.5-.1 0-.2 0-.2-.1-.6-.1-.3-1 .2-.9.7.1 1.4.3 2.1.4v-.1c-.1-1.3-.1-2.5-.1-3.8-.2.2-.5.2-.7 0l-.4-.4c-.2-.2-.2-.5 0-.7.2-.2.5-.2.6 0l.4.4v-1.7c-.2-.1-.5-.1-.7-.1-.3 0-.4-.2-.4-.5 0-.2.1-.5.4-.5.2 0 .5 0 .7.1 0-1.2 0-2.5-.1-3.7 0-.6.9-.6.9 0s.1 1.2.1 1.8c.1-.7.1-1.4.2-2-.1-.3-.3-.7-.4-1-.1-.1-.2-.2-.2-.4v-2.6h-.1c-.6 0-.6-.9 0-.9h.1v-4.4c-.2-2.4-.3-4.9-.3-7.3 0-.3.2-.4.4-.4.1-8.4.4-16.8.6-25.2.2-6.1.3-12.2.5-18.4.1-6 .1-12.1.3-18.1.1-2.9.3-5.9.4-8.8.1-2.9.1-5.7.4-8.6.2-2.1.5-4.2.4-6.3-.2-.1-.4-.3-.3-.6.1-.5.2-1 .2-1.5v-.1c-.3-2.7-.8-5.4-.4-8.2.1-.4.6-.4.8-.1v-16l-.6-3.6c-.1-.4.3-.6.6-.6v-.3c0-.2.1-.4.3-.4v-.1c-.1-.7-.2-1.3-.2-2-.1.3-.2.6-.2 1 0 .6-.9.6-.9 0 0-1 .3-1.8.9-2.5-.1-1.1-.3-2.1-.4-3.2 0-.2 0-.3-.1-.5-.6 1.2-1.2 2.5-1.7 3.7-.2.5-1.1.3-.9-.2.7-1.7 1.5-3.3 2.3-4.9 0-.1.1-.1.1-.1 0-.2 0-.3-.1-.5l-1.4 2.9c-.3.5-1.1.1-.8-.5l2-4c-.1-.8-.3-1.7-.5-2.5-.6 1.4-1.1 2.8-1.4 4.3-.1.6-1 .3-.9-.2.4-1.8 1.1-3.6 1.9-5.3 0-.1.1-.1.1-.2-.1-.5-.2-.9-.4-1.4-.5 1.5-1.1 2.9-1.9 4.2-.3.5-1.1 0-.8-.5 1-1.7 1.7-3.4 2.1-5.3l-.6-1.2c-.6.9-1.1 1.9-1.1 3 0 .6-.9.6-.9 0 0-1.5.6-2.8 1.6-3.9l-.6-1.2c-.4.8-.9 1.5-1.2 2.3-.2.6-1.1.3-.9-.2.4-1.1 1-2 1.5-3.1-.1-.3-.3-.6-.4-.8-.6.8-1.1 1.7-1.3 2.7-.2.6-1 .3-.9-.2.3-1.3 1-2.3 1.8-3.4-1.1-2.1-2.1-4.2-3.1-6.4 0 .1 0 .2-.1.3-1.1 1.2-1.7 2.8-1.7 4.5 0 .6-.9.6-.9 0 0-.7.1-1.5.3-2.2-.2-.1-.4-.3-.3-.5.4-1.4.7-2.8 1.5-4.1-.1-.2-.2-.3-.3-.5-.2 0-.4-.1-.4-.3 0-.1 0-.2-.1-.3 0-.2-.1-.4-.1-.5v-.2c0-.1 0-.3-.1-.4v-.2c0-.1-.1-.3-.1-.4v-.1c0-.2-.1-.4-.2-.5 0 0 0 .1.1.1 0-.1 0-.2-.1-.4-.3-1-.5-2-.6-3-.2-1-.5-1.9-.6-2.9-.1-.3.1-.5.3-.5-.1-1.2 0-2.4 0-3.6.1-2 .5-4 .8-6 0-.2-.1-.3-.1-.5 0-.3.1-.5.3-.5 0-.2.1-.5.1-.7 0-.1 0-.2.1-.3.3-2.4.6-4.8.8-7.2.1-.7.1-1.4.2-2.1 0-2.6 0-5.2-.1-7.8-.1-6-.4-12-1.4-17.9-.5-3-1.2-5.9-1.8-8.9-1.4-3-2.7-6-3.8-9.1-1.6-4.8-3.1-9.7-6.4-13.6-.4-.4.3-1.1.7-.7 3.3 3.9 4.8 8.7 6.4 13.5.7 2 1.5 4 2.4 6-.1-1-.3-1.9-.4-2.9-.2-1-.5-2-.8-3-1.3-4.6-3-9.1-6.1-12.8-1.7-2-3.7-3.6-5.8-5-2.3-.7-4.6-1.9-7.3-2.4zm-16.8 330.6c-1.4.2-2.8.3-4.2.4-.2.1-.4.1-.7.2-.1 0-.1.1-.2.1h-.1c-.8.2-1.6.3-2.4.4 2.6-.3 5.1-.6 7.6-1.1zm1.6-.4c1-.2 1.9-.5 2.9-.7-1 .1-1.9.2-2.9.3.1.1.1.3 0 .4zm-20.8 2.5l-4.8.3c-4.6.3-9.1.3-13.7 0-.5 0-.9-.1-1.4-.1 3.3.5 6.6.9 9.9 1.1 1.3-.1 2.6-.1 3.9-.3 2.1-.2 4.1-.6 6.1-1zm-37.2-3.7c1.6-.1 3.3-.2 4.9-.1-7.1-1.3-14.1-3.2-21.3-3.4 1.2.3 2.3.6 3.4.9 4.3 1 8.6 1.9 13 2.6zm-11.3-1.2l1.8.6c1.1.2 2.2.3 3.3.5-1.7-.4-3.4-.7-5.1-1.1zm27.4 3.1c0-.1-.1-.2 0-.3-1.7-.1-3.4-.3-5.1-.4-1.5-.1-3.1-.3-4.6-.4.2 0 .5.1.7.1 3 .4 6 .7 9 1zm12.2 1.1c2.9-.1 5.9-.4 8.8-.7v-.1c-4.4 0-8.8-.1-13.2-.2-1.1 0-2.1-.1-3.2-.1l-2.1.3c3.2.3 6.5.6 9.7.8zM77.6 357c-1.1-1.2-2.1-2.5-3-3.9-.4-.4-.8-.9-1.2-1.4-.5-.5-1.1-1-1.6-1.5 1.2 1.9 2.6 3.8 4.1 5.5.5.5 1.1.9 1.7 1.3zM66.9 170.3c.2.1.3.2.3.4v.9c.4-1.8.8-3.6 1.2-5.3.6-2.8.8-5.6 1.3-8.5.2-1.6.5-3.2.9-4.8-.1-.6-.2-1.2-.2-1.8 0 .1-.1.2-.1.2-.3.8-.6 1.7-.9 2.5v1.3c0 .3-.3.5-.5.4-1.4 4.9-2 9.7-2 14.7zm6-24.7c.1 0 .1 0 0 0 .3-.4.5-.9.8-1.4-.3.5-.5.9-.8 1.4zm-.5 1.1c-.4.9-.8 1.7-1.2 2.6.1 0 .3.1.3.3 0-.1.1-.2.1-.3.2-.7.5-1.3.7-2 0-.2.1-.4.1-.6zm-4.5 189.8c.1-.1.2-.2.3-.2h.1c-.2-1-.3-2-.5-2.9-.2 0-.3-.1-.3-.3h-.1c.1 1.5.2 3.1.3 4.6v.4c.1.2.1.5.2.7.9-.3 1.7-.5 2.6-.7-.5-.1-.9-.3-1.4-.4-.2.1-.6.1-.7-.3-.1-.1-.3-.1-.4-.2-.1 0-.2-.1-.2-.2-.1-.1-.1-.3.1-.5zm.9-2.7h6.5c-2.1-.8-4.4-.8-6.6-.5.1.2.1.4.1.5zm1.2 7.7c-.3 0-.7-.1-1-.1.4.6.7 1.3 1.1 1.9 2.5.6 5 1 7.5.6-2.6.1-5.1-.7-7.5-1.8-.2-.1-.2-.4-.1-.6zm.1 5.5l-.9-1.8c0-.1-.1-.1-.1-.2.2.6.5 1.2.7 1.8.2.3.3.7.5 1 .2.1.3.3.5.4-.2-.4-.5-.8-.7-1.2zm-2.5-14.8c-.1-.8-.2-1.6-.4-2.4V332.2h.4zm.1-46.7v-1.8c-.1-2.3-.3-4.7-.5-7v20.4h.1c.1-3.8.3-7.7.4-11.6zm.4-9.4v-.6c.3-12.1-.2-24.1-.4-36.2 0-1.6 0-3.2-.1-4.8 0 10.5-.5 21.1-.2 31.6.1 2.9.2 5.9.5 8.8.1.4.1.8.2 1.2zm-2.2-35.3c0-10.3.2-20.6.2-30.9v-2.1c-.1 2.5-.2 5.1-.3 7.6-.3 8.5-.5 16.9.1 25.4zm.9 100.6c.3.9.6 1.9 1 2.8-.1-.5-.3-.9-.3-1.4-.1-.5-.2-1.1-.3-1.6-.1.1-.2.2-.4.2zm15.4 14c-1.4-.6-2.8-1.2-4.3-1.6.6.3 1.1.5 1.7.7.9.4 1.8.7 2.6.9zm-3.8-.3c.3.3.6.5.9.8.9.1 1.8.3 2.6.4-1.1-.3-2.3-.7-3.5-1.2zm.8 2.3c.1.1.2.2.4.3 2.9 2.7 6.5 4.9 10.1 6.8.2.1.3.1.5.2-2.6-1.4-5-3-7.3-4.7-1.3-.9-2.5-1.7-3.7-2.6zm14 7.8c1 .5 2 .9 3.1 1.3.8.2 1.6.4 2.5.7-2-.6-3.8-1.3-5.6-2zm5.7-255.5c-.1.4-.3.7-.4 1.1.1.1.2.2.2.4v.8l1-3.3c-.2.2-.5.6-.8 1zm13.9-24.4c.2.1.4.3.3.5 0 .2-.1.4-.1.6.8-1.5 1.5-3.1 2.1-4.6-.1-1-.2-2-.5-2.9-.4 2.2-1.1 4.3-1.8 6.4zm2.4-7.5c.2-.8.4-1.6.5-2.4-.1 0-.2-.1-.3-.1-.1.7-.3 1.4-.4 2.1.1.1.2.2.2.4zm-3.2 9.8c-.3.9-.7 1.7-1 2.5v.1c.4-.6.7-1.2 1.1-1.8-.1-.3-.1-.6-.1-.8zm12.5-55.3V32c0-.1.1-.2.1-.3h-.5c0 .2.1.4.1.6.2.1.3 0 .3 0zm-.8-1.5l-.6-.3v.2h.2c.1.1.3.1.4.1zm-.5 1.6s.1 0 .1.1l.1.1c0-.2-.1-.5-.1-.7v-.1h-.1v.6zm-.6 6l.3-2.1c-.1.5-.1 1-.2 1.5 0 .2 0 .4-.1.6zm-2.2 15.3c0 .1 0 .3-.1.4h.1c.1-.2.1-.3 0-.4zm6.9-18.5V35s-.1 0-.1-.1c.1.2.1.3.1.3zm-1-2.9c0-.2.2-.3.4-.3.1 0 .1 0 .2.1 0-.1.1-.1.1-.2h-1.3l1.2 2.7v-.1c.2-.5 0-1.3-.5-1.6 0 0-.1 0-.1-.1-.1-.2-.1-.4 0-.5zm7 2.1c.1.5.3 1 .6 1.4v-1.5c-.2 0-.4 0-.5.1 0-.1 0 0-.1 0zm13-1.6h-.3c0 .1 0 .2-.1.2-.1.2-.2.5-.3.7.2.1.2.3.1.6-.1.2-.2.4-.2.6.1.6.4 1.1.7 1.7l.1.1c0-.8 0-1.6.2-2.4 0-.1.1-.1.1-.2-.1-.2-.2-.5-.3-.6-.3-.3-.2-.5 0-.7zm8.2 1.8c-.2-.3-.3-.5-.5-.8-.1.5.1 1.1.5 1.6v-.8zm16.4 1.3c.1.4.1.9.2 1.3.3.7 1.1 1.2 1.9 1.6-.8-.6-1.4-1.3-1.9-2.2 0-.3-.1-.5-.2-.7zm-2.4 2.8c.2.7.4 1.4.7 2 0 .1.1.2.2.3l.6.9c0-.1.1-.2.2-.2-.5-.9-1.1-1.8-1.6-2.8 0-.1 0-.2-.1-.2zm3.6-2.6c.3.5.6 1 1.1 1.5 1.8 1.7 4.3 1.9 6.6 2-.9-.2-1.8-.5-2.7-.9-.1 0-.1-.1-.2-.1-2-.3-3.6-1.1-4.8-2.5zm-6.7-4.5c-.6.2-1.2.3-1.8.4h.5c2-.1 4.8-.2 6-2.2.3-.5.5-1.1.6-1.7-1.1 1.8-3.4 2.9-5.3 3.5zm2.5-2.1l1.2-.9c-.8 0-1.6.2-2.4.4h.8c.3 0 .5.3.4.5zm.5-5.2c-1.4-.1-2.8.1-4.3.3-2 .3-4 .2-6.1.1-6-.1-12-.3-18-.5-4.7-.1-9.5.1-14.2.3 2.2.1 4.3.5 6.5.5.5 0 .6.6.3.8 4.1.1 8.3.1 12.4.1 3.2 0 6.4-.3 9.6-.5 4.4-.9 9 .1 13.4-.9.6-.1.8.7.3.9h.3c.6.1.3 1-.2.9-4.4-.6-8.9-.4-13.3 0h-.4c-3.5.3-6.9.6-10.4.6-3.2 0-6.5 0-9.7-.1.1.3 0 .7-.4.6-4.3-.3-8.6.4-12.9.7l.9.6c.1-.1.2-.2.4-.2 4 .4 8 0 12 0 .6 0 .6.9 0 .9h-1.4c0 .3-.1.5-.4.5-2.6 0-5.2 0-7.8.2.6.2 1.2.4 1.8.5.2 0 .4.1.5.1 1.3 0 2.5 0 3.8.1 5 .2 10 .7 14.9.9 2.3 0 4.6-.1 7-.1 2.7-.1 5.5-.1 8.2-.4 1.8-.2 3.5-.4 5.2-1.1.3-.1.5-.2.8-.3-3.2 0-6.4.2-9.6.4-.3 0-.4-.1-.4-.3h-3.4c-.6 0-.6-.9 0-.9 2.8 0 5.5.1 8.3-.1 1.4-.1 2.8-.4 4.2-.7 1.2-.3 2.4-.5 3.6-.5.2-.3.3-.6.4-.9.1-.3.1-.6.1-.9-.2-.4-.5-.9-.9-1.2-.1-.1-.1-.1-.1-.2-.4-.1-.6-.2-1-.2zm-45.3-.4c.7-.1 1.4-.1 2.1-.1l7.2-.3c5.9-.2 11.9.1 17.8.2 3 .1 6 .2 9 .2 1.9 0 3.7 0 5.5-.2.7-.1 1.7-.3 2.8-.3v-.2c.1-.3.1-.6.2-.9h-.1c-.2 0-.4-.2-.4-.4H165c0 .2-.1.5-.4.5-1.7.1-3.3.2-5 .2-.9.2-1.7.3-2.6.4-1.8.2-3.9.3-5.5-.5-.6 0-1.3 0-1.9-.1-3.1-.2-6.5-.6-9.7-.3 0 .3-.1.6-.4.6H137c-.2.1-.3.1-.5.2s-.4 0-.5-.2h-.5c0 .3-.1.5-.4.5h-10.9c-.1 0-.2 0-.2-.1-.2 0-.3 0-.5.1-.1 0-.2 0-.3-.1v.3s0 .1.1.1c-.2.1-.2.2-.2.4zm34.3-3c1.7.1 3.5.1 5.2.1 1.3-.1 2.5-.2 3.8-.2.2 0 .3.1.4.2h.4c.1-.1.2-.2.4-.2h.1v-.1c-.6-.1-1.3-.1-1.9-.2-1 .1-2.1 0-3.1-.1-2.7-.1-5.4.1-8.1.3-.5 0-.9 0-1.4.1-2.4.2-4.8.4-7.1.5 1 .1 2.1.2 3.1.2h1.1c-.1-.4.4-.7.8-.4.2.2.4.3.6.4 1.4 0 2.8 0 4.3.1.4 0 .8-.1 1.2-.1-.3-.3-.1-.6.2-.6zm9.7-1.6c-7.6-.1-15.3-.8-22.9-.2-5.8.5-11.7 1.2-17.5.7 1.8.3 3.7.4 5.5.5 2.8.1 5.6.2 8.4.1 4.1-.1 8.1-.2 12.2-.4 4.3-.3 8.6-.6 12.9-.3.4-.2.9-.3 1.4-.4zM123 20.9v1.3c.1 0 .1 0 .2-.1h.2c-.2-.3-.1-.8.3-.7 2.8.4 5.6.2 8.5-.2.1 0 .3 0 .3.1.7 0 1.5 0 2.2.1.1 0 .2.1.3.2h1.6c.4-.1.9-.2 1.4-.3-5.1 0-10-.2-15-.4zm45.9-6c-2.4 1.7-5.9 1.8-8.7 2-3.5.2-6.9 0-10.4 0-4.8-.1-9.6.1-14.3.4-2.9.1-5.8.4-8.7.8-1 .1-1.9.3-2.9.5 3.2.5 6.4.6 9.6.5 3.8-.1 7.6-.6 11.4-.9 7.9-.5 15.8.3 23.7.3.4-.4.7-1 .9-1.7 0-.1 0-.2.1-.2 0-.5 0-1-.1-1.3 0-.2 0-.4-.1-.6-.2-.1-.3.1-.5.2zm-.6-4.6c0 1 0 1.9.2 2.9v.3c.3 0 .5-.1.8-.1-.1-1-.3-1.9-.6-2.9 0-.1-.1-.1-.1-.2H168.3c.1 0 .1 0 0 0zm-2.1-.1c.1 1.1.1 2.2.1 3.2v.1c.4 0 .9-.1 1.3-.1h.1v-.1c-.2-1.1-.2-2.1-.2-3.2-.5.2-.9.2-1.3.1zm-2.3 3.2c.1.1.1.2.1.3h.5c.3 0 .7 0 1-.1v-.2c0-1.1 0-2.2-.1-3.2h-1.9c-.2 1.1-.2 2.2.4 3.2zm-6.5.3h.6c1.7 0 3.3.1 5 0-.6-1.1-.6-2.3-.6-3.6h-1.8v3.1c0 .6-.9.6-.9 0v-3.1h-2c0 1 0 2 .2 3.1 0 .3-.3.5-.5.5zm-.7-3.6h-2.1c.1 1 .1 2 .1 3.1 0 .6-.9.6-.9 0 0-1 0-2.1-.1-3.1h-2.5c.1 1.2.1 2.4.2 3.5 1.9.1 3.8.1 5.7.2-.1 0-.2-.1-.3-.3 0-1.2 0-2.3-.1-3.4zM140.6 9c5.3 0 10.5.1 15.8.2-1.6-.2-3.2-.3-4.9-.4-3.6-.2-7.3-.1-10.9.2zm9.7 1h-1.9c0 1.2 0 2.4.4 3.5h1.6c0-1.2 0-2.3-.1-3.5zm-5.1 0v3.5h2.8c-.3-1.1-.4-2.3-.4-3.5-.8-.1-1.6-.1-2.4 0 0-.1 0 0 0 0zm-1 3.5V10v-.1h-3.1c.1 0 .2.1.3.3.2 1.1.2 2.1.6 3.1v.2h2.2zm-5.5.2c.8 0 1.6-.1 2.5-.1-.3-1-.4-2.1-.6-3.1 0-.3.2-.5.4-.6h-2.3V13.7zm-3 .1c.7 0 1.4-.1 2.1-.1-.1-.1-.1-.2-.1-.3V9.9h-1.8v.1c-.2.4-.1.9-.1 1.3 0 .6 0 1.3.1 1.9.1.4 0 .5-.2.6zm-3.2-3.8c.2 1.3.2 2.6.2 3.9.8 0 1.7 0 2.5-.1-.1-.1-.1-.1-.1-.2-.1-.7-.2-1.4-.2-2.1 0-.5 0-1 .1-1.5h-2.5zm-5 .3c.1.1.2.2.2.3 0 .2 0 .3-.1.4v1.1c0 .5.1 1 .1 1.4 0 .1 0 .2-.1.2 1.3.1 2.7.2 4 .2h.1c0-1.3 0-2.6-.2-3.8H129.8v3c0 .6-.9.6-.9 0v-2.9c-.4 0-.9.1-1.4.1zm-2.5.2c.1 1 .2 2 .2 3 .6 0 1.1.1 1.7.1v-.2c0-.8-.1-1.5-.1-2.3 0-.3 0-.6.1-.8-.7.1-1.3.2-1.9.2zm-2.4 3.1c.5 0 1-.1 1.6-.1 0-.9 0-1.9-.1-2.8h-.1c-.4.1-.7.1-1.1.2 0 .2.1.4.2.6 0 .2-.1.4-.3.4 0 .5-.1.9-.1 1.4 0 .1 0 .2-.1.3zm-1.5.2c.3-.1.6-.1.9-.2-.1-.1-.2-.2-.2-.3 0-.7.1-1.5.2-2.2h-.1l-.6.3c0 .8-.1 1.6-.2 2.4zm.5 3.4c.1.2.3.4.5.6h.2c.6 0 1.3-.2 2-.3 1.2-.2 2.5-.4 3.7-.5 2.8-.3 5.7-.5 8.5-.7 4.6-.2 9.2-.4 13.8-.3 3.5.1 7 .2 10.5 0 1.7-.1 3.4-.3 5-.7.7-.2 1.5-.4 2.2-.8h-.1c-1 .1-2.1.2-3.2.3-2.1.1-4.2.1-6.4 0-2.3-.1-4.6-.2-6.9-.2-.2.3-.7.3-.8 0-1.9-.1-3.7-.1-5.6 0-4.4.1-8.8.4-13.2.5-1.9 0-3.8-.1-5.7-.3-.5 0-1-.1-1.6-.1h-.2c-1.2 0-2.4 0-3.6.3 0 .2 0 .4-.1.5.4.5.6 1.1 1 1.7zm.9 2.6c.1 0 .3.1.4.2h1.4c-.1 0-.1 0-.2-.1-.7-.2-1.4-.6-1.9-1-.2 0-.4-.1-.6-.1.2.5.5.8.9 1zm-1.7 5.9c3 .1 6.1.1 9.1.2-1.3-.1-2.6-.3-3.8-.4-1.5 0-3.7-.3-5.3.2zm-.5 1.6c2.4-.1 4.7-.3 7.1-.5-2.6 0-5.1-.1-7.7-.2.1.3.3.5.6.7zm1.9 3.2v-.3c0-.1 0-.2.1-.3-.8-.6-1.6-1.3-2.5-1.7.3 1.3 1.3 2 2.4 2.3zM69.3 150.7c.1.1.1.2.1.3v.2c1.8-4.7 4.3-9.2 7.2-13.5 1.3-1.9 2.6-3.8 3.9-5.6.9-1.7 1.9-3.4 3-5 1.6-2.3 3.2-4.5 5-6.7 1.6-2 3.2-4.1 4.8-6.1-1.9 2.1-3.8 4.2-5.5 6.4-6.4 8.2-11.6 17.3-17.1 26.2-.5 1.3-1 2.5-1.4 3.8zm-1.6 5.9c0-.2.1-.4.1-.5.2-.8.4-1.5.7-2.2v-.5c-.3 1-.6 2.1-.8 3.2zm-1.4 182.9v-4.1c-.4-2.6-.5-5.3-.4-8 0-.2.2-.4.4-.4v-1.7c-.2-.2-.2-.5 0-.7-.2 0-.4-.2-.4-.4 0-1.3 0-2.7.1-4-.4-2.9-.4-5.8-.4-8.7 0-.4.4-.5.7-.4 0-20.5-.3-41-.3-61.5-1.5-10.2-1.5-20.5-1.2-30.8.3-7.7.6-15.3.7-23-.5-5.7-1.1-11.5-1.4-17.2-1 5-1.2 10.3-1.1 15.4 0 6.8.5 13.7.9 20.5.8 11.4.7 22.8.7 34.2 0 6 0 12.1.1 18.1.1 5 .4 10.1.3 15.1-.1 6.4-.6 12.8-.9 19.2-.4 7.4-.6 14.9-.2 22.3.3 5 .9 10.7 2.4 16.1zm13.2 19.6l2.1 1.5c-.8-.6-1.6-1.3-2.4-2-.1.1-.1.1-.2.1.2.1.3.3.5.4zm22.8 10.5c-2.1-.7-4.2-1.3-6.2-2.1 2 .8 4.1 1.5 6.2 2.1zm11.5 2c-.1 0-.1 0-.2-.1-1.7-.2-3.3-.4-4.9-.7h-.2-.1c-.7-.1-1.4-.2-2.1-.4-.8-.2-1.7-.3-2.5-.5.1.1.2.2.4.2 3.2.8 6.4 1.4 9.6 1.5zm21.7 3.8l-3.6-.6c-2.9-.5-5.8-1-8.8-1.5-1.1-.2-2.2-.4-3.2-.5 1.3.4 2.7.7 4 1 3.8.8 7.7 1.3 11.6 1.6zm33-.8h-.6c-.3 0-.4-.2-.4-.4-2.9.3-5.8.4-8.7.4-2 .5-4 .9-6.1 1.3 5.2-.2 10.5-.5 15.8-1.3zm15.6-3.9c.7-.3 1.5-.5 2.2-.8-.3.1-.6.2-1 .3-2.6.9-5.3 1.7-8 2.4 2.3-.6 4.6-1.2 6.8-1.9zm39.7-27.8c-1.4 2.1-2.6 4.4-4 6.5-2.1 3.1-4.8 5.8-7.7 8.2 3.3-2.4 6.3-5.3 8.6-8.8 1.2-1.8 2.3-3.8 3.1-5.9zm2-7.8v-.9c0 .5-.1 1.1-.1 1.6 0-.2.1-.4.1-.7 0 .1 0 0 0 0zm1.5-114c0 .2-.1.5-.1.7 0 .3-.2.4-.5.4V249c.1 4.5.1 8.9.1 13.4v2c.7-14.4.5-28.9.5-43.3zM205.5 80.6c.5-.3 1 .5.5.8-1.2.7-1.8 1.8-2.2 3.1l.9-1.2c.4-.4 1.1.2.6.7-1.1 1.1-1.6 2.7-2.1 4.2.3-.5.6-1.1 1.1-1.5.4-.4 1.1.2.6.7-1.1 1.2-1.5 2.8-2.1 4.2v.1c0 .3 0 .7-.1 1 .4-.6.7-1.2 1.1-1.8.3-.5 1.1 0 .8.5-.1.2-.2.4-.4.6.4-.3 1.1.1.7.5-1.1 1.5-2.1 3.1-3 4.7-.1.3-.2.7-.3 1-.2.4-.4.9-.6 1.3 1.5-1.5 3.1-3 3.5-5.2.1-.6 1-.3.9.2-.2.9-.5 1.7-1 2.5.1.1.2.2.1.4-.3 2.6-1.5 5.2-3 7.3-.5.7-1.1 1.4-1.7 2-.7 1-1.4 2-2.2 3-.2.2-.4.2-.6.1-.2.2-.3.5-.5.7-.3.5-1.1 0-.8-.5.3-.5.6-.9 1-1.3-.2.1-.4 0-.6-.1l-.3.6c-.2.5-1.1.3-.9-.2.3-.8.7-1.5 1.2-2.1-.1-.1-.1-.2-.1-.3v-.2c-.1 0-.1.1-.2.1v.2c-.4 1.6-1.3 3.1-2.3 4.5-.3.5-1.1 0-.8-.5.1-.1.2-.3.3-.4-.3-.1-.5-.5-.2-.8.2-.3.4-.5.6-.8-.1 0-.3 0-.4-.1l-.5-.5c-.5.8-.9 1.7-1.2 2.6-.2.6-1 .3-.9-.2.3-1.1.8-2.1 1.4-3l-.2-.2h-.1c-.2.2-.5.2-.7-.1l-.1-.1c-.6.9-.9 1.9-1.3 3-.2.5-1 .3-.9-.1-.3.2-.7.1-.7-.4 0-1.5.5-3 1.3-4.2l-.9-1.2-.6 1.8c-.2.6-1.1.3-.9-.2.3-.9.6-1.7.9-2.6-.1-.2-.3-.4-.4-.7-.7.9-1.2 1.9-1.8 2.9-.3.5-1.1 0-.8-.5.7-1.1 1.3-2.3 2.1-3.3l-.6-1.2c-.4.8-.9 1.6-1.4 2.4-.3.5-1.1 0-.8-.5.7-1 1.3-2 1.7-3.1-.1-.3-.3-.6-.4-.9 0-.1-.1-.2-.1-.3-.2-.3-.4-.6-.7-1-.2.4-.3.9-.4 1.4 0 .6-.9.6-.9 0 0-.8.3-1.5.7-2.2-.1-.1-.2-.3-.3-.4-.4.8-.7 1.6-1 2.4-.2.5-1.1.3-.9-.2.4-1 .8-2.1 1.3-3.1l-.9-1.5c-.2.5-.5 1-.7 1.5-.2.6-1.1.3-.9-.2.3-.8.7-1.5 1-2.2-.3-.5-.5-1-.8-1.4-.6 1.1-1.1 2.3-1.5 3.5-.2.6-1.1.3-.9-.2.5-1.5 1.1-2.9 1.9-4.2-.2-.4-.4-.7-.5-1.1-.2.5-.3 1-.5 1.5-.2.6-1.1.3-.9-.2.3-.8.5-1.6.8-2.4-.3-.6-.6-1.2-.8-1.7-.2.7-.4 1.5-.6 2.2-.1.6-1 .3-.9-.2.2-1.1.6-2.2.9-3.3-.1-.2-.1-.3-.2-.5-.1.2-.1.5-.2.7-.1.6-1 .3-.9-.2.1-.6.3-1.3.5-1.9-.2-.4-.3-.9-.5-1.3-.2.2-.4.5-.7.7-.5.4-1.1-.3-.7-.6.4-.3.7-.7 1-1.1 0-.1 0-.1-.1-.2-.1-.6-.3-1.1-.4-1.7-.3.2-.8-.1-.7-.5 0-.1.1-.3.1-.4-.3.4-1 .2-.8-.3.3-.8.6-1.6.8-2.4 0-.4-.1-.7-.1-1.1 0-.4-.1-.7-.1-1.1 0 .1 0 .2-.1.4-.1.6-1 .3-.9-.2.2-.9.4-1.8.7-2.6 0-.2 0-.5-.1-.7 0-.1 0-.1-.1-.2-.2.6-.5 1.1-.9 1.7-.3.5-1.1 0-.8-.5.6-.8.9-1.7 1.1-2.6-.3-.8-.7-1.5-1.1-2.2-.3.7-.8 1.3-1.1 1.7-.4.4-1.1-.2-.7-.7.8-.8 1.8-2.8 1.4-4-.1-.3.2-.6.5-.6v-1c-.5 0-.6-.7-.2-.9.6-3.6 2.6-6.9 5.9-8.6.3-.2.6 0 .7.3.4-.3.9-.5 1.4-.7.8-.7 1.6-1.5 2.3-2.3.4-.4 1 .2.7.7-.1.1-.1.2-.2.2.5-.3 1-.6 1.5-1 .5-.3.9.3.6.7.4-.3.8-.6 1.2-1 .4-.4 1.1.2.6.7-1.1 1.1-2.5 1.9-3.7 2.9.5-.1 1-.3 1.4-.4 1.1-.9 2.2-1.9 3.6-2.6.5-.3 1 .5.5.8-.8.4-1.6 1-2.3 1.5.8-.1 1.7 0 2.5.1.8-.2 1.6-.7 2.2-1.3.4-.4 1.1.2.7.7-.4.4-.8.7-1.3 1 .1 0 .3.1.4.1.2-.1.4-.1.5.1.1 0 .1 0 .2-.1.1 0 .1-.1.1-.1.3-.2.5-.5.8-.8.3-.5 1.1 0 .8.4l.9-.3c.6-.2.8.7.2.9l-2.1.6c.4.2.8.5 1.2.8.3-.2.6-.5.9-.7.4-.4 1.1.2.7.7-.2.2-.4.3-.6.5.1 0 .2-.1.3-.1.6-.6 1.6-.8 2.4-.4.5.2.1 1-.5.8-.1 0-.1 0-.2-.1 0 0-.1.1-.2.1l-1 .3c-.1.1-.1.2-.1.3.4.3.7.7 1 1.1.4-.3.8-.7 1.2-1 .4-.4 1.1.2.7.7-.4.4-.8.8-1.3 1.1l.3.6c.6-1.1 1.9-1.7 3.2-1.8.3 0 .4.2.4.4.3.1.6.6.2.9-.6.4-1.2.8-1.8 1.1-.2.2-.4.3-.6.5.1.1.1.2 0 .4-.1.3-.2.5-.4.8.4.9.6 1.8.9 2.8.3-.6.6-1.3.8-1.9.2-.6 1.1-.3.9.2-.1.3-.3.7-.4 1 .4-.3 1 .1.7.6-.6.9-1.1 1.8-1.4 2.8v.1c.1.4.1.7.2 1.1v.2c.5-1.1 1.1-2 2-2.9.4-.4 1.1.2.7.7-1 1-1.7 2.1-2.1 3.5 0 .2-.2.3-.3.3 0 .2.1.5.1.7.7-1.1 1.4-2.3 2.3-3.3.4-.4 1.1.2.7.6-1 1.1-1.7 2.4-2.5 3.6-.1.1-.2.2-.3.2.1.3.1.6.2.8.3-.9.6-1.8 1.1-2.6.3-.5 1.1 0 .8.5-.7 1.1-1 2.3-1.4 3.6 0 .1-.1.2-.2.2 0 .1 0 .2.1.2.3-.7.7-1.3 1.1-1.9.3-.5 1.1 0 .8.5-.6.9-1.2 1.9-1.6 3v.1c.2-.4.5-.9.8-1.3.3-.5 1.1 0 .8.5-.5.7-.9 1.5-1.2 2.3 0 .2.1.3.1.5.4-.7.9-1.4 1.5-1.9.5-.4 1.1.3.7.7-1 .8-1.6 1.8-1.8 3 .2 1 .3 1.9.5 2.9.4-.9.7-1.9 1-3 .1-.6 1-.3.9.2-.3 1.5-.9 3-1.6 4.3 0 .3.1.6.1.9.4-1.8 1.1-2.8 2.3-3.4zm-6.9-23.1c.1 0 .2-.1.2-.1s.1 0 .1-.1c.3-.1.5-.3.8-.4-.4.1-.7.3-1.1.6zm-8.3 48.6l-.3-.3c-.5 1-.9 2.1-1 3.2.3-1 .7-2 1.3-2.9zm11.3-11.6c-.1.2-.1.3-.2.5-.1.6-.2 1.1-.3 1.7v-.1c.2-.7.4-1.4.5-2.1zm-2.9 8.7c-.2.2-.3.4-.5.6l.6-.3c-.1 0-.2-.1-.1-.3zm.3-2.9c.4-.9.7-1.9 1-2.9-.6.9-1.2 1.8-1.9 2.7-.6 1.2-1.2 2.4-1.9 3.6-.3.5-1.1 0-.8-.5-.9 1-1.9 2-2.9 3l.1.1c.2-.1.4 0 .6.2h.1c0-.1 0-.2.1-.3 0-.1 0-.3.1-.4v-.2c0-.5.7-.6.9-.2.9-.5 1.7-1.4 2.4-2.1.8-.9 1.7-1.9 2.2-3zm-6.9 5.1c1.8-1.9 3.6-3.7 5.2-5.7.3-.7.7-1.3 1.1-2 .1-.2.3-.3.5-.2.2-.2.3-.5.5-.7.4-.7.8-1.4 1.2-2.2.2-1.2.3-2.4.4-3.6.5-5.7-.4-11.3-1.1-16.9-.4-2.8-.6-5.5-1.4-8.2-.5-1.6-1.1-3.1-1.7-4.6-.2.1-.4.2-.7.3-.6.2-.8-.7-.2-.9.2-.1.4-.1.5-.2-.3-.5-.5-1.1-.8-1.6-.1-.2-.2-.5-.4-.7-.1 0-.2.1-.3.1-.6.2-.8-.7-.2-.9-.4-.6-.8-1.2-1.4-1.7-.3 0-.4-.2-.5-.4-.3-.2-.5-.4-.8-.5-1.1-.6-2.4-1-3.6-1.2-.3 0-.7 0-1 .1-3.7.3-8.4 1.6-10.7 4.8-.1.1-.2.2-.3.2-.3.3-.6.7-.8 1.1.4 2.4.8 4.9 1.2 7.3.4-.2.9.3.5.7-.1.1-.2.3-.3.4.3 1.6.6 3.3.9 4.9.1.3.3.5.4.8.2.3 0 .5-.2.6l1.2 5.4c1 2 2 3.9 3 5.8 1.7 3.2 3.2 6.4 4.5 9.7.7 1.7 1.3 3.3 2 5 0 .1.1.1.1.2.2.4.3.7.5 1.1.2.2.3.5.5.7.4.4.7.8 1.1 1.2.2.2.2.4.1.5.3.4.6.8 1 1.3zm-5.5-8.4l-.6-1.5c-.3-.8-.6-1.6-1-2.3-.1.2-.2.3-.3.5.2.3.3.6.5.9.3 0 .6.3.4.7.3.5.7 1.1 1 1.7zm-2.3-4.3c0-.1.1-.1.1-.2.1-.1.2-.2.3-.2-.6-1.4-1.3-2.9-2-4.3v.1c.5 1.5 1 3 1.6 4.6zm-2.9-6.7h.2c-.1-.3-.3-.5-.4-.8-.1-.2-.2-.4-.3-.7.1.6.3 1 .5 1.5zm-5.7-20.6c-.2-1.3-.4-2.6-.7-3.9 0 1.4.3 2.7.7 3.9-.1 0 0 0 0 0zm-1.4-.3c0-.2 0-.4-.1-.6 0-.1-.1-.2-.1-.3.1.3.1.6.2.9zm4-10c.3-.2.7-.5 1-.7l.2-.2V54l-.9.6c0 .2-.2.4-.3.5zm2.6-1.7s-.1 0 0 0 .2 0 .3-.1c-.1 0-.2 0-.3.1zm15.2 4.3l-.1.1c.3.5.5 1 .7 1.5.1.3.2.5.4.8.1 0 .1-.1.2-.1-.1-.3-.3-.6-.4-.9h-.1c-.2-.1-.3-.3-.2-.5-.2-.4-.4-.7-.5-.9zm5.8 32.8V90c0 .3 0 .5-.1.8.1-.1.1-.2.1-.3zm-4.3-29.8s-.1.1-.2.1c.3.7.7 1.5 1 2.3-.2-.7-.4-1.4-.7-2.1-.1-.1-.1-.2-.1-.3zm-3.3-5.3c.4.5.8 1 1.2 1.6h.1c-.4-.6-.8-1.2-1.3-1.6zm7.5 24.9c0 .7.1 1.4.2 2v-.1c0-.6 0-1.3-.2-1.9zm-14.3-27.8c.4 0 .7.1 1 .1l-.1-.1c-.2.1-.6 0-.9 0zm-5.7-.3c.1 0 .2.1.2.3.9-1.1 2.1-1.8 3.2-2.7-1.1.7-2.4 1.5-3.4 2.4zm-6.7 6.5c.4-.6.7-1.1 1.2-1.6V57v-.1c-.5.5-1 1.1-1.2 1.8zm-.7-.9s.1 0 0 0c.4-.6.8-1.1 1.2-1.6-.1 0-.2-.1-.3-.2l-.9 1.8zm-.3 2.4c0 .1 0 .3-.1.4h.1v-.4zm3.1 18.3c-.2-.9-.3-1.8-.5-2.6-.1.2-.2.5-.2.7.1.8.3 1.7.5 2.5 0-.2.1-.4.2-.6zm1 1.7l-.3-.9c-.2.4-.3.8-.6 1.2.1.3.2.6.3.8.1-.4.3-.8.6-1.1zm.6 1.8c-.1-.2-.1-.4-.2-.6-.2.4-.4.8-.5 1.2.1.2.1.3.2.5.1-.3.1-.5.2-.8 0-.2.1-.3.3-.3zm1.4 3.7l-.9-2.7c-.1.5-.3 1-.4 1.5 0 .1.1.1.1.2.3.6.5 1.2.8 1.7.1-.2.2-.4.2-.5 0-.1.1-.2.2-.2zm.8 3.2c.1-.1.1-.2.2-.3l-.6-1.8c-.1.2-.2.5-.3.7.2.5.4 1 .7 1.4zm1.1 2.3l-.6-1.5c0 .1-.1.1-.1.2.3.4.5.8.7 1.3zm11.8 16.7c.2-.3.3-.5.5-.8-.1.1-.3.2-.4.2v.1c.1.2 0 .3-.1.5 0-.1 0 0 0 0zm9-7.7c-.4.5-.8 1-1.2 1.4.2.2.2.4 0 .6l-2 2c-.9 1.2-1.6 2.5-2.4 3.7.6-.6 1.2-1.3 1.8-1.9l1.2-1.8c.1-.2.4-.3.5-.2.8-1.1 1.6-2.4 2.1-3.8zm-2-.4c-.6 1.2-1.3 2.3-2.1 3.3 1.5-1.3 2.8-2.7 4.1-4.3-.4.4-.8.8-1.2 1.3-.3.2-.8 0-.8-.3zM78.6 212.3c-.4-8.2-1.8-16.4-1.5-24.6 0-.6-.9-.6-.9 0-.3 8.2 1.1 16.4 1.5 24.6 0 .6.9.6.9 0zm44.1-157.1v-6.6c0-.6-.9-.6-.9 0v6.6c0 .6.9.6.9 0zm94.6 89.4c0-.2 0-.4.1-.6.1.7.2 1.5.5 2.2.2.6 1.1.3.9-.2-.3-1.1-.4-2.2-.7-3.3 0-.1-.1-.2-.2-.3-.2-.1-.4-.1-.5.1l-.1.1c-.5.6-.8 1.3-.8 2.1-.2.5.7.5.8-.1zm-28.8-93c1.3 0 2.2-.6 3-1.7.3-.5-.5-.9-.8-.5-.6.8-1.2 1.2-2.2 1.2-.6.1-.6 1 0 1zm24.7 89.1c.3-.9.7-1.7 1.4-2.4.4-.4-.2-1.1-.7-.7-.8.8-1.2 1.7-1.6 2.8-.2.6.7.8.9.3z"/>
  <path class="st0" d="M205.1 231.7c0-.4.1-.9.1-1.3.4-6 .3-11.9-.3-17.9-.3-2.9-.2-5.8-.4-8.8-.1-.9-.2-1.8-.4-2.6 0-.1-.1-.2-.1-.4 0-.4-.1-.7-.1-1.1.4 0 .7-.6.3-.9-.2-.1-.3-.2-.5-.2-.2-.2-.4-.2-.6-.1-.1-.2-.2-.4-.5-.6-.1-.1-.2-.1-.3 0-.1 0-.2.1-.3.2-2.7 4.4-6.5 7.6-11.1 9.7-4.7 2.2-9.7 3.8-14.8 5-10.2 2.4-20.9 3.1-31.4 2.5-4.3-.3-8.6-.7-12.8-1.5 0-.2 0-.3-.2-.4-2.3-1.7-5.3-1.8-8-1.9h-.4c-3.2-1.1-6.3-2.1-9.5-3.3-2.5-1-5-2.1-7.3-3.4-1.2-.7-2.3-1.5-3.4-2.3-1.6-1.1-3.1-2.1-4.8-3-.4-.2-1-.6-1.6-.8-.1-.1-.2-.1-.3-.2-.1-.1-.2-.1-.3 0-.2 0-.4 0-.5.1-.1 0-.3.1-.5.2-.5.2-.2.9.3.9 0 .4-.1.7-.1 1.1 0 .1-.1.2-.1.4-.2.9-.3 1.7-.4 2.6-.2 2.9 0 5.9-.4 8.8-.7 6-.7 11.9-.3 17.9 0 .4.1.9.1 1.3 0 .8 0 1.5-.1 2.3-.2 5.6-.1 11.3.7 16.9.7 4.7 1.3 9.4 2.1 14.1 1.5 9.1 3.5 18.1 7.1 26.6 3.7 8.7 9 16.5 15.9 22.9.4.4.8.7 1.2 1.1l.4.4c2.6 2.5 5.6 4.4 8.8 6 1.6.9 3.2 1.7 4.9 2.5 2.6 1.2 5.4 2.4 8.2 3.2 1 .3 2 .6 3 .8.1.1.3.2.5.2h.2c.1 0 .3.1.4.1h.1c0 .1.1.2.2.4.3.3.6.1.7-.2h2.2c.1.3.5.5.7.2.1-.1.2-.3.2-.4h.1c.1 0 .3 0 .4-.1h.2c.2 0 .4 0 .5-.2 1-.2 2-.5 3-.8 2.8-.9 5.5-2 8.2-3.2 1.7-.8 3.3-1.6 4.9-2.5 3.2-1.6 6.2-3.5 8.8-6l.4-.4c.4-.4.8-.7 1.2-1.1 6.9-6.4 12.2-14.2 15.9-22.9 3.6-8.5 5.6-17.5 7.1-26.6.8-4.7 1.3-9.4 2.1-14.1.9-5.6.9-11.2.7-16.9.1-.8.1-1.5 0-2.3zm-23-19.6c1.8-.6 3.7-1.2 5.5-1.9-3.1 1.5-6.4 2.6-9.6 3.6-4.8 1.4-9.7 2.2-14.7 2.2h-2.4c7.2-.5 14.3-1.8 21.2-3.9zm-52 1.3c-.8-.2-1.7-.4-2.5-.5l-.9-.3c1.2.1 2.3.3 3.4.8zm-24.3-8.1c-.3-.1-.6-.3-.9-.4-1-.5-1.9-1.2-2.7-1.9 1.2.7 2.4 1.5 3.6 2.3zm-10.6 36.9c.2 1.8.3 3.6.5 5.4.1.8.1 1.7.2 2.5-.4-2.6-.6-5.2-.7-7.9zm12.5 54.6c-4-7.6-6.5-16-8.3-24.4 1.5 6.4 3.6 12.7 6.2 18.7 2 4.6 4.4 9.1 7.2 13.4.7 1.1 1.5 2.3 2.3 3.4-2.9-3.4-5.3-7.2-7.4-11.1zm84.1 0c-2.1 3.9-4.5 7.6-7.4 11.1.8-1.1 1.5-2.3 2.3-3.4 2.7-4.3 5.2-8.7 7.2-13.4 2.6-6 4.7-12.3 6.2-18.7-1.8 8.4-4.3 16.8-8.3 24.4zm8.8-31.2c-1.9 9.9-4.7 19.6-9.1 28.6-2.2 4.6-4.8 9-7.8 13.2-1.9 2.7-4 5.5-6.4 7.8-1.6 1.3-3.2 2.5-4.9 3.7-1.3.8-2.6 1.6-4 2.4-1.7.8-3.5 1.6-5.3 2.3-4.3 1.7-8.8 2.9-13.3 3.8-4.6-.9-9-2.1-13.3-3.8-1.8-.7-3.6-1.4-5.3-2.3-1.3-.7-2.7-1.5-4-2.4-1.7-1.1-3.3-2.3-4.9-3.7-2.4-2.4-4.4-5.1-6.4-7.8-3-4.2-5.6-8.6-7.8-13.2-4.4-9-7.3-18.7-9.1-28.6-2-10.5-2.7-21.3-3.5-32-.1-.6-.1-1.3-.1-1.9.1-3.8.3-7.6.4-11.4.1-6.5.2-13 .7-19.5.1-.4.1-.9.1-1.3.1 0 .2.1.3.1.1.1.2.1.3.2-.1.2-.1.6.3.7 1.5.3 2.6 1.5 3.6 2.5 1.2 1.1 2.4 2.1 3.9 2.8 1.4.7 2.8 1.2 4.3 1.6 1.7.6 3.3 1.2 4.9 2.1 1.4.8 2.8 1.4 4.3 2 1.1.4 2.3.6 3.5.7.9.3 1.9.6 2.8.8 1 .3 2 .5 3 .8l.9.3c5.3 2 11.1 2.6 16.8 2.8 5.8.2 11.5-.1 17.3 0 4.8.1 9.6-.7 14.3-1.9 4.8-1.2 9.4-3 13.7-5.4 2.4-1.3 4.6-3 6.8-4.7.6-.5 4.7-3.5 5.7-5.5 0 .4.1.8.1 1.2.5 6.5.6 13 .7 19.5 0 3.8.2 7.6.4 11.4 0 .6-.1 1.3-.1 1.9-1.2 10.9-1.9 21.6-3.8 32.2zm3-15.5c.1-.8.2-1.7.2-2.5.2-1.8.3-3.6.5-5.4-.1 2.7-.3 5.3-.7 7.9z"/>
  <path d="M199.4 236.3c0-.4.1-.7.1-1.1.3-5.1.3-10.2-.3-15.3-.3-2.5-.2-5-.3-7.5-.1-.8-.2-1.5-.3-2.3 0-.1-.1-.2-.1-.3 0-.3-.1-.6-.1-1 .4 0 .6-.5.2-.7-.2-.1-.3-.1-.4-.2-.1-.1-.4-.1-.5-.1-.1-.2-.2-.4-.4-.5-.1-.1-.2-.1-.3 0-.1 0-.2.1-.2.2-2.4 3.8-5.8 6.5-10 8.3-4.3 1.8-8.7 3.2-13.3 4.3-9.2 2.1-18.8 2.7-28.2 2.1-3.8-.2-7.7-.6-11.5-1.3 0-.1 0-.3-.2-.4-2.1-1.5-4.7-1.5-7.2-1.6h-.3c-2.8-.9-5.7-1.8-8.5-2.8-2.3-.8-4.5-1.8-6.6-2.9-1.1-.6-2-1.3-3.1-2-1.4-.9-2.8-1.8-4.3-2.6-.3-.2-.9-.5-1.5-.7-.1 0-.2-.1-.3-.1-.1-.1-.2-.1-.3 0-.1 0-.3 0-.4.1-.1 0-.3.1-.4.2-.4.2-.1.8.2.7 0 .3-.1.6-.1 1 0 .1-.1.2-.1.3-.2.8-.3 1.5-.3 2.3-.2 2.5 0 5-.3 7.5-.6 5.1-.6 10.2-.3 15.3 0 .4.1.7.1 1.1 0 .6 0 1.3-.1 1.9-.2 4.8-.1 9.7.7 14.5.7 4 1.2 8.1 1.9 12.1 1.4 7.8 3.2 15.5 6.4 22.8 3.3 7.4 8.1 14.1 14.3 19.6.4.3.7.6 1.1.9l.3.3c2.3 2.2 5 3.8 7.9 5.2 1.4.8 2.9 1.5 4.4 2.1 2.4 1 4.8 2 7.3 2.8.9.3 1.8.5 2.7.7.1.1.2.2.4.1h.2c.1 0 .3 0 .4.1h.1c0 .1.1.2.2.3.2.3.6.1.7-.2h1.8c.1.3.4.4.7.2.1-.1.2-.2.2-.3h.1c.1 0 .3 0 .4-.1h.2c.2 0 .3 0 .4-.1.9-.2 1.8-.4 2.7-.7 2.5-.7 4.9-1.8 7.3-2.8 1.5-.6 3-1.3 4.4-2.1 2.9-1.3 5.6-3 7.9-5.2l.3-.3c.4-.3.7-.6 1.1-.9 6.2-5.5 11-12.2 14.3-19.6 3.2-7.3 5-15 6.4-22.8.7-4 1.2-8.1 1.9-12.1.8-4.8.8-9.6.7-14.5-.1-.6-.1-1.3-.2-1.9zm-20.7-16.8c1.6-.5 3.3-1 4.9-1.6-2.8 1.3-5.7 2.3-8.6 3.1-4.3 1.2-8.7 1.9-13.2 1.9h-2.1c6.5-.5 12.9-1.6 19-3.4zm-46.7 1.1c-.8-.1-1.5-.3-2.2-.5-.3-.1-.5-.2-.8-.3 1 .2 2.1.4 3 .8zm-21.8-6.9c-.3-.1-.5-.2-.8-.4-.9-.4-1.7-1-2.4-1.6 1.1.6 2.1 1.3 3.2 2zm-9.6 31.6c.1 1.5.3 3.1.4 4.6.1.7.1 1.4.2 2.1-.2-2.2-.5-4.4-.6-6.7zm11.3 46.8c-3.6-6.5-5.9-13.7-7.4-20.9 1.4 5.5 3.2 10.9 5.6 16 1.8 4 4 7.8 6.5 11.5.7 1 1.3 1.9 2 2.9-2.6-3-4.8-6.2-6.7-9.5zm75.5 0c-1.9 3.3-4.1 6.5-6.6 9.5.7-1 1.4-1.9 2-2.9 2.5-3.6 4.6-7.5 6.5-11.5 2.4-5.2 4.2-10.6 5.6-16-1.6 7.2-3.8 14.3-7.5 20.9zm10.7-40c.1-.7.1-1.4.2-2.1.1-1.5.3-3.1.4-4.6-.1 2.2-.3 4.4-.6 6.7z" fill="none" stroke="#231f20" stroke-miterlimit="10"/>
  <path class="st0" d="M112.6 261.7c-1.6-3.7-2.1-7.8-2.6-11.8-.1-1.1-.2-2.2-.3-3.1-.1-1.1 0-2.3.1-3.6.1-.6.2-1.2.3-1.7.1-.5.4-1 .6-1.6.5-1 1.2-1.8 2.2-2.2.5-.2 1.1-.4 1.7-.5.8-.1 1.2.1 1.2.5 0 .3-.2.4-.5.5-.1 0-.3 0-.5-.1h-.5c-.8.1-1.6.5-2.1 1.2-.4.5-.8 1.4-1 2.6-.2.9-.2 2.1-.2 3.2 0 .6 0 1.7.1 3.1.1.9.1 1.4.2 2.3.1.8.1 1.2.2 2 .3 2.1.6 4.2 1.2 6.2.3 1.1.8 2.1 1.2 2.9.4.7.9 1.3 1.5 1.8.7.5 1.3.7 2 .6 1.3-.1 2.7-1.1 2.9-2.1.1-.5-.2-1.5-.4-2.5-.1-.5-.2-1-.4-1.4-.2-.4-.4-.6-.6-.6-.3.1-.4.1-.7.1-.3.1-.5.1-.8.1-.6.1-.9-.1-.9-.5 0-.2.3-.4 1-.6.7-.2 1.2-.4 1.7-.4.4 0 .7.1.9.3.2.3.3.6.4 1.1 0 .5.2 1.6.6 3.1.3 1.3.6 2.4.6 3.1 0 .4-.1.6-.4.6-.6 0-.9-.2-.9-.7v-.1-.1c-1.3.9-2.5 1.4-3.5 1.5-2 .4-3.5-1.5-4.3-3.2zM131 263.2l-.5-1.5c-.7-1.8-1.3-3.7-1.8-5.5-.2-.8-.6-2-.9-3.4-.4-1.7-.9-3.1-1.2-4.1-.1.1-.2.1-.4.2s-.3.1-.5.2c.3 4.6.7 9.1 1 13.7v.5c0 .5-.2.7-.6.8-.2 0-.3 0-.5-.1s-.2-.2-.2-.4v-.5c-.1-2.4-.3-4.8-.4-7.2-.1-1.4-.1-2.1-.2-3.5-.2-3.5-.4-7.1-.6-10.6-.1-1.8-.2-2.8-.3-4.6 0-.2.2-.3.7-.4.7 0 1.3.1 1.9.4.6.3 1.1.7 1.4 1.3.8 1.1 1.2 2.4 1.3 3.8.1 1.1-.1 2.3-.5 3.6-.1.4-.3.8-.5 1.3s-.5.9-.5 1c-.3 1.4 1.9 5.5 2.8 8.3.7 2.1 1.4 4.2 2 6.3 0 .1 0 .2.1.4 0 .2 0 .4-.1.6-.1.2-.2.2-.4.3-.6-.2-.9-.4-1.1-.9zm-4.5-16c.4-.5.8-.9.9-1.2.2-.3.3-.9.4-1.5.1-.7.1-1.3.1-1.8-.1-1-.3-2-.7-3-.2-.6-.5-1-.9-1.4-.4-.3-.8-.5-1.2-.5h-.1-.1c.2 3.3.5 6.7.7 10 .2.1.5-.1.9-.6zM134.8 246.9c0-.6 0-.9-.1-1.4-.1-2 0-3.7.2-5.2.1-.9.3-1.7.5-2.3s.6-1.1 1-1.5c.4-.4 1-.6 1.7-.7.6 0 1.2.1 1.7.3.5.2 1 .5 1.3.8.3.3.6.8.8 1.3.2.5.4 1.1.6 1.6.1.7.2 1 .3 1.7.6 3.6 1 7.2 1.1 10.8v3.4c0 1.2-.1 2.4-.3 3.8-.1.6-.2 1.2-.4 1.7s-.4 1-.7 1.4c-.5.9-1.2 1.3-2.1 1.3-5.6.1-5.4-13.7-5.6-17zm6.8 15.3c.3-.4.5-1.1.7-1.9.3-1.7.6-3.3.6-4.9v-3.7-.1c0-1.4-.1-2.1-.1-3.6-.1-1.3-.2-3-.6-5-.2-1.4-.7-2.9-1.4-4.4-.3-.6-.6-1-1.1-1.4-.4-.3-.9-.5-1.4-.5-.4 0-.8.2-1.1.6s-.6.9-.7 1.6c-.4 1.6-.6 3.1-.6 4.5v3.6c0 .7 0 1 .1 1.7.1 2 .4 4 .7 6 .2 1.5.6 2.9.9 4 .3 1.1.8 2.1 1.3 2.8.5.8 1.1 1.2 1.7 1.2.4.2.7-.1 1-.5zM151.2 263.4v-.8-.4V261.6c-.3-1.7-.4-2.6-.6-4.3-.2-.9-.3-1.6-.3-2-.2-1.8-.5-3.7-.7-5.6-.3-2.7-.7-5.3-1.1-8 0-.3-.1-.5-.1-.8-.4-2.7-.9-4.3-.9-4.4 0-.1.2-.2.3-.3.2-.1.3-.1.5-.1.4 0 .7.1.8.2.1.1.2.3.2.6v1.1c.8 7.3 1.6 14.6 2.4 21.8h.1c.2-1.9.3-3.8.5-5.7 0-.4 0-.6.1-1 .2-3 .3-4.6.3-4.8.1-.7.2-1.8.5-3.1.2-1.2.3-1.7.5-2.9.1-.7.1-1 .1-1.6 0-.3 0-.5.1-.7 0-.2 0-.3.1-.4v-.5s0-.1.1-.1c0 0 .1-.1.2-.1.2-.1.6.1.7.3.1.1.1.2.1.2v.3c0 .1 0 .2.1.3.6 3.3 1 6.6 1.5 9.9.5 3.5 1 7 1.3 10.5 0 0 .1 0 .1.1.5-4.8 1.1-9.6 1.7-14.4.1-.9.3-2.3.6-4.3.3-1.9.5-3.6.5-4.8v-.4-.3c0-.3.1-.5.2-.7.2-.1.4-.2.8-.2.2 0 .3.1.5.2s.2.3.2.4c0 .2-.4.6-.4.7v.2c0 .1 0 .3-.1.4 0 .2-.1.3-.1.3-.7 2.7-.9 6.3-1.3 9.4-.3 2.5-.6 4.9-.9 7.4-.1 1.1-.2 1.7-.4 2.8-.2 1.4-.3 2.2-.5 3.6-.1.7-.1 1.1-.2 1.8 0 .3-.1.5-.1.6-.1.1-.3.2-.5.2-.4 0-.6-.2-.7-.4 0-.1-.1-.5-.1-1v-.5c-.9-6.5-1.6-13.1-2.4-19.6 0 0-.1 0-.1-.1-.7 6.5-1.4 13-2 19.5v.6c0 .9-.2 1.4-.6 1.4-.7.1-1 .1-1 .1zM166.3 263.3c-.1-.1-.1-.3-.1-.5v-.6-.9c.1-1.5.1-3.2 0-5.1 0-2 0-3.7.1-5.1.1-2.5.1-5 .1-7.5s0-5 .1-7.5c0-.1.1-.2.2-.3.1-.1.3-.1.4-.1.5 0 .7.2.7.6-.1 3.3-.3 6.6-.3 9.9 0 2.1-.1 4.3-.1 6.4v9.3c0 .1.1.1.1.1s.2 0 .5.1c.9 0 1.3.1 2.2.1.3 0 .5.2.4.7 0 .2-.1.3-.1.5-.1.1-.2.2-.3.2h-.6c-.5 0-1.5 0-2.9-.1-.1 0-.3-.1-.4-.2zM174.7 263.8c-.2-.1-.3-.3-.3-.6v-.7-.6-.1c.2-2.1.2-3.1.4-5.2l.9-14.7c.1-1.5.1-2.9.2-4 0-.3.1-.5.2-.7.1-.2.3-.3.5-.3 1 .1 1.4.1 2.4.2.4 0 .6.1.8.1.2.1.4.3.3.6 0 .2-.1.3-.3.4-.2.1-.3.2-.5.2h-.7c-.2 0-.4 0-.6-.1-.2 0-.4 0-.6-.1-.2 0-.3 0-.4.1-.1.1-.1.2-.1.3-.1 1.1-.1 2.1-.2 3-.1 1.2-.1 1.8-.2 3-.1 1.8-.2 2.7-.3 4.4 0 .1 0 .1.1.1.6 0 1.3 0 2 .1.4 0 .6.2.6.5 0 .2-.1.4-.2.5-.1.1-.2.1-.4.1-.8-.1-1.3-.1-2.1-.2-.1 0-.2.1-.2.2-.1 2.1-.2 3.2-.3 5.3l-.3 5.7c0 .5-.1.8-.1 1.3.6 0 .9.1 1.5.1s.9.1 1.5.1h.3c.4 0 .6.2.6.5 0 .4-.2.6-.4.6-.3.1-.9.1-1.8 0-.6 0-.9-.1-1.5-.1-.2.2-.5.1-.8 0zM188.6 264.6c-.1-.6-.2-1-.3-1.6-.4-1.9-.7-3.8-.9-5.7-.1-.8-.2-2-.4-3.5-.2-1.7-.4-3.2-.6-4.2l-.4.2c-.2.1-.3.1-.5.2-.4 4.6-.8 9.1-1.2 13.7 0 .2 0 .3-.1.5 0 .5-.3.7-.7.7-.2 0-.3-.1-.4-.2-.1-.1-.2-.3-.1-.4v-.5c.2-2.4.5-4.8.7-7.2.2-1.4.2-2.1.4-3.4.4-3.5.8-7 1.1-10.6.2-1.8.3-2.8.4-4.6 0-.2.3-.3.7-.3.7.1 1.3.3 1.8.7.5.4.9.9 1.2 1.5.6 1.2.8 2.5.6 3.9-.1 1.1-.5 2.3-1.1 3.5-.2.3-.4.7-.7 1.2-.3.4-.7.8-.7.9-.5 1.3 1 5.8 1.4 8.6.3 2.2.7 4.4 1 6.6v.4c0 .2-.1.4-.2.5-.1.1-.2.2-.4.2-.2-.3-.5-.6-.6-1.1zm-1.8-16.5c.5-.4.9-.8 1.1-1 .2-.3.4-.8.6-1.4.2-.6.3-1.2.4-1.8.1-1 0-2-.2-3-.1-.6-.3-1.1-.7-1.5-.3-.4-.7-.6-1.1-.7h-.1-.1c-.3 3.3-.6 6.7-.9 10 .1 0 .5-.2 1-.6zM143.6 296.2c-.1-.1-.2-.2-.2-.4-.2-1.8-.3-2.7-.4-4.5 0-.3-.7-.5-2-.6-1.3-.1-2.4 0-3.2.1-.1 0-.1.2-.2.6-.1.4-.1.6-.1.8-.1 1.2-.2 2.5-.3 3.9v.8c0 .2-.1.3-.3.3-.2 0-.4 0-.5-.1-.2-.1-.3-.2-.3-.4v-.1c0-.7 0-1.1.1-1.8.1-1.1.2-2.2.2-3.3 0-1.2.1-2 .2-2.3.2-1.8.2-3.9.4-5.8 0-.5 0-.7.1-1.2.1-2.3.3-4.6.6-6.8.1-.6.3-1.4.5-2.5.1-.5.2-1 .5-1.4.2-.4.4-.6.6-.7.5-.1.9 0 1.1.2.2.2.5 1.3 1 3.3.5 2 1 4.1 1.4 6.2.3 1.9.7 3.8 1 5.7.1 1 .3 2.5.6 4.5s.5 3.5.6 4.5v.1c0 .3 0 .5-.1.7-.1.2-.3.3-.6.3-.4 0-.5 0-.7-.1zm-.8-6.8c-.2-1.9-.5-3.9-.8-5.8-.4-2.1-.9-4.3-1.3-6.4-.2-.8-.3-1.7-.6-2.6-.1-.5-.2-.8-.3-1.3 0 0 0-.1-.1-.4-.1-.2-.1-.2-.1-.4-.2.5-.3 1.3-.5 2.2-.1.9-.2 2-.3 3.2-.2 2.6-.4 5.3-.7 7.9-.1.5-.1.7-.2 1.2-.2 1.2-.3 2.1-.2 2.7v.2c1.2.1 2.4.1 3.9 0h.5c.5-.1.7-.3.7-.5zM149.8 295.1c0-1.1 0-2.2-.1-3.1 0-1.2-.1-1.9-.1-3.1v-2.8c0-.8-.1-1.8-.1-2.8 0-2.8-.1-5.7-.3-8.6 0-.5 0-.7-.1-1.2-.1-1.4-.2-2.5-.2-3.3l.1-.1.2-.2s.1-.1.2-.1h.3c1.1 0 2.1.2 3 .6.9.4 1.6.9 2.1 1.6 1 1.3 1.4 2.8 1.3 4.4-.1 1-.3 2.1-.8 3.1-.5 1.1-1.1 2-1.9 2.8-.9.9-1.8 1.4-2.8 1.6 0 1.5 0 2.3.1 3.8 0 .7 0 1.1.1 1.9.1 1.9.1 3.8.1 5.7 0 .4-.1.6-.2.8-.1.2-.3.3-.6.3-.1-.1-.3-.5-.3-1.3zm1.4-12.5s.1-.1.4-.2c0 0 .2-.1.3-.3.1-.1.2-.1.3-.2 1.7-1.3 2.9-3.3 3-5.5.1-1.3-.2-2.5-.8-3.6-.3-.6-.9-1.1-1.6-1.4-.7-.3-2.3-.7-2.5-.5-.4.4.2 3.9.3 5.9.1 2 .2 3.9.2 5.9l.1.1c.2-.2.3-.2.3-.2zM159.5 295.7c.1-1.1.2-2.2.3-3.1.1-1.2.2-1.9.3-3.1.1-1.1.2-1.7.3-2.8.1-.8.2-1.8.3-2.8.3-2.8.6-5.7.8-8.5 0-.5.1-.7.1-1.2.1-1.4.1-2.5.2-3.3.1 0 .1-.1.2-.1l.2-.2s.1-.1.2-.1h.3c1.1.1 2 .5 2.9 1 .8.5 1.5 1.1 1.9 1.8.8 1.4 1.1 2.9.8 4.5-.2 1-.6 2-1.2 3s-1.4 1.8-2.3 2.6c-1 .8-1.9 1.2-2.9 1.2-.2 1.5-.3 2.3-.4 3.8-.1.7-.1 1.1-.2 1.9-.2 1.9-.4 3.8-.6 5.6-.1.4-.1.6-.3.8-.1.2-.3.2-.6.2s-.4-.4-.3-1.2zm3-12.3s.1-.1.4-.2c.1 0 .2-.1.3-.2.1-.1.2-.1.3-.2 1.9-1.1 3.3-2.9 3.6-5.1.2-1.3.1-2.5-.4-3.7-.3-.6-.7-1.2-1.4-1.6-.7-.4-2.2-1-2.4-.8-.4.4-.3 3.9-.5 5.9-.1 2-.3 3.9-.5 5.9l.1.1c.3-.1.5-.1.5-.1zM40.5 348.7h28c.6 0 .6.9 0 .9h-28c-.6 0-.6-.9 0-.9zm19.9 12.7h22.8c.6 0 .6-.9 0-.9H60.4c-.6 0-.6.9 0 .9zm48.5 8.6H67.8c-.6 0-.6.9 0 .9H109c.5.1.5-.9-.1-.9zm116.1 0c-12 3-24.4 2.2-36.7 2.2-.4 0-.5.5-.4.7h-8.5c-.6 0-.6.9 0 .9h30.9c-4.3 1.6-9.1 1.8-13.7 1.8-5.5 0-11-.5-16.4-.6-.6 0-.6.9 0 .9 5.7 0 11.4.6 17 .6 5.2 0 10.7-.5 15.4-2.8h10.9c.6 0 .6-.9 0-.9h-12.6c4.8-.3 9.5-.9 14.2-2 .8 0 .5-.9-.1-.8zm8-9.5c-8.4 4.5-18.6 2.2-27.7 2.1-.6 0-.6.9 0 .9 3.8 0 7.8.4 11.8.6h-17c-.6 0-.6.9 0 .9h22.1c.6 0 .6-.9 0-.9h-.2c4-.2 7.9-.9 11.5-2.8.5-.3 0-1-.5-.8zm1.7-3h-19.1c-.6 0-.6.9 0 .9h19.1c.6 0 .6-.9 0-.9zm22.8-11h-32.4c-.6 0-.6.9 0 .9h32.4c.6 0 .6-.9 0-.9zm-33.2-8.7c4.3 1.4 8.8 2.2 13.4 2.2.6 0 .6-.9 0-.9-3.4 0-6.7-.5-10-1.3h7.1c.6 0 .6-.9 0-.9h-9.6c-.1 0-.2 0-.3.1-.1 0-.2-.1-.3-.1-.6-.1-.9.7-.3.9zm-177.9.1c.6 0 .6-.9 0-.9s-.6.9 0 .9zm4 14.4c4.6.2 9.1.2 13.7.2.6 0 .6-.9 0-.9h-2.6c.2-.3.1-.8-.3-.7-3.6.3-7.2.5-10.8.5-2.3-.1-4.6-.3-6.9-.5-.3 0-.4.2-.4.4-1.8-.1-3.6-.2-5.4-.4-.6-.1-.6.9 0 .9 4.1.4 8.4.6 12.7.5zm26.2 6c-5.1 0-10.1.1-15.2.3.2 0 .4-.1.6-.1.6-.1.3-1-.2-.9-4.2.8-8.5 1.2-12.8 1.3-3.1.1-6.1.1-9.2.1-.6 0-.6.9 0 .9 3 0 6 0 8.9-.1 9.3-.2 18.6-.6 27.9-.6.6 0 .6-.9 0-.9zM48 354.6c-.6-.1-.8.8-.2.9 9.3 1.5 18.7.8 28.1.8.6 0 .6-.9 0-.9-9.3-.1-18.7.7-27.9-.8zm41.7 14.9c.6.1.8-.8.2-.9-1-.2-2-.4-2.9-.5h3.5c.6 0 .6-.9 0-.9h-.6c-7.4-3.6-15.7-2.9-23.6-2.2-.6.1-.6 1 0 .9 7.1-.6 14.6-1.3 21.4 1.3-3 0-5.9.1-8.9.1-2.6-.1-5.1-.1-7.7-.1 1.1-.2 2.3-.3 3.4-.6.6-.1.3-1-.2-.9-7.2 1.4-14.6 1.5-21.9 1.5-.6 0-.6.9 0 .9 8.8.5 17.7.3 26.5.1 3.6.1 7.2.5 10.8 1.3zm37 13.5c-11.4 1.5-23.1.8-34.5 2.6-.6.1-.8-.8-.2-.9 4-.7 8.1-1 12.2-1.2 0-.1.1-.2.3-.3 5.7-1 11.4-1.5 17.2-1.4-4.1-.8-8.2-1.5-12.4-2.1-6.9-1-13.9-1.5-20.9-1.5-.6 0-.6-.9 0-.9 3.5 0 7.1.1 10.6.4 0-.2.2-.4.4-.4 3.1 0 6.2 0 9.2-.1-11.5-2.1-23.1-4.7-34.8-2.6-.6.1-.8-.8-.2-.9 5.8-1 11.6-.9 17.3-.3 0-.2.1-.5.4-.5h47.1c.6 0 .6.9 0 .9H94.5c5.4.8 10.7 1.8 16 2.8.3 0 .4.3.3.5 10.7-.4 21.3-1.6 31.8-4.2.6-.1.8.7.2.9-7.6 1.9-15.3 3-23.1 3.7 10.5.7 20.9 2.8 31.3 1.6-2.8-.3-5.6-.5-8.4-.8-.4 0-.5-.5-.4-.7h-.2c-.6 0-.6-.9 0-.9h53.7c.6 0 .6.9 0 .9h-51.1c14.2 1.4 28.7 2.8 42.9.6.6-.1.8.8.2.9-11.3 1.8-22.8 1.3-34.2.3 0 .2-.1.4-.3.4-14.3 2.2-28.5-2.1-42.8-1.5-.2 0-.3-.1-.4-.2-1.9.1-3.7.1-5.6.1 1.6.2 3.1.4 4.7.6 6 .8 11.9 2 17.9 3.2 1.8-.3 3.6-.6 5.3-.9.6-.1.8.8.2.9-.7.2-1.4.3-2.1.4 3.9.4 7.8.9 11.6 1.6.6.1.3 1-.2.9-3.9-.7-8-1.3-12-1.7-.1.1-.3.2-.5.2-.7-.1-1.3-.3-2-.4h-.6zm-7.3-.2c-2.6 0-5.3.2-7.9.4 2.7-.1 5.3-.2 7.9-.4zm86.6 1.9c-9.6 1.1-19.3 1-28.9.5 4.8-.6 9.6-1.4 14.3-2.6.6-.1.3-1-.2-.9-6.7 1.7-13.5 2.6-20.3 3.1-8.1-.4-16.3-.9-24.4-.9-.6 0-.6.9 0 .9 5.2 0 10.5.2 15.8.5-13.8.4-27.7-.4-41.5.1-.6 0-.6.9 0 .9 16.7-.5 33.5.7 50.1-.5 11.7.6 23.5 1.1 35.2-.2.5 0 .5-.9-.1-.9zm27-19.8c-1.2.8-2.4 1.3-3.8 1.7-.1-.2-.4-.4-.6-.2-.4.2-.8.5-1.3.7-2.4.5-4.9.5-7.3.5-4.7 0-9.3-.5-14-.6-.6 0-.6.9 0 .9 4.8 0 9.5.6 14.3.6 1.2 0 2.3 0 3.5-.1-4.4 1.3-9.3 1.3-13.8 1.2-6.3-.2-12.5-1.1-18.8-1.1-.6 0-.6.9 0 .9 6.4 0 12.9.9 19.3 1.1 5.6.1 11.8-.1 17-2.6 2.1-.4 4.1-1.1 5.8-2.2.7-.3.2-1.1-.3-.8zm13.5-14c-6.7.7-13.4.8-20 2.2-.5.1-.4.9.1.9 4.4 0 8.8-.5 13.2-1.1-3.4 1.2-7.3 1.4-10.9 1.4-4.7 0-9.4-.5-14.1-.6-.6 0-.6.9 0 .9 3.6 0 7.2.3 10.8.5-2.9.1-5.8.3-8.7.8-.6.1-.3 1 .2.9 8.2-1.5 16.6-.7 24.9 0 .6.1.6-.9 0-.9-3.5-.3-7.1-.6-10.6-.8 4-.1 8.1-.7 11.6-2.8.2-.1.2-.2.2-.4 1.1-.1 2.1-.2 3.2-.3.7.2.7-.8.1-.7zm-23.7-2c3.6.5 7.2.8 10.8 1 1.9.1 3.8.3 5.7.4-4.2.3-8.5-.1-12.7-.1-.6 0-.6.9 0 .9 6.2 0 12.4.7 18.5-.8.6-.1.3-1-.2-.9-.5.1-1.1.2-1.6.3 0-.2-.2-.4-.4-.4-3 0-6-.2-9-.4-3.6-.2-7.2-.5-10.8-1-.6 0-.8.9-.3 1zm3.7-4.6c-.2 0-.3.3-.3.4v.2c-.3 0-.7.1-1 .1-.6.1-.6 1 0 .9.4 0 .8-.1 1.2-.1.1.1.2.1.3.1l1.8-.3c5.6-.3 11.3-.2 16.7-2 .5-.2.4-.8-.1-.9-3.6-.4-7.1.1-10.5.8-2.8.2-5.4.4-8.1.8zM285.7 346.7z"/>
  <path class="st0" d="M265.1 386c-.8 0-1.5 0-2.1-.1-1-.1-1.9-.3-2.9-.5l-.3-.1c-.4-.1-.9-.2-1.3-.3h-.1l-.1.1c-.4.2-.8.3-1.4.3H255.7h-2.4c-.5 0-1-.1-1.7-.3-1.3-.4-2.2-.7-3.1-1.2-1-.5-1.8-1.2-2.7-2l-.3-.3c-.2-.1-.3-.3-.5-.4-.6-.5-1.3-1-1.6-1.7-.1-.2-.1-.4 0-.5.2-.2.3-.3.5-.4l1.4-.4-1.4-.4c-.8-.2-1.5-.4-2-.7-.3-.1-.5-.2-.7-.3-.1 0-.2-.1-.3-.1-.1 0-.2-.1-.2-.1l-.2-.1c-.4-.2-.8-.5-1-.9-.1-.2 0-.4.1-.5l.3-.3.2-.2c.1-.2.3-.3.4-.5.1-.1.1-.2.2-.3.2-.3.5-.6.7-1l.4-.6h-.7c-.3 0-.6 0-.9-.1-.3 0-.6-.1-.9-.1-.5 0-1.1 0-1.6-.2-.1 0-.2-.1-.2-.2-.1-.2 0-.3.1-.5 0-.1.2-.2.3-.3l.3-.3c.1-.1.2-.3.3-.4.1-.1.1-.2.2-.3.1-.2.3-.4.4-.6.2-.3.5-.6.7-1 .3-.5.6-1 .8-1.4.3-.5.6-1.1.9-1.6l.2-.3c.2-.4.5-.7.7-1.1.1-.2.2-.3.3-.5.2-.3.3-.7.6-1 .5-.8 1.2-1.5 2.2-2.2.5-.3.9-.6 1.4-.9.2-.1.4-.3.6-.4.1 0 .1-.1.2-.1.2-.1.3-.1.4-.2.1-.1.2-.1.3-.1h.2l.1-.2c.3-.4.5-.7.8-1.1.7-.9 1.6-1.8 2.5-2.7.2-.2.4-.3.6-.5.3-.2.5-.5.8-.7l.5-.4-.6-.2c-1.1-.4-2.2-.9-2.8-2-.1-.3.1-.5.3-.6.3-.2.7-.3 1-.5.1-.1.3-.1.4-.2.4-.2.9-.4 1.4-.8.9-.6 1.8-1.3 2.7-2 1.4-1.1 3-2.4 4.7-3.5 1-.6 1.8-1.1 2.7-1.5.8-.3 1.6-.6 2.3-.9l.4-.2c1.3-.5 2.8-.7 4.3-.7.5 0 1 0 1.6.1 1 .1 2 .6 2.8 1l.1.1c.3.2.7.3 1 .6.2.1.3.3.4.4v.1l.1.1.1.1.1.1c.1.1.2.1.3.3l.1.2h.6c.6.1 1.2.2 1.9.4l1.3.4-.8-1c-.2-.3-.4-.5-.6-.8-.1-.2-.2-.3-.4-.5-.3-.3-.5-.7-.8-1l-.1-.1-.1-.1h-.1l-.3-.3c-.2-.2-.3-.3-.4-.6-.1-.2 0-.4 0-.4.1-.1.2-.2.4-.2s.4.2.7.4l.1.1c.2.2.5.3.8.5.1 0 .1.1.2.1.8.4 1.6.8 2.5 1 .2.1.4.1.7.2 1.2.3 2.3.6 3.3 1.1 1.4.7 2.4 1.5 3.1 2.5.1.2.3.4.4.5.7.9 1.4 1.9 1.8 3 .3.7.4 1.5.4 2.2 0 .1.1 1.1.1 1.1l.6-.5c.3-.3.7-.6 1.1-1l.6-.6c.2-.2.3-.4.5-.5l.3-.3.6-.6c.2-.2.4-.4.6-.7.1-.1.2-.2.3-.4l.3-.3c.2-.3.4-.5.7-.7.3-.3.6-.7.9-1.1.1-.2.3-.3.4-.5.2-.2.4-.5.5-.7l.6-.9c.1-.1.1-.2.2-.4s.3-.4.4-.6c.2-.2.3-.5.4-.7.1-.2.2-.3.2-.5l.3-.6c.3-.4.7-.7 1-.7h.1c.8 0 1.5.8 1.7 1.5.3.8 0 1.6-.2 2.5l-.1.3c-.3.9-.8 1.8-1.3 2.6v.1c-.5.9-1.1 1.6-1.6 2.2-.1.1-.2.3-.4.4-.2.2-.4.4-.6.7l-.1.2c-.3.3-.5.6-.8.8-.1.1-.2.2-.3.2-.2.2-.5.3-.7.6l-.1.1c-.3.4-.7.7-1 1-.4.3-.7.6-1.1.9l-1.2.9c-.2.2-.4.3-.5.5-.2.2-.3.3-.5.4l-.1.1-.5.4.6.2c.3.1.6.4.9.7l.1.1c.3.3.6.6.8 1 .5.7.8 1.6 1 2.8.1.5.2 1.1.2 1.6 0 .3-.1.7-.2 1 0 .1-.1.3-.1.4-.2.9-.6 1.8-1.2 2.8l-.1.2c-.2.4-.4.7-.7 1-.3.3-.6.6-.9.8l-.1.1-.1.1-.2.1v.2c-.3 2.6-1.3 4.9-2.9 6.5-.3.3-.7.6-1.1.9l-.2.1v.5c0 .1-.1.3-.2.4 0 .1-.1.1-.1.2-.1.1-.1.3-.2.4 0 .1 0 .1-.1.2-.2.4-.4.8-.7 1.1-.7.8-1.3 1.5-2 2.1-.7.6-1.4 1.1-2.2 1.5-.3.1-.5.3-.7.4-.4.3-.9.5-1.3.7-.6.2-1.1.3-1.7.4-.2 0-.4.1-.6.1-.3.1-.6.1-.9.2-.6.1-1.2.3-1.8.3h-.2c-.6 0-1.1-.1-1.7-.1-.3 0-.6-.1-.8-.1l-.7-.1-.1.1h-.2l-.1.1-.1.1-.2.2c-.2.1-.4.3-.6.4-.4.2-.8.3-1.2.4-.1 0-.3.1-.4.1-.6.2-1.2.4-1.8.4-.7.1-1.4.1-1.9.1-.6-.1-1-.1-1.4-.1zm-10.1-7.7c-.3.1-.6.3-.9.6-.1.1-.2.2-.4.3-.2.1-.4.2-.5.4l-.9.6c-.2.1-.4.2-.7.3-.2.1-.3.2-.5.2l-.6.3.7.4c.2.1.4.2.6.4.1.1.2.1.4.2.3.2.5.3.8.5.7.4 1.6.8 2.7 1.1.9.3 1.9.5 2.8.6.6.1 1.1.2 1.7.3.4.1.9.2 1.3.3 1.1.2 2.1.3 3 .3H266.2c.5 0 1 0 1.4-.1.9-.1 1.7-.3 2.4-.5l-.1-.8c-.6-.1-1.1-.2-1.6-.3-.1 0-.2 0-.3-.1-.3-.1-.5-.1-.8-.2-.3-.1-.6-.3-.7-.6-.1-.1 0-.3.1-.5l.6-.6.4-.4c.3-.3.6-.7.9-1.2.1-.1.2-.3.2-.4.3-.5.6-1 .8-1.5l.2-.4-.5-.1c-.5-.1-1.1-.3-1.6-.5-.3-.1-.6-.2-.9-.4h-.2c-.3 0-.6.1-.9.3l-.1.1c-.2.1-.5.2-.8.3-.1 0-.2.1-.3.1-.3.1-.6.2-1 .3-.5.2-.9.3-1.3.4-.5.1-1 .2-1.6.2-.2 0-.4 0-.6.1-.8.1-1.5.2-2.2.2h-.1c-.8 0-1.6 0-2.5-.1h-.1v-.1zm-4.2 0c-.1 0-.3.1-.4.1-.1 0-.2.1-.4.1-.1 0-.3 0-.4.1-.2 0-.3 0-.5.1-.2 0-.3 0-.5.1s-.3.1-.5.2l-1.2.3c-.3.1-.6.1-1 .2-.2 0-.3.1-.5.2-.1 0-.1 0-.2.1l-.6.2.6.5c.2.2.4.3.6.5.3.2.5.4.8.7.8.7 1.7 1.4 2.7 1.9.8.4 1.9.8 2.8 1 .3.1.6.1.9.2l.2-.8c-.6-.3-1.1-.6-1.6-.9-.3-.2-.6-.4-.9-.5-.1-.1-.2-.1-.3-.2-.2-.1-.5-.2-.6-.4-.3-.3-.3-.7 0-1.1.3-.4.7-.6 1.1-.8.1-.1.2-.1.3-.2.1 0 .2-.1.3-.1.1-.1.3-.2.5-.3.2-.2.5-.3.8-.5l.9-.6-1-.2c-.1 0-.2 0-.3-.1h-.2l-.2-.1c-.2.2-.3.3-.5.3h-.5-.2l.5.3-.3.4-.2-.7zm19.6-.4c-.2.6-.6 1.2-.9 1.8-.1.2-.3.4-.4.6-.2.4-.5.8-.8 1.2l-.2.2-.5.5.7.2c.4.1.8.2 1.1.2 1 .2 2 .3 2.9.4.3 0 .5.1.8.1.6.1 1.2.1 1.8.2h.3c.3 0 .7.1 1 .1h.1c.3 0 .6-.1.9-.1l.5-.1c.6-.1 1.3-.2 1.9-.3h.1c.7-.1 1.3-.2 2-.6.2-.1.4-.2.5-.3.2-.1.3-.2.5-.3.2-.1.4-.2.5-.3.2-.1.3-.2.5-.2.6-.4 1.2-.8 1.9-1.5.5-.5 1-1 1.5-1.6l-.4-.6c-.1 0-.2.1-.3.1-.2.1-.5.2-.7.2-.2.1-.4.1-.5.2-.1 0-.2.1-.3.1-.2.1-.4.2-.6.2H283.7c-.1 0-.2 0-.3.1-.1 0-.2.1-.2.1h-.2c-.1 0-.2 0-.3.1h-.1s-.1 0-.1.1h.1l.4.3c.1.2 0 .4-.1.4l-.4-.7c-.1.1-.2.1-.3.1-.1 0-.2-.1-.3-.2l-.1-.2h-.4c-.3-.1-.3-.4-.2-.6.1-.2.2-.4.4-.6.1-.1.2-.3.3-.4.2-.4.4-.7.5-1.1l.5-1.2-1.1.7c-.1.1-.2.1-.3.2l-.1.1c-.6.4-1.2.7-1.7.9-.3.1-.6.3-1 .4-.2.1-.5.2-.7.3l-.1.1c-.4.2-.9.4-1.3.4-.3 0-.5.1-.8.1-.3 0-.6 0-.8.1-.3 0-.6.1-1 .1H270.4zm-17.1-9.6c-.1 0-.3 0-.4.1-.9.1-1.8.1-2.7.1h-.4l-.1.1s-.1 0-.1.1h-.2l-.1.2c-.1.1-.2.3-.4.4l-.6.6-.5.5c-.8.8-2 1.2-2.8 1.5l-1.2.3h-.1l-.1.1c-.1.1-.2.1-.2.1h-.1l-.1.1-.1.1-.1.1-.1.1c-.2.2-.3.4-.4.6l-.1.2c-.2.2-.3.5-.5.7l-.3.3c0 .1-.1.1-.1.2-.1.1-.2.2-.2.3l-.3.4.4.2s.1 0 .1.1c.5.3.9.5 1.4.6 1 .4 2.1.7 3 .9.9.2 1.6.3 2.3.3h.6c.2-.1.4-.1.6-.2l.9-.3-1.1-.6c-.3-.2-.6-.3-.9-.5-.3-.2-.7-.4-1-.5l-.6-.3c-.1-.1-.3-.2-.4-.2-.3-.2-.5-.3-.8-.6-.1-.1-.1-.3-.1-.4 0-.1.1-.3.2-.3.2-.1.5-.2.8-.3.4-.1.7-.2 1.1-.4.5-.2 1-.5 1.7-.9 1-.6 1.9-1.2 2.7-1.9l.1-.1c.5-.4 1.1-.8 1.7-1.2l-.4-.6zm33.7-7.5c-.3.3-.6.7-.8 1l-.1.1c-.4.5-.8 1.2-.9 1.9-.1.9-.2 1.9-.3 2.8v.1l.1.1c0 .1.1.3 0 .5l-.1.1v.1c0 .4-.1.9-.1 1.4-.2 1.8-.6 3.5-1.1 5-.2.7-.5 1.4-.9 2.3-.1.3-.3.6-.4.8l-.4.7.8-.1c.1 0 .3-.1.4-.1.2-.1.4-.1.6-.1h.4c.2 0 .3-.1.4-.2.1 0 .1-.1.2-.1s.3-.1.4-.1c.3-.1.5-.2.8-.3.9-.3 1.6-.7 2.2-1.2.2-.1.4-.3.6-.4.5-.3 1-.7 1.4-1.2.4-.5.8-1 1.1-1.6l.2-.4-.5-.1c-.1 0-.3-.1-.3-.5v-1.1-.8c0-.4 0-.8-.1-1.2-.1-.9-.2-1.9-.5-3-.2-.6-.3-1.2-.5-1.8l-.8.2c.1 1.1 0 2.2 0 3.2 0 .6-.2 1.2-.3 1.9-.1.3-.2.6-.2.9-.2.8-.3 1.6-.9 2.2-.1.1-.1.1-.2.1s-.3-.1-.4-.2c-.2-.2-.1-.5.1-.7 0 0-.1.1-.2.1l-.3-.2-.1-.3.3.1-.3-.2s.1-.1.2-.1l.3.2c0 .1.1.2 0 .2 0-.1.1-.1.1-.2.1-.2.1-.4.2-.5v-.1s.1-.3.1-.4v-.2c0-.1 0-.2.1-.3.1-.2.1-.5.2-.7.1-.2.1-.5.2-.7.1-.6.2-1.2.2-1.7v-3.2-.7-.8-.4l-.1-.8-.8.7zm-26.1 5.2c-.2.2-.5.3-.8.4-.2.1-.3.1-.5.2-.4.2-.9.3-1.3.5-1 .5-1.9 1.1-2.8 1.7l-.3.2c-1 .7-2.1 1.5-3 2.1-1.1.8-2 1.5-3 2l-.2.1c-.4.2-.9.5-1.4.7l-.8.3.7.4c.2.1.4.2.5.3.3.2.6.3.9.5.4.2.7.4 1.1.6 1.3.7 2.8.9 4.1 1.1 1.1.1 2.3.3 3.5.3h.7c.5 0 .9-.1 1.4-.1.3 0 .6-.1.8-.1.7-.1 1.4-.2 2-.4.3-.1.5-.2.8-.3.3-.1.6-.2 1-.3l.8-.2-.7-.5-.2-.1c-.8-.4-1.6-.7-2.3-1.3-.4-.4-.6-.7-.6-1.1 0-.4.3-.7.7-1l.1-.1.1-.1c.1-.1.1-.2.2-.3.2-.2.3-.5.5-.7.3-.4.5-.9.8-1.4.4-.8.7-1.6.8-2.4l.1-.4-.7-.1c-.9-.1-1.8-.2-2.7-.4h-.2l-.1-.1zm4.5.9c-.2.9-.5 1.8-.9 2.7-.2.5-.5 1.1-.8 1.6v.1c-.2.4-.5.8-.8 1.2l-.3.3-.1.1-.3.3.3.3c.1.1.2.2.4.3.5.4 1.1.6 1.7.9.3.1.6.3.9.4 1.1.5 2 .9 3 1.2 1 .3 2 .5 3.1.5H273.3c.3 0 .7-.1 1-.1.2 0 .3-.1.5-.1h.4c.3 0 .7 0 1-.2.2-.1.5-.2.7-.3.3-.1.5-.2.7-.3.9-.3 1.8-.8 2.6-1.3l.2-.1c.3-.2.5-.4.7-.6l.3-.3c.1-.1.2-.1.3-.2l.2-.2.2-.1v-.2-.1c.1-.3.3-.3.4-.3h.3l.1-.3c.3-.9.4-1.8.6-3l.1-.9-.8.6c-.2.2-.5.4-.8.6-.7.5-1.6.9-2.7 1.4-1 .5-1.8.8-2.6.9-.5.1-.9.1-1.5.1-.4 0-.9 0-1.4-.1-.3 0-.7-.1-1-.1-.7 0-1.4-.1-2.1-.3-.1 0-.2-.2-.3-.4 0-.1 0-.3.1-.4 1.6-1.1 2.4-2.9 2.8-4.1.1-.2.1-.4.2-.7l.2-.8-.7.3c-.5.2-1 .4-1.5.4-.4.1-.7.1-1.1.1-.2 0-.4 0-.7.1-.4 0-.8.1-1.2.1-.3 0-.5.1-.8.1-.8.1-1.5.1-2.2.1h-.5l.4.8zm-18.7-6.2l-.9.6c-.9.7-1.6 1.5-2 2.3-.1.1-.2.3-.2.4-.2.3-.4.7-.6 1-.1.2-.3.4-.4.7-.2.2-.3.5-.5.7-.3.4-.5.9-.7 1.3-.3.6-.6 1.2-1 1.7-.1.2-.2.3-.4.5s-.3.4-.5.7l-.4.6H240c.2 0 .5 0 .7.1.4 0 .7.1 1.1.1h.2c1.1 0 2.2-.2 3.1-.6 1-.4 1.9-.8 2.5-1.7l.6-.7h-3.5c-.4 0-.6-.1-.9-.2-.2-.2-.2-.4-.1-.6.1-.4.3-.7.6-1.1.1-.2.2-.3.3-.5.3-.4.5-.9.8-1.3l.3-.6c.4-.7.8-1.5 1.2-2.2.1-.2.3-.5.4-.7l-.6-.5zm37.1-4.9h-.3c-.9 0-1.8.2-2.6.5-1.5.5-2.7 1.4-3.7 2.7-.5.7-.9 1.4-1.2 2.1-.3.8-.5 1.6-.6 2.3v.2c-.3 1.6-.6 3-1.2 4.4-.4.9-.8 1.6-1.3 2.2l-.5.6h1c.3 0 .6.1.8.1.3 0 .7.1 1 .1h.3c.9 0 1.9-.2 2.9-.6 1.1-.4 2.1-.9 3.2-1.6.5-.3 1-.6 1.4-1 .2-.2.5-.4.7-.6l.3-.3.1-.1v-.4c0-.3.1-.6.1-.9.1-.6.1-1.2.2-1.8.1-.7.4-1.4.9-2.2v-.1c.4-.6.8-1.3 1.4-1.7.1-.1.2-.2.3-.2l.4-.3-.4-.3-.1-.1-.1-.1c-.1-.1-.2-.2-.3-.2l-.3-.2-.2.3c-.1.1-.1.1-.2.1h-.1l-.1.1c-.1 0-.1.1-.2.1-.2.1-.3.3-.4.4-.3.3-.6.5-.9.7l-.1.1c-.9.6-1.6 1.5-2.3 2.2-.7.9-1.4 1.9-1.9 2.8l-.3.6c-.1.3-.3.5-.5.8-.1.1-.1.2-.2.3-.1.1-.1.2-.2.3-.1.2-.2.3-.2.6 0 .2-.3.4-.5.4-.3 0-.4-.3-.4-.6 0-.5.3-.9.6-1.3.2-.3.4-.7.6-1.1.1-.2.2-.3.3-.5.7-1.1 1.3-2.1 2-2.9.7-.9 1.6-1.8 2.5-2.4.4-.3.7-.5 1.1-.9.2-.2.4-.4.6-.5l.3-.2-.2-.3c-.1-.2-.1-.3-.1-.5s0-.4.1-.5l.1-.3-.4-.1c-.1 0-.1-.1-.2-.1-.2-.1-.5-.1-1-.1zm5.1 4.7c.3.4.6 1 .8 1.5v.1c.4.9.7 2 1 3 .3.9.5 2 .6 3.1v.8h.8c.2-1.4.1-2.6-.1-3.8-.1-.6-.3-1.3-.6-2.1-.3-.7-.6-1.4-1-2.1-.2-.3-.4-.6-.6-.8.1.1.1.2.1.2l-.4.4h-.1l.3-.5-.5.4v-.1l-.1.1.1-.1.2-.4v-.1l.1-.1-.1.1h.1c.1 0 .2 0 .2.1h-.1c-.1 0-.1-.1-.2-.1H289.1l-.9-.1.7.5zm-39.5 7s0 .1 0 0h2.1c1.3-.1 2.5-.3 3.7-.7.2-.1.5-.2.7-.3.4-.2.7-.3 1.1-.4.1 0 .1 0 .2-.1.2-.1.4-.1.6-.2.1 0 .2-.1.2-.1l.9-.5-1.2-.3c-.3-.1-.6-.1-.8-.2-.5-.1-1-.2-1.4-.4-.4-.2-.5-.7-.3-1 .2-.3.4-.6.6-.8.1-.1.2-.2.3-.4.7-.9 1.3-1.9 1.9-2.9l.1-.1c.2-.3.4-.6.5-.9l1.2-2.1c.2-.4.4-.8.7-1.2l.5-.8h-.7c-.8 0-1.6 0-2.5-.1-1-.1-1.8-.2-2.6-.4h-.2l-.1.1c-.1.1-.2.2-.4.3-.1.1-.3.2-.5.4-.4.3-.7.6-1 .9l-.5.5c-1.7 1.5-3.2 3.5-4.3 5.7-.1.3-.3.5-.4.8-.5 1-1 2-1.5 2.9l-.3.6c-.2.3-.4.7-.6 1 0 .1-.1.1-.1.2l-.5.6H249.5c-.2 0-.2-.1-.1-.1zm41.7-7.3c.2.3.4.7.5 1 .5 1.1 1.3 2.8 1.5 4.5 0 .2.1.5.1.7l.1 1 .6-.7c.1-.1.2-.2.2-.3.4-.5.6-1 .8-1.4.3-.6.5-1.2.7-1.7 0-.2.1-.3.1-.5 0-.1.1-.2.1-.3v-.1c.1-.2.1-.3.1-.6 0-.2 0-.3-.1-.5v-.2c0-.3-.1-.6-.1-.9-.1-.5-.2-1.1-.5-1.6-.2-.5-.6-.9-.9-1.2l-.2-.2-.3-.3-.6.6c-.1-.1-.1-.2-.1-.4l.4-.2.2.1-.1-.1c-.1 0-.1-.1-.2-.1h-.1l-.1-.1h-.1c-.1 0-.2-.1-.3-.2l-.2-.5-.4.4c-.2.2-.4.4-.6.5-.4.2-.7.5-1.2.9l-.9.7.9.1c.7.1 1.4.3 2 .8.3.3.7.7 1 1.1.1.1.2.3.2.4.1.1.1.2.2.3l.7-.4c0 .1.1.2 0 .4l-.3.2c-.2 0-.3-.1-.3-.1l.1.1.1.1.1.1.2.2c.1.1.1.2.1.3 0 .1-.1.3-.2.3-.1.1-.2.1-.3.1-.1 0-.3-.1-.4-.2l-.2-.2-.2-.2c-.1-.1-.1-.2-.2-.3 0-.1-.1-.2-.1-.2-.2-.3-.4-.5-.6-.8-.1-.1-.2-.2-.2-.3l-.4-.4-.4.7-.2-.4zm-20.5-8.7c-.2.1-.5.2-.7.3-.3.1-.5.2-.8.3-.7.3-1.4.6-2.3.9-1.2.4-2.7.6-4.2.9h-.5l-.1.2c-.1.1-.1.2-.2.3-.1.1-.1.2-.2.3-.2.3-.3.6-.5.9-.1.2-.2.4-.3.5-.3.6-.7 1.2-1 1.8-.2.3-.4.6-.6 1l-.1.1c-.5.9-1 1.8-1.6 2.6-.3.5-.6.9-.9 1.3-.1.1-.1.2-.2.3l-.4.5.8.1c.6.1 1.1.3 1.7.4.1 0 .6.2.6.2.6.2 1.2.3 1.7.5h.4c.6.1 1.2.2 1.7.3.3 0 .6.1 1 .1.8.1 1.6.2 2.4.2h.7c.8-.1 1.5-.2 2.2-.2.6-.1 1.2-.2 1.8-.2.6-.1 1.2-.1 1.8-.3.1 0 .2-.1.3-.1.2-.1.5-.2.7-.2h.5l.1-.1.1-.1.1-.4c.1-.7.2-1.4.4-2.1.4-1.5 1.2-2.9 2.3-4.1l.2-.2.4-.4-.6-.2c-.3-.1-.6-.2-.9-.5-.5-.3-1-.7-1.5-1-.5-.4-.9-.9-1.3-1.4-.4-.5-.7-.9-1.2-1.2-.3-.2-.5-.4-.8-.6-.2-.1-.4-.3-.5-.4l-.2-.1-.3-.2zm15.5 5.7c.2.3.5.5.9.8l.1.1c.1.1.2.2.4.3l.2.2.3-.2c.2-.2.5-.3.7-.5.1-.1.3-.2.4-.3.4-.2.7-.5 1-.7l.2-.1c.4-.3.8-.6 1.1-.8.3-.2.5-.4.8-.7l.3-.3c.2-.2.3-.3.5-.4.2-.1.4-.3.5-.4.1-.1.3-.2.4-.3.2-.2.5-.4.7-.6.3-.3.6-.5.9-.7l1.5-1.2c.2-.2.3-.4.5-.5.1-.2.3-.3.4-.5.1-.1.3-.2.4-.3.2-.1.3-.2.5-.3l.6-.6c.1-.1.2-.2.2-.3l.5-.5.4-.4c.5-.6 1.1-1.3 1.6-2.1v-.1c.5-.8 1-1.5 1.2-2.4l.1-.2c.1-.3.2-.7.3-1 .1-.3.1-.5 0-.6h-.3l-.2.1-.1-.1h-.2v-.1h-.1l.1-.1v-.1l.3-.1.2-.1c-.1-.1-.1-.2-.2-.3v-.1l-.2-.1v-.6h-.4l-.2-.1-.2.4-.4.4h.1v.1c-.2.5-.5 1-.9 1.5-.2.3-.3.5-.5.8l-.1.1c-.2.4-.4.7-.6 1-.1.2-.3.4-.4.5-.1.2-.3.4-.4.6-.2.3-.5.7-.9 1l-.8.8c-.1.2-.3.3-.4.5l-.5.5v.1c-.3.3-.5.7-.9.9-.4.3-.8.7-1.1 1.1l-.8.8c-.4.4-.9.8-1.4 1.2-.2.1-.3.3-.5.4v.1c-.1.1-.1.2-.2.2h-.2c-.6.5-1.2.9-1.9 1.2-.2.1-.3.2-.5.2-.6.3-1.3.6-1.9 1-.4.3-.8.5-1 .8l-.1.1.6.6s-.1.1-.3.1l-.3-.2c-.1-.1-.1-.3 0-.4l-.1.2.1.2.2.5zm-9.6-13.3c-.9 0-1.9.1-3.1.3-1.1.2-2.1.5-3 .8-.2.1-.5.2-.7.2-1.3.4-2.6.8-3.9 1l-1.3.2 1.1.6c.4.2.8.4 1.4.8 1.2.7 2.3 1.4 3.2 2.1.3.2.5.4.8.6l.1.1h.1c.1 0 .1.1.2.1l.1.1v.1l.2.2c.2.1.3.2.5.4.3.2.6.4.9.7.5.4.9.8 1.2 1.2.4.5.8 1 1.2 1.3.4.4.9.7 1.4 1 .5.3 1 .5 1.5.5.1 0 .2.1.2.1l.2.2.3-.2c.7-.4 1.5-.7 2.4-.9.9-.2 1.7-.3 2.5-.3h.2l.2-.7c-.1-.1-.3-.1-.4-.2-.1 0-.2-.1-.3-.1l-.6-.3c-.6-.3-1.1-.6-1.6-.9l-.3-.2c-.6-.4-1.1-.9-1.8-1.3-.3-.2-.5-.3-.8-.5-.5-.3-.9-.5-1.4-.8-.1-.1-.1-.2-.1-.3 0-.1 0-.3.1-.4.1-.1.2-.2.3-.2.1 0 .2 0 .3.1.5.3 1 .6 1.4.9.3.2.6.3.8.5.6.3 1.1.8 1.6 1.2l.3.3c.5.4 1.1.7 1.7 1l1.4.7-.7-1.1c-.1-.1-.2-.4-.2-.4-.3-.5-.6-1-.7-1.6l-.3-1.2c-.1-.2-.1-.5-.2-.7-.3-1.3-.7-2.3-1.1-3.2l-.1-.2h-.2c-.4-.1-.8-.2-1.3-.4-.2-.1-.5-.2-.7-.3-.7-.2-1.3-.3-2-.4-.4-.5-.7-.5-1-.5zm10.1 9.7c.2 0 .3.1.4.2l.7 1.2v-1.4-.1c.1-1.2 0-2.5-.4-4-.1-.5-.3-1.2-.6-1.9-.1-.3-.2-.5-.4-.8l-.1-.1-.1-.1-.1-.1v-.1c-.1-.1-.4-.3-.3-.6.1-.2.3-.3.4-.3h.1c.5.3.7.8 1 1.4v.1c.3.7.6 1.5.7 2.1.4 1.5.5 2.9.5 4.2v.6l.6-.3.2-.1c.3-.2.7-.3 1-.6.2-.1.4-.3.6-.5l.1-.1v-.1-.6-.2c0-.5-.1-.9-.1-1.3-.1-.7-.2-1.4-.6-2.1-.3-.6-.7-1.1-1-1.6-.1-.1-.2-.3-.3-.4l-.9-1.2c-.7-.8-1.8-1.5-3.1-2-.8-.3-1.6-.5-2.3-.7-.4-.1-.9-.2-1.4-.4l-1.2-.3.7 1c.7.9 1.2 1.6 1.5 2.4.5 1.1.9 2.2 1.2 3.3.1.3.1.5.2.8.1.3.1.6.2.9.2.6.4 1.1.7 1.5.3.5.5.9.9 1.4l.1.1c.1.2.3.4.4.5l.1-.1v.2l.6.2c-.1-.1-.2-.1-.2-.2l-.1-.2v-.1l.3-.3.1-.1v.1l.1.3-.2.1v.4zm-31.6-1.3h.2c.1 0 .1.1.2.2l.1.1h.1c1.1.2 2.3.3 3.1.4.5 0 1 .1 1.5.1H261.4l.1-.1c.1-.1.2-.1.3-.1h.1l.1.1h.1c.3 0 .7-.1 1-.2.3 0 .5-.1.8-.1 1-.2 2-.4 3-.7.5-.2.9-.4 1.4-.6.2-.1.4-.2.5-.2.1-.1.3-.1.4-.2l.7-.3-.6-.4c-1-.7-2.1-1.4-3.1-2-.2-.1-.3-.2-.5-.3-.4-.2-.8-.5-1.3-.7-.4-.2-.8-.3-1.2-.5-.2-.1-.4-.1-.6-.2-.2-.1-.2-.2-.2-.3 0-.2 0-.3.1-.4.5-.6 1.4-.7 2.2-.8.3 0 .6 0 .8-.1 1.4-.2 2.7-.6 4-1 1.3-.4 2.6-.8 4-1 .6-.1 1.1-.1 1.6-.2l1.2-.1-1.1-.6c-.2-.1-.3-.2-.5-.3-.1 0-.1-.1-.2-.1h-.1c-.5-.2-1-.5-1.5-.6-.6-.2-1.2-.2-1.7-.3h-1c-.7 0-1.3 0-1.9.1-.9.2-1.7.5-2.5.8l-.2.1c-2 .8-3.8 1.6-5.3 2.7-1.2.8-2.3 1.8-3.4 2.7l-1.2.9c-.8.7-1.6 1.2-2.4 1.7-.4.2-.8.4-1.3.7l-.8.4.6.4c.2.1.3.2.5.3.6.3 1.2.5 1.9.7l.2.1.2-.1c.3.1.4 0 .4 0z"/>
  <path class="st0" d="M303 340.1h.1l-.4.5zM19.9 357.7c-.6 0-1.1 0-1.6-.1-1-.1-1.9-.2-2.8-.4-.4-.1-.8-.3-1-.7-.1-.3-.1-.7 0-1.1.1-.2.1-.4.2-.7l.5-1.4-1.1 1c-.2.1-.3.2-.5.2-.1 0-.2 0-.3-.1-.2-.1-.3-.4-.5-.7-.3-.7-.6-1.4-.7-2v-.2c0-.1 0-.1-.1-.2v-.1c0-.1-.1-.2-.1-.3-.1-.2-.1-.4-.1-.6v-.2l-.1-.1-.1-.1c-.1-.1-.2-.3-.2-.4-.1-.2-.1-.3-.2-.5-.5-.9-.9-1.8-1.1-2.6-.1-.4-.3-.9-.4-1.4-.1-.4-.1-.8-.1-1.2v-.1c-.1-1.7.1-3.6.4-5.7.2-.9.3-1.8.6-2.7 0-.1.1-.3.1-.5l.2-.6-.6.1h-.2c-.3 0-.5-.1-.6-.2-.4-.4-.2-1 .1-1.6.1-.3.3-.6.4-1l.3-.6c.5-1.1.9-2 1.5-2.8.6-.8 1.4-1.6 2.2-2.1.4-.3.9-.5 1.4-.8l.1-.1c.4-.2.8-.4 1.2-.5.8-.3 1.7-.4 2.5-.4h.7c.5 0 .9.1 1.4.1.1 0 .2 0 .4.1l.6.1-.1-.6v-.2c-.1-.6-.2-1.1.1-1.5.1-.1.2-.2.3-.2.1 0 .3.1.4.2.1.1.3.1.4.2.2.1.5.1.7.1H25c.4 0 .7 0 1.1-.1.6-.1 1.2-.1 1.8-.1.5 0 1 0 1.4.1.9.1 1.7.6 2.6 1.6.1.1.2.2.2.3l.1.2h.6c.1 0 .1 0 .2-.1.1 0 .2-.1.3-.1.2-.1.4-.1.7-.1h.5c.7.1 1.4.2 1.9.5l.2.1.3-.1c.3-.1.6-.1.9-.2l.5-.1-.1-.4c-.2-.5-.4-1.2-.4-1.8 0-.5.2-.8.5-.9.1 0 .2-.1.4-.1s.4 0 .5.1l.7.1-.1-.5v-.4c0-.8.2-1 .5-1.1h.3c.3 0 .6.1.9.2.3.1.6.3.9.4.6.3 1.2.6 1.8.7.3.1.6.1.9.2H46.8l.5-.3-.2-.4v-.1c-.1-.2-.2-.2-.3-.4l-.1-.1c-.2-.2-.5-.4-.8-.5-.2-.1-.5-.1-.8-.1H45c-.6 0-1.3-.1-1.9-.3-.6-.2-1.1-.7-1.5-1.2-.4-.5-.8-1.1-1.1-1.7-.2-.4-.5-1-.4-1.4 0-.1.1-.2.2-.2l.4-.2-.2-.4c-.2-.3-.3-.5-.4-.8-.1-.2-.2-.5-.2-.8 0-.1-.1-.2-.1-.4-.1-.4-.2-.7 0-.8.1-.1.2-.2.4-.2h.3l.6.2-.1-.6c-.1-.3-.2-.6-.3-.8v-.1c-.3-.7-.6-1.4-1.1-2.1-.2-.3-.4-.5-.6-.8-.1-.1-.1-.2-.2-.2l-.3-.3c-.2-.1-.3-.3-.4-.4-.1-.2-.1-.4.1-.5l.3-.3-.4-.3c-.1-.1-.2-.2-.3-.2-.5-.3-.6-.6-.5-.9.2-.3.5-.4 1.1-.5.3-.1.7-.1 1.1-.1h1.8c.7 0 1.4 0 2.1.1.5.1 1.1.2 1.6.4.1 0 .2.1.3.1l.6.3-.1-.7v-.4c0-.2-.1-.4-.1-.5 0-.1-.1-.1-.1-.2-.1-.1-.1-.3-.1-.4 0-.1 0-.3.1-.4.1-.1.3-.1.4-.1.3 0 .6.1.9.3.2.1.3.1.5.2.3.1.5.2.8.3.2.1.4.1.6.2.5.2 1 .4 1.4.6.3.1.5.2.8.4.2.1.5.2.7.3.2.1.4.2.6.2.2.1.5.2.7.3.3.1.4.3.6.4l.3.2.3-.2s.1-.1.2-.1h.1c.2.1.3.3.5.5.1.1.1.2.2.3l.1.1c.2.2.4.5.6.7.2.3.3.5.5.8l.4.7.4-.6c0-.1.2-.1.3-.1.3.1.5.3.7.7l.2.3c.2.4.3.7.5 1.1.1.2.2.4.3.7l.2.6.5-.5.2-.2c.1-.1.1-.2.2-.3 0-.1.1-.2.1-.2 0-.1.2-.1.3-.1.1 0 .2.1.3.1.6.9.6 2.3 0 4-.3 1.1-.8 2.4-1.6 3.4l-.3.3c-.1.1-.2.3-.3.4-.1.1-.2.2-.3.4l-.1.1s0 .1-.1.1l.3-.2.3.2v.4l-.7-.4c0 .1-.1.2-.1.2v.2l-.1.5h.5c-.2 0-.4-.1-.4-.4l.3-.4.1.8c.3 0 .3 0 .3-.1.2-.1.5-.2.7-.3.5-.3.8-.8 1.1-1.2.3-.4.6-1 .8-1.5.1-.2.2-.4.2-.6.1-.4.3-.8.5-1.1 0-.1.2-.1.3-.1.1 0 .2 0 .3.1.1.2.2.5.2.7v.1l.1.9.1-.1c0 .1 0 .1.1.2l.7-.2c0-.1 0-.3-.1-.4l-.1-.1h-.1c.1-.1.3-.3.5-.3.1 0 .2 0 .3.1.2.1.3.3.3.8v.3c0 .3.1.6 0 .8v.8l.6-.4c.1-.1.3-.2.4-.2.2 0 .4 0 .4.2.1.2.1.4.1.6v2.3c0 .4-.1.8-.2 1.2l-.1.4.4.1c.1 0 .1 0 .1.1.2.1.4.4.2 1.2 0 .1-.1.3-.1.4-.1.6-.3 1.1-.5 1.6l-.3.7H66.6c.1 0 .3.2.3.3 0 .3-.1.6-.4.9l-.1.1c-.3.4-.6.8-1 1.2-.6.5-1.3.8-2.3 1.1-.6.1-1.2.2-1.7.2h-.9c-.2 0-.5-.1-.7-.1-.5-.1-1-.1-1.5-.1h-.6c-.5.1-.9.2-1.3.3h-.1c-.1 0-.3.1-.4.2 0 0-.1 0-.1.1l-.2.1-.1.1c0 .1-.1.1-.1.1l-.2.2.1.3v.4c.1.5.2 1.1.4 1.5.1.3.2.7.3 1.1l.3 1.2c.4 1.5 1 2.8 1.6 4 .2.3.3.7.5 1.1.4.9.8 1.7 1.4 2.5.8 1.1 1.8 2.1 2.8 3 .5.4 1 .9 1.7 1.3.3.2.5.3.8.5.1.1.2.1.3.2.1 0 .1.1.1.1H65.8c.1.1.2.2.2.4v.3l.3.1c.1 0 .3.1.4.1.2 0 .5.1.7.2.2.1.3.3.2.5-.1.1-.2.2-.4.2h-.1c-.3-.1-.5-.2-.8-.2-.2 0-.3-.1-.5-.1-.5-.2-.9-.4-1.3-.6-.8-.4-1.7-.9-2.6-1.5-1.6-1-3.1-2.1-4.4-3.3-.5-.5-1-1-1.4-1.5l-.3-.4c-.3-.3-.6-.6-.8-.9-.3-.3-.6-.6-.9-1-1-1.1-1.8-2.4-2.7-3.7l-.3-.4c-.6-.9-1-1.6-1.4-2.3-.2-.4-.4-.7-.6-1.1-.1-.3-.3-.6-.4-.9l-.1-.2h-.3c-.3 0-.6.1-.9.1-.3 0-.7 0-1.1-.1-.9-.1-1.8-.4-2.8-.9-.3-.1-.5-.3-.7-.4l-.2-.1c-.1-.1-.2-.1-.3-.2-.3-.2-.6-.4-.9-.8-.1-.1-.1-.3 0-.5l.2-.3-.2-.2-.3-.3c-.5-.5-.9-1-1.3-1.6-.1-.2-.2-.3-.3-.5l-.1-.2h-.6l-.7.1.5.6c.4.4.7.9.9 1.3.2.3.2.7.3 1.1v1.1l.3.1c.2.1.3.1.4.2 1 .5 1.8 1.3 2.4 2.8.5 1.1 1.1 2.5 1.3 3.8.1.7.1 1.4.2 2v1.1c0 .1 0 .2-.1.4 0 .2-.1.3-.1.5s-.2.3-.4.3h-.2l-.7-.5.2.9c.1.3.1.7 0 1.1 0 .4-.1.8-.1 1.2-.1.9-.1 1.7-.3 2.6-.3 1.2-.8 2.4-1.5 3.4-.3.5-.7.9-1.1 1.3l-.1.1c-.4.4-.8.8-1.2.9h-.3c-.2 0-.4-.1-.6-.3l-.3-.3-.3.3-.5.5c-.2.1-.3.3-.5.4-.5.5-1 .9-1.7 1.3-.6.3-1.2.5-2.1.7h-.2l-.1.2c-.1.2-.3.4-.7.5h-.1l-.1.1s-.1.1-.2.1l-.6.3c-.3.2-.7.4-1.1.5-.2.1-.5.2-.8.2-.1 0-.3.1-.4.1l-.6.3c-.1.1-.2.1-.3.2-.3.1-.6.2-.9.2h-.1c-.2 0-.4.1-.6.1-.2 0-.4.1-.6.1h-.5c-.2 0-.4 0-.5.1-.4.1-.8.1-1.2.1-.3 0-.6 0-1-.1H21.6c-1 .9-1.3.9-1.7.9zm1-1c.1 0 .1 0 .2.1l.1.1h.1c.2 0 .5.1.7.1h.2c.3 0 .7-.1 1-.1.2 0 .4-.1.6-.1.3 0 .6-.1.9-.1h.2c.2 0 .3-.1.5-.1.1 0 .3 0 .4-.1.3-.1.5-.2.8-.3 0 0 .1 0 .1-.1.1 0 .1-.1.2-.1l-.2-.8h-.3c-.3 0-.7.1-1.1.1-.2 0-.5 0-.6-.1-.1 0-.5-.1-.6-.4-.1-.2-.1-.5 0-.8.1-.5.2-.9.3-1.4 0-.2.1-.4.1-.6.1-.3.2-.7.2-1.1v-.2-.3l.1-.6-.6.2c-.8.2-1.6.4-2.5.5-.1 0-.2 0-.3.1h-.2l-.2.5c-.3.6-.5 1.2-.8 1.8l-.3.5c-.3.5-.6 1.1-.9 1.6 0 .1-.1.1-.1.1v.2c0 .1-.1.1-.1.2v.1l-.1.3.3.2c-.1-.1-.2-.2-.1-.4l.1-.1v.1l.1.2-.1.3c.3.2.7.3 1 .4l.2.1c.1.1.3.1.5.1h.2c-.1-.1 0-.1 0-.1zm-5.2-.2c.2 0 .5.1.7.1.3.1.7.1 1 .2l.7.1-.3-.7c-.2-.4 0-.9.4-1.5.3-.4.6-1 .8-1.5l.3-.5c.3-.5.5-1 .7-1.4l.3-.6H17.1l-.1.4c-.1.2-.1.5-.2.7-.2.4-.4.8-.5 1.2l-.2.5c-.4.8-.8 1.7-.9 2.4v.2l.2.1c.1.2.2.3.3.3zm13.1-9.8c0 .1-.1.2-.1.2-.2.3-.5.6-.8.9-.5.4-1.2 1-1.9 1.4-.1.1-.2.1-.3.2l-.4.2.2.4c.1.1.1.2 0 .3-.1.2-.1.4-.1.7v.3c0 .3-.1.6-.2 1v.2c-.1.5-.3 1.1-.4 1.7l-.1.4h1c.6 0 1.2-.1 1.7-.2l2.1-.3c.4-.1.8-.1 1.2-.2.9-.2 2-.4 3-.9.5-.3.8-.6 1.2-.9l.2-.2c.1-.1.3-.2.4-.4l.2-.1.1-.1.1-.1v-.2c0-.1 0-.2.1-.2l.1-.1.3-.2-.2-.4c0-.1-.1-.1-.1-.2l-.2-.4-.4.3c-.2.2-.5.4-.7.6-.8.6-1.5 1.1-2.2 1.5-.6.3-1.1.5-1.5.5-.4 0-.6-.2-.6-.3-.2-.3-.2-.7-.3-1 0-.3-.1-.5-.1-.8 0-.2-.1-.4-.1-.6-.1-.5-.1-.9-.2-1.4 0-.4-.1-.7-.1-1.1l-.2-1.3-.7.8zm-10.4-4.3c-.4.1-.9.1-1.4.2h-.3l-.1.3c0 .1 0 .1-.1.2-.1.2-.1.3-.1.4v.2c-.1.4-.3.8-.5 1.3-.5.9-1.1 1.8-1.9 2.8-.1.2-.3.3-.4.5-.2.2-.3.4-.5.7l-.1.1c-.1.1-.2.3-.3.5 0 .1-.1.1-.1.2s-.1.2-.1.2l-.1.1v.5c0 .1.1.2.1.2 0 .1 0 .1.1.2.1.2.1.4.2.6 0 .2.1.4.1.5.1.3.2.6.3.8l.3.7.4-.5.3-.3c.3-.4.6-.8.9-1.1.4-.5.9-1.2 1.3-1.9v-.2c0-.2.1-.4.2-.7l.6-1.5.3-.9v-.1c.3-.7.6-1.4.8-2.2l.3-1.2c0-.1 0-.2.1-.3l.1-.6-.4.3zm12.9.3h-.1c-.1 0-.2.1-.3.1-.2.1-.3.2-.5.3-.1.1-.2.1-.2.2-.1 0-.1.1-.2.1l-.3.2.1.3v.7c0 .1.1.2.1.3l.1.2c.1.3.1.6.2.9l.3 1.8v.1c.1.8.2 1.4.3 2v.2c0 .2.1.4.1.7v.2l.1.4.4-.1c.1 0 .1 0 .2-.1.3-.1.6-.2.9-.4.5-.2.9-.6 1.5-1 .8-.6 1.7-1.4 2.4-2.3l.1-.2c.3-.4.5-.7.8-1.2.2-.5.4-1 .6-1.4l.1-.2c.1-.4.2-.7.3-1.1l-.7-.3c-.1.1-.1.2-.2.3l-.1.2c-.1.2-.2.3-.3.5-.3.4-.6.9-.8 1.4-.1.3-.2.5-.4.7-.1.1-.3.2-.4.2-.1 0-.2 0-.3-.1-.4-.3-.7-.7-1.1-1-.1-.1-.2-.2-.3-.4l-.2-.2c-.5-.5-1-1-1.4-1.5-.1-.1-.2-.2-.3-.4l-.2-.3-.3.2zm8.4-3.5c0 .2 0 .3-.1.5 0 .1 0 .3-.1.4v.7c0 .2 0 .5-.1.7-.1.5-.2 1.1-.3 1.6-.3 1.2-.6 2.1-1 2.9-.4.8-.9 1.6-1.5 2.3l-.2.2-.2.3.3.3.1.1.3.6c0 .1.1.1.1.2.1.1.1.3.2.5 0 .1.1.2.1.3l.2.5.4-.3c.1-.1.2-.1.2-.2 1.4-1.2 2.5-3.1 2.9-5.2.1-.5.2-1 .2-1.7v-.3-.5-.4c0-.1 0-.3.1-.4 0-.3 0-.6-.1-.9 0-.2-.1-.4-.1-.6v-.3-.4l-.1-.1c-.1-.1-.1-.2-.1-.3l.1-.3-.3-.1c-.1-.1-.3-.1-.4-.2-.1 0-.2-.1-.3-.1l-.5-.2.2.4zM22 341.1c-.2.1-.3.1-.5.2-.1 0-.2.1-.3.2-.1.1-.2.1-.3.2-.2.1-.3.1-.5.2l-.5.2V342.4c-.1.3-.2.6-.2.9 0 .1 0 .2-.1.3l-.3 1.2c-.2.8-.5 1.5-.8 2.3l-.1.2c-.1.3-.2.6-.3.8-.1.4-.3.8-.5 1.2l-.1.1v.5h1.1c1.4 0 2.8-.2 3.9-.5 1.3-.3 2.5-.5 3.5-1.3l.1-.1c.5-.4 1-.7 1.5-1.2.3-.3.5-.6.6-.8.1-.2.2-.3.3-.5.1-.1.2-.3.3-.4l.1-.1.3-.2-.1-.3c0-.1 0-.2-.1-.2l-.1-.5-.4.2s-.1 0-.1.1c-.6.3-1.3.5-1.9.8-.6.2-1.2.4-1.9.5-.6.1-1.2.1-1.8.1h-.6c-.3 0-.6 0-.8-.1-.2-.1-.3-.2-.4-.4-.2-.6.4-1.7.8-2.3.1-.1.1-.2.2-.3.2-.3.3-.6.4-.9l.4-.9-.8.5zm-10.4-6.7c0 .1-.1.2-.1.2v.2c-.1.2-.1.4-.2.6l-.3 1.2c0 .2-.1.4-.1.6-.4 1.8-.8 4.2-.7 6.6v.2c0 .5 0 1 .2 1.5.1.5.3.9.5 1.4l.1.2.6 1.5.4.7.4-.5c.2-.3.4-.5.6-.8.5-.6.9-1.2 1.3-1.8.4-.6.7-1.1 1-1.7.1-.2.1-.3.2-.4 0-.1.1-.3.1-.4v-.3l.1-.5h-.5l-2.4.3h-.3c-.3 0-.5-.1-.7-.3-.2-.3-.2-.7-.2-1.2 0-.7.1-1.3.3-2 0-.2.1-.3.1-.5.2-1 .5-2 .9-2.9.3-.7.6-1.4 1-2.1l.6-.9-1 .3c-.2.1-.4.1-.7.2-.3.1-.5.1-.8.2h-.1l-.1.1-.1.1-.1.2zm19.7-.1c-.2.7-.4 1.3-.7 1.8-.2.4-.5.8-.8 1.1l-.2.2.1.3V338l.1.1.1.2c0 .1.1.1.1.2.1.1.1.3.2.4.2.4.4.7.6 1 .4.6.9 1.3 1.3 1.9l.1.1c.5.7 1 1.3 1.7 2l.9.9.2.2.4.4.2-.5c.1-.3.3-.6.5-.8l.1-.2c.1-.1.2-.3.3-.4.3-.5.7-1.1 1-1.7.3-.6.5-1.4.6-2.2v-.1-.1l-.4.3-.4-.4h.8c0-.1 0-.2-.1-.3-.1-.2-.1-.3-.1-.4v-.2V338.1v-.1l-.1-.1c-.1-.1-.1-.2-.1-.2v-.1l-.1-.1c-.1-.2-.1-.3-.2-.5-.2-.5-.5-.8-.8-1.2-.2-.2-.3-.3-.4-.5-.2-.2-.4-.5-.6-.7-.3-.3-.5-.5-.8-.7l-.3-.3-.2-.2c-.3-.3-.5-.5-.9-.7-.2-.1-.5-.2-.7-.3l-1.4-.5.9 1v.1h.2v.1l.2.2.1.1c.2.2.4.4.6.7.4.5.7 1.2.9 1.9.2.8.3 1.6.4 2.4 0 .4.1.8.2 1.2 0 .3.1.7 0 1 0 .2-.2.4-.4.4h-.1c-.1 0-.2-.1-.3-.2 0 0-.1-.1-.1-.2.1-.3 0-.6 0-.9v-.2c0-.3-.1-.6-.1-.9v-.3c-.1-.7-.2-1.5-.5-2.3-.1-.4-.3-.7-.4-1-.1-.2-.2-.3-.3-.5-.1-.1-.1-.2-.2-.2l-.1-.1-.6-.6-.4.7zm-7.3 5.9c0 .2-.2.5-.3.7 0 .1-.1.2-.1.3-.1.3-.2.5-.3.8-.2.4-.3.8-.6 1.2l-.1.2c-.2.3-.4.6-.5.9 0 .1-.1.2-.1.3l-.2.5h1.6c.6 0 1.3-.1 2-.3.7-.2 1.4-.5 2.3-.8h.1c.3-.1.7-.3 1-.5l.9-.6c.1-.1.3-.2.4-.3.1-.1.2-.2.3-.2.1-.1.3-.2.4-.2l.4-.2-.3-.5c-.1-.2-.2-.3-.3-.5-.3-.5-.6-.9-.9-1.4-.1-.2-.2-.5-.3-.8l-.1-.2c0-.1-.1-.1-.1-.2l-.2-.4-.4.2c-.3.2-.6.3-.9.5-.2.1-.3.2-.5.3-.5.3-1.3.7-2.2.8h-1v.4zm28.2-10.1c-.4 0-.8.1-1.1.1-.5.1-.9.2-1.3.3l-.6.3-.2.1-.4.2.2.4.3.6c.2.4.4.7.6 1.1.4.8.9 1.6 1.4 2.3.1.2.3.4.4.7.3.5.6 1 1 1.5.5.7 1 1.4 1.8 2.1l.8.8c.9 1 1.9 2 2.9 2.9.3.2.5.5.8.7l.6-.6c-.4-.4-.6-.8-.9-1.2-.3-.5-.7-1.1-1-1.9-.2-.5-.5-1-.7-1.4l-.3-.6c-.7-1.4-1.2-2.9-1.5-4-.1-.3-.2-.5-.2-.8-.1-.4-.2-.8-.4-1.2-.1-.3-.2-.8-.3-1.2v-.2l-.2-.1c-.1 0-.1-.1-.2-.1-.1-.1-.1-.2-.1-.3l-.1-.2-.2-.1c-.2-.1-.3-.1-.5-.1-.3-.1-.4-.1-.6-.1zm-33.8 1.8c-1.1.5-2.4 1.1-3.4 2.3-.5.6-.8 1.3-1.1 2v.1c-.3.7-.7 1.6-.9 2.6v.1c-.1.6-.3 1.3-.4 1.9-.1.3-.1.7-.1 1v.5l.4-.1h.2c.2 0 .5-.1.7-.1.4 0 .8-.1 1.2-.1l.5-.1c.6-.1 1.3-.1 1.9-.2.7-.1 1.4-.2 2.1-.4h.1c.3-.1.7-.2 1.1-.4.2-.1.3-.2.5-.2.1-.1.3-.2.4-.2.1 0 .2-.1.2-.1l1.1-.4-1.2-.3c-.4-.1-.5-.3-.6-.4 0-.1-.1-.3 0-.5v-.1l-.2-.1-.1.1-.3-.1v-.1h-.1l.1-.1v-.1h.1l.2-.2.3.1V338.4c.1-.3.1-.6.2-.8l.1-.3c.2-.8.4-1.5.8-2.3.2-.3.3-.7.5-1l.3-.5-.5-.1c-.3-.1-.7-.3-1-.5-.2-.1-.5-.3-.7-.4l-.9-.3c-.4-.1-.7-.3-1.1-.4l-.2-.1-.2.2zm20.2 5.6s.1 0 0 0c.1 0 .2.1.2.1.9.2 1.8.5 2.6 1 .3.2.6.3.8.5l.7.5v-1.1c0-.8-.1-1.5-.2-2.2-.2-1.3-.8-2.5-1.3-3.5-.2-.3-.3-.6-.5-.8-.1-.2-.3-.5-.5-.6-.4-.4-.9-.7-1.5-.9-.5-.2-.9-.3-1.4-.4-.1 0-.3-.1-.4-.1-.6-.2-1.2-.3-1.8-.3H33.6c-.3 0-.5.1-.8.3-.1.1-.2.2-.4.2l-1.2.7h2.9c.7 0 1.4.2 2.2.5.5.2.9.6 1.4.9.2.1.3.3.5.4.4.3.6.5.9.8l.2.2.1.2c.1.2.2.2.4.4.1 0 .1.1.1.2s0 .3-.1.3c-.1.1-.2.1-.3.1-.1 0-.2 0-.3-.1-.2-.1-.4-.4-.5-.6l-.1-.1c-.2-.3-.5-.5-.7-.7-.1-.1-.3-.2-.4-.3-.1-.1-.3-.2-.4-.3-.1 0-.1-.1-.1-.1-.1-.1-.2-.1-.2-.2 0 0-.2-.2-.3-.2-.5-.3-1.3-.5-1.9-.5l-1.5-.1 1.3.8c.3.2.5.4.8.6l.3.3c.6.5 1.2 1.2 1.8 1.8.2.2.3.4.5.6.3.3.5.7.7 1.1v.1c0 .1 0 .1.1.2 0 0 0 .1.1.1v.1l.1.2-.2-.1zM22.2 339c.2 0 .4.1.6.1h1c.7 0 1.4 0 2.1-.3.6-.2 1.1-.5 1.6-.8.1-.1.2-.1.4-.2l.2-.1c.5-.3 1-.5 1.4-1 .5-.5.8-1.1 1.1-1.9.1-.3.2-.5.2-.8l.3-1.3-1 1-.5.5-.1.1c-.4.4-.8.9-1.3 1.2-1.1.9-2.1 1.3-3 1.4-.1 0-.4 0-.5-.3 0-.1 0-.2.1-.3 0 0 .1-.1.2-.1.9 0 1.9-.5 3-1.4.3-.2.5-.5.7-.7l-.4-.6c-.5.2-.9.3-1.4.4-.4.1-.8.1-1.3.1H24l-.2.3c-.1.1-.2.2-.2.3-.2.3-.3.6-.4.8l-.1.2c-.3.8-.6 1.5-.8 2.3 0 0-.1.4-.1.5H21.9l-.3.1v.3c0 .2.1.3.5.3l.1-.1zm-2.9-13.9c-1.1 0-2 .2-2.9.6-.8.4-1.7.8-2.5 1.4-.8.6-1.5 1.3-1.9 2.1-.5.8-.8 1.6-1.2 2.4l-.1.1c-.1.2-.1.3-.2.5-.1.3-.2.5-.4.8v.1l-.3.7.7-.2c.1 0 .2-.1.4-.1h.1l1.2-.3.3-.1c1.6-.4 3.2-1 4.6-1.6l.6-.2-.5-.4c-.1-.1-.2-.1-.2-.2-.3-.2-.5-.4-.8-.5-.4-.2-.5-.4-.5-.6 0-.3.2-.6.5-.9.8-.8 1.6-1.4 2.5-2 .4-.3 1-.6 1.5-.9l1.2-.6-1.4-.1h-.7zm4.3 7.7c.1 0 .2 0 .3.1l.1.1h.1c.4 0 .8.1 1.2.1h.2c1.2 0 2.2-.3 3.2-.8.2-.1.3-.2.5-.2l.6-.3-.6-.3c-.1-.1-.3-.1-.4-.2h-.1c-.6-.3-1.2-.5-1.6-.7-.2-.1-.4-.1-.5-.2-.3-.1-.7-.3-1-.4-.5-.1-.9-.2-1.4-.2-.6 0-1.1.1-1.6.3h-.2c-.2 0-.3-.1-.4-.2v-.3c0-.1.1-.1.2-.2.6-.2 1.3-.3 2-.3s1.4.1 2 .3c.4.1.8.3 1.2.5.3.1.5.2.8.3.6.2 1.2.6 1.8.9l.1.1.6.4.1-.7v-.2-.5l-.3-.1c-.1 0-.1-.1-.2-.2s-.1-.3-.1-.5v-.1l-.1-.1c-.1-.1-.1-.2-.2-.2-.4-.5-.8-.9-1.4-1.3-.6-.4-1.1-.7-1.7-1-.6-.2-1.2-.4-1.9-.5h-.8c-.3 0-.6 0-.9.1-.2 0-.4 0-.6.1-.4 0-.7.1-1.1.1-.4.1-.9.3-1.3.6-.1.1-.2.1-.3.2-.4.2-1 .6-1.5.9-.4.3-.7.5-1.1.9l-.2.2c-.1-.1-.2-.2-.4-.2h-.4l-.1.3s0 .3.3.4l.3.2c.1 0 .1.1.2.1.2.1.4.3.6.5.3.2.5.4.8.6.4.3.9.4 1.3.6.1.1.3.1.4.2.5.2 1.1.5 1.7.8.3.2.8.3 1.2.4h.1l.1-.1c.3-.3.4-.3.4-.3zM40 326c.1.1.2.2.2.3l.1.1c.4.5.8.9 1.3 1.3.5.3.7.5.6.9v.1l-.1.3.3.2c.5.3 1 .5 1.5.7.9.4 1.8.5 2.7.5H47.4l-.5-.8c-.1-.2-.2-.3-.3-.5-.4-.6-.8-1.3-1.3-1.7-.5-.5-1.1-.8-1.6-1.1-.1 0-.2-.1-.3-.1-.8-.4-1.5-.7-2.4-.8-.2 0-.5-.1-.7-.1l-.9-.1.6.8zm-1.5-3.3v.2c.1.5.2.9.4 1.4l.1.2h.3c.7 0 1.4.1 2.2.3.8.2 1.5.5 2.3.9l.2.1c.6.3 1.2.7 1.7 1.2s.9 1 1.3 1.7l.1.2c.2.4.5.8.7 1.2l.2.3.3-.1c.1-.1.3-.1.4-.2l.6-.3c.9-.3 1.9-.5 2.8-.5h.8l-.1-.5c-.1-.5-.2-1-.2-1.4v-.4l-.1-.1-.1-.1-.1-.1c-.2-.1-.4-.2-.7-.3-.2-.1-.3-.2-.5-.3l-.1-.1c-.4-.2-.8-.4-1.3-.6-1.2-.3-2.3-.7-3.2-1-1-.4-2-.9-3.1-1.5-.3-.2-.5-.3-.8-.5-.2-.1-.4-.3-.6-.4-.2-.1-.4-.3-.6-.4l-.1-.1c-.1-.1-.3-.3-.5-.4l-.5-.3v.6c0 .2-.1.4-.3.5-.1.1-.3.2-.5.2h-.3c-.1 0-.2 0-.3-.1h-.2l-.5-.1.3.8zm-9.3 1.9c.1 0 .3.1.3.2.5.6.9 1.3 1.1 2.1.1.4.2.9.2 1.3v.3l.1 1.1.8-1c0-.1.1-.1.1-.1l.1-.1v-.2V327.3c0-.4-.1-.7-.1-1.1 0-.4-.1-.7-.4-1.2-.3-.4-.6-.7-.9-1-.3-.3-.6-.5-1.1-.7-.4-.1-.9-.1-1.3-.2h-.5c-.5 0-.9.1-1.4.1-.4.1-.8.1-1.2.1h-.1c-.4 0-.9 0-1.3-.1-.2 0-.3 0-.5-.1l-.6-.1.1.6V323.9c.1.3.1.5.2.8l.1.3H24.1c.6 0 1.3.1 1.8.2.7.2 1.3.4 1.8.7.4.2.8.4 1.1.7l1.2.9-.6-1.4c-.2-.4-.4-.8-.7-1.1-.1-.1-.1-.2-.1-.2 0-.1.1-.2.2-.3.3.1.3.1.4.1zm5.2 4.3c.5 0 1 0 1.4.1.6.1 1.2.2 1.8.4h.2l.5.1v-.5-.5c0-.3-.1-.7-.3-1-.3-.5-.8-1.1-1.3-1.5l-.2-.2-.2.1c-1.2.5-2.3 1.3-3.1 2.1l-.2.2-.7.8 1-.1h1.1zm21.5-10.8c-.2.4-.3.8-.5 1.2-.2.5-.5 1.1-.7 1.6v.1c-.2.5-.4 1-.7 1.4l-.1.1v.1c0 .5-.1.9-.1 1.5v.2c-.1.5-.1 1-.1 1.5V328.7l.7-.7.4-.4c.8-.7 1.7-1.1 2.6-1.4.5-.2 1-.4 1.4-.6l.1-.1c.3-.1.6-.3.8-.4.2-.1.4-.2.7-.3.9-.4 1.7-1 2.4-1.9.3-.3.5-.6.7-.9.1-.1.2-.3.3-.4l.3-.3c.2-.3.5-.6.7-1 0-.1.1-.1.1-.1l.1-.1v-.3c0-.4.1-.7.1-1.1v-1l-.7.7-.2.2c-.2.1-.3.2-.6.3-.1 0-.3-.1-.3-.2-.1-.2-.1-.5.1-.8l.1-.2v-.1-.2l.2-1.5-.9 1.2c-.2.3-.4.5-.7.5H62c-.2 0-.3-.1-.3-.2l-.3-.7-.4.6-.6.9c-.5.7-1.4 1.3-2.2 1.3-.2 0-.4-.1-.6-.2-.2-.1-.7-.4-.5-1.3l-.8-.2-.4.3zm7.9 4.5c-.2.3-.4.6-.7.8-.8.9-1.5 1.5-2.4 1.9-.3.1-.6.3-.9.4l-.6.3c-.1.1-.3.1-.4.2-.4.2-.7.3-1 .5-.2.1-.4.1-.5.2l-.9.3c-.4.2-.7.4-1 .6l.4.7c.2-.1.5-.1.7-.2h.1c.3-.1.7-.1 1.1-.1.5 0 1 .1 1.5.1.6.1 1.1.1 1.7.1.4 0 .7 0 1-.1.7-.1 1.6-.3 2.3-.8.2-.2.4-.3.6-.6l.4-.5-.7-.2c-.1 0-.2-.1-.3-.3-.1-.3.1-.7.3-1.1.3-.5.5-1.1.6-1.6 0-.1.1-.2.1-.3l.1-.5h-.5-.1c-.1 0-.2-.1-.2-.1l-.3-.3-.4.6zm-29.7 2.5h-.7c-.1.1-.2.1-.4.2-.1 0-.1 0-.2.1l-.3.1v1.1l.1.8.6-.5c.4-.4.9-.7 1.4-1l1-.6-1.2-.1c0-.1-.1-.1-.3-.1zm10.2-2.6c.9.5 1.9 1 2.9 1.4.5.2 1 .4 1.6.6.4.1.8.2 1.1.3.1 0 .3.1.4.1.3.1.5.1.7.3.1.1.2.1.3.2.1.1.3.2.4.2.1.1.3.1.4.2l.5.3v-.6c0-.4.1-.9.1-1.3v-.3c0-.3.1-.6.1-.9v-.1l-.1-.1v-.1c-.1-.1 0-.3.1-.4l.1-.1v-.1c0-.5 0-.9-.1-1.4-.1-.8-.3-1.7-.6-2.7l-.1-.2-.4-.1c-.5-.2-1-.3-1.4-.3-.8-.1-1.5-.2-2.3-.2h-.7c-.5 0-1.1 0-1.6-.1-.5 0-1.1 0-1.6-.1-.6 0-1.1-.1-1.6-.3-.1 0-.3-.1-.5-.2l-1.3-.5.8 1.1c.4.5.8 1 1.5 1.2.5.1.9.2 1.4.2h.7c.6.1 1.1.4 1.7 1 .3.3.7.8.6 1.3-.1.6-.6.9-1 1h-.7-.7-.1c-.2 0-.5 0-.7-.1l.1.8zm10.6-13.7h.1c.1 0 .2.1.2.2v.3c0 .1-.1.2-.1.4v.1c0 .2-.1.4-.1.6v.1c-.1.3-.2.7-.3 1-.2.5-.5.9-.8 1.4-.1.2-.3.4-.4.7 0 .1-.1.1-.2.1l-.4.1V315.7c0 .4.1.8 0 1.2v.3l.2.1c.1.1.2.1.2.2.1.1.2.2.2.3 0 .1 0 .2-.1.3l-.2.2.1.2c.1.4.2.8.3 1.1l.3 1.2.5-1.2c0-.1.1-.2.1-.3l.1-.2c.5-1 .9-2.1 1.3-3.2.2-.7.4-1.2.5-1.7 0-.2.1-.4.1-.6.1-.4.1-.7.2-1.1v-.1c.1-.6.3-1.2.3-1.8v-.3-.6-.4-.2-.1l.2-.8-.7.2h-.1c-.1 0-.2-.1-.3-.2-.2-.3-.4-.7-.6-1-.1-.2-.2-.4-.4-.7-.1-.1-.1-.2-.2-.3l-.2-.3-.3.2s-.1 0-.1.1h-.1l-.1.1-.1.1c-.1.1-.2.1-.3.1-.1 0-.2-.1-.3-.1-.1-.1-.1-.4 0-.5l.1-.1v-.3l-.1-.2c-.1-.1-.1-.1-.1-.2l-.2-.2c-.2-.2-.4-.5-.7-.6-.3-.1-.6-.2-.8-.4l-.9-.4.4.9c.1.3.2.5.3.8 0 .1.1.3.1.4.3.9.6 1.9.8 2.8.1.5.2.9.3 1.4.1.5.2.9.3 1.4 0 .2.1.3.1.5l.2 1 .6-.9c.2-.3.4-.6.5-1 .1-.3.2-.7.3-1 0-.1.1-.3.1-.4 0-.2.1-.4.2-.6-.3.1-.1 0 0 0zm2.8 2.6c0 .3-.1.5-.2.8-.1.4-.2.9-.3 1.3-.1.6-.2 1.2-.4 1.7-.1.5-.3 1-.5 1.6l.7.3c.1-.2.2-.3.3-.5.1-.2.3-.3.4-.5.3-.3.6-.6.8-1 .4-.7.6-1.3.9-2 .3-.7.4-1.4.5-2l.1-1.2-.8.8c-.2.2-.3.3-.5.3h-.1c-.1 0-.1 0-.2-.1l-.1-.1h-.1-.1l-.5-.1.1.7zm-17 1.3c.1.2.1.4.2.5.1.3.3.6.5.8.1.1.1.2.2.3.1.2.2.5.2.7v.3l.3.1c.3.1.7.3 1.1.4.6.1 1.1.2 1.7.2h1.3c.6 0 1.3 0 1.9.1.3 0 .7 0 1 .1h.5c.5 0 1 .1 1.5.2.1 0 .2 0 .3.1l.7.2-.3-.7c-.4-1-.8-2-1.3-2.9l-.1-.1-.1-.1c-.1 0-.2-.1-.2-.1l-.1-.1h-.1c-.2-.1-.5-.2-.7-.4-.3-.2-.6-.4-1-.5-.6-.3-1.3-.5-2.3-.6-.4-.1-.8-.1-1.1-.2-.4-.1-.8-.1-1.3-.2h-.2c-.3-.1-.6-.1-.9-.2-.1 0-.1 0-.2-.1l-.6-.2.1.6c0 .1 0 .2.1.2.1.3.1.6 0 .8-.1.1-.2.3-.3.3h-.2l-.8-.2.2.7zm2-8.3c1 .5 2.1 1.2 3.1 2.1 2.3 1.9 4.2 4.2 5.6 6.9l.7-.2c0-.2 0-.5-.1-.8 0-.4-.1-.7-.2-1 0-.1 0-.2-.1-.3-.1-.2-.1-.5-.1-.7 0-.2-.1-.4-.1-.7-.1-.3-.1-.5-.2-.8 0-.2-.1-.3-.1-.5-.2-.9-.5-1.8-.8-2.6 0-.1-.1-.2-.1-.3-.1-.3-.2-.6-.4-.9-.1-.1-.2-.3-.3-.4-.2-.3-.3-.5-.4-.8l-.1-.2-.2-.1c-.6-.3-1.3-.5-2-.7-.1 0-.2-.1-.3-.1l-.7-.2.1.7c0 .2.1.4.1.6 0 .3.1.6.1.9 0 .1 0 .1-.1.2s-.2.2-.3.2h-.1c-.4 0-.8-.2-1.3-.4-.2-.1-.5-.2-.7-.3-.3-.1-.7-.2-1.1-.2l.1.6zm-.1 5.5c.2 0 .4.1.6.1l1.5.3c.4.1.7.1 1.1.2.9.2 1.7.4 2.4.6l1.3.5-.8-1.1c-1.1-1.4-2.4-2.7-3.7-3.7-1.1-.9-2.1-1.5-3.1-1.9l-1.8-.6-1.2-.3.7.9.1.1c.2.2 0 .5-.1.6l-.3.2.2.3c.2.2.3.4.5.6.4.5.7 1.1 1 1.7.2.3.3.7.4 1l.1.3h.3c.2 0 .4.1.6.1l.2.1z"/>
</svg>
