<?xml version="1.0" encoding="utf-8"?>
<!-- Generator: Adobe Illustrator 19.2.1, SVG Export Plug-In . SVG Version: 6.00 Build 0)  -->
<!DOCTYPE svg PUBLIC "-//W3C//DTD SVG 1.1//EN" "http://www.w3.org/Graphics/SVG/1.1/DTD/svg11.dtd">
<svg version="1.1" id="Layer_1" xmlns="http://www.w3.org/2000/svg" xmlns:xlink="http://www.w3.org/1999/xlink" x="0px" y="0px"
	 width="48px" height="48px" viewBox="0 0 48 48" enable-background="new 0 0 48 48" xml:space="preserve">
<path d="M1,24c0,0.552,0.447,1,1,1h40.586L30.293,37.293c-0.391,0.391-0.391,1.023,0,1.414C30.488,38.902,30.744,39,31,39
	s0.512-0.098,0.707-0.293l13.999-13.999c0.093-0.092,0.166-0.203,0.217-0.326c0.101-0.244,0.101-0.52,0-0.764
	c-0.051-0.123-0.124-0.233-0.217-0.326L31.707,9.293c-0.391-0.391-1.023-0.391-1.414,0s-0.391,1.023,0,1.414L42.586,23H2
	C1.447,23,1,23.448,1,24z"/>
</svg>
