<svg xmlns="http://www.w3.org/2000/svg" xmlns:xlink="http://www.w3.org/1999/xlink" viewBox="0 0 64 64" version="1.1">
<g id="surface1">
<path style=" " d="M 29 4 C 28.746094 4 28.488281 4.097656 28.292969 4.292969 L 1.292969 31.292969 C 0.902344 31.683594 0.902344 32.316406 1.292969 32.707031 L 28.292969 59.707031 C 28.488281 59.902344 28.742188 60 29 60 C 29.257813 60 29.511719 59.902344 29.707031 59.707031 L 33.707031 55.707031 C 34.097656 55.316406 34.097656 54.683594 33.707031 54.292969 L 15.414063 36 L 61 36 C 61.550781 36 62 35.550781 62 35 L 62 29 C 62 28.449219 61.550781 28 61 28 L 15.414063 28 L 33.707031 9.707031 C 34.097656 9.316406 34.097656 8.683594 33.707031 8.292969 L 29.707031 4.292969 C 29.511719 4.097656 29.253906 4 29 4 Z M 29 6.414063 L 31.585938 9 L 12.292969 28.292969 C 12.007813 28.578125 11.921875 29.007813 12.078125 29.382813 C 12.230469 29.753906 12.597656 30 13 30 L 60 30 L 60 34 L 13 34 C 12.597656 34 12.230469 34.246094 12.078125 34.617188 C 11.921875 34.992188 12.007813 35.421875 12.292969 35.707031 L 31.585938 55 L 29 57.585938 L 3.414063 32 Z M 24 38 C 23.449219 38 23 38.449219 23 39 L 23 41 C 23 41.550781 23.449219 42 24 42 C 24.550781 42 25 41.550781 25 41 L 25 39 C 25 38.449219 24.550781 38 24 38 Z M 29 38 C 28.449219 38 28 38.449219 28 39 L 28 41 C 28 41.550781 28.449219 42 29 42 C 29.550781 42 30 41.550781 30 41 L 30 39 C 30 38.449219 29.550781 38 29 38 Z M 34 38 C 33.449219 38 33 38.449219 33 39 L 33 41 C 33 41.550781 33.449219 42 34 42 C 34.550781 42 35 41.550781 35 41 L 35 39 C 35 38.449219 34.550781 38 34 38 Z M 39 38 C 38.449219 38 38 38.449219 38 39 L 38 41 C 38 41.550781 38.449219 42 39 42 C 39.550781 42 40 41.550781 40 41 L 40 39 C 40 38.449219 39.550781 38 39 38 Z M 44 38 C 43.449219 38 43 38.449219 43 39 L 43 41 C 43 41.550781 43.449219 42 44 42 C 44.550781 42 45 41.550781 45 41 L 45 39 C 45 38.449219 44.550781 38 44 38 Z M 49 38 C 48.449219 38 48 38.449219 48 39 L 48 41 C 48 41.550781 48.449219 42 49 42 C 49.550781 42 50 41.550781 50 41 L 50 39 C 50 38.449219 49.550781 38 49 38 Z M 54 38 C 53.449219 38 53 38.449219 53 39 L 53 41 C 53 41.550781 53.449219 42 54 42 C 54.550781 42 55 41.550781 55 41 L 55 39 C 55 38.449219 54.550781 38 54 38 Z M 59 38 C 58.449219 38 58 38.449219 58 39 L 58 41 C 58 41.550781 58.449219 42 59 42 C 59.550781 42 60 41.550781 60 41 L 60 39 C 60 38.449219 59.550781 38 59 38 Z "></path>
</g>
</svg>
