<?xml version="1.0" encoding="utf-8"?>
<!-- Generator: Adobe Illustrator 19.2.1, SVG Export Plug-In . SVG Version: 6.00 Build 0)  -->
<!DOCTYPE svg PUBLIC "-//W3C//DTD SVG 1.1//EN" "http://www.w3.org/Graphics/SVG/1.1/DTD/svg11.dtd">
<svg version="1.1" id="Layer_1" xmlns="http://www.w3.org/2000/svg" xmlns:xlink="http://www.w3.org/1999/xlink" x="0px" y="0px"
	 width="48px" height="48px" viewBox="0 0 48 48" enable-background="new 0 0 48 48" xml:space="preserve">
<path d="M46,23H5.414l12.293-12.293c0.391-0.391,0.391-1.023,0-1.414s-1.023-0.391-1.414,0L2.294,23.292
	c-0.093,0.092-0.166,0.203-0.217,0.326c-0.101,0.244-0.101,0.52,0,0.764c0.051,0.123,0.124,0.233,0.217,0.326l13.999,13.999
	C16.488,38.902,16.744,39,17,39s0.512-0.098,0.707-0.293c0.391-0.391,0.391-1.023,0-1.414L5.414,25H46c0.553,0,1-0.448,1-1
	S46.553,23,46,23z"/>
</svg>
