<?xml version="1.0" encoding="utf-8"?>
<!-- Generator: Adobe Illustrator 19.2.1, SVG Export Plug-In . SVG Version: 6.00 Build 0)  -->
<!DOCTYPE svg PUBLIC "-//W3C//DTD SVG 1.1//EN" "http://www.w3.org/Graphics/SVG/1.1/DTD/svg11.dtd">
<svg version="1.1" id="Layer_1" xmlns="http://www.w3.org/2000/svg" xmlns:xlink="http://www.w3.org/1999/xlink" x="0px" y="0px"
	 width="48px" height="48px" viewBox="0 0 48 48" enable-background="new 0 0 48 48" xml:space="preserve">
<path d="M24,47c0.552,0,1-0.448,1-1V5.414l12.293,12.293C37.488,17.902,37.744,18,38,18s0.512-0.098,0.707-0.293
	c0.391-0.391,0.391-1.023,0-1.414l-14-14c-0.092-0.092-0.203-0.165-0.325-0.216c-0.245-0.101-0.52-0.101-0.764,0
	c-0.122,0.051-0.233,0.124-0.325,0.216l-14,14c-0.391,0.391-0.391,1.023,0,1.414s1.023,0.391,1.414,0L23,5.414V46
	C23,46.552,23.448,47,24,47z"/>
</svg>
