<?xml version="1.0" encoding="utf-8"?>
<!-- Generator: Adobe Illustrator 19.2.1, SVG Export Plug-In . SVG Version: 6.00 Build 0)  -->
<!DOCTYPE svg PUBLIC "-//W3C//DTD SVG 1.1//EN" "http://www.w3.org/Graphics/SVG/1.1/DTD/svg11.dtd">
<svg version="1.1" id="Layer_1" xmlns="http://www.w3.org/2000/svg" xmlns:xlink="http://www.w3.org/1999/xlink" x="0px" y="0px"
	 width="48px" height="48px" viewBox="0 0 48 48" enable-background="new 0 0 48 48" xml:space="preserve">
<path d="M24,1c-0.553,0-1,0.448-1,1v28.586l-9.293-9.293c-0.391-0.391-1.023-0.391-1.414,0s-0.391,1.023,0,1.414l10.999,10.999
	c0.092,0.093,0.203,0.166,0.326,0.217C23.74,33.973,23.87,34,24,34s0.26-0.027,0.382-0.077c0.123-0.051,0.233-0.124,0.326-0.217
	l10.999-10.999c0.391-0.391,0.391-1.023,0-1.414s-1.023-0.391-1.414,0L25,30.586V2C25,1.448,24.553,1,24,1z"/>
<path d="M46,35c-0.553,0-1,0.448-1,1v9H3v-9c0-0.552-0.447-1-1-1s-1,0.448-1,1v10c0,0.552,0.447,1,1,1h44c0.553,0,1-0.448,1-1V36
	C47,35.448,46.553,35,46,35z"/>
</svg>
