<?xml version="1.0" encoding="utf-8"?>
<!-- Generator: Adobe Illustrator 19.1.0, SVG Export Plug-In . SVG Version: 6.00 Build 0)  -->
<!DOCTYPE svg PUBLIC "-//W3C//DTD SVG 1.1//EN" "http://www.w3.org/Graphics/SVG/1.1/DTD/svg11.dtd">
<svg version="1.1" id="Layer_1" xmlns="http://www.w3.org/2000/svg" xmlns:xlink="http://www.w3.org/1999/xlink" x="0px" y="0px"
	 width="48px" height="48px" viewBox="0 0 48 48" enable-background="new 0 0 48 48" xml:space="preserve">
<path d="M42,23h-7v-1.6c1.1-1,1.8-2.3,2-3.8c0.2-1.7-0.4-3.4-1.5-4.6c-0.9-1-2.2-1.7-3.6-1.9C30.9,5.3,26,1,20,1S9.1,5.3,8.2,11.1
	c-1.4,0.2-2.7,0.9-3.6,1.9c-1.1,1.3-1.7,2.9-1.5,4.6c0.1,1.5,0.9,2.8,2,3.8V43c0,2.2,1.8,4,4,4h22c2.2,0,4-1.8,4-4v-6h3
	c2.8,0,5-2.2,5-5v-8C43,23.4,42.6,23,42,23z M6,14.3C6.8,13.5,7.8,13,9,13c0,0,0.1,0,0.1,0c0.5,0,0.9-0.4,1-0.9
	C10.5,6.9,14.8,3,20,3s9.5,3.9,10,9.1c0,0.5,0.5,0.9,1,0.9c0,0,0.1,0,0.1,0c1.1,0,2.2,0.5,2.9,1.3c0.8,0.8,1.1,1.9,1,3.1
	c-0.2,2-2.1,3.6-4.3,3.6H18c-0.6,0-1,0.4-1,1v9c0,1.1-0.9,2-2,2s-2-0.9-2-2v-9c0-0.6-0.4-1-1-1H9.3c-2.2,0-4.1-1.6-4.3-3.6
	C4.9,16.3,5.3,15.2,6,14.3z M33,43c0,1.1-0.9,2-2,2H9c-1.1,0-2-0.9-2-2V22.6C7.7,22.9,8.5,23,9.3,23H11v8c0,2.2,1.8,4,4,4s4-1.8,4-4
	v-8h11.7c0.8,0,1.6-0.1,2.3-0.4V43z M41,32c0,1.7-1.3,3-3,3h-3V25h6V32z"/>
<path d="M15,38c-0.6,0-1,0.4-1,1v2c0,0.6,0.4,1,1,1s1-0.4,1-1v-2C16,38.4,15.6,38,15,38z"/>
<path d="M25,27c-0.6,0-1,0.4-1,1v13c0,0.6,0.4,1,1,1s1-0.4,1-1V28C26,27.4,25.6,27,25,27z"/>
</svg>
