<?xml version="1.0" encoding="utf-8"?>
<!-- Generator: Adobe Illustrator 19.1.0, SVG Export Plug-In . SVG Version: 6.00 Build 0)  -->
<!DOCTYPE svg PUBLIC "-//W3C//DTD SVG 1.1//EN" "http://www.w3.org/Graphics/SVG/1.1/DTD/svg11.dtd">
<svg version="1.1" id="Layer_1" xmlns="http://www.w3.org/2000/svg" xmlns:xlink="http://www.w3.org/1999/xlink" x="0px" y="0px"
	 width="48px" height="48px" viewBox="0 0 48 48" enable-background="new 0 0 48 48" xml:space="preserve">
<path d="M34.7,7.6C33.6,3.7,30,1,26,1c-3.9,0-7.3,2.5-8.5,6.2C16.3,6.9,15.1,7,14,7.3c-2.9,0.9-5,3.8-5,7.1V18v4c0,0.7,0,1.3,0.1,2
	c0,0,0,0,0,0c0,0,0,0,0,0.1c0.3,3.5,1.1,6.9,1.9,10.2c1,4,2,7.8,2,11.7c0,0.6,0.4,1,1,1h20c0.6,0,1-0.4,1-1c0-3.9,1-7.9,2-11.8
	c0.8-3.3,1.7-6.8,1.9-10.2c0,0,0,0,0,0c0,0,0,0,0,0c0-0.7,0.1-1.3,0.1-2v-4v-4C39,11.1,37.3,8.6,34.7,7.6z M37,22c0,0.3,0,0.7,0,1
	h-6v-4h6V22z M11,14.4c0-2.4,1.5-4.5,3.6-5.2c1.1-0.3,2.1-0.3,3.2,0.1c0.3,0.1,0.6,0.1,0.8-0.1c0.3-0.1,0.4-0.4,0.5-0.7
	C19.8,5.4,22.7,3,26,3c3.3,0,6.1,2.3,6.8,5.5c0.1,0.3,0.3,0.6,0.7,0.7C35.6,9.9,37,11.8,37,14v3h-7c-0.6,0-1,0.4-1,1v9
	c0,1.1-0.9,2-2,2s-2-0.9-2-2v-9c0-0.6-0.4-1-1-1H11V14.4z M11,22v-3h12v4H11C11,22.7,11,22.3,11,22z M33,45H15
	c-0.1-3.8-1.1-7.5-2-11.2c-0.7-2.9-1.5-5.9-1.8-8.8H23v2c0,2.2,1.8,4,4,4s4-1.8,4-4v-2h5.8c-0.3,2.9-1.1,5.9-1.8,8.8
	C34.1,37.4,33.2,41.2,33,45z"/>
</svg>
