<?xml version="1.0" encoding="utf-8"?>
<!-- Generator: Adobe Illustrator 19.1.0, SVG Export Plug-In . SVG Version: 6.00 Build 0)  -->
<!DOCTYPE svg PUBLIC "-//W3C//DTD SVG 1.1//EN" "http://www.w3.org/Graphics/SVG/1.1/DTD/svg11.dtd">
<svg version="1.1" id="Layer_1" xmlns="http://www.w3.org/2000/svg" xmlns:xlink="http://www.w3.org/1999/xlink" x="0px" y="0px"
	 width="48px" height="48px" viewBox="0 0 48 48" enable-background="new 0 0 48 48" xml:space="preserve">
<path d="M29,2c0-0.6-0.4-1-1-1h-8c-0.6,0-1,0.4-1,1v13.1c-4.5,0.5-8,4.3-8,8.9v22c0,0.6,0.4,1,1,1h24c0.6,0,1-0.4,1-1V24
	c0-4.6-3.5-8.4-8-8.9V2z M27,3v4h-6V3H27z M35,35H13v-6h22V35z M13,45v-8h22v8H13z M35,24v3H13v-3c0-3.9,3.1-7,7-7c0.6,0,1-0.4,1-1
	V9h6v7c0,0.6,0.4,1,1,1C31.9,17,35,20.1,35,24z"/>
</svg>
