<svg xmlns="http://www.w3.org/2000/svg" xmlns:xlink="http://www.w3.org/1999/xlink" viewBox="0 0 50 50" version="1.1">
<g id="surface1">
<path style=" " d="M 12 0 C 8.90625 0 6.644531 0.398438 5.09375 1.75 C 3.542969 3.101563 3 5.230469 3 8 L 3 12 L 2 12 C 0.90625 12 0 12.90625 0 14 L 0 22 C 0 23.09375 0.90625 24 2 24 L 3 24 L 3 41 C 3 42.222656 3.382813 43.25 4 44.03125 L 4 47 C 4 48.644531 5.355469 50 7 50 L 11 50 C 12.644531 50 14 48.644531 14 47 L 14 46 L 36 46 L 36 47 C 36 48.644531 37.355469 50 39 50 L 43 50 C 44.644531 50 46 48.644531 46 47 L 46 44.03125 C 46.617188 43.25 47 42.222656 47 41 L 47 24 L 48 24 C 49.09375 24 50 23.09375 50 22 L 50 14 C 50 12.90625 49.09375 12 48 12 L 47 12 L 47 9 C 47 6.355469 46.789063 4.191406 45.71875 2.53125 C 44.648438 0.871094 42.6875 0 40 0 Z M 12 2 L 40 2 C 42.3125 2 43.351563 2.542969 44.03125 3.59375 C 44.710938 4.644531 45 6.484375 45 9 L 45 41 C 45 42.386719 44.601563 42.933594 43.78125 43.375 C 42.960938 43.816406 41.585938 44 40 44 L 10 44 C 8.414063 44 7.039063 43.816406 6.21875 43.375 C 5.398438 42.933594 5 42.386719 5 41 L 5 8 C 5 5.484375 5.457031 4.109375 6.40625 3.28125 C 7.355469 2.453125 9.09375 2 12 2 Z M 15 3 C 13.90625 3 13 3.90625 13 5 L 13 7 C 13 8.09375 13.90625 9 15 9 L 36 9 C 37.09375 9 38 8.09375 38 7 L 38 5 C 38 3.90625 37.09375 3 36 3 Z M 15 5 L 36 5 L 36 7 L 15 7 Z M 11 10 C 9.832031 10 8.765625 10.296875 8.03125 11.03125 C 7.296875 11.765625 7 12.832031 7 14 L 7 26 C 7 27.167969 7.296875 28.234375 8.03125 28.96875 C 8.765625 29.703125 9.832031 30 11 30 L 39 29.9375 C 39.816406 29.9375 40.695313 29.625 41.5 29 C 42.304688 28.375 43 27.324219 43 26 L 43 14 C 43 12.832031 42.703125 11.765625 41.96875 11.03125 C 41.234375 10.296875 40.167969 10 39 10 Z M 11 12 L 39 12 C 39.832031 12 40.265625 12.203125 40.53125 12.46875 C 40.796875 12.734375 41 13.167969 41 14 L 41 26 C 41 26.675781 40.714844 27.070313 40.28125 27.40625 C 39.847656 27.742188 39.230469 27.9375 39 27.9375 L 11 28 C 10.167969 28 9.734375 27.796875 9.46875 27.53125 C 9.203125 27.265625 9 26.832031 9 26 L 9 14 C 9 13.167969 9.203125 12.734375 9.46875 12.46875 C 9.734375 12.203125 10.167969 12 11 12 Z M 2 14 L 3 14 L 3 22 L 2 22 Z M 47 14 L 48 14 L 48 22 L 47 22 Z M 11.5 33 C 9.027344 33 7 35.027344 7 37.5 C 7 39.972656 9.027344 42 11.5 42 C 13.972656 42 16 39.972656 16 37.5 C 16 35.027344 13.972656 33 11.5 33 Z M 38.5 33 C 36.027344 33 34 35.027344 34 37.5 C 34 39.972656 36.027344 42 38.5 42 C 40.972656 42 43 39.972656 43 37.5 C 43 35.027344 40.972656 33 38.5 33 Z M 11.5 35 C 12.890625 35 14 36.109375 14 37.5 C 14 38.890625 12.890625 40 11.5 40 C 10.109375 40 9 38.890625 9 37.5 C 9 36.109375 10.109375 35 11.5 35 Z M 38.5 35 C 39.890625 35 41 36.109375 41 37.5 C 41 38.890625 39.890625 40 38.5 40 C 37.109375 40 36 38.890625 36 37.5 C 36 36.109375 37.109375 35 38.5 35 Z M 6 45.4375 C 7.199219 45.890625 8.566406 46 10 46 L 12 46 L 12 47 C 12 47.5625 11.5625 48 11 48 L 7 48 C 6.4375 48 6 47.5625 6 47 Z M 44 45.4375 L 44 47 C 44 47.5625 43.5625 48 43 48 L 39 48 C 38.4375 48 38 47.5625 38 47 L 38 46 L 40 46 C 41.433594 46 42.800781 45.890625 44 45.4375 Z "></path>
</g>
</svg>
