<svg xmlns="http://www.w3.org/2000/svg" xmlns:xlink="http://www.w3.org/1999/xlink" viewBox="0 0 64 64" version="1.1">
<g id="surface1">
<path style=" " d="M 49.8125 12.003906 L 5.023438 12.136719 C 3.375 12.140625 2.03125 13.484375 2.03125 15.136719 L 2.03125 17.691406 C 2.015625 17.792969 2 17.894531 2 18 L 2 32 C 2 32.105469 2.015625 32.207031 2.03125 32.308594 L 2.03125 42.175781 C 0.855469 42.582031 0 43.6875 0 45 C 0 46.652344 1.347656 48 3 48 L 8.078125 48 C 8.566406 51.386719 11.480469 54 15 54 C 18.519531 54 21.433594 51.386719 21.921875 48 L 42.078125 48 C 42.566406 51.386719 45.480469 54 49 54 C 52.519531 54 55.433594 51.386719 55.921875 48 L 61 48 C 62.652344 48 64 46.652344 64 45 C 64 43.707031 63.171875 42.613281 62.019531 42.191406 C 62.023438 42.171875 62.03125 42.160156 62.03125 42.140625 L 62.03125 32.171875 C 62.03125 31.328125 61.816406 30.492188 61.40625 29.753906 L 52.449219 13.550781 C 51.917969 12.597656 50.914063 12.003906 49.824219 12.003906 Z M 49.820313 14.003906 L 49.824219 14.003906 C 50.1875 14.003906 50.519531 14.199219 50.699219 14.519531 L 59.65625 30.71875 C 59.875 31.113281 59.984375 31.554688 60.011719 32 L 46 32 L 46 18 L 49.445313 18 C 49.996094 18 50.445313 17.554688 50.445313 17 C 50.445313 16.445313 49.996094 16 49.445313 16 L 46 16 C 44.898438 16 44 16.898438 44 18 L 44 32 C 44 33.101563 44.898438 34 46 34 L 60.03125 34 L 60.03125 42 L 53.890625 42 C 52.625 40.765625 50.902344 40 49 40 C 47.097656 40 45.375 40.765625 44.109375 42 L 42 42 L 42 18 C 42 16.898438 41.101563 16 40 16 L 32 16 C 30.898438 16 30 16.898438 30 18 L 30 42 L 19.890625 42 C 18.625 40.765625 16.902344 40 15 40 C 13.097656 40 11.375 40.765625 10.109375 42 L 4.03125 42 L 4.03125 34 L 12 34 C 13.101563 34 14 33.101563 14 32 L 14 18 C 14 16.898438 13.101563 16 12 16 L 4.03125 16 L 4.03125 15.136719 C 4.03125 14.585938 4.476563 14.136719 5.027344 14.136719 Z M 18 16 C 16.898438 16 16 16.898438 16 18 L 16 32 C 16 33.101563 16.898438 34 18 34 L 26 34 C 27.101563 34 28 33.101563 28 32 L 28 18 C 28 16.898438 27.101563 16 26 16 Z M 4.03125 18 L 12 18 L 12 32 L 4.03125 32 Z M 18 18 L 26 18 L 26 32 L 18 32 Z M 32 18 L 40 18 L 40 42 L 32 42 Z M 35 19 C 34.449219 19 34 19.445313 34 20 C 34 20.554688 34.449219 21 35 21 L 37 21 C 37.550781 21 38 20.554688 38 20 C 38 19.445313 37.550781 19 37 19 Z M 35 24 C 34.449219 24 34 24.445313 34 25 C 34 25.554688 34.449219 26 35 26 L 37 26 C 37.550781 26 38 25.554688 38 25 C 38 24.445313 37.550781 24 37 24 Z M 35 29 C 34.449219 29 34 29.445313 34 30 C 34 30.554688 34.449219 31 35 31 L 37 31 C 37.550781 31 38 30.554688 38 30 C 38 29.445313 37.550781 29 37 29 Z M 35 34 C 34.449219 34 34 34.445313 34 35 C 34 35.554688 34.449219 36 35 36 L 37 36 C 37.550781 36 38 35.554688 38 35 C 38 34.445313 37.550781 34 37 34 Z M 7 36 C 6.449219 36 6 36.445313 6 37 C 6 37.554688 6.449219 38 7 38 L 27 38 C 27.550781 38 28 37.554688 28 37 C 28 36.445313 27.550781 36 27 36 Z M 55 36 C 54.449219 36 54 36.445313 54 37 C 54 37.554688 54.449219 38 55 38 L 57 38 C 57.550781 38 58 37.554688 58 37 C 58 36.445313 57.550781 36 57 36 Z M 35 39 C 34.449219 39 34 39.445313 34 40 C 34 40.554688 34.449219 41 35 41 L 37 41 C 37.550781 41 38 40.554688 38 40 C 38 39.445313 37.550781 39 37 39 Z M 15 42 C 17.757813 42 20 44.242188 20 47 C 20 49.757813 17.757813 52 15 52 C 12.242188 52 10 49.757813 10 47 C 10 44.242188 12.242188 42 15 42 Z M 49 42 C 51.757813 42 54 44.242188 54 47 C 54 49.757813 51.757813 52 49 52 C 46.242188 52 44 49.757813 44 47 C 44 44.242188 46.242188 42 49 42 Z M 3 44 L 8.6875 44 C 8.386719 44.621094 8.183594 45.292969 8.078125 46 L 3 46 C 2.449219 46 2 45.550781 2 45 C 2 44.449219 2.449219 44 3 44 Z M 21.3125 44 L 42.6875 44 C 42.386719 44.621094 42.183594 45.292969 42.078125 46 L 21.921875 46 C 21.816406 45.292969 21.613281 44.621094 21.3125 44 Z M 55.3125 44 L 61 44 C 61.550781 44 62 44.449219 62 45 C 62 45.550781 61.550781 46 61 46 L 55.921875 46 C 55.816406 45.292969 55.613281 44.621094 55.3125 44 Z M 15 45 C 13.894531 45 13 45.894531 13 47 C 13 48.105469 13.894531 49 15 49 C 16.105469 49 17 48.105469 17 47 C 17 45.894531 16.105469 45 15 45 Z M 49 45 C 47.894531 45 47 45.894531 47 47 C 47 48.105469 47.894531 49 49 49 C 50.105469 49 51 48.105469 51 47 C 51 45.894531 50.105469 45 49 45 Z "></path>
</g>
</svg>
