<svg xmlns="http://www.w3.org/2000/svg" xmlns:xlink="http://www.w3.org/1999/xlink" viewBox="0 0 50 50" version="1.1">
<g id="surface1">
<path style=" " d="M 25 8 C 21.453125 8 19.128906 8.238281 17.65625 8.5 C 16.269531 8.746094 15.667969 9.03125 15.59375 9.0625 C 15.589844 9.066406 15.46875 9.09375 15.46875 9.09375 C 13.988281 9.59375 11.734375 10.28125 10.6875 12.3125 C 10.433594 12.804688 10.054688 13.804688 9.5 15.21875 C 9.074219 16.304688 8.574219 17.675781 8.0625 19 L 5.09375 19 C 3.609375 19 2.507813 19.496094 1.84375 20.25 C 1.179688 21.003906 1 21.898438 1 22.59375 C 1 23.371094 1.40625 24.148438 2.03125 24.53125 C 2.65625 24.914063 3.355469 25 4.09375 25 L 5.75 25 C 5.59375 25.417969 5.0625 26.8125 5.0625 26.8125 L 5 27 L 5 39 C 5 40.644531 6.355469 42 8 42 L 12 42 C 13.644531 42 15 40.644531 15 39 L 15 38 L 35 38 L 35 39 C 35 40.644531 36.355469 42 38 42 L 42 42 C 43.644531 42 45 40.644531 45 39 L 45 27 L 44.9375 26.8125 C 44.9375 26.8125 44.414063 25.421875 44.25 25 L 45.90625 25 C 46.644531 25 47.34375 24.914063 47.96875 24.53125 C 48.59375 24.148438 49 23.371094 49 22.59375 C 49 21.898438 48.820313 21.003906 48.15625 20.25 C 47.492188 19.496094 46.390625 19 44.90625 19 L 41.9375 19 C 41.875 18.851563 41.8125 18.707031 41.78125 18.625 C 40.699219 15.828125 39.65625 13.164063 39.28125 12.3125 C 38.324219 10.136719 35.863281 9.46875 34.53125 9.09375 C 34.488281 9.082031 34.414063 9.042969 34.375 9.03125 L 34.375 9.0625 C 34.28125 9.023438 33.710938 8.746094 32.34375 8.5 C 30.871094 8.238281 28.546875 8 25 8 Z M 25 10 C 28.453125 10 30.671875 10.261719 32 10.5 C 33.328125 10.738281 33.65625 10.90625 33.65625 10.90625 L 33.75 10.9375 L 33.8125 10.96875 C 35.03125 11.316406 36.996094 12.117188 37.4375 13.125 C 37.726563 13.78125 38.863281 16.707031 39.90625 19.375 C 40.15625 20.011719 40.574219 21.050781 40.4375 21.6875 C 40.367188 22.007813 40.246094 22.238281 39.78125 22.5 C 39.316406 22.761719 38.441406 23 37 23 L 13 23 C 11.558594 23 10.683594 22.761719 10.21875 22.5 C 9.753906 22.238281 9.632813 22.007813 9.5625 21.6875 C 9.425781 21.050781 9.84375 20.011719 10.09375 19.375 L 10.03125 19.34375 C 10.488281 18.152344 10.957031 16.917969 11.34375 15.9375 C 11.894531 14.535156 12.386719 13.410156 12.46875 13.25 C 13.023438 12.171875 14.753906 11.4375 16.21875 10.9375 L 16.28125 10.9375 L 16.34375 10.90625 C 16.34375 10.90625 16.671875 10.738281 18 10.5 C 19.328125 10.261719 21.546875 10 25 10 Z M 5.09375 21 L 7.25 21 C 6.871094 21.996094 6.804688 22.191406 6.5 23 L 4.09375 23 C 3.535156 23 3.1875 22.902344 3.09375 22.84375 C 3 22.785156 3 22.875 3 22.59375 C 3 22.230469 3.101563 21.835938 3.34375 21.5625 C 3.585938 21.289063 4.007813 21 5.09375 21 Z M 42.6875 21 L 44.90625 21 C 45.992188 21 46.414063 21.289063 46.65625 21.5625 C 46.898438 21.835938 47 22.230469 47 22.59375 C 47 22.875 47 22.785156 46.90625 22.84375 C 46.8125 22.902344 46.464844 23 45.90625 23 L 43.46875 23 C 43.148438 22.179688 43.078125 22.011719 42.6875 21 Z M 8.4375 23.59375 C 8.667969 23.835938 8.933594 24.070313 9.25 24.25 C 10.152344 24.757813 11.347656 25 13 25 L 37 25 C 38.652344 25 39.847656 24.757813 40.75 24.25 C 41.066406 24.070313 41.332031 23.835938 41.5625 23.59375 C 42.148438 25.132813 42.964844 27.289063 43 27.375 L 43 35.15625 C 43 35.625 42.609375 36 42.09375 36 L 7.90625 36 C 7.390625 36 7 35.625 7 35.15625 L 7 27.375 C 7.03125 27.289063 7.867188 25.117188 8.4375 23.59375 Z M 11 26 C 9.355469 26 8 27.355469 8 29 C 8 29.886719 8.367188 30.675781 8.875 31.21875 C 9.382813 31.761719 9.996094 32.128906 10.59375 32.46875 C 11.441406 32.949219 12.019531 33.316406 12.6875 33.59375 C 13.355469 33.871094 14.074219 34 15 34 C 17.195313 34 19 32.199219 19 30 C 19 27.800781 17.195313 26 15 26 Z M 35 26 C 32.804688 26 31 27.800781 31 30 C 31 32.199219 32.804688 34 35 34 C 35.925781 34 36.644531 33.871094 37.3125 33.59375 C 37.980469 33.316406 38.558594 32.949219 39.40625 32.46875 C 40.003906 32.128906 40.617188 31.761719 41.125 31.21875 C 41.632813 30.675781 42 29.886719 42 29 C 42 27.355469 40.644531 26 39 26 Z M 11 28 L 15 28 C 16.117188 28 17 28.882813 17 30 C 17 31.117188 16.117188 32 15 32 C 14.25 32 13.878906 31.933594 13.4375 31.75 C 12.996094 31.566406 12.445313 31.21875 11.5625 30.71875 C 11 30.402344 10.585938 30.101563 10.34375 29.84375 C 10.101563 29.585938 10 29.417969 10 29 C 10 28.4375 10.4375 28 11 28 Z M 35 28 L 39 28 C 39.5625 28 40 28.4375 40 29 C 40 29.417969 39.898438 29.585938 39.65625 29.84375 C 39.414063 30.101563 39 30.402344 38.4375 30.71875 C 37.554688 31.21875 37.003906 31.566406 36.5625 31.75 C 36.121094 31.933594 35.75 32 35 32 C 33.882813 32 33 31.117188 33 30 C 33 28.882813 33.882813 28 35 28 Z M 7 37.84375 C 7.289063 37.9375 7.589844 38 7.90625 38 L 13 38 L 13 39 C 13 39.5625 12.5625 40 12 40 L 8 40 C 7.4375 40 7 39.5625 7 39 Z M 43 37.84375 L 43 39 C 43 39.5625 42.5625 40 42 40 L 38 40 C 37.4375 40 37 39.5625 37 39 L 37 38 L 42.09375 38 C 42.410156 38 42.710938 37.9375 43 37.84375 Z "></path>
</g>
</svg>
