<svg xmlns="http://www.w3.org/2000/svg" viewBox="0 0 64 64">
    <path d="M 27 12.994141 C 15.174 12.994141 8.2025469 17.019203 5.0605469 25.658203 C 5.0065469 25.806203 4.8460937 26.121219 4.6210938 26.574219 C 3.3570937 29.127219 0 35.91 0 42 C 0 44.57 2.43 47 5 47 L 6.2929688 47 C 7.1538292 49.890989 9.8293311 52 13 52 C 16.170669 52 18.846171 49.890989 19.707031 47 L 45.292969 47 C 46.153829 49.890989 48.829331 52 52 52 C 55.170669 52 57.846171 49.890989 58.707031 47 L 61 47 C 63.064 47 64 43.164 64 42 L 64 36 C 64 28.11 52.687266 27.136578 49.697266 27.017578 C 48.576266 24.147578 43.781 13 37 13 L 27 12.994141 z M 27 14.994141 L 37 15 C 42.157 15 46.730594 24.627891 48.058594 28.337891 C 48.199594 28.734891 48.577 29 49 29 C 49.13 29 62 29.08 62 36 L 62 42 C 62 42.885 61.344156 44.669 60.910156 45 L 59 45 C 59 41.134 55.866 38 52 38 C 48.134 38 45 41.134 45 45 L 20 45 C 20 41.134 16.866 38 13 38 C 9.134 38 6 41.134 6 45 L 5 45 C 3.542 45 2 43.458 2 42 C 2 36.378 5.2051094 29.900891 6.4121094 27.462891 C 6.7141094 26.852891 6.8644531 26.549797 6.9394531 26.341797 C 9.7944531 18.493797 15.98 14.994141 27 14.994141 z M 36 17 C 19.026 17 12.306734 17.921594 9.0527344 27.683594 C 8.8777344 28.208594 9.1605938 28.773266 9.6835938 28.947266 C 9.7885937 28.982266 9.896 29 10 29 C 10.181666 29 10.35319 28.942147 10.505859 28.851562 C 10.653761 28.937868 10.816123 29 11 29 L 31 29 C 31.553 29 32 28.553 32 28 C 32 27.447 31.553 27 31 27 L 28 27 L 28 19.142578 C 30.332419 19.039589 32.968715 19 36 19 C 38.724 19 41.774594 24.726937 43.058594 28.335938 C 43.242594 28.854938 43.813938 29.125406 44.335938 28.941406 C 44.855937 28.757406 45.126406 28.186016 44.941406 27.666016 C 44.554406 26.574016 41.013 17 36 17 z M 26 19.255859 L 26 27 L 11.439453 27 C 13.597788 21.720999 17.263188 19.850978 26 19.255859 z M 35 27 C 34.447 27 34 27.447 34 28 C 34 28.553 34.447 29 35 29 L 39 29 C 39.553 29 40 28.553 40 28 C 40 27.447 39.553 27 39 27 L 35 27 z M 25 39 C 24.447 39 24 39.447 24 40 L 24 42 C 24 42.553 24.447 43 25 43 C 25.553 43 26 42.553 26 42 L 26 40 C 26 39.447 25.553 39 25 39 z M 30 39 C 29.447 39 29 39.447 29 40 L 29 42 C 29 42.553 29.447 43 30 43 C 30.553 43 31 42.553 31 42 L 31 40 C 31 39.447 30.553 39 30 39 z M 35 39 C 34.447 39 34 39.447 34 40 L 34 42 C 34 42.553 34.447 43 35 43 C 35.553 43 36 42.553 36 42 L 36 40 C 36 39.447 35.553 39 35 39 z M 40 39 C 39.447 39 39 39.447 39 40 L 39 42 C 39 42.553 39.447 43 40 43 C 40.553 43 41 42.553 41 42 L 41 40 C 41 39.447 40.553 39 40 39 z M 13 40 C 15.757 40 18 42.243 18 45 C 18 47.757 15.757 50 13 50 C 10.243 50 8 47.757 8 45 C 8 42.243 10.243 40 13 40 z M 52 40 C 54.757 40 57 42.243 57 45 C 57 47.757 54.757 50 52 50 C 49.243 50 47 47.757 47 45 C 47 42.243 49.243 40 52 40 z M 13 43 A 2 2 0 0 0 11 45 A 2 2 0 0 0 13 47 A 2 2 0 0 0 15 45 A 2 2 0 0 0 13 43 z M 52 43 A 2 2 0 0 0 50 45 A 2 2 0 0 0 52 47 A 2 2 0 0 0 54 45 A 2 2 0 0 0 52 43 z"></path>
</svg>
