<?xml version="1.0" encoding="utf-8"?>
<!-- Generator: Adobe Illustrator 19.2.1, SVG Export Plug-In . SVG Version: 6.00 Build 0)  -->
<!DOCTYPE svg PUBLIC "-//W3C//DTD SVG 1.1//EN" "http://www.w3.org/Graphics/SVG/1.1/DTD/svg11.dtd">
<svg version="1.1" id="Layer_1" xmlns="http://www.w3.org/2000/svg" xmlns:xlink="http://www.w3.org/1999/xlink" x="0px" y="0px"
	 width="32px" height="32px" viewBox="0 0 32 32" enable-background="new 0 0 32 32" xml:space="preserve">
<path d="M27.707,4.293c-0.391-0.391-1.023-0.391-1.414,0L16,14.586L5.707,4.293c-0.391-0.391-1.023-0.391-1.414,0
	s-0.391,1.023,0,1.414L14.586,16L4.293,26.293c-0.391,0.391-0.391,1.023,0,1.414C4.488,27.902,4.744,28,5,28
	s0.512-0.098,0.707-0.293L16,17.414l10.293,10.293C26.488,27.902,26.744,28,27,28s0.512-0.098,0.707-0.293
	c0.391-0.391,0.391-1.023,0-1.414L17.414,16L27.707,5.707C28.098,5.316,28.098,4.684,27.707,4.293z"/>
</svg>
