<svg xmlns="http://www.w3.org/2000/svg" xmlns:xlink="http://www.w3.org/1999/xlink" viewBox="0 0 64 64" version="1.1">
<g id="surface1">
<path style=" " d="M 44 6 C 42.398438 6 40.890625 6.625 39.757813 7.757813 C 38.625 8.890625 38 10.398438 38 12 C 38 13.601563 38.625 15.109375 39.757813 16.242188 C 40.890625 17.375 42.398438 18 44 18 C 45.601563 18 47.109375 17.375 48.242188 16.242188 C 49.375 15.109375 50 13.601563 50 12 C 50 10.398438 49.375 8.890625 48.242188 7.757813 C 47.109375 6.625 45.601563 6 44 6 Z M 44 8 C 45.066406 8 46.070313 8.417969 46.828125 9.171875 C 47.585938 9.929688 48 10.933594 48 12 C 48 13.066406 47.585938 14.070313 46.828125 14.828125 C 45.316406 16.339844 42.683594 16.339844 41.171875 14.828125 C 40.414063 14.070313 40 13.066406 40 12 C 40 10.933594 40.414063 9.929688 41.171875 9.171875 C 41.929688 8.417969 42.933594 8 44 8 Z M 33.964844 15.027344 C 31.746094 15.027344 29.660156 15.894531 28.09375 17.464844 L 22.542969 23.011719 C 19.191406 26.359375 19.121094 31.675781 22.359375 35.097656 L 28.425781 41.761719 C 28.683594 42.042969 28.757813 42.4375 28.621094 42.796875 L 25.3125 51.394531 C 24.914063 52.4375 25.050781 53.609375 25.683594 54.53125 C 26.316406 55.449219 27.359375 56 28.476563 56 C 29.785156 56 30.992188 55.234375 31.546875 54.046875 L 36.628906 43.179688 C 37.28125 41.785156 37.261719 40.195313 36.570313 38.816406 L 32.5625 30.835938 C 32.347656 30.449219 32.417969 29.960938 32.730469 29.652344 L 36.011719 26.398438 L 37.117188 27.46875 C 39.109375 29.613281 40.84375 30.027344 43 30 L 48.738281 30 C 50.539063 30 52 28.539063 52 26.738281 C 52 25.253906 50.890625 23.976563 49.390625 23.765625 L 43.832031 23.125 C 43.539063 23.082031 43.277344 22.914063 43.121094 22.660156 L 40.859375 19.035156 C 39.3125 16.5625 36.671875 15.027344 33.96875 15.027344 Z M 33.96875 17.027344 C 35.988281 17.027344 37.980469 18.203125 39.160156 20.097656 L 41.425781 23.722656 C 41.898438 24.476563 42.671875 24.980469 43.578125 25.109375 L 49.140625 25.75 C 49.628906 25.816406 50 26.246094 50 26.738281 C 50 27.433594 49.433594 28 48.738281 28 L 42.984375 28 C 41.257813 28.023438 40.09375 27.734375 38.546875 26.066406 L 36.695313 24.28125 L 34.707031 22.292969 C 34.316406 21.902344 33.683594 21.902344 33.292969 22.292969 C 32.902344 22.683594 32.902344 23.316406 33.292969 23.707031 L 34.582031 24.996094 L 31.320313 28.234375 C 30.382813 29.167969 30.175781 30.632813 30.796875 31.765625 L 34.785156 39.714844 C 35.199219 40.539063 35.210938 41.496094 34.820313 42.332031 L 29.738281 53.199219 C 29.511719 53.683594 29.015625 54 28.480469 54 C 28.011719 54 27.597656 53.78125 27.332031 53.394531 C 27.070313 53.011719 27.015625 52.546875 27.183594 52.109375 L 30.488281 43.511719 C 30.898438 42.445313 30.675781 41.257813 29.90625 40.414063 L 23.828125 33.738281 C 21.324219 31.09375 21.378906 27 23.953125 24.425781 L 29.503906 18.875 C 30.695313 17.6875 32.28125 17.027344 33.96875 17.027344 Z M 1 25 C 0.445313 25 0 25.449219 0 26 L 0 28 C 0 28.550781 0.445313 29 1 29 C 1.554688 29 2 28.550781 2 28 L 2 26 C 2 25.449219 1.554688 25 1 25 Z M 6 25 C 5.445313 25 5 25.449219 5 26 L 5 28 C 5 28.550781 5.445313 29 6 29 C 6.554688 29 7 28.550781 7 28 L 7 26 C 7 25.449219 6.554688 25 6 25 Z M 11 25 C 10.445313 25 10 25.449219 10 26 L 10 28 C 10 28.550781 10.445313 29 11 29 C 11.554688 29 12 28.550781 12 28 L 12 26 C 12 25.449219 11.554688 25 11 25 Z M 16 25 C 15.445313 25 15 25.449219 15 26 L 15 28 C 15 28.550781 15.445313 29 16 29 C 16.554688 29 17 28.550781 17 28 L 17 26 C 17 25.449219 16.554688 25 16 25 Z M 56 25 C 55.445313 25 55 25.449219 55 26 L 55 28 C 55 28.550781 55.445313 29 56 29 C 56.554688 29 57 28.550781 57 28 L 57 26 C 57 25.449219 56.554688 25 56 25 Z M 61 25 C 60.445313 25 60 25.449219 60 26 L 60 28 C 60 28.550781 60.445313 29 61 29 C 61.554688 29 62 28.550781 62 28 L 62 26 C 62 25.449219 61.554688 25 61 25 Z M 12 34 C 5.382813 34 0 39.382813 0 46 C 0 52.617188 5.382813 58 12 58 C 18.617188 58 24 52.617188 24 46 C 24 39.382813 18.617188 34 12 34 Z M 50 34 C 43.382813 34 38 39.382813 38 46 C 38 52.617188 43.382813 58 50 58 C 56.617188 58 62 52.617188 62 46 C 62 39.382813 56.617188 34 50 34 Z M 12 36 C 17.515625 36 22 40.484375 22 46 C 22 51.515625 17.515625 56 12 56 C 6.484375 56 2 51.515625 2 46 C 2 40.484375 6.484375 36 12 36 Z M 50 36 C 55.515625 36 60 40.484375 60 46 C 60 51.515625 55.515625 56 50 56 C 44.484375 56 40 51.515625 40 46 C 40 40.484375 44.484375 36 50 36 Z M 12 44 C 10.894531 44 10 44.894531 10 46 C 10 47.105469 10.894531 48 12 48 C 13.105469 48 14 47.105469 14 46 C 14 44.894531 13.105469 44 12 44 Z M 50 44 C 48.894531 44 48 44.894531 48 46 C 48 47.105469 48.894531 48 50 48 C 51.105469 48 52 47.105469 52 46 C 52 44.894531 51.105469 44 50 44 Z "></path>
</g>
</svg>
