<?xml version="1.0" encoding="utf-8"?>
<!-- Generator: Adobe Illustrator 19.1.0, SVG Export Plug-In . SVG Version: 6.00 Build 0)  -->
<!DOCTYPE svg PUBLIC "-//W3C//DTD SVG 1.1//EN" "http://www.w3.org/Graphics/SVG/1.1/DTD/svg11.dtd">
<svg version="1.1" id="Layer_1" xmlns="http://www.w3.org/2000/svg" xmlns:xlink="http://www.w3.org/1999/xlink" x="0px" y="0px"
	 width="48px" height="48px" viewBox="0 0 48 48" enable-background="new 0 0 48 48" xml:space="preserve">
<path d="M24,1C11.3,1,1,11.3,1,24s10.3,23,23,23s23-10.3,23-23S36.7,1,24,1z M24,45C12.4,45,3,35.6,3,24S12.4,3,24,3s21,9.4,21,21
	S35.6,45,24,45z"/>
<path d="M29,19c0,0.6,0.4,1,1,1s1-0.4,1-1c0-3.3-2.7-6-6-6v-1c0-0.6-0.4-1-1-1s-1,0.4-1,1v1c-3.3,0-6,2.7-6,6c0,3.9,3.2,5,6,5.8V33
	c-2.2,0-4-1.8-4-4c0-0.6-0.4-1-1-1s-1,0.4-1,1c0,3.3,2.7,6,6,6v1c0,0.6,0.4,1,1,1s1-0.4,1-1v-1c3.3,0,6-2.7,6-6c0-3.9-3.2-5-6-5.8
	V15C27.2,15,29,16.8,29,19z M29,29c0,2.2-1.8,4-4,4v-7.7C27.5,26,29,26.8,29,29z M23,22.7c-2.5-0.7-4-1.5-4-3.7c0-2.2,1.8-4,4-4
	V22.7z"/>
</svg>
