<?xml version="1.0" encoding="utf-8"?>
<!-- Generator: Adobe Illustrator 19.1.0, SVG Export Plug-In . SVG Version: 6.00 Build 0)  -->
<!DOCTYPE svg PUBLIC "-//W3C//DTD SVG 1.1//EN" "http://www.w3.org/Graphics/SVG/1.1/DTD/svg11.dtd">
<svg version="1.1" id="Layer_1" xmlns="http://www.w3.org/2000/svg" xmlns:xlink="http://www.w3.org/1999/xlink" x="0px" y="0px"
	 width="48px" height="48px" viewBox="0 0 48 48" enable-background="new 0 0 48 48" xml:space="preserve">
<path d="M22.7,37c-3.1,0-5.7-2.7-5.7-6c0-0.6-0.4-1-1-1s-1,0.4-1,1c0,4.4,3.4,8,7.7,8H23v3c0,0.6,0.4,1,1,1s1-0.4,1-1v-3h0.3
	c4.2,0,7.7-3.6,7.7-8c0-5.3-4.1-6.7-8-7.8V11h0.3c3.1,0,5.7,2.7,5.7,6c0,0.6,0.4,1,1,1s1-0.4,1-1c0-4.4-3.4-8-7.7-8H25V6
	c0-0.6-0.4-1-1-1s-1,0.4-1,1v3h-0.3c-4.2,0-7.7,3.6-7.7,8c0,5.3,4.1,6.7,8,7.8V37H22.7z M17,17c0-3.3,2.5-6,5.7-6H23v11.7
	C19.2,21.6,17,20.5,17,17z M25,25.3c3.8,1.1,6,2.2,6,5.7c0,3.3-2.5,6-5.7,6H25V25.3z"/>
</svg>
