<svg fill="#000000" xmlns="http://www.w3.org/2000/svg" xmlns:xlink="http://www.w3.org/1999/xlink" version="1.1" x="0px" y="0px"><path d="M64.891,42.091c0.001,0,0.009-0.001,0.009-0.001c-0.58-2.274-0.652-4.73-0.097-7.624c0.09-0.331,0.169-0.729,0.232-1.164  c0.35-2.427-0.281-5.186-1.128-8.459c-1.01-3.903-3.307-4.8-5.188-4.997c-0.01-0.001-0.016-0.004-0.026-0.005  c-1.776-0.213-4.018-0.502-4.537-1.872c0.476-0.077,0.845-0.471,0.845-0.969c0-0.552-0.447-1-1-1c0.553,0,1-0.448,1-1s-0.447-1-1-1  H46c-0.552,0-1,0.448-1,1s0.448,1,1,1c-0.552,0-1,0.448-1,1c0,0.525,0.408,0.943,0.922,0.984C45.669,20.313,44.766,25.878,43,30  c-3,7-9,9-9,18l0.865,33.002C34.939,83.751,37.25,86,40,86h20c2.75,0,5.061-2.249,5.135-4.998L66,48  C66.001,45.608,65.57,43.719,64.891,42.091z M43.486,40.188c-2.248,2.784-3.485,4.318-3.485,7.811l1,32.97  c0.017,0.552-0.417,1.013-0.969,1.03c-0.01,0-0.021,0-0.031,0c-0.539,0-0.982-0.428-0.999-0.97l-1-33  c0-4.23,1.562-6.167,3.928-9.097c0.348-0.43,0.979-0.496,1.406-0.15C43.766,39.129,43.833,39.758,43.486,40.188z M62.237,33.274  c-0.65,1.471-2.482,1.328-3.969-0.831c-0.458-0.751-0.887-1.557-1.268-2.444c-0.208-0.484-0.4-0.992-0.584-1.509  c-1.001-2.726-0.157-5.278,1.338-5.789c0.795-0.272,2.857-0.775,3.908,3.036C62.609,29.164,63.074,31.106,62.237,33.274z"></path></svg>