<svg xmlns="http://www.w3.org/2000/svg" viewBox="0 0 438.98 955.73"><defs><style>.cls-1{fill:#303531;stroke:#231f20;stroke-miterlimit:10;stroke-width:12px;}</style></defs><title>Asset 5</title><g id="Layer_2" data-name="Layer 2"><g id="Layer_1-2" data-name="Layer 1"><path class="cls-1" d="M423,597.74c-1.51-34-1.4-67.86,3.21-101.59,4.1-30,9.27-60.19,5.33-90.48-3.37-25.88-22.58-46.31-28.28-71.05a4.35,4.35,0,0,0-.19-3.2c-.31-.74-.58-1.49-.82-2.25q-.24-1.64-.39-3.3a5.3,5.3,0,0,0-1-2.72c-1.73-12.48,2.38-26.6,3.93-38.64,2.17-16.93,3.86-33.91,4.48-51,1.13-30.91-2.57-62.77-15-91.35C389,129.8,382.93,117.82,373.5,108,364.64,98.8,353,92.43,341.43,87.28s-23.93-8.9-36.15-12.59c-12.55-3.8-26.07-6.61-27.94-21A37.29,37.29,0,0,0,284.07,51a5.12,5.12,0,0,0,5.24-4c2.16-4.2-2.3-10.25-7-7l-.08,0c-1.51-.32-3-.62-4.55-.89.07-4,.34-8.09.59-12.12.15-2.28.3-4.56.47-6.84,0-.65.52-3.74.28-2.84,0-.2,0-.38,0-.59a.17.17,0,0,1,0-.07,5.24,5.24,0,0,0-2.32-4c.89-3-.69-6.8-4.76-6.63-35.54,1.46-71.2,4.13-106.74,1.38a4.45,4.45,0,0,0-3.5,1.1A5.15,5.15,0,0,0,154.29,10c-5.7,9-2.63,22.3-2.16,32.67a4.25,4.25,0,0,0-1.49,1.16l-.54.34a5.37,5.37,0,0,0-1.54,7.29,11.41,11.41,0,0,0,1.57,5.37,5.06,5.06,0,0,0,4.49,2.58c2.13-.26,4.28-.48,6.42-.71C148,111.43,154.59,168,127,216.79,99.49,265.32,55.27,301.69,26,349,10.48,374.1,4.3,398.93,6.4,428.34c1,14.71,3.83,29.23,5.11,43.92,1.47,16.93,1.16,34,.8,51-1.44,66.26,2,132.36,3.23,198.59.67,36.69-1.57,73.73,2.61,110.27,2.58,22.62,8.51,45.69,21.27,64.35a5.06,5.06,0,0,0,.69,3.17c11.53,20.17,33.49,29.41,55,35,24.08,6.24,49.45,8.26,74.07,11.47,34.58,4.51,69.77,4.63,104.48,1.55a448.55,448.55,0,0,0,51.82-7.77c8.09-1.69,16.1-3.74,24.06-6,3.63-1,7.29-1.88,10.91-2.88a5.11,5.11,0,0,0,2.95.11c75.35-18.72,68-125.49,65.4-184.71C426.61,696.85,425.24,647.3,423,597.74Zm-160-560.56c-19.11-1.69-38.34-.35-57.66.71-10.53.58-22.25-1.09-33.35-.4,0-.73,0-1.45,0-2.18,30.27-2.69,61.33-3.77,90.57-12.41C262.66,27.67,262.77,32.44,263.06,37.18ZM238.15,17.94c-21.86,3.94-44.33,5-66.43,7-.14-2.25-.33-4.5-.62-6.75C193.43,19.55,215.8,18.92,238.15,17.94ZM42.48,881.41l-.1.07c-16.2-30.41-16.27-69.94-16.25-103.29,0-62.59-2.61-125.05-3.76-187.62-.6-32.89,1.07-65.76.5-98.63-.54-30.79-9-61.21-5.92-92C19.88,370.3,41.09,343,59,320.5c17.41-21.83,36.52-42.25,53.65-64.32,21.51-27.71,37.22-56.66,43.78-91.34,6.73-35.55,6.21-72.19,15.58-107.26,20.23-1.81,40.81-2.7,60.9-2.59,9.89.06,21.45,1.5,32.38.74.08.4.14.81.22,1.21a4.37,4.37,0,0,0,2.69,3.4c5.45,17.44,24.67,21.42,42.24,26.78,28.21,8.62,53.67,19.68,68.35,46.56,17.28,31.64,21.25,68,19.95,103.48-.62,17.07-2.64,34.08-4.82,51-1.83,14.27-6.51,30.31-1.5,44.33,4.4,23.31,20.46,42.2,27.06,65,8.75,30.17.92,65.66-3.3,95.93-9.15,65.67-.36,131.26.23,197.14.32,36.74,3.72,73.39,2.95,110.15-.74,34.87-3.84,77.41-29.24,104.06a55.41,55.41,0,0,1-18.1,12.47,5.07,5.07,0,0,0-4.31.24c-6.62,3.36-14,4-20.94,6.41-7.77,2.64-16.06,4.22-24.06,6a421.1,421.1,0,0,1-49.06,7.39,484.11,484.11,0,0,1-97.63-.74c-22.56-2.4-45.53-5.23-67.8-9.58-14-2.73-29.23-6.75-41.56-14.61a4.08,4.08,0,0,0-1.78-3.73,81.42,81.42,0,0,1-11-10.35c.13-.11.27-.2.4-.32m319-637.75c10.87-14.76,8.09-37.48,6.26-54.35-2.13-19.7-5-41.27-14-59.16-14.15-28.1-48.33-33.9-69.08-14.73a4.71,4.71,0,0,0-2.17,1c-30.62,23.25-10.13,72.1,3.82,99.29C310.12,255.58,350.6,290.92,373.28,260.14Zm-82-107.91a4.47,4.47,0,0,0,4.55-2.55c6.35-11.94,16.75-19.62,30.56-19.33,15.93.34,27.56,14.12,33,27.77,5.54,13.94,7.54,30.11,9.43,44.87,1.79,13.92,4,30.31-.69,43.87-12.26,35.49-51.43-1.69-61.05-20C297.91,209.51,281.55,174,291.28,152.23ZM167.44,244.08c-6.59,48-44.57,80.62-73.19,116.47-18.42,23.06-30.66,47.28-32,77.29-1.24,27.42,2.64,54.69,2.82,82.1,0,6.71-10.36,6.7-10.4,0-.18-28.46-4.94-57-2.6-85.49,2.19-26.63,10.86-49.62,26.9-71,28.82-38.4,71.55-71.82,78.47-122.13C158.33,234.7,168.34,237.53,167.44,244.08Zm199.1,141.57c-18.33-27.63-37.69-54.55-56.12-82.11-3.74-5.59,5.27-10.79,9-5.24,10.27,15.36,20.83,30.53,31.34,45.74,10.07,14.56,22.8,29.43,29.87,45.75,12.92,29.83,7.65,61.24,7.42,92.72,0,6.7-10.44,6.71-10.39,0C377.86,450.56,385.41,414.11,366.54,385.65Zm-182-301c2.7,19.57,1.76,39.29-4.16,58.21-2,6.38-12,3.65-10-2.77a120.84,120.84,0,0,0,4.16-52.68C173.65,80.89,183.66,78.06,184.58,84.68Zm-18.88,141c-6.7,0-6.7-10.4,0-10.4S172.41,225.72,165.7,225.72ZM380.57,500.88c6.7,0,6.7,10.39,0,10.39S373.86,500.88,380.57,500.88ZM402.4,765.3c1,22.53,3.15,45.22,1,67.75-1.78,18.59-5.45,39.66-20.53,52.36-5.09,4.29-12.48-3-7.35-7.35C391,865,393,841.13,393.66,822.25s-.79-38-1.66-57C391.7,758.59,402.09,758.62,402.4,765.3Z"/></g></g></svg>