<?xml version="1.0" encoding="UTF-8"?>
<svg fill="#000000" version="1.1" xml:space="preserve" xmlns="http://www.w3.org/2000/svg"><path d="m76 45.937c0-13.686-10.576-24.894-24-25.916v-4.021c0-1.104-0.896-2-2-2s-2 0.896-2 2v4.021c-13.424 1.022-24 12.23-24 25.916 0.821 0 1.63-0.046 2.431-0.121-1.112 6.418 0.255 12.872 3.569 18.184 0.989-0.322 1.955-0.708 2.898-1.145 0.467 4.805 2.248 9.354 5.102 13.145 1.211-0.515 2.377-1.126 3.495-1.816 1.667 4.709 4.645 8.797 8.505 11.816 3.86-3.02 6.822-7.117 8.488-11.827 1.123 0.694 2.295 1.309 3.512 1.827 2.854-3.791 4.636-8.339 5.103-13.145 0.942 0.438 1.908 0.823 2.897 1.145 3.313-5.312 4.681-11.766 3.568-18.184 0.802 0.074 1.612 0.121 2.432 0.121zm-26-22c10.607 0 19.486 7.546 21.548 17.552-3.24-0.664-6.282-2.056-8.962-4.122l-3.521-2.713-2.329 3.785c-1.718 2.793-4.022 5.158-6.736 6.932-2.714-1.773-5.019-4.139-6.737-6.932l-2.329-3.786-3.521 2.714c-2.679 2.065-5.722 3.458-8.962 4.122 2.063-10.007 10.941-17.552 21.549-17.552zm3.596 24.232c0.582 1.598 1.311 3.099 2.154 4.505-0.644 4.487-2.627 8.639-5.75 11.936-3.123-3.297-5.106-7.448-5.75-11.937 0.844-1.405 1.573-2.906 2.154-4.504 0.044-0.122 0.075-0.246 0.117-0.368 1.098 0.818 2.255 1.561 3.479 2.199 1.224-0.638 2.381-1.381 3.479-2.199 0.042 0.122 0.073 0.246 0.117 0.368zm-21.752 10.765c-1.9-4.381-2.307-9.22-1.177-13.869 3.382-0.897 6.496-2.452 9.19-4.529 0.968 1.573 2.102 3.03 3.37 4.359-0.166 0.64-0.352 1.277-0.582 1.907-1.945 5.344-5.798 9.632-10.801 12.132zm7.551 11.859c-1.706-3.147-2.575-6.626-2.609-10.163 1.555-1.076 2.999-2.322 4.298-3.729 0.917 3.093 2.393 5.94 4.312 8.436-1.632 2.161-3.655 4.016-6.001 5.456zm10.605 9.816c-2.416-2.549-4.139-5.612-5.098-8.945 1.155-1.004 2.22-2.117 3.193-3.319 0.61 0.58 1.241 1.135 1.905 1.655 0.664-0.52 1.295-1.076 1.904-1.656 0.973 1.201 2.038 2.314 3.193 3.319-0.959 3.332-2.681 6.397-5.097 8.946zm10.605-9.816c-2.346-1.439-4.367-3.294-6-5.455 1.917-2.494 3.398-5.34 4.314-8.433 1.299 1.405 2.741 2.65 4.295 3.725-0.033 3.537-0.902 7.016-2.609 10.163zm7.551-11.859c-5.003-2.5-8.856-6.788-10.802-12.133-0.229-0.63-0.416-1.267-0.581-1.907 1.269-1.329 2.402-2.786 3.37-4.359 2.694 2.077 5.809 3.632 9.19 4.529 1.13 4.65 0.724 9.489-1.177 13.87z"/></svg>
