<?xml version="1.0" encoding="utf-8"?>
<!-- Generator: Adobe Illustrator 19.1.0, SVG Export Plug-In . SVG Version: 6.00 Build 0)  -->
<!DOCTYPE svg PUBLIC "-//W3C//DTD SVG 1.1//EN" "http://www.w3.org/Graphics/SVG/1.1/DTD/svg11.dtd">
<svg version="1.1" id="Layer_1" xmlns="http://www.w3.org/2000/svg" xmlns:xlink="http://www.w3.org/1999/xlink" x="0px" y="0px"
	 width="16px" height="16px" viewBox="0 0 16 16" enable-background="new 0 0 16 16" xml:space="preserve">
<circle data-color="color-2" fill="#444444" cx="8" cy="7" r="2"/>
<path fill="#444444" d="M7.3,15.7c-0.1-0.1-4.2-3.7-4.2-3.8C1.7,10.7,1,8.9,1,7c0-3.9,3.1-7,7-7s7,3.1,7,7c0,1.9-0.7,3.7-2.1,5
	c-0.1,0.1-4.1,3.7-4.2,3.8C8.3,16.1,7.7,16.1,7.3,15.7z M4.6,10.7l3.4,3l3.4-3c0,0,0,0,0,0c1-1,1.6-2.2,1.6-3.6c0-2.8-2.2-5-5-5
	S3,4.2,3,7C3,8.4,3.6,9.7,4.6,10.7C4.6,10.6,4.6,10.6,4.6,10.7z"/>
</svg>
