<?xml version="1.0" encoding="utf-8"?>
<!-- Generator: Adobe Illustrator 19.2.1, SVG Export Plug-In . SVG Version: 6.00 Build 0)  -->
<!DOCTYPE svg PUBLIC "-//W3C//DTD SVG 1.1//EN" "http://www.w3.org/Graphics/SVG/1.1/DTD/svg11.dtd">
<svg version="1.1" id="Layer_1" xmlns="http://www.w3.org/2000/svg" xmlns:xlink="http://www.w3.org/1999/xlink" x="0px" y="0px"
	 width="32px" height="32px" viewBox="0 0 32 32" enable-background="new 0 0 32 32" xml:space="preserve">
<path d="M4,20c2.206,0,4-1.794,4-4s-1.794-4-4-4s-4,1.794-4,4S1.794,20,4,20z M4,14c1.103,0,2,0.897,2,2s-0.897,2-2,2s-2-0.897-2-2
	S2.897,14,4,14z"/>
<path d="M16,20c2.206,0,4-1.794,4-4s-1.794-4-4-4s-4,1.794-4,4S13.794,20,16,20z M16,14c1.103,0,2,0.897,2,2s-0.897,2-2,2
	s-2-0.897-2-2S14.897,14,16,14z"/>
<path d="M28,12c-2.206,0-4,1.794-4,4s1.794,4,4,4s4-1.794,4-4S30.206,12,28,12z M28,18c-1.103,0-2-0.897-2-2s0.897-2,2-2
	s2,0.897,2,2S29.103,18,28,18z"/>
</svg>
