<svg xmlns="http://www.w3.org/2000/svg" xmlns:xlink="http://www.w3.org/1999/xlink" viewBox="0 0 64 64" version="1.1">
<g id="surface1">
<path style=" " d="M 31.953125 0 C 20.949219 0 12 8.949219 12 19.953125 C 12 27.105469 16.308594 33.558594 20.867188 40.394531 C 25.324219 47.074219 29.933594 53.980469 30.953125 62.125 C 31.015625 62.625 31.441406 63 31.949219 63 C 32.453125 63 32.878906 62.625 32.9375 62.125 C 33.960938 53.980469 38.574219 47.074219 43.03125 40.394531 C 47.59375 33.5625 51.902344 27.105469 51.902344 19.953125 C 51.902344 8.949219 42.953125 0 31.953125 0 Z M 31.953125 2 C 41.847656 2 49.902344 10.050781 49.902344 19.953125 C 49.902344 26.5 45.757813 32.710938 41.367188 39.285156 C 37.65625 44.847656 33.84375 50.558594 31.949219 57.101563 C 30.054688 50.558594 26.242188 44.84375 22.53125 39.28125 C 18.144531 32.707031 14 26.5 14 19.953125 C 14 10.050781 22.054688 2 31.953125 2 Z M 5.023438 7.511719 C 4.636719 7.519531 4.265625 7.753906 4.109375 8.136719 C 3.90625 8.648438 4.152344 9.234375 4.664063 9.4375 L 8.375 10.9375 C 8.496094 10.988281 8.625 11.011719 8.75 11.011719 C 9.144531 11.011719 9.519531 10.773438 9.675781 10.386719 C 9.882813 9.871094 9.632813 9.289063 9.121094 9.082031 L 5.414063 7.585938 C 5.285156 7.53125 5.15625 7.507813 5.023438 7.511719 Z M 58.976563 7.511719 C 58.847656 7.507813 58.714844 7.53125 58.589844 7.585938 L 54.878906 9.082031 C 54.367188 9.289063 54.117188 9.871094 54.324219 10.386719 C 54.480469 10.773438 54.855469 11.011719 55.25 11.011719 C 55.375 11.011719 55.503906 10.988281 55.625 10.9375 L 59.335938 9.4375 C 59.847656 9.234375 60.09375 8.648438 59.890625 8.136719 C 59.734375 7.753906 59.367188 7.519531 58.976563 7.511719 Z M 30.859375 10.03125 C 29.71875 10.160156 28.617188 10.484375 27.578125 10.996094 C 22.632813 13.429688 20.585938 19.433594 23.019531 24.378906 C 24.757813 27.914063 28.316406 29.96875 32.011719 29.96875 C 33.488281 29.96875 34.988281 29.636719 36.40625 28.941406 C 40.734375 26.8125 42.929688 21.898438 41.621094 17.261719 C 41.46875 16.726563 40.910156 16.417969 40.386719 16.566406 C 39.855469 16.714844 39.542969 17.269531 39.695313 17.800781 C 40.742188 21.511719 38.988281 25.441406 35.523438 27.144531 C 31.566406 29.089844 26.761719 27.457031 24.8125 23.496094 C 22.867188 19.539063 24.503906 14.734375 28.464844 12.785156 C 29.292969 12.378906 30.175781 12.121094 31.089844 12.015625 C 31.636719 11.953125 32.03125 11.457031 31.96875 10.90625 C 31.90625 10.359375 31.398438 9.960938 30.859375 10.03125 Z M 35.285156 10.597656 C 34.894531 10.609375 34.527344 10.84375 34.375 11.230469 C 34.175781 11.746094 34.425781 12.328125 34.9375 12.53125 C 35.914063 12.914063 36.789063 13.476563 37.539063 14.199219 C 37.734375 14.386719 37.984375 14.480469 38.234375 14.480469 C 38.496094 14.480469 38.757813 14.375 38.953125 14.171875 C 39.335938 13.773438 39.324219 13.140625 38.925781 12.757813 C 37.988281 11.855469 36.894531 11.152344 35.675781 10.671875 C 35.546875 10.621094 35.414063 10.597656 35.285156 10.597656 Z M 32 14 C 28.691406 14 26 16.691406 26 20 C 26 23.308594 28.691406 26 32 26 C 35.308594 26 38 23.308594 38 20 C 38 16.691406 35.308594 14 32 14 Z M 32 16 C 34.207031 16 36 17.792969 36 20 C 36 22.207031 34.207031 24 32 24 C 29.792969 24 28 22.207031 28 20 C 28 17.792969 29.792969 16 32 16 Z M 1 18 C 0.445313 18 0 18.449219 0 19 C 0 19.550781 0.445313 20 1 20 L 7 20 C 7.554688 20 8 19.550781 8 19 C 8 18.449219 7.554688 18 7 18 Z M 57 18 C 56.445313 18 56 18.449219 56 19 C 56 19.550781 56.445313 20 57 20 L 63 20 C 63.554688 20 64 19.550781 64 19 C 64 18.449219 63.554688 18 63 18 Z M 8.765625 26.988281 C 8.632813 26.988281 8.5 27.011719 8.375 27.0625 L 4.664063 28.5625 C 4.152344 28.765625 3.90625 29.351563 4.109375 29.863281 C 4.269531 30.253906 4.644531 30.488281 5.039063 30.488281 C 5.164063 30.488281 5.289063 30.464844 5.414063 30.417969 L 9.121094 28.917969 C 9.632813 28.710938 9.882813 28.128906 9.675781 27.613281 C 9.519531 27.230469 9.152344 26.996094 8.765625 26.988281 Z M 55.238281 26.992188 C 54.847656 27 54.480469 27.234375 54.324219 27.617188 C 54.117188 28.128906 54.367188 28.714844 54.878906 28.921875 L 58.589844 30.417969 C 58.710938 30.46875 58.835938 30.488281 58.960938 30.488281 C 59.355469 30.488281 59.730469 30.253906 59.890625 29.863281 C 60.09375 29.351563 59.847656 28.769531 59.335938 28.5625 L 55.625 27.0625 C 55.5 27.011719 55.367188 26.988281 55.238281 26.992188 Z "></path>
</g>
</svg>
