<?xml version="1.0" encoding="utf-8"?>
<!-- Generator: Adobe Illustrator 19.2.1, SVG Export Plug-In . SVG Version: 6.00 Build 0)  -->
<!DOCTYPE svg PUBLIC "-//W3C//DTD SVG 1.1//EN" "http://www.w3.org/Graphics/SVG/1.1/DTD/svg11.dtd">
<svg version="1.1" id="Layer_1" xmlns="http://www.w3.org/2000/svg" xmlns:xlink="http://www.w3.org/1999/xlink" x="0px" y="0px"
	 width="32px" height="32px" viewBox="0 0 32 32" enable-background="new 0 0 32 32" xml:space="preserve">
<path fill="#222221" d="M2,17h28c0.553,0,1-0.447,1-1s-0.447-1-1-1H2c-0.553,0-1,0.447-1,1S1.447,17,2,17z"/>
<path fill="#222221" d="M2,8h28c0.553,0,1-0.447,1-1s-0.447-1-1-1H2C1.447,6,1,6.447,1,7S1.447,8,2,8z"/>
<path fill="#222221" d="M30,24H16c-0.553,0-1,0.447-1,1s0.447,1,1,1h14c0.553,0,1-0.447,1-1S30.553,24,30,24z"/>
</svg>
