<?xml version="1.0" encoding="utf-8"?>
<!-- Generator: Adobe Illustrator 18.1.1, SVG Export Plug-In . SVG Version: 6.00 Build 0)  -->
<!DOCTYPE svg PUBLIC "-//W3C//DTD SVG 1.1//EN" "http://www.w3.org/Graphics/SVG/1.1/DTD/svg11.dtd">
<svg version="1.1" id="Layer_1" xmlns="http://www.w3.org/2000/svg" xmlns:xlink="http://www.w3.org/1999/xlink" x="0px" y="0px"
	 width="32px" height="32px" viewBox="0 0 32 32" enable-background="new 0 0 32 32" xml:space="preserve">
<path d="M27,1c-1.2,0-2.2,0.4-3.1,1.1C21.5,0.7,18.8,0,16,0C7.2,0,0,7.2,0,16s7.2,16,16,16s16-7.2,16-16c0-2.3-0.5-4.5-1.4-6.5
	C31.5,8.6,32,7.4,32,6C32,3.2,29.8,1,27,1z M30,6c0,0.9-0.4,1.7-1.1,2.3c0,0,0,0,0,0c-0.1,0.1-0.2,0.1-0.3,0.2C28.1,8.8,27.6,9,27,9
	c-1.7,0-3-1.3-3-3s1.3-3,3-3S30,4.3,30,6z M16,30C8.3,30,2,23.7,2,16S8.3,2,16,2c2.3,0,4.6,0.6,6.6,1.7C22.2,4.4,22,5.1,22,6
	c0,2.8,2.2,5,5,5c0.7,0,1.3-0.1,1.9-0.4c0.7,1.7,1.1,3.5,1.1,5.4C30,23.7,23.7,30,16,30z"/>
<path d="M19.3,16.2c0.4-0.6,0.7-1.4,0.7-2.2v-2c0-2.2-1.8-4-4-4s-4,1.8-4,4v2c0,0.8,0.2,1.6,0.7,2.2C10.6,16.8,9,18.7,9,21v1
	c0,0.6,0.4,1,1,1h12c0.6,0,1-0.4,1-1v-1C23,18.7,21.4,16.8,19.3,16.2z M14,12c0-1.1,0.9-2,2-2s2,0.9,2,2v2c0,1.1-0.9,2-2,2
	s-2-0.9-2-2V12z M11,21c0-1.7,1.3-3,3-3h4c1.7,0,3,1.3,3,3H11z"/>
</svg>
