<svg xmlns="http://www.w3.org/2000/svg" xmlns:xlink="http://www.w3.org/1999/xlink" viewBox="0 0 64 64" version="1.1">
<g id="surface1">
<path style=" " d="M 32 2.992188 C 28.691406 2.992188 26 5.683594 26 8.992188 C 26 12.304688 28.691406 14.996094 32 14.996094 C 35.308594 14.996094 38 12.304688 38 8.992188 C 38 5.683594 35.308594 2.992188 32 2.992188 Z M 32 4.992188 C 34.207031 4.992188 36 6.789063 36 8.992188 C 36 11.199219 34.207031 12.996094 32 12.996094 C 29.792969 12.996094 28 11.199219 28 8.992188 C 28 6.789063 29.792969 4.992188 32 4.992188 Z M 30.339844 15.996094 C 28.601563 15.996094 26.902344 16.59375 25.554688 17.671875 L 19.765625 22.300781 C 18.03125 23.6875 16.875 25.660156 16.515625 27.847656 L 15.253906 35.375 C 15.042969 36.683594 15.691406 37.957031 16.875 38.546875 C 17.796875 39.011719 18.855469 39.011719 19.78125 38.5625 C 20.710938 38.109375 21.359375 37.269531 21.5625 36.257813 L 22.410156 32.050781 C 22.734375 30.4375 23.621094 28.980469 24.90625 27.953125 L 26 27.078125 L 26 36.832031 L 23.574219 44.109375 C 23.269531 45.019531 22.789063 45.847656 22.160156 46.550781 L 16.144531 53.082031 C 14.613281 54.667969 14.628906 57.234375 16.1875 58.796875 C 17.695313 60.3125 20.140625 60.402344 21.773438 58.984375 L 28.371094 52.914063 C 29.339844 52.035156 30.09375 50.976563 30.609375 49.769531 L 32.152344 46.148438 L 41.199219 58.464844 C 41.9375 59.460938 43.09375 59.996094 44.265625 59.996094 C 44.957031 59.996094 45.660156 59.804688 46.28125 59.410156 C 47.984375 58.339844 48.558594 56.117188 47.589844 54.359375 L 38.210938 37.167969 C 38.074219 36.898438 38 36.59375 38 36.28125 L 38 30.21875 C 38.378906 30.332031 38.761719 30.421875 39.152344 30.484375 L 46.675781 31.75 C 47.988281 31.960938 49.261719 31.308594 49.847656 30.128906 C 50.3125 29.207031 50.316406 28.144531 49.863281 27.21875 C 49.410156 26.289063 48.570313 25.640625 47.558594 25.4375 L 43.355469 24.59375 C 41.738281 24.265625 40.285156 23.378906 39.253906 22.09375 L 37.109375 19.421875 C 37.023438 19.300781 34.988281 16.476563 32.128906 16.097656 C 31.597656 16.027344 31.011719 15.996094 30.339844 15.996094 Z M 30.339844 17.996094 C 30.925781 17.996094 31.421875 18.019531 31.863281 18.078125 C 33.855469 18.34375 35.464844 20.5625 35.515625 20.625 L 37.691406 23.34375 C 39.015625 24.996094 40.886719 26.132813 42.957031 26.550781 L 47.164063 27.398438 C 47.558594 27.476563 47.886719 27.730469 48.0625 28.09375 C 48.242188 28.457031 48.238281 28.871094 48.058594 29.234375 C 47.867188 29.621094 47.433594 29.839844 47 29.773438 L 39.480469 28.515625 C 38.972656 28.429688 38.476563 28.289063 38 28.097656 L 38 26.753906 C 38 26.203125 37.554688 25.753906 37 25.753906 C 36.445313 25.753906 36 26.203125 36 26.753906 L 36 36.28125 C 36 36.90625 36.148438 37.527344 36.441406 38.101563 L 45.835938 55.316406 C 46.125 55.84375 46.125 56.449219 45.890625 56.957031 C 45.6875 57.375 45.449219 57.652344 45.449219 57.652344 C 45.449219 57.652344 45.042969 57.851563 44.546875 57.972656 C 43.898438 58.078125 43.214844 57.828125 42.804688 57.277344 L 34.496094 45.964844 C 34.476563 45.929688 34.46875 45.886719 34.445313 45.855469 L 30.546875 40.421875 L 29.175781 38.453125 C 28.40625 37.300781 28 35.957031 28 34.574219 L 28 24.996094 C 28 24.609375 27.78125 24.257813 27.433594 24.09375 C 27.085938 23.925781 26.675781 23.972656 26.375 24.214844 L 23.65625 26.394531 C 22.003906 27.714844 20.867188 29.585938 20.449219 31.65625 L 19.601563 35.863281 C 19.523438 36.257813 19.269531 36.589844 18.90625 36.765625 C 18.542969 36.941406 18.128906 36.941406 17.765625 36.761719 C 17.378906 36.566406 17.15625 36.128906 17.226563 35.699219 L 18.484375 28.175781 C 18.765625 26.472656 19.664063 24.941406 21.015625 23.863281 L 26.808594 19.234375 C 27.816406 18.421875 29.035156 17.996094 30.339844 17.996094 Z M 27.3125 39.210938 C 27.386719 39.332031 27.445313 39.460938 27.527344 39.578125 L 30.8125 44.191406 L 28.769531 48.984375 C 28.371094 49.925781 27.785156 50.746094 27.023438 51.4375 L 20.441406 57.492188 C 19.621094 58.203125 18.375 58.160156 17.605469 57.386719 C 16.8125 56.589844 16.800781 55.28125 17.601563 54.453125 L 23.640625 47.894531 C 24.464844 46.976563 25.082031 45.914063 25.472656 44.738281 Z M 6 41.996094 C 5.445313 41.996094 5 42.441406 5 42.996094 L 5 44.996094 C 5 45.546875 5.445313 45.996094 6 45.996094 C 6.554688 45.996094 7 45.546875 7 44.996094 L 7 42.996094 C 7 42.441406 6.554688 41.996094 6 41.996094 Z M 11 41.996094 C 10.445313 41.996094 10 42.441406 10 42.996094 L 10 44.996094 C 10 45.546875 10.445313 45.996094 11 45.996094 C 11.554688 45.996094 12 45.546875 12 44.996094 L 12 42.996094 C 12 42.441406 11.554688 41.996094 11 41.996094 Z M 16 41.996094 C 15.445313 41.996094 15 42.441406 15 42.996094 L 15 44.996094 C 15 45.546875 15.445313 45.996094 16 45.996094 C 16.554688 45.996094 17 45.546875 17 44.996094 L 17 42.996094 C 17 42.441406 16.554688 41.996094 16 41.996094 Z M 21 41.996094 C 20.445313 41.996094 20 42.441406 20 42.996094 L 20 44.996094 C 20 45.546875 20.445313 45.996094 21 45.996094 C 21.554688 45.996094 22 45.546875 22 44.996094 L 22 42.996094 C 22 42.441406 21.554688 41.996094 21 41.996094 Z M 45 41.996094 C 44.445313 41.996094 44 42.441406 44 42.996094 L 44 44.996094 C 44 45.546875 44.445313 45.996094 45 45.996094 C 45.554688 45.996094 46 45.546875 46 44.996094 L 46 42.996094 C 46 42.441406 45.554688 41.996094 45 41.996094 Z M 50 41.996094 C 49.445313 41.996094 49 42.441406 49 42.996094 L 49 44.996094 C 49 45.546875 49.445313 45.996094 50 45.996094 C 50.554688 45.996094 51 45.546875 51 44.996094 L 51 42.996094 C 51 42.441406 50.554688 41.996094 50 41.996094 Z M 55 41.996094 C 54.445313 41.996094 54 42.441406 54 42.996094 L 54 44.996094 C 54 45.546875 54.445313 45.996094 55 45.996094 C 55.554688 45.996094 56 45.546875 56 44.996094 L 56 42.996094 C 56 42.441406 55.554688 41.996094 55 41.996094 Z "></path>
</g>
</svg>
