<svg xmlns="http://www.w3.org/2000/svg" xmlns:xlink="http://www.w3.org/1999/xlink" viewBox="0 0 50 50" version="1.1">
<g id="surface1">
<path style=" " d="M 27 2 C 24.25 2 22 4.25 22 7 C 22 9.75 24.25 12 27 12 C 29.75 12 32 9.75 32 7 C 32 4.25 29.75 2 27 2 Z M 27 4 C 28.667969 4 30 5.332031 30 7 C 30 8.667969 28.667969 10 27 10 C 25.332031 10 24 8.667969 24 7 C 24 5.332031 25.332031 4 27 4 Z M 23.210938 13 C 22.113281 13 21.042969 13.363281 20.171875 14.03125 L 14.21875 18.589844 C 14.183594 18.617188 14.148438 18.648438 14.113281 18.679688 C 13.773438 18.957031 13.488281 19.3125 13.296875 19.726563 C 13.265625 19.773438 13.238281 19.824219 13.214844 19.878906 L 10.378906 26.566406 C 10.148438 26.988281 10 27.476563 10 28 C 10 29.644531 11.355469 31 13 31 C 14.316406 31 15.4375 30.128906 15.832031 28.9375 L 18.28125 23.441406 L 19.421875 22.609375 C 18.875 24.855469 18.1875 27.675781 18.1875 27.675781 C 18.164063 27.761719 18.15625 27.847656 18.15625 27.9375 C 18.078125 28.257813 18.003906 28.59375 18 28.972656 C 18 28.984375 17.996094 28.992188 17.996094 29 L 16.570313 36.15625 L 11.953125 42.109375 L 12.035156 42.015625 C 11.398438 42.648438 11 43.53125 11 44.5 C 11 46.421875 12.578125 48 14.5 48 C 15.589844 48 16.492188 47.425781 17.132813 46.644531 C 17.253906 46.578125 17.363281 46.488281 17.449219 46.375 L 22.417969 39.902344 C 22.496094 39.796875 22.554688 39.679688 22.589844 39.554688 L 23.535156 36.078125 L 25.21875 37.609375 L 27.050781 44.980469 C 27.085938 45.238281 27.148438 45.5 27.25 45.757813 L 27.261719 45.800781 C 27.324219 46.0625 27.488281 46.285156 27.71875 46.421875 C 28.351563 47.328125 29.316406 48 30.5 48 C 32.421875 48 34 46.421875 34 44.5 C 34 44.011719 33.878906 43.566406 33.707031 43.160156 L 31.699219 35.109375 C 31.667969 34.980469 31.609375 34.859375 31.53125 34.753906 L 27.09375 28.796875 L 28.339844 24.214844 L 29.863281 25.90625 C 29.988281 26.046875 30.152344 26.148438 30.332031 26.199219 L 35.898438 27.789063 L 35.921875 27.796875 C 36.039063 27.84375 36.167969 27.867188 36.292969 27.863281 C 36.523438 27.925781 36.746094 28 37 28 C 38.644531 28 40 26.644531 40 25 C 40 23.917969 39.34375 23.070313 38.480469 22.542969 C 38.347656 22.355469 38.160156 22.21875 37.9375 22.152344 L 33.28125 20.785156 L 29.484375 15.402344 C 29.457031 15.359375 29.421875 15.320313 29.390625 15.285156 C 28.644531 13.996094 27.289063 13.109375 25.71875 13.03125 C 25.683594 13.019531 25.613281 13.015625 25.550781 13.011719 C 25.546875 13.007813 25.542969 13.007813 25.535156 13.007813 C 25.523438 13.007813 25.511719 13 25.5 13 C 25.320313 13 25.394531 13 25.484375 13 C 25.484375 13 25.476563 13 25.472656 13 Z M 23.210938 15 L 25.472656 15 C 25.476563 15 25.484375 15 25.484375 15 C 25.710938 15 25.714844 15 25.5 15 C 26.890625 15 28 16.109375 28 17.5 C 28 17.714844 27.957031 17.941406 27.886719 18.199219 C 27.867188 18.261719 27.851563 18.332031 27.847656 18.398438 L 25.035156 28.746094 C 24.953125 29.039063 25.015625 29.355469 25.199219 29.605469 L 29.808594 35.785156 L 31.765625 43.644531 C 31.785156 43.714844 31.808594 43.78125 31.839844 43.84375 C 31.945313 44.058594 32 44.273438 32 44.5 C 32 45.339844 31.339844 46 30.5 46 C 29.890625 46 29.386719 45.644531 29.144531 45.132813 C 29.140625 45.121094 29.136719 45.113281 29.128906 45.105469 C 29.128906 45.105469 29.128906 45.101563 29.128906 45.101563 C 29.078125 44.980469 29.039063 44.828125 29.019531 44.640625 C 29.015625 44.59375 29.007813 44.542969 28.996094 44.496094 L 27.085938 36.835938 C 27.039063 36.644531 26.933594 36.472656 26.789063 36.339844 L 21.773438 31.761719 C 21.714844 31.707031 21.648438 31.660156 21.578125 31.625 C 21.171875 31.402344 20.855469 31.085938 20.597656 30.734375 L 20.636719 31.039063 C 20.617188 30.898438 20.570313 30.761719 20.496094 30.640625 C 20.492188 30.636719 20.488281 30.636719 20.488281 30.632813 C 20.453125 30.578125 20.410156 30.523438 20.363281 30.476563 L 20.472656 30.589844 C 20.179688 30.121094 20 29.585938 20 29 C 20 28.75 20.046875 28.496094 20.125 28.214844 C 20.132813 28.167969 20.144531 28.121094 20.148438 28.078125 C 20.179688 27.949219 21.359375 23.449219 22.019531 20.390625 C 22.105469 19.988281 21.933594 19.570313 21.585938 19.34375 C 21.238281 19.117188 20.785156 19.128906 20.453125 19.375 L 16.890625 21.984375 C 16.75 22.085938 16.636719 22.226563 16.566406 22.386719 L 14.003906 28.125 C 13.984375 28.171875 13.96875 28.21875 13.953125 28.265625 C 13.835938 28.691406 13.46875 29 13 29 C 12.433594 29 12 28.566406 12 28 C 12 27.8125 12.054688 27.644531 12.152344 27.484375 C 12.179688 27.4375 12.203125 27.394531 12.21875 27.347656 L 15.003906 20.777344 L 14.941406 20.859375 C 14.996094 20.789063 15.042969 20.710938 15.078125 20.625 C 15.144531 20.457031 15.257813 20.3125 15.410156 20.199219 C 15.488281 20.144531 15.554688 20.078125 15.609375 20.003906 L 15.539063 20.09375 L 21.386719 15.621094 L 21.386719 15.617188 C 21.910156 15.21875 22.550781 15 23.210938 15 Z M 29.707031 19.1875 L 31.847656 22.222656 C 31.980469 22.40625 32.167969 22.542969 32.386719 22.605469 L 37.261719 24.035156 C 37.28125 24.046875 37.300781 24.054688 37.324219 24.0625 C 37.71875 24.199219 38 24.558594 38 25 C 38 25.566406 37.566406 26 37 26 C 36.882813 26 36.765625 25.976563 36.648438 25.929688 C 36.625 25.921875 36.597656 25.914063 36.574219 25.90625 C 36.570313 25.90625 36.570313 25.90625 36.570313 25.90625 C 36.558594 25.902344 36.550781 25.898438 36.539063 25.894531 C 36.472656 25.878906 36.40625 25.867188 36.335938 25.863281 C 36.335938 25.863281 36.332031 25.863281 36.332031 25.863281 C 35.957031 25.84375 35.601563 26.039063 35.414063 26.363281 L 35.761719 25.671875 L 31.15625 24.355469 L 28.964844 21.917969 Z M 36.332031 25.863281 C 36.289063 25.855469 36.246094 25.84375 36.234375 25.84375 C 36.230469 25.84375 36.226563 25.84375 36.222656 25.84375 C 36.222656 25.84375 36.285156 25.855469 36.332031 25.863281 Z M 36.234375 25.84375 L 36.488281 25.878906 C 36.40625 25.855469 36.320313 25.84375 36.234375 25.84375 Z M 19.359375 32.398438 C 19.691406 32.75 20.074219 33.050781 20.488281 33.296875 L 21.988281 34.664063 C 21.859375 34.789063 21.769531 34.949219 21.722656 35.125 L 20.710938 38.839844 L 16.464844 44.375 L 17.246094 44.964844 C 17.019531 44.792969 16.730469 44.726563 16.449219 44.78125 C 16.171875 44.839844 15.929688 45.011719 15.785156 45.253906 C 15.519531 45.703125 15.054688 46 14.5 46 C 13.660156 46 13 45.339844 13 44.5 C 13 44.078125 13.167969 43.710938 13.445313 43.4375 C 13.476563 43.40625 13.503906 43.371094 13.53125 43.339844 L 18.296875 37.191406 C 18.390625 37.070313 18.457031 36.929688 18.484375 36.777344 Z "></path>
</g>
</svg>
