<?xml version="1.0" encoding="utf-8"?>
<!-- Generator: Adobe Illustrator 19.1.0, SVG Export Plug-In . SVG Version: 6.00 Build 0)  -->
<!DOCTYPE svg PUBLIC "-//W3C//DTD SVG 1.1//EN" "http://www.w3.org/Graphics/SVG/1.1/DTD/svg11.dtd">
<svg version="1.1" id="Layer_1" xmlns="http://www.w3.org/2000/svg" xmlns:xlink="http://www.w3.org/1999/xlink" x="0px" y="0px"
	 width="16px" height="16px" viewBox="0 0 16 16" enable-background="new 0 0 16 16" xml:space="preserve">
<path fill="#444444" d="M8,0C3.6,0,0,3.6,0,8s3.6,8,8,8s8-3.6,8-8S12.4,0,8,0z M8,14c-1.5,0-2.8-0.5-3.9-1.4
	c0.6-0.8,0.7-1.8,0.1-2.6C3.7,9.3,2.9,8.6,2.9,8c0-0.8,1.9-1.1,2.5-1.9C6.1,5.3,5.4,3.8,4.7,3c0.8-0.5,1.7-0.9,2.8-1
	c0.2,0.5,0.9,1.1,1.2,1.5c0.5,0.8,0.6,1.3,1.3,1.3c0.2,0,2,0,3-0.3C13.6,5.5,14,6.7,14,8C14,11.3,11.3,14,8,14z"/>
<path data-color="color-2" fill="#444444" d="M10.2,6.7C9,6.7,7.9,7.5,8,8.6c0.3,2.5-0.5,3.4,0.6,3.9c1.3,0.5,3.9-1.9,3.8-3.9
	C12.4,7.5,11.5,6.7,10.2,6.7z"/>
</svg>
